<svg width="120" height="120" viewBox="0 0 120 120" fill="none" xmlns="http://www.w3.org/2000/svg">
<path d="M105.671 90.8114L91.3082 102.863L62.532 68.5689L63.4339 61.8182L69.7394 56.5272L76.8945 56.5173L105.671 90.8114Z" fill="#9E9E9E"/>
<path d="M94.0942 86.5395L88.8182 90.9666L77.117 78.8075C75.1809 76.1033 73.0774 72.2074 74.4856 68.5283C78.3534 67.7803 82.1841 70.5598 84.1517 72.9047L94.0942 86.5395Z" fill="#E0E0E0" fill-opacity="0.5"/>
<path d="M108.173 78.0542L102.23 79.871L97.0347 66.4199C96.4265 63.6435 96.1138 59.8654 98.6071 57.394C102.056 58.0486 104.193 61.4968 104.958 63.9975L108.173 78.0542Z" fill="white"/>
<path d="M90.057 88.184L88.9091 89.3319C83.1426 83.4095 80.0471 80.6285 78.1955 78.2356C75.5012 74.7535 74.7518 71.7308 75.1344 69.4351L90.057 88.184Z" fill="#E0E0E0"/>
<path d="M104.597 77.8528L102.684 78.6181C100.006 70.9654 98.9634 69.2715 98.0923 66.374C97.3272 62.5476 97.6252 60.3784 98.8051 58.3721L104.597 77.8528Z" fill="#E0E0E0"/>
<path d="M91.2047 100.811L92.3526 99.6628L64.0379 65.6086L63.6553 68.2871L91.2047 100.811Z" fill="#E0E0E0"/>
<path d="M87.5366 5C81.3749 14.7646 75.272 25.1395 71 31.8526H103.345C98.4629 22.6983 92.9703 14.1543 87.5366 5Z" fill="#E0E0E0"/>
<path d="M22.8263 7C31.1464 7 39.1174 17.68 39.4665 27.1069C39.6092 30.9607 38.7596 39.3932 41.176 42.5C43.2043 45.1078 58.1626 51.4977 57.494 52.7605C56.8723 53.9349 50.3484 57.3829 49.424 58.3072C47.4482 60.283 51.381 63.4524 50.5599 66.6273C50.2669 67.7604 50.8989 68.5331 49.424 69.4006C45.3251 71.8118 30.3089 73.8809 31.1464 81.8808C31.3873 84.1816 32.7871 85.2882 34.6131 86.7341C39.1675 90.3405 46.5132 85.5187 49.424 85.3475C52.0148 85.1951 53.5734 86.7341 50.5599 90.2009C49.424 94.3609 50.5599 97.1343 53.5734 99.8822C54.0167 101.877 54.1821 102.761 53.5734 105.5C52.5768 109.985 44.5667 114 40.3158 114C30.7644 114 16.5311 111.01 7.5 108" stroke="black" stroke-linecap="round"/>
<path d="M26.465 45C25.1483 45.9975 21.7133 48.6433 21 48.6433" stroke="black" stroke-linecap="round"/>
<path d="M107.214 91.7336L92.5014 104.079L63.0234 68.9486L63.9473 62.0333L70.4066 56.6133L77.7361 56.6031L107.214 91.7336Z" stroke="black" stroke-linecap="round" stroke-linejoin="round"/>
<path d="M95.3554 87.3575L89.9508 91.8925L77.9642 79.4369C75.9809 76.6667 73.8261 72.6759 75.2687 68.907C79.2307 68.1408 83.1549 70.9881 85.1705 73.3902L95.3554 87.3575Z" stroke="black" stroke-linecap="round" stroke-linejoin="round"/>
<path d="M109.777 78.6652L103.689 80.5263L98.3674 66.7472C97.7444 63.9031 97.424 60.0328 99.9782 57.5012C103.511 58.1717 105.701 61.7041 106.484 64.2658L109.777 78.6652Z" stroke="black" stroke-linecap="round" stroke-linejoin="round"/>
<path d="M87.7823 27.7563C86.9685 27.7563 86.9683 28.9661 87.7823 28.9661C88.5958 28.9662 88.5958 27.7564 87.7823 27.7563Z" stroke="black" stroke-linecap="round" stroke-linejoin="round"/>
<path d="M87.7827 23.3699V12.6345" stroke="black" stroke-linecap="round" stroke-linejoin="round"/>
<path d="M87.8413 5.98047C81.6796 15.6586 75.5767 25.9417 71.3047 32.5954H103.65C98.7676 23.5222 93.275 15.0538 87.8413 5.98047Z" stroke="black" stroke-linecap="round" stroke-linejoin="round"/>
</svg>
