<svg width="120" height="120" viewBox="0 0 120 120" fill="none" xmlns="http://www.w3.org/2000/svg">
<path d="M6.64599 112.502C6.64599 76.9486 5.99988 38.6898 6 2.33496C32.4821 9.39045 53.3302 2.33502 79.6298 2.33504V109.121C61.2185 109.121 24.6725 121.515 6.64599 112.502Z" fill="#F5F5F5"/>
<path d="M102.405 12.2075C96.7158 21.2227 91.0814 30.8013 87.1372 36.9993H117C112.492 28.5475 107.421 20.6593 102.405 12.2075Z" fill="#E0E0E0"/>
<path d="M6.64599 112.502C6.64599 76.9486 5.99988 38.6898 6 2.33496C32.4821 9.39045 53.3302 2.33502 79.6298 2.33504V109.121C61.2185 109.121 24.6725 121.515 6.64599 112.502Z" stroke="black" stroke-linecap="round" stroke-linejoin="round"/>
<path d="M20.4803 26.0829C18.6069 29.8932 17.27 33.8493 17.27 38.1194C17.27 41.3179 19.1292 42.8257 21.7078 40.0637C26.3759 35.0638 30.4807 29.0685 34.5491 23.5831C35.5405 22.2464 37.9998 18.5851 37.4762 22.5646C36.9009 26.9363 35.7638 31.2284 35.3045 35.6195C34.6419 41.9548 38.846 33.8684 39.8367 32.2863C41.9586 28.8978 43.89 22.5479 47.3432 20.2036C48.8995 19.1471 47.877 26.2048 47.8153 26.6385C47.7502 27.0958 46.0439 33.8543 46.2574 33.9066C47.0217 34.094 51.431 26.2677 52.0643 25.4811C57.9527 18.1672 56.6294 25.2762 57.2574 30.2031C57.5033 32.1316 60.9012 27.2256 61.5064 26.7311C64.7836 24.0531 66.739 24.222 69.1073 27.0088" stroke="black" stroke-linecap="round"/>
<path d="M102.35 32.4917C101.599 32.4916 101.599 33.6186 102.35 33.6186C103.101 33.6186 103.101 32.4918 102.35 32.4917Z" stroke="black" stroke-linecap="round"/>
<path d="M102.351 28.4058V18.4058" stroke="black" stroke-linecap="round" stroke-linejoin="round"/>
<path d="M102.405 12.2075C96.7158 21.2227 91.0814 30.8013 87.1372 36.9993H117C112.492 28.5475 107.421 20.6593 102.405 12.2075Z" stroke="black" stroke-linecap="round" stroke-linejoin="round"/>
<path d="M31.9194 83.2457C35.4899 85.5874 39.085 87.7143 43.1308 89.1526C47.2419 90.614 51.5021 91.2608 55.8384 91.562C59.667 91.8278 64.2648 92.504 68.0601 91.5425C70.1512 91.0128 71.4815 89.77 71.305 87.5496C70.9881 83.5611 67.5931 80.2524 65.0095 77.5429C61.3482 73.703 57.0422 69.5361 51.3305 69.6832C46.802 69.7999 42.7537 74.7836 44.1606 79.1847C45.4276 83.1481 51.2972 82.305 54.4977 81.5747C54.804 81.5048 55.507 81.0424 55.4109 81.3415C55.1367 82.1944 54.4188 83.0362 53.8953 83.7315C52.078 86.1451 49.7448 87.882 47.6387 89.9881C47.4239 90.2029 47.5497 90.233 47.7747 90.2018C49.4248 89.9734 51.1897 89.6945 52.8558 89.8521C54.4207 90.0001 53.477 92.1445 53.6816 93.1164C53.8689 94.0062 54.6602 94.9381 55.5275 95.2149C57.3834 95.8072 60.3388 95.6242 62.1533 94.9234C66.8189 93.1214 65.6594 86.99 63.698 83.644C61.8126 80.4279 57.8847 86.9581 57.2374 88.1228C56.032 90.2913 54.6072 92.6773 54.2451 95.176C54.1548 95.7987 53.7648 98.338 54.4005 98.8581C54.7984 99.1836 55.7543 97.2614 56.0132 97.0025C56.5987 96.417 59.1521 102.547 59.5284 102.923" stroke="black" stroke-linecap="round"/>
</svg>
