<svg width="120" height="120" viewBox="0 0 120 120" fill="none" xmlns="http://www.w3.org/2000/svg">
<path d="M86.7071 3.3125C80.2282 13.5797 73.8112 24.4885 69.3193 31.5472H103.329C98.1958 21.9218 92.4205 12.938 86.7071 3.3125Z" fill="#E0E0E0"/>
<path d="M61.9592 119.5H55.6504C58.1739 114.453 54.5989 107.233 52.496 104.254C55.6504 103.202 57.7533 102.677 61.9592 100.048C59.8563 108.039 61.083 116.346 61.9592 119.5Z" fill="#E0E0E0"/>
<path d="M41.9813 104.779C38.6166 104.779 29.7141 104.254 27.2607 104.254C32.7284 110.983 30.2399 117.222 28.3122 119.5C32.5181 119.5 40.4041 119.395 38.3011 118.974C35.6725 118.449 46.1872 104.779 41.9813 104.779Z" fill="#E0E0E0"/>
<path d="M24.632 78.4927C23.494 74.8299 24.4568 71.6581 23.5806 69.0295L31.9923 77.967L33.0438 85.3272L38.3011 86.3787L41.4556 84.8015V78.4927L45.1357 85.3272C46.0119 85.152 48.0798 84.8015 49.3416 84.8015C50.6033 84.8015 50.9188 83.3996 50.9188 82.6986C51.094 78.6679 51.9703 70.817 51.9703 71.6581C51.9703 71.7002 51.9978 71.7367 52.0496 71.7685L48.8158 61.1434C51.5829 62.5454 57.2442 65.3493 57.7533 65.3493C57.9575 65.3493 58.4093 66.323 58.8769 67.663L58.2791 64.8236C58.9801 64.8236 60.4872 64.9287 60.9078 65.3493C61.4335 65.875 64.0622 74.2868 64.0622 74.8125C64.0622 75.2331 61.6087 74.9878 60.382 74.8125L60.294 74.3942C60.2575 74.9051 60.1229 75.2494 59.8563 75.3383C59.4765 75.4649 58.8015 75.3565 58.0003 75.1336C57.9224 75.2003 57.8401 75.2686 57.7533 75.3383C55.7048 76.9856 50.9188 84.8015 50.9188 84.8015C50.0426 87.4302 47.9747 92.3721 46.7129 91.1103C46.1872 89.5331 43.5585 90.5846 41.4556 91.1103C39.7732 91.5309 36.5487 89.5331 35.1467 88.4817C33.0438 87.4302 28.7328 85.2221 28.3122 84.8015C27.7864 84.2758 25.4026 80.9728 24.632 78.4927Z" fill="#E0E0E0"/>
<path d="M44.0842 73.2353C46.3492 73.2353 49.5168 71.4829 50.9188 70.0809C50.9188 73.7611 50.7085 81.4368 49.8673 82.6986C48.8159 84.2758 45.6614 83.2243 45.1357 82.6986C44.61 82.1728 41.4556 73.2354 44.0842 73.2353Z" fill="#E0E0E0"/>
<path d="M33.5695 77.4412C35.0565 75.9542 38.4764 75.5135 39.8784 74.2868C40.2288 77.4412 40.1938 83.4346 39.3526 84.2758C38.5114 85.117 36.1982 84.6263 34.621 84.2758C33.3943 81.9976 33.0438 77.967 33.5695 77.4412Z" fill="#E0E0E0"/>
<path d="M65.1136 79.5442C63.0107 79.9647 55.1247 90.5846 51.4445 95.8419C50.7435 96.7182 50.1828 98.7861 53.5475 100.048C57.7533 101.625 61.9592 96.8934 63.0107 95.8419C64.0622 94.7905 69.8453 79.5442 69.3195 79.0184C68.7938 78.4927 67.7423 79.0184 65.1136 79.5442Z" fill="#E0E0E0"/>
<path d="M60.9078 57.4633L53.5475 55.3603C54.5989 53.2574 49.3416 45.8971 48.8158 45.3714C48.2901 44.8456 53.5475 47.4743 53.5475 48.0001C53.5475 48.4207 58.4543 52.9069 60.9078 57.4633Z" fill="#E0E0E0"/>
<path d="M86.9656 26.1887C86.1099 26.1886 86.1097 27.4607 86.9655 27.4608C87.821 27.4608 87.821 26.1888 86.9656 26.1887Z" stroke="black" stroke-linecap="round" stroke-linejoin="round"/>
<path d="M86.9658 21.5765V10.2886" stroke="black" stroke-linecap="round" stroke-linejoin="round"/>
<path d="M87.0274 3.29199C80.5485 13.4683 74.1315 24.2806 69.6396 31.2768H103.65C98.5161 21.7366 92.7408 12.8323 87.0274 3.29199Z" stroke="black" stroke-linecap="round" stroke-linejoin="round"/>
<path d="M45.6612 42.7427L45.904 42.3056L45.7908 42.2427H45.6612V42.7427ZM53.5986 55.5184C53.6859 55.7804 53.9691 55.922 54.2311 55.8347C54.493 55.7473 54.6346 55.4642 54.5473 55.2022L53.5986 55.5184ZM34.6465 51.1544C34.6465 51.4306 34.8703 51.6544 35.1465 51.6544C35.4226 51.6544 35.6465 51.4306 35.6465 51.1544H34.6465ZM45.4184 43.1798C49.9599 45.7028 52.128 51.1066 53.5986 55.5184L54.5473 55.2022C53.0873 50.8224 50.8257 45.0399 45.904 42.3056L45.4184 43.1798ZM45.6612 42.2427C43.5156 42.2427 40.7872 43.2336 38.6 44.8012C36.4211 46.3628 34.6465 48.5965 34.6465 51.1544H35.6465C35.6465 49.0697 37.1125 47.0975 39.1825 45.614C41.2443 44.1363 43.7733 43.2427 45.6612 43.2427V42.2427Z" fill="black"/>
<path d="M64.5873 58.5146C62.2697 50.1736 58.2784 38.5367 56.1755 34.8566C55.6498 30.6507 54.0726 25.9191 52.3771 22.2632C51.9696 17.5073 50.2199 13.6905 46.5301 10.0007C44.6701 8.14066 39.9521 8.27058 39.9521 11.4624C39.9521 22.9517 43.2143 33.2794 46.1865 42.7426" stroke="black" stroke-linecap="round"/>
<path d="M23.873 68.4712C25.1576 71.1325 28.8378 75.3383 30.9407 76.9156C33.075 78.5163 32.0865 82.1224 33.0436 84.2758C34.2164 86.9146 40.9297 87.52 40.9297 83.8197C40.9297 82.1729 41.9811 76.9156 40.9297 72.1839" stroke="black" stroke-linecap="round"/>
<path d="M51.9702 77.4412C52.4959 78.4926 53.2038 79.0586 53.7796 79.2506" stroke="black" stroke-linecap="round"/>
<path d="M69.845 63.2464L69.4079 63.4892L69.845 63.2464ZM48.2898 55.3604V54.8604H48.2586L48.2278 54.8642L48.2898 55.3604ZM55.6503 64.2978L55.552 64.7881L55.552 64.7881L55.6503 64.2978ZM60.3819 74.8126L60.4886 75.301L61.0891 75.1698L60.8384 74.6086L60.3819 74.8126ZM67.2165 92.5903L67.6499 92.8397L67.6633 92.8164L67.6741 92.7918L67.2165 92.5903ZM52.3276 103.783C52.0676 103.876 51.9321 104.162 52.0251 104.422C52.118 104.682 52.4042 104.817 52.6642 104.725L52.3276 103.783ZM47.5301 92.3988C47.4244 92.6539 47.5454 92.9464 47.8005 93.0522C48.0556 93.1579 48.3481 93.0369 48.4539 92.7818L47.5301 92.3988ZM70.2821 63.0036C68.4927 59.7827 64.509 57.7641 60.3049 56.5447C56.0728 55.3173 51.4799 54.8604 48.2898 54.8604V55.8604C51.4038 55.8604 55.9007 56.3086 60.0264 57.5051C64.18 58.7099 67.8218 60.6342 69.4079 63.4892L70.2821 63.0036ZM48.2278 54.8642C47.635 54.9383 47.1313 55.1267 46.743 55.4343C46.3498 55.7458 46.101 56.1597 45.9948 56.6319C45.7875 57.5543 46.1304 58.6404 46.8234 59.6728C48.2244 61.7597 51.2417 63.9243 55.552 64.7881L55.7485 63.8076C51.6473 62.9857 48.8815 60.9444 47.6537 59.1154C47.0323 58.1898 46.8493 57.3906 46.9705 56.8512C47.0286 56.5927 47.1576 56.3816 47.364 56.2181C47.5754 56.0506 47.8931 55.9138 48.3518 55.8565L48.2278 54.8642ZM55.552 64.7881C56.5336 64.9848 57.1434 65.4162 57.5626 65.996C57.9966 66.5961 58.2529 67.3913 58.4453 68.3596C58.6431 69.3544 58.7499 70.3764 58.951 71.5521C59.1454 72.6883 59.4172 73.8788 59.9254 75.0165L60.8384 74.6086C60.3802 73.5828 60.1255 72.487 59.9367 71.3834C59.7546 70.3192 59.6215 69.1477 59.4261 68.1646C59.2255 67.155 58.9354 66.1877 58.373 65.41C57.7959 64.612 56.9596 64.0503 55.7485 63.8076L55.552 64.7881ZM48.4539 92.7818C49.9177 89.2514 51.3267 85.2279 53.2097 81.873C55.0927 78.5183 57.3721 75.9819 60.4886 75.301L60.2752 74.3241C56.7271 75.0992 54.2596 77.9595 52.3377 81.3835C50.416 84.8073 48.9623 88.9447 47.5301 92.3988L48.4539 92.7818ZM69.4079 63.4892C71.0918 66.5202 71.6665 70.9523 71.1889 76.0586C70.7125 81.1521 69.1942 86.8576 66.7589 92.3888L67.6741 92.7918C70.1473 87.1746 71.697 81.3648 72.1845 76.1517C72.6709 70.9515 72.1055 66.2858 70.2821 63.0036L69.4079 63.4892ZM66.7831 92.3409C64.2611 96.724 62.2623 98.9831 60.1228 100.443C57.9636 101.916 55.6383 102.599 52.3276 103.783L52.6642 104.725C55.8965 103.569 58.3913 102.835 60.6865 101.269C63.0014 99.6894 65.0914 97.2862 67.6499 92.8397L66.7831 92.3409Z" fill="black"/>
<path d="M28.8374 104.254C33.2635 104.948 34.9057 104.985 39.3646 104.985" stroke="black" stroke-linecap="round"/>
<path d="M61.9589 99.522C61.1646 103.692 59.8562 115.294 61.959 119.5" stroke="black" stroke-linecap="round"/>
<path d="M50.393 65.3492L50.8261 65.0994L50.393 65.3492ZM43.607 55.3154L43.8844 54.8993L43.607 55.3154ZM41.4143 73.1813H41.9143V73.0542L41.8537 72.9426L41.4143 73.1813ZM46.1871 85.3272L46.1251 85.8233L46.156 85.8272H46.1871V85.3272ZM51.6061 80.8961L52.1052 80.9255L51.6061 80.8961ZM24.7742 57.7336C24.597 57.9454 24.6251 58.2607 24.8368 58.4379C25.0486 58.6151 25.364 58.587 25.5412 58.3752L24.7742 57.7336ZM20.2186 61.1624L19.8246 60.8545L19.8246 60.8545L20.2186 61.1624ZM16.746 86.9044L16.2605 87.0237H16.2605L16.746 86.9044ZM28.8379 106.882L28.3636 107.04L28.3669 107.051L28.3707 107.06L28.8379 106.882ZM28.3818 118.769C28.2686 119.021 28.3811 119.317 28.633 119.43C28.8849 119.544 29.1808 119.431 29.294 119.179L28.3818 118.769ZM50.8261 65.0994C49.9248 63.5371 48.7304 61.3508 47.5122 59.3983C46.9017 58.4198 46.278 57.4879 45.6727 56.7102C45.0739 55.9409 44.4668 55.2876 43.8844 54.8993L43.3297 55.7314C43.7745 56.0279 44.3017 56.577 44.8836 57.3245C45.4589 58.0636 46.062 58.9631 46.6638 59.9276C47.8701 61.8611 49.0415 64.007 49.9599 65.5991L50.8261 65.0994ZM40.9143 73.1813C40.9143 74.0433 41.0581 76.9898 41.7375 79.801C42.0767 81.2048 42.5574 82.609 43.2428 83.7072C43.9272 84.8038 44.8627 85.6655 46.1251 85.8233L46.2491 84.831C45.4085 84.726 44.696 84.1469 44.0912 83.1778C43.4874 82.2104 43.0377 80.9242 42.7095 79.5661C42.054 76.8534 41.9143 73.9898 41.9143 73.1813H40.9143ZM46.1871 85.8272C47.2165 85.8272 48.0863 85.8047 48.8073 85.7012C49.5297 85.5975 50.1484 85.4068 50.6475 85.0374C51.6629 84.286 51.9862 82.9476 52.1052 80.9255L51.1069 80.8668C50.9868 82.9083 50.6583 83.7854 50.0526 84.2336C49.7412 84.4641 49.3073 84.6192 48.6652 84.7114C48.0217 84.8037 47.2152 84.8272 46.1871 84.8272V85.8272ZM25.5412 58.3752C29.7506 53.3439 32.4182 51.6309 34.8237 51.6017C36.0307 51.5871 37.2345 51.9941 38.6124 52.731C39.9971 53.4715 41.5025 54.5133 43.3297 55.7314L43.8844 54.8993C42.086 53.7004 40.524 52.6193 39.084 51.8492C37.6372 51.0755 36.2591 50.5842 34.8116 50.6018C31.9081 50.637 28.9766 52.7106 24.7742 57.7336L25.5412 58.3752ZM52.1052 80.9255C52.2351 78.7174 52.5327 75.8245 52.4951 72.9919C52.4577 70.1623 52.0882 67.2874 50.8261 65.0994L49.9599 65.5991C51.0895 67.5573 51.4583 70.2173 51.4952 73.0052C51.5321 75.7902 51.2404 78.5976 51.1069 80.8668L52.1052 80.9255ZM20.6127 61.4702C22.1253 59.534 23.89 58.9632 25.7584 59.2278C27.674 59.4992 29.7436 60.658 31.7658 62.2989C35.8035 65.5752 39.4423 70.5996 40.975 73.42L41.8537 72.9426C40.2731 70.0339 36.5565 64.8984 32.3959 61.5224C30.319 59.8371 28.0788 58.5466 25.8986 58.2377C23.6713 57.9222 21.5545 58.6404 19.8246 60.8545L20.6127 61.4702ZM19.8246 60.8545C18.8506 62.1013 18.0384 63.9048 17.3912 65.9894C16.7416 68.0818 16.2479 70.4913 15.9282 72.9767C15.29 77.9371 15.3369 83.2618 16.2605 87.0237L17.2316 86.7852C16.3482 83.1868 16.2906 77.9968 16.92 73.1044C17.234 70.6634 17.7172 68.312 18.3462 66.2859C18.9776 64.2522 19.7458 62.5797 20.6127 61.4702L19.8246 60.8545ZM16.2605 87.0237C17.631 92.6061 20.2897 96.4232 22.793 99.4543C23.4172 100.21 24.0331 100.919 24.6139 101.59C25.1964 102.263 25.7426 102.897 26.2364 103.514C27.2274 104.751 27.9772 105.881 28.3636 107.04L29.3123 106.724C28.8687 105.393 28.0283 104.151 27.0169 102.889C26.5095 102.255 25.9514 101.607 25.37 100.935C24.7869 100.262 24.1794 99.5626 23.5641 98.8176C21.1091 95.8449 18.5519 92.1631 17.2316 86.7852L16.2605 87.0237ZM28.3707 107.06C29.2528 109.376 29.8121 111.013 29.8836 112.709C29.9544 114.39 29.5459 116.178 28.3818 118.769L29.294 119.179C30.4917 116.513 30.9626 114.563 30.8827 112.667C30.8035 110.786 30.182 109.006 29.3052 106.704L28.3707 107.06Z" fill="black"/>
<path d="M35.884 8.82008C36.0608 8.60794 36.0321 8.29266 35.82 8.11588C35.6078 7.9391 35.2926 7.96777 35.1158 8.17992L35.884 8.82008ZM35.1463 17.8535C35.3416 18.0488 35.6582 18.0488 35.8534 17.8536C36.0487 17.6583 36.0487 17.3417 35.8535 17.1465L35.1463 17.8535ZM31.3535 10.8536C31.5488 10.6583 31.5488 10.3417 31.3535 10.1464C31.1583 9.95118 30.8417 9.95118 30.6464 10.1464L31.3535 10.8536ZM31.2428 17.4287C31.4795 17.5708 31.7867 17.494 31.9287 17.2572C32.0708 17.0205 31.994 16.7133 31.7572 16.5713L31.2428 17.4287ZM30.6464 10.1464C29.764 11.0288 29.3672 12.5096 29.4316 13.8821C29.496 15.2544 30.0329 16.7028 31.2428 17.4287L31.7572 16.5713C30.95 16.0869 30.4868 15.0353 30.4305 13.8352C30.3742 12.6353 30.7359 11.4712 31.3535 10.8536L30.6464 10.1464ZM35.1158 8.17992C33.805 9.75293 33.125 11.4878 33.125 13.1875C33.125 14.8922 33.8096 16.5168 35.1463 17.8535L35.8535 17.1465C34.6903 15.9832 34.125 14.6078 34.125 13.1875C34.125 11.7622 34.6949 10.2471 35.884 8.82008L35.1158 8.17992Z" fill="black"/>
</svg>
