<svg width="481" height="241" viewBox="0 0 481 241" fill="none" xmlns="http://www.w3.org/2000/svg">
<path d="M463.64 53.6685C474.852 42.972 472.384 32.7096 472.384 32.7096L469.046 19.9703L421.641 46.7235L427.65 56.9148C436.776 65.6213 452.428 64.365 463.64 53.6685Z" fill="#E6E6E6"/>
<ellipse rx="27.3298" ry="22.2452" transform="matrix(0.723545 -0.690277 0.723545 0.690277 444.865 31.5315)" fill="white"/>
<path d="M427.937 19.6824L460.92 43.6832" stroke="#E6E6E6" stroke-width="1.33333" stroke-linecap="round" stroke-linejoin="round"/>
<path d="M463.069 14.603C454.891 6.86651 440.212 7.40723 429.63 17.9431L462.222 41.6929C469.113 32.5484 470.219 21.3663 463.069 14.603Z" fill="#E0E0E0"/>
<path d="M460.938 44.7589C461.229 44.5329 461.281 44.114 461.055 43.8234C460.829 43.5328 460.41 43.4804 460.12 43.7065L460.938 44.7589ZM427.012 48.0422L426.555 48.5276L426.592 48.5622L426.634 48.5909L427.012 48.0422ZM427.524 22.2257C427.76 21.9429 427.722 21.5226 427.439 21.2868C427.156 21.051 426.736 21.0891 426.5 21.3719L427.524 22.2257ZM460.12 43.7065C448.836 52.4821 436.887 54.0474 427.391 47.4935L426.634 48.5909C436.763 55.582 449.364 53.761 460.938 44.7589L460.12 43.7065ZM427.469 47.5568C423.91 44.206 422.087 40.1051 422.054 35.7527C422.02 31.3924 423.784 26.7123 427.524 22.2257L426.5 21.3719C422.601 26.0482 420.684 31.0247 420.721 35.7629C420.757 40.5088 422.754 44.9482 426.555 48.5276L427.469 47.5568Z" fill="#E0E0E0"/>
<path d="M464.328 12.5839C472.138 20.0348 471.856 32.7396 464.328 42.8139C463.93 43.3468 463.507 45.2276 463.069 45.7447C462.679 46.2034 462.279 45.3002 461.858 45.7447C461.463 46.1621 461.054 46.5729 460.631 46.9764C449.655 57.4477 433.515 59.027 424.581 50.5038C415.647 41.9807 417.302 26.5826 428.278 16.1113C439.254 5.64001 455.394 4.06072 464.328 12.5839Z" stroke="black"/>
<path d="M462.32 14.1225L461.973 14.4827L461.973 14.4827L462.32 14.1225ZM429.283 16.9907C429.084 17.1822 429.078 17.4987 429.27 17.6976C429.461 17.8966 429.778 17.9025 429.977 17.711L429.283 16.9907ZM462.294 40.9721C462.13 41.1941 462.176 41.5072 462.398 41.6715C462.62 41.8358 462.933 41.7891 463.098 41.5672L462.294 40.9721ZM429.977 17.711C439.805 8.24782 454.128 6.92863 461.973 14.4827L462.667 13.7624C454.31 5.71571 439.361 7.28723 429.283 16.9907L429.977 17.711ZM461.973 14.4827C468.831 21.0858 469.009 31.9018 462.294 40.9721L463.098 41.5672C470.034 32.1975 469.973 20.7973 462.667 13.7624L461.973 14.4827Z" fill="black"/>
<path d="M460.449 44.867C460.65 44.6777 460.659 44.3613 460.47 44.1602C460.281 43.9592 459.964 43.9496 459.763 44.1389L460.449 44.867ZM426.571 48.5567L426.228 48.9207L426.571 48.5567ZM427.396 21.2723C427.573 21.0602 427.544 20.7449 427.332 20.5681C427.12 20.3913 426.805 20.4199 426.628 20.632L427.396 21.2723ZM459.763 44.1389C454.866 48.7499 448.603 51.6224 442.58 52.4044C436.553 53.1868 430.822 51.8726 426.913 48.1926L426.228 48.9207C430.415 52.8634 436.479 54.2048 442.709 53.396C448.942 52.5867 455.399 49.621 460.449 44.867L459.763 44.1389ZM426.913 48.1926C419.794 41.4892 419.88 30.2875 427.396 21.2723L426.628 20.632C418.866 29.9427 418.626 41.7636 426.228 48.9207L426.913 48.1926Z" fill="black"/>
<line x1="427.655" y1="18.443" x2="461.688" y2="43.111" stroke="black" stroke-linecap="round" stroke-linejoin="round"/>
<path d="M421.587 46.7722L427.649 56.9147C436.775 65.6211 452.427 64.3646 463.639 53.6681C474.851 42.9716 472.383 32.7095 472.383 32.7095L469.418 21.3754" stroke="black" stroke-linecap="round" stroke-linejoin="round"/>
<path d="M452.678 163.809L423.81 128.95L429.996 108.659L433.604 107.619L430.511 111.781L429.996 114.383L428.965 119.065L428.449 123.748L425.356 128.95H429.996L435.151 127.39L439.79 123.748H443.914L448.038 122.707H451.132H454.74L457.833 124.788L462.988 129.471L480 153.924L452.678 163.809Z" fill="white"/>
<path d="M429.048 132.381L450.476 156.19C449.524 149.048 445.915 146.751 441.429 141.905C437.285 137.428 432.54 134.444 429.048 132.381Z" fill="#E6E6E6"/>
<path d="M457.619 141.905C452.309 144.491 450.477 155.238 450.477 155.238L452.858 164.286L479.524 153.809L474.762 147.619C474.762 147.619 463.964 138.815 457.619 141.905Z" fill="#E6E6E6"/>
<path d="M453.81 124.286L430 131.905C430 131.905 436.282 127.238 440.952 125.714C445.755 124.147 453.81 124.286 453.81 124.286Z" fill="#E6E6E6"/>
<path d="M452.678 163.809L423.81 128.95L429.996 108.659L433.604 107.619L430.511 111.781L429.996 114.383L428.965 119.065L428.449 123.748L425.356 128.95H429.996L435.151 127.39L439.79 123.748H443.914L448.038 122.707H451.132H454.74L457.833 124.788L462.988 129.471L480 153.924L452.678 163.809Z" stroke="black" stroke-linecap="round" stroke-linejoin="round"/>
<path d="M454.801 122.857C459.944 126.19 468.936 135.714 474.285 147.143L450.588 155.238C445.111 143.095 434.79 135.506 429.523 131.964L450.061 125.387" stroke="black" stroke-linecap="round" stroke-linejoin="round"/>
<path d="M452.698 157.659L454.356 159.634" stroke="black" stroke-linecap="round" stroke-linejoin="round"/>
<path d="M455.794 156.627L457.452 158.603" stroke="black" stroke-linecap="round" stroke-linejoin="round"/>
<path d="M458.889 155.595L460.547 157.571" stroke="black" stroke-linecap="round" stroke-linejoin="round"/>
<path d="M461.984 154.563L463.642 156.539" stroke="black" stroke-linecap="round" stroke-linejoin="round"/>
<path d="M465.079 153.532L466.737 155.508" stroke="black" stroke-linecap="round" stroke-linejoin="round"/>
<path d="M468.175 152.5L469.833 154.476" stroke="black" stroke-linecap="round" stroke-linejoin="round"/>
<path d="M471.27 151.468L472.928 153.444" stroke="black" stroke-linecap="round" stroke-linejoin="round"/>
<path d="M474.365 150.436L476.023 152.412" stroke="black" stroke-linecap="round" stroke-linejoin="round"/>
<mask id="path-25-inside-1_1193_4212" fill="white">
<ellipse cx="432.381" cy="123.809" rx="0.952381" ry="0.952381"/>
</mask>
<path d="M432.333 123.809C432.333 123.783 432.355 123.762 432.381 123.762V125.762C433.459 125.762 434.333 124.888 434.333 123.809H432.333ZM432.381 123.762C432.407 123.762 432.429 123.783 432.429 123.809H430.429C430.429 124.888 431.303 125.762 432.381 125.762V123.762ZM432.429 123.809C432.429 123.836 432.407 123.857 432.381 123.857V121.857C431.303 121.857 430.429 122.731 430.429 123.809H432.429ZM432.381 123.857C432.355 123.857 432.333 123.836 432.333 123.809H434.333C434.333 122.731 433.459 121.857 432.381 121.857V123.857Z" fill="black" mask="url(#path-25-inside-1_1193_4212)"/>
<mask id="path-27-inside-2_1193_4212" fill="white">
<ellipse cx="435.239" cy="123.809" rx="0.952381" ry="0.952381"/>
</mask>
<path d="M435.191 123.809C435.191 123.783 435.212 123.762 435.239 123.762V125.762C436.317 125.762 437.191 124.888 437.191 123.809H435.191ZM435.239 123.762C435.265 123.762 435.286 123.783 435.286 123.809H433.286C433.286 124.888 434.16 125.762 435.239 125.762V123.762ZM435.286 123.809C435.286 123.836 435.265 123.857 435.239 123.857V121.857C434.16 121.857 433.286 122.731 433.286 123.809H435.286ZM435.239 123.857C435.212 123.857 435.191 123.836 435.191 123.809H437.191C437.191 122.731 436.317 121.857 435.239 121.857V123.857Z" fill="black" mask="url(#path-27-inside-2_1193_4212)"/>
<circle cx="440.952" cy="115.238" r="0.5" stroke="black" stroke-width="0.904762"/>
<mask id="path-30-inside-3_1193_4212" fill="white">
<ellipse cx="445.714" cy="119.047" rx="0.95238" ry="0.952381"/>
</mask>
<path d="M445.666 119.047C445.666 119.021 445.688 119 445.714 119V121C446.792 121 447.666 120.126 447.666 119.047H445.666ZM445.714 119C445.74 119 445.762 119.021 445.762 119.047H443.762C443.762 120.126 444.636 121 445.714 121V119ZM445.762 119.047C445.762 119.074 445.74 119.095 445.714 119.095V117.095C444.636 117.095 443.762 117.969 443.762 119.047H445.762ZM445.714 119.095C445.688 119.095 445.666 119.074 445.666 119.047H447.666C447.666 117.969 446.792 117.095 445.714 117.095V119.095Z" fill="black" mask="url(#path-30-inside-3_1193_4212)"/>
<mask id="path-32-inside-4_1193_4212" fill="white">
<ellipse cx="451.429" cy="119.047" rx="0.95238" ry="0.952381"/>
</mask>
<path d="M451.381 119.047C451.381 119.021 451.403 119 451.429 119V121C452.507 121 453.381 120.126 453.381 119.047H451.381ZM451.429 119C451.455 119 451.477 119.021 451.477 119.047H449.477C449.477 120.126 450.351 121 451.429 121V119ZM451.477 119.047C451.477 119.074 451.455 119.095 451.429 119.095V117.095C450.351 117.095 449.477 117.969 449.477 119.047H451.477ZM451.429 119.095C451.403 119.095 451.381 119.074 451.381 119.047H453.381C453.381 117.969 452.507 117.095 451.429 117.095V119.095Z" fill="black" mask="url(#path-32-inside-4_1193_4212)"/>
<circle cx="446.666" cy="114.286" r="0.5" stroke="black" stroke-width="0.904762"/>
<mask id="path-35-inside-5_1193_4212" fill="white">
<ellipse cx="460" cy="111.428" rx="0.952381" ry="0.952381"/>
</mask>
<path d="M459.953 111.428C459.953 111.402 459.974 111.381 460 111.381V113.381C461.079 113.381 461.953 112.507 461.953 111.428H459.953ZM460 111.381C460.027 111.381 460.048 111.402 460.048 111.428H458.048C458.048 112.507 458.922 113.381 460 113.381V111.381ZM460.048 111.428C460.048 111.455 460.027 111.476 460 111.476V109.476C458.922 109.476 458.048 110.35 458.048 111.428H460.048ZM460 111.476C459.974 111.476 459.953 111.455 459.953 111.428H461.953C461.953 110.35 461.079 109.476 460 109.476V111.476Z" fill="black" mask="url(#path-35-inside-5_1193_4212)"/>
<circle cx="442.858" cy="121.905" r="0.5" stroke="black" stroke-width="0.904762"/>
<mask id="path-38-inside-6_1193_4212" fill="white">
<ellipse cx="438.095" cy="120" rx="0.952381" ry="0.952381"/>
</mask>
<path d="M438.047 120C438.047 119.974 438.069 119.952 438.095 119.952V121.952C439.173 121.952 440.047 121.078 440.047 120H438.047ZM438.095 119.952C438.121 119.952 438.143 119.974 438.143 120H436.143C436.143 121.078 437.017 121.952 438.095 121.952V119.952ZM438.143 120C438.143 120.026 438.121 120.047 438.095 120.047V118.047C437.017 118.047 436.143 118.922 436.143 120H438.143ZM438.095 120.047C438.069 120.047 438.047 120.026 438.047 120H440.047C440.047 118.922 439.173 118.047 438.095 118.047V120.047Z" fill="black" mask="url(#path-38-inside-6_1193_4212)"/>
<mask id="path-40-inside-7_1193_4212" fill="white">
<ellipse cx="449.524" cy="109.524" rx="0.952381" ry="0.952381"/>
</mask>
<path d="M449.476 109.524C449.476 109.497 449.497 109.476 449.524 109.476V111.476C450.602 111.476 451.476 110.602 451.476 109.524H449.476ZM449.524 109.476C449.55 109.476 449.571 109.497 449.571 109.524H447.571C447.571 110.602 448.445 111.476 449.524 111.476V109.476ZM449.571 109.524C449.571 109.55 449.55 109.571 449.524 109.571V107.571C448.445 107.571 447.571 108.445 447.571 109.524H449.571ZM449.524 109.571C449.497 109.571 449.476 109.55 449.476 109.524H451.476C451.476 108.445 450.602 107.571 449.524 107.571V109.571Z" fill="black" mask="url(#path-40-inside-7_1193_4212)"/>
<path d="M369.048 57.619C369.524 59.0476 369.524 60.6349 369.524 60.6349C369.524 61.1609 366.966 62.3809 363.81 62.3809C360.654 62.3809 358.096 61.1609 358.096 60.6349C358.096 60.6349 358.096 59.0476 358.572 57.619C359.842 57.7777 362.667 58.5714 363.81 58.5714C364.953 58.5714 367.778 57.7777 369.048 57.619Z" fill="#E0E0E0"/>
<path d="M356.191 61.9047V68.783C356.191 70.244 359.603 71.4285 363.81 71.4285C368.018 71.4285 371.43 70.244 371.43 68.783V61.9047C370.477 62.857 366.877 63.8094 363.81 63.8094C360.743 63.8094 356.985 62.6983 356.191 61.9047Z" fill="#F5F5F5"/>
<path d="M358.096 54.2856V57.037C358.096 57.6214 360.654 58.5714 363.81 58.5714C366.966 58.5714 369.524 57.6214 369.524 57.037V54.2856H358.096Z" fill="#F5F5F5"/>
<path d="M363.81 63.8094C368.018 63.8094 371.43 62.7434 371.43 61.4285C371.428 60.9523 370.473 60.4761 369.521 60.4761C369.521 60.9523 368.379 62.3808 363.81 62.3808C359.242 62.3808 358.095 60.9523 358.092 60.4761C356.568 60.4761 356.19 61.111 356.191 61.4285C356.191 62.7434 359.603 63.8094 363.81 63.8094Z" fill="#E6E6E6"/>
<path d="M363.815 94.7617C368.022 94.7617 371.434 93.6959 371.434 92.3809V73.7711C371.434 70.5522 368.573 71.4285 368.573 71.4285C368.573 71.4285 365.796 71.9446 363.811 71.9047C362.435 71.877 360.477 71.9047 359.049 71.4284C357.62 70.9521 356.048 72.7652 356.206 73.7711V92.3809C356.206 93.6959 359.607 94.7617 363.815 94.7617Z" fill="#F29733"/>
<path d="M357.62 75.2381C357.62 73.8096 357.62 72.8572 358.572 72.381L360.477 72.8571C360.636 79.365 360.477 91.4286 360.477 92.8572C358.573 92.8572 358.096 92.3809 357.62 91.9048L357.62 91.9047V75.2381Z" fill="white"/>
<path d="M360.001 52.3809H367.62L365.814 36.1276C365.758 35.6212 365.33 35.238 364.82 35.238H362.801C362.291 35.238 361.863 35.6212 361.807 36.1276L360.001 52.3809Z" fill="white"/>
<path d="M363.81 90.4761C368.018 90.4761 371.43 89.4101 371.43 88.0952V74.7618C371.43 76.0768 368.018 77.1428 363.81 77.1428C359.603 77.1428 356.191 76.0768 356.191 74.7618V88.0952C356.191 89.4101 359.603 90.4761 363.81 90.4761Z" fill="#F5F5F5"/>
<path d="M369.048 57.6189C369.524 59.0475 369.524 60.6348 369.524 60.6348C369.524 61.1608 366.966 62.3808 363.81 62.3808C360.654 62.3808 358.096 61.1608 358.096 60.6348C358.096 60.6348 358.096 59.0475 358.572 57.6189" stroke="black" stroke-linecap="round" stroke-linejoin="round"/>
<path d="M356.19 61.9047V68.783C356.19 70.244 359.602 71.9047 363.809 71.9047C368.017 71.9047 371.429 70.244 371.429 68.783V61.9047" stroke="black" stroke-linecap="round" stroke-linejoin="round"/>
<path d="M358.096 54.2856V57.037C358.096 57.6214 360.654 58.5714 363.81 58.5714C366.966 58.5714 369.524 57.6214 369.524 57.037V54.2856" stroke="black" stroke-linecap="round" stroke-linejoin="round"/>
<path d="M369.52 60.4761C370.472 60.4761 371.427 60.9523 371.429 61.4285C371.429 62.7434 368.017 64.2856 363.809 64.2856C359.602 64.2856 356.19 62.7434 356.19 61.4285C356.189 61.111 356.567 60.4761 358.091 60.4761" stroke="black" stroke-linecap="round" stroke-linejoin="round"/>
<path d="M371.928 88.0952C371.928 87.819 371.705 87.5952 371.428 87.5952C371.152 87.5952 370.928 87.819 370.928 88.0952H371.928ZM356.705 88.0952C356.705 87.819 356.481 87.5952 356.205 87.5952C355.929 87.5952 355.705 87.819 355.705 88.0952H356.705ZM371.928 74.7619C371.928 74.4857 371.705 74.2619 371.428 74.2619C371.152 74.2619 370.928 74.4857 370.928 74.7619H371.928ZM356.705 74.7619C356.705 74.4857 356.481 74.2619 356.205 74.2619C355.929 74.2619 355.705 74.4857 355.705 74.7619H356.705ZM356.205 73.7712L356.705 73.7712L356.705 73.7712L356.205 73.7712ZM368.571 71.4286L368.663 71.9202L368.691 71.915L368.718 71.9067L368.571 71.4286ZM363.809 71.9048L363.819 71.4049L363.819 71.4049L363.809 71.9048ZM370.928 88.0952C370.928 88.1908 370.865 88.3739 370.533 88.6198C370.209 88.8585 369.71 89.0946 369.048 89.3015C367.729 89.7135 365.877 89.9761 363.809 89.9761V90.9761C365.949 90.9761 367.907 90.7057 369.346 90.256C370.063 90.0321 370.679 89.7551 371.127 89.4241C371.565 89.1004 371.928 88.657 371.928 88.0952H370.928ZM363.809 89.9761C361.758 89.9761 359.912 89.6273 358.593 89.1703C357.931 88.941 357.421 88.6913 357.087 88.4588C356.92 88.3423 356.814 88.2415 356.754 88.1643C356.692 88.0847 356.705 88.0639 356.705 88.0952H355.705C355.705 88.3645 355.824 88.5968 355.964 88.7776C356.107 88.9607 356.299 89.1278 356.516 89.2791C356.95 89.5824 357.553 89.8684 358.266 90.1153C359.696 90.6107 361.653 90.9761 363.809 90.9761V89.9761ZM370.928 74.7619C370.928 74.8575 370.865 75.0405 370.533 75.2865C370.209 75.5252 369.71 75.7613 369.048 75.9682C367.729 76.3802 365.877 76.6428 363.809 76.6428V77.6428C365.949 77.6428 367.907 77.3724 369.346 76.9227C370.063 76.6988 370.679 76.4217 371.127 76.0908C371.565 75.767 371.928 75.3237 371.928 74.7619H370.928ZM363.809 76.6428C361.742 76.6428 359.893 76.3802 358.579 75.9683C357.919 75.7614 357.421 75.5255 357.099 75.287C356.768 75.0415 356.705 74.8584 356.705 74.7619H355.705C355.705 75.3228 356.066 75.7661 356.504 76.0903C356.95 76.4215 357.565 76.6986 358.28 76.9226C359.715 77.3724 361.669 77.6428 363.809 77.6428V76.6428ZM370.932 92.3811C370.932 92.4767 370.869 92.6597 370.536 92.9057C370.213 93.1444 369.714 93.3804 369.052 93.5873C367.733 93.9993 365.881 94.2619 363.813 94.2619V95.2619C365.953 95.2619 367.911 94.9915 369.35 94.5418C370.066 94.3179 370.683 94.0409 371.131 93.71C371.569 93.3862 371.932 92.9429 371.932 92.3811H370.932ZM363.813 94.2619C361.745 94.2619 359.896 93.9993 358.581 93.5874C357.92 93.3805 357.422 93.1446 357.1 92.906C356.768 92.6604 356.705 92.4774 356.705 92.3811H355.705C355.705 92.9423 356.067 93.3855 356.504 93.7096C356.952 94.0407 357.567 94.3178 358.282 94.5417C359.718 94.9915 361.673 95.2619 363.813 95.2619V94.2619ZM356.705 92.3811V73.7712H355.705V92.3811H356.705ZM356.705 73.7712C356.705 73.656 356.755 73.4493 356.895 73.1907C357.031 72.9406 357.232 72.6772 357.484 72.4506C357.988 71.9979 358.653 71.7263 359.402 71.9136L359.645 70.9434C358.489 70.6545 357.495 71.0973 356.816 71.7064C356.477 72.0107 356.205 72.3652 356.016 72.7145C355.832 73.0552 355.705 73.4294 355.705 73.7713L356.705 73.7712ZM368.571 71.4286C368.718 71.9067 368.717 71.9068 368.717 71.9068C368.717 71.9068 368.717 71.9069 368.717 71.9069C368.717 71.907 368.716 71.9071 368.716 71.9071C368.716 71.9072 368.716 71.9073 368.716 71.9072C368.716 71.9072 368.717 71.907 368.718 71.9066C368.721 71.9059 368.726 71.9044 368.733 71.9024C368.748 71.8984 368.772 71.8922 368.804 71.8849C368.869 71.8704 368.963 71.852 369.077 71.8385C369.31 71.8108 369.601 71.8062 369.878 71.8772C370.147 71.9462 370.394 72.0833 370.58 72.3404C370.77 72.6021 370.932 73.0384 370.932 73.7712H371.932C371.932 72.8946 371.737 72.2334 371.39 71.754C371.04 71.2701 370.572 71.0227 370.126 70.9085C369.688 70.7962 369.263 70.8094 368.959 70.8455C368.805 70.8638 368.676 70.8887 368.584 70.9095C368.538 70.92 368.5 70.9295 368.474 70.9367C368.46 70.9403 368.449 70.9434 368.441 70.9457C368.437 70.9469 368.433 70.9479 368.431 70.9487C368.429 70.9491 368.428 70.9495 368.427 70.9498C368.427 70.9499 368.426 70.9501 368.426 70.9502C368.426 70.9503 368.425 70.9503 368.425 70.9504C368.425 70.9505 368.425 70.9505 368.571 71.4286ZM370.932 73.7712V92.3811H371.932V73.7712H370.932ZM359.402 71.9136C361.368 72.405 362.425 72.377 363.799 72.4047L363.819 71.4049C362.442 71.3772 361.489 71.4044 359.645 70.9434L359.402 71.9136ZM363.799 72.4047C364.831 72.4255 366.051 72.3024 367 72.1774C367.478 72.1146 367.892 72.0505 368.187 72.002C368.335 71.9778 368.453 71.9575 368.535 71.9431C368.575 71.936 368.607 71.9303 368.629 71.9264C368.639 71.9244 368.648 71.9229 368.653 71.9219C368.656 71.9213 368.659 71.9209 368.66 71.9207C368.661 71.9205 368.661 71.9204 368.662 71.9203C368.662 71.9203 368.662 71.9203 368.662 71.9202C368.662 71.9202 368.662 71.9202 368.663 71.9202C368.663 71.9202 368.663 71.9202 368.571 71.4286C368.48 70.937 368.48 70.937 368.48 70.937C368.48 70.937 368.48 70.937 368.48 70.937C368.48 70.937 368.48 70.9371 368.48 70.9371C368.479 70.9371 368.479 70.9372 368.478 70.9373C368.477 70.9375 368.475 70.9379 368.473 70.9383C368.468 70.9392 368.46 70.9406 368.45 70.9424C368.43 70.946 368.4 70.9514 368.361 70.9583C368.283 70.972 368.169 70.9917 368.025 71.0152C367.738 71.0623 367.334 71.1248 366.87 71.186C365.934 71.3091 364.774 71.4241 363.819 71.4049L363.799 72.4047Z" fill="black"/>
<path d="M369.808 54.2856V54.7856C369.869 54.7856 369.93 54.7745 369.987 54.7528L369.808 54.2856ZM369.808 49.5237L369.987 49.0565C369.93 49.0348 369.869 49.0237 369.808 49.0237V49.5237ZM357.811 49.5237V49.0237C357.75 49.0237 357.69 49.0348 357.633 49.0565L357.811 49.5237ZM357.811 54.2856L357.633 54.7528C357.69 54.7745 357.75 54.7856 357.811 54.7856V54.2856ZM371.881 51.9046C371.881 52.1812 371.737 52.5008 371.354 52.8475C370.972 53.1943 370.39 53.5288 369.63 53.8184L369.987 54.7528C370.814 54.4374 371.519 54.0477 372.026 53.5885C372.533 53.1292 372.881 52.5607 372.881 51.9046H371.881ZM369.63 49.9909C370.39 50.2805 370.972 50.615 371.354 50.9618C371.737 51.3085 371.881 51.628 371.881 51.9046H372.881C372.881 51.2485 372.533 50.6801 372.026 50.2208C371.519 49.7615 370.814 49.3719 369.987 49.0565L369.63 49.9909ZM369.808 49.0237H357.811V50.0237H369.808V49.0237ZM355.738 51.9046C355.738 51.628 355.882 51.3085 356.265 50.9618C356.648 50.615 357.229 50.2805 357.989 49.9909L357.633 49.0565C356.805 49.3719 356.1 49.7615 355.594 50.2208C355.087 50.6801 354.738 51.2485 354.738 51.9046H355.738ZM357.989 53.8184C357.229 53.5288 356.648 53.1943 356.265 52.8475C355.882 52.5008 355.738 52.1812 355.738 51.9046H354.738C354.738 52.5607 355.087 53.1292 355.594 53.5885C356.1 54.0477 356.805 54.4374 357.633 54.7528L357.989 53.8184ZM357.811 54.7856H369.808V53.7856H357.811V54.7856Z" fill="black"/>
<path fill-rule="evenodd" clip-rule="evenodd" d="M369.808 54.2856C371.396 53.6806 372.381 52.8373 372.381 51.9046C372.381 50.9719 371.396 50.1287 369.808 49.5237H357.811C356.223 50.1287 355.238 50.9719 355.238 51.9046C355.238 52.8373 356.223 53.6806 357.811 54.2856H369.808Z" fill="#E0E0E0"/>
<path d="M369.808 54.2856V54.7856C369.869 54.7856 369.93 54.7745 369.987 54.7528L369.808 54.2856ZM369.808 49.5237L369.987 49.0565C369.93 49.0348 369.869 49.0237 369.808 49.0237V49.5237ZM357.811 49.5237V49.0237C357.75 49.0237 357.69 49.0348 357.633 49.0565L357.811 49.5237ZM357.811 54.2856L357.633 54.7528C357.69 54.7745 357.75 54.7856 357.811 54.7856V54.2856ZM371.881 51.9046C371.881 52.1812 371.737 52.5008 371.354 52.8475C370.972 53.1943 370.39 53.5288 369.63 53.8184L369.987 54.7528C370.814 54.4374 371.519 54.0477 372.026 53.5885C372.533 53.1292 372.881 52.5607 372.881 51.9046H371.881ZM369.63 49.9909C370.39 50.2805 370.972 50.615 371.354 50.9618C371.737 51.3085 371.881 51.628 371.881 51.9046H372.881C372.881 51.2485 372.533 50.6801 372.026 50.2208C371.519 49.7615 370.814 49.3719 369.987 49.0565L369.63 49.9909ZM369.808 49.0237H357.811V50.0237H369.808V49.0237ZM355.738 51.9046C355.738 51.628 355.882 51.3085 356.265 50.9618C356.648 50.615 357.229 50.2805 357.989 49.9909L357.633 49.0565C356.805 49.3719 356.1 49.7615 355.594 50.2208C355.087 50.6801 354.738 51.2485 354.738 51.9046H355.738ZM357.989 53.8184C357.229 53.5288 356.648 53.1943 356.265 52.8475C355.882 52.5008 355.738 52.1812 355.738 51.9046H354.738C354.738 52.5607 355.087 53.1292 355.594 53.5885C356.1 54.0477 356.805 54.4374 357.633 54.7528L357.989 53.8184ZM357.811 54.7856H369.808V53.7856H357.811V54.7856Z" fill="black"/>
<path d="M361.824 36.1015L360 50.4464C360 51.4819 361.706 52.3214 363.81 52.3214C365.913 52.3214 367.619 51.4819 367.619 50.4464L365.798 36.0987C365.75 35.6105 365.34 35.238 364.85 35.238H362.772C362.28 35.238 361.87 35.6121 361.824 36.1015Z" fill="white" stroke="black" stroke-linecap="round" stroke-linejoin="round"/>
<path d="M360.952 65.7142V69.5238" stroke="black" stroke-linecap="round" stroke-linejoin="round"/>
<path d="M358.096 64.7618V68.5714" stroke="black" stroke-linecap="round" stroke-linejoin="round"/>
<path d="M363.81 65.7142V69.5238" stroke="black" stroke-linecap="round" stroke-linejoin="round"/>
<path d="M366.667 65.7142V69.5238" stroke="black" stroke-linecap="round" stroke-linejoin="round"/>
<path d="M369.524 64.7618V68.5714" stroke="black" stroke-linecap="round" stroke-linejoin="round"/>
<ellipse cx="363.81" cy="35.7142" rx="1.90476" ry="0.833333" fill="#E0E0E0" stroke="black" stroke-linecap="round" stroke-linejoin="round"/>
<path d="M93.9204 119.888C90.2012 116.169 87.9399 112.4 88.8697 111.47C89.6842 110.656 92.6772 112.29 95.9071 115.208L98.6008 117.902C101.519 121.132 103.153 124.125 102.338 124.939C101.409 125.869 97.6397 123.608 93.9204 119.888Z" fill="#F5F5F5"/>
<ellipse rx="4.76191" ry="1.19048" transform="matrix(-0.707107 -0.707107 -0.707107 0.707107 102.507 111.302)" fill="#F5F5F5"/>
<path d="M52.8407 160.968C52.0968 160.224 51.9813 159.133 52.1672 158.948L56.5445 154.57C56.8813 155.356 57.8914 156.995 59.2383 157.264L54.861 161.641C54.675 161.827 53.5845 161.712 52.8407 160.968Z" fill="#E0E0E0"/>
<path d="M95.6037 118.205C96.3476 118.949 97.1014 119.401 97.2873 119.215L102.675 113.827L99.9811 111.134L94.5936 116.521C94.4076 116.707 94.8599 117.461 95.6037 118.205Z" fill="#E0E0E0"/>
<path d="M56.5438 154.569C56.8311 155.281 57.0122 155.711 57.5548 156.254C58.0971 156.796 58.5275 156.977 59.2384 157.264C61.5838 158.211 64.0198 157.87 65.6361 156.254L97.9609 123.929L89.8797 115.848L57.5548 148.173C55.9386 149.789 55.5967 152.224 56.5438 154.569Z" fill="#F5F5F5"/>
<path d="M65.2992 156.591L67.6562 154.234C66.7583 153.785 64.5584 152.483 62.9422 150.866C61.326 149.25 60.024 147.05 59.575 146.152L57.218 148.509C57.3302 149.295 58.0935 151.405 60.2485 153.56C62.4035 155.715 64.5136 156.478 65.2992 156.591Z" fill="#00B3CC"/>
<path d="M60.9223 146.826C61.461 147.903 62.0446 148.621 62.2691 148.846C64.2894 146.825 88.8701 122.245 91.5635 119.551C91.0248 119.013 90.5534 118.092 90.2167 117.531L60.9223 146.826Z" fill="#E0E0E0"/>
<path d="M96.951 122.245L96.2776 118.878L94.2572 116.858L95.9408 115.174L91.9002 112.48C90.5534 111.134 88.1963 110.797 89.2065 113.154C90.7515 116.759 94.8184 120.786 96.951 122.245Z" fill="#E0E0E0"/>
<path d="M59.9119 145.816C59.3541 146.374 60.7108 148.635 62.9424 150.866C65.174 153.098 67.4353 154.455 67.9932 153.897" stroke="black" stroke-linecap="round" stroke-linejoin="round"/>
<path d="M65.2992 140.428C64.7413 140.986 66.0981 143.247 68.3297 145.479" stroke="black" stroke-linecap="round" stroke-linejoin="round"/>
<path d="M69.0033 136.724C68.4454 137.282 69.8022 139.543 72.0338 141.775" stroke="black" stroke-linecap="round" stroke-linejoin="round"/>
<path d="M72.7074 133.02C72.1495 133.578 73.5063 135.839 75.7379 138.071" stroke="black" stroke-linecap="round" stroke-linejoin="round"/>
<path d="M76.4115 129.316C75.8536 129.874 77.2104 132.136 79.442 134.367" stroke="black" stroke-linecap="round" stroke-linejoin="round"/>
<path d="M80.1147 125.612C79.5568 126.17 80.9136 128.432 83.1451 130.663" stroke="black" stroke-linecap="round" stroke-linejoin="round"/>
<path d="M83.8188 121.909C83.2609 122.467 84.6177 124.728 86.8492 126.959" stroke="black" stroke-linecap="round" stroke-linejoin="round"/>
<path d="M87.5229 118.205C86.965 118.763 88.3218 121.024 90.5533 123.256" stroke="black" stroke-linecap="round" stroke-linejoin="round"/>
<path d="M98.6008 117.902C101.519 121.132 103.153 124.125 102.338 124.939C101.409 125.869 97.6397 123.608 93.9204 119.888C90.2012 116.169 87.9399 112.4 88.8697 111.47C89.6842 110.656 92.6772 112.29 95.9071 115.208" stroke="black" stroke-linecap="round" stroke-linejoin="round"/>
<ellipse rx="4.76191" ry="1.19048" transform="matrix(-0.707107 -0.707107 -0.707107 0.707107 102.507 111.302)" stroke="black" stroke-linecap="round" stroke-linejoin="round"/>
<path d="M59.2383 157.264L54.861 161.641C54.675 161.827 53.5845 161.712 52.8407 160.968C52.0968 160.224 51.9813 159.133 52.1672 158.948L56.5445 154.57" stroke="black" stroke-linecap="round" stroke-linejoin="round"/>
<path d="M102.675 113.827L97.2873 119.215C97.1014 119.401 96.3476 118.949 95.6037 118.205C94.8599 117.461 94.4076 116.707 94.5936 116.521L99.9811 111.134" stroke="black" stroke-linecap="round" stroke-linejoin="round"/>
<path d="M57.5548 148.173L57.2013 147.819L57.2013 147.819L57.5548 148.173ZM65.6361 156.254L65.2825 155.9L65.2825 155.9L65.6361 156.254ZM56.5438 154.569L56.0802 154.757L56.0802 154.757L56.5438 154.569ZM57.5548 156.254L57.2013 156.607L57.2013 156.607L57.5548 156.254ZM59.2384 157.264L59.0512 157.728L59.0512 157.728L59.2384 157.264ZM89.5262 115.494C89.7214 115.299 90.038 115.299 90.2333 115.494C90.4285 115.689 90.4285 116.006 90.2333 116.201L89.5262 115.494ZM97.6074 123.575C97.8026 123.38 98.1192 123.38 98.3145 123.575C98.5098 123.771 98.5098 124.087 98.3145 124.283L97.6074 123.575ZM57.9084 148.526C57.9358 148.499 57.9227 148.49 57.9123 148.554C57.902 148.616 57.9 148.717 57.9213 148.864C57.964 149.156 58.089 149.555 58.309 150.028C58.747 150.97 59.525 152.129 60.6021 153.207L59.895 153.914C58.7406 152.759 57.8928 151.504 57.4023 150.45C57.1581 149.924 56.9932 149.429 56.9318 149.008C56.9011 148.798 56.8934 148.587 56.9255 148.392C56.9574 148.197 57.0345 147.986 57.2013 147.819L57.9084 148.526ZM60.6021 153.207C61.6793 154.284 62.8391 155.062 63.7808 155.5C64.2539 155.72 64.6523 155.845 64.9449 155.887C65.0912 155.909 65.1926 155.907 65.2549 155.896C65.3182 155.886 65.3099 155.873 65.2825 155.9L65.9896 156.607C65.8228 156.774 65.6112 156.851 65.4169 156.883C65.2217 156.915 65.0111 156.908 64.8006 156.877C64.3794 156.815 63.8842 156.651 63.3591 156.406C62.3045 155.916 61.0494 155.068 59.895 153.914L60.6021 153.207ZM57.0074 154.382C57.2909 155.084 57.4416 155.434 57.9083 155.9L57.2013 156.607C56.5829 155.989 56.3713 155.477 56.0802 154.757L57.0074 154.382ZM57.9083 155.9C58.3748 156.367 58.724 156.517 59.4257 156.8L59.0512 157.728C58.3309 157.437 57.8194 157.225 57.2013 156.607L57.9083 155.9ZM90.2333 116.201L57.9084 148.526L57.2013 147.819L89.5262 115.494L90.2333 116.201ZM98.3145 124.283L65.9896 156.607L65.2825 155.9L97.6074 123.575L98.3145 124.283ZM59.4257 156.8C61.6226 157.688 63.8348 157.348 65.2825 155.9L65.9896 156.607C64.2048 158.392 61.5449 158.735 59.0512 157.728L59.4257 156.8ZM56.0802 154.757C55.0731 152.263 55.4166 149.604 57.2013 147.819L57.9084 148.526C56.4606 149.974 56.1204 152.186 57.0074 154.382L56.0802 154.757Z" fill="black"/>
<path d="M30.4755 80.9523C24.1637 80.9523 19.5231 79.5238 19.0469 77.619C18.3326 74.7619 18.0945 72.3809 18.0945 70.9523V51.9047C18.8882 46.6666 20.8564 35.7142 24.285 35.7142C29.9993 37.619 34.9199 36.5079 36.666 35.7142C40.0945 35.7142 42.0628 46.6666 42.8564 51.9047V70.9523C42.8564 72.3809 42.3803 75.238 41.9041 77.619C41.5847 79.2158 36.7873 80.9523 30.4755 80.9523Z" fill="#BFAACB"/>
<path d="M40.4753 77.6189C40.0943 78.3808 36.507 79.2062 34.761 79.5237C36.666 73.4285 35.2371 49.6824 34.2846 38.5713C37.142 37.619 36.1894 38.095 37.142 37.6189C43.8086 52.3808 40.9515 76.6665 40.4753 77.6189Z" fill="white"/>
<path d="M29.9993 55.2381C37.9993 55.6191 41.9041 53.4921 42.8564 52.381V71.4286C41.5866 72.5397 37.2374 74.2857 29.9993 74.2857C22.7612 74.2857 19.0469 72.381 18.0945 71.4286V52.381C18.7295 53.1746 21.9993 54.8572 29.9993 55.2381Z" fill="#F5F5F5"/>
<path d="M23.8092 35.446C29.1426 38.5192 34.9204 36.7265 37.1426 35.446C36.6664 31.6043 36.6664 27.7627 36.1902 24.47C31.9045 21.7259 26.9838 23.0066 24.7616 24.47C24.2854 26.6652 24.2854 31.0556 23.8092 35.446Z" fill="#F5F5F5"/>
<ellipse rx="5.71428" ry="1.53846" transform="matrix(-1 0 0 1 30.4752 24.8351)" stroke="black"/>
<path d="M23.8092 35.2382C23.8092 35.7641 26.794 37.1429 30.4759 37.1429C34.1578 37.1429 37.1426 35.7641 37.1426 35.2382" stroke="black" stroke-linecap="round" stroke-linejoin="round"/>
<path d="M18.0945 51.9048C18.0945 53.7457 23.6377 55.2381 30.4755 55.2381C37.3133 55.2381 42.8564 53.7457 42.8564 51.9048" stroke="black" stroke-linecap="round" stroke-linejoin="round"/>
<path d="M18.0945 70.9524C18.0945 72.7933 23.6377 74.2857 30.4755 74.2857C37.3133 74.2857 42.8564 72.7933 42.8564 70.9524" stroke="black" stroke-linecap="round" stroke-linejoin="round"/>
<path d="M36.666 35.7144C40.0945 35.7144 42.0628 46.6667 42.8564 51.9048V70.9525C42.8564 72.381 42.3803 75.2382 41.9041 77.6191C41.5847 79.216 36.7873 80.9525 30.4755 80.9525C24.1637 80.9525 19.5231 79.5239 19.0469 77.6191C18.3326 74.762 18.0945 72.381 18.0945 70.9525V51.9048C18.8882 46.6667 20.8564 35.7144 24.285 35.7144" stroke="black" stroke-linecap="round" stroke-linejoin="round"/>
<path d="M36.1902 24.762L37.1426 35.2382" stroke="black" stroke-linecap="round" stroke-linejoin="round"/>
<path d="M24.761 25.2382L23.8086 35.2382" stroke="black" stroke-linecap="round" stroke-linejoin="round"/>
<path d="M30.4756 34.7619V28.5714" stroke="black" stroke-linecap="round" stroke-linejoin="round"/>
<path d="M33.602 34.75L33.0625 28.5831" stroke="black" stroke-linecap="round" stroke-linejoin="round"/>
<path d="M27.3491 34.7503L27.8887 28.5834" stroke="black" stroke-linecap="round" stroke-linejoin="round"/>
<path d="M261.511 91.57C262.882 93.2157 265.511 93.6271 266.653 93.6271C266.882 94.4271 266.996 97.6042 265.625 103.913C263.911 111.799 254.996 123.456 252.254 126.884C250.059 129.627 243.339 133.97 240.253 135.799C239.682 134.999 238.471 133.261 238.196 132.713C237.853 132.027 232.331 128.551 227.568 122.427C222.768 116.256 218.653 104.256 218.996 99.1128C219.319 94.2748 220.711 94.6557 221.053 92.5985C221.396 90.5414 215.568 95.3414 214.882 96.0271C214.196 96.7128 201.853 103.913 201.168 103.913C200.482 103.913 191.568 111.113 187.111 113.856C183.545 116.05 182.425 117.513 182.311 117.97C179.225 119.227 171.888 124.004 167.225 133.056C162.562 142.107 161.625 158.999 161.739 166.313C161.739 170.313 160.368 177.627 160.711 179.684C159.682 181.056 160.368 197.513 157.625 202.656C161.143 212.914 161.739 218.084 178.882 218.084C180 219.771 180.686 231.429 179.315 238.629C179.315 238.629 241.715 232.457 292.711 238.999C293.098 234.866 292.711 228.37 292.711 228.37C292.99 222.313 293.381 209.719 292.711 207.799C292.04 205.879 291.974 198.541 292.025 195.113C292.596 198.427 293.671 205.193 293.396 205.741C293.122 206.29 294.196 218.541 294.768 224.599C294.311 225.627 293.465 227.821 293.739 228.37C294.082 229.056 300.596 230.427 309.511 229.399C318.425 228.37 321.853 225.284 321.511 224.941C321.168 224.599 321.853 223.913 321.853 222.541C321.853 221.17 324.253 220.827 321.853 218.77C319.933 217.124 320.368 198.656 320.825 189.627C321.053 181.856 321.579 164.256 321.853 156.027C322.196 145.741 316.025 135.799 315.339 134.77C314.791 133.947 309.853 127.57 307.453 124.484C307.568 124.599 307.659 124.21 307.111 121.741C306.425 118.656 298.196 112.484 297.168 112.141C296.139 111.799 277.282 101.17 275.225 100.141C273.579 99.3185 272.025 96.8271 271.453 95.6842C271.453 95.9128 271.385 95.8214 271.111 93.6271C270.836 91.4328 266.196 89.97 263.911 89.5128C262.539 89.5128 260.139 89.9242 261.511 91.57Z" fill="#E6E6E6"/>
<path d="M294.082 161.856C291.614 166.519 291.682 156.713 292.025 151.227C289.739 166.77 286.059 194.564 290.996 182.77C295.934 170.976 300.368 149.97 301.968 140.941C300.368 145.97 296.551 157.193 294.082 161.856Z" fill="#9E9E9E"/>
<path d="M283.111 206.427C281.191 209.444 278.654 196.484 277.625 189.627C276.254 193.741 280.025 223.227 284.482 230.77C288.939 238.313 292.025 231.799 292.368 232.827C292.71 233.856 292.025 225.284 292.368 223.913C292.71 222.541 293.396 211.57 292.368 206.77C291.545 202.93 291.797 197.17 292.025 194.77L290.996 185.513L289.625 193.399C288.254 196.484 285.031 203.41 283.111 206.427Z" fill="#9E9E9E"/>
<path d="M304.368 221.856C305.191 222.13 311.568 219.913 314.654 218.77C304.025 219.799 299.225 218.77 298.539 218.77C297.854 218.77 299.568 204.027 301.282 201.97C302.654 200.324 297.854 184.484 293.396 184.484C294.654 189.17 296.139 197.856 296.139 199.913V222.541C296.139 223.364 297.282 223.799 297.854 223.913C299.682 223.113 303.545 221.581 304.368 221.856Z" fill="#9E9E9E"/>
<path d="M302.996 225.97C300.254 226.519 296.596 225.741 295.111 225.284C295.339 225.856 296.345 227.136 298.539 227.684C301.282 228.37 307.111 226.999 308.825 226.656C310.196 226.381 312.139 224.027 312.939 222.884C310.768 223.684 305.739 225.421 302.996 225.97Z" fill="#9E9E9E"/>
<path d="M194.401 209.829C196.801 208.8 197.486 207.429 199.886 205.714C200.572 205.143 202.629 203.04 205.372 199.2C208.801 194.4 210.515 184.8 211.201 179.657C211.886 174.514 216.001 159.429 217.029 154.971C217.852 151.406 222.858 140.457 225.258 135.429C226.515 134.743 229.166 133.303 229.715 133.029C230.264 132.754 232.458 130.171 233.486 128.914C234.401 129.143 236.092 129.737 235.544 130.286C234.995 130.834 237.829 138.532 239.315 142.313C236.915 140.247 231.978 135.977 231.429 135.429C230.744 134.743 228.001 138.514 226.629 139.2C225.258 139.886 218.654 158.4 217.715 160.114C216.777 161.829 214.286 176.229 213.944 179.657C213.5 184.092 211.886 192.343 210.172 196.114C208.458 199.886 202.972 207.521 201.944 207.371C206.901 208.905 214.994 198.311 218.654 191.684C215.339 201.741 207.498 222.651 200.915 225.943C196.846 224.315 192.347 219.253 192.854 213.983C192.654 214.499 192.471 214.879 192.344 214.971C191.87 215.314 189.944 218.4 187.201 220.457C185.006 222.103 180.572 219.771 178.629 218.4H182.058C183.772 217.6 187.338 216 187.886 216C188.435 216 190.172 213.486 190.972 212.229L193.971 210.514C194.102 210.285 194.245 210.056 194.401 209.829Z" fill="#9E9E9E"/>
<path d="M182.996 139.57C183.682 150.084 184.732 161.966 184.458 169.371L181.029 175.2C178.972 166.286 180.825 150.427 182.996 139.57Z" fill="#9E9E9E"/>
<path d="M267.339 112.827C259.933 129.284 246.653 139.341 240.939 142.313C261.511 146.427 272.139 113.984 277.968 111.799C283.796 109.613 304.458 118.971 304.115 116.914C303.772 114.857 296.825 111.113 292.025 109.399C289.282 108.027 276.939 102.541 271.111 96.0271C271.796 99.1128 271.111 102.199 267.339 112.827Z" fill="#9E9E9E"/>
<path d="M314.654 128.571C320.414 136.251 321.853 155.456 321.511 160.484C321.511 157.056 317.053 147.456 312.253 142.313C307.453 137.17 299.911 154.656 299.911 153.284C299.911 151.913 301.948 140.736 302.653 139.913C304.115 135.771 305.83 124.457 305.83 117.943C306.058 118.514 308.894 120.891 314.654 128.571Z" fill="#9E9E9E"/>
<path d="M175.543 179.657C168.411 185.691 164.8 198.4 163.886 204C160.869 190.834 171.772 179.314 177.6 175.2C178.572 174.514 179.658 174.171 180.343 175.2C175.543 181.714 172.8 190.629 172.115 189.627C171.429 188.626 172.115 183.369 175.543 179.657Z" fill="#9E9E9E"/>
<path d="M179.658 216C181.304 216.274 187.658 213.6 190.629 212.229C189.601 215.314 182.82 216.601 182.058 216.686C178.972 217.028 177.258 216.686 175.544 216.343L175.543 216.343C173.526 215.939 171.736 212.805 171.429 211.886C171.086 210.857 170.744 207.086 171.086 204.686C171.361 202.766 171.886 202.743 172.115 202.971C172.229 204.229 172.595 207.36 173.144 209.829C173.829 212.914 177.6 215.657 179.658 216Z" fill="#9E9E9E"/>
<path d="M218.995 41.1698C218.424 41.1698 218.173 40.1412 221.738 36.0269C222.424 32.2555 222.424 28.8269 222.424 28.4841C222.424 28.1412 223.796 22.6555 230.653 20.9412C237.51 19.2269 245.738 18.1984 256.367 22.3127C264.938 26.0841 261.257 34.9714 262.286 37.7142C263.314 40.4571 263.91 42.5412 264.253 42.8841C264.527 43.1584 264.824 44.3698 264.938 44.9412C266.081 44.4841 268.436 43.5012 268.71 43.227C269.053 42.8841 271.453 41.5127 272.138 44.2555C272.824 46.9984 273.51 54.1984 270.081 58.9984C267.338 62.427 266.653 61.7412 265.624 61.3984C265.281 62.427 265.281 68.9413 264.938 69.627C264.664 70.1755 263.453 73.5127 262.881 75.1127C262.081 80.1413 261.257 90.1714 261.51 91.227C261.848 92.6416 264.253 92.9413 266.31 93.627C266.996 95.3413 265.624 103.456 264.253 108.027C261.943 112.114 255.681 117.696 248.824 119.341C247.1 119.755 245.445 120.053 243.865 120.234C243.947 121.131 243.001 123.212 242.777 123.429C241.714 124.457 238.594 124.817 237.943 125.143C237.257 125.486 236.229 125.143 235.92 124.457C235.721 124.015 236.606 123.086 237.291 122.057C237.84 121.234 239.348 121.029 240.034 121.029V120.449C237.943 120.686 236.914 120.686 235.577 120L234.514 123.086C235.2 124.8 233.931 126.789 232.834 129.257C231.737 131.726 227.577 133.943 225.634 134.743C225.634 135.2 224.743 137.554 221.177 143.314C216.72 150.514 212.263 174.171 210.891 182.057C209.52 189.943 207.771 198.514 198.171 207.086C190.491 213.943 182.286 216 179.314 216C178.857 216.229 177.566 215.177 175.92 211.886C173.863 207.771 175.577 188.914 175.92 186.857C176.263 184.8 182.092 173.829 182.434 172.457C182.777 171.086 199.234 149.143 199.92 147.771C200.469 146.674 209.977 134.514 214.663 128.571L216.377 122.057C217.177 120.229 218.777 116.434 218.777 115.886C218.777 115.337 220.488 110.857 221.343 108.686C220.219 106.974 219.467 105.324 219.338 103.913C218.996 100.141 217.281 97.0555 220.71 93.627C224.138 90.1984 222.081 77.8555 221.739 77.1698C221.396 76.4841 217.281 72.3698 217.967 65.1698C217.967 61.0555 218.081 58.6555 217.624 58.9984C217.053 58.5412 215.773 57.2841 215.224 55.9127C214.538 54.1984 213.008 49.429 213.51 43.9127C213.853 40.1412 215.567 40.1412 216.938 41.5127C218.607 43.1811 219.11 41.8555 218.995 41.1698Z" fill="#8D5524"/>
<path d="M290.653 238.998C291.201 238.45 293.167 232.141 294.081 229.056C300.596 230.427 311.91 229.741 319.453 227.341C318.904 230.358 314.196 237.056 311.91 240.027C304.596 239.913 296.229 242.4 290.653 238.998Z" fill="#8D5524"/>
<path d="M250.54 44.2557C247.454 44.9414 245.511 46.77 244.711 48.0272C244.711 48.5757 247.454 48.4843 248.825 48.37C250.311 47.9129 252.597 46.9986 253.625 46.9986C254.11 46.9986 258.082 48.3701 258.082 49.0558C258.082 50.0843 256.368 50.77 253.968 51.4557C251.568 51.4557 248.14 50.77 246.425 50.0843C246.882 50.5414 247.728 51.6614 247.454 52.4843C247.111 53.5129 253.625 53.8557 251.911 54.8843C250.54 55.7072 246.997 54.5414 245.397 53.8557C245.74 55.2272 244.78 54.8157 250.54 58.6557C256.3 62.4957 261.168 61.6272 262.882 60.7129L265.968 55.57C265.397 54.8843 264.254 53.3072 264.254 52.4843C264.254 51.6614 264.94 50.5414 265.282 50.0843L264.254 45.2843C263.797 44.9414 263.568 44.2557 262.882 43.2272C262.882 42.1986 261.511 39.4558 260.825 38.4272C260.14 37.3986 261.168 31.2272 260.482 27.7986C259.797 24.37 253.968 22.3129 254.654 22.9986C255.34 23.6843 254.997 34.6557 254.654 37.0557C254.38 38.9757 255.682 41.0557 256.368 41.8557L259.797 43.2272H257.054C255.34 43.2272 253.625 43.57 250.54 44.2557Z" fill="#774417"/>
<path d="M271.797 49.7415C271.454 50.77 270.082 51.7986 269.397 52.4843C269.74 54.8843 267.911 56.0272 266.997 56.5986C267.34 56.1415 267.751 55.1586 266.654 54.8843C265.557 54.61 266.425 54.0843 266.997 53.8557C266.882 53.3986 266.585 52.4157 266.311 52.1415C265.968 51.7987 265.625 48.7129 268.711 45.6272C271.797 42.5415 272.14 48.7129 271.797 49.7415Z" fill="#774417"/>
<path d="M258.082 66.1986C258.631 65.6501 260.94 64.4843 261.854 63.7986C261.854 63.7986 263.14 63.2842 263.568 63.7986C265.282 65.8558 263.431 70.4501 262.882 72.37C262.197 74.7701 256.711 80.2558 253.968 82.3129C251.439 84.2096 250.704 86.5189 249.168 87.7986L249.088 87.865C247.092 89.5291 246.358 90.1408 241.282 90.1986C239.749 90.2161 239.911 89.5128 239.911 88.4843C239.911 87.4558 239.911 86.0843 241.625 86.0843C242.997 86.0843 244.368 88.4843 245.739 88.1415C246.768 87.1129 247.454 84.7129 247.454 82.6558C247.454 80.5986 242.997 79.9129 240.597 80.2558C238.197 80.5986 234.768 77.5129 236.482 77.8558C238.197 78.1986 241.282 77.8558 241.625 77.5129C241.968 77.1701 246.425 80.2558 247.454 76.4843C248.277 73.4672 251.225 71.7986 252.597 71.3415H255.682C256.368 69.9701 257.534 66.7472 258.082 66.1986Z" fill="#774417"/>
<path d="M233.397 63.7986C232.574 63.25 233.739 62.4272 234.425 62.0843L236.482 62.7701C236.597 63.1129 237.511 63.7986 238.539 64.4843C239.768 65.3037 241.854 64.7129 242.654 64.4843L245.054 62.4272C245.168 61.9701 244.985 61.3986 243.339 62.7701C241.282 64.4843 240.597 63.7986 239.225 63.4558C237.169 62.9417 236.864 61.5033 236.854 60.7116C236.797 60.6093 236.783 60.4955 236.825 60.3701C236.957 59.9742 236.848 60.2163 236.854 60.7116C237.172 61.2804 238.845 61.4955 239.911 61.3986L240.597 59.3415V49.0558C240.825 48.9415 241.557 48.7815 242.654 49.0558C243.751 49.33 244.025 53.0557 244.025 54.8843C243.911 56.1414 243.751 58.7929 244.025 59.3415C244.368 60.0272 245.739 58.6558 246.425 58.6557C247.111 58.6557 247.454 59.3415 248.482 60.3701C249.511 61.3986 250.197 62.7701 250.54 63.7986C250.882 64.8269 249.854 65.8552 248.826 66.8835L248.825 66.8843C247.797 67.9129 246.425 65.8558 244.711 65.5129C242.996 65.1701 242.654 65.8558 241.968 65.8558C241.282 65.8558 242.654 66.1986 241.625 67.9129C240.803 69.2843 239.911 68.4843 239.568 67.9129C239.682 67.2272 239.842 65.8558 239.568 65.8558C239.225 65.8558 237.168 65.5129 235.797 65.8558C234.425 66.1986 234.425 64.4843 233.397 63.7986Z" fill="#774417"/>
<path d="M230.997 46.3129C230.658 45.8609 229.916 44.9618 229.634 44.9418C229.61 44.9415 229.606 44.9415 229.625 44.9415C229.628 44.9415 229.631 44.9416 229.634 44.9418C230.053 44.9477 236.539 45.0542 237.511 46.9986C238.539 49.0558 236.482 54.8843 235.797 54.8843C235.111 54.8843 234.425 53.5129 234.768 53.17C235.111 52.8272 227.568 55.57 225.854 53.8557C224.14 52.1415 230.311 52.8272 230.654 52.4843C230.997 52.1415 228.939 51.7985 229.625 51.4557C230.174 51.1815 230.768 47.9129 230.997 46.3129Z" fill="#774417"/>
<path d="M228.597 40.1415C228.322 39.8672 225.739 41.3986 224.482 42.1986C218.996 44.5987 220.025 43.2272 219.682 41.5128C219.408 40.1414 221.854 37.2842 223.111 36.0271C223.225 34.4271 223.522 30.5415 223.797 27.7986C224.139 24.37 230.654 21.6272 228.597 22.9986C226.539 24.37 228.939 40.4843 228.597 40.1415Z" fill="#774417"/>
<path d="M221.054 66.5414C220.231 65.17 220.94 64.1415 221.397 63.7986C221.829 63.25 223.177 64.0272 223.797 64.4843C224.025 65.97 224.482 69.2157 224.482 70.3128C224.482 71.6843 225.854 75.4557 225.511 76.1414C225.168 76.8271 224.825 76.1414 223.797 76.4843C222.768 76.8273 222.082 68.2557 221.054 66.5414Z" fill="#774417"/>
<path d="M233.054 94.3128C231.408 93.49 225.168 86.0843 223.797 80.2558C225.168 80.9414 227.682 82.8843 228.597 84.37C229.854 85.7414 232.162 88.6214 232.711 89.17C233.072 89.5309 234.946 90.0818 236.993 90.5227C238.317 90.3782 240.37 90.6229 242.058 90.8626C242.53 90.9297 242.974 90.9964 243.366 91.054C245.99 90.5064 249.739 88.8275 250.197 88.4843C251.568 87.4558 253.282 84.7128 253.625 84.0271C253.968 83.3414 259.454 78.5414 260.14 77.8558C260.825 77.1701 262.882 73.8897 262.882 75.4557C262.882 77.17 262.082 84.5351 261.168 88.4843C261.282 87.7986 261.1 86.2214 259.454 85.3985C257.397 84.37 255.682 97.3986 253.968 99.1128C252.254 100.827 261.168 105.284 258.768 104.599C256.571 103.971 249.203 107.653 248.498 108.017C248.493 108.021 248.487 108.025 248.482 108.027C248.424 108.056 248.433 108.051 248.498 108.017C249.145 107.504 251.448 94.5534 251.851 92.7779C251.311 93.7513 247.273 96.6323 244.801 91.2271C244.566 91.2271 244.045 91.1543 243.366 91.054C243.331 91.0614 243.296 91.0685 243.261 91.0754C243.89 91.2104 244.458 91.3807 244.458 91.5429C244.458 91.8831 241.715 91.8857 241.029 91.8857C240.481 91.8857 237.769 91.0336 236.482 90.6075C236.235 90.6665 236.032 90.7482 235.886 90.8571C234.515 91.8857 233.486 92.2286 233.054 94.3128Z" fill="#774417"/>
<path d="M216.597 44.9415C214.677 41.65 214.654 44.7129 214.882 46.6557C214.197 48.37 214.882 51.1128 215.568 52.1414C216.254 53.17 215.911 51.4557 215.911 51.1128V50.0843C216.14 49.3986 216.597 47.9586 216.597 47.6843C216.597 47.3414 218.197 47.6843 216.597 44.9415Z" fill="#774417"/>
<path d="M243.843 97.9299C243.927 98.1143 243.991 98.2832 244.025 98.4271C243.682 99.7986 242.654 101.513 241.625 101.17C240.597 100.827 239.911 99.1128 240.597 99.1128C241.282 99.1128 241.968 98.0843 241.968 97.3986C241.968 96.8888 241.869 95.6253 241.672 95.0823C240.725 95.8237 238.418 96.2266 237.258 96.3429C236.915 96.009 236.366 95.6103 236.915 96.6857C237.601 98.03 234.172 102.541 233.829 103.2C233.555 103.727 232.458 103.42 231.429 103.2C230.629 103.086 230.744 102.514 231.087 101.829C232.801 101.143 234.515 94.6286 234.858 94.3128C235.132 94.0602 235.886 92.9324 236.229 93.2571C237.486 93.0376 240.344 92.5931 241.715 92.5714C243.429 92.5443 243.429 93.2571 243.772 93.2571C244.046 93.2571 245.258 96.7038 245.829 98.4271C245.601 98.4181 245.006 98.4054 244.458 98.4271C244.274 98.4344 244.065 98.2381 243.843 97.9299Z" fill="#774417"/>
<path d="M226.629 103.543C225.601 102.171 222.858 101.829 222.425 102.541C222.768 103.913 224.915 104.914 225.258 104.914C225.601 104.914 225.944 103.886 226.629 103.543Z" fill="#774417"/>
<path d="M253.968 106.999C248.769 109.399 248.482 110.77 248.14 110.77C250.882 110.77 256.025 107.684 256.368 107.341C256.711 106.999 259.454 105.627 259.454 105.284C259.454 104.941 259.167 104.599 253.968 106.999Z" fill="#774417"/>
<path d="M222.446 90.2496C222.439 90.2324 222.432 90.2154 222.425 90.1986C222.433 90.215 222.44 90.232 222.446 90.2496C223.021 91.6417 223.996 94.5286 223.454 95.3414L223.454 95.3415C222.768 96.3701 221.397 98.4271 221.054 98.4271C220.711 98.4271 219.34 102.171 222.425 106.629C223.201 107.314 221.829 108 221.486 108C221.144 108 220.801 107.657 220.115 106.286C219.429 103.2 217.968 97.3986 220.025 94.3128C221.075 92.7375 222.689 90.9708 222.446 90.2496Z" fill="#774417"/>
<path d="M303.429 240C305.075 239.177 307.797 232.484 308.825 229.741C311.911 229.056 312.254 229.056 318.082 228.027C317.534 230.221 313.372 236.686 311.315 239.657C309.005 239.287 305.829 239.657 303.429 240Z" fill="#774417"/>
<path d="M225.201 133.085C227.485 129.515 231.086 123.463 231.086 121.714C231.086 119.794 232.229 117.714 233.144 117.257L235.201 115.886C237.084 116.114 241.005 116.709 241.625 117.257C242.246 117.806 242.112 120.457 241.968 121.714C240.627 122.629 237.738 124.389 236.915 124.114C235.886 123.771 239.225 121.714 239.911 121.714C240.46 121.714 240.344 119.543 240.344 118.286L235.886 118.971L233.829 122.057C233.944 123.543 233.692 127.131 231.772 129.6C229.975 131.911 226.635 133.4 224.903 133.956C224.796 134.234 224.68 134.506 224.572 134.743L224.915 135.771C223.315 138.057 219.498 144.274 217.029 150.857C213.944 159.086 209.829 176.914 209.829 179.657C209.829 182.4 208.115 192.686 205.029 197.486C201.944 202.286 193.715 212.229 181.715 214.286C180.344 214.286 180.344 213.6 180.344 211.886V211.886C181.486 210.171 183.841 206.263 184.115 204.343C184.458 201.943 192.001 176.571 196.801 167.657C201.601 158.743 209.829 139.886 219.429 132.343C219.772 132.343 222.858 133.714 224.572 132.343C225.41 131.672 225.437 132.248 225.201 133.085Z" fill="#774417"/>
<path d="M233.486 111.771C233.212 112.046 235.201 112.8 236.229 113.143H236.915V112.114L241.029 111.771L242.401 111.086L243.086 112.457L242.058 115.2C242.515 115.314 243.498 115.543 243.772 115.543C244.115 115.543 245.144 112.114 245.486 111.771C245.761 111.497 243.772 109.6 242.744 108.686C241.029 108.8 237.395 109.166 236.572 109.714C235.544 110.4 233.829 111.429 233.486 111.771Z" fill="#774417"/>
<path d="M230.058 110.057C230.332 110.331 231.086 110.857 231.429 111.086C231.772 111.086 232.115 112.457 231.772 112.8C231.429 113.143 230.401 113.486 230.058 113.143C229.715 112.8 229.029 112.457 229.029 112.114C229.029 111.771 224.915 110.4 224.229 110.057C223.544 109.714 223.886 108.343 224.229 108C224.572 107.657 225.601 107.314 226.286 107.314C226.835 107.314 227.886 108 228.344 108.343L230.058 110.057Z" fill="#774417"/>
<path d="M234.515 107.314C233.829 107.314 232.801 106.971 232.801 106.629C232.252 106.08 232.801 105.029 233.144 104.571L238.972 103.2C240.229 102.98 242.881 102.536 243.429 102.514C244.115 102.487 244.458 103.2 244.801 104.229C245.075 105.051 244.398 106.05 244.025 106.447L243.429 105.943H242.058C240.686 106.295 237.875 106.999 237.601 106.999C237.258 106.999 235.201 107.314 234.515 107.314Z" fill="#774417"/>
<path d="M176.229 207.086C175.955 208.457 178.401 210.857 179.658 211.886C180.481 206.4 182.286 204.571 183.087 204.343V196.114C180.915 199.2 176.504 205.714 176.229 207.086Z" fill="#774417"/>
<path d="M253.282 46.9984C249.854 46.6556 247.796 49.7413 247.454 49.7413C247.796 49.7413 250.196 51.4556 253.282 51.4556C255.751 51.4556 257.511 49.8556 258.082 49.0556C257.625 48.4842 256.025 47.2727 253.282 46.9984Z" fill="white"/>
<path d="M231.339 46.3127C232.711 46.3127 235.339 48.5984 236.482 49.7413C235.454 50.3127 232.848 51.387 230.654 51.1127C228.459 50.8385 226.311 48.9413 225.511 48.027C226.882 47.4556 229.968 46.3127 231.339 46.3127Z" fill="white"/>
<path d="M240.254 69.627C237.511 68.5984 232.597 69.627 229.282 70.6555C230.654 71.3413 235.454 72.7128 235.454 72.7128C235.454 72.7128 237.397 73.2842 238.539 73.0556C238.882 73.3985 241.968 73.7413 241.968 73.7413C241.968 73.7413 244.455 73.0556 245.054 73.0556C248.482 73.0556 252.597 70.9984 252.597 70.9984C252.597 70.9984 245.739 69.9698 244.025 69.2841C242.311 68.5984 241.577 70.1233 240.254 69.627Z" fill="#774417"/>
<path d="M229.282 47.6842C229.282 46.6556 230.654 45.97 231.339 46.6557C232.711 46.6557 233.043 47.5699 233.397 48.0271C233.282 48.7128 232.711 50.0842 231.339 50.0842C229.625 50.0842 229.282 49.0978 229.282 47.6842Z" fill="#E0AC69"/>
<path d="M255.339 47.3414C255.065 46.2442 252.482 46.8843 251.225 47.3414C250.997 47.9128 250.677 49.2613 251.225 50.0842C251.911 51.1128 253.625 50.7699 254.311 50.7699C254.997 50.7699 255.682 48.7128 255.339 47.3414Z" fill="#E0AC69"/>
<path d="M261.168 44.2556C261.006 44.1339 260.813 44.0026 260.594 43.8657C259.27 43.227 256.852 43.227 255.682 43.227C254.269 43.227 250.196 44.5984 248.825 44.9413C247.454 45.2841 244.777 44.5326 246.082 43.227C247.796 41.5127 250.882 41.5127 252.939 41.5127H252.939C255.851 41.5127 258.959 42.8454 260.594 43.8657C260.821 43.9756 261.017 44.1045 261.168 44.2556Z" fill="#30271F"/>
<path d="M230.654 40.827C226.624 40.207 224.025 41.8556 223.111 43.227L232.025 44.2556L237.854 45.2841C237.968 45.1699 238.128 44.8041 237.854 44.2556C237.511 43.5699 235.111 41.5128 230.654 40.827Z" fill="#30271F"/>
<path d="M267.339 43.227C267.065 42.9527 265.625 44.027 264.939 44.5985C264.025 42.6556 262.128 38.7699 261.854 38.7699C261.511 38.7699 262.539 35.3413 261.854 28.827C261.168 22.3127 255.682 22.3127 252.939 20.9413C250.196 19.5699 240.597 18.5413 232.711 20.2556C224.825 21.9699 223.111 26.7699 222.425 28.1413C221.739 29.5127 224.139 33.9699 221.054 37.3984C218.585 40.1413 218.654 41.0556 218.997 41.1699L217.968 40.827C217.739 39.5699 217.282 36.987 217.282 36.7127C217.282 36.3699 217.625 32.9414 217.968 32.2557C218.311 31.5699 218.311 24.7128 219.339 20.2556C219.682 16.4841 224.139 13.7413 224.482 13.3984C224.825 13.0556 230.997 9.62708 231.339 9.62708C231.682 9.62708 236.139 4.82704 246.425 6.54132C256.711 8.25561 262.539 16.1413 263.911 17.5128C268.368 20.9413 269.054 29.8556 269.397 30.8842C269.739 31.9128 268.368 39.1128 268.368 40.827C268.368 42.5413 267.682 43.5699 267.339 43.227Z" fill="#30271F"/>
<path fill-rule="evenodd" clip-rule="evenodd" d="M218.31 41.1699C217.761 40.8956 217.624 41.9699 217.624 42.5413L219.681 45.627C219.567 46.1985 219.407 47.6842 219.681 49.0556C220.024 50.7699 221.738 54.5413 223.795 55.5699C225.853 56.5985 233.395 56.5985 235.453 55.5699C237.098 54.747 237.738 52.7127 237.853 51.7985C237.967 50.6556 238.81 47.8377 240.938 48.3699C243.251 48.9481 243.37 49.7701 243.762 52.4806L243.762 52.4807C243.834 52.9845 243.917 53.5536 244.024 54.1985C244.595 57.627 249.51 58.3127 253.281 58.6556C257.053 58.9985 259.453 58.6556 261.51 55.9127C263.155 53.7185 263.567 50.427 263.567 49.0556L265.967 46.6556C266.424 46.0842 267.407 44.8727 267.681 44.5985C267.955 44.3242 267.338 43.5699 266.995 43.227C266.43 43.9809 265.761 44.424 265.045 44.8979C264.459 45.2862 263.842 45.6952 263.224 46.3127C259.451 44.7407 249.624 45.1869 247.754 45.2718L247.754 45.2718C247.585 45.2794 247.481 45.2842 247.453 45.2842C247.281 45.2842 245.053 45.3699 242.824 45.4556L242.824 45.4556C240.595 45.5413 238.367 45.627 238.195 45.627C237.853 45.627 231.681 44.2556 230.995 43.9127C230.447 43.6385 225.967 43.5699 223.795 43.5699C222.767 43.4556 220.641 43.227 220.367 43.227C220.203 43.227 219.881 42.8336 219.515 42.386C219.117 41.8993 218.667 41.3485 218.31 41.1699ZM261.106 47.8904C257.158 45.2581 248.244 45.0282 244.593 47.7128C243.691 49.5927 244.297 53.5856 245.757 55.2543C247.282 56.9969 249.6 57.11 252.205 57.2371L252.205 57.2371C252.598 57.2563 252.998 57.2758 253.402 57.3013C253.819 57.3275 254.242 57.3688 254.661 57.4097C256.291 57.5687 257.846 57.7204 258.62 56.9461C260.453 55.1131 262.828 50.4723 261.106 47.8904ZM237.88 48.4446C237.562 50.1968 237.226 52.0494 236.314 53.5922C235.449 55.0569 232.9 55.5699 231.338 55.5699C229.165 55.5699 226.202 55.2711 224.082 54.6822C221.909 54.0786 220.558 46.5283 222.424 45.2841C225.311 44.7644 238.634 44.2946 237.913 48.2652C237.902 48.3249 237.891 48.3847 237.88 48.4446Z" fill="black"/>
<path d="M233.521 128.229C233.863 126.171 235.235 124.457 234.549 122.743C235.471 122.005 235.423 120.661 235.921 120.343C236.348 120.069 236.181 120.369 239.349 120.686C239.794 120.593 240.035 121.029 240.035 121.029C236.949 121.029 235.389 124.644 235.921 125.143C236.59 125.772 242.058 124.114 243.086 123.429L243.498 121.8C243.637 120.989 243.776 120.172 243.918 120.137C248.229 120.343 261.046 114.789 263.91 108.713C261.51 118.999 245.739 133.399 240.253 135.799C238.539 131.684 238.663 132 233.521 128.229Z" fill="white"/>
<path d="M262.196 92.2557C262.539 92.2557 265.625 91.2271 265.967 93.2842C264.939 92.9414 263.91 92.9414 262.196 92.2557Z" fill="white"/>
<path d="M247.036 49.9247C248.243 49.321 248.976 48.3111 250.182 47.7084C251.742 46.9284 254.021 46.7804 255.687 47.2874C256.71 47.5987 257.806 48.5334 258.618 49.2098" stroke="black" stroke-linecap="round" stroke-linejoin="round"/>
<path d="M251.483 47.3473C251.223 48.0639 251.034 49.1215 251.375 49.8432C251.479 50.0643 251.502 50.1946 251.727 50.3315C251.894 50.4332 252.082 50.5035 252.243 50.6149C252.524 50.8104 253.133 50.8817 253.479 50.8741C254.41 50.8539 255.181 50.1101 255.498 49.2886C255.774 48.5748 255.763 47.6217 255.173 47.1302" stroke="black" stroke-linecap="round" stroke-linejoin="round"/>
<path d="M253.327 48.7581C252.915 49.2121 253.712 48.814 253.219 48.6495" stroke="black" stroke-linecap="round" stroke-linejoin="round"/>
<path d="M225.718 47.9558C227.5 47.0646 229.194 45.8675 231.311 46.338C233.415 46.8056 234.742 48.4969 236.46 49.6426" stroke="black" stroke-linecap="round" stroke-linejoin="round"/>
<path d="M230.246 46.3578C229.649 46.9722 229.441 47.7433 229.644 48.5773C229.85 49.4247 230.437 49.8971 231.222 50.0669C232.029 50.2414 232.807 49.9877 233.284 49.2679C233.634 48.739 233.704 48.2685 233.522 47.6608" stroke="black" stroke-linecap="round" stroke-linejoin="round"/>
<path d="M231.666 47.9558C231.21 48.6203 232.148 48.1078 231.666 47.8671" stroke="black" stroke-linecap="round" stroke-linejoin="round"/>
<path d="M222.208 43.2036C226.034 43.8157 229.726 43.6347 233.62 44.296C235.363 44.592 236.259 45.1175 237.979 45.4896C240.221 45.9742 242.55 45.5514 244.837 45.4896C246.432 45.4464 250.054 44.8426 253.408 44.9179C257.467 45.0091 259.771 45.311 263.717 46.2689" stroke="black" stroke-linecap="round" stroke-linejoin="round"/>
<path d="M219.947 44.0494C219.799 45.1248 219.929 46.2811 219.636 47.3344C219.389 48.2242 221.6 53.9501 222.344 54.5454C224.841 56.5425 229.734 56.3846 232.732 56.3013C233.994 56.2663 235.795 55.8031 236.722 54.8759C238.19 53.4083 237.9 50.0335 239.302 48.9522C240.269 48.2061 242.333 48.261 243.075 49.2876C244.451 51.1931 243.672 54.5356 245.26 56.1238C246.143 57.0066 248.071 58.035 249.329 58.1608C251.826 58.4105 254.264 58.8617 256.787 58.6935C262.51 58.6935 263.628 50.7211 263.628 46.3578" stroke="black" stroke-linecap="round" stroke-linejoin="round"/>
<path d="M261.231 47.8671C257.282 45.2348 248.368 45.0048 244.717 47.6895C243.815 49.5694 244.421 53.5623 245.881 55.231C247.636 57.2365 250.442 57.0837 253.526 57.2779C255.565 57.4063 257.772 57.896 258.745 56.9228C260.578 55.0898 262.952 50.4489 261.231 47.8671Z" stroke="black" stroke-linecap="round" stroke-linejoin="round"/>
<path d="M236.441 53.5688C237.384 51.9733 237.711 50.0464 238.039 48.2419C238.761 44.2713 225.438 44.741 222.55 45.2608C220.684 46.5049 222.036 54.0553 224.209 54.6588C226.329 55.2477 229.292 55.5465 231.465 55.5465C233.026 55.5465 235.575 55.0335 236.441 53.5688Z" stroke="black" stroke-linecap="round" stroke-linejoin="round"/>
<path d="M219.681 46.1801C219.408 45.6456 219.112 45.121 218.812 44.6018C218.575 44.1905 218.468 43.7202 218.171 43.3391C217.993 43.1101 217.648 42.4718 217.648 42.1899C217.648 41.8236 217.948 41.2974 218.063 40.942C218.223 40.4459 219.725 42.1828 219.903 42.4562C220.421 43.2543 221.278 43.3772 222.166 43.2503" stroke="black" stroke-linecap="round" stroke-linejoin="round"/>
<path d="M263.628 46.1801C264.74 45.3297 265.689 44.2675 266.824 43.4476C267.572 42.9077 267.524 44.022 267.524 44.5821C267.524 45.5767 264.18 48.2045 263.628 49.0322" stroke="black" stroke-linecap="round" stroke-linejoin="round"/>
<path d="M251.978 44.0296C250.506 44.3241 249.275 45.2035 247.731 45.2035C245.696 45.2035 245.699 42.9113 247.47 42.2737C249.71 41.3083 252.297 41.039 254.701 41.455C257.023 41.8568 259.603 42.51 261.32 44.2269C259.98 43.5571 258.172 43.0728 256.659 43.0728C255.084 43.0728 253.514 43.7224 251.978 44.0296Z" stroke="black" stroke-linecap="round" stroke-linejoin="round"/>
<path d="M222.966 42.9841C224.261 42.2375 225.927 40.8099 227.385 40.4785C230.244 39.8287 236.045 41.8118 237.876 43.8719C238.311 44.3605 238.7 45.2608 237.876 45.2608" stroke="black" stroke-linecap="round" stroke-linejoin="round"/>
<path d="M224.607 43.3391C226.159 43.3081 228.567 43.6714 230.093 43.8894" stroke="black" stroke-linecap="round" stroke-linejoin="round"/>
<path d="M234.508 62.7824C234.403 62.1297 234.322 60.7555 235.395 61.4112C237.159 62.4887 238.256 64.8036 240.722 64.8036C243.122 64.8036 244.611 62.7844 246.049 61.8255C246.316 61.6478 246.948 61.7377 246.666 62.1609C246.428 62.5175 246.197 62.6986 245.783 62.8021C245.603 62.847 244.824 63.0457 245.25 62.738C245.617 62.4732 246.012 62.2966 246.404 62.0721" stroke="black" stroke-linecap="round" stroke-linejoin="round"/>
<path d="M234.507 62.6936C234.962 62.8482 235.528 63.1375 236.016 63.1375C236.409 63.1375 236.796 63.1017 237.17 63.2263" stroke="black" stroke-linecap="round" stroke-linejoin="round"/>
<path d="M235.041 61.717C235.628 61.9166 236.114 62.2348 236.639 62.5555C236.919 62.7269 234.552 62.5326 234.523 62.3286C234.489 62.0961 235.154 61.3009 235.041 61.9833" stroke="black" stroke-linecap="round" stroke-linejoin="round"/>
<path d="M237.792 54.792C237.914 55.8152 237.64 56.7389 236.904 57.4555C236.101 58.2372 234.813 58.5726 233.974 59.7638C233.387 60.599 232.73 61.2669 232.929 62.1609C233.108 62.9669 233.863 63.6702 234.685 63.6702" stroke="black" stroke-linecap="round" stroke-linejoin="round"/>
<path d="M244.806 64.1141C245.821 64.1344 247.375 64.599 248.16 63.5814C249.003 62.4885 248.802 60.8316 248.091 59.7638" stroke="black" stroke-linecap="round" stroke-linejoin="round"/>
<path d="M229.056 70.4519C231.838 70.4519 234.678 68.9379 237.695 68.9379C238.765 68.9379 239.733 69.3138 240.723 69.6504C241.635 69.3404 242.498 68.8563 243.484 69.0962C246.46 69.8201 249.64 71.0754 252.747 71.0754" stroke="black" stroke-linecap="round" stroke-linejoin="round"/>
<path d="M229.056 70.541C230.167 70.7371 231.176 71.3341 232.173 71.8324C233.994 72.743 236.176 72.5886 238.14 72.9457C239.071 73.115 239.934 73.6582 240.906 73.6582C241.891 73.6582 242.645 73.4906 243.573 73.2327C244.471 72.9834 245.329 72.9457 246.265 72.9457C248.308 72.9457 250.508 72.3007 252.212 71.1645" stroke="black" stroke-linecap="round" stroke-linejoin="round"/>
<path d="M234.399 76.5083C235.868 78.6255 239.305 77.488 241.431 77.488C243.65 77.488 246.143 79.114 247.581 76.5974" stroke="black" stroke-linecap="round" stroke-linejoin="round"/>
<path d="M261.727 63.6177C261.203 64.464 260.733 64.7581 259.842 65.0789C259.132 65.3343 258.567 65.8579 258.238 66.5162C257.463 68.0659 256.489 69.531 255.822 71.1323" stroke="black" stroke-linecap="round" stroke-linejoin="round"/>
<path d="M271.565 49.6662C271.799 48.0691 272.227 46.393 271.235 44.9672C269.766 42.8552 265.497 49.9033 266.554 52.2528C266.992 53.2267 267.41 54.2423 266.38 55.0434C265.412 55.7965 265.433 56.854 265.408 58.0081C265.32 62.0379 265.991 67.6309 264.544 71.4631C262.737 76.2464 257.58 80.1587 254.093 83.6458C252.173 85.5658 251.452 88.0517 248.95 89.1465C243.464 91.5465 239.693 91.2037 233.864 89.4894C230.715 88.5631 230.205 85.6323 227.822 83.6458C223.779 80.2769 219.955 75.4173 218.718 70.1908C217.727 66.0098 218.417 60.8345 218.417 56.5257C218.417 55.4667 218.433 54.4765 218.147 53.4471C217.857 52.4029 216.943 51.608 218.177 50.8785C219.483 50.107 218.567 45.2995 218.201 44.157" stroke="black" stroke-linecap="round" stroke-linejoin="round"/>
<path d="M217.337 41.8884C216.842 41.2144 215.887 39.7998 214.853 40.6041C214.155 41.1466 213.787 42.7376 213.665 43.5628C213.097 47.3926 213.817 51.9189 215.123 55.5474C215.42 56.3719 216.18 57.0727 216.581 57.8759C216.803 58.319 216.882 58.7259 217.337 59.0042C217.927 59.3645 218.187 58.9699 218.31 58.4161" stroke="black" stroke-linecap="round" stroke-linejoin="round"/>
<path d="M214.853 46.3174C214.665 45.6238 214.476 43.7249 215.609 43.7249C216.632 43.7249 217.019 45.0906 217.278 45.9393C217.64 47.1294 216.83 47.7177 216.203 48.5859C215.55 49.4906 215.707 50.2828 216.041 51.2865" stroke="black" stroke-linecap="round" stroke-linejoin="round"/>
<path d="M267.461 44.589C268.145 43.6944 269.023 42.8135 270.161 42.5606C273.606 41.7952 272.849 49.6482 272.646 51.1185C272.375 53.0836 269.441 64.2069 265.732 61.1167" stroke="black" stroke-linecap="round" stroke-linejoin="round"/>
<path d="M268.325 49.7742C268.357 51.3901 270.614 53.2801 269.297 54.9353C268.816 55.5408 268.097 55.9394 267.461 56.3636" stroke="black" stroke-linecap="round" stroke-linejoin="round"/>
<path d="M219.052 40.8926C219.106 38.1008 221.69 37.5242 222.166 35.2649C222.836 32.083 221.713 27.5971 224.128 25.1129C228.915 20.1889 235.026 19.2645 241.575 19.2645C247.693 19.2645 260.055 21.0554 261.732 27.7613C262.465 30.6937 262.087 34.0235 262.087 37.0305C262.087 39.6606 264.42 41.9757 264.846 44.5341" stroke="black" stroke-linecap="round" stroke-linejoin="round"/>
<path d="M218.059 40.5615C217.828 38.889 217.263 36.9697 217.642 35.2648C219.28 27.8923 216.925 17.832 224.9 13.3057C230.853 9.92693 235.343 5.87707 242.893 6.18828C248.474 6.41833 253.231 8.91134 256.349 11.0374C262.053 14.9259 267.465 19.2329 268.708 26.3819C269.409 30.4111 269.3 35.0811 268.432 39.0718C268.132 40.4542 268.612 42.9797 267.274 43.872" stroke="black" stroke-linecap="round" stroke-linejoin="round"/>
<path d="M222.06 77.3229C222.655 81.1869 223.31 90.1934 221.179 93.6037" stroke="black" stroke-linecap="round" stroke-linejoin="round"/>
<path d="M221.522 92.2322C220.9 93.0463 220.047 93.8799 219.717 94.7948C218.611 97.8681 218.739 102.271 219.945 105.372C220.377 106.483 220.815 107.621 221.266 108.773M240.717 142.052C240.717 143.824 240.606 138.511 240.606 136.739C240.606 134.108 236.712 131.3 233.482 128.659" stroke="black" stroke-linecap="round" stroke-linejoin="round"/>
<path d="M215.35 96.0037C214.88 98.4717 214.164 100.945 214.619 103.488C215.423 107.99 216.701 112.275 218.421 116.316M240.605 142.606C236.418 139.815 232.657 136.636 229.367 133.108" stroke="black" stroke-linecap="round" stroke-linejoin="round"/>
<path d="M215.007 96.0631C216.485 94.1304 218.978 92.2322 221.522 92.2322" stroke="black" stroke-linecap="round" stroke-linejoin="round"/>
<path d="M261.993 91.4088C262.512 91.2853 263.773 90.5784 264.32 90.6392C266.809 90.9158 266.587 95.4422 266.537 97.2821C266.158 111.309 253.598 129.337 240.722 135.775" stroke="black" stroke-linecap="round" stroke-linejoin="round"/>
<path d="M261.993 91.0763C262.394 90.6878 263.769 89.2184 264.379 89.4894C266.779 90.1751 271.523 91.2506 271.523 94.8441C271.523 99.2802 270.503 103.637 269.086 107.81C264.379 121.668 253.949 135.824 240.605 142.496" stroke="black" stroke-linecap="round" stroke-linejoin="round"/>
<path d="M221.656 93.6251C221.046 94.0912 220.545 94.2912 219.883 94.6225" stroke="black" stroke-linecap="round" stroke-linejoin="round"/>
<path d="M262.716 74.7069C262.716 79.9548 261.636 84.6894 261.636 91.2036C262.321 92.5751 264.8 93.1695 266.204 93.4035" stroke="black" stroke-linecap="round" stroke-linejoin="round"/>
<path d="M262.322 91.9949C263.555 91.7976 265.077 91.8488 266.094 92.5751" stroke="black" stroke-linecap="round" stroke-linejoin="round"/>
<path d="M219.661 104.264C220.193 105.659 220.858 107.063 221.641 108.43M239.608 120.775C238.211 120.775 237.194 120.783 235.881 120.43M264.379 108.004C260.486 114.815 252.094 119.241 244.11 120.43" stroke="black" stroke-linecap="round" stroke-linejoin="round"/>
<path d="M215.171 95.8364C211.324 98.167 203.98 102.06 199.881 103.973C193.568 106.919 193.396 107.558 187.196 110.83C185.421 111.766 182.053 112.544 182.053 115.287" stroke="black" stroke-linecap="round" stroke-linejoin="round"/>
<path d="M182.053 115.287C181.565 117.058 181.018 121.683 181.454 123.425C185.139 147.2 180.682 152.686 181.025 175.314" stroke="black" stroke-linecap="round" stroke-linejoin="round"/>
<path d="M249.459 107.656C252.498 106.708 255.684 105.059 258.815 104.537" stroke="black" stroke-linecap="round" stroke-linejoin="round"/>
<path d="M223.123 101.072C224.791 101.527 226.337 102.022 227.813 102.602" stroke="black" stroke-linecap="round" stroke-linejoin="round"/>
<path d="M286.19 183.198C286.753 183.76 290.056 188.683 290.329 185.951C291.488 174.367 290.683 162.62 292.081 150.971" stroke="black" stroke-linecap="round" stroke-linejoin="round"/>
<path d="M271.579 95.6608C273.596 98.4872 275.76 98.6125 279.425 100.887C289.367 106.03 292.453 105.344 305.482 114.259C306.119 123.032 303.913 135.958 301.957 143.001C300.037 152.5 298.352 161.743 294.853 170.8C293.105 175.326 291.585 180.146 290.695 184.93" stroke="black" stroke-linecap="round" stroke-linejoin="round"/>
<path d="M290.779 184.804C291.551 189.193 292.813 196.313 293.14 200.735C293.661 207.762 293.14 217.718 294.894 224.575" stroke="black" stroke-linecap="round" stroke-linejoin="round"/>
<path d="M296.239 222.355C297.213 224.463 297.844 223.45 299.57 222.874C304.626 221.189 309.643 221.725 314.605 218.889" stroke="black" stroke-linecap="round" stroke-linejoin="round"/>
<path d="M294.507 224.434C300.353 227.775 307.651 225.021 313.219 222.701" stroke="black" stroke-linecap="round" stroke-linejoin="round"/>
<path d="M305.481 114.944C310.005 120.86 317.481 123.516 320.224 139.287C320.846 142.864 322.293 153.168 321.882 156.862C321.882 162.861 321.536 167.951 321.536 174.342C321.536 186.677 319.237 203.318 321.709 218.334C322.257 219.429 322.796 220.252 322.229 221.453C321.609 222.767 321.293 223.459 321.536 224.918" stroke="black" stroke-linecap="round" stroke-linejoin="round"/>
<path d="M277.874 189.089C277.874 196.2 278.572 202.975 279.953 209.957C280.835 214.411 282.725 218.812 282.725 223.394" stroke="black" stroke-linecap="round" stroke-linejoin="round"/>
<path d="M289.656 194.286C288.314 201.233 286.864 208.299 286.556 215.386C286.421 218.495 287.182 222.152 286.19 225.127" stroke="black" stroke-linecap="round" stroke-linejoin="round"/>
<path d="M288.408 194.061C287.274 196.223 286.497 198.374 285.636 200.645" stroke="black" stroke-linecap="round" stroke-linejoin="round"/>
<path d="M292.081 194.633C292.081 198.113 291.963 201.573 292.427 205.028C292.809 207.87 293.434 210.869 293.467 213.73C293.523 218.697 292.081 227.661 292.836 232.461" stroke="black" stroke-linecap="round" stroke-linejoin="round"/>
<path d="M294.506 224.087C294.299 225.385 293.852 226.908 293.852 228.226C293.852 231.167 319.236 230.746 321.636 224.918" stroke="black" stroke-linecap="round" stroke-linejoin="round"/>
<path d="M319.803 226.859C317.944 231.173 315.21 236.391 312.18 240.027" stroke="black" stroke-linecap="round" stroke-linejoin="round"/>
<path d="M294.208 229.032C293.891 230.795 292.151 236.232 290.779 238.975" stroke="black" stroke-linecap="round" stroke-linejoin="round"/>
<path d="M218.618 191.861C216.061 199.613 212.464 207.235 209.069 214.654C207.466 218.158 205.353 221.478 203.371 224.78" stroke="black" stroke-linecap="round" stroke-linejoin="round"/>
<path d="M234.541 123.38C234.414 129.74 230.454 132.836 225.107 135.509" stroke="black" stroke-linecap="round" stroke-linejoin="round"/>
<path d="M178.559 219.068C178.559 223.849 179.653 232.887 178.559 238.373" stroke="black" stroke-linecap="round" stroke-linejoin="round"/>
<path d="M214.281 128.686C216.006 124.852 215.564 123.886 216.684 121.395C218.107 118.234 219.225 114.574 220.241 111.25C221.518 107.07 225.567 105.262 228.16 101.971C229.427 100.314 230.456 98.5903 231.602 96.8701C232.672 95.2663 233.257 93.386 234.245 91.7693C235.107 90.3583 237.938 90.6015 238.967 90.6015C240.681 90.719 242.621 90.484 244.096 90.6015C245.811 92.7838 246.617 95.5421 247.063 98.2203C246.452 98.8315 244.714 98.6105 244.096 98.0369C243.012 97.0306 242.434 96.0073 241.962 94.6197C240.416 95.7567 238.877 96.42 237.011 96.42C236.967 98.6469 235.024 101.144 233.824 102.944" stroke="black" stroke-linecap="round" stroke-linejoin="round"/>
<path d="M234.461 123.124C235.024 122.358 235.152 121.704 235.511 120.874C235.673 120.5 235.673 119.412 236.111 119.374C237.371 119.263 238.574 118.585 239.862 118.624C240.201 118.634 240.012 119.813 240.012 120.124C240.012 120.824 240.199 121.305 239.378 121.324C237.432 121.368 235.881 123.859 235.881 124.887C236.224 125.23 236.753 125.464 237.596 125.23C238.242 125.05 238.91 124.92 239.562 124.775C240.452 124.577 242.782 124.279 243.246 123.424C243.831 122.348 243.663 120.845 243.988 119.674C244.304 118.536 244.363 116.959 244.363 115.773" stroke="black" stroke-linecap="round" stroke-linejoin="round"/>
<path d="M236.262 112.923C237.318 113.677 239.152 114.569 240.462 114.715C241.672 114.849 243.046 115.384 244.213 115.773" stroke="black" stroke-linecap="round" stroke-linejoin="round"/>
<path d="M237.012 112.173C238.383 112.365 239.593 112.016 240.912 111.723C241.467 111.599 241.836 111.122 242.413 111.122C243 111.122 243.082 111.835 243.163 112.323C242.647 113.189 242.262 113.726 242.262 114.723" stroke="black" stroke-linecap="round" stroke-linejoin="round"/>
<path d="M234.011 103.021C237.204 102.458 240.431 101.451 243.613 100.921C245.449 101.839 245.699 102.937 246.013 104.821C245.856 105.697 245.138 106.373 244.795 107.402" stroke="black" stroke-linecap="round" stroke-linejoin="round"/>
<path d="M237.462 107.072C238.655 106.881 239.888 106.699 241.062 106.438C241.976 106.235 243.106 105.307 243.613 106.321C245.481 108.134 247.064 110.049 247.064 112.773C246.398 113.892 245.824 114.944 245.413 116.223C245.139 116.659 244.949 116.618 244.513 116.973" stroke="black" stroke-linecap="round" stroke-linejoin="round"/>
<path d="M179.735 211.423C180.016 208.718 181.771 206.213 182.832 203.74" stroke="black" stroke-linecap="round" stroke-linejoin="round"/>
<path d="M181.71 114.259C162.709 127.533 162.208 142.588 162.208 165.946C161.179 170.061 160.403 180.761 160.403 183.814C159.528 189.059 159.691 194.668 158.4 199.831C158.4 207.157 160.468 215.604 169.125 217.046C173.308 217.785 177.012 218.394 181.254 218.394C183.437 217.639 186.167 216.889 188.07 215.519C189.344 214.602 190.244 213.72 191.252 212.511" stroke="black" stroke-linecap="round" stroke-linejoin="round"/>
<path d="M225.782 135.509C218.888 145.275 215.952 157.591 213.128 169.202C211.802 174.653 209.888 192.909 205.024 199.287C203.653 201.344 200.224 205.459 197.824 207.516C193.71 210.602 191.056 212.364 186.87 213.945C184.424 214.87 181.024 215.895 179.276 215.895C177.938 215.059 175.881 213.003 175.195 210.259C174.167 206.144 174.853 196.202 175.195 191.744C175.299 187.075 177.864 181.477 179.959 177.289C184.241 168.723 190.204 160.523 196.169 153.067C202.406 145.271 208.379 136.859 214.326 128.771" stroke="black" stroke-linecap="round" stroke-linejoin="round"/>
<path d="M180.625 174.924C178.599 177.312 177.01 179.945 175.23 182.494C174.304 183.82 173.769 185.205 173.285 186.732C172.649 188.737 171.822 190.662 171.514 192.76C171.119 195.451 171.116 198.165 171.116 200.877" stroke="black" stroke-linecap="round" stroke-linejoin="round"/>
<path d="M177.716 175.707C175.005 177.929 170.841 180.365 169.159 183.6C167.855 186.107 166.243 188.424 164.964 190.983C163.824 193.263 163.174 195.922 163.174 198.472C163.174 200.998 163.291 203.873 164.181 206.246" stroke="black" stroke-linecap="round" stroke-linejoin="round"/>
<path d="M237.153 112.408C236.966 112.599 236.915 112.8 236.99 113.057" stroke="black" stroke-linecap="round"/>
<path d="M133.285 24C132.83 24.1111 132.012 24.4667 132.376 25" stroke="white"/>
<path d="M150.286 58C151.149 59.2281 156.581 64.8421 155.286 70" stroke="white" stroke-linecap="round" stroke-linejoin="round"/>
<path d="M166.286 52C165.786 54 166.286 60.8 166.286 63" stroke="white" stroke-linecap="round" stroke-linejoin="round"/>
<path d="M139.285 73C139.841 67.8077 145.878 62.1154 148.285 60C150.785 57.5 151.196 56.0833 157.285 55C162.157 54.1333 172.934 49.6667 178.285 47.5" stroke="white" stroke-linecap="round" stroke-linejoin="round"/>
<path d="M147.285 60C145.063 58.9438 140.396 57.9155 134.285 59.5" stroke="white" stroke-linecap="round" stroke-linejoin="round"/>
<path d="M155.285 55C152.952 53 146.054 49.4547 142.285 50" stroke="white" stroke-linecap="round" stroke-linejoin="round"/>
<path d="M171.285 49.9999C168.938 47.8742 163.077 42.4203 159.285 42.9999" stroke="white" stroke-linecap="round" stroke-linejoin="round"/>
<path d="M142.286 45C126.686 47 120.286 35.5 120.286 30.5C119.786 29 124.119 26.1667 126.786 25L126.786 27C125.286 27.6667 122.586 29.3 123.786 30.5C125.286 32 131.286 34 142.286 33.5C151.086 33.1 156.619 30.3333 158.286 29L156.786 25C158.119 25.1667 161.286 26 161.286 28C161.286 30.5 161.786 42.5 142.286 45Z" fill="#F5F5F5"/>
<path d="M127.866 23.8889L127.286 25V26.5C126.453 26.8333 124.586 27.9 123.786 29.5C122.786 31.5 132.506 34 141.786 33.5C151.066 33 158.786 29.5 157.786 29C156.986 28.6 156.453 25.7963 156.286 24.4444L155.126 23.8889L153.386 22.2222L151.646 21.6667L150.486 20.5556L149.108 18.3333H147.586L147.006 17.2222L144.686 15.5556L141.786 15H138.886H135.986L134.246 16.1111L132.506 17.7778L131.346 18.3333L130.186 20L128.446 20.5556L127.866 22.2222V23.8889Z" fill="#DFEA9D"/>
<path d="M149.606 65.4599C148.495 62.8724 151.228 62.6568 152.386 62.8724C153.775 60.2849 155.773 60.9317 156.555 61.5786C162.808 66.7534 156.555 71.2818 155.165 71.9286C153.775 72.5755 150.996 68.6943 149.606 65.4599Z" fill="#DFEA9D"/>
<path d="M169.092 60.6182C170.081 55.0224 167.032 55.0224 165.384 55.7219C165.384 55.0224 162.912 52.2244 161.676 55.7219C160.687 58.5198 161.675 62.6167 163.53 64.1156C164.972 65.2814 168.103 66.2141 169.092 60.6182Z" fill="#DFEA9D"/>
<path d="M141.815 66.2033C142.375 65.6502 143.285 65.0575 143.285 66.338C143.285 68.0704 139.552 75 137.952 75C136.352 75 135.285 72.1127 135.285 70.3803C135.285 68.6479 137.418 64.0281 140.085 65.183C141.381 65.7443 141.759 66.0499 141.815 66.2033Z" fill="#DFEA9D"/>
<path d="M132.684 60.5136C137.545 61.6759 142.628 60.5135 144.285 59.5449C141.523 57.6077 139.865 56.6391 135.998 57.1234C133.984 57.3757 128.816 59.589 132.684 60.5136Z" fill="#DFEA9D"/>
<path d="M140.471 50.9685C141.33 51.911 147.452 54.503 152.285 53.9139C152.285 53.3248 151.748 49.2013 147.452 47.434C143.156 45.6668 139.396 49.7903 140.471 50.9685Z" fill="#DFEA9D"/>
<path d="M157.445 43.6344C158.27 44.4975 163.628 48.4895 168.265 47.9501C168.265 47.4106 168.78 42.0159 164.658 40.3975C160.536 38.7791 156.415 42.5555 157.445 43.6344Z" fill="#DFEA9D"/>
<path d="M148.286 29.0001C148.508 28.0908 149.219 26.4539 150.286 27.1814" stroke="black" stroke-linecap="round"/>
<path d="M142.286 28.0001C142.786 27.4045 144.086 26.4514 145.286 27.4045" stroke="black" stroke-linecap="round"/>
<path d="M147.286 22.0001C148.131 22.0001 149.694 22.4001 149.187 24.0001" stroke="black" stroke-linecap="round"/>
<path d="M141.286 20.0001C140.536 19.2455 138.886 18.189 138.286 20.0001" stroke="black" stroke-linecap="round"/>
<path d="M120.286 30.0001C120.286 40.1949 130.543 45.2458 140.573 44.9915C150.817 44.7317 161.286 39.8941 161.286 28.0001" stroke="black" stroke-linecap="round" stroke-linejoin="round"/>
<path d="M124.718 30.9377C122.01 29.6423 125.094 27.5191 126.975 26.6195L128.104 25.0001C124.718 26.0797 118.512 28.7786 120.769 30.9377C123.59 33.6367 131.489 35.7958 144.467 34.7162C153.495 33.9652 158.009 31.4775 160.83 28.7786C162.692 26.9982 158.385 25.18 156.316 25.0001L156.88 26.6195C157.069 27.1593 157.558 28.3468 158.009 28.7786C158.573 29.3184 154.059 32.0173 144.467 33.0969C134.875 34.1764 128.104 32.5571 124.718 30.9377Z" stroke="black" stroke-linecap="round" stroke-linejoin="round"/>
<path d="M127.286 25.0001L127.866 23.889V22.2223L128.446 20.5557L130.186 20.0001L131.346 18.3335L132.506 17.7779L134.246 16.1112L135.986 15.0001H138.886H141.786L144.686 15.5557L147.006 17.2223L147.586 18.3335H149.109L150.486 20.5557L151.646 21.6668L153.386 22.2223L155.126 23.889L156.286 24.4446" stroke="black" stroke-linecap="round" stroke-linejoin="round"/>
<path d="M132.286 24.0001C131.831 24.1112 131.013 24.4668 131.377 25.0001" stroke="black" stroke-linecap="round" stroke-linejoin="round"/>
<path d="M149.286 58.0001C150.149 59.2282 156.405 66.8422 155.11 72.0001" stroke="black" stroke-linecap="round" stroke-linejoin="round"/>
<path d="M149.607 65.46C148.496 62.8725 151.229 62.6569 152.387 62.8725C153.776 60.285 155.774 60.9318 156.556 61.5787C162.809 66.7535 156.555 71.2819 155.166 71.9288C153.776 72.5756 150.997 68.6944 149.607 65.46Z" stroke="black" stroke-linecap="round" stroke-linejoin="round"/>
<path d="M165.377 52.0001C164.923 54.1668 165.013 62.4001 165.377 65.0001" stroke="black" stroke-linecap="round" stroke-linejoin="round"/>
<path d="M169.093 60.6184C170.082 55.0225 167.033 55.0225 165.385 55.722C165.385 55.0225 162.913 52.2245 161.677 55.722C160.688 58.52 161.676 62.6168 163.531 64.1157C164.973 65.2816 168.104 66.2142 169.093 60.6184Z" stroke="black" stroke-linecap="round" stroke-linejoin="round"/>
<path d="M147.286 60.0001C144.879 62.1155 137.842 69.8078 137.286 75.0001" stroke="black" stroke-linecap="round" stroke-linejoin="round"/>
<path d="M141.686 66.3381C142.219 65.7606 143.286 64.9522 143.286 66.3381C143.286 68.0705 139.553 75.0001 137.953 75.0001C136.353 75.0001 135.286 72.1128 135.286 70.3804C135.286 68.648 137.419 64.0282 140.086 65.1831C142.219 66.1071 141.864 66.3381 141.686 66.3381Z" stroke="black" stroke-linecap="round" stroke-linejoin="round"/>
<path d="M178.286 47.0001C172.935 49.1668 161.015 53.7168 156.143 54.5835C150.054 55.6668 149.5 58.3751 147.286 60.0001" stroke="black" stroke-linecap="round" stroke-linejoin="round"/>
<path d="M146.286 60C144.064 58.9439 137.397 58.4157 131.286 60.0001" stroke="black" stroke-linecap="round" stroke-linejoin="round"/>
<path d="M132.685 60.5137C137.546 61.676 142.629 60.5136 144.286 59.545C141.524 57.6078 139.866 56.6393 135.999 57.1235C133.985 57.3758 128.817 59.5891 132.685 60.5137Z" stroke="black" stroke-linecap="round" stroke-linejoin="round"/>
<path d="M154.286 55.0001C151.953 53.0002 144.055 49.5119 140.286 50.0573" stroke="black" stroke-linecap="round" stroke-linejoin="round"/>
<path d="M170.286 50.0001C167.939 47.8744 161.078 42.4637 157.286 43.0433" stroke="black" stroke-linecap="round" stroke-linejoin="round"/>
<path d="M140.472 50.9686C141.331 51.9111 147.453 54.5031 152.286 53.914C152.286 53.3249 151.749 49.2014 147.453 47.4342C143.157 45.6669 139.397 49.7905 140.472 50.9686Z" stroke="black" stroke-linecap="round" stroke-linejoin="round"/>
<path d="M157.446 43.6345C158.271 44.4977 163.629 48.4897 168.266 47.9502C168.266 47.4107 168.781 42.016 164.659 40.3976C160.537 38.7792 156.416 42.5556 157.446 43.6345Z" stroke="black" stroke-linecap="round" stroke-linejoin="round"/>
</svg>
