<svg width="450" height="322" viewBox="0 0 450 322" fill="none" xmlns="http://www.w3.org/2000/svg">
    <path d="M415.219 68.1562C415.875 70.125 415.875 72.3125 415.875 72.3125C415.875 73.0374 412.349 74.7188 408 74.7188C403.651 74.7188 400.125 73.0374 400.125 72.3125C400.125 72.3125 400.125 70.125 400.781 68.1562C402.531 68.375 406.425 69.4688 408 69.4688C409.575 69.4688 413.469 68.375 415.219 68.1562Z" fill="#FAFAFA"/>
    <path d="M397.5 74.0625V83.5417C397.5 85.5552 402.201 87.1875 408 87.1875C413.799 87.1875 418.5 85.5552 418.5 83.5417V74.0625C417.188 75.375 412.227 76.6875 408 76.6875C403.773 76.6875 398.594 75.1562 397.5 74.0625Z" fill="#F4F4F4"/>
    <path d="M400.125 63.5625V67.3542C400.125 68.1596 403.651 69.4688 408 69.4688C412.349 69.4688 415.875 68.1596 415.875 67.3542V63.5625H400.125Z" fill="#F4F4F4"/>
    <path d="M408 76.6875C413.799 76.6875 418.5 75.2184 418.5 73.4062C418.498 72.75 417.182 72.0938 415.869 72.0938C415.869 72.75 414.295 74.7188 408 74.7188C401.705 74.7188 400.123 72.75 400.119 72.0938C398.019 72.0938 397.498 72.9688 397.5 73.4062C397.5 75.2184 402.201 76.6875 408 76.6875Z" fill="#F2F2F2"/>
    <path d="M408.005 119.344C413.804 119.344 418.505 117.875 418.505 116.063V90.4159C418.505 85.9798 414.562 87.1874 414.562 87.1874C414.562 87.1874 410.736 87.8988 408 87.8437C406.104 87.8055 403.406 87.8437 401.437 87.1873C399.468 86.5309 397.302 89.0296 397.52 90.4159V116.063C397.52 117.875 402.206 119.344 408.005 119.344Z" fill="#F29733"/>
    <path d="M399.469 92.4378C399.469 90.469 399.469 89.1565 400.781 88.5002L403.406 89.1564C403.625 98.1251 403.406 114.75 403.406 116.719C400.781 116.719 400.125 116.063 399.469 115.406L399.469 115.406V92.4378Z" fill="white"/>
    <path d="M402.75 60.9375H413.25L410.724 38.2021C410.668 37.6956 410.24 37.3125 409.73 37.3125H406.27C405.76 37.3125 405.332 37.6956 405.276 38.2021L402.75 60.9375Z" fill="white"/>
    <path d="M408 113.438C413.799 113.438 418.5 111.968 418.5 110.156V91.7812C418.5 93.5934 413.799 95.0625 408 95.0625C402.201 95.0625 397.5 93.5934 397.5 91.7812V110.156C397.5 111.968 402.201 113.438 408 113.438Z" fill="#F4F4F4"/>
    <path d="M415.219 68.1562C415.875 70.125 415.875 72.3125 415.875 72.3125C415.875 73.0374 412.349 74.7188 408 74.7188C403.651 74.7188 400.125 73.0374 400.125 72.3125C400.125 72.3125 400.125 70.125 400.781 68.1562" stroke="black" stroke-linecap="round" stroke-linejoin="round"/>
    <path d="M397.5 74.0625V83.5417C397.5 85.5552 402.201 87.8438 408 87.8438C413.799 87.8438 418.5 85.5552 418.5 83.5417V74.0625" stroke="black" stroke-linecap="round" stroke-linejoin="round"/>
    <path d="M400.125 63.5625V67.3542C400.125 68.1596 403.651 69.4688 408 69.4688C412.349 69.4688 415.875 68.1596 415.875 67.3542V63.5625" stroke="black" stroke-linecap="round" stroke-linejoin="round"/>
    <path d="M415.869 72.0938C417.182 72.0938 418.498 72.75 418.5 73.4062C418.5 75.2184 413.799 77.3438 408 77.3438C402.201 77.3438 397.5 75.2184 397.5 73.4062C397.498 72.9687 398.019 72.0938 400.119 72.0938" stroke="black" stroke-linecap="round" stroke-linejoin="round"/>
    <path d="M419 110.156C419 109.88 418.776 109.656 418.5 109.656C418.224 109.656 418 109.88 418 110.156H419ZM398.021 110.156C398.021 109.88 397.797 109.656 397.521 109.656C397.244 109.656 397.021 109.88 397.021 110.156H398.021ZM419 91.7813C419 91.5052 418.776 91.2813 418.5 91.2813C418.224 91.2813 418 91.5052 418 91.7813H419ZM398.021 91.7813C398.021 91.5052 397.797 91.2813 397.521 91.2813C397.244 91.2813 397.021 91.5052 397.021 91.7813H398.021ZM397.521 90.4161H398.021V90.4161L397.521 90.4161ZM414.563 87.1877L414.654 87.6793L414.682 87.6741L414.709 87.6658L414.563 87.1877ZM408 87.8439L408.01 87.344L408 87.8439ZM418 110.156C418 110.376 417.857 110.678 417.378 111.031C416.909 111.378 416.199 111.711 415.276 111.999C413.436 112.574 410.863 112.938 408 112.938V113.938C410.936 113.938 413.613 113.566 415.574 112.954C416.551 112.648 417.378 112.274 417.972 111.836C418.556 111.404 419 110.842 419 110.156H418ZM408 112.938C405.153 112.938 402.589 112.454 400.749 111.817C399.827 111.497 399.107 111.146 398.628 110.813C398.389 110.645 398.226 110.494 398.128 110.368C398.028 110.239 398.021 110.17 398.021 110.156H397.021C397.021 110.471 397.159 110.751 397.338 110.981C397.518 111.213 397.767 111.431 398.056 111.633C398.637 112.037 399.449 112.425 400.422 112.762C402.373 113.437 405.048 113.938 408 113.938V112.938ZM418 91.7813C418 92.0012 417.857 92.3027 417.378 92.6564C416.909 93.0028 416.199 93.3359 415.276 93.6243C413.436 94.1992 410.863 94.5626 408 94.5626V95.5626C410.936 95.5626 413.613 95.1914 415.574 94.5787C416.551 94.2734 417.378 93.8994 417.972 93.4607C418.556 93.0292 419 92.4675 419 91.7813H418ZM408 94.5626C405.137 94.5626 402.57 94.1992 400.735 93.6244C399.815 93.336 399.107 93.0031 398.64 92.6569C398.164 92.3037 398.021 92.0021 398.021 91.7813H397.021C397.021 92.4666 397.462 93.0283 398.045 93.4602C398.637 93.8991 399.461 94.2732 400.436 94.5786C402.392 95.1914 405.064 95.5626 408 95.5626V94.5626ZM418.005 116.063C418.005 116.283 417.862 116.584 417.383 116.938C416.914 117.284 416.204 117.617 415.281 117.906C413.441 118.481 410.869 118.844 408.005 118.844V119.844C410.941 119.844 413.619 119.473 415.579 118.86C416.556 118.555 417.384 118.181 417.977 117.742C418.561 117.311 419.005 116.749 419.005 116.063H418.005ZM408.005 118.844C405.142 118.844 402.574 118.481 400.738 117.906C399.817 117.617 399.108 117.284 398.641 116.938C398.164 116.585 398.021 116.283 398.021 116.063H397.021C397.021 116.748 397.463 117.31 398.046 117.742C398.638 118.181 399.464 118.555 400.439 118.86C402.396 119.473 405.07 119.844 408.005 119.844V118.844ZM398.021 116.063V90.4161H397.021V116.063H398.021ZM398.021 90.4161C398.02 90.2144 398.104 89.898 398.306 89.526C398.502 89.1626 398.792 88.7824 399.157 88.4554C399.885 87.8019 400.864 87.3954 401.973 87.6726L402.215 86.7025C400.699 86.3235 399.391 86.9013 398.489 87.7112C398.038 88.1159 397.677 88.5872 397.426 89.0498C397.18 89.5038 397.02 89.9879 397.021 90.4162L398.021 90.4161ZM414.563 87.1877C414.709 87.6658 414.709 87.6658 414.709 87.6659C414.709 87.6659 414.708 87.666 414.708 87.666C414.708 87.6661 414.708 87.6661 414.708 87.6661C414.708 87.6662 414.708 87.6662 414.708 87.6661C414.709 87.6659 414.71 87.6655 414.712 87.6648C414.717 87.6635 414.725 87.6611 414.737 87.6581C414.76 87.6519 414.795 87.6427 414.842 87.6322C414.936 87.6109 415.073 87.5844 415.238 87.5648C415.572 87.5251 415.998 87.5171 416.41 87.6227C416.814 87.7264 417.197 87.9362 417.484 88.3334C417.775 88.7351 418.005 89.379 418.005 90.4161H419.005C419.005 89.2352 418.743 88.3665 418.294 87.747C417.843 87.123 417.239 86.8029 416.658 86.654C416.085 86.5071 415.525 86.5237 415.12 86.5718C414.915 86.5961 414.744 86.6293 414.622 86.6567C414.561 86.6705 414.512 86.683 414.477 86.6923C414.46 86.697 414.446 86.701 414.435 86.7039C414.43 86.7054 414.426 86.7066 414.423 86.7076C414.421 86.708 414.42 86.7085 414.419 86.7088C414.418 86.709 414.418 86.7091 414.417 86.7093C414.417 86.7093 414.417 86.7094 414.417 86.7094C414.416 86.7095 414.416 86.7096 414.563 87.1877ZM418.005 90.4161V116.063H419.005V90.4161H418.005ZM401.973 87.6726C404.659 88.3441 406.096 88.3057 407.99 88.3438L408.01 87.344C406.113 87.3058 404.779 87.3435 402.215 86.7025L401.973 87.6726ZM407.99 88.3438C409.397 88.3721 411.067 88.204 412.373 88.0322C413.028 87.9459 413.597 87.8579 414.003 87.7914C414.206 87.7581 414.368 87.7302 414.479 87.7106C414.535 87.7008 414.579 87.693 414.608 87.6877C414.623 87.685 414.634 87.6829 414.642 87.6815C414.646 87.6808 414.649 87.6803 414.651 87.6799C414.652 87.6797 414.652 87.6795 414.653 87.6794C414.653 87.6794 414.654 87.6793 414.654 87.6793C414.654 87.6793 414.654 87.6793 414.654 87.6793C414.654 87.6793 414.654 87.6793 414.563 87.1877C414.471 86.6961 414.471 86.6961 414.471 86.6961C414.471 86.6961 414.471 86.6961 414.471 86.6961C414.471 86.6961 414.471 86.6961 414.471 86.6962C414.47 86.6963 414.47 86.6964 414.469 86.6965C414.467 86.6968 414.465 86.6973 414.461 86.6979C414.454 86.6992 414.444 86.7011 414.43 86.7037C414.402 86.7087 414.36 86.7162 414.306 86.7257C414.198 86.7447 414.04 86.772 413.841 86.8046C413.444 86.8697 412.885 86.9561 412.242 87.0407C410.95 87.2108 409.34 87.3708 408.01 87.344L407.99 88.3438Z" fill="black"/>
    <path d="M416.267 63.5625V64.0625C416.328 64.0625 416.388 64.0514 416.445 64.0297L416.267 63.5625ZM416.267 57L416.445 56.5328C416.388 56.5111 416.328 56.5 416.267 56.5V57ZM399.733 57V56.5C399.672 56.5 399.612 56.5111 399.555 56.5328L399.733 57ZM399.733 63.5625L399.555 64.0297C399.612 64.0514 399.672 64.0625 399.733 64.0625V63.5625ZM419.312 60.2812C419.312 60.7342 419.075 61.2216 418.524 61.7207C417.974 62.2199 417.149 62.6913 416.089 63.0953L416.445 64.0297C417.573 63.5999 418.521 63.0734 419.196 62.4617C419.871 61.85 420.312 61.1137 420.312 60.2812H419.312ZM416.089 57.4672C417.149 57.8712 417.974 58.3426 418.524 58.8418C419.075 59.3409 419.312 59.8283 419.312 60.2812H420.312C420.312 59.4488 419.871 58.7125 419.196 58.1008C418.521 57.4891 417.573 56.9626 416.445 56.5328L416.089 57.4672ZM416.267 56.5H399.733V57.5H416.267V56.5ZM396.688 60.2812C396.688 59.8283 396.925 59.3409 397.476 58.8418C398.026 58.3426 398.851 57.8712 399.911 57.4672L399.555 56.5328C398.427 56.9626 397.479 57.4891 396.804 58.1008C396.129 58.7125 395.688 59.4488 395.688 60.2812H396.688ZM399.911 63.0953C398.851 62.6913 398.026 62.2199 397.476 61.7207C396.925 61.2216 396.688 60.7342 396.688 60.2812H395.688C395.688 61.1137 396.129 61.85 396.804 62.4617C397.479 63.0734 398.427 63.5999 399.555 64.0297L399.911 63.0953ZM399.733 64.0625H416.267V63.0625H399.733V64.0625Z" fill="black"/>
    <path fill-rule="evenodd" clip-rule="evenodd" d="M416.267 63.5625C418.455 62.7287 419.812 61.5666 419.812 60.2812C419.812 58.9959 418.455 57.8338 416.267 57H399.733C397.545 57.8338 396.188 58.9959 396.188 60.2812C396.188 61.5666 397.545 62.7287 399.733 63.5625H416.267Z" fill="#FAFAFA"/>
    <path d="M416.267 63.5625V64.0625C416.328 64.0625 416.388 64.0514 416.445 64.0297L416.267 63.5625ZM416.267 57L416.445 56.5328C416.388 56.5111 416.328 56.5 416.267 56.5V57ZM399.733 57V56.5C399.672 56.5 399.612 56.5111 399.555 56.5328L399.733 57ZM399.733 63.5625L399.555 64.0297C399.612 64.0514 399.672 64.0625 399.733 64.0625V63.5625ZM419.312 60.2812C419.312 60.7342 419.075 61.2216 418.524 61.7207C417.974 62.2199 417.149 62.6913 416.089 63.0953L416.445 64.0297C417.573 63.5999 418.521 63.0734 419.196 62.4617C419.871 61.85 420.312 61.1137 420.312 60.2812H419.312ZM416.089 57.4672C417.149 57.8712 417.974 58.3426 418.524 58.8418C419.075 59.3409 419.312 59.8283 419.312 60.2812H420.312C420.312 59.4488 419.871 58.7125 419.196 58.1008C418.521 57.4891 417.573 56.9626 416.445 56.5328L416.089 57.4672ZM416.267 56.5H399.733V57.5H416.267V56.5ZM396.688 60.2812C396.688 59.8283 396.925 59.3409 397.476 58.8418C398.026 58.3426 398.851 57.8712 399.911 57.4672L399.555 56.5328C398.427 56.9626 397.479 57.4891 396.804 58.1008C396.129 58.7125 395.688 59.4488 395.688 60.2812H396.688ZM399.911 63.0953C398.851 62.6913 398.026 62.2199 397.476 61.7207C396.925 61.2216 396.688 60.7342 396.688 60.2812H395.688C395.688 61.1137 396.129 61.85 396.804 62.4617C397.479 63.0734 398.427 63.5999 399.555 64.0297L399.911 63.0953ZM399.733 64.0625H416.267V63.0625H399.733V64.0625Z" fill="black"/>
    <path d="M405.263 38.5025L402.75 58.2715C402.75 59.6986 405.101 60.8555 408 60.8555C410.899 60.8555 413.25 59.6986 413.25 58.2715L410.74 38.4986C410.675 37.8258 410.109 37.3125 409.433 37.3125H406.57C405.893 37.3125 405.327 37.828 405.263 38.5025Z" fill="white" stroke="black" stroke-linecap="round" stroke-linejoin="round"/>
    <path d="M404.062 79.3125V84.5625" stroke="black" stroke-linecap="round" stroke-linejoin="round"/>
    <path d="M400.125 78V83.25" stroke="black" stroke-linecap="round" stroke-linejoin="round"/>
    <path d="M408 79.3125V84.5625" stroke="black" stroke-linecap="round" stroke-linejoin="round"/>
    <path d="M411.938 79.3125V84.5625" stroke="black" stroke-linecap="round" stroke-linejoin="round"/>
    <path d="M415.875 78V83.25" stroke="black" stroke-linecap="round" stroke-linejoin="round"/>
    <ellipse cx="408" cy="37.9688" rx="2.625" ry="1.14844" fill="#FAFAFA" stroke="black" stroke-linecap="round" stroke-linejoin="round"/>
    <path d="M63.8098 149.846C58.6842 144.721 55.5678 139.527 56.8492 138.245C57.9717 137.123 62.0965 139.375 66.5476 143.396L70.2599 147.109C74.2812 151.56 76.5333 155.684 75.4108 156.807C74.1294 158.088 68.9354 154.972 63.8098 149.846Z" fill="#F4F4F4"/>
    <ellipse rx="6.5625" ry="1.64062" transform="matrix(-0.707107 -0.707107 -0.707107 0.707107 75.6424 138.013)" fill="#F4F4F4"/>
    <path d="M7.19694 206.459C6.17181 205.434 6.01258 203.931 6.26886 203.675L12.3014 197.642C12.7654 198.725 14.1575 200.984 16.0137 201.355L9.98117 207.387C9.72489 207.644 8.22206 207.484 7.19694 206.459Z" fill="#FAFAFA"/>
    <path d="M66.1297 147.526C67.1548 148.551 68.1936 149.175 68.4499 148.918L75.8745 141.494L72.1622 137.781L64.7376 145.206C64.4813 145.462 65.1046 146.501 66.1297 147.526Z" fill="#FAFAFA"/>
    <path d="M12.2999 197.641C12.6959 198.621 12.9455 199.215 13.6933 199.963C14.4406 200.71 15.0337 200.959 16.0135 201.355C19.2456 202.66 22.6028 202.19 24.8302 199.963L69.3779 155.415L58.241 144.278L13.6933 188.826C11.4659 191.053 10.9948 194.409 12.2999 197.641Z" fill="#F4F4F4"/>
    <path d="M24.3665 200.426L27.6147 197.178C26.3773 196.56 23.3456 194.765 21.1182 192.538C18.8908 190.31 17.0965 187.279 16.4778 186.041L13.2295 189.29C13.3842 190.372 14.436 193.28 17.4059 196.25C20.3757 199.22 23.2837 200.272 24.3665 200.426Z" fill="#00B3CC"/>
    <path d="M18.3336 186.969C19.0761 188.454 19.8804 189.444 20.1898 189.753C22.9739 186.969 56.8493 153.095 60.5612 149.382C59.8187 148.64 59.1691 147.371 58.705 146.598L18.3336 186.969Z" fill="#FAFAFA"/>
    <path d="M67.9858 153.095L67.0577 148.454L64.2735 145.67L66.5936 143.35L61.0252 139.637C59.169 137.781 55.9208 137.317 57.3129 140.566C59.4421 145.534 65.0468 151.084 67.9858 153.095Z" fill="#FAFAFA"/>
    <path d="M16.9417 185.577C16.1728 186.346 18.0427 189.463 21.118 192.538C24.1934 195.613 27.3098 197.483 28.0786 196.714" stroke="black" stroke-linecap="round" stroke-linejoin="round"/>
    <path d="M24.3661 178.153C23.5973 178.922 25.4671 182.038 28.5425 185.113" stroke="black" stroke-linecap="round" stroke-linejoin="round"/>
    <path d="M29.4706 173.048C28.7018 173.817 30.5716 176.933 33.6469 180.009" stroke="black" stroke-linecap="round" stroke-linejoin="round"/>
    <path d="M34.5751 167.944C33.8062 168.713 35.6761 171.829 38.7514 174.904" stroke="black" stroke-linecap="round" stroke-linejoin="round"/>
    <path d="M39.6796 162.839C38.9107 163.608 40.7806 166.725 43.8559 169.8" stroke="black" stroke-linecap="round" stroke-linejoin="round"/>
    <path d="M44.7841 157.735C44.0152 158.504 45.885 161.62 48.9604 164.696" stroke="black" stroke-linecap="round" stroke-linejoin="round"/>
    <path d="M49.8886 152.631C49.1197 153.399 50.9895 156.516 54.0649 159.591" stroke="black" stroke-linecap="round" stroke-linejoin="round"/>
    <path d="M54.9931 147.526C54.2242 148.295 56.094 151.411 59.1694 154.487" stroke="black" stroke-linecap="round" stroke-linejoin="round"/>
    <path d="M70.2599 147.109C74.2812 151.56 76.5333 155.684 75.4108 156.807C74.1294 158.088 68.9354 154.972 63.8098 149.846C58.6842 144.721 55.5678 139.527 56.8492 138.245C57.9717 137.123 62.0965 139.375 66.5476 143.396" stroke="black" stroke-linecap="round" stroke-linejoin="round"/>
    <ellipse rx="6.5625" ry="1.64062" transform="matrix(-0.707107 -0.707107 -0.707107 0.707107 75.6424 138.013)" stroke="black" stroke-linecap="round" stroke-linejoin="round"/>
    <path d="M16.0137 201.355L9.98117 207.387C9.72489 207.644 8.22206 207.484 7.19694 206.459C6.17181 205.434 6.01258 203.931 6.26886 203.675L12.3014 197.642" stroke="black" stroke-linecap="round" stroke-linejoin="round"/>
    <path d="M75.8745 141.494L68.4499 148.918C68.1936 149.175 67.1548 148.551 66.1297 147.526C65.1046 146.501 64.4813 145.462 64.7376 145.206L72.1622 137.781" stroke="black" stroke-linecap="round" stroke-linejoin="round"/>
    <path d="M13.6933 188.826L13.3397 188.472L13.6933 188.826ZM24.8302 199.963L24.4766 199.609L24.8302 199.963ZM12.2999 197.641L11.8363 197.828L12.2999 197.641ZM13.6933 199.963L13.3398 200.316L13.6933 199.963ZM16.0135 201.355L15.8262 201.818L15.8262 201.818L16.0135 201.355ZM57.8874 143.924C58.0827 143.729 58.3993 143.729 58.5946 143.924C58.7898 144.12 58.7898 144.436 58.5946 144.631L57.8874 143.924ZM69.0244 155.061C69.2196 154.866 69.5362 154.866 69.7315 155.061C69.9267 155.257 69.9267 155.573 69.7315 155.768L69.0244 155.061ZM14.0468 189.179C14.0468 189.179 14.0452 189.181 14.0424 189.185C14.0395 189.189 14.0353 189.196 14.0303 189.207C14.0202 189.23 14.0082 189.266 13.9993 189.32C13.9811 189.431 13.9801 189.592 14.0113 189.805C14.0736 190.233 14.2534 190.8 14.5612 191.462C15.1747 192.781 16.2601 194.398 17.7591 195.897L17.052 196.604C15.4757 195.027 14.3205 193.316 13.6545 191.884C13.3225 191.17 13.1028 190.506 13.0217 189.95C12.9812 189.672 12.9725 189.402 13.0125 189.158C13.0524 188.915 13.1465 188.665 13.3397 188.472L14.0468 189.179ZM17.7591 195.897C19.2582 197.396 20.8745 198.481 22.1937 199.095C22.8555 199.402 23.4229 199.582 23.8504 199.645C24.0642 199.676 24.2245 199.675 24.3356 199.656C24.3898 199.648 24.426 199.636 24.4485 199.625C24.4595 199.621 24.4666 199.616 24.4708 199.613C24.475 199.611 24.4766 199.609 24.4766 199.609L25.1838 200.316C24.9906 200.509 24.7405 200.603 24.4976 200.643C24.2536 200.683 23.9841 200.675 23.7061 200.634C23.1499 200.553 22.4858 200.333 21.772 200.001C20.3399 199.335 18.6283 198.18 17.052 196.604L17.7591 195.897ZM12.7635 197.454C13.1557 198.425 13.3748 198.937 14.0468 199.609L13.3398 200.316C12.5162 199.493 12.236 198.818 11.8363 197.828L12.7635 197.454ZM14.0468 199.609C14.7183 200.28 15.2302 200.499 16.2007 200.891L15.8262 201.818C14.8371 201.419 14.1629 201.139 13.3398 200.316L14.0468 199.609ZM58.5946 144.631L14.0468 189.179L13.3397 188.472L57.8874 143.924L58.5946 144.631ZM69.7315 155.768L25.1838 200.316L24.4766 199.609L69.0244 155.061L69.7315 155.768ZM16.2007 200.891C19.2845 202.136 22.4178 201.668 24.4766 199.609L25.1838 200.316C22.7878 202.712 19.2068 203.183 15.8262 201.818L16.2007 200.891ZM11.8363 197.828C10.4712 194.448 10.9439 190.868 13.3397 188.472L14.0468 189.179C11.9878 191.238 11.5184 194.371 12.7635 197.454L11.8363 197.828Z" fill="black"/>
    <path d="M257.608 122.093C259.432 124.287 262.928 124.836 264.448 124.836C264.752 125.903 264.904 130.139 263.08 138.55C260.8 149.065 248.944 164.607 245.296 169.179C242.378 172.836 233.44 178.627 229.336 181.065C228.576 179.998 226.965 177.682 226.6 176.95C226.144 176.036 218.799 171.401 212.464 163.236C206.08 155.007 200.608 139.007 201.064 132.15C201.493 125.7 203.344 126.207 203.8 123.465C204.256 120.722 196.504 127.122 195.592 128.036C194.68 128.95 178.264 138.55 177.352 138.55C176.44 138.55 164.584 148.15 158.656 151.807C153.914 154.733 152.424 156.684 152.272 157.293C148.168 158.969 138.41 165.339 132.208 177.407C126.007 189.476 124.76 211.998 124.912 221.75C124.912 227.084 123.088 236.836 123.544 239.579C122.176 241.407 123.088 263.35 119.44 270.207C124.12 283.886 124.912 290.779 147.712 290.779C149.2 293.028 150.112 308.571 148.288 318.171C148.288 318.171 231.28 309.943 299.104 318.665C299.62 313.154 299.104 304.493 299.104 304.493C299.476 296.417 299.996 279.625 299.104 277.065C298.213 274.505 298.125 264.722 298.192 260.15C298.952 264.569 300.381 273.59 300.016 274.322C299.651 275.053 301.08 291.388 301.84 299.465C301.232 300.836 300.107 303.762 300.472 304.493C300.928 305.407 309.592 307.236 321.448 305.865C333.304 304.493 337.864 300.379 337.408 299.922C336.952 299.465 337.864 298.55 337.864 296.722C337.864 294.893 341.056 294.436 337.864 291.693C335.311 289.499 335.888 264.874 336.496 252.836C336.8 242.474 337.499 219.007 337.864 208.036C338.32 194.322 330.112 181.065 329.2 179.693C328.471 178.596 321.904 170.093 318.712 165.979C318.864 166.131 318.986 165.613 318.256 162.322C317.344 158.207 306.4 149.979 305.032 149.522C303.664 149.065 278.584 134.893 275.848 133.522C273.659 132.425 271.592 129.103 270.832 127.579C270.832 127.884 270.741 127.762 270.376 124.836C270.011 121.91 263.84 119.96 260.8 119.35C258.976 119.35 255.784 119.899 257.608 122.093Z" fill="#F2F2F2"/>
    <path d="M300.928 215.808C297.645 222.025 297.736 208.95 298.192 201.636C295.152 222.36 290.258 259.419 296.824 243.693C303.391 227.968 309.288 199.96 311.416 187.922C309.288 194.627 304.212 209.59 300.928 215.808Z" fill="#999999"/>
    <path d="M286.336 275.236C283.783 279.259 280.408 261.979 279.04 252.836C277.216 258.322 282.232 297.636 288.16 307.693C294.088 317.75 298.192 309.065 298.648 310.436C299.104 311.808 298.192 300.379 298.648 298.55C299.104 296.722 300.016 282.093 298.648 275.693C297.554 270.573 297.888 262.893 298.192 259.693L296.824 247.35L295 257.865C293.176 261.979 288.89 271.213 286.336 275.236Z" fill="#999999"/>
    <path d="M314.608 295.808C315.703 296.173 324.184 293.217 328.288 291.693C314.152 293.065 307.768 291.693 306.856 291.693C305.944 291.693 308.224 272.036 310.504 269.293C312.328 267.099 305.944 245.979 300.016 245.979C301.688 252.227 303.664 263.808 303.664 266.55V296.722C303.664 297.819 305.184 298.398 305.944 298.55C308.376 297.484 313.514 295.442 314.608 295.808Z" fill="#999999"/>
    <path d="M312.784 301.293C309.136 302.025 304.272 300.988 302.296 300.379C302.6 301.141 303.938 302.848 306.856 303.579C310.504 304.493 318.256 302.665 320.536 302.208C322.36 301.842 324.944 298.703 326.008 297.179C323.12 298.246 316.432 300.562 312.784 301.293Z" fill="#999999"/>
    <path d="M168.352 279.771C171.544 278.4 172.456 276.571 175.648 274.286C176.56 273.524 179.296 270.72 182.944 265.6C187.504 259.2 189.784 246.4 190.696 239.543C191.608 232.686 197.08 212.571 198.448 206.629C199.542 201.874 206.2 187.276 209.392 180.571C211.064 179.657 214.59 177.737 215.32 177.371C216.05 177.006 218.968 173.562 220.336 171.886C221.552 172.19 223.802 172.983 223.072 173.714C222.342 174.446 226.112 184.71 228.088 189.75C224.896 186.995 218.33 181.303 217.6 180.571C216.688 179.657 213.04 184.686 211.216 185.6C209.392 186.514 200.608 211.2 199.36 213.486C198.112 215.771 194.8 234.971 194.344 239.543C193.754 245.456 191.608 256.457 189.328 261.486C187.048 266.514 179.752 276.695 178.384 276.495C184.977 278.54 195.741 264.414 200.608 255.579C196.2 268.988 185.771 296.868 177.016 301.257C171.604 299.087 165.621 292.337 166.295 285.311C166.028 285.999 165.785 286.505 165.616 286.628C164.987 287.086 162.424 291.2 158.776 293.943C155.858 296.137 149.96 293.028 147.376 291.2H151.936C154.216 290.133 158.958 288 159.688 288C160.418 288 162.728 284.648 163.792 282.971L167.781 280.686C167.955 280.379 168.145 280.075 168.352 279.771Z" fill="#999999"/>
    <path d="M153.184 186.093C154.096 200.112 155.493 215.954 155.128 225.828L150.568 233.6C147.832 221.714 150.296 200.569 153.184 186.093Z" fill="#999999"/>
    <path d="M265.36 150.436C255.51 172.379 237.848 185.788 230.248 189.75C257.608 195.236 271.744 151.979 279.496 149.065C287.248 146.15 314.728 158.629 314.272 155.886C313.816 153.143 304.576 148.15 298.192 145.865C294.544 144.036 278.128 136.722 270.376 128.036C271.288 132.15 270.376 136.265 265.36 150.436Z" fill="#999999"/>
    <path d="M328.288 171.429C335.949 181.669 337.864 207.274 337.408 213.979C337.408 209.408 331.48 196.608 325.096 189.75C318.712 182.893 308.68 206.208 308.68 204.379C308.68 202.55 311.39 187.648 312.328 186.55C314.272 181.029 316.552 165.943 316.552 157.257C316.856 158.019 320.627 161.189 328.288 171.429Z" fill="#999999"/>
    <path d="M143.271 239.543C133.786 247.588 128.983 264.533 127.767 272C123.755 254.446 138.255 239.086 146.007 233.6C147.299 232.686 148.744 232.229 149.655 233.6C143.271 242.286 139.623 254.171 138.711 252.836C137.799 251.501 138.711 244.492 143.271 239.543Z" fill="#999999"/>
    <path d="M148.744 288C150.933 288.366 159.384 284.8 163.336 282.971C161.968 287.086 152.949 288.801 151.936 288.914C147.832 289.371 145.552 288.914 143.272 288.457L143.271 288.457C140.588 287.919 138.208 283.74 137.8 282.514C137.344 281.143 136.888 276.114 137.344 272.914C137.709 270.354 138.408 270.324 138.711 270.628C138.864 272.305 139.35 276.48 140.08 279.771C140.992 283.886 146.007 287.543 148.744 288Z" fill="#999999"/>
    <path d="M201.064 54.8931C200.304 54.8931 199.969 53.5217 204.712 48.036C205.624 43.0075 205.624 38.436 205.624 37.9789C205.624 37.5217 207.448 30.2074 216.568 27.9217C225.688 25.636 236.632 24.2646 250.768 29.7503C262.168 34.7789 257.272 46.6286 258.64 50.2857C260.008 53.9429 260.8 56.7217 261.256 57.1789C261.621 57.5446 262.016 59.1598 262.168 59.9217C263.688 59.3122 266.819 58.0017 267.184 57.636C267.64 57.1789 270.832 55.3503 271.744 59.0075C272.656 62.6646 273.568 72.2646 269.008 78.6646C265.36 83.236 264.448 82.3217 263.08 81.8646C262.624 83.236 262.624 91.9218 262.168 92.836C261.803 93.5675 260.192 98.017 259.432 100.15C258.368 106.855 257.272 120.229 257.608 121.636C258.058 123.522 261.256 123.922 263.992 124.836C264.904 127.122 263.08 137.941 261.256 144.036C258.184 149.486 249.856 156.927 240.736 159.122C238.443 159.674 236.241 160.07 234.14 160.313C234.25 161.508 232.99 164.283 232.693 164.571C231.28 165.943 227.13 166.423 226.264 166.857C225.352 167.314 223.984 166.857 223.573 165.943C223.308 165.353 224.485 164.114 225.397 162.743C226.127 161.646 228.133 161.371 229.045 161.371V160.599C226.264 160.914 224.896 160.914 223.117 160L221.704 164.114C222.616 166.4 220.928 169.051 219.469 172.343C218.01 175.634 212.477 178.59 209.893 179.657C209.893 180.267 208.708 183.406 203.965 191.086C198.037 200.686 192.109 232.229 190.285 242.743C188.461 253.257 186.136 264.686 173.368 276.114C163.153 285.257 152.24 288 148.288 288C147.68 288.305 145.962 286.903 143.774 282.514C141.038 277.029 143.318 251.886 143.774 249.143C144.23 246.4 151.982 231.771 152.438 229.943C152.894 228.114 174.782 198.857 175.694 197.029C176.423 195.566 189.07 179.352 195.302 171.429L197.582 162.743C198.646 160.305 200.774 155.246 200.774 154.514C200.774 153.783 203.049 147.81 204.186 144.914C202.691 142.633 201.69 140.432 201.52 138.55C201.064 133.522 198.784 129.407 203.344 124.836C207.904 120.265 205.168 103.807 204.712 102.893C204.256 101.979 198.784 96.4932 199.696 86.8932C199.696 81.4075 199.848 78.2075 199.24 78.6646C198.48 78.0551 196.777 76.3789 196.048 74.5503C195.136 72.2646 193.101 65.9054 193.768 58.5503C194.224 53.5217 196.504 53.5217 198.328 55.3503C200.547 57.5749 201.216 55.8074 201.064 54.8931Z" fill="#A47750"/>
    <path d="M296.368 318.665C297.097 317.933 299.712 309.522 300.928 305.407C309.592 307.236 324.64 306.322 334.672 303.122C333.942 307.145 327.68 316.074 324.64 320.036C314.912 319.884 303.784 323.2 296.368 318.665Z" fill="#A47750"/>
    <path d="M243.016 59.0076C238.912 59.9218 236.328 62.3599 235.264 64.0361C235.264 64.7676 238.912 64.6456 240.736 64.4933C242.712 63.8837 245.752 62.6647 247.12 62.6647C247.765 62.6647 253.048 64.4933 253.048 65.4076C253.048 66.779 250.768 67.6933 247.576 68.6076C244.384 68.6076 239.824 67.6933 237.544 66.779C238.152 67.3885 239.277 68.8818 238.912 69.979C238.456 71.3504 247.12 71.8076 244.84 73.179C243.016 74.2761 238.304 72.7218 236.176 71.8076C236.632 73.6361 235.355 73.0876 243.016 78.2076C250.677 83.3276 257.152 82.1695 259.432 80.9504L263.536 74.0933C262.776 73.179 261.256 71.0761 261.256 69.979C261.256 68.8818 262.168 67.3885 262.624 66.779L261.256 60.379C260.648 59.9218 260.344 59.0076 259.432 57.6361C259.432 56.2647 257.608 52.6076 256.696 51.2362C255.784 49.8647 257.152 41.6362 256.24 37.0647C255.328 32.4933 247.576 29.7504 248.488 30.6647C249.4 31.579 248.944 46.2076 248.488 49.4076C248.123 51.9676 249.856 54.7409 250.768 55.8076L255.328 57.6361H251.68C249.4 57.6361 247.12 58.0933 243.016 59.0076Z" fill="#8D5524"/>
    <path d="M271.288 66.3219C270.832 67.6933 269.008 69.0647 268.096 69.979C268.552 73.179 266.12 74.7028 264.904 75.4647C265.36 74.8552 265.907 73.5447 264.448 73.179C262.989 72.8132 264.144 72.1123 264.904 71.8076C264.752 71.198 264.357 69.8876 263.992 69.5219C263.536 69.0648 263.08 64.9505 267.184 60.8362C271.288 56.7219 271.744 64.9505 271.288 66.3219Z" fill="#8D5524"/>
    <path d="M253.048 88.2647C253.778 87.5333 256.848 85.979 258.064 85.0647C258.064 85.0647 259.774 84.3789 260.344 85.0647C262.624 87.8076 260.162 93.9333 259.432 96.4933C258.52 99.6933 251.224 107.008 247.576 109.75C244.213 112.279 243.235 115.358 241.192 117.065L241.086 117.153C238.431 119.372 237.455 120.188 230.704 120.265C228.665 120.288 228.88 119.35 228.88 117.979C228.88 116.608 228.88 114.779 231.16 114.779C232.984 114.779 234.808 117.979 236.632 117.522C238 116.15 238.912 112.95 238.912 110.208C238.912 107.465 232.984 106.55 229.792 107.008C226.6 107.465 222.04 103.35 224.32 103.808C226.6 104.265 230.704 103.808 231.16 103.35C231.616 102.893 237.544 107.008 238.912 101.979C240.007 97.9562 243.928 95.7314 245.752 95.1219H249.856C250.768 93.2933 252.318 88.9962 253.048 88.2647Z" fill="#8D5524"/>
    <path d="M220.216 85.0647C219.122 84.3333 220.672 83.2362 221.584 82.779L224.32 83.6933C224.472 84.1505 225.688 85.0647 227.056 85.979C228.691 87.0715 231.464 86.2838 232.528 85.979L235.72 83.2362C235.872 82.6267 235.629 81.8647 233.44 83.6933C230.704 85.979 229.792 85.0647 227.968 84.6076C225.233 83.9222 224.828 82.0043 224.815 80.9487C224.738 80.8123 224.72 80.6606 224.776 80.4933C224.952 79.9655 224.806 80.2883 224.815 80.9487C225.238 81.7071 227.463 81.9939 228.88 81.8647L229.792 79.1219V65.4076C230.096 65.2552 231.069 65.0419 232.528 65.4076C233.987 65.7733 234.352 70.7409 234.352 73.179C234.2 74.8552 233.987 78.3904 234.352 79.1219C234.808 80.0362 236.632 78.2076 237.544 78.2076C238.456 78.2075 238.912 79.1219 240.28 80.4933C241.648 81.8647 242.56 83.6933 243.016 85.0647C243.472 86.4358 242.105 87.8068 240.737 89.1779L240.736 89.179C239.368 90.5505 237.544 87.8076 235.264 87.3505C232.984 86.8933 232.528 87.8076 231.616 87.8076C230.704 87.8076 232.528 88.2647 231.16 90.5505C230.066 92.379 228.88 91.3124 228.424 90.5505C228.576 89.6362 228.789 87.8076 228.424 87.8076C227.968 87.8076 225.232 87.3505 223.408 87.8076C221.584 88.2647 221.584 85.979 220.216 85.0647Z" fill="#8D5524"/>
    <path d="M217.024 61.7505C216.573 61.1477 215.587 59.949 215.213 59.9223C215.18 59.9219 215.175 59.9219 215.2 59.9219C215.204 59.9219 215.208 59.922 215.213 59.9223C215.769 59.9301 224.395 60.0722 225.688 62.6647C227.056 65.4076 224.32 73.179 223.408 73.179C222.496 73.179 221.584 71.3505 222.04 70.8933C222.496 70.4362 212.464 74.0932 210.184 71.8076C207.904 69.5219 216.113 70.4362 216.568 69.979C217.024 69.5219 214.288 69.0646 215.2 68.6076C215.93 68.2419 216.72 63.8838 217.024 61.7505Z" fill="#8D5524"/>
    <path d="M213.832 53.5219C213.467 53.1562 210.032 55.1981 208.36 56.2647C201.064 59.4648 202.432 57.6361 201.976 55.3504C201.611 53.5217 204.864 49.7122 206.536 48.0361C206.688 45.9028 207.083 40.7219 207.448 37.0647C207.904 32.4933 216.568 28.8362 213.832 30.6647C211.096 32.4932 214.288 53.979 213.832 53.5219Z" fill="#8D5524"/>
    <path d="M203.8 88.7218C202.706 86.8932 203.648 85.5219 204.256 85.0647C204.831 84.3333 206.624 85.3695 207.448 85.979C207.752 87.9599 208.36 92.2875 208.36 93.7504C208.36 95.5789 210.184 100.608 209.728 101.522C209.272 102.436 208.816 101.522 207.448 101.979C206.08 102.436 205.168 91.0075 203.8 88.7218Z" fill="#8D5524"/>
    <path d="M219.76 125.75C217.572 124.653 209.272 114.779 207.448 107.008C209.272 107.922 212.616 110.512 213.832 112.493C215.504 114.322 218.575 118.162 219.304 118.893C219.784 119.374 222.277 120.109 225 120.697C226.761 120.504 229.491 120.83 231.736 121.15C231.74 121.151 231.744 121.151 231.749 121.152C232.373 121.241 232.958 121.329 233.475 121.405C236.965 120.675 241.952 118.437 242.56 117.979C244.384 116.608 246.664 112.95 247.12 112.036C247.576 111.122 254.872 104.722 255.784 103.808C256.696 102.893 259.432 98.5195 259.432 100.608C259.432 102.893 258.368 112.713 257.152 117.979C257.304 117.065 257.061 114.962 254.872 113.865C252.136 112.493 249.856 129.865 247.576 132.15C245.296 134.436 257.152 140.379 253.96 139.465C251.038 138.628 241.239 143.537 240.301 144.023C240.294 144.028 240.287 144.033 240.28 144.036C240.203 144.075 240.214 144.068 240.301 144.023C241.162 143.338 244.224 126.071 244.76 123.704C244.042 125.002 238.671 128.843 235.384 121.636C235.071 121.636 234.379 121.539 233.475 121.405C233.428 121.415 233.382 121.425 233.336 121.434C234.172 121.614 234.928 121.841 234.928 122.057C234.928 122.511 231.28 122.514 230.368 122.514C229.638 122.514 226.032 121.378 224.32 120.81C223.991 120.889 223.721 120.998 223.528 121.143C221.703 122.514 220.336 122.971 219.76 125.75Z" fill="#8D5524"/>
    <path d="M197.872 59.9219C195.319 55.5333 195.288 59.6171 195.592 62.2076C194.68 64.4932 195.592 68.1504 196.504 69.5218C197.416 70.8932 196.96 68.6076 196.96 68.1504V66.779C197.264 65.8647 197.872 63.9447 197.872 63.5789C197.872 63.1217 200 63.5789 197.872 59.9219Z" fill="#8D5524"/>
    <path d="M234.11 130.573C234.222 130.819 234.306 131.044 234.352 131.236C233.896 133.065 232.528 135.35 231.16 134.893C229.792 134.436 228.88 132.15 229.792 132.15C230.704 132.15 231.616 130.779 231.616 129.865C231.616 129.185 231.485 127.5 231.223 126.776C229.963 127.765 226.894 128.302 225.352 128.457C224.896 128.012 224.166 127.48 224.896 128.914C225.808 130.707 221.248 136.722 220.792 137.6C220.427 138.302 218.968 137.893 217.6 137.6C216.536 137.448 216.688 136.686 217.144 135.771C219.424 134.857 221.704 126.171 222.16 125.75C222.525 125.414 223.528 123.91 223.984 124.343C225.656 124.05 229.456 123.457 231.28 123.428C233.56 123.392 233.56 124.343 234.016 124.343C234.38 124.343 235.992 128.938 236.752 131.236C236.448 131.224 235.657 131.207 234.928 131.236C234.683 131.246 234.405 130.984 234.11 130.573Z" fill="#8D5524"/>
    <path d="M211.216 138.057C209.848 136.228 206.2 135.771 205.624 136.722C206.08 138.55 208.935 139.886 209.392 139.886C209.848 139.886 210.304 138.514 211.216 138.057Z" fill="#8D5524"/>
    <path d="M247.576 142.665C240.662 145.865 240.28 147.693 239.824 147.693C243.472 147.693 250.312 143.579 250.768 143.122C251.224 142.665 254.872 140.836 254.872 140.379C254.872 139.922 254.49 139.465 247.576 142.665Z" fill="#8D5524"/>
    <path d="M205.652 120.333C205.643 120.31 205.633 120.287 205.624 120.265C205.635 120.287 205.644 120.309 205.652 120.333C206.417 122.189 207.713 126.038 206.992 127.122L206.992 127.122C206.08 128.493 204.256 131.236 203.8 131.236C203.344 131.236 201.52 136.228 205.624 142.171C206.656 143.086 204.832 144 204.376 144C203.92 144 203.464 143.543 202.552 141.714C201.64 137.6 199.696 129.865 202.432 125.75C203.829 123.65 205.975 121.294 205.652 120.333Z" fill="#8D5524"/>
    <path d="M313.36 320C315.548 318.903 319.168 309.979 320.536 306.322C324.64 305.408 325.096 305.408 332.848 304.036C332.119 306.962 326.584 315.581 323.848 319.543C320.775 319.049 316.552 319.543 313.36 320Z" fill="#8D5524"/>
    <path d="M209.316 177.446C212.353 172.686 217.144 164.617 217.144 162.286C217.144 159.726 218.664 156.952 219.88 156.343L222.616 154.514C225.12 154.819 230.335 155.611 231.16 156.343C231.985 157.074 231.808 160.609 231.616 162.286C229.832 163.505 225.99 165.851 224.896 165.486C223.528 165.028 227.968 162.286 228.88 162.286C229.61 162.286 229.456 159.39 229.456 157.714L223.528 158.628L220.792 162.743C220.944 164.724 220.609 169.508 218.056 172.8C215.665 175.881 211.224 177.867 208.92 178.608C208.777 178.979 208.623 179.341 208.48 179.657L208.936 181.028C206.808 184.076 201.731 192.366 198.448 201.143C194.344 212.114 188.872 235.886 188.872 239.543C188.872 243.2 186.592 256.914 182.488 263.314C178.384 269.714 167.44 282.971 151.48 285.714C149.656 285.714 149.656 284.8 149.656 282.515V282.514C151.176 280.229 154.307 275.017 154.672 272.457C155.128 269.257 165.16 235.428 171.544 223.543C177.928 211.657 188.872 186.514 201.64 176.457C202.096 176.457 206.2 178.286 208.48 176.457C209.594 175.563 209.63 176.331 209.316 177.446Z" fill="#8D5524"/>
    <path d="M220.336 149.028C219.971 149.394 222.616 150.4 223.984 150.857H224.896V149.486L230.368 149.028L232.192 148.114L233.104 149.943L231.736 153.6C232.344 153.752 233.651 154.057 234.016 154.057C234.472 154.057 235.84 149.486 236.296 149.028C236.66 148.663 234.016 146.133 232.648 144.914C230.368 145.067 225.534 145.554 224.44 146.286C223.072 147.2 220.792 148.571 220.336 149.028Z" fill="#8D5524"/>
    <path d="M215.776 146.743C216.14 147.108 217.144 147.809 217.6 148.114C218.056 148.114 218.512 149.943 218.056 150.4C217.6 150.857 216.232 151.314 215.776 150.857C215.32 150.4 214.408 149.943 214.408 149.486C214.408 149.028 208.936 147.2 208.024 146.743C207.112 146.286 207.568 144.457 208.024 144C208.48 143.543 209.848 143.086 210.76 143.086C211.489 143.086 212.888 144 213.496 144.457L215.776 146.743Z" fill="#8D5524"/>
    <path d="M221.704 143.086C220.792 143.086 219.424 142.628 219.424 142.171C218.694 141.44 219.424 140.038 219.88 139.428L227.632 137.6C229.304 137.307 232.83 136.715 233.56 136.686C234.472 136.649 234.928 137.6 235.384 138.971C235.748 140.068 234.848 141.4 234.352 141.929L233.56 141.257H231.736C229.912 141.726 226.172 142.665 225.808 142.665C225.352 142.665 222.616 143.086 221.704 143.086Z" fill="#8D5524"/>
    <path d="M144.184 276.114C143.819 277.943 147.072 281.143 148.744 282.514C149.838 275.2 152.24 272.762 153.304 272.457V261.486C150.416 265.6 144.548 274.286 144.184 276.114Z" fill="#8D5524"/>
    <path d="M246.665 62.6645C242.105 62.2074 239.369 66.3216 238.913 66.3216C239.369 66.3216 242.561 68.6074 246.665 68.6074C249.948 68.6074 252.289 66.4741 253.049 65.4074C252.441 64.6455 250.313 63.0302 246.665 62.6645Z" fill="white"/>
    <path d="M217.481 61.7502C219.305 61.7502 222.801 64.7978 224.321 66.3216C222.953 67.0836 219.487 68.516 216.569 68.1502C213.65 67.7845 210.793 65.255 209.729 64.036C211.553 63.2741 215.657 61.7502 217.481 61.7502Z" fill="white"/>
    <path d="M229.337 92.8359C225.689 91.4645 219.153 92.8359 214.745 94.2074C216.569 95.1218 222.953 96.9503 222.953 96.9503C222.953 96.9503 225.537 97.7122 227.057 97.4075C227.513 97.8646 231.617 98.3218 231.617 98.3218C231.617 98.3218 234.924 97.4075 235.721 97.4075C240.281 97.4075 245.753 94.6645 245.753 94.6645C245.753 94.6645 236.633 93.2931 234.353 92.3788C232.073 91.4645 231.097 93.4977 229.337 92.8359Z" fill="#8D5524"/>
    <path d="M214.745 63.5788C214.745 62.2073 216.569 61.2931 217.481 62.2074C219.305 62.2074 219.746 63.4264 220.217 64.0359C220.065 64.9502 219.305 66.7788 217.481 66.7788C215.2 66.7788 214.745 65.4636 214.745 63.5788Z" fill="#E0AC69"/>
    <path d="M249.401 63.1217C249.036 61.6588 245.601 62.5122 243.929 63.1217C243.625 63.8836 243.199 65.6816 243.929 66.7788C244.841 68.1502 247.121 67.693 248.033 67.693C248.945 67.693 249.857 64.9503 249.401 63.1217Z" fill="#E0AC69"/>
    <path d="M257.153 59.0074C256.937 58.8452 256.68 58.6701 256.389 58.4876C254.628 57.636 251.413 57.636 249.857 57.636C247.977 57.636 242.561 59.4646 240.737 59.9217C238.913 60.3789 235.352 59.3767 237.089 57.636C239.369 55.3503 243.473 55.3503 246.209 55.3503H246.209C250.082 55.3503 254.215 57.1271 256.389 58.4876C256.692 58.6342 256.952 58.806 257.153 59.0074Z" fill="#333333"/>
    <path d="M216.569 54.436C211.209 53.6093 207.753 55.8074 206.537 57.636L218.393 59.0074L226.145 60.3789C226.297 60.2265 226.509 59.7389 226.145 59.0074C225.689 58.0932 222.497 55.3504 216.569 54.436Z" fill="#333333"/>
    <path d="M265.361 57.636C264.996 57.2703 263.081 58.7027 262.169 59.4646C260.953 56.8741 258.429 51.6931 258.065 51.6931C257.609 51.6931 258.977 47.1217 258.065 38.436C257.153 29.7503 249.857 29.7503 246.209 27.9217C242.561 26.0931 229.793 24.7217 219.305 27.0074C208.817 29.2931 206.537 35.6931 205.625 37.5217C204.713 39.3503 207.905 45.2931 203.801 49.8646C200.517 53.5217 200.609 54.7408 201.065 54.8931L199.697 54.436C199.393 52.7598 198.785 49.316 198.785 48.9503C198.785 48.4931 199.241 43.9218 199.697 43.0075C200.153 42.0933 200.153 32.9504 201.521 27.0074C201.977 21.9789 207.905 18.3217 208.361 17.8646C208.817 17.4074 217.025 12.8361 217.481 12.8361C217.937 12.8361 223.865 6.43605 237.545 8.72176C251.225 11.0075 258.977 21.5217 260.801 23.3503C266.729 27.9217 267.641 39.8075 268.097 41.1789C268.553 42.5503 266.729 52.1503 266.729 54.436C266.729 56.7217 265.817 58.0932 265.361 57.636Z" fill="#333333"/>
    <path fill-rule="evenodd" clip-rule="evenodd" d="M200.151 54.8932C199.421 54.5275 199.239 55.9598 199.239 56.7217L201.975 60.836C201.823 61.5979 201.61 63.5789 201.975 65.4075C202.431 67.6932 204.711 72.7217 207.447 74.0932C210.183 75.4646 220.215 75.4646 222.951 74.0932C225.14 72.996 225.991 70.2836 226.143 69.0646C226.295 67.5408 227.416 63.7836 230.247 64.4932C233.323 65.2641 233.481 66.3602 234.002 69.9741C234.098 70.6459 234.208 71.4047 234.351 72.2646C235.111 76.836 241.647 77.7503 246.663 78.2075C251.679 78.6646 254.871 78.2075 257.607 74.5503C259.796 71.6246 260.343 67.236 260.343 65.4075L263.535 62.2075C264.143 61.4456 265.45 59.8303 265.815 59.4646C266.18 59.0989 265.359 58.0932 264.903 57.636C264.151 58.6412 263.261 59.232 262.309 59.8639C261.529 60.3816 260.708 60.9269 259.887 61.7503C254.869 59.6543 241.798 60.2492 239.312 60.3624C239.087 60.3726 238.949 60.3789 238.911 60.3789C238.683 60.3789 235.719 60.4932 232.755 60.6075L232.754 60.6075C229.79 60.7218 226.827 60.836 226.599 60.836C226.143 60.836 217.935 59.0075 217.023 58.5503C216.293 58.1846 210.335 58.0932 207.447 58.0932C206.079 57.9408 203.252 57.636 202.887 57.636C202.668 57.636 202.241 57.1115 201.754 56.5147C201.225 55.8657 200.626 55.1313 200.151 54.8932ZM257.07 63.8538C251.819 60.3441 239.963 60.0375 235.107 63.6171C233.907 66.1236 234.714 71.4474 236.656 73.6724C238.683 75.9958 241.766 76.1466 245.231 76.3161C245.754 76.3417 246.286 76.3677 246.824 76.4017C247.378 76.4366 247.941 76.4918 248.498 76.5462C250.666 76.7582 252.734 76.9605 253.764 75.9282C256.202 73.4842 259.36 67.2963 257.07 63.8538ZM226.179 64.5927C225.756 66.9291 225.309 69.3992 224.097 71.4562C222.946 73.4091 219.556 74.0932 217.479 74.0932C214.589 74.0932 210.648 73.6948 207.828 72.9096C204.938 72.1049 203.14 62.0377 205.622 60.3789C209.463 59.6858 227.183 59.0595 226.222 64.3537C226.208 64.4332 226.194 64.5129 226.179 64.5927Z" fill="black"/>
    <path d="M220.382 170.971C220.838 168.228 222.662 165.943 221.75 163.657C222.977 162.673 222.912 160.882 223.574 160.457C224.143 160.092 223.921 160.492 228.134 160.914C228.726 160.791 229.046 161.371 229.046 161.371C224.942 161.371 222.867 166.191 223.574 166.857C224.465 167.695 231.737 165.486 233.105 164.571L233.652 162.4C233.837 161.319 234.023 160.229 234.212 160.182C239.945 160.457 256.992 153.052 260.801 144.95C257.609 158.665 236.633 177.865 229.337 181.065C227.057 175.579 227.222 176 220.382 170.971Z" fill="white"/>
    <path d="M258.521 123.007C258.977 123.007 263.081 121.636 263.537 124.379C262.169 123.922 260.801 123.922 258.521 123.007Z" fill="white"/>
    <path d="M238.357 66.5662C239.963 65.7613 240.938 64.4147 242.541 63.6111C244.616 62.5711 247.647 62.3737 249.863 63.0498C251.223 63.4648 252.682 64.7111 253.761 65.6129" stroke="black" stroke-linecap="round" stroke-linejoin="round"/>
    <path d="M244.272 63.1297C243.925 64.0852 243.674 65.4953 244.127 66.4576C244.266 66.7524 244.297 66.9261 244.596 67.1087C244.819 67.2443 245.069 67.338 245.282 67.4865C245.657 67.7472 246.466 67.8422 246.926 67.8322C248.164 67.8052 249.19 66.8135 249.612 65.7181C249.979 64.7663 249.963 63.4956 249.179 62.8403" stroke="black" stroke-linecap="round" stroke-linejoin="round"/>
    <path d="M246.726 65.0107C246.176 65.616 247.239 65.0853 246.581 64.866" stroke="black" stroke-linecap="round" stroke-linejoin="round"/>
    <path d="M210.004 63.9411C212.375 62.7529 214.628 61.1568 217.443 61.784C220.242 62.4075 222.006 64.6626 224.292 66.1903" stroke="black" stroke-linecap="round" stroke-linejoin="round"/>
    <path d="M216.027 61.8103C215.233 62.6295 214.956 63.6576 215.226 64.7697C215.5 65.8996 216.281 66.5294 217.326 66.7558C218.399 66.9885 219.433 66.6502 220.068 65.6904C220.534 64.9853 220.626 64.3579 220.384 63.5477" stroke="black" stroke-linecap="round" stroke-linejoin="round"/>
    <path d="M217.917 63.9411C217.307 64.8271 218.559 64.1438 217.917 63.8228" stroke="black" stroke-linecap="round" stroke-linejoin="round"/>
    <path d="M205.336 57.6047C210.424 58.4208 215.335 58.1796 220.514 59.0612C222.832 59.4559 224.023 60.1566 226.312 60.6527C229.293 61.2988 232.39 60.7351 235.432 60.6527C237.554 60.5952 242.371 59.79 246.832 59.8905C252.231 60.012 255.295 60.4146 260.543 61.6918" stroke="black" stroke-linecap="round" stroke-linejoin="round"/>
    <path d="M202.329 58.7324C202.132 60.1662 202.305 61.708 201.916 63.1123C201.587 64.2988 204.528 71.9333 205.518 72.7271C208.838 75.3898 215.346 75.1793 219.333 75.0683C221.012 75.0215 223.407 74.404 224.64 73.1677C226.592 71.2109 226.207 66.7111 228.071 65.2694C229.357 64.2746 232.103 64.3479 233.089 65.7166C234.92 68.2573 233.883 72.7139 235.995 74.8315C237.169 76.0086 239.734 77.3799 241.407 77.5476C244.728 77.8805 247.971 78.4821 251.326 78.2578C258.938 78.2578 260.425 67.628 260.425 61.8102" stroke="black" stroke-linecap="round" stroke-linejoin="round"/>
    <path d="M257.237 63.8227C251.986 60.313 240.13 60.0065 235.274 63.586C234.074 66.0925 234.88 71.4163 236.822 73.6414C239.156 76.3154 242.888 76.1116 246.99 76.3706C249.702 76.5417 252.637 77.1946 253.931 75.8971C256.369 73.4531 259.526 67.2652 257.237 63.8227Z" stroke="black" stroke-linecap="round" stroke-linejoin="round"/>
    <path d="M224.266 71.4251C225.52 69.2978 225.955 66.7287 226.392 64.3226C227.352 59.0284 209.632 59.6548 205.792 60.3478C203.31 62.0066 205.108 72.0738 207.997 72.8785C210.817 73.6637 214.758 74.0621 217.648 74.0621C219.725 74.0621 223.115 73.3781 224.266 71.4251Z" stroke="black" stroke-linecap="round" stroke-linejoin="round"/>
    <path d="M201.975 61.5735C201.613 60.8609 201.22 60.1613 200.821 59.469C200.505 58.9207 200.362 58.2936 199.968 57.7855C199.731 57.4802 199.272 56.6291 199.272 56.2532C199.272 55.7648 199.671 55.0631 199.824 54.5893C200.037 53.9278 202.034 56.2438 202.27 56.6083C202.96 57.6724 204.1 57.8362 205.281 57.6671" stroke="black" stroke-linecap="round" stroke-linejoin="round"/>
    <path d="M260.424 61.5736C261.903 60.4396 263.165 59.0234 264.675 57.9303C265.669 57.2104 265.607 58.6961 265.607 59.4428C265.607 60.769 261.158 64.2727 260.424 65.3764" stroke="black" stroke-linecap="round" stroke-linejoin="round"/>
    <path d="M244.93 58.7063C242.972 59.0989 241.335 60.2715 239.282 60.2715C236.575 60.2715 236.579 57.2151 238.934 56.3651C241.913 55.0778 245.354 54.7187 248.551 55.2734C251.639 55.8092 255.071 56.6801 257.355 58.9693C255.573 58.0762 253.168 57.4304 251.155 57.4304C249.06 57.4304 246.973 58.2967 244.93 58.7063Z" stroke="black" stroke-linecap="round" stroke-linejoin="round"/>
    <path d="M206.344 57.3122C208.067 56.3168 210.282 54.4132 212.221 53.9714C216.024 53.105 223.739 55.7491 226.175 58.4959C226.752 59.1475 227.271 60.3478 226.175 60.3478" stroke="black" stroke-linecap="round" stroke-linejoin="round"/>
    <path d="M208.528 57.7854C210.591 57.7441 213.794 58.2285 215.824 58.5191" stroke="black" stroke-linecap="round" stroke-linejoin="round"/>
    <path d="M221.694 83.7099C221.556 82.8396 221.448 81.0074 222.875 81.8817C225.22 83.3183 226.68 86.4049 229.96 86.4049C233.152 86.4049 235.132 83.7126 237.045 82.4341C237.399 82.1972 238.24 82.3171 237.865 82.8813C237.549 83.3568 237.241 83.5982 236.691 83.7362C236.452 83.7961 235.415 84.061 235.982 83.6507C236.47 83.2977 236.995 83.0622 237.517 82.7629" stroke="black" stroke-linecap="round" stroke-linejoin="round"/>
    <path d="M221.694 83.5916C222.299 83.7977 223.052 84.1834 223.702 84.1834C224.225 84.1834 224.739 84.1356 225.237 84.3018" stroke="black" stroke-linecap="round" stroke-linejoin="round"/>
    <path d="M222.403 82.2892C223.184 82.5553 223.83 82.9797 224.528 83.4072C224.901 83.6358 221.753 83.3767 221.714 83.1047C221.67 82.7948 222.554 81.7344 222.403 82.6443" stroke="black" stroke-linecap="round" stroke-linejoin="round"/>
    <path d="M226.063 73.0559C226.225 74.4202 225.861 75.6518 224.882 76.6072C223.815 77.6495 222.101 78.0968 220.986 79.685C220.204 80.7985 219.331 81.6891 219.595 82.8812C219.833 83.9558 220.838 84.8935 221.93 84.8935" stroke="black" stroke-linecap="round" stroke-linejoin="round"/>
    <path d="M235.392 85.4855C236.742 85.5125 238.808 86.132 239.852 84.7752C240.974 83.318 240.707 81.1088 239.761 79.6851" stroke="black" stroke-linecap="round" stroke-linejoin="round"/>
    <path d="M214.444 93.936C218.145 93.936 221.923 91.9172 225.934 91.9172C227.358 91.9172 228.646 92.4185 229.962 92.8673C231.175 92.4539 232.323 91.8085 233.634 92.1284C237.592 93.0935 241.822 94.7673 245.954 94.7673" stroke="black" stroke-linecap="round" stroke-linejoin="round"/>
    <path d="M214.444 94.0547C215.921 94.3161 217.264 95.1122 218.59 95.7766C221.012 96.9906 223.914 96.7848 226.526 97.261C227.764 97.4866 228.912 98.211 230.205 98.211C231.514 98.211 232.517 97.9875 233.752 97.6436C234.946 97.3112 236.087 97.261 237.332 97.261C240.049 97.261 242.975 96.4009 245.242 94.8859" stroke="black" stroke-linecap="round" stroke-linejoin="round"/>
    <path d="M221.551 102.011C223.505 104.834 228.076 103.317 230.903 103.317C233.854 103.317 237.17 105.485 239.083 102.13" stroke="black" stroke-linecap="round" stroke-linejoin="round"/>
    <path d="M257.896 84.8235C257.199 85.9519 256.575 86.3441 255.39 86.7717C254.446 87.1123 253.694 87.8105 253.256 88.6882C252.225 90.7545 250.931 92.708 250.043 94.843" stroke="black" stroke-linecap="round" stroke-linejoin="round"/>
    <path d="M270.982 66.2216C271.293 64.0921 271.862 61.8574 270.543 59.9562C268.589 57.1403 262.911 66.5377 264.317 69.6704C264.9 70.9689 265.456 72.3231 264.086 73.3912C262.798 74.3954 262.826 75.8054 262.793 77.3441C262.676 82.7172 263.569 90.1745 261.643 95.2841C259.24 101.662 252.382 106.878 247.744 111.528C245.19 114.088 244.231 117.402 240.903 118.862C233.607 122.062 228.591 121.605 220.839 119.319C216.651 118.084 215.973 114.176 212.803 111.528C207.426 107.036 202.341 100.556 200.695 93.5877C199.378 88.0131 200.295 81.1126 200.295 75.3676C200.295 73.9556 200.317 72.6354 199.936 71.2627C199.551 69.8706 198.334 68.8106 199.976 67.838C201.713 66.8093 200.494 60.3993 200.008 58.876" stroke="black" stroke-linecap="round" stroke-linejoin="round"/>
    <path d="M198.859 55.8513C198.2 54.9526 196.93 53.0664 195.554 54.1389C194.627 54.8622 194.137 56.9835 193.974 58.0838C193.219 63.1902 194.176 69.2253 195.913 74.0633C196.308 75.1626 197.319 76.097 197.853 77.168C198.148 77.7587 198.253 78.3012 198.859 78.6723C199.643 79.1528 199.988 78.6267 200.152 77.8882" stroke="black" stroke-linecap="round" stroke-linejoin="round"/>
    <path d="M195.554 61.7566C195.304 60.8317 195.053 58.2998 196.56 58.2998C197.921 58.2998 198.435 60.1208 198.779 61.2525C199.261 62.8392 198.184 63.6236 197.35 64.7813C196.481 65.9875 196.69 67.0437 197.135 68.3821" stroke="black" stroke-linecap="round" stroke-linejoin="round"/>
    <path d="M265.522 59.4522C266.432 58.2594 267.6 57.0848 269.114 56.7476C273.695 55.727 272.688 66.1978 272.419 68.1581C272.058 70.7783 268.156 85.6094 263.224 81.4891" stroke="black" stroke-linecap="round" stroke-linejoin="round"/>
    <path d="M266.672 66.3655C266.715 68.52 269.717 71.0401 267.965 73.247C267.325 74.0543 266.369 74.5858 265.523 75.1514" stroke="black" stroke-linecap="round" stroke-linejoin="round"/>
    <path d="M201.139 54.5235C201.211 50.8011 204.648 50.0323 205.281 47.0199C206.172 42.7774 204.678 36.7962 207.89 33.4839C214.257 26.9185 222.384 25.686 231.094 25.686C239.232 25.686 255.673 28.0739 257.903 37.015C258.878 40.9249 258.376 45.3646 258.376 49.374C258.376 52.8808 261.478 55.9676 262.045 59.3788" stroke="black" stroke-linecap="round" stroke-linejoin="round"/>
    <path d="M199.818 54.082C199.511 51.852 198.759 49.2929 199.263 47.0198C201.442 37.1898 198.31 23.7761 208.917 17.7409C216.834 13.2359 222.806 7.8361 232.847 8.25104C240.27 8.55777 246.597 11.8818 250.744 14.7166C258.329 19.9012 265.528 25.6439 267.181 35.1758C268.113 40.5481 267.968 46.7748 266.814 52.0958C266.415 53.939 267.053 57.3063 265.273 58.4959" stroke="black" stroke-linecap="round" stroke-linejoin="round"/>
    <path d="M205.14 103.097C205.931 108.249 206.802 120.258 203.967 124.805" stroke="black" stroke-linecap="round" stroke-linejoin="round"/>
    <path d="M204.424 122.976C203.596 124.062 202.461 125.173 202.023 126.393C200.552 130.491 200.722 136.361 202.326 140.496C202.901 141.977 203.483 143.495 204.083 145.031M229.953 189.403C229.953 191.765 229.806 184.681 229.806 182.319C229.806 178.811 224.627 175.067 220.331 171.545" stroke="black" stroke-linecap="round" stroke-linejoin="round"/>
    <path d="M196.216 128.005C195.591 131.296 194.639 134.593 195.243 137.984C196.312 143.986 198.012 149.7 200.299 155.088M229.805 190.142C224.235 186.419 219.234 182.181 214.858 177.477" stroke="black" stroke-linecap="round" stroke-linejoin="round"/>
    <path d="M195.759 128.084C197.724 125.507 201.041 122.976 204.424 122.976" stroke="black" stroke-linecap="round" stroke-linejoin="round"/>
    <path d="M258.251 121.878C258.941 121.714 260.618 120.771 261.346 120.852C264.657 121.221 264.36 127.256 264.294 129.709C263.79 148.411 247.085 172.449 229.96 181.033" stroke="black" stroke-linecap="round" stroke-linejoin="round"/>
    <path d="M258.251 121.435C258.783 120.917 260.613 118.958 261.424 119.319C264.616 120.233 270.926 121.667 270.926 126.459C270.926 132.373 269.569 138.182 267.684 143.746C261.424 162.224 247.552 181.098 229.805 189.994" stroke="black" stroke-linecap="round" stroke-linejoin="round"/>
    <path d="M204.602 124.833C203.792 125.455 203.125 125.722 202.244 126.163" stroke="black" stroke-linecap="round" stroke-linejoin="round"/>
    <path d="M259.213 99.6091C259.213 106.606 257.776 112.919 257.776 121.605C258.688 123.433 261.985 124.226 263.852 124.538" stroke="black" stroke-linecap="round" stroke-linejoin="round"/>
    <path d="M258.688 122.66C260.328 122.397 262.352 122.465 263.704 123.433" stroke="black" stroke-linecap="round" stroke-linejoin="round"/>
    <path d="M201.949 139.018C202.656 140.879 203.541 142.75 204.582 144.573M228.479 161.034C226.62 161.034 225.268 161.044 223.522 160.573M261.424 144.005C256.247 153.087 245.085 158.988 234.466 160.573" stroke="black" stroke-linecap="round" stroke-linejoin="round"/>
    <path d="M195.977 127.782C190.861 130.889 181.093 136.08 175.642 138.631C167.245 142.559 167.016 143.41 158.77 147.773C156.411 149.022 151.93 150.059 151.93 153.716" stroke="black" stroke-linecap="round" stroke-linejoin="round"/>
    <path d="M151.93 153.716C151.28 156.078 150.553 162.243 151.133 164.566C156.034 196.267 150.106 203.581 150.562 233.753" stroke="black" stroke-linecap="round" stroke-linejoin="round"/>
    <path d="M241.58 143.541C245.621 142.277 249.859 140.078 254.023 139.383" stroke="black" stroke-linecap="round" stroke-linejoin="round"/>
    <path d="M206.553 134.762C208.771 135.369 210.828 136.029 212.791 136.802" stroke="black" stroke-linecap="round" stroke-linejoin="round"/>
    <path d="M290.433 244.264C291.181 245.014 295.574 251.578 295.938 247.934C297.478 232.49 296.408 216.827 298.268 201.295" stroke="black" stroke-linecap="round" stroke-linejoin="round"/>
    <path d="M271 127.548C273.683 131.316 276.56 131.483 281.435 134.516C294.659 141.373 298.763 140.459 316.091 152.345C316.938 164.042 314.005 181.277 311.403 190.668C308.849 203.334 306.609 215.658 301.955 227.733C299.629 233.768 297.608 240.194 296.424 246.573" stroke="black" stroke-linecap="round" stroke-linejoin="round"/>
    <path d="M296.536 246.405C297.562 252.258 299.24 261.75 299.676 267.647C300.368 277.016 299.676 290.29 302.008 299.433" stroke="black" stroke-linecap="round" stroke-linejoin="round"/>
    <path d="M303.798 296.473C305.092 299.285 305.932 297.933 308.227 297.166C314.952 294.919 321.625 295.633 328.224 291.853" stroke="black" stroke-linecap="round" stroke-linejoin="round"/>
    <path d="M301.494 299.245C309.269 303.7 318.975 300.029 326.381 296.935" stroke="black" stroke-linecap="round" stroke-linejoin="round"/>
    <path d="M316.09 153.259C322.106 161.146 332.05 164.688 335.698 185.716C336.525 190.485 338.449 204.224 337.903 209.149C337.903 217.148 337.442 223.935 337.442 232.456C337.442 248.902 334.384 271.091 337.673 291.112C338.401 292.572 339.118 293.669 338.364 295.27C337.539 297.022 337.119 297.945 337.442 299.891" stroke="black" stroke-linecap="round" stroke-linejoin="round"/>
    <path d="M279.372 252.118C279.372 261.6 280.3 270.633 282.137 279.942C283.309 285.882 285.824 291.75 285.824 297.859" stroke="black" stroke-linecap="round" stroke-linejoin="round"/>
    <path d="M295.041 259.048C293.257 268.31 291.329 277.731 290.919 287.181C290.739 291.326 291.752 296.202 290.433 300.169" stroke="black" stroke-linecap="round" stroke-linejoin="round"/>
    <path d="M293.383 258.748C291.875 261.63 290.841 264.498 289.696 267.526" stroke="black" stroke-linecap="round" stroke-linejoin="round"/>
    <path d="M298.268 259.51C298.268 264.151 298.111 268.765 298.729 273.371C299.237 277.16 300.068 281.159 300.111 284.974C300.186 291.596 298.268 303.548 299.272 309.948" stroke="black" stroke-linecap="round" stroke-linejoin="round"/>
    <path d="M301.494 298.783C301.217 300.513 300.623 302.544 300.623 304.302C300.623 308.223 334.384 307.662 337.576 299.891" stroke="black" stroke-linecap="round" stroke-linejoin="round"/>
    <path d="M335.138 302.479C332.665 308.23 329.029 315.188 324.999 320.036" stroke="black" stroke-linecap="round" stroke-linejoin="round"/>
    <path d="M301.096 305.376C300.674 307.727 298.36 314.976 296.536 318.633" stroke="black" stroke-linecap="round" stroke-linejoin="round"/>
    <path d="M200.562 255.814C197.16 266.151 192.377 276.313 187.862 286.206C185.73 290.877 182.918 295.304 180.283 299.707" stroke="black" stroke-linecap="round" stroke-linejoin="round"/>
    <path d="M221.74 164.506C221.571 172.986 216.304 177.114 209.193 180.679" stroke="black" stroke-linecap="round" stroke-linejoin="round"/>
    <path d="M147.283 292.091C147.283 298.465 148.738 310.516 147.283 317.831" stroke="black" stroke-linecap="round" stroke-linejoin="round"/>
    <path d="M194.794 171.581C197.088 166.47 196.5 165.181 197.99 161.861C199.882 157.645 201.37 152.765 202.72 148.333C204.419 142.761 209.805 140.349 213.253 135.961C214.938 133.752 216.306 131.454 217.831 129.16C219.253 127.022 220.031 124.515 221.345 122.359C222.492 120.478 226.258 120.802 227.626 120.802C229.906 120.959 232.486 120.645 234.447 120.802C236.728 123.712 237.801 127.39 238.394 130.96C237.581 131.775 235.269 131.481 234.447 130.716C233.006 129.374 232.237 128.01 231.61 126.16C229.553 127.676 227.507 128.56 225.025 128.56C224.966 131.529 222.382 134.858 220.786 137.259" stroke="black" stroke-linecap="round" stroke-linejoin="round"/>
    <path d="M221.633 164.166C222.382 163.144 222.552 162.272 223.03 161.165C223.244 160.667 223.245 159.217 223.828 159.165C225.503 159.017 227.104 158.113 228.816 158.165C229.267 158.179 229.016 159.751 229.016 160.165C229.016 161.099 229.265 161.741 228.173 161.765C225.584 161.824 223.522 165.145 223.522 166.516C223.978 166.974 224.681 167.286 225.802 166.974C226.662 166.734 227.55 166.559 228.418 166.366C229.601 166.103 232.7 165.706 233.317 164.566C234.094 163.131 233.871 161.127 234.304 159.565C234.724 158.048 234.803 155.945 234.803 154.364" stroke="black" stroke-linecap="round" stroke-linejoin="round"/>
    <path d="M224.028 150.563C225.432 151.569 227.872 152.759 229.615 152.953C231.223 153.132 233.052 153.846 234.603 154.364" stroke="black" stroke-linecap="round" stroke-linejoin="round"/>
    <path d="M225.025 149.564C226.849 149.82 228.458 149.355 230.213 148.963C230.951 148.799 231.442 148.163 232.209 148.163C232.99 148.163 233.098 149.114 233.206 149.764C232.52 150.919 232.009 151.635 232.009 152.964" stroke="black" stroke-linecap="round" stroke-linejoin="round"/>
    <path d="M221.034 137.361C225.281 136.61 229.573 135.268 233.805 134.561C236.248 135.785 236.58 137.249 236.997 139.762C236.788 140.929 235.834 141.831 235.378 143.202" stroke="black" stroke-linecap="round" stroke-linejoin="round"/>
    <path d="M225.624 142.762C227.211 142.508 228.851 142.266 230.412 141.918C231.627 141.647 233.13 140.409 233.805 141.762C236.289 144.179 238.394 146.731 238.394 150.363C237.508 151.855 236.746 153.259 236.199 154.964C235.834 155.545 235.581 155.49 235.002 155.964" stroke="black" stroke-linecap="round" stroke-linejoin="round"/>
    <path d="M148.848 281.897C149.221 278.291 151.555 274.951 152.966 271.653" stroke="black" stroke-linecap="round" stroke-linejoin="round"/>
    <path d="M151.474 152.345C126.203 170.044 125.536 190.117 125.536 221.262C124.168 226.748 123.135 241.015 123.135 245.085C121.972 252.079 122.189 259.557 120.472 266.441C120.472 276.209 123.222 287.472 134.736 289.395C140.3 290.38 145.225 291.192 150.868 291.192C153.771 290.186 157.401 289.185 159.933 287.358C161.627 286.136 162.824 284.961 164.165 283.348" stroke="black" stroke-linecap="round" stroke-linejoin="round"/>
    <path d="M210.09 180.679C200.921 193.7 197.017 210.122 193.26 225.603C191.497 232.871 188.95 257.212 182.482 265.716C180.658 268.459 176.098 273.945 172.906 276.688C167.434 280.802 163.904 283.153 158.337 285.261C155.084 286.493 150.562 287.86 148.237 287.86C146.458 286.745 143.722 284.004 142.81 280.345C141.442 274.859 142.354 261.602 142.81 255.659C142.948 249.433 146.359 241.97 149.145 236.385C154.841 224.965 162.771 214.031 170.705 204.089C179 193.694 186.943 182.478 194.853 171.694" stroke="black" stroke-linecap="round" stroke-linejoin="round"/>
    <path d="M150.031 233.232C147.336 236.417 145.223 239.927 142.856 243.325C141.624 245.094 140.913 246.941 140.269 248.976C139.424 251.649 138.323 254.215 137.913 257.014C137.388 260.601 137.384 264.221 137.384 267.836" stroke="black" stroke-linecap="round" stroke-linejoin="round"/>
    <path d="M146.163 234.276C142.557 237.238 137.018 240.487 134.781 244.8C133.047 248.143 130.904 251.232 129.202 254.644C127.685 257.684 126.821 261.229 126.821 264.629C126.821 267.998 126.977 271.83 128.16 274.995" stroke="black" stroke-linecap="round" stroke-linejoin="round"/>
    <path d="M225.213 149.877C224.964 150.132 224.897 150.4 224.997 150.743" stroke="black" stroke-linecap="round"/>
    <path d="M98.2866 20C97.8319 20.1111 97.0135 20.4667 97.3773 21" stroke="white"/>
    <path d="M115.287 54C116.15 55.2281 121.581 60.8421 120.286 66" stroke="white" stroke-linecap="round" stroke-linejoin="round"/>
    <path d="M131.287 48C130.787 50 131.287 56.8 131.287 59" stroke="white" stroke-linecap="round" stroke-linejoin="round"/>
    <path d="M104.287 69C104.842 63.8077 110.879 58.1154 113.287 56C115.787 53.5 116.197 52.0833 122.287 51C127.158 50.1333 137.935 45.6667 143.287 43.5" stroke="white" stroke-linecap="round" stroke-linejoin="round"/>
    <path d="M112.287 56C110.064 54.9438 105.398 53.9155 99.2866 55.5" stroke="white" stroke-linecap="round" stroke-linejoin="round"/>
    <path d="M120.287 51C117.953 49 111.056 45.4547 107.287 46" stroke="white" stroke-linecap="round" stroke-linejoin="round"/>
    <path d="M136.287 45.9999C133.939 43.8742 128.078 38.4203 124.287 38.9999" stroke="white" stroke-linecap="round" stroke-linejoin="round"/>
    <path d="M107.287 41C91.687 43 85.2866 31.5 85.2868 26.5C84.7866 25 89.1201 22.1667 91.7868 21L91.787 23C90.287 23.6667 87.587 25.3 88.787 26.5C90.287 28 96.287 30 107.287 29.5C116.087 29.1 121.62 26.3333 123.287 25L121.787 21C123.12 21.1667 126.287 22 126.287 24C126.287 26.5 126.787 38.5 107.287 41Z" fill="#F4F4F4"/>
    <path d="M92.8665 19.8889L92.2865 21V22.5C91.4531 22.8333 89.5865 23.9 88.7865 25.5C87.7865 27.5 97.5065 30 106.786 29.5C116.066 29 123.786 25.5 122.786 25C121.986 24.6 121.453 21.7963 121.286 20.4444L120.126 19.8889L118.386 18.2222L116.646 17.6667L115.486 16.5556L114.109 14.3333H112.586L112.006 13.2222L109.686 11.5556L106.786 11H103.886H100.986L99.2465 12.1111L97.5065 13.7778L96.3465 14.3333L95.1865 16L93.4465 16.5556L92.8665 18.2222V19.8889Z" fill="#EFF4CE"/>
    <path d="M114.608 61.4599C113.496 58.8724 116.229 58.6568 117.387 58.8724C118.777 56.2849 120.774 56.9317 121.556 57.5786C127.81 62.7534 121.556 67.2818 120.166 67.9286C118.777 68.5755 115.997 64.6943 114.608 61.4599Z" fill="#EFF4CE"/>
    <path d="M134.094 56.6182C135.082 51.0224 132.033 51.0224 130.385 51.7219C130.385 51.0224 127.913 48.2244 126.677 51.7219C125.688 54.5198 126.677 58.6167 128.531 60.1156C129.973 61.2814 133.105 62.2141 134.094 56.6182Z" fill="#EFF4CE"/>
    <path d="M106.817 62.2033C107.376 61.6502 108.287 61.0575 108.287 62.338C108.287 64.0704 104.553 71 102.953 71C101.353 71 100.287 68.1127 100.287 66.3803C100.287 64.6479 102.42 60.0281 105.087 61.183C106.383 61.7443 106.76 62.0499 106.817 62.2033Z" fill="#EFF4CE"/>
    <path d="M97.685 56.5136C102.547 57.6759 107.629 56.5135 109.287 55.5449C106.524 53.6077 104.867 52.6391 101 53.1234C98.9851 53.3757 93.8179 55.589 97.685 56.5136Z" fill="#EFF4CE"/>
    <path d="M105.472 46.9685C106.331 47.911 112.454 50.503 117.287 49.9139C117.287 49.3248 116.75 45.2013 112.454 43.434C108.157 41.6668 104.398 45.7903 105.472 46.9685Z" fill="#EFF4CE"/>
    <path d="M122.447 39.6344C123.271 40.4975 128.629 44.4895 133.266 43.9501C133.266 43.4106 133.781 38.0159 129.66 36.3975C125.538 34.7791 121.416 38.5555 122.447 39.6344Z" fill="#EFF4CE"/>
    <path d="M113.287 25.0001C113.509 24.0908 114.22 22.4539 115.287 23.1814" stroke="black" stroke-linecap="round"/>
    <path d="M107.287 24.0001C107.787 23.4045 109.087 22.4514 110.287 23.4045" stroke="black" stroke-linecap="round"/>
    <path d="M112.287 18.0001C113.132 18.0001 114.695 18.4001 114.188 20.0001" stroke="black" stroke-linecap="round"/>
    <path d="M106.287 16.0001C105.537 15.2455 103.887 14.189 103.287 16.0001" stroke="black" stroke-linecap="round"/>
    <path d="M85.2866 26.0001C85.2866 36.1949 95.544 41.2458 105.574 40.9915C115.818 40.7317 126.287 35.8941 126.287 24.0001" stroke="black" stroke-linecap="round" stroke-linejoin="round"/>
    <path d="M89.7188 26.9377C87.0104 25.6423 90.095 23.5191 91.9758 22.6195L93.1043 21.0001C89.7189 22.0797 83.5122 24.7786 85.7691 26.9377C88.5904 29.6367 96.4898 31.7958 109.468 30.7162C118.496 29.9652 123.009 27.4775 125.831 24.7786C127.692 22.9982 123.386 21.18 121.317 21.0001L121.881 22.6195C122.069 23.1593 122.558 24.3468 123.009 24.7786C123.574 25.3184 119.06 28.0173 109.468 29.0969C99.8753 30.1764 93.1043 28.5571 89.7188 26.9377Z" stroke="black" stroke-linecap="round" stroke-linejoin="round"/>
    <path d="M92.2866 21.0001L92.8666 19.889V18.2223L93.4466 16.5557L95.1866 16.0001L96.3466 14.3335L97.5066 13.7779L99.2466 12.1112L100.987 11.0001H103.887H106.787L109.687 11.5557L112.007 13.2223L112.587 14.3335H114.109L115.487 16.5557L116.647 17.6668L118.387 18.2223L120.127 19.889L121.287 20.4446" stroke="black" stroke-linecap="round" stroke-linejoin="round"/>
    <path d="M97.2866 20.0001C96.8319 20.1112 96.0135 20.4668 96.3773 21.0001" stroke="black" stroke-linecap="round" stroke-linejoin="round"/>
    <path d="M114.287 54C115.149 55.2281 121.406 62.8421 120.111 68" stroke="black" stroke-linecap="round" stroke-linejoin="round"/>
    <path d="M114.608 61.4602C113.496 58.8726 116.229 58.657 117.387 58.8726C118.777 56.2851 120.774 56.9319 121.556 57.5789C127.81 62.7536 121.556 67.282 120.166 67.9289C118.777 68.5758 115.997 64.6945 114.608 61.4602Z" stroke="black" stroke-linecap="round" stroke-linejoin="round"/>
    <path d="M130.377 48C129.923 50.1667 130.013 58.4 130.377 61" stroke="black" stroke-linecap="round" stroke-linejoin="round"/>
    <path d="M134.093 56.6182C135.082 51.0224 132.033 51.0224 130.385 51.7219C130.385 51.0224 127.913 48.2244 126.677 51.7219C125.688 54.5198 126.677 58.6167 128.531 60.1156C129.973 61.2814 133.105 62.2141 134.093 56.6182Z" stroke="black" stroke-linecap="round" stroke-linejoin="round"/>
    <path d="M112.287 56C109.879 58.1154 102.842 65.8077 102.287 71" stroke="black" stroke-linecap="round" stroke-linejoin="round"/>
    <path d="M106.687 62.338C107.22 61.7605 108.287 60.952 108.287 62.338C108.287 64.0704 104.553 71 102.953 71C101.353 71 100.287 68.1127 100.287 66.3803C100.287 64.6479 102.42 60.0281 105.087 61.183C107.22 62.1069 106.864 62.338 106.687 62.338Z" stroke="black" stroke-linecap="round" stroke-linejoin="round"/>
    <path d="M143.287 43C137.935 45.1667 126.015 49.7167 121.144 50.5833C115.054 51.6667 114.501 54.375 112.287 56" stroke="black" stroke-linecap="round" stroke-linejoin="round"/>
    <path d="M111.287 55.9999C109.064 54.9437 102.398 54.4155 96.2866 56" stroke="black" stroke-linecap="round" stroke-linejoin="round"/>
    <path d="M97.685 56.5136C102.547 57.6759 107.629 56.5135 109.287 55.5449C106.524 53.6077 104.867 52.6391 101 53.1234C98.9851 53.3757 93.8179 55.589 97.685 56.5136Z" stroke="black" stroke-linecap="round" stroke-linejoin="round"/>
    <path d="M119.287 51C116.953 49 109.056 45.5118 105.287 46.0572" stroke="black" stroke-linecap="round" stroke-linejoin="round"/>
    <path d="M135.287 46C132.939 43.8743 126.078 38.4636 122.287 39.0432" stroke="black" stroke-linecap="round" stroke-linejoin="round"/>
    <path d="M105.472 46.9685C106.331 47.911 112.454 50.503 117.287 49.9139C117.287 49.3248 116.75 45.2013 112.454 43.434C108.157 41.6668 104.398 45.7903 105.472 46.9685Z" stroke="black" stroke-linecap="round" stroke-linejoin="round"/>
    <path d="M122.447 39.6344C123.271 40.4975 128.629 44.4895 133.266 43.9501C133.266 43.4106 133.781 38.0159 129.66 36.3975C125.538 34.7791 121.416 38.5555 122.447 39.6344Z" stroke="black" stroke-linecap="round" stroke-linejoin="round"/>
</svg>
