<svg width="150" height="150" viewBox="0 0 150 150" fill="none" xmlns="http://www.w3.org/2000/svg">
    <path d="M21.0003 135.74C21.0003 131.578 20.7455 120.802 34.3405 115.108C40.2465 112.634 52.5781 107.842 56.5577 106.399C60.8454 104.844 70.2 108.6 91.6423 106.399C95.6219 107.842 107.953 112.634 113.859 115.108C127.455 120.802 127.2 131.578 127.2 135.74L127.2 147.6H21.3L21.0003 135.74Z" fill="white"/>
    <path d="M44.5367 20.5469C35.9856 29.618 42.2284 48 42.2284 48L45.9001 53.7L105.6 53.1L108.052 48C107.129 42.3595 114.876 29.4446 114.876 28.0486C114.876 26.6527 105.643 23.8609 106.566 23.3956C107.489 22.9303 113.953 13.1588 116.261 10.8323C118.57 8.50577 91.3308 13.1588 90.8691 14.0894C90.4074 15.0201 94.1008 6.17925 95.4858 2.92211C96.8709 -0.335033 58.6075 12.8257 57.6286 13.1588C53.1 14.7 49.2 15.6 44.5367 20.5469Z" fill="#9E9E9E"/>
    <path d="M45.5998 43.7999C45.5998 37.1725 50.9724 31.7999 57.5998 31.7999H91.7998C98.4272 31.7999 103.8 37.1725 103.8 43.7999V66.2999C103.8 82.3714 90.7713 95.3999 74.6998 95.3999C58.6283 95.3999 45.5998 82.3714 45.5998 66.2999V43.7999Z" fill="#E6E6E6"/>
    <path d="M60.5998 104.1L62.0998 90.8999C71.0998 93.5999 76.4998 92.9999 87.2998 91.7999C87.2998 101.64 89.8998 105.7 91.1998 106.5C89.2998 108.1 83.2798 111.36 74.3998 111.6C65.5198 111.84 59.6998 108.3 57.8998 106.5L58.7998 105.6L60.5998 104.1Z" fill="#E6E6E6"/>
    <path d="M103.8 52.4999C103.8 50.346 105.546 48.5999 107.7 48.5999C109.854 48.5999 111.6 50.346 111.6 52.4999V59.3999C111.6 63.7077 108.108 67.1999 103.8 67.1999V52.4999Z" fill="#E6E6E6"/>
    <path d="M45.5998 52.4999C45.5998 50.346 43.8537 48.5999 41.6998 48.5999C39.5459 48.5999 37.7998 50.346 37.7998 52.4999V59.3999C37.7998 63.7077 41.292 67.1999 45.5998 67.1999V52.4999Z" fill="#E6E6E6"/>
    <path d="M58.7998 108C58.7998 108 62.9664 112.8 75.0031 112.8C87.0399 112.8 91.1998 108 91.1998 108" stroke="#E6E6E6" stroke-width="3" stroke-linecap="round" stroke-linejoin="round"/>
    <path d="M61.2002 115.8C61.2002 115.8 64.8267 120 75.3031 120C85.7795 120 89.4002 115.8 89.4002 115.8" stroke="#E6E6E6" stroke-width="3" stroke-linecap="round" stroke-linejoin="round"/>
    <path d="M94.7998 142.2H107.4" stroke="#E6E6E6" stroke-width="3" stroke-linecap="round" stroke-linejoin="round"/>
    <path d="M45.6001 41.7999C45.6001 36.2771 50.0772 31.7999 55.6001 31.7999H93.8001C99.3229 31.7999 103.8 36.2771 103.8 41.7999V66.2999C103.8 82.3714 90.7716 95.3999 74.7001 95.3999V95.3999C58.6286 95.3999 45.6001 82.3714 45.6001 66.2999V41.7999Z" stroke="black" stroke-width="2" stroke-linecap="round" stroke-linejoin="round"/>
    <path d="M61.8001 93C60.8053 103.384 61.4455 104.844 57.1578 106.399C53.1782 107.842 40.8466 112.634 34.9406 115.108C21.3456 120.802 21.6004 131.578 21.6004 135.74C21.6005 139.902 21.6005 147.6 21.6005 147.6" stroke="black" stroke-width="2" stroke-linecap="round" stroke-linejoin="round"/>
    <path d="M87.6003 93C88.5951 103.384 87.9549 104.844 92.2426 106.399C96.2222 107.842 108.554 112.634 114.46 115.108C128.055 120.802 127.8 131.578 127.8 135.74C127.8 139.902 127.8 147.6 127.8 147.6" stroke="black" stroke-width="2" stroke-linecap="round" stroke-linejoin="round"/>
    <path d="M103.8 52.5C103.8 50.3461 105.546 48.6 107.7 48.6V48.6C109.854 48.6 111.6 50.3461 111.6 52.5V59.4C111.6 63.7078 108.108 67.2 103.8 67.2V67.2V52.5Z" stroke="black" stroke-width="2" stroke-linecap="round" stroke-linejoin="round"/>
    <path d="M45.6001 52.5C45.6001 50.3461 43.854 48.6 41.7001 48.6V48.6C39.5462 48.6 37.8001 50.3461 37.8001 52.5V59.4C37.8001 63.7078 41.2923 67.2 45.6001 67.2V67.2V52.5Z" stroke="black" stroke-width="2" stroke-linecap="round" stroke-linejoin="round"/>
    <path d="M58.8003 106.8C58.8003 106.8 62.9669 111.6 75.0036 111.6C87.0403 111.6 91.2003 106.8 91.2003 106.8" stroke="black" stroke-width="2" stroke-linecap="round" stroke-linejoin="round"/>
    <path d="M61.2002 114C61.2002 114 64.8267 118.2 75.3031 118.2C85.7795 118.2 89.4002 114 89.4002 114" stroke="black" stroke-width="2" stroke-linecap="round" stroke-linejoin="round"/>
    <path d="M94.8003 141H107.4" stroke="black" stroke-width="2" stroke-linecap="round" stroke-linejoin="round"/>
    <path d="M42.2286 48C41.767 47.0694 35.9858 29.618 44.5369 20.5469C49.2002 15.6 53.1002 14.7 57.6288 13.1588C58.6077 12.8257 96.8711 -0.335033 95.4861 2.92211C94.101 6.17925 90.4077 15.0201 90.8693 14.0894C91.331 13.1588 118.57 8.50577 116.261 10.8323C113.953 13.1588 107.49 22.9303 106.566 23.3956C105.643 23.8609 114.876 26.6527 114.876 28.0486C114.876 29.4446 107.129 42.3595 108.052 48" stroke="black" stroke-width="2" stroke-linecap="round" stroke-linejoin="round"/>
    <path d="M66.7075 72.658C66.7075 72.658 68.7727 75.3345 74.7386 75.3345C80.7046 75.3345 82.7665 72.658 82.7665 72.658" stroke="black" stroke-width="2" stroke-linecap="round" stroke-linejoin="round"/>
    <path d="M64.7002 55.2607V60.2792M84.7739 55.2607V60.2792" stroke="black" stroke-width="2" stroke-linecap="round" stroke-linejoin="round"/>
</svg>
