<svg width="251" height="251" viewBox="0 0 251 251" fill="none" xmlns="http://www.w3.org/2000/svg">
<circle cx="100" cy="100" r="100" fill="#F5F5F5"/>
<circle cx="99.5" cy="102.5" r="73.5" fill="#E0E0E0"/>
<path fill-rule="evenodd" clip-rule="evenodd" d="M155.838 149.951C143.238 160.092 127.223 166.161 109.79 166.161C69.197 166.161 36.29 133.254 36.29 92.6606C36.29 73.6177 43.5319 56.2661 55.4121 43.21C38.6721 56.682 27.96 77.3403 27.96 100.501C27.96 141.094 60.867 174.001 101.46 174.001C123.01 174.001 142.394 164.726 155.838 149.951Z" fill="#9E9E9E"/>
<path d="M156.353 180.5C156.353 180.5 165.408 173.538 170.603 168.25C175.299 163.47 181.353 155 181.353 155L244.262 218.571C251.219 225.601 251.189 236.931 244.195 243.924C237.136 250.984 225.677 250.938 218.674 243.823L156.353 180.5Z" fill="#66C08C"/>
<path fill-rule="evenodd" clip-rule="evenodd" d="M247.096 241.179C240.07 245.869 230.474 245.075 224.321 238.823L162.545 176.054C165.386 173.702 168.761 170.784 171.25 168.25C171.856 167.633 172.485 166.954 173.121 166.239C174.24 165.222 175.308 164.209 176.25 163.25C178.35 161.112 180.722 158.236 182.702 155.71L244.908 218.571C251.014 224.741 251.738 234.223 247.096 241.179Z" fill="#99D5B3"/>
<circle cx="101" cy="101" r="98.5" stroke="black" stroke-width="3"/>
<circle cx="101" cy="101" r="73.5" stroke="black" stroke-width="3"/>
<line x1="75.1213" y1="73" x2="129.569" y2="127.447" stroke="black" stroke-width="3" stroke-linecap="round"/>
<line x1="1.5" y1="-1.5" x2="78.5" y2="-1.5" transform="matrix(-0.707107 0.707107 0.707107 0.707107 130 73)" stroke="black" stroke-width="3" stroke-linecap="round"/>
<path d="M158.999 180.647C159.056 180.601 159.116 180.554 159.176 180.506C160.113 179.766 161.415 178.724 162.881 177.516C165.802 175.108 169.415 172.004 172.07 169.301C174.483 166.845 177.215 163.474 179.322 160.75C180.373 159.392 181.278 158.182 181.924 157.308L243.592 219.626C249.969 226.069 249.942 236.454 243.532 242.864C237.061 249.334 226.558 249.292 220.14 242.771L158.999 180.647Z" stroke="black" stroke-width="3"/>
<path d="M195.25 170.25C195.25 170.25 193.25 176 185.75 184C178.25 192 171.25 193.75 171.25 193.75" stroke="black" stroke-width="3"/>
</svg>
