<svg width="266" height="218" viewBox="0 0 266 218" fill="none" xmlns="http://www.w3.org/2000/svg">
<rect width="266" height="218" fill="#FFEB66"/>
<path d="M175.13 80.1689H48V164.43H175.13V80.1689Z" fill="#F4F4F4" stroke="black" stroke-linecap="round" stroke-linejoin="round"/>
<path d="M174.391 158.599V163.69H48.7393V80.9081H62.7827L101.723 158.599H174.391Z" fill="#FAFAFA"/>
<path d="M213.096 132.54L205.782 117.911H190.906V132.54H213.096Z" fill="white" stroke="black" stroke-linecap="round" stroke-linejoin="round"/>
<path d="M191.438 130.25L199.938 118.562H205.781L207.906 123.344L200.469 131.844H191.438V130.25Z" fill="#F4F4F4"/>
<path d="M202.282 112.691H175.131V164.43H218V137.897L213.713 132.59H190.85V117.997H206.568L202.282 112.691Z" fill="#FAFAFA" stroke="black" stroke-linecap="round" stroke-linejoin="round"/>
<path d="M177.625 113.25H175.5V163.885H217.469V158.406H183.469L177.625 113.25Z" fill="#999999"/>
<ellipse cx="74.6085" cy="167.386" rx="13.3043" ry="13.3043" fill="#999999" stroke="black"/>
<path d="M65 167.437C65 162.156 69.2813 157.875 74.5625 157.875" stroke="black" stroke-linecap="round" stroke-linejoin="round"/>
<ellipse cx="197.304" cy="167.386" rx="13.3043" ry="13.3043" fill="#999999" stroke="black"/>
<path d="M188.25 167.437C188.25 162.156 192.531 157.875 197.813 157.875" stroke="black" stroke-linecap="round" stroke-linejoin="round"/>
<circle cx="74.6088" cy="167.386" r="5.91302" fill="black"/>
<circle cx="197.304" cy="167.386" r="5.91302" fill="black"/>
<path d="M93.8262 159.995L170.696 159.995" stroke="black" stroke-linecap="round" stroke-linejoin="round"/>
<rect width="24.67" height="65.7866" rx="12.335" transform="matrix(0.699118 -0.715007 0.699118 0.715007 81.5381 104.758)" fill="white"/>
<path d="M90.1617 113.578C85.399 108.707 85.399 100.809 90.1617 95.9385C94.9244 91.0675 102.646 91.0675 107.409 95.9385L122.163 111.027C122.163 111.027 115.378 114.012 112.027 117.264C108.281 120.9 104.915 128.667 104.915 128.667L90.1617 113.578Z" fill="#999999"/>
<ellipse rx="3.18372" ry="2.89984" transform="matrix(0.699118 -0.715007 0.699118 0.715007 97.987 97.7074)" fill="white"/>
<path d="M87.6362 104.791L127.271 145.328C124.731 145.328 122.186 144.095 120.666 142.729C120.088 142.209 90.5577 112.067 90.1769 111.547C87.5114 107.909 87.6362 104.791 87.6362 104.791Z" fill="#FAFAFA"/>
<rect width="24.67" height="65.7866" rx="12.335" transform="matrix(0.699118 -0.715007 0.699118 0.715007 81.5386 104.76)" stroke="black" stroke-linecap="round" stroke-linejoin="round"/>
<path d="M104.969 128.615C104.969 128.615 108.672 120.893 112.536 117.264C115.692 114.3 121.857 111.343 121.857 111.343" stroke="black" stroke-linecap="round" stroke-linejoin="round"/>
<mask id="path-20-inside-1_5395_10228" fill="white">
<path fill-rule="evenodd" clip-rule="evenodd" d="M177.883 30.1172L173.375 34.625L186.398 47.6485L173.117 60.9297L177.625 65.4375L190.906 52.1563L204.298 65.5482L208.806 61.0404L195.414 47.6485L208.548 34.5144L204.04 30.0066L190.906 43.1407L177.883 30.1172Z"/>
</mask>
<path fill-rule="evenodd" clip-rule="evenodd" d="M177.883 30.1172L173.375 34.625L186.398 47.6485L173.117 60.9297L177.625 65.4375L190.906 52.1563L204.298 65.5482L208.806 61.0404L195.414 47.6485L208.548 34.5144L204.04 30.0066L190.906 43.1407L177.883 30.1172Z" fill="white"/>
<path d="M173.375 34.625L172.668 33.9179L171.961 34.625L172.668 35.3321L173.375 34.625ZM177.883 30.1172L178.59 29.4101L177.883 28.703L177.176 29.4101L177.883 30.1172ZM186.398 47.6485L187.106 48.3556L187.813 47.6485L187.106 46.9414L186.398 47.6485ZM173.117 60.9297L172.41 60.2226L171.703 60.9297L172.41 61.6368L173.117 60.9297ZM177.625 65.4375L176.918 66.1446L177.625 66.8517L178.332 66.1446L177.625 65.4375ZM190.906 52.1563L191.613 51.4492L190.906 50.7421L190.199 51.4492L190.906 52.1563ZM204.298 65.5482L203.591 66.2553L204.298 66.9624L205.005 66.2553L204.298 65.5482ZM208.806 61.0404L209.513 61.7475L210.22 61.0404L209.513 60.3333L208.806 61.0404ZM195.414 47.6485L194.707 46.9414L194 47.6485L194.707 48.3556L195.414 47.6485ZM208.548 34.5144L209.255 35.2215L209.962 34.5144L209.255 33.8073L208.548 34.5144ZM204.04 30.0066L204.748 29.2995L204.04 28.5923L203.333 29.2995L204.04 30.0066ZM190.906 43.1407L190.199 43.8478L190.906 44.5549L191.613 43.8478L190.906 43.1407ZM174.082 35.3321L178.59 30.8243L177.176 29.4101L172.668 33.9179L174.082 35.3321ZM187.106 46.9414L174.082 33.9179L172.668 35.3321L185.691 48.3556L187.106 46.9414ZM173.824 61.6368L187.106 48.3556L185.691 46.9414L172.41 60.2226L173.824 61.6368ZM178.332 64.7304L173.824 60.2226L172.41 61.6368L176.918 66.1446L178.332 64.7304ZM190.199 51.4492L176.918 64.7304L178.332 66.1446L191.613 52.8634L190.199 51.4492ZM205.005 64.8411L191.613 51.4492L190.199 52.8634L203.591 66.2553L205.005 64.8411ZM208.099 60.3333L203.591 64.8411L205.005 66.2553L209.513 61.7475L208.099 60.3333ZM194.707 48.3556L208.099 61.7475L209.513 60.3333L196.121 46.9414L194.707 48.3556ZM207.841 33.8073L194.707 46.9414L196.121 48.3556L209.255 35.2215L207.841 33.8073ZM203.333 30.7137L207.841 35.2215L209.255 33.8073L204.748 29.2995L203.333 30.7137ZM191.613 43.8478L204.748 30.7137L203.333 29.2995L190.199 42.4336L191.613 43.8478ZM177.176 30.8243L190.199 43.8478L191.613 42.4336L178.59 29.4101L177.176 30.8243Z" fill="black" mask="url(#path-20-inside-1_5395_10228)"/>
</svg>
