<svg width="266" height="218" viewBox="0 0 266 218" fill="none" xmlns="http://www.w3.org/2000/svg">
<rect width="266" height="218" fill="#28367F"/>
<path d="M188.722 56.6524C191.504 62.2536 193.333 69.2971 191.763 75.4563C191.763 75.4563 168.796 83.5488 152.833 83.5C136.913 83.4514 114.073 75.2863 114.073 75.2863C112.642 68.1271 111.013 61.6863 116.793 53.1863C125.973 42.6463 130.393 40.0963 142.633 38.3963C141.696 37.2035 140.253 33.8589 140.253 32.4464C140.253 31.356 141.141 33.5463 145.835 36.2052C150.179 38.6657 154.97 40.6527 159.841 41.7586C164.876 42.9016 169.845 43.7182 174.763 45.3663C181.035 47.0911 185.761 50.6899 188.722 56.6524Z" fill="black"/>
<path d="M119.513 70.9201C119.513 63.409 125.602 57.3201 133.113 57.3201H171.873C179.384 57.3201 185.473 63.409 185.473 70.9201V96.4201C185.473 114.634 170.708 129.4 152.493 129.4C134.279 129.4 119.513 114.634 119.513 96.4201V70.9201Z" fill="#F2F2F2"/>
<path d="M136.513 139.26L138.213 124.3C148.413 127.36 154.533 126.68 166.773 125.32C166.773 136.472 169.72 141.073 171.193 141.98C169.04 143.793 162.217 147.488 152.153 147.76C142.089 148.032 135.493 144.02 133.453 141.98L134.473 140.96L136.513 139.26Z" fill="#F2F2F2"/>
<path d="M185.473 81.4601C185.473 79.019 187.452 77.0401 189.893 77.0401C192.334 77.0401 194.313 79.019 194.313 81.4601V89.2801C194.313 94.1623 190.356 98.1201 185.473 98.1201V81.4601Z" fill="#F2F2F2"/>
<path d="M119.513 80.7801C119.513 78.339 117.534 76.3601 115.093 76.3601C112.652 76.3601 110.673 78.339 110.673 80.7801V88.6001C110.673 93.4823 114.631 97.4401 119.513 97.4401V80.7801Z" fill="#F2F2F2"/>
<path d="M165.753 88.5209C165.753 91.1368 159.969 90.5931 152.833 90.5931C145.698 90.5931 139.913 91.1368 139.913 88.5209C139.913 85.9049 145.698 81.12 152.833 81.12C159.969 81.12 165.753 85.9049 165.753 88.5209Z" fill="#FAFAFA"/>
<path d="M93.6737 176.253C93.6737 171.536 93.3849 159.324 108.793 152.87C115.486 150.067 123.339 145.303 133.453 143C146.373 149.575 157.253 152.87 171.193 143C186.493 147.875 203.493 152.87 210.293 163.855C214.293 171.959 212.266 187.455 212.333 189.015H93.6737L93.6737 176.253Z" fill="#FAFAFA"/>
<rect x="50.3682" y="97.7695" width="22.8438" height="60.9167" rx="11.4219" transform="rotate(-45 50.3682 97.7695)" fill="white"/>
<path d="M58.4446 105.846C53.9841 101.385 53.9841 94.1533 58.4446 89.6928C62.9052 85.2323 70.1371 85.2323 74.5976 89.6928L88.4153 103.51C88.4153 103.51 82.061 106.243 78.9229 109.221C75.4144 112.551 72.2623 119.663 72.2623 119.663L58.4446 105.846Z" fill="#999999"/>
<ellipse cx="65.7733" cy="91.3127" rx="2.94805" ry="2.68518" transform="rotate(-45 65.7733 91.3127)" fill="white"/>
<path d="M56.0795 97.7994L93.2002 134.921C90.8206 134.921 88.4371 133.792 87.0135 132.541C86.472 132.065 58.8156 104.462 58.459 103.986C55.9626 100.655 56.0795 97.7994 56.0795 97.7994Z" fill="#FAFAFA"/>
<path d="M119.513 67.3201C119.513 61.7972 123.99 57.3201 129.513 57.3201H175.473C180.996 57.3201 185.473 61.7972 185.473 67.3201V96.4201C185.473 114.634 170.708 129.4 152.493 129.4V129.4C134.279 129.4 119.513 114.634 119.513 96.4201V67.3201Z" stroke="black" stroke-linecap="round" stroke-linejoin="round"/>
<path d="M137.873 126.68C136.746 138.449 137.472 140.103 132.612 141.865C128.102 143.501 114.126 148.932 107.433 151.736C92.025 158.189 92.3138 170.402 92.3139 175.118C92.3139 179.835 92.3139 188.56 92.3139 188.56" stroke="black" stroke-linecap="round" stroke-linejoin="round"/>
<path d="M167.113 126.68C168.241 138.449 167.515 140.103 172.375 141.865C176.885 143.501 190.861 148.932 197.554 151.736C212.962 158.189 212.673 170.402 212.673 175.118C212.673 179.835 212.673 188.56 212.673 188.56" stroke="black" stroke-linecap="round" stroke-linejoin="round"/>
<path d="M185.474 80.78C185.474 78.3389 187.453 76.36 189.894 76.36V76.36C192.335 76.36 194.314 78.3389 194.314 80.78V88.6C194.314 93.4822 190.356 97.44 185.474 97.44V97.44V80.78Z" stroke="black" stroke-linecap="round" stroke-linejoin="round"/>
<path d="M119.513 80.78C119.513 78.3389 117.534 76.36 115.093 76.36V76.36C112.652 76.36 110.673 78.3389 110.673 80.78V88.6C110.673 93.4822 114.631 97.44 119.513 97.44V97.44V80.78Z" stroke="black" stroke-linecap="round" stroke-linejoin="round"/>
<path d="M134.474 142.32C134.474 142.32 139.196 147.76 152.837 147.76C166.479 147.76 171.194 142.32 171.194 142.32" stroke="black" stroke-linecap="round" stroke-linejoin="round"/>
<path d="M126.993 145.04C126.993 145.04 133.552 155.24 152.498 155.24C171.445 155.24 177.993 145.04 177.993 145.04" stroke="black" stroke-linecap="round" stroke-linejoin="round"/>
<path d="M191.763 75.51C193.333 69.3509 191.504 62.3073 188.722 56.7061C185.761 50.7436 180.355 46.9748 174.083 45.25M174.763 45.42C169.845 43.772 164.876 42.9553 159.841 41.8123C154.97 40.7064 150.179 38.7194 145.835 36.2589C141.141 33.6 140.253 31.4097 140.253 32.5001C140.253 33.9126 141.696 37.2572 142.633 38.45M142.633 38.62C130.393 40.32 125.973 42.7 116.793 53.24C111.013 61.74 112.642 68.1808 114.073 75.34" stroke="black" stroke-linecap="round" stroke-linejoin="round"/>
<path d="M152.153 148.1V154.9" stroke="black" stroke-linecap="round"/>
<path d="M167.113 145.04L170.513 150.929" stroke="black" stroke-linecap="round"/>
<path d="M137.193 145.04L133.793 150.929" stroke="black" stroke-linecap="round"/>
<path d="M160.454 147.42L162.214 153.989" stroke="black" stroke-linecap="round"/>
<path d="M143.854 147.42L142.094 153.989" stroke="black" stroke-linecap="round"/>
<path d="M197.033 54.94L201.113 50.52L204.853 53.92L208.933 49.16M192.273 49.16L197.033 42.02L203.153 44.4L207.233 36.92" stroke="white" stroke-linecap="round" stroke-linejoin="round"/>
<path d="M143.436 106.659C143.436 106.659 145.776 103.626 152.537 103.626C159.299 103.626 161.636 106.659 161.636 106.659" stroke="black" stroke-linecap="round" stroke-linejoin="round"/>
<path d="M143.653 87.92L137.76 89.5965M162.58 87.92L168.473 89.5965" stroke="black" stroke-linecap="round" stroke-linejoin="round"/>
<rect x="50.3682" y="97.7712" width="22.8438" height="60.9167" rx="11.4219" transform="rotate(-45 50.3682 97.7712)" stroke="black" stroke-linecap="round" stroke-linejoin="round"/>
<path d="M72.3113 119.616C72.3113 119.616 75.7796 112.544 79.3986 109.221C82.3545 106.507 88.1278 103.8 88.1278 103.8" stroke="black" stroke-linecap="round" stroke-linejoin="round"/>
</svg>
