<svg width="160" height="161" viewBox="0 0 160 161" fill="none" xmlns="http://www.w3.org/2000/svg">
<path d="M132.444 31.7265C135.062 36.9982 136.784 43.6274 135.307 49.4243C135.307 49.4243 113.691 57.0407 98.6666 56.9948C83.6827 56.949 62.1867 49.2643 62.1867 49.2643C60.8391 42.5262 59.3064 36.4643 64.7466 28.4643C73.3863 18.5443 77.5467 16.1443 89.0668 14.5443C88.1847 13.4216 86.8267 10.2738 86.8267 8.94429C86.8267 7.91802 87.6617 9.97956 92.0801 12.482C96.1688 14.7978 100.678 16.6679 105.262 17.7087C110.001 18.7845 114.678 19.5531 119.307 21.1043C125.21 22.7275 129.658 26.1147 132.444 31.7265Z" fill="black"/>
<path d="M67.3066 45.1545C67.3066 38.0852 73.0373 32.3545 80.1066 32.3545H116.587C123.656 32.3545 129.387 38.0852 129.387 45.1545V69.1545C129.387 86.2974 115.489 100.194 98.3466 100.194C81.2037 100.194 67.3066 86.2974 67.3066 69.1545V45.1545Z" fill="#F2F2F2"/>
<path d="M83.3066 109.474L84.9066 95.3945C94.5066 98.2745 100.267 97.6345 111.787 96.3545C111.787 106.85 114.56 111.181 115.947 112.034C113.92 113.741 107.499 117.218 98.0266 117.474C88.5546 117.73 82.3466 113.954 80.4266 112.034L81.3866 111.074L83.3066 109.474Z" fill="#F2F2F2"/>
<path d="M129.387 55.0745C129.387 52.777 131.249 50.9145 133.547 50.9145C135.844 50.9145 137.707 52.777 137.707 55.0745V62.4345C137.707 67.0295 133.982 70.7545 129.387 70.7545V55.0745Z" fill="#F2F2F2"/>
<path d="M67.3066 54.4345C67.3066 52.137 65.4441 50.2745 63.1466 50.2745C60.8491 50.2745 58.9866 52.137 58.9866 54.4345V61.7945C58.9866 66.3895 62.7116 70.1145 67.3066 70.1145V54.4345Z" fill="#F2F2F2"/>
<path d="M110.827 61.7204C110.827 64.1825 105.382 63.6708 98.6666 63.6708C91.9508 63.6708 86.5066 64.1825 86.5066 61.7204C86.5066 59.2584 91.9508 54.7549 98.6666 54.7549C105.382 54.7549 110.827 59.2584 110.827 61.7204Z" fill="#FAFAFA"/>
<path d="M42.9869 144.292C42.9869 139.853 42.7151 128.359 57.2165 122.285C63.5162 119.646 70.907 115.162 80.4266 112.995C92.5866 119.183 102.827 122.285 115.947 112.995C130.347 117.583 146.347 122.285 152.747 132.623C156.511 140.251 154.603 154.835 154.667 156.303H42.987L42.9869 144.292Z" fill="#FAFAFA"/>
<rect x="2.22876" y="70.4248" width="21.5" height="57.3333" rx="10.75" transform="rotate(-45 2.22876 70.4248)" fill="white"/>
<path d="M9.83016 78.0262C5.63202 73.8281 5.63202 67.0215 9.83016 62.8234C14.0283 58.6253 20.8348 58.6253 25.033 62.8234L38.0378 75.8282C38.0378 75.8282 32.0573 78.4004 29.1038 81.2032C25.8017 84.3368 22.835 91.031 22.835 91.031L9.83016 78.0262Z" fill="#999999"/>
<ellipse cx="16.7277" cy="64.3475" rx="2.77463" ry="2.52723" transform="rotate(-45 16.7277 64.3475)" fill="white"/>
<path d="M7.60383 70.4531L42.541 105.391C40.3014 105.391 38.0581 104.329 36.7182 103.151C36.2086 102.703 10.179 76.724 9.84339 76.276C7.49383 73.1406 7.60383 70.4531 7.60383 70.4531Z" fill="#FAFAFA"/>
<path d="M67.3066 42.3555C67.3066 36.8326 71.7838 32.3555 77.3066 32.3555H119.387C124.909 32.3555 129.387 36.8326 129.387 42.3555V69.1555C129.387 86.2984 115.49 100.195 98.3466 100.195V100.195C81.2037 100.195 67.3066 86.2984 67.3066 69.1555V42.3555Z" stroke="black" stroke-linecap="round" stroke-linejoin="round"/>
<path d="M84.5865 97.6348C83.5254 108.711 84.2083 110.268 79.6347 111.927C75.3899 113.466 62.2362 118.578 55.9365 121.217C41.435 127.291 41.7068 138.784 41.7069 143.224C41.707 147.663 41.7069 155.875 41.7069 155.875" stroke="black" stroke-linecap="round" stroke-linejoin="round"/>
<path d="M112.107 97.6348C113.168 108.711 112.485 110.268 117.058 111.927C121.303 113.466 134.457 118.578 140.757 121.217C155.258 127.291 154.986 138.784 154.986 143.224C154.986 147.663 154.986 155.875 154.986 155.875" stroke="black" stroke-linecap="round" stroke-linejoin="round"/>
<path d="M129.387 54.4354C129.387 52.1379 131.249 50.2754 133.547 50.2754V50.2754C135.844 50.2754 137.707 52.1379 137.707 54.4354V61.7954C137.707 66.3904 133.982 70.1154 129.387 70.1154V70.1154V54.4354Z" stroke="black" stroke-linecap="round" stroke-linejoin="round"/>
<path d="M67.3066 54.4354C67.3066 52.1379 65.4441 50.2754 63.1466 50.2754V50.2754C60.8491 50.2754 58.9866 52.1379 58.9866 54.4354V61.7954C58.9866 66.3904 62.7116 70.1154 67.3066 70.1154V70.1154V54.4354Z" stroke="black" stroke-linecap="round" stroke-linejoin="round"/>
<path d="M81.3867 112.355C81.3867 112.355 85.8311 117.475 98.6702 117.475C111.509 117.475 115.947 112.355 115.947 112.355" stroke="black" stroke-linecap="round" stroke-linejoin="round"/>
<path d="M74.3467 114.915C74.3467 114.915 80.5194 124.515 98.3516 124.515C116.184 124.515 122.347 114.915 122.347 114.915" stroke="black" stroke-linecap="round" stroke-linejoin="round"/>
<path d="M135.307 49.475C136.784 43.6782 135.062 37.0489 132.444 31.7773C129.658 26.1655 124.57 22.6183 118.667 20.995M119.307 21.155C114.678 19.6039 110.001 18.8353 105.262 17.7595C100.678 16.7187 96.1688 14.8485 92.0801 12.5328C87.6617 10.0303 86.8267 7.9688 86.8267 8.99507C86.8267 10.3245 88.1847 13.4724 89.0668 14.595M89.0667 14.755C77.5466 16.355 73.3863 18.595 64.7466 28.515C59.3064 36.515 60.8391 42.577 62.1867 49.315" stroke="black" stroke-linecap="round" stroke-linejoin="round"/>
<path d="M98.0266 117.795V124.195" stroke="black" stroke-linecap="round"/>
<path d="M112.107 114.915L115.307 120.458" stroke="black" stroke-linecap="round"/>
<path d="M83.9465 114.915L80.7465 120.458" stroke="black" stroke-linecap="round"/>
<path d="M105.838 117.155L107.495 123.337" stroke="black" stroke-linecap="round"/>
<path d="M90.2148 117.155L88.5584 123.337" stroke="black" stroke-linecap="round"/>
<path d="M140.267 30.1153L144.107 25.9553L147.627 29.1553L151.467 24.6753M135.787 24.6753L140.267 17.9553L146.027 20.1953L149.867 13.1553" stroke="black" stroke-linecap="round" stroke-linejoin="round"/>
<path d="M89.8213 78.792C89.8213 78.792 92.0241 75.9371 98.3878 75.9371C104.752 75.9371 106.951 78.792 106.951 78.792" stroke="black" stroke-linecap="round" stroke-linejoin="round"/>
<path d="M90.0265 61.1553L84.48 62.7331M107.84 61.1553L113.387 62.7331" stroke="black" stroke-linecap="round" stroke-linejoin="round"/>
<rect x="2.22876" y="70.4268" width="21.5" height="57.3333" rx="10.75" transform="rotate(-45 2.22876 70.4268)" stroke="black" stroke-linecap="round" stroke-linejoin="round"/>
<path d="M22.8812 90.9865C22.8812 90.9865 26.1455 84.3306 29.5517 81.2032C32.3337 78.6487 37.7673 76.1004 37.7673 76.1004" stroke="black" stroke-linecap="round" stroke-linejoin="round"/>
</svg>
