<svg width="237" height="50" viewBox="0 0 237 50" fill="none" xmlns="http://www.w3.org/2000/svg">
<path d="M179.285 25.6357C176.42 24.7365 173.753 23.8759 173.753 22.0388C173.753 21.7803 173.807 21.541 173.908 21.3171C172.036 24.8407 177.978 27.245 177.978 27.245C177.978 27.245 184.523 29.7845 182.277 33.1652C181.678 34.6935 179.436 35.4962 176.904 35.531C173.85 35.612 172.33 35.2956 169.949 33.968L169.775 36.627C172.392 37.2522 174.963 37.5262 177.441 37.5262C181.856 37.5648 186.901 35.805 186.901 31.6987C186.901 28.0594 182.923 26.8051 179.285 25.6357Z" fill="#009640"/>
<path d="M177.978 27.2412C177.978 27.2412 172.036 24.8407 173.907 21.3133C174.479 20.005 176.59 19.2756 178.701 19.3798C182.923 19.5342 184.767 20.6688 186.27 21.6066C186.27 20.8232 186.367 20.1594 186.174 19.1019C183.653 17.8129 181.906 17.4231 178.218 17.4231C173.563 17.4231 169.338 19.3798 169.338 22.6602C169.338 26.5311 173.316 27.7043 177.004 28.8004C179.818 29.6224 182.439 30.402 182.439 32.32C182.439 32.6211 182.385 32.8989 182.281 33.1614C184.523 29.7768 177.978 27.2412 177.978 27.2412Z" fill="#BFD43C"/>
<path d="M158.112 17.7897C151.795 17.7897 148.243 21.7687 148.243 28.152V37.2947H152.781V26.9325C152.781 21.6529 155.031 20.0745 158.306 20.1169C161.58 20.1555 163.316 21.6915 163.316 26.9325V37.2947H167.858V28.152C167.858 21.7687 165.133 17.7897 158.112 17.7897Z" fill="#5E2A7E"/>
<path d="M198.699 17.7048C202.163 17.7048 204.857 18.689 206.651 20.6186C208.279 18.8048 210.846 17.7048 214.603 17.7048C221.287 17.7048 224.983 20.9968 224.983 28.0246V37.287H220.178V26.8244C220.178 21.5449 218.071 19.9857 214.603 20.0243C211.178 20.0243 209.029 21.6606 209.029 26.8244V37.287H204.251C204.251 37.287 204.251 27.3338 204.251 26.8244C204.251 21.5449 202.163 19.9896 198.695 20.0243C195.231 20.0667 193.121 21.5796 193.121 26.8244V37.287H188.319V28.0246C188.319 20.9968 192.058 17.7048 198.699 17.7048Z" fill="#5E2A7E"/>
<path d="M138.349 18.0792H128.607L128.232 21.6606L128.24 21.6645C128.24 21.6645 136.231 21.6645 139.022 21.6645C141.199 21.6645 141.202 23.351 141.202 23.764V24.0496L141.199 24.0418H131.611C128.178 24.1229 125.635 25.2344 124.761 28.8312C124.653 29.2982 124.591 30.0662 124.591 30.5756C124.591 31.0812 124.653 31.7952 124.761 32.2699C125.414 35.477 127.954 37.2986 131.611 37.2986C131.611 37.2986 139.2 37.2986 139.76 37.2986C141.477 37.2986 142.583 36.9667 143.982 35.9555C145.157 35.1065 145.695 33.8059 145.695 32.4551C145.695 31.3668 145.695 22.9998 145.695 22.9998C145.695 19.5496 143.367 18.056 138.349 18.0792ZM141.202 31.2201C141.202 31.6331 141.199 33.6901 139.022 33.6901C136.231 33.6901 130.741 33.6901 130.741 33.6901C129.071 33.6901 127.513 32.4706 127.513 30.5525C127.513 28.6537 129.071 27.6117 130.703 27.6117L141.202 27.6194V31.2201Z" fill="#5E2A7E"/>
<path d="M9.4641 27.3979C9.4641 32.6238 12.9836 37.0675 18.636 37.0675C21.1956 37.0675 23.1153 36.1432 24.6084 34.5435V36.3565H28.3412V9.694H24.6084V20.2524C23.1153 18.6526 21.1956 17.7283 18.636 17.7283C12.9836 17.7283 9.4641 22.1721 9.4641 27.3979ZM13.3391 27.3979C13.3391 23.8785 15.6498 21.1767 19.0982 21.1767C21.3378 21.1767 23.2931 22.2076 24.6084 24.1629V30.633C23.3997 32.5171 21.4089 33.6192 19.0982 33.6192C15.6498 33.6192 13.3391 30.9174 13.3391 27.3979ZM39.6857 36.8898C41.8898 36.8898 44.1295 35.8944 45.4093 34.3302V36.3565H49.0709V24.5184C49.0709 20.5723 46.4047 17.7283 41.5699 17.7283C38.3704 17.7283 35.8108 19.0792 34.211 21.2122L36.9484 23.3097C37.9793 21.8521 39.508 20.9634 41.4632 20.9634C43.774 20.9634 45.4093 22.3143 45.4093 24.5184V25.4427L39.6146 26.4025C35.8108 27.0424 33.7133 28.9977 33.7133 31.6995C33.7133 34.8634 36.1307 36.8898 39.6857 36.8898ZM37.4105 31.5573C37.4105 30.2064 38.3348 29.2465 40.5745 28.8555L45.4093 28.0378V31.1307C44.3428 32.8371 42.6008 33.9036 40.3612 33.9036C38.5126 33.9036 37.4105 32.9437 37.4105 31.5573ZM56.3708 30.1353C56.3708 34.5079 58.5749 36.712 62.7698 36.712C64.1563 36.712 65.1517 36.5343 66.0049 36.1788V32.9437C65.365 33.1926 64.5473 33.3348 63.3386 33.3348C61.3478 33.3348 60.068 32.5527 60.068 30.1353V21.7455H66.0049V18.4393H60.068V13.96H56.3708V18.4393H52.9936V21.7455H56.3708V30.1353ZM75.8066 36.8898C78.0107 36.8898 80.2504 35.8944 81.5302 34.3302V36.3565H85.1918V24.5184C85.1918 20.5723 82.5256 17.7283 77.6908 17.7283C74.4913 17.7283 71.9317 19.0792 70.3319 21.2122L73.0693 23.3097C74.1002 21.8521 75.6289 20.9634 77.5841 20.9634C79.8949 20.9634 81.5302 22.3143 81.5302 24.5184V25.4427L75.7355 26.4025C71.9317 27.0424 69.8342 28.9977 69.8342 31.6995C69.8342 34.8634 72.2516 36.8898 75.8066 36.8898ZM73.5314 31.5573C73.5314 30.2064 74.4557 29.2465 76.6954 28.8555L81.5302 28.0378V31.1307C80.4637 32.8371 78.7217 33.9036 76.4821 33.9036C74.6335 33.9036 73.5314 32.9437 73.5314 31.5573Z" fill="#009640"/>
<rect x="91.2822" y="21.0694" width="10.3688" height="27.65" rx="5.18438" transform="rotate(-45 91.2822 21.0694)" fill="white"/>
<path d="M94.9481 24.7351C92.9235 22.7105 92.9235 19.428 94.9481 17.4033C96.9728 15.3787 100.255 15.3787 102.28 17.4033L108.552 23.6751C108.552 23.6751 105.668 24.9156 104.243 26.2673C102.651 27.7786 101.22 31.007 101.22 31.007L94.9481 24.7351Z" fill="#009640"/>
<ellipse cx="98.5829" cy="19.0641" rx="1.33811" ry="1.2188" transform="rotate(-45 98.5829 19.0641)" fill="white"/>
<rect x="91.2822" y="21.0703" width="10.3688" height="27.65" rx="5.18438" transform="rotate(-45 91.2822 21.0703)" stroke="black" stroke-width="1.975" stroke-linecap="round" stroke-linejoin="round"/>
<path d="M101.242 30.9856C101.242 30.9856 102.817 27.7757 104.459 26.2674C105.801 25.0355 108.421 23.8065 108.421 23.8065" stroke="black" stroke-width="1.975" stroke-linecap="round" stroke-linejoin="round"/>
</svg>
