<svg viewBox="0 0 122 120" fill="none" xmlns="http://www.w3.org/2000/svg">
<path d="M90.7389 39.6489H1V99.127H90.7389V39.6489Z" fill="#F4F4F4" stroke="black" stroke-linecap="round" stroke-linejoin="round"/>
<path d="M90.2169 95.0113V98.6055H1.52148V40.1709H11.4345L38.9218 95.0113H90.2169Z" fill="#FAFAFA"/>
<path d="M117.538 76.6162L112.375 66.2905H101.875V76.6162H117.538Z" fill="white" stroke="black" stroke-linecap="round" stroke-linejoin="round"/>
<path d="M102.25 75L108.25 66.75H112.375L113.875 70.125L108.625 76.125H102.25V75Z" fill="#F4F4F4"/>
<path d="M109.904 62.6055H90.7393V99.1271H121V80.3981L117.974 76.6523H101.835V66.3513H112.93L109.904 62.6055Z" fill="#FAFAFA" stroke="black" stroke-linecap="round" stroke-linejoin="round"/>
<path d="M92.5 63H91V98.7422H120.625V94.875H96.625L92.5 63Z" fill="#999999"/>
<ellipse cx="19.7829" cy="101.214" rx="9.39128" ry="9.39128" fill="#999999" stroke="black"/>
<path d="M13 101.25C13 97.5221 16.0221 94.5 19.75 94.5" stroke="black" stroke-linecap="round" stroke-linejoin="round"/>
<circle cx="106.391" cy="101.214" r="9.39128" fill="#999999" stroke="black"/>
<path d="M100 101.25C100 97.5221 103.022 94.5 106.75 94.5" stroke="black" stroke-linecap="round" stroke-linejoin="round"/>
<ellipse cx="19.7823" cy="101.214" rx="4.1739" ry="4.1739" fill="black"/>
<ellipse cx="106.391" cy="101.214" rx="4.1739" ry="4.1739" fill="black"/>
<path d="M33.3477 95.9966L87.6084 95.9966" stroke="black" stroke-linecap="round" stroke-linejoin="round"/>
<rect width="17.4141" height="46.4376" rx="8.70705" transform="matrix(0.699118 -0.715007 0.699118 0.715007 24.6748 57.0059)" fill="white"/>
<path d="M30.7621 63.2315C27.4002 59.7932 27.4002 54.2186 30.7621 50.7803C34.1239 47.342 39.5747 47.342 42.9366 50.7803L53.3509 61.4313C53.3509 61.4313 48.5617 63.538 46.1965 65.8335C43.5521 68.3999 41.1764 73.8825 41.1764 73.8825L30.7621 63.2315Z" fill="#999999"/>
<ellipse rx="2.24733" ry="2.04695" transform="matrix(0.699118 -0.715007 0.699118 0.715007 36.2854 52.0291)" fill="white"/>
<path d="M28.9792 57.0293L56.957 85.6433C55.1636 85.6433 53.3671 84.7736 52.2941 83.8091C51.886 83.4423 31.0414 62.1651 30.7726 61.7983C28.8911 59.2304 28.9792 57.0293 28.9792 57.0293Z" fill="#FAFAFA"/>
<rect width="17.4141" height="46.4376" rx="8.70705" transform="matrix(0.699118 -0.715007 0.699118 0.715007 24.6748 57.0073)" stroke="black" stroke-linecap="round" stroke-linejoin="round"/>
<path d="M41.2139 73.8463C41.2139 73.8463 43.8279 68.3952 46.5556 65.8338C48.7835 63.7416 53.1347 61.6546 53.1347 61.6546" stroke="black" stroke-linecap="round" stroke-linejoin="round"/>
<mask id="path-20-inside-1_5370_26180" fill="white">
<path fill-rule="evenodd" clip-rule="evenodd" d="M92.682 4.31803L89.5 7.50001L98.693 16.693L89.318 26.068L92.5 29.25L101.875 19.875L111.328 29.3281L114.51 26.1461L105.057 16.693L114.328 7.4219L111.146 4.23992L101.875 13.5111L92.682 4.31803Z"/>
</mask>
<path fill-rule="evenodd" clip-rule="evenodd" d="M92.682 4.31803L89.5 7.50001L98.693 16.693L89.318 26.068L92.5 29.25L101.875 19.875L111.328 29.3281L114.51 26.1461L105.057 16.693L114.328 7.4219L111.146 4.23992L101.875 13.5111L92.682 4.31803Z" fill="white"/>
<path d="M89.5 7.50001L88.7929 6.7929L88.0858 7.50001L88.7929 8.20712L89.5 7.50001ZM92.682 4.31803L93.3891 3.61092L92.682 2.90381L91.9749 3.61092L92.682 4.31803ZM98.693 16.693L99.4001 17.4002L100.107 16.693L99.4001 15.9859L98.693 16.693ZM89.318 26.068L88.6109 25.3609L87.9038 26.068L88.6109 26.7751L89.318 26.068ZM92.5 29.25L91.7929 29.9571L92.5 30.6642L93.2071 29.9571L92.5 29.25ZM101.875 19.875L102.582 19.1679L101.875 18.4608L101.168 19.1679L101.875 19.875ZM111.328 29.3281L110.621 30.0352L111.328 30.7423L112.035 30.0352L111.328 29.3281ZM114.51 26.1461L115.217 26.8533L115.924 26.1461L115.217 25.439L114.51 26.1461ZM105.057 16.693L104.35 15.9859L103.643 16.693L104.35 17.4002L105.057 16.693ZM114.328 7.4219L115.035 8.12901L115.742 7.4219L115.035 6.71479L114.328 7.4219ZM111.146 4.23992L111.853 3.53281L111.146 2.82571L110.439 3.53281L111.146 4.23992ZM101.875 13.5111L101.168 14.2182L101.875 14.9253L102.582 14.2182L101.875 13.5111ZM90.2071 8.20712L93.3891 5.02514L91.9749 3.61092L88.7929 6.7929L90.2071 8.20712ZM99.4001 15.9859L90.2071 6.7929L88.7929 8.20712L97.9859 17.4002L99.4001 15.9859ZM90.0251 26.7751L99.4001 17.4002L97.9859 15.9859L88.6109 25.3609L90.0251 26.7751ZM93.2071 28.5429L90.0251 25.3609L88.6109 26.7751L91.7929 29.9571L93.2071 28.5429ZM101.168 19.1679L91.7929 28.5429L93.2071 29.9571L102.582 20.5821L101.168 19.1679ZM112.035 28.621L102.582 19.1679L101.168 20.5821L110.621 30.0352L112.035 28.621ZM113.803 25.439L110.621 28.621L112.035 30.0352L115.217 26.8533L113.803 25.439ZM104.35 17.4002L113.803 26.8533L115.217 25.439L105.764 15.9859L104.35 17.4002ZM113.621 6.71479L104.35 15.9859L105.764 17.4002L115.035 8.12901L113.621 6.71479ZM110.439 4.94703L113.621 8.12901L115.035 6.71479L111.853 3.53281L110.439 4.94703ZM102.582 14.2182L111.853 4.94703L110.439 3.53281L101.168 12.804L102.582 14.2182ZM91.9749 5.02514L101.168 14.2182L102.582 12.804L93.3891 3.61092L91.9749 5.02514Z" fill="black" mask="url(#path-20-inside-1_5370_26180)"/>
</svg>
