<svg width="32" height="32" viewBox="0 0 32 32" fill="none" xmlns="http://www.w3.org/2000/svg">
<path d="M16 27.9999C12.8 27.9999 12 26.2221 12 25.3333H20C20 26.2221 19.2 27.9999 16 27.9999Z" fill="white" stroke="#E50046" stroke-linecap="round" stroke-linejoin="round"/>
<path d="M12 25.3334V22.6667H20V25.3334H12Z" fill="white" stroke="#E50046" stroke-linecap="round" stroke-linejoin="round"/>
<path d="M25.3332 12.6154C25.3332 16.9231 19.9998 20 19.9998 22.6667C19.5137 22.6667 12.5346 22.6667 11.9998 22.6667C11.9998 20 6.6665 16.9231 6.6665 12.6154C6.6665 7.85724 10.8452 4 15.9998 4C21.1545 4 25.3332 7.85724 25.3332 12.6154Z" fill="white" stroke="#E50046" stroke-linecap="round" stroke-linejoin="round"/>
<path d="M14.6667 20V13.3333C14.6667 12.8889 14.4 12 13.3333 12C12.2667 12 12 12.8889 12 13.3333C12 13.7778 12.2667 14.6667 13.3333 14.6667C14.4 14.6667 17.3333 14.6667 18.6667 14.6667C19.1111 14.6667 20 14.4 20 13.3333C20 12.2667 19.1111 12 18.6667 12C18.2222 12 17.3333 12.2667 17.3333 13.3333C17.3333 14.4 17.3333 18.2222 17.3333 20" stroke="#E50046" stroke-linecap="round" stroke-linejoin="round"/>
</svg>
