<svg width="80" height="81" viewBox="0 0 80 81" fill="none" xmlns="http://www.w3.org/2000/svg">
    <path d="M16.3329 59.8085C19.3333 60.8086 21.444 64.9196 21.6662 67.1419C23.6659 67.8085 27 60.1419 26.6667 59.4753C25.5618 57.2656 22.6989 54.2602 21 56.8086C20.3333 57.8086 14.9189 59.3372 16.3329 59.8085Z" fill="#F2F2F2"/>
    <path d="M16.3329 64.4752C18.2389 65.9578 19.1107 70.5863 18.9996 73.4752C5.66631 71.8085 6.66631 65.1419 7.33297 63.8085C7.99964 62.4752 13.3333 62.1419 16.3329 64.4752Z" fill="#F2F2F2"/>
    <path d="M23.6663 72.4752C26.4441 71.8085 32.0663 69.4085 32.333 65.1419C32.6663 59.8085 21.6663 71.4752 23.6663 72.4752Z" fill="#F2F2F2"/>
    <path d="M12 59.1419C9.86667 59.1419 7.77778 58.253 7 57.8086C9 57.1419 18.9996 57.4753 18.6667 57.8086C18.3337 58.1419 14.6667 59.1419 12 59.1419Z" fill="#F2F2F2"/>
    <path fill-rule="evenodd" clip-rule="evenodd" d="M77.9894 27.5102C77.6239 39.1963 68.8062 48.4201 57.3496 48.7971C45.5093 49.1868 35.3339 39.5939 35.334 27.5102C35.3341 14.8784 45.1336 4.41801 57.3496 4.8198C69.1941 5.20936 78.3672 15.4285 77.9894 27.5102ZM67.9733 13.0422C67.8079 12.9066 43.1524 38.3753 43.1524 38.3753C40.5747 34.9847 39.0079 31.6137 38.971 27.3232C38.889 17.7637 47.79 8.37562 57.1603 8.56478C61.3819 8.65001 64.696 10.3265 67.9733 13.0422ZM45.0669 40.4229L69.9414 15.0898C72.8846 18.7785 74.5491 22.5719 74.3438 27.3232C73.9557 36.3067 65.9674 44.6524 57.1603 45.052C52.4518 45.2657 48.6801 43.51 45.0669 40.4229Z" fill="#F2F2F2" stroke="black" stroke-linecap="round" stroke-linejoin="round"/>
    <path d="M16.3517 59.8376C19.4801 60.6552 21.3155 63.8669 21.315 67.0789" stroke="black" stroke-linecap="round" stroke-linejoin="round"/>
    <path d="M10.259 60.0666C8.79773 60.2323 23.7806 59.6018 20.0508 55.4199C16.8826 52.6319 3.66553 49.9626 2.79986 57.7432C1.79638 66.7625 6.52908 72.4841 15.2269 74.3855C19.1861 75.251 25.2783 74.8562 28.5742 72.5581C35.9688 67.402 34.3448 58.7525 34.4943 50.7538C34.5409 48.2645 35.4363 35.9042 32.6389 34.5102C30.3077 33.5809 28.6584 52.5969 28.667 49.9626C28.6762 47.1453 30.4197 29.4451 26.9639 29.407C22.9654 28.9343 23.3645 44.7328 22.1943 49.9626C21.4493 44.2681 23.6021 26.4203 20.0508 26.1464C15.3839 25.7865 15.0389 45.6605 15.0003 49.1414C15.1117 39.0816 14.4558 29.9256 11.6083 29.9256C7.92855 29.9256 9.11393 43.8168 8.39493 52.1672" stroke="black" stroke-linecap="round" stroke-linejoin="round"/>
</svg>
