<svg width="80" height="81" viewBox="0 0 80 81" fill="none" xmlns="http://www.w3.org/2000/svg">
    <path d="M55.6663 58.1425C55.3997 57.8759 19.9997 58.0314 2.33301 58.1425L16.9997 42.8092L55.6663 42.1426L70.9997 42.4759L56.6663 58.8092C56.4441 58.6981 55.933 58.4092 55.6663 58.1425Z" fill="#FAFAFA"/>
    <path d="M46.9524 53.8119C51.5641 53.8119 54.9547 52.7681 55.3026 51.3764C55.8245 49.2888 55.9985 47.5492 55.9985 46.5054V32.5883C55.4186 28.7611 53.9805 20.7588 51.4754 20.7588C47.3003 22.1505 43.705 21.3387 42.4293 20.7588C39.9242 20.7588 38.4861 28.7611 37.9062 32.5883V46.5054C37.9062 47.5492 38.2542 49.6368 38.6021 51.3764C38.8355 52.5431 42.3406 53.8119 46.9524 53.8119Z" fill="#999999"/>
    <path d="M39.6459 51.3763C39.9242 51.933 42.5453 52.536 43.821 52.768C42.4291 48.3146 43.4731 30.9646 44.1691 22.8462C42.0813 22.1505 42.7774 22.4983 42.0813 22.1504C37.2104 32.9361 39.2979 50.6804 39.6459 51.3763Z" fill="white"/>
    <path d="M47.3003 35.0231C41.4551 35.3015 38.6021 33.7474 37.9062 32.9355V46.8526C38.8341 47.6645 42.0118 48.9402 47.3003 48.9402C52.5888 48.9402 55.3026 47.5485 55.9985 46.8526V32.9355C55.5346 33.5154 53.1455 34.7448 47.3003 35.0231Z" fill="#F4F4F4"/>
    <path d="M51.824 20.5622C47.9272 22.8077 43.7057 21.4978 42.082 20.5622C42.43 17.7554 42.43 14.9485 42.7779 12.5427C45.9092 10.5377 49.5045 11.4734 51.1281 12.5427C51.4761 14.1466 51.4761 17.3544 51.824 20.5622Z" fill="#F4F4F4"/>
    <path d="M64.6057 66.9081C64.6057 61.6806 59.3433 58.3408 54.3207 58.3408H2.41699V75.4754H54.3207C59.8217 75.4754 64.6057 72.1356 64.6057 66.9081Z" fill="#E6E6E6"/>
    <path d="M49.2985 66.8702C49.3418 65.8148 50.1998 65.0331 51.2195 65.0381C52.234 65.0431 53.0791 65.8202 53.1222 66.8702C53.1672 67.9644 52.2767 68.8598 51.2195 68.865C50.1573 68.8703 49.2534 67.9696 49.2985 66.8702Z" fill="white"/>
    <path d="M30.1637 66.8702C30.2071 65.8148 31.0651 65.0331 32.0848 65.0381C33.0992 65.0431 33.9443 65.8202 33.9875 66.8702C34.0324 67.9644 33.1419 68.8598 32.0848 68.865C31.0226 68.8703 30.1186 67.9696 30.1637 66.8702Z" fill="white"/>
    <path d="M11.0299 66.8702C11.0733 65.8148 11.9313 65.0331 12.951 65.0381C13.9654 65.0431 14.8105 65.8202 14.8537 66.8702C14.8986 67.9644 14.0081 68.8598 12.951 68.865C11.8888 68.8703 10.9848 67.9696 11.0299 66.8702Z" fill="white"/>
    <ellipse cx="47.2015" cy="12.5997" rx="4.17513" ry="1.12407" stroke="black"/>
    <path d="M52.072 20.2002C52.072 20.5845 49.8912 21.5919 47.2011 21.5919C44.5109 21.5919 42.3301 20.5845 42.3301 20.2002" stroke="black" stroke-linecap="round" stroke-linejoin="round"/>
    <path d="M56.2475 32.3779C56.2475 33.723 52.1974 34.8134 47.2014 34.8134C42.2054 34.8134 38.1553 33.723 38.1553 32.3779" stroke="black" stroke-linecap="round" stroke-linejoin="round"/>
    <path d="M56.2475 46.2949C56.2475 47.64 52.1974 48.7304 47.2014 48.7304C42.2054 48.7304 38.1553 47.64 38.1553 46.2949" stroke="black" stroke-linecap="round" stroke-linejoin="round"/>
    <path d="M42.6783 20.5488C40.1733 20.5488 38.7352 28.5512 38.1553 32.3784V46.2954C38.1553 47.3392 38.5032 49.4268 38.8511 51.1664C39.0845 52.3332 42.5897 53.6019 47.2014 53.6019C51.8131 53.6019 55.2037 52.5581 55.5516 51.1664C56.0735 49.0789 56.2475 47.3392 56.2475 46.2954V32.3784C55.6676 28.5512 54.2295 20.5488 51.7244 20.5488" stroke="black" stroke-linecap="round" stroke-linejoin="round"/>
    <path d="M43.0259 12.5459L42.3301 20.2003" stroke="black" stroke-linecap="round" stroke-linejoin="round"/>
    <path d="M51.3764 12.8945L52.0723 20.201" stroke="black" stroke-linecap="round" stroke-linejoin="round"/>
    <path d="M47.2021 19.8531V15.3301" stroke="black" stroke-linecap="round" stroke-linejoin="round"/>
    <path d="M44.9173 19.8437L45.3115 15.3379" stroke="black" stroke-linecap="round" stroke-linejoin="round"/>
    <path d="M49.486 19.8437L49.0918 15.3379" stroke="black" stroke-linecap="round" stroke-linejoin="round"/>
    <path d="M2.66699 58.1309H54.5707C59.5933 58.1309 64.8557 61.4707 64.8557 66.6981C64.8557 71.9256 60.0717 75.2655 54.5707 75.2654H2.66699" stroke="black" stroke-linecap="round" stroke-linejoin="round"/>
    <path d="M71.074 42.3447L56.916 58.2658" stroke="black"/>
    <path d="M62.8604 46.5996L54.583 55.2663" stroke="black" stroke-linecap="round"/>
    <path d="M33.2836 46.6504L24.6729 55.2611" stroke="black" stroke-linecap="round"/>
    <path d="M25.6293 46.6504L17.0186 55.2611" stroke="black" stroke-linecap="round"/>
    <path d="M17.9759 46.6504L9.36523 55.2611" stroke="black" stroke-linecap="round"/>
    <path d="M50.2497 54.5996L49.583 55.2615" stroke="black" stroke-linecap="round"/>
    <path d="M44.9167 54.5996L44.25 55.2615" stroke="black" stroke-linecap="round"/>
    <path d="M39.583 53.5996L38.0674 55.2615" stroke="black" stroke-linecap="round"/>
    <path d="M58.4316 46.5996L56.916 48.2615" stroke="black" stroke-linecap="round"/>
    <path d="M37.1096 49.5205L31.3691 55.261" stroke="black" stroke-linecap="round"/>
    <path d="M57.9873 41.3662C57.7112 41.3662 57.4873 41.5901 57.4873 41.8662C57.4873 42.1424 57.7112 42.3662 57.9873 42.3662V41.3662ZM76.5503 55.3141L76.9378 55.63L76.9403 55.6269L76.5503 55.3141ZM67.9647 42.3662C70.3724 42.3662 72.8354 43.1687 74.6867 44.5865C76.5316 45.9995 77.7497 48.0044 77.7497 50.4335H78.7497C78.7497 47.6351 77.3366 45.3564 75.2947 43.7926C73.2591 42.2336 70.5796 41.3662 67.9647 41.3662V42.3662ZM57.9873 42.3662H67.9647V41.3662H57.9873V42.3662ZM76.2015 54.9494L76.159 55.0028L76.9416 55.6253L76.9841 55.5719L76.2015 54.9494ZM76.1628 54.9981L62.554 71.6877L63.329 72.3197L76.9378 55.63L76.1628 54.9981ZM77.7497 50.4335C77.7497 52.2156 77.1592 53.756 76.1603 55.0012L76.9403 55.6269C78.0773 54.2096 78.7497 52.4499 78.7497 50.4335H77.7497Z" fill="black"/>
    <path d="M49.5485 66.6602C49.5918 65.6048 50.4498 64.8231 51.4695 64.8281C52.484 64.8332 53.3291 65.6102 53.3722 66.6602C53.4172 67.7544 52.5267 68.6498 51.4695 68.6551C50.4073 68.6604 49.5034 67.7597 49.5485 66.6602Z" stroke="black" stroke-linecap="round" stroke-linejoin="round"/>
    <path d="M30.4137 66.6602C30.4571 65.6048 31.3151 64.8231 32.3348 64.8281C33.3492 64.8332 34.1943 65.6102 34.2375 66.6602C34.2824 67.7544 33.3919 68.6498 32.3348 68.6551C31.2726 68.6604 30.3686 67.7597 30.4137 66.6602Z" stroke="black" stroke-linecap="round" stroke-linejoin="round"/>
    <path d="M11.2799 66.6602C11.3233 65.6048 12.1813 64.8231 13.201 64.8281C14.2154 64.8332 15.0605 65.6102 15.1037 66.6602C15.1486 67.7544 14.2581 68.6498 13.201 68.6551C12.1388 68.6604 11.2348 67.7597 11.2799 66.6602Z" stroke="black" stroke-linecap="round" stroke-linejoin="round"/>
    <path d="M17.25 42.3926L36.6317 42.3926" stroke="black" stroke-linecap="round" stroke-linejoin="round"/>
    <rect x="13.1035" y="14.8555" width="0.884678" height="22.1169" rx="0.442339" transform="rotate(-45 13.1035 14.8555)" fill="black"/>
    <rect x="13.7305" y="30.4941" width="0.884678" height="22.1169" rx="0.442339" transform="rotate(-135 13.7305 30.4941)" fill="black"/>
</svg>
