<svg width="80" height="81" viewBox="0 0 80 81" fill="none" xmlns="http://www.w3.org/2000/svg">
    <path d="M12.4406 30.1429C17.6217 17.9269 29.2491 11.6175 42.91 13.1892C60.1082 15.168 72.6243 32.5576 67.6634 48.4632C63.8077 60.8254 53.4025 68.0252 39.94 68.1005C21.1108 68.2058 5.35014 46.8608 12.4406 30.1429Z" fill="#F4F4F4"/>
    <path d="M19.9205 33.0695C23.669 24.3567 32.0814 19.8567 41.9651 20.9777C54.4079 22.389 63.4633 34.7917 59.8741 46.1359C57.0845 54.9529 49.5563 60.0879 39.8163 60.1416C26.1934 60.2168 14.7906 44.993 19.9205 33.0695Z" fill="#F2F2F2"/>
    <path d="M30.5372 36.6273C32.1437 32.4925 35.749 30.3568 39.9849 30.8888C45.3175 31.5586 49.1984 37.4446 47.6602 42.8283C46.4647 47.0127 43.2383 49.4496 39.064 49.4751C33.2256 49.5108 28.3387 42.2859 30.5372 36.6273Z" fill="#E6E6E6"/>
    <path d="M29.6684 20.0138C28.9034 17.7188 33.0557 15.3852 34.5971 17.2692C35.6977 18.6143 35.366 22.3163 33.2679 22.2251C31.7746 22.1601 30.1672 21.5102 29.6684 20.0138Z" fill="white"/>
    <path d="M47.0824 58.4728C46.3174 56.1778 50.4697 53.8442 52.0111 55.7281C53.1117 57.0733 52.7801 60.7753 50.6819 60.684C49.1886 60.6191 47.5812 59.9692 47.0824 58.4728Z" fill="white"/>
    <path d="M39.8266 48.3136C39.0616 46.0186 43.2139 43.685 44.7553 45.569C45.8559 46.9141 45.5242 50.6161 43.4261 50.5249C41.9328 50.4599 40.3254 49.81 39.8266 48.3136Z" fill="white"/>
    <path d="M44.9066 23.6417C44.1416 21.3467 48.2939 19.0132 49.8353 20.8971C50.9359 22.2423 50.6043 25.9442 48.5062 25.853C47.0129 25.7881 45.4055 25.1382 44.9066 23.6417Z" fill="white"/>
    <path d="M28.9418 55.5704C28.1768 53.2754 32.3291 50.9419 33.8705 52.8258C34.9711 54.171 34.6395 57.8729 32.5413 57.7817C31.048 57.7168 29.4406 57.0669 28.9418 55.5704Z" fill="white"/>
    <path d="M28.3921 44.6664C25.9742 44.5869 25.2276 39.8827 27.5295 39.0913C29.1731 38.5263 32.5296 40.1226 31.7156 42.0585C31.1362 43.4364 29.9686 44.7182 28.3921 44.6664Z" fill="white"/>
    <path d="M58.2241 46.1927C55.8063 46.1133 55.0596 41.4091 57.3615 40.6177C59.0052 40.0526 62.3616 41.649 61.5476 43.5849C60.9682 44.9628 59.8007 46.2445 58.2241 46.1927Z" fill="white"/>
    <path d="M49.7769 37.1822C48.8025 39.3965 44.1588 38.3371 44.2818 35.9061C44.3696 34.1702 47.1014 31.6499 48.5948 33.1265C49.6576 34.1775 50.4122 35.7385 49.7769 37.1822Z" fill="white"/>
    <path d="M62.8384 33.5533C61.8641 35.7676 57.2203 34.7082 57.3433 32.2772C57.4312 30.5413 60.1629 28.021 61.6563 29.4976C62.7192 30.5486 63.4738 32.1096 62.8384 33.5533Z" fill="white"/>
    <path d="M22.9273 49.5182C21.9529 51.7324 17.3091 50.6731 17.4322 48.242C17.52 46.5062 20.2518 43.9859 21.7451 45.4625C22.808 46.5134 23.5626 48.0744 22.9273 49.5182Z" fill="white"/>
    <path d="M24.3785 31.3766C23.4041 33.5908 18.7603 32.5315 18.8833 30.1004C18.9712 28.3646 21.7029 25.8443 23.1963 27.3209C24.2592 28.3718 25.0138 29.9328 24.3785 31.3766Z" fill="white"/>
    <path d="M32.9999 20.4744C32.4666 20.7411 30.9999 19.4744 30.3332 19.8078C30.6666 20.8078 31.6666 21.4744 32.9999 21.4744C34.3332 21.4744 34.6666 18.8078 34.3332 19.1411C33.9999 19.4744 33.6666 20.1411 32.9999 20.4744Z" fill="#999999"/>
    <path d="M47.3332 24.1411C46.7999 23.8744 46.3332 22.8078 45.9999 22.4744C45.3332 23.1411 45.6666 24.2744 46.9999 24.8078C48.3332 25.3411 49.6666 24.8078 49.6666 24.1411C49.3332 23.8078 47.8666 24.4078 47.3332 24.1411Z" fill="#999999"/>
    <path d="M62 33.4744C62.6146 32.2452 59 30.8078 58.6666 31.1411C58.4444 31.8078 58.1332 32.9411 58.6666 33.4744C59.3332 34.1411 61.6667 34.1411 62 33.4744Z" fill="#999999"/>
    <path d="M60.3332 43.4744C59.9998 42.1411 58.2221 42.4744 57.3332 42.1411C56.3332 43.1411 56.9998 44.4744 57.9998 45.1411C58.9998 45.8078 60.4476 43.9318 60.3332 43.4744Z" fill="#999999"/>
    <path d="M45.9999 37.1411C46.7999 37.9411 48.3332 37.4744 48.9999 37.1411C49.3332 36.8078 48.9999 35.8078 48.6666 35.1411C48.3332 34.4744 47.9999 34.1411 46.3332 34.4744C44.6666 34.8078 44.9999 36.1411 45.9999 37.1411Z" fill="#999999"/>
    <path d="M43.3332 46.1411C41.6665 45.8078 40.6665 47.1411 40.6666 47.8078C40.8888 48.1411 41.4666 48.8744 41.9999 49.1411C42.6666 49.4744 42.9999 49.4744 43.9999 49.1411C44.9999 48.8078 45.2392 46.5223 43.3332 46.1411Z" fill="#999999"/>
    <path d="M30.6666 41.1411C30.6665 40.2978 28.7777 40.1411 27.6666 40.1411C26.6666 41.1411 27.6666 42.8078 28.3332 43.4744C28.9999 44.1411 30.6667 42.8078 30.6666 41.1411Z" fill="#999999"/>
    <path d="M32.9998 53.1411C32.333 52.4742 30.3332 53.4744 29.6667 54.8078C29.6667 56.1411 30.9998 57.1411 32.6667 56.8078C34.3336 56.4744 34.3332 54.4744 32.9998 53.1411Z" fill="#999999"/>
    <path d="M49.9998 56.4744C48.3332 56.4744 47.9998 57.4744 47.9998 58.1411C48.3332 59.1411 49.2791 59.8078 50.3332 59.8078C51.9998 59.8078 51.9998 58.4744 51.6665 57.4744C51.4307 56.7672 51.1451 56.4744 49.9998 56.4744Z" fill="#999999"/>
    <path d="M20.6664 49.8078C21.7331 49.8078 22.1839 48.9124 21.9998 47.8078C21.8485 46.8998 20.6664 46.1411 20.6664 46.1411C19.9998 45.8078 18.5999 47.6078 18.3331 48.1411C17.9996 48.8078 19.3331 49.8078 20.6664 49.8078Z" fill="#999999"/>
    <path d="M19.6667 30.1411C19.4 30.6744 20.7776 31.4744 21.6665 31.8078C22.733 31.8078 24 31.4744 23.6664 30.1411C22.9998 30.2522 22.4583 30.4744 21.6665 30.4744C20.8747 30.4745 20 29.4744 19.6667 30.1411Z" fill="#999999"/>
    <path d="M37.5566 6.68699C37.5566 6.14031 37.7858 5.02089 38.2823 4.6908C39.3836 3.95849 41.72 3.95857 42.6361 4.69083C43.0982 5.06019 43.3618 6.13227 43.3618 6.68087C43.3618 7.22947 42.4347 7.23054 41.5477 7.23054H39.5302H39.5152C38.6324 7.23055 37.5566 7.23058 37.5566 6.68699Z" fill="#E6E6E6"/>
    <path d="M74.9214 37.5215C75.4681 37.5215 76.5875 37.7507 76.9176 38.2471C77.6499 39.3485 77.6498 41.6849 76.9176 42.601C76.5482 43.0631 75.4761 43.3266 74.9275 43.3266C74.3789 43.3266 74.3779 42.3996 74.3779 41.5125L74.3779 39.4951L74.3779 39.48C74.3778 38.5972 74.3778 37.5215 74.9214 37.5215Z" fill="#E6E6E6"/>
    <path d="M4.54538 43.3262C3.99871 43.3262 2.87929 43.097 2.5492 42.6005C1.81689 41.4992 1.81697 39.1628 2.54923 38.2467C2.91859 37.7846 3.99067 37.521 4.53927 37.521C5.08787 37.521 5.08894 38.4481 5.08894 39.3351L5.08894 41.3526L5.08894 41.3676C5.08895 42.2504 5.08897 43.3262 4.54538 43.3262Z" fill="#E6E6E6"/>
    <path d="M67.789 62.1962C68.1756 62.5828 68.805 63.5364 68.6874 64.1209C68.4265 65.4174 66.7743 67.0695 65.6088 67.1995C65.0208 67.265 64.0764 66.6933 63.6885 66.3054C63.3006 65.9175 63.9553 65.2612 64.5826 64.634L66.0091 63.2074L66.0198 63.1968C66.644 62.5725 67.4046 61.8119 67.789 62.1962Z" fill="#E6E6E6"/>
    <path d="M13.0997 17.169C12.7131 16.7824 12.0836 15.8288 12.2013 15.2444C12.4622 13.9478 14.1143 12.2958 15.2799 12.1658C15.8678 12.1002 16.8123 12.6719 17.2002 13.0598C17.5881 13.4477 16.9333 14.104 16.3061 14.7313L14.8795 16.1578L14.8689 16.1684C14.2447 16.7927 13.484 17.5534 13.0997 17.169Z" fill="#E6E6E6"/>
    <path d="M17.9297 66.332C17.5432 66.7185 16.5896 67.348 16.0051 67.2304C14.7085 66.9694 13.0565 65.3173 12.9265 64.1517C12.8609 63.5638 13.4327 62.6194 13.8206 62.2315C14.2085 61.8435 14.8648 62.4983 15.492 63.1255L16.9186 64.5521L16.9292 64.5627C17.5534 65.187 18.3141 65.9476 17.9297 66.332Z" fill="#E6E6E6"/>
    <path d="M62.2626 14.5157C62.6492 14.1291 63.6028 13.4996 64.1873 13.6173C65.4839 13.8782 67.1359 15.5303 67.2659 16.6959C67.3315 17.2839 66.7597 18.2283 66.3718 18.6162C65.9839 19.0041 65.3276 18.3493 64.7004 17.7221L63.2738 16.2956L63.2632 16.2849C62.6389 15.6607 61.8783 14.9001 62.2626 14.5157Z" fill="#E6E6E6"/>
    <path d="M43.1387 74.0181C43.1387 74.5648 42.9095 75.6842 42.413 76.0143C41.3117 76.7466 38.9753 76.7465 38.0592 76.0143C37.5971 75.6449 37.3335 74.5728 37.3335 74.0242C37.3335 73.4756 38.2606 73.4745 39.1476 73.4745H41.1651H41.1801C42.0629 73.4745 43.1387 73.4745 43.1387 74.0181Z" fill="#E6E6E6"/>
    <path d="M12.4396 30.1429C17.6207 17.9269 29.2481 11.6175 42.9091 13.1892C60.1072 15.168 72.6233 32.5576 67.6624 48.4632C63.8067 60.8254 53.4015 68.0252 39.939 68.1005C21.1098 68.2058 5.34916 46.8608 12.4396 30.1429Z" stroke="black" stroke-linecap="round"/>
    <path d="M38.2822 12.9521C39.3707 12.2264 39.3707 8.89978 39.3707 7.50977" stroke="black" stroke-linecap="round"/>
    <path d="M42.6357 12.9521C41.5473 12.2264 41.5473 8.89978 41.5473 7.50977" stroke="black" stroke-linecap="round"/>
    <path d="M37.5566 6.78952C37.5566 6.24285 37.7858 5.12343 38.2823 4.79334C39.3836 4.06103 41.72 4.06111 42.6361 4.79337C43.0982 5.16273 43.3618 6.23481 43.3618 6.78341C43.3618 7.33201 42.4347 7.33308 41.5477 7.33308H39.5302H39.5152C38.6324 7.33309 37.5566 7.33311 37.5566 6.78952Z" stroke="black" stroke-linecap="round"/>
    <path d="M42.6367 68.1007C41.5483 68.8263 41.5483 72.153 41.5483 73.543" stroke="black" stroke-linecap="round"/>
    <path d="M38.2832 68.1007C39.3717 68.8263 39.3717 72.153 39.3717 73.543" stroke="black" stroke-linecap="round"/>
    <path d="M43.3623 74.2632C43.3623 74.8099 43.1331 75.9293 42.6367 76.2594C41.5353 76.9917 39.1989 76.9916 38.2828 76.2594C37.8207 75.89 37.5572 74.8179 37.5572 74.2693C37.5572 73.7207 38.4842 73.7197 39.3713 73.7197H41.3887H41.4038C42.2866 73.7196 43.3623 73.7196 43.3623 74.2632Z" stroke="black" stroke-linecap="round"/>
    <path d="M68.7598 38.3496C69.4855 39.4381 72.8121 39.4381 74.2021 39.4381" stroke="black" stroke-linecap="round"/>
    <path d="M68.7598 42.7031C69.4855 41.6147 72.8121 41.6147 74.2021 41.6147" stroke="black" stroke-linecap="round"/>
    <path d="M74.9214 37.624C75.4681 37.624 76.5875 37.8532 76.9176 38.3497C77.6499 39.451 77.6498 41.7874 76.9176 42.7035C76.5482 43.1656 75.4761 43.4291 74.9275 43.4291C74.3789 43.4291 74.3779 42.5021 74.3779 41.615L74.3779 39.5976L74.3779 39.5826C74.3778 38.6998 74.3778 37.624 74.9214 37.624Z" stroke="black" stroke-linecap="round"/>
    <path d="M11.0698 43.4287C10.3441 42.3402 6.65466 41.6146 5.26465 41.6146" stroke="black" stroke-linecap="round"/>
    <path d="M10.707 38.3496C9.98132 39.4381 6.65466 39.4381 5.26465 39.4381" stroke="black" stroke-linecap="round"/>
    <path d="M4.54538 43.4287C3.99871 43.4287 2.87929 43.1995 2.5492 42.7031C1.81689 41.6017 1.81697 39.2653 2.54923 38.3492C2.91859 37.8871 3.99067 37.6236 4.53927 37.6236C5.08787 37.6236 5.08894 38.5506 5.08894 39.4377L5.08894 41.4551L5.08894 41.4702C5.08895 42.353 5.08897 43.4287 4.54538 43.4287Z" stroke="black" stroke-linecap="round"/>
    <path d="M62.9546 57.5786C62.698 58.8613 65.014 62.0895 65.9969 63.0724" stroke="black" stroke-linecap="round"/>
    <path d="M59.3264 61.5696C60.6092 61.313 63.4747 63.6288 64.4576 64.6117" stroke="black" stroke-linecap="round"/>
    <path d="M67.789 62.2988C68.1756 62.6853 68.805 63.639 68.6874 64.2234C68.4265 65.52 66.7743 67.172 65.6088 67.302C65.0208 67.3676 64.0764 66.7959 63.6885 66.4079C63.3006 66.02 63.9553 65.3637 64.5826 64.7365L66.0091 63.3099L66.0198 63.2993C66.644 62.6751 67.4046 61.9144 67.789 62.2988Z" stroke="black" stroke-linecap="round"/>
    <path d="M17.9635 21.2965C18.22 20.0137 15.8744 17.481 14.8915 16.4981" stroke="black" stroke-linecap="round"/>
    <path d="M21.9555 18.0307C20.6728 18.2873 17.4142 15.9413 16.4313 14.9584" stroke="black" stroke-linecap="round"/>
    <path d="M13.0997 17.2715C12.7131 16.885 12.0836 15.9314 12.2013 15.3469C12.4622 14.0503 14.1143 12.3983 15.2799 12.2683C15.8678 12.2027 16.8123 12.7744 17.2002 13.1624C17.5881 13.5503 16.9333 14.2066 16.3061 14.8338L14.8795 16.2604L14.8689 16.271C14.2447 16.8952 13.484 17.6559 13.0997 17.2715Z" stroke="black" stroke-linecap="round"/>
    <path d="M22.3182 61.5694C21.0355 61.3129 18.1393 63.6588 17.1564 64.6417" stroke="black" stroke-linecap="round"/>
    <path d="M18.6892 58.3039C18.9458 59.5867 16.5997 62.1193 15.6168 63.1022" stroke="black" stroke-linecap="round"/>
    <path d="M17.9297 66.4335C17.5432 66.8201 16.5896 67.4496 16.0051 67.3319C14.7085 67.071 13.0565 65.4189 12.9265 64.2533C12.8609 63.6654 13.4327 62.7209 13.8206 62.333C14.2085 61.9451 14.8648 62.5999 15.492 63.2271L16.9186 64.6537L16.9292 64.6643C17.5534 65.2885 18.3141 66.0492 17.9297 66.4335Z" stroke="black" stroke-linecap="round"/>
    <path d="M57.8752 19.4822C59.158 19.7388 62.054 17.3928 63.0369 16.4099" stroke="black" stroke-linecap="round"/>
    <path d="M61.4964 22.567C61.2399 21.2843 63.5922 18.932 64.5751 17.9491" stroke="black" stroke-linecap="round"/>
    <path d="M62.2626 14.6182C62.6492 14.2317 63.6028 13.6022 64.1873 13.7198C65.4839 13.9808 67.1359 15.6329 67.2659 16.7985C67.3315 17.3864 66.7597 18.3308 66.3718 18.7187C65.9839 19.1067 65.3276 18.4519 64.7004 17.8246L63.2738 16.3981L63.2632 16.3875C62.6389 15.7632 61.8783 15.0026 62.2626 14.6182Z" stroke="black" stroke-linecap="round"/>
    <path d="M29.6674 20.0138C28.9024 17.7188 33.0547 15.3852 34.5961 17.2692C35.6967 18.6143 35.365 22.3163 33.2669 22.2251C31.7736 22.1601 30.1662 21.5102 29.6674 20.0138Z" stroke="black" stroke-linecap="round"/>
    <path d="M47.0824 58.4728C46.3174 56.1778 50.4697 53.8442 52.0111 55.7281C53.1117 57.0733 52.7801 60.7753 50.6819 60.684C49.1886 60.6191 47.5812 59.9692 47.0824 58.4728Z" stroke="black" stroke-linecap="round"/>
    <path d="M39.8266 48.3136C39.0616 46.0186 43.2139 43.685 44.7553 45.569C45.8559 46.9141 45.5242 50.6161 43.4261 50.5249C41.9328 50.4599 40.3254 49.81 39.8266 48.3136Z" stroke="black" stroke-linecap="round"/>
    <path d="M44.9057 23.6417C44.1407 21.3467 48.293 19.0132 49.8344 20.8971C50.935 22.2423 50.6033 25.9442 48.5052 25.853C47.0119 25.7881 45.4045 25.1382 44.9057 23.6417Z" stroke="black" stroke-linecap="round"/>
    <path d="M28.9418 55.5704C28.1768 53.2754 32.3291 50.9419 33.8705 52.8258C34.9711 54.171 34.6395 57.8729 32.5413 57.7817C31.048 57.7168 29.4406 57.0669 28.9418 55.5704Z" stroke="black" stroke-linecap="round"/>
    <path d="M28.3921 44.6664C25.9742 44.5869 25.2276 39.8827 27.5295 39.0913C29.1731 38.5263 32.5296 40.1226 31.7156 42.0585C31.1362 43.4364 29.9686 44.7182 28.3921 44.6664Z" stroke="black" stroke-linecap="round"/>
    <path d="M58.2241 46.1927C55.8063 46.1133 55.0596 41.4091 57.3615 40.6177C59.0052 40.0526 62.3616 41.649 61.5476 43.5849C60.9682 44.9628 59.8007 46.2445 58.2241 46.1927Z" stroke="black" stroke-linecap="round"/>
    <path d="M49.7759 37.1822C48.8016 39.3965 44.1578 38.3371 44.2808 35.9061C44.3687 34.1702 47.1004 31.6499 48.5938 33.1265C49.6567 34.1775 50.4113 35.7385 49.7759 37.1822Z" stroke="black" stroke-linecap="round"/>
    <path d="M62.8384 33.5543C61.8641 35.7686 57.2203 34.7092 57.3433 32.2781C57.4312 30.5423 60.1629 28.022 61.6563 29.4986C62.7192 30.5495 63.4738 32.1105 62.8384 33.5543Z" stroke="black" stroke-linecap="round"/>
    <path d="M22.9283 49.5182C21.9539 51.7324 17.3101 50.6731 17.4331 48.242C17.521 46.5062 20.2527 43.9859 21.7461 45.4625C22.809 46.5134 23.5636 48.0744 22.9283 49.5182Z" stroke="black" stroke-linecap="round"/>
    <path d="M25.0483 48.1162C24.5714 47.536 23.7641 47.9038 23.4267 48.0574" stroke="black" stroke-linecap="round"/>
    <path d="M23.2445 44.1533C23.6701 45.5542 22.8628 45.9219 22.5254 46.0756" stroke="black" stroke-linecap="round"/>
    <path d="M51.2993 52.8619C50.6841 53.2926 51.2161 54.6907 51.3433 55.0389" stroke="black" stroke-linecap="round"/>
    <path d="M45.5383 55.5371C46.968 55.2211 47.2722 56.0544 47.3994 56.4026" stroke="black" stroke-linecap="round"/>
    <path d="M54.9722 40.8194C55.3082 41.491 56.177 41.3119 56.5401 41.2371" stroke="black" stroke-linecap="round"/>
    <path d="M55.0845 47.1846C54.981 45.7242 55.8498 45.5451 56.2128 45.4702" stroke="black" stroke-linecap="round"/>
    <path d="M55.6973 32.6124C56.2563 33.1139 56.9988 32.6286 57.3091 32.4258" stroke="black" stroke-linecap="round"/>
    <path d="M60.8457 36.7296C60.2137 35.4089 60.9563 34.9235 61.2665 34.7207" stroke="black" stroke-linecap="round"/>
    <path d="M44.0869 25.7402C44.7891 26.0064 45.3067 25.2859 45.5229 24.9849" stroke="black" stroke-linecap="round"/>
    <path d="M50.3457 27.3135C49.2799 26.3096 49.7974 25.5891 50.0137 25.2881" stroke="black" stroke-linecap="round"/>
    <path d="M21.4916 34.2009C21.9087 33.6382 21.5264 32.8665 21.3667 32.5441" stroke="black" stroke-linecap="round"/>
    <path d="M26.1205 30.1784C25.0362 30.7989 24.654 30.0272 24.4942 29.7048" stroke="black" stroke-linecap="round"/>
    <path d="M31.2146 23.9363C31.7897 23.5365 31.7994 22.3794 31.7511 22.0228" stroke="black" stroke-linecap="round"/>
    <path d="M36.8863 21.6041C35.6606 21.8454 35.0648 20.9275 35.0166 20.5709" stroke="black" stroke-linecap="round"/>
    <path d="M24.3785 31.3766C23.4041 33.5908 18.7603 32.5315 18.8833 30.1004C18.9712 28.3646 21.7029 25.8443 23.1963 27.3209C24.2592 28.3718 25.0138 29.9328 24.3785 31.3766Z" stroke="black" stroke-linecap="round"/>
</svg>
