<svg width="80" height="81" viewBox="0 0 80 81" fill="none" xmlns="http://www.w3.org/2000/svg">
    <path d="M63.1392 64.856C76.903 51.7251 73.874 39.1269 73.874 39.1269L69.7758 23.4883L9 40.1426C9 40.1426 9.66667 51.4757 11.6667 55.4759C13.6667 59.4761 23.3333 58.1426 30 59.4759C36.6667 64.856 54.2738 73.3138 63.1392 64.856Z" fill="#F2F2F2"/>
    <path d="M64.3665 14.5212C72.6668 23.1418 75.0734 42.3515 61.6668 55.1417C51.6668 70.1417 41.0003 63.1418 31.0003 56.8084C1.66709 52.475 5.00031 31.4751 20.333 18.8298C33.7397 6.03963 53.4542 4.1106 64.3665 14.5212Z" fill="white"/>
    <path d="M19.3105 23.1348L59.8013 52.5981" stroke="#F2F2F2" stroke-width="2" stroke-linecap="round" stroke-linejoin="round"/>
    <path d="M62.4384 16.8991C52.3985 7.40178 34.3791 8.06557 21.3887 20.9993L61.3992 50.1545C69.8585 38.9287 71.2152 25.2016 62.4384 16.8991Z" fill="#FAFAFA"/>
    <path d="M60.0004 52.4753C46.3337 63.8086 43.0004 48.1421 30.667 48.1421C10.3337 50.1421 8.95532 37.0569 18.3333 25.8086" stroke="#FAFAFA" stroke-width="2" stroke-linecap="round"/>
    <path d="M63.9852 14.4201C73.5727 23.5668 73.2258 39.1631 63.9851 51.5304C63.4963 52.1846 62.9774 54.4934 62.439 55.1281C61.9613 55.6913 61.4692 54.5825 60.9527 55.1281C60.4676 55.6406 59.9654 56.1449 59.4462 56.6402C47.3331 67.1419 41.4588 51.7668 30.3336 52.1418C1.33333 53.1194 6.25618 31.6049 19.7302 18.7504C33.2043 5.89586 53.0179 3.95711 63.9852 14.4201Z" stroke="black"/>
    <path d="M21.3896 20.2728C33.6079 8.50838 51.5749 6.73406 61.52 16.3097C70.2139 24.6808 70.3607 38.317 61.9812 49.6354" stroke="black" stroke-linecap="round"/>
    <path d="M58.8016 53.6042C46.5913 65.1007 42.3333 48.037 27.6666 48.8089C8.6668 49.8089 8.79789 35.9417 18.1759 24.6934" stroke="black" stroke-linecap="round"/>
    <line x1="18.8057" y1="21.6386" x2="60.768" y2="52.0544" stroke="black" stroke-linecap="round" stroke-linejoin="round"/>
    <path d="M70.2333 25.2129L73.8741 39.1266C73.8741 39.1266 76.9032 51.7243 63.1394 64.8553C52.333 73.4754 37.833 65.6419 31.9997 60.8088C26.6663 56.3899 14.8884 60.1412 11.9997 55.8088C9.3326 51.8088 9.33301 41.8088 9.33301 41.8088" stroke="black" stroke-linecap="round" stroke-linejoin="round"/>
</svg>
