<svg width="80" height="81" viewBox="0 0 80 81" fill="none" xmlns="http://www.w3.org/2000/svg">
    <path d="M12.5257 19.5916L6.97235 21.1784C5.64992 21.7074 8.95516 19.1948 10.5424 18.7981C18.5481 16.7971 34.6103 11.7892 41.0902 10.4668C42.2804 11.657 43.0738 12.4504 43.0738 12.8472C41.0902 13.2439 23.5019 18.0046 14.5094 21.1785L12.5257 19.5916Z" fill="#F2F2F2"/>
    <path d="M58.1495 58.471C53.3888 60.3753 29.4528 37.4443 19.6668 34.6672C20.9364 45.4583 24.4276 67.199 30.7752 73.9434L64.1004 62.835C62.5135 61.6448 60.5299 60.4546 58.1495 58.471Z" fill="#F2F2F2"/>
    <path d="M9.21943 19.1706C18.6327 15.7818 30.4588 11.145 40.4434 10.1465C43.9569 9.79518 47.8207 28.545 48.3016 31.0003C50.106 40.2122 54.9024 58.8478 64.2568 63.0998C59.7287 63.87 41.5442 71.1796 30.7976 73.9431C24.3936 66.8275 22.7352 52.4322 21.1591 43.4442C20.4354 39.3173 16.9544 19.5751 10.8838 18.9006C9.15889 18.7089 7.80335 19.9713 6.94238 21.2758L12.5855 19.6095" stroke="black" stroke-linecap="round" stroke-linejoin="round"/>
    <path d="M26.0151 21.5752C25.4732 23.6657 24.8666 25.7136 24.4282 27.9229C22.9009 27.2262 21.6295 26.4935 20.4609 25.5425" stroke="black" stroke-linecap="round" stroke-linejoin="round"/>
    <path d="M29.189 35.0635C28.6471 37.154 28.0404 39.2019 27.6021 41.4111C26.0747 40.7145 24.8034 39.9817 23.6348 39.0308" stroke="black" stroke-linecap="round" stroke-linejoin="round"/>
    <path d="M31.1064 23.7541C34.0311 22.6229 36.7966 21.8185 39.7811 20.9658" stroke="black" stroke-linecap="round" stroke-linejoin="round"/>
    <path d="M32.6562 37.0761C35.617 36.4417 38.8568 35.7907 41.6407 34.5977" stroke="black" stroke-linecap="round" stroke-linejoin="round"/>
    <path d="M31.4172 49.4688C29.9369 52.4292 28.5502 55.3585 27.3896 58.4532" stroke="black" stroke-linecap="round" stroke-linejoin="round"/>
    <path d="M26.7695 51.0176C29.2008 52.6963 31.5342 54.5137 33.8951 56.2843" stroke="black" stroke-linecap="round" stroke-linejoin="round"/>
    <path d="M36.6836 51.3268C37.688 50.0944 45.9532 47.9189 47.2171 47.9189" stroke="black" stroke-linecap="round" stroke-linejoin="round"/>
    <path d="M36.0636 60.6211C34.7493 63.1184 33.4058 65.5912 32.0361 68.0565" stroke="black" stroke-linecap="round" stroke-linejoin="round"/>
    <path d="M30.7969 63.7197C33.1299 64.843 35.3986 65.3475 37.9224 65.8884" stroke="black" stroke-linecap="round" stroke-linejoin="round"/>
    <path d="M41.3311 63.7195C45.418 61.6118 48.1687 60.9639 52.3827 59.2783" stroke="black" stroke-linecap="round" stroke-linejoin="round"/>
    <rect x="50.4268" y="11.8154" width="10.25" height="27.3333" rx="5.125" transform="rotate(-45 50.4268 11.8154)" fill="white"/>
    <path d="M54.0507 15.4394C52.0492 13.4379 52.0492 10.1929 54.0507 8.19151C56.0521 6.19007 59.2971 6.19007 61.2985 8.19151L67.4985 14.3915C67.4985 14.3915 64.6473 15.6178 63.2393 16.954C61.665 18.4479 60.2507 21.6393 60.2507 21.6393L54.0507 15.4394Z" fill="#999999"/>
    <ellipse cx="57.3391" cy="8.91855" rx="1.32279" ry="1.20484" transform="rotate(-45 57.3391 8.91855)" fill="white"/>
    <path d="M52.9896 11.8291L69.6457 28.4854C68.578 28.4854 67.5085 27.9791 66.8697 27.4176C66.6268 27.2041 54.2174 14.8187 54.0573 14.6051C52.9372 13.1104 52.9896 11.8291 52.9896 11.8291Z" fill="#FAFAFA"/>
    <rect x="50.4268" y="11.8164" width="10.25" height="27.3333" rx="5.125" transform="rotate(-45 50.4268 11.8164)" stroke="black" stroke-linecap="round" stroke-linejoin="round"/>
    <path d="M60.2733 21.618C60.2733 21.618 61.8295 18.4448 63.4533 16.9538C64.7797 15.736 67.3701 14.5211 67.3701 14.5211" stroke="black" stroke-linecap="round" stroke-linejoin="round"/>
</svg>
