<svg width="81" height="81" viewBox="0 0 81 81" fill="none" xmlns="http://www.w3.org/2000/svg">
    <path d="M40.707 36.2552C34.0242 37.9337 26.685 32.3587 24 29.3614C28.1767 42.5496 36.8286 42.5495 42.497 41.9501C47.2442 41.4482 55.6239 35.0562 55.3256 26.364C55.2742 24.8662 49.0605 34.1571 40.707 36.2552Z" fill="#F2F2F2"/>
    <path d="M27.2817 20.0697C29.9668 19.4702 36.2319 13.7753 35.9336 13.4756C30.6828 13.9552 27.9779 18.0715 27.2817 20.0697Z" fill="#F2F2F2"/>
    <path d="M49.7228 70.1419C48.8234 70.0791 44.2064 56.5244 42.1789 54.2992C39.8618 57.8595 38.2415 67.6553 37.2589 70.1419C33.913 56.5172 32.667 41.273 32.667 41.273C39.5549 44.4416 47.1864 42.2206 49.7928 38.8086C49.7928 38.8086 50.3034 62.3581 49.7228 70.1419Z" fill="#999999"/>
    <path d="M24.0133 26.4759C24.3681 17.8346 31.393 11.4344 39.7417 11.4758C48.0473 11.5169 54.9669 17.8792 55.32 26.4759C55.688 35.4347 48.3972 42.7657 39.7417 42.8087C31.0449 42.8519 23.6437 35.4775 24.0133 26.4759Z" stroke="black" stroke-linecap="round" stroke-linejoin="round"/>
    <path d="M32.667 41.4976C32.667 41.4976 33.5454 56.5077 36.9281 70.1423C37.9214 67.6539 39.6946 57.3984 42.0372 53.8355C44.0869 56.0623 48.7398 69.5786 49.6491 69.6414C50.2361 61.852 49.91 39.4756 49.91 39.4756" stroke="black" stroke-linecap="round" stroke-linejoin="round"/>
    <path d="M27.333 20.1423C29.5465 16.4456 32.5949 14.3847 35.9997 13.4756" stroke="black" stroke-linecap="round" stroke-linejoin="round"/>
    <path d="M41.333 40.0615C43.0663 40.6348 47.9775 38.0552 49.9997 35.4756" stroke="black" stroke-linecap="round" stroke-linejoin="round"/>
    <path d="M33.4239 27.8083C33.9506 27.8083 35.0041 28.2972 35.0041 29.7638C35.0041 31.2305 33.9506 31.4749 33.4239 31.4749H30V27.8083M33.4239 27.8083C32.1597 27.8083 30.6145 27.8083 30 27.8083M33.4239 27.8083C33.9506 27.7268 35.0041 27.2216 35.0041 25.8527C35.0041 24.4838 33.9506 24.1416 33.4239 24.1416H30V27.8083M38.1646 31.4749V28.2972M38.1646 28.2972V24.1416H41.5885C42.203 24.2231 43.4321 24.7772 43.4321 26.3416C43.4321 27.906 42.203 28.2972 41.5885 28.2972H38.1646ZM46.3292 31.4749V27.8083M51.3333 24.1416H46.3292V27.8083M46.3292 27.8083H50.8066" stroke="black"/>
    <path fill-rule="evenodd" clip-rule="evenodd" d="M79.9743 42.4453C79.2732 64.3619 65.2842 78.7426 43.3069 79.4498C20.5933 80.1807 3.99984 65.1077 4 42.4453C4.00016 18.755 21.0236 2.80858 43.3069 2.80859C66.0401 2.80861 80.6991 19.7866 79.9743 42.4453ZM62.4075 16.5615C62.0903 16.3072 17.3509 61.572 17.3509 61.572C12.4061 55.213 10.6793 50.1411 10.6086 42.0946C10.4512 24.1662 24.9683 9.05989 42.9437 9.41466C51.0421 9.5745 56.1207 11.4683 62.4075 16.5615ZM21.0236 65.4121L66.183 20.4017C71.8289 27.3196 73.7432 33.1838 73.3494 42.0946C72.6048 58.9428 59.8384 72.0941 42.9437 72.8435C33.9112 73.2442 27.9549 71.2017 21.0236 65.4121Z" fill="#F2F2F2" stroke="black" stroke-linecap="round" stroke-linejoin="round"/>
</svg>
