<svg width="80" height="81" viewBox="0 0 80 81" fill="none" xmlns="http://www.w3.org/2000/svg">
    <path d="M38.6671 77.448L38.667 34.1417L48.2091 34.1416V77.448H38.6671Z" fill="#F2F2F2"/>
    <path d="M52.8577 55.5267L48.209 46.6201V77.4484H76.1012V46.6201L71.4525 55.5267L66.8038 46.6201L62.1551 55.5267L57.5064 46.6201L52.8577 55.5267Z" fill="#F2F2F2"/>
    <path d="M57.334 61.1416V47.1416L61.6673 55.4749L57.334 61.1416Z" fill="#E6E6E6"/>
    <path d="M66.6673 61.1416V47.1416L71.6673 55.4749L66.6673 61.1416Z" fill="#E6E6E6"/>
    <path d="M48.334 47.1416L52.6673 55.4749L49.6673 61.1416V77.1416H48.334H45.334V34.1416H48.0007L48.334 47.1416Z" fill="#E6E6E6"/>
    <path d="M2.66705 37.4753L2.66699 4.80864L10.0003 4.80859V37.4753H2.66705Z" fill="#F2F2F2"/>
    <path d="M13.5556 20.8828L10 14.1416V37.4749H31.3333V14.1416L27.7778 20.8828L24.2222 14.1416L20.6667 20.8828L17.1111 14.1416L13.5556 20.8828Z" fill="#F2F2F2"/>
    <path d="M16.7517 25.3202V14.6846L20.1525 21.0153L16.7517 25.3202Z" fill="#E6E6E6"/>
    <path d="M24.0766 25.3202V14.6846L28.0007 21.0153L24.0766 25.3202Z" fill="#E6E6E6"/>
    <path d="M9.68841 14.6846L13.0893 21.0153L10.7348 25.3202V37.4753H9.68841H7.33398V4.80859H9.68841V14.6846Z" fill="#E6E6E6"/>
    <path d="M2.63287 37.8389L2.63281 4.80864L9.97288 4.80859V37.8389H2.63287Z" stroke="black" stroke-linecap="round" stroke-linejoin="round"/>
    <path d="M38.5997 77.4753L38.5996 34.169L48.1417 34.1689V77.4753H38.5997Z" stroke="black" stroke-linecap="round" stroke-linejoin="round"/>
    <path d="M9.97266 14.3506L13.5204 21.1366L17.0681 14.3506L20.6158 21.1366L24.1635 14.3506L27.7112 21.1366L31.2589 14.3506V37.8388C31.2589 37.8388 16.3277 37.8388 9.97266 37.8388" stroke="black" stroke-linecap="round" stroke-linejoin="round"/>
    <path d="M48.1416 46.6475L52.7903 55.5541L57.439 46.6475L62.0877 55.5541L66.7364 46.6475L71.3851 55.5541L76.0339 46.6475V77.4757C76.0339 77.4757 56.469 77.4757 48.1416 77.4757" stroke="black" stroke-linecap="round" stroke-linejoin="round"/>
    <path d="M38.3896 13.0329C49.001 4.69541 60.6008 26.8644 61.0332 34.6472" stroke="black" stroke-linecap="round" stroke-linejoin="round"/>
    <path d="M57.3164 33.435C57.7666 34.0567 60.4687 37.2991 61.3534 36.738C62.3457 36.1088 63.1885 33.802 63.5555 32.334" stroke="black" stroke-linecap="round"/>
</svg>
