<svg width="80" height="81" viewBox="0 0 80 81" fill="none" xmlns="http://www.w3.org/2000/svg">
    <path d="M19.9141 17.2583C21.0089 16.5284 23.5633 14.3389 25.3879 13.2441H78.4436L78.6664 61.049C78.6664 66.6578 75.1729 72.0642 72.098 73.8213C66.2592 77.1577 19.3171 74.916 1.66837 74.916C1.6683 65.4281 1.66858 43.5327 1.66797 30.3955C4.22243 27.841 16.2649 20.5426 19.9141 17.2583Z" fill="#F4F4F4"/>
    <path d="M46.1698 41.4582C46.1202 41.5475 46.2264 41.3771 46.1698 41.4582C46.2776 41.2601 46.2015 41.4011 46.1698 41.4582Z" fill="#E6E6E6"/>
    <path d="M40.349 30.3957C37.0647 30.7606 38.0784 30.3957 40.0652 27.4762C38.8701 27.4284 38.4967 27.3062 38.0784 26.0976C37.2977 23.8425 39.9927 23.4621 41.8087 23.4621C43.3514 23.4621 46.9176 22.7557 46.9176 20.7049C46.9176 18.3732 48.9747 17.9882 50.9318 17.9882C53.25 17.9882 55.3866 17.7773 56.7705 19.894C57.9068 21.6319 55.9261 24.1919 58.7776 24.1919C64.0891 24.1919 61.9998 30.3957 58.2302 30.3957C58.3941 31.133 58.9597 32.0051 58.9597 32.7677C58.9597 34.7342 60.5161 35.685 61.0682 37.4103C61.1265 37.5924 60.706 39.4518 60.6019 39.6809C60.0253 40.9493 58.631 41.5822 57.7028 42.6003C56.5442 43.871 57.9376 44.2923 57.5 45.0737C56.7757 46.3671 57.288 47.7919 57.6622 49.1284C58.1937 51.0264 57.0896 52.1868 57.0135 54.0143C56.968 55.1069 56.8293 56.5512 55.7565 57.2377C55.5197 57.3893 55.0345 57.1227 54.9456 57.2783C54.3396 58.3388 53.4862 59.3867 51.6816 59.0624C51.3881 60.0893 50.2789 60.3176 49.5123 59.3867C49.3727 59.2172 49.0035 57.9655 48.9041 58.0081C48.5312 58.1679 48.4037 58.635 47.931 58.3325C47.6143 58.1298 47.418 57.5169 47.0795 57.4202C46.7362 57.3221 46.3092 57.5097 45.9847 57.3188C45.5898 57.0865 45.6858 54.886 45.2549 54.886C44.53 54.886 44.2256 54.8664 44.0182 53.9332C43.7247 52.6125 43.9576 50.7412 43.9979 49.3716C44.0311 48.2423 44.7274 47.6921 45.6198 47.1821C46.0532 46.9345 45.7817 45.785 45.8428 45.3575C45.9271 44.7675 46.5524 44.5692 46.5524 44.1005C46.5524 43.3976 45.8225 43.436 45.8225 42.5192C45.8225 42.1689 46.0198 41.7339 46.1698 41.4582C45.7621 42.0437 45.1924 42.3591 44.7278 41.5461C44.5072 41.1601 41.6053 43.0842 41.4435 41.7083C41.3534 40.9427 40.6889 37.7876 41.4435 37.4103C42.6743 36.7949 42.3898 36.2958 41.6056 35.7884C40.7929 35.2625 40.1854 30.8148 40.349 30.3957Z" fill="#E6E6E6"/>
    <path d="M50.5669 54.8457C50.5669 53.7509 51.7346 53.532 52.0266 54.1158C52.3915 54.8457 51.2967 55.5755 50.5669 54.8457Z" fill="#F2F2F2"/>
    <path d="M50.9319 50.7812C50.9319 49.6864 52.0996 49.4675 52.3916 50.0514C52.7565 50.7812 51.6617 51.511 50.9319 50.7812Z" fill="#F2F2F2"/>
    <path d="M46.5527 55.8906C46.5527 54.7958 47.7205 54.5769 48.0124 55.1608C48.3773 55.8906 47.2826 56.6204 46.5527 55.8906Z" fill="#F2F2F2"/>
    <path d="M53.8511 47.1328C53.8511 46.038 55.0188 45.8191 55.3108 46.403C55.6757 47.1328 54.5809 47.8626 53.8511 47.1328Z" fill="#F2F2F2"/>
    <path d="M45.8228 52.2412C45.8228 51.1464 46.9905 50.9275 47.2824 51.5114C47.6474 52.2412 46.5526 52.971 45.8228 52.2412Z" fill="#F2F2F2"/>
    <path d="M54.5811 51.5117C54.5811 50.4169 55.7488 50.198 56.0407 50.7819C56.4057 51.5117 55.3109 52.2415 54.5811 51.5117Z" fill="#F2F2F2"/>
    <path d="M54.5811 55.1601C54.5811 54.0653 55.7488 53.8464 56.0407 54.4303C56.4057 55.1601 55.3109 55.89 54.5811 55.1601Z" fill="#F2F2F2"/>
    <path d="M57.5005 38.374C57.5005 37.2792 58.6682 37.0603 58.9602 37.6442C59.3251 38.374 58.2303 39.1038 57.5005 38.374Z" fill="#F2F2F2"/>
    <path d="M55.3108 39.834C55.3108 38.7392 56.4785 38.5202 56.7705 39.1041C57.1354 39.834 56.0406 40.5638 55.3108 39.834Z" fill="#F2F2F2"/>
    <path d="M56.0408 36.1846C56.0408 35.0897 57.2085 34.8708 57.5005 35.4547C57.8654 36.1846 56.7706 36.9144 56.0408 36.1846Z" fill="#F2F2F2"/>
    <path d="M42.9036 39.834C42.9036 38.7392 44.0713 38.5202 44.3633 39.1041C44.7282 39.834 43.6334 40.5638 42.9036 39.834Z" fill="#F2F2F2"/>
    <path d="M45.8228 39.834C45.8228 38.7392 46.9905 38.5202 47.2824 39.1041C47.6474 39.834 46.5526 40.5638 45.8228 39.834Z" fill="#F2F2F2"/>
    <path d="M48.0125 47.1328C48.0125 46.038 49.1802 45.8191 49.4721 46.403C49.8371 47.1328 48.7423 47.8626 48.0125 47.1328Z" fill="#F2F2F2"/>
    <path d="M21.0088 68.3474C23.3863 66.4022 25.7528 63.5401 25.7528 60.4002C25.7528 54.0679 22.4685 49.4837 22.4685 43.5327V30.7604L17.3596 30.3955C17.3596 34.7175 16.9946 39.5682 16.9946 43.8976C16.9946 49.4019 11.3367 54.7935 13.0618 60.4002C14.1656 63.9874 15.6355 72.7438 21.0088 68.3474Z" fill="#FAFAFA"/>
    <path d="M20.0086 55.2105C19.2188 55.0562 18.3425 53.5417 18.3425 52.9521C18.3425 37.4864 20.0086 22.1854 20.0086 6.67578C20.9017 21.8395 21.0082 37.1762 21.0082 52.3663C21.0082 52.9554 20.6012 55.3262 20.0086 55.2105Z" fill="#E6E6E6"/>
    <path d="M6.85767 37.0049C6.42369 34.897 11.2798 34.3311 12.6153 34.0449C16.8005 34.0449 13.2098 38.424 9.87792 38.424C9.11947 38.424 7.09469 38.1561 6.85767 37.0049Z" fill="#E6E6E6"/>
    <path d="M2.1121 40.7697C2.73269 39.8068 6.07666 39.5337 6.97764 39.5186C7.45615 39.5186 8.78187 39.921 9.1777 40.2136C9.54783 40.4873 9.17729 41.2133 8.79692 41.3258C7.46971 41.7182 6.10967 41.7081 4.69295 41.7081C4.06547 41.7081 1.55581 41.6328 2.1121 40.7697Z" fill="#E6E6E6"/>
    <path d="M14.4284 41.0163C13.4158 40.863 9.85927 41.1255 10.0695 42.7496C10.229 43.9818 14.6919 42.2165 14.4284 41.0163Z" fill="#E6E6E6"/>
    <path d="M77.2066 27.1116C76.194 26.9582 75.172 28.7721 75.3822 30.3961C75.5417 31.6283 77.4701 28.3118 77.2066 27.1116Z" fill="#E6E6E6"/>
    <path d="M26.1485 37.0239C25.708 35.3726 30.0036 34.6223 30.8828 34.4904C35.6431 33.7765 34.9751 38.0594 30.3006 38.0594C29.4697 38.0594 26.4284 38.073 26.1485 37.0239Z" fill="#E6E6E6"/>
    <path d="M34.9906 40.6945C37.5314 41.7643 41.5586 38.0589 37.91 37.3291C35.1041 37.3291 31.1921 39.0951 34.9906 40.6945Z" fill="#E6E6E6"/>
    <path d="M24.0259 41.8854C23.1626 40.5144 27.2302 39.6357 27.9683 39.54C28.9717 39.54 32.3868 39.285 31.9105 40.5338C31.504 41.5994 28.7129 42.369 27.3487 42.4022C26.5335 42.422 24.4805 42.6075 24.0259 41.8854Z" fill="#E6E6E6"/>
    <path d="M63.5617 35.6462C65.0458 34.6188 66.3035 34.4779 68.0827 34.7744C69.3379 35.0882 67.058 36.7287 66.2584 36.9639C65.3504 37.231 61.3724 37.1618 63.5617 35.6462Z" fill="#E6E6E6"/>
    <path d="M73.5579 32.2204C72.8282 31.1257 68.7589 37.2188 70.6383 37.3293C72.8536 37.4597 74.2875 33.3151 73.5579 32.2204Z" fill="#E6E6E6"/>
    <path d="M76.842 32.585C76.842 32.585 73.7348 34.8252 76.1118 35.5043C77.5135 35.9048 76.842 32.585 76.842 32.585Z" fill="#E6E6E6"/>
    <path d="M62.8193 40.7964C62.2093 43.5413 66.5171 42.7347 67.8268 41.4249C69.9273 39.3244 64.434 38.4244 62.8193 40.7964Z" fill="#E6E6E6"/>
    <path d="M20.0086 55.2105C19.2188 55.0562 18.3425 53.5417 18.3425 52.9521C18.3425 37.4864 20.0086 22.1854 20.0086 6.67578C20.9017 21.8395 21.0082 37.1762 21.0082 52.3663C21.0082 52.9554 20.6012 55.3262 20.0086 55.2105Z" stroke="black" stroke-linecap="round"/>
    <path d="M2.03223 32.585C6.4113 32.5849 11.1553 32.585 16.2642 32.585" stroke="black" stroke-linecap="round"/>
    <path d="M38.0781 30.3957C37.3482 28.936 41.5039 27.5338 40.0652 27.4762C38.8701 27.4284 38.4967 27.3062 38.0784 26.0976C37.2977 23.8425 39.9927 23.4621 41.8087 23.4621C43.3514 23.4621 46.9176 22.7557 46.9176 20.7049C46.9176 18.3732 48.9747 17.9882 50.9318 17.9882C53.25 17.9882 55.3866 17.7773 56.7705 19.894C57.9068 21.6319 55.9261 24.1919 58.7776 24.1919C64.0891 24.1919 61.2699 30.3957 57.5004 30.3957" stroke="black" stroke-linecap="round"/>
    <path d="M40.3495 30.7606C40.1859 31.1797 40.7934 35.2625 41.6062 35.7884C42.3903 36.2958 42.6748 36.7949 41.444 37.4103C40.6894 37.7876 41.3539 40.9427 41.444 41.7083C41.6059 43.0842 44.5077 41.1601 44.7283 41.5461C45.2573 42.4718 45.9226 41.9345 46.3299 41.2014C46.4057 41.0649 45.823 41.9171 45.823 42.5192C45.823 43.436 46.5529 43.3976 46.5529 44.1005C46.5529 44.5692 45.9276 44.7675 45.8433 45.3575C45.7822 45.785 46.0537 46.9344 45.6203 47.1821C44.7279 47.6921 44.0317 48.2423 43.9984 49.3716C43.9582 50.7412 43.7252 52.6125 44.0187 53.9332C44.2261 54.8664 44.5305 54.886 45.2554 54.886C45.6864 54.886 45.5903 57.0865 45.9852 57.3188C46.3097 57.5097 46.7367 57.3221 47.08 57.4202C47.4185 57.5169 47.6148 58.1298 47.9315 58.3325C48.4042 58.635 48.5318 58.1679 48.9046 58.0081C49.004 57.9655 49.3732 59.2172 49.5128 59.3867C50.2794 60.3176 51.3887 60.0893 51.6821 59.0623C53.4867 59.3867 54.3401 58.3388 54.9461 57.2783C55.035 57.1227 55.5202 57.3893 55.757 57.2377C56.8298 56.5512 56.9685 55.1069 57.014 54.0143C57.0901 52.1868 58.1942 51.0264 57.6628 49.1283C57.2885 47.7919 56.7762 46.3671 57.5006 45.0737C57.9381 44.2923 56.5448 43.871 57.7033 42.6003C58.6316 41.5822 60.0258 40.9493 60.6024 39.6809C60.7066 39.4518 61.127 37.5924 61.0687 37.4103C60.5166 35.685 58.9603 34.7342 58.9603 32.7677C58.9603 32.0051 58.7389 31.3155 58.5751 30.5781" stroke="black" stroke-linecap="round"/>
    <path d="M19.9134 17.2583C16.2641 20.5426 4.22169 27.841 1.66724 30.3955C6.31061 30.3147 11.6862 30.3479 17.3589 30.4249M21.0081 16.5284C22.1029 15.7986 23.5626 14.3389 25.3872 13.2441C42.611 13.2441 61.246 13.2441 78.4429 13.2441C78.4429 13.2441 75.6996 28.8766 68.0831 30.0306C65.6955 30.3923 62.4393 30.6112 58.5951 30.7323M40.349 30.7976C34.5226 30.7252 28.4073 30.6021 22.4678 30.5031" stroke="black" stroke-linecap="round" stroke-linejoin="round"/>
    <path d="M1.66724 30.3955C1.66784 43.5327 1.66757 65.4281 1.66764 74.916" stroke="black" stroke-linecap="round"/>
    <path d="M1.66724 74.916C19.3159 74.916 66.2585 77.1577 72.0973 73.8213C75.1721 72.0642 78.6657 66.6578 78.6657 61.049C78.6657 44.6275 78.6657 25.2866 78.6657 13.2441" stroke="black" stroke-linecap="round"/>
    <path d="M17.3588 30.3955C17.3588 34.7175 16.9939 39.5682 16.9939 43.8976C16.9939 49.4019 11.336 54.7935 13.0611 60.4002C14.1649 63.9874 15.6348 72.7438 21.0081 68.3474C23.3856 66.4022 25.7521 63.5401 25.7521 60.4002C25.7521 54.0679 22.4677 49.4837 22.4677 43.5327V30.7604" stroke="black" stroke-linecap="round"/>
    <path d="M6.85767 37.0049C6.42369 34.897 11.2798 34.3311 12.6153 34.0449C16.8005 34.0449 13.2098 38.424 9.87792 38.424C9.11947 38.424 7.09469 38.1561 6.85767 37.0049Z" stroke="black" stroke-linecap="round"/>
    <path d="M2.1121 40.7697C2.73269 39.8068 6.07666 39.5337 6.97764 39.5186C7.45615 39.5186 8.78187 39.921 9.1777 40.2136C9.54783 40.4873 9.17729 41.2133 8.79692 41.3258C7.46971 41.7182 6.10967 41.7081 4.69295 41.7081C4.06547 41.7081 1.55581 41.6328 2.1121 40.7697Z" stroke="black" stroke-linecap="round"/>
    <path d="M14.4284 41.0163C13.4158 40.863 9.85927 41.1255 10.0695 42.7496C10.229 43.9818 14.6919 42.2165 14.4284 41.0163Z" stroke="black" stroke-linecap="round"/>
    <path d="M77.2059 27.1116C76.1933 26.9582 75.1713 28.7721 75.3815 30.3961C75.541 31.6283 77.4694 28.3118 77.2059 27.1116Z" stroke="black" stroke-linecap="round"/>
    <path d="M26.1485 37.0239C25.708 35.3726 30.0036 34.6223 30.8828 34.4904C35.6431 33.7765 34.9752 38.0594 30.3006 38.0594C29.4697 38.0594 26.4284 38.073 26.1485 37.0239Z" stroke="black" stroke-linecap="round"/>
    <path d="M34.9906 40.6945C37.5314 41.7643 41.5586 38.0589 37.91 37.3291C35.1041 37.3291 31.1921 39.0951 34.9906 40.6945Z" stroke="black" stroke-linecap="round"/>
    <path d="M24.0256 41.8854C23.1624 40.5144 27.23 39.6357 27.9681 39.54C28.9714 39.54 32.3865 39.285 31.9102 40.5338C31.5038 41.5994 28.7126 42.369 27.3484 42.4022C26.5333 42.422 24.4803 42.6075 24.0256 41.8854Z" stroke="black" stroke-linecap="round"/>
    <path d="M63.5617 35.6462C65.0458 34.6188 66.3035 34.4779 68.0827 34.7744C69.3379 35.0882 67.058 36.7287 66.2584 36.9639C65.3504 37.231 61.3724 37.1618 63.5617 35.6462Z" stroke="black" stroke-linecap="round"/>
    <path d="M73.5571 32.2204C72.8275 31.1257 68.7582 37.2188 70.6376 37.3293C72.8529 37.4597 74.2868 33.3151 73.5571 32.2204Z" stroke="black" stroke-linecap="round"/>
    <path d="M76.8413 32.585L77.3314 32.4858C77.2977 32.3194 77.1818 32.1813 77.0236 32.1194C76.8655 32.0574 76.6867 32.08 76.5489 32.1794L76.8413 32.585ZM76.1111 35.5043L76.2484 35.0236L76.1111 35.5043ZM76.8413 32.585C76.5489 32.1794 76.5488 32.1795 76.5487 32.1796C76.5486 32.1796 76.5485 32.1797 76.5484 32.1798C76.5481 32.1799 76.5478 32.1801 76.5475 32.1804C76.5469 32.1808 76.546 32.1814 76.545 32.1822C76.543 32.1837 76.5402 32.1857 76.5367 32.1882C76.5298 32.1933 76.52 32.2006 76.5077 32.2098C76.483 32.2282 76.4482 32.2546 76.4051 32.2881C76.3192 32.3551 76.2001 32.4509 76.0652 32.568C75.7994 32.7988 75.4546 33.1273 75.1836 33.4916C74.9309 33.8314 74.6549 34.3168 74.7272 34.8313C74.8106 35.4242 75.2982 35.7921 75.9737 35.9851L76.2484 35.0236C75.7354 34.877 75.72 34.7102 75.7175 34.6921C75.7039 34.5955 75.7591 34.3935 75.986 34.0884C76.1947 33.8077 76.4782 33.5337 76.7207 33.3232C76.8399 33.2197 76.945 33.1352 77.0197 33.077C77.057 33.0479 77.0866 33.0255 77.1063 33.0108C77.1162 33.0034 77.1235 32.998 77.1282 32.9946C77.1305 32.9929 77.1322 32.9917 77.1331 32.991C77.1336 32.9906 77.1339 32.9904 77.134 32.9904C77.134 32.9903 77.134 32.9903 77.134 32.9904C77.134 32.9904 77.1339 32.9904 77.1339 32.9904C77.1338 32.9905 77.1337 32.9905 76.8413 32.585ZM75.9737 35.9851C76.233 36.0592 76.5022 36.0621 76.7512 35.9493C76.9966 35.8381 77.1568 35.6442 77.2589 35.45C77.4519 35.0833 77.498 34.6032 77.5018 34.1995C77.5058 33.7762 77.4625 33.3475 77.4198 33.0307C77.3983 32.8709 77.3766 32.7364 77.3601 32.6413C77.3518 32.5937 77.3448 32.5558 77.3398 32.5293C77.3373 32.5161 77.3353 32.5057 77.3339 32.4984C77.3332 32.4947 77.3326 32.4918 77.3322 32.4897C77.332 32.4887 77.3318 32.4878 77.3317 32.4872C77.3316 32.4869 77.3315 32.4866 77.3315 32.4864C77.3315 32.4863 77.3314 32.4861 77.3314 32.4861C77.3314 32.486 77.3314 32.4858 76.8413 32.585C76.3512 32.6841 76.3512 32.684 76.3512 32.6839C76.3512 32.6839 76.3512 32.6839 76.3512 32.6839C76.3512 32.6838 76.3512 32.6839 76.3512 32.6839C76.3512 32.6841 76.3513 32.6844 76.3514 32.685C76.3516 32.6861 76.352 32.6879 76.3525 32.6906C76.3535 32.6958 76.3551 32.704 76.3572 32.715C76.3613 32.7369 76.3674 32.77 76.3748 32.8123C76.3895 32.8972 76.4092 33.019 76.4288 33.1641C76.4682 33.4573 76.5052 33.8336 76.5018 34.1901C76.4983 34.5664 76.4494 34.8411 76.374 34.9843C76.342 35.045 76.3247 35.0447 76.3385 35.0384C76.356 35.0305 76.3395 35.0496 76.2484 35.0236L75.9737 35.9851Z" fill="black"/>
    <path d="M22.8328 32.5854C28.102 32.5854 34.0396 32.4792 40.349 32.5854M78.6659 19.4482C77.2062 24.1922 73.557 29.6661 71.7324 31.1258C70.3483 32.233 65.4471 32.7103 58.9601 32.8763" stroke="black" stroke-linecap="round"/>
    <path d="M62.8193 40.7964C62.2093 43.5413 66.5171 42.7347 67.8268 41.4249C69.9273 39.3244 64.434 38.4244 62.8193 40.7964Z" stroke="black" stroke-linecap="round"/>
    <path d="M2.03223 45.7227C2.61945 45 3.9161 44.6508 4.95161 44.7598C5.57127 44.825 6.42133 45.427 6.77622 45.7227C7.40644 46.2479 9.08177 44.7598 10.0605 44.7598C11.1644 44.7598 12.3193 45.7375 13.3448 45.2713C14.8045 44.0954 15.5344 44.7598 15.8993 44.8253M22.8328 44.8253C25.3873 44.0954 28.9186 46.4983 30.4962 45.2713C33.493 42.9405 35.6552 45.0658 38.5245 44.9064C44.3632 42.464 43.0092 44.8253 45.8229 44.8253M57.5004 44.7598C61.3524 43.4677 61.2179 44.9423 63.3392 44.9423C64.9177 44.9423 66.462 45.1639 68.4481 44.0954C69.6512 43.4482 69.3685 42.8648 71.029 42.464C72.377 42.1386 73.2813 42.364 74.6518 41.7086C75.2176 41.4379 76.1837 40.4028 76.4764 39.884C77.2761 38.4663 77.2411 36.5735 78.6659 35.5049" stroke="black" stroke-linecap="round"/>
</svg>
