<svg width="80" height="81" viewBox="0 0 80 81" fill="none" xmlns="http://www.w3.org/2000/svg">
    <path d="M17.8499 76.4653C17.8499 53.3423 17.7317 28.2217 17.7317 5.10777C17.7518 2.73521 23.7593 2.96498 23.7593 2.96498C23.7593 2.96498 29.765 2.72184 29.7871 5.10777L29.8564 76.4653C29.8762 78.6012 25.9467 78.994 23.7593 78.9939C21.5038 78.9939 17.8297 78.846 17.8499 76.4653Z" fill="#F4F4F4"/>
    <path d="M17.7318 5.10777C17.7519 2.73521 23.7595 2.96498 23.7595 2.96498C23.7595 2.96498 29.7651 2.72184 29.7872 5.10777C29.807 7.24372 25.9469 7.76009 23.7595 7.76005C21.5039 7.76002 17.7116 7.4885 17.7318 5.10777Z" fill="#E6E6E6"/>
    <path d="M48.9198 76.4653C48.9198 53.3423 48.8015 28.2217 48.8015 5.10777C48.8216 2.73521 54.8292 2.96498 54.8292 2.96498C54.8292 2.96498 60.8348 2.72184 60.8569 5.10777L60.9263 76.4653C60.946 78.6012 57.0165 78.994 54.8291 78.9939C52.5736 78.9939 48.8996 78.846 48.9198 76.4653Z" fill="#F4F4F4"/>
    <path d="M48.8016 5.10777C48.8217 2.73521 54.8293 2.96498 54.8293 2.96498C54.8293 2.96498 60.835 2.72184 60.857 5.10777C60.8768 7.24372 57.0167 7.76009 54.8293 7.76005C52.5738 7.76002 48.7814 7.4885 48.8016 5.10777Z" fill="#E6E6E6"/>
    <path d="M27.5833 26.0711V7.50487L29.8567 5.61035V26.8289L27.5833 26.0711Z" fill="#E6E6E6"/>
    <path d="M58.6531 20.0087V7.50487L60.9265 5.61035V19.2509L58.6531 20.0087Z" fill="#E6E6E6"/>
    <path d="M29.4779 30.6182H27.5833C27.5832 47.6688 27.5834 72.2976 27.5833 77.6022C27.5832 78.8147 29.3516 77.3496 29.4779 76.8444V30.6182Z" fill="#E6E6E6"/>
    <path d="M60.5479 24.1768H58.6531C58.653 41.2274 58.6534 72.2975 58.6533 77.6022C58.6533 78.8146 60.4216 77.3496 60.5479 76.8443L60.5479 24.1768Z" fill="#E6E6E6"/>
    <path d="M42.7391 24.5538C38.3223 26.1312 32.2186 27.3974 27.4187 25.8615L26.8252 30.2374C35.8275 30.2374 46.4019 26.0968 55.243 24.1749C64.579 22.1453 68.7238 26.2158 78.1137 26.2158L78.3561 23.7959C73.0514 23.0381 69.6834 22.9454 65.2876 21.2299C69.9539 20.4681 72.2928 20.386 76.8405 19.2491L77.0314 17.3564C65.1055 17.3564 54.0241 20.5234 42.7391 24.5538Z" fill="#F4F4F4"/>
    <path d="M4.46997 51.0771C8.86544 51.0771 14.5406 52.433 17.7316 55.624V58.6552C14.5406 55.4642 8.86544 54.1084 4.46997 54.1084V51.0771Z" fill="#F4F4F4"/>
    <path d="M74.1881 51.0771C69.7927 51.0771 64.1175 52.433 60.9265 55.624V58.6552C64.1175 55.4642 69.7927 54.1084 74.1881 54.1084V51.0771Z" fill="#F4F4F4"/>
    <path d="M3.33325 24.1748C7.16707 27.8612 12.8058 33.2685 17.7318 35.1629L17.7316 38.5731C13.1949 38.5731 8.1247 37.0064 3.67515 36.1382V32.2402C5.99288 33.5969 8.52589 34.073 11.1169 34.7207C9.0168 31.7529 5.61925 29.3821 3.33325 26.8271V24.1748Z" fill="#F4F4F4"/>
    <path d="M48.8019 43.878C46.1496 39.7099 33.8189 39.7099 29.8567 39.7099V36.6787C33.8187 36.6787 45.7706 36.6788 48.8019 40.4678V43.878Z" fill="#F4F4F4"/>
    <path d="M27.4185 26.2423C32.2183 27.7783 38.322 26.5121 42.7389 24.9346C54.0239 20.9043 65.1052 17.7373 77.0311 17.7373" stroke="black" stroke-linecap="round"/>
    <path d="M26.8252 30.6179C35.8275 30.6179 46.4019 26.4773 55.243 24.5553C64.579 22.5258 68.7238 26.5963 78.1137 26.5963" stroke="black" stroke-linecap="round"/>
    <path d="M65.2874 21.6107L65.2068 21.1172C64.9844 21.1535 64.8138 21.3341 64.7901 21.5582C64.7665 21.7823 64.8957 21.9946 65.1056 22.0765L65.2874 21.6107ZM76.9615 20.115C77.2294 20.048 77.3923 19.7765 77.3253 19.5086C77.2583 19.2407 76.9868 19.0778 76.7189 19.1448L76.9615 20.115ZM78.2851 24.6717C78.5585 24.7107 78.8117 24.5208 78.8508 24.2474C78.8898 23.974 78.6999 23.7208 78.4265 23.6817L78.2851 24.6717ZM65.3679 22.1042C69.9863 21.3501 72.3885 21.2582 76.9615 20.115L76.7189 19.1448C72.1966 20.2754 69.9211 20.3475 65.2068 21.1172L65.3679 22.1042ZM65.1056 22.0765C69.5723 23.8196 73.0333 23.9214 78.2851 24.6717L78.4265 23.6817C73.069 22.9164 69.7941 22.8327 65.4691 21.1449L65.1056 22.0765Z" fill="black"/>
    <path d="M17.7316 56.0049C14.5406 52.8138 8.86544 51.458 4.46997 51.458" stroke="black" stroke-linecap="round"/>
    <path d="M60.9269 56.0049C64.1179 52.8138 69.793 51.458 74.1885 51.458" stroke="black" stroke-linecap="round"/>
    <path d="M17.7316 59.0361C14.5406 55.8451 8.86544 54.4893 4.46997 54.4893" stroke="black" stroke-linecap="round"/>
    <path d="M60.9269 59.0361C64.1179 55.8451 69.793 54.4893 74.1885 54.4893" stroke="black" stroke-linecap="round"/>
    <path d="M17.7318 35.5438C12.8058 33.6493 7.16707 28.242 3.33325 24.5557" stroke="black" stroke-linecap="round"/>
    <path d="M3.33325 27.208C5.61925 29.763 9.0168 32.1338 11.1169 35.1016C8.52589 34.4538 5.99288 33.9778 3.67515 32.6211" stroke="black" stroke-linecap="round" stroke-linejoin="round"/>
    <path d="M3.6748 36.5186C8.12435 37.3868 13.1946 38.9535 17.7312 38.9535" stroke="black" stroke-linecap="round"/>
    <path d="M29.8567 40.0908C33.8187 40.0908 46.1495 40.0907 48.8019 44.2588" stroke="black" stroke-linecap="round"/>
    <path d="M29.8567 37.0596C33.8187 37.0596 45.7706 37.0596 48.8019 40.8487" stroke="black" stroke-linecap="round"/>
    <path d="M17.7317 5.23143C17.7317 28.3453 17.8501 53.3423 17.8501 76.4653C17.8299 78.846 21.5039 78.9939 23.7595 78.9939C25.9469 78.994 29.8764 78.6012 29.8566 76.4653V30.618M29.8566 5.23143V26.45M23.7595 2.96498C23.7595 2.96498 17.7519 2.73521 17.7318 5.10777C17.7116 7.4885 21.5039 7.76002 23.7595 7.76005C25.9469 7.76009 29.807 7.24372 29.7872 5.10777C29.7651 2.72184 23.7595 2.96498 23.7595 2.96498Z" stroke="black" stroke-linecap="round"/>
    <path d="M48.8015 5.23143C48.8015 10.9451 48.8087 16.7739 48.8196 22.661M60.9264 5.23143V19.4746M48.8196 26.45C48.8544 43.3017 48.9199 60.1599 48.9199 76.4653C48.8997 78.846 52.5737 78.9939 54.8293 78.9939C57.0167 78.994 60.9462 78.6012 60.9264 76.4653L60.9264 24.0045M54.8293 2.96498C54.8293 2.96498 48.8217 2.73521 48.8016 5.10777C48.7814 7.4885 52.5738 7.76002 54.8293 7.76005C57.0167 7.76009 60.8768 7.24372 60.857 5.10777C60.835 2.72184 54.8293 2.96498 54.8293 2.96498Z" stroke="black" stroke-linecap="round"/>
</svg>
