<svg width="120" height="120" viewBox="0 0 120 120" fill="none" xmlns="http://www.w3.org/2000/svg">
    <path d="M40.871 103.193C39.6008 106.726 39.623 110.639 41.3671 116.07L30.9668 117.294C26.3824 103.541 19.2444 93.4077 40.1444 84.1188C54.5724 77.7064 65.0695 39.9969 44.1213 35.3418C33.0039 32.8712 36.4734 9.08327 36.4734 2.26855H43.2042C43.2042 12.2258 38.3307 28.2716 48.7107 28.2716C57.533 28.2716 58.6453 20.7451 60.0637 18.5162C66.5254 8.36218 85.9436 20.2239 93.9867 26.878C108.932 39.2427 108.748 60.2086 104.524 75.4171C98.1496 98.3645 78.2735 91.9806 53.0466 96.4654C49.0039 97.6064 44.9204 101.032 40.871 103.193Z" fill="#E6E6E6"/>
    <path d="M36.7891 116.647L41.2739 116.087C37.3503 108.799 41.2739 102.632 41.2739 102.072C41.2739 101.511 47.855 97.9887 53.0467 95.9048C63.2378 91.8144 74.9101 92.5412 78.8343 92.5412C81.257 92.5412 99.5757 95.3443 104.061 70.1173C108.545 44.8903 96.2121 31.4359 93.9697 29.1935C91.7273 26.9511 90.0455 28.0723 90.0455 28.0723C90.0455 28.0723 110.788 89.1778 81.6366 88.6172C58.3156 88.1687 54.8626 87.0424 42.3946 96.4656C39.7983 98.4278 37.8557 99.2531 36.2285 102.072C33.4012 106.969 35.4509 112.824 36.7605 116.565L36.7891 116.647Z" fill="#C4C4C4"/>
    <path d="M52.9905 94.0442C51.9249 100.95 44.6371 99.2685 40.7129 103.753C41.0866 103.193 42.0583 101.399 42.9553 98.7079C44.0765 95.3443 42.3947 86.9353 40.7129 84.1323C42.9553 83.2354 45.3455 80.5771 46.2603 79.3601C53.1479 80.508 52.9905 88.4941 52.9905 94.0442Z" fill="#C4C4C4"/>
    <path d="M44.0778 34.7995C43.7595 34.7995 48.2088 32.5126 47.7215 28.4928L54.5891 27.3716C55.1097 31.2762 53.5259 37.0419 48.5626 37.0419L44.0778 34.7995Z" fill="#9E9E9E"/>
    <path d="M36.4724 2.26855C36.4724 9.08327 33.003 32.8712 44.1204 35.3418C65.0686 39.9969 54.5714 77.7064 40.1434 84.1188C19.2435 93.4077 26.3814 103.541 30.9659 117.294" stroke="black" stroke-linecap="round"/>
    <path d="M41.3663 116.07C39.0312 108.799 39.7827 104.249 42.5899 99.6868C43.9047 97.5502 42.7376 84.1323 40.1525 84.1323" stroke="black" stroke-linecap="round"/>
    <path d="M40.3376 103.424C40.1557 103.632 40.1768 103.948 40.3846 104.13C40.5924 104.311 40.9083 104.29 41.0902 104.083L40.3376 103.424ZM52.9915 94.0442L53.4856 94.1205L53.4915 94.0826V94.0442H52.9915ZM46.3435 78.8669C46.0711 78.8215 45.8135 79.0055 45.7681 79.2779C45.7227 79.5503 45.9067 79.8079 46.1791 79.8533L46.3435 78.8669ZM41.0902 104.083C42.0087 103.033 43.1323 102.333 44.3484 101.769C45.596 101.19 46.835 100.794 48.1144 100.269C49.3548 99.7604 50.5617 99.1532 51.5268 98.1998C52.5036 97.2348 53.2042 95.9443 53.4856 94.1205L52.4973 93.968C52.2459 95.5972 51.636 96.6862 50.824 97.4884C50.0003 98.3021 48.9402 98.8496 47.7349 99.3442C46.5686 99.8227 45.1833 100.279 43.9274 100.862C42.64 101.459 41.3812 102.231 40.3376 103.424L41.0902 104.083ZM53.4915 94.0442C53.4915 91.2922 53.535 87.8286 52.6894 84.9121C52.2641 83.4451 51.6061 82.0852 50.5798 81.0126C49.5473 79.9335 48.1659 79.1706 46.3435 78.8669L46.1791 79.8533C47.8005 80.1235 48.9822 80.7894 49.8573 81.704C50.7386 82.6251 51.3327 83.8238 51.729 85.1906C52.5266 87.9417 52.4915 91.2461 52.4915 94.0442H53.4915Z" fill="black"/>
    <path d="M51.7692 97.1034C70.6852 90.9267 97.0393 102.359 104.523 75.4171C108.748 60.2086 108.931 39.2427 93.986 26.878C85.943 20.2239 66.5247 8.36218 60.063 18.5162C58.6446 20.7451 57.5323 28.2716 48.71 28.2716C38.33 28.2716 43.2035 12.2258 43.2035 2.26855" stroke="black" stroke-linecap="round"/>
    <path d="M47.7206 28.4927C48.2079 32.5125 43.7586 34.7994 44.077 34.7994" stroke="black" stroke-linecap="round"/>
    <path d="M54.588 27.3716C55.1086 31.2762 53.5248 37.0419 48.5615 37.0419" stroke="black" stroke-linecap="round"/>
</svg>
