<svg width="120" height="120" viewBox="0 0 120 120" fill="none" xmlns="http://www.w3.org/2000/svg">
    <path d="M68.5 14C68.5 9.80491 62.7451 4.89617 62 0.5H25.5C31.2311 4.75004 35 14.8648 35 22L68.5 14Z" fill="#F5F5F5"/>
    <path d="M64.5 21.5C66.9147 20.5341 69.5964 16.0478 68.3361 13.5272C65.8988 8.65272 55.858 8.95149 48.5 11.5C41.7941 13.8226 34.9326 16.6689 34.9326 23.5897C34.9326 26.3346 41.5 27.5 44 27L64.5 21.5Z" fill="#E6E6E6"/>
    <path d="M34.5 73.9999C32.1667 80.9999 32.2576 97.4 48.2576 105C47.8777 103.903 47.9639 102.971 49.0001 102.5C58.0504 98.3861 70.5001 101.575 76.5001 97.4999C80.2828 94.9305 89.8378 82.9978 93.5681 85.0823C94.8857 85.8187 95.5246 87.2463 95.8502 88.9829C95.8513 88.9886 95.8523 88.9943 95.8534 89C108.853 74.5 95.2099 59.6584 88.3445 56.9546L34.5 73.9999Z" fill="#F5F5F5"/>
    <path d="M48.2576 105C48.9423 106.977 51.1411 109.492 52.0208 110.811C54.6127 114.699 25.8219 118.764 19.5284 112.661L19.5283 115.145C25.8219 121.248 55.5 116 55 111.5C54.1203 110.18 51.9631 107.978 51.2784 106C50.8985 104.903 50.9847 103.971 52.0208 103.5C61.0712 99.3862 70.5 104.06 76.5 99.9844C80.2828 97.415 89.8378 85.4823 93.568 87.5669C94.8857 88.3032 94.1743 91.7634 94.5 93.5C95.6483 99.6236 94.253 107.556 103.644 104.6C112.853 101.701 116.399 94.811 117.5 86L116.674 82.5978C115.573 91.4088 112.853 99.2162 103.644 102.115C94.2618 105.069 96.9935 95.125 95.8534 89C95.8523 88.9943 95.8513 88.9886 95.8502 88.9829C95.5246 87.2463 94.8857 85.8187 93.5681 85.0823C89.8378 82.9978 80.2828 94.9305 76.5001 97.4999C70.5001 101.575 58.0504 98.3861 49.0001 102.5C47.9639 102.971 47.8777 103.903 48.2576 105Z" fill="#C4C4C4"/>
    <path d="M64.0024 17.2542C56.0005 14.0002 47.0038 16.2018 42.6352 22.2233C49.5545 39.3179 34.7227 55.0843 34.9329 72.1079C35.0846 84.3969 45.0354 85.4768 55.0005 83.2179C52.0328 81.4808 52.0182 77.5477 55.5005 76.0001C59.0003 75 61.4137 79.1609 59.5005 82.0307C63.9768 80.6879 66.4616 79.8267 70.5005 77.5C68.0099 77.5 64.5003 72.8782 69.5005 70.3783C73.9921 68.1326 75.0085 73.4369 74.0005 75.5C76.5549 73.9378 79.4941 71.8322 81.2844 70.3783C78.8261 70.7224 75.0007 67.5002 79.0004 64.5C83.0002 61.4997 84.5005 64.9925 84.5005 67.4072C91.2051 60.5491 89.5494 54.5564 84.0005 45C77.5623 33.9121 64.0024 32.6329 64.0024 17.2542Z" fill="#C4C4C4"/>
    <path d="M78.6626 98.0193C79.0559 96.9728 79.0559 96.9729 80.4957 96.3195C82.2738 95.5125 78.6266 90.9847 76.1017 92.757C73.2917 94.7294 77.9721 99.8561 78.6626 98.0193Z" fill="#C4C4C4"/>
    <path d="M66.4658 101.441C67.4495 100.91 67.4493 100.91 68.9645 101.362C70.8355 101.92 71.0563 96.1105 67.9882 95.7901C64.5736 95.4335 64.7392 102.373 66.4658 101.441Z" fill="#C4C4C4"/>
    <path d="M56.853 102.551C57.7762 101.921 57.7761 101.921 59.33 102.214C61.2488 102.575 60.866 96.7738 57.7812 96.7732C54.3481 96.7726 55.2323 103.658 56.853 102.551Z" fill="#C4C4C4"/>
    <path d="M85.0778 91.7849C85.5778 90.7851 85.5777 90.7851 87.0777 90.2849C88.93 89.6672 85.7734 84.7847 83.0779 86.2849C80.0781 87.9545 84.2001 93.54 85.0778 91.7849Z" fill="#C4C4C4"/>
    <path d="M61.5176 1.10474C62.2627 5.50091 68.5005 9.80491 68.5005 14" stroke="black" stroke-linecap="round"/>
    <path d="M25.5 0.5C31.2311 4.75004 35 14.8648 35 22" stroke="black" stroke-linecap="round"/>
    <path d="M44 27C41.5 27.5 34.9326 26.3346 34.9326 23.5897C34.9326 16.6689 41.7941 13.8226 48.5 11.5C55.858 8.95149 65.8988 8.65272 68.3361 13.5272C69.5964 16.0478 66.9147 20.5341 64.5 21.5" stroke="black" stroke-linecap="round"/>
    <path d="M42.6352 22.2233L42.2305 21.9297C42.1293 22.0692 42.1071 22.2511 42.1718 22.4109L42.6352 22.2233ZM64.0024 17.2542H64.5024C64.5024 17.0508 64.3792 16.8677 64.1908 16.791L64.0024 17.2542ZM84.0005 45L83.5681 45.2511L84.0005 45ZM34.9329 72.1079L35.4328 72.1017L34.9329 72.1079ZM55.0005 83.2179L55.111 83.7056C55.3112 83.6602 55.4633 83.4971 55.4946 83.2943C55.526 83.0915 55.4302 82.8901 55.2531 82.7864L55.0005 83.2179ZM55.5005 76.0001L55.3631 75.5193C55.3407 75.5257 55.3187 75.5337 55.2974 75.5432L55.5005 76.0001ZM59.5005 82.0307L59.0845 81.7533C58.9675 81.9288 58.9732 82.1587 59.0986 82.3281C59.224 82.4976 59.4422 82.5702 59.6442 82.5096L59.5005 82.0307ZM70.5005 77.5L70.7501 77.9333C70.9462 77.8202 71.042 77.5895 70.9835 77.3708C70.925 77.1521 70.7269 77 70.5005 77V77.5ZM69.5005 70.3783L69.2769 69.931L69.5005 70.3783ZM74.0005 75.5L73.5512 75.2805C73.4537 75.4802 73.4996 75.7203 73.664 75.8698C73.8284 76.0194 74.0718 76.0425 74.2613 75.9266L74.0005 75.5ZM79.0004 64.5L79.3005 64.9H79.3005L79.0004 64.5ZM84.5005 67.4072H84.0005C84.0005 67.6104 84.1235 67.7934 84.3118 67.8702C84.5 67.9469 84.7159 67.902 84.858 67.7567L84.5005 67.4072ZM81.2844 70.3783L81.5996 70.7664C81.7739 70.6249 81.8324 70.3845 81.7428 70.1787C81.6532 69.9729 81.4374 69.852 81.2151 69.8831L81.2844 70.3783ZM43.04 22.5169C47.2509 16.7126 55.9877 14.5347 63.8141 17.7174L64.1908 16.791C56.0133 13.4656 46.7567 15.6909 42.2305 21.9297L43.04 22.5169ZM84.4329 44.7489C82.7864 41.9134 80.6892 39.7137 78.4904 37.7746C77.392 36.806 76.2645 35.8992 75.156 35.0129C74.0446 34.1242 72.954 33.2573 71.9142 32.358C69.836 30.5605 67.9892 28.6569 66.6583 26.2743C65.331 23.8983 64.5024 21.0198 64.5024 17.2542H63.5024C63.5024 21.178 64.3688 24.2263 65.7852 26.762C67.198 29.291 69.1435 31.2837 71.2601 33.1143C72.3176 34.029 73.4251 34.9092 74.5315 35.7939C75.6407 36.6809 76.7508 37.5739 77.829 38.5246C79.9834 40.4245 81.9955 42.5427 83.5681 45.2511L84.4329 44.7489ZM42.1718 22.4109C45.5582 30.7774 43.6388 38.8382 40.827 47.0299C38.0327 55.171 34.3264 63.4895 34.4329 72.114L35.4328 72.1017C35.3291 63.7027 38.9337 55.6262 41.7729 47.3546C44.5947 39.1335 46.6315 30.7638 43.0987 22.0357L42.1718 22.4109ZM55.2531 82.7864C53.9152 82.0033 53.2794 80.7527 53.3313 79.5597C53.3828 78.3755 54.1166 77.1623 55.7036 76.457L55.2974 75.5432C53.4021 76.3855 52.402 77.9127 52.3322 79.5162C52.2628 81.1109 53.1181 82.6954 54.7479 83.6495L55.2531 82.7864ZM55.6379 76.4808C57.1439 76.0505 58.4064 76.7168 59.1072 77.8305C59.8162 78.9572 59.9195 80.5008 59.0845 81.7533L59.9165 82.308C60.9947 80.6908 60.8479 78.7191 59.9536 77.2979C59.051 75.8637 57.3568 74.9496 55.3631 75.5193L55.6379 76.4808ZM70.5005 77C70.0234 77 69.4429 76.7728 68.8993 76.3456C68.361 75.9227 67.9042 75.338 67.6582 74.6974C67.4144 74.0625 67.3814 73.3871 67.6569 72.7421C67.9335 72.0945 68.5488 71.4131 69.7241 70.8255L69.2769 69.931C67.9521 70.5934 67.1311 71.4272 66.7372 72.3493C66.3423 73.274 66.4048 74.2228 66.7247 75.0558C67.0424 75.8831 67.6174 76.6101 68.2814 77.1319C68.9401 77.6495 69.7323 78 70.5005 78V77ZM69.7241 70.8255C70.7727 70.3012 71.544 70.2539 72.0964 70.4199C72.647 70.5854 73.0709 70.9901 73.3709 71.5572C73.6729 72.128 73.8327 72.8362 73.8545 73.5293C73.8765 74.2269 73.7574 74.8585 73.5512 75.2805L74.4497 75.7195C74.7476 75.1099 74.8795 74.3049 74.854 73.4978C74.8284 72.6863 74.6424 71.822 74.2548 71.0895C73.8653 70.3533 73.2559 69.7241 72.3842 69.4622C71.5143 69.2008 70.4741 69.3325 69.2769 69.931L69.7241 70.8255ZM79.3005 64.9C80.2571 64.1823 81.0119 63.8937 81.5874 63.8473C82.1441 63.8024 82.5718 63.9801 82.913 64.292C83.6375 64.9543 84.0005 66.2606 84.0005 67.4072H85.0005C85.0005 66.1391 84.6134 64.4916 83.5877 63.554C83.0539 63.0659 82.3565 62.782 81.507 62.8506C80.6762 62.9176 79.7436 63.3175 78.7004 64.1L79.3005 64.9ZM81.2151 69.8831C80.7174 69.9528 80.1156 69.8436 79.54 69.5741C78.9664 69.3054 78.459 68.896 78.1358 68.4146C77.8171 67.9399 77.6822 67.4062 77.8115 66.8447C77.9425 66.2756 78.3622 65.6038 79.3005 64.9L78.7004 64.1C77.6388 64.8963 77.0368 65.7523 76.837 66.6204C76.6354 67.4961 76.8605 68.3091 77.3055 68.972C77.746 69.6281 78.4059 70.1472 79.1159 70.4797C79.824 70.8113 80.6222 70.9759 81.3537 70.8734L81.2151 69.8831ZM34.4329 72.114C34.4717 75.2524 35.1367 77.719 36.3059 79.609C37.478 81.5035 39.136 82.7846 41.0986 83.5816C44.9963 85.1644 50.1004 84.8413 55.111 83.7056L54.89 82.7303C49.9355 83.8534 45.0817 84.1198 41.4748 82.6551C39.6851 81.9283 38.2041 80.7765 37.1563 79.0828C36.1057 77.3846 35.47 75.1078 35.4328 72.1017L34.4329 72.114ZM84.858 67.7567C88.2855 64.2507 89.6269 60.9035 89.3441 57.1776C89.0652 53.503 87.208 49.5283 84.4329 44.7489L83.5681 45.2511C86.3419 50.0282 88.087 53.8279 88.347 57.2533C88.6031 60.6274 87.42 63.7055 84.143 67.0576L84.858 67.7567ZM74.2613 75.9266C76.8347 74.3528 79.792 72.2344 81.5996 70.7664L80.9692 69.9901C79.1961 71.43 76.2751 73.5228 73.7396 75.0734L74.2613 75.9266ZM59.6442 82.5096C64.1383 81.1614 66.6641 80.2871 70.7501 77.9333L70.2509 77.0667C66.2592 79.3663 63.8152 80.2143 59.3568 81.5518L59.6442 82.5096Z" fill="black"/>
    <path d="M78.6624 98.0193C79.0558 96.9728 79.0557 96.9729 80.4956 96.3195C82.2736 95.5125 78.6264 90.9847 76.1015 92.757C73.2915 94.7294 77.9719 99.8561 78.6624 98.0193Z" stroke="black" stroke-linecap="round"/>
    <path d="M66.4656 101.441C67.4493 100.91 67.4492 100.91 68.9643 101.362C70.8354 101.92 71.0562 96.1105 67.988 95.7901C64.5735 95.4335 64.739 102.373 66.4656 101.441Z" stroke="black" stroke-linecap="round"/>
    <path d="M56.8533 102.551C57.7766 101.921 57.7764 101.921 59.3303 102.214C61.2492 102.575 60.8663 96.7738 57.7815 96.7732C54.3484 96.7726 55.2327 103.658 56.8533 102.551Z" stroke="black" stroke-linecap="round"/>
    <path d="M85.0776 91.7849C85.5777 90.7851 85.5776 90.7851 87.0776 90.2849C88.9299 89.6672 85.7732 84.7847 83.0777 86.2849C80.0779 87.9545 84.1999 93.54 85.0776 91.7849Z" stroke="black" stroke-linecap="round"/>
    <path d="M19.5283 112.661C25.8219 118.764 54.6126 114.699 52.0208 110.811C50.6529 108.76 46.0962 103.82 49 102.5C58.0503 98.3862 70.5 101.575 76.5 97.5C80.2828 94.9306 89.8378 82.9979 93.568 85.0825C99.5318 88.4151 91.5897 105.91 103.644 102.115C112.853 99.2163 115.573 91.4089 116.674 82.5979" stroke="black" stroke-linecap="round"/>
    <path d="M49.9993 58.1203C47.3659 57.4141 45.7129 59.9732 45.2055 61.7322C44.5305 64.0718 45.4837 68.3805 48.5806 67.9731C51.3614 67.6072 54.0564 65.9063 53.9991 62.7809C53.9547 60.357 52.3144 58.7411 49.9993 58.1203Z" fill="white"/>
    <path d="M75.0007 49.1203C77.6341 48.4141 79.2871 50.9732 79.7945 52.7322C80.4695 55.0719 79.5163 59.3805 76.4194 58.9731C73.6386 58.6072 70.9436 56.9063 71.0009 53.7809C71.0453 51.357 72.6856 49.7411 75.0007 49.1203Z" fill="white"/>
    <path d="M49.3329 44.0842C47.5773 43.5899 46.4753 45.3813 46.137 46.6125C45.687 48.2503 46.3225 51.2663 48.387 50.9812C50.241 50.7251 52.0376 49.5344 51.9994 47.3467C51.9698 45.6499 50.8763 44.5187 49.3329 44.0842Z" fill="white"/>
    <path d="M59.5555 85.0121C59.2629 84.9414 59.0792 85.1973 59.0228 85.3732C58.9478 85.6072 59.0537 86.0381 59.3978 85.9973C59.7068 85.9608 60.0063 85.7907 59.9999 85.4781C59.995 85.2357 59.8127 85.0741 59.5555 85.0121Z" fill="white"/>
    <path d="M49.5555 61.0121C49.2629 60.9414 49.0792 61.1973 49.0228 61.3732C48.9478 61.6072 49.0537 62.0381 49.3978 61.9973C49.7068 61.9607 50.0063 61.7907 49.9999 61.4781C49.995 61.2357 49.8127 61.0741 49.5555 61.0121Z" fill="white"/>
    <path d="M49.5555 46.0121C49.2629 45.9414 49.0792 46.1973 49.0228 46.3732C48.9478 46.6072 49.0537 47.0381 49.3978 46.9973C49.7068 46.9607 50.0063 46.7907 49.9999 46.4781C49.995 46.2357 49.8127 46.0741 49.5555 46.0121Z" fill="white"/>
    <path d="M51.5555 64.0121C51.2629 63.9414 51.0792 64.1973 51.0228 64.3732C50.9478 64.6072 51.0537 65.0381 51.3978 64.9973C51.7068 64.9607 52.0063 64.7907 51.9999 64.4781C51.995 64.2357 51.8127 64.0741 51.5555 64.0121Z" fill="white"/>
    <path d="M75.5555 51.0121C75.2629 50.9414 75.0792 51.1973 75.0228 51.3732C74.9478 51.6072 75.0537 52.0381 75.3978 51.9973C75.7068 51.9607 76.0063 51.7907 75.9999 51.4781C75.995 51.2357 75.8127 51.0741 75.5555 51.0121Z" fill="white"/>
    <path d="M77.5555 55.0121C77.2629 54.9414 77.0792 55.1973 77.0228 55.3732C76.9478 55.6072 77.0537 56.0381 77.3978 55.9973C77.7068 55.9607 78.0063 55.7907 77.9999 55.4781C77.995 55.2357 77.8127 55.0741 77.5555 55.0121Z" fill="white"/>
    <path d="M73.5555 54.0121C73.2629 53.9414 73.0792 54.1973 73.0228 54.3732C72.9478 54.6072 73.0537 55.0381 73.3978 54.9973C73.7068 54.9607 74.0063 54.7907 73.9999 54.4781C73.995 54.2357 73.8127 54.0741 73.5555 54.0121Z" fill="white"/>
    <path d="M70.5555 44.0121C70.2629 43.9414 70.0792 44.1973 70.0228 44.3732C69.9478 44.6072 70.0537 45.0381 70.3978 44.9973C70.7068 44.9607 71.0063 44.7907 70.9999 44.4781C70.995 44.2357 70.8127 44.0741 70.5555 44.0121Z" fill="white"/>
    <path d="M47.5555 64.0121C47.2629 63.9414 47.0792 64.1973 47.0228 64.3732C46.9478 64.6072 47.0537 65.0381 47.3978 64.9973C47.7068 64.9607 48.0063 64.7907 47.9999 64.4781C47.995 64.2357 47.8127 64.0741 47.5555 64.0121Z" fill="white"/>
    <path d="M73.5555 79.0121C73.2629 78.9414 73.0792 79.1973 73.0228 79.3732C72.9478 79.6072 73.0537 80.0381 73.3978 79.9973C73.7068 79.9608 74.0063 79.7907 73.9999 79.4781C73.995 79.2357 73.8127 79.0741 73.5555 79.0121Z" fill="white"/>
    <path d="M84.5555 78.0121C84.2629 77.9414 84.0792 78.1973 84.0228 78.3732C83.9478 78.6072 84.0537 79.0381 84.3978 78.9973C84.7068 78.9608 85.0063 78.7907 84.9999 78.4781C84.995 78.2357 84.8127 78.0741 84.5555 78.0121Z" fill="white"/>
    <path d="M57.5555 79.0121C57.2629 78.9414 57.0792 79.1973 57.0228 79.3732C56.9478 79.6072 57.0537 80.0381 57.3978 79.9973C57.7068 79.9608 58.0063 79.7907 57.9999 79.4781C57.995 79.2357 57.8127 79.0741 57.5555 79.0121Z" fill="white"/>
    <path d="M69.5555 72.0121C69.2629 71.9414 69.0792 72.1973 69.0228 72.3732C68.9478 72.6072 69.0537 73.0381 69.3978 72.9973C69.7068 72.9608 70.0063 72.7907 69.9999 72.4781C69.995 72.2357 69.8127 72.0741 69.5555 72.0121Z" fill="white"/>
    <path d="M71.5555 74.0121C71.2629 73.9414 71.0792 74.1973 71.0228 74.3732C70.9478 74.6072 71.0537 75.0381 71.3978 74.9973C71.7068 74.9608 72.0063 74.7907 71.9999 74.4781C71.995 74.2357 71.8127 74.0741 71.5555 74.0121Z" fill="white"/>
    <path d="M81.5555 65.0121C81.2629 64.9414 81.0792 65.1973 81.0228 65.3732C80.9478 65.6072 81.0537 66.0381 81.3978 65.9973C81.7068 65.9607 82.0063 65.7907 81.9999 65.4781C81.995 65.2357 81.8127 65.0741 81.5555 65.0121Z" fill="white"/>
    <path d="M83.5555 71.0121C83.2629 70.9414 83.0792 71.1973 83.0228 71.3732C82.9478 71.6072 83.0537 72.0381 83.3978 71.9973C83.7068 71.9607 84.0063 71.7907 83.9999 71.4781C83.995 71.2357 83.8127 71.0741 83.5555 71.0121Z" fill="white"/>
    <path d="M55.5555 90.0121C55.2629 89.9414 55.0792 90.1973 55.0228 90.3732C54.9478 90.6072 55.0537 91.0381 55.3978 90.9973C55.7068 90.9608 56.0063 90.7907 55.9999 90.4781C55.995 90.2357 55.8127 90.0741 55.5555 90.0121Z" fill="white"/>
    <path d="M78.5555 81.0121C78.2629 80.9414 78.0792 81.1973 78.0228 81.3732C77.9478 81.6072 78.0537 82.0381 78.3978 81.9973C78.7068 81.9608 79.0063 81.7907 78.9999 81.4781C78.995 81.2357 78.8127 81.0741 78.5555 81.0121Z" fill="white"/>
    <path d="M70.5555 88.0121C70.2629 87.9414 70.0792 88.1973 70.0228 88.3732C69.9478 88.6072 70.0537 89.0381 70.3978 88.9973C70.7068 88.9608 71.0063 88.7907 70.9999 88.4781C70.995 88.2357 70.8127 88.0741 70.5555 88.0121Z" fill="white"/>
    <path d="M76.5555 89.0121C76.2629 88.9414 76.0792 89.1973 76.0228 89.3732C75.9478 89.6072 76.0537 90.0381 76.3978 89.9973C76.7068 89.9608 77.0063 89.7907 76.9999 89.4781C76.995 89.2357 76.8127 89.0741 76.5555 89.0121Z" fill="white"/>
    <path d="M73.5555 83.0121C73.2629 82.9414 73.0792 83.1973 73.0228 83.3732C72.9478 83.6072 73.0537 84.0381 73.3978 83.9973C73.7068 83.9608 74.0063 83.7907 73.9999 83.4781C73.995 83.2357 73.8127 83.0741 73.5555 83.0121Z" fill="white"/>
    <path d="M69.6671 40.0842C71.4227 39.5899 72.5247 41.3813 72.863 42.6125C73.313 44.2503 72.6775 47.2663 70.613 46.9812C68.759 46.7251 66.9624 45.5344 67.0006 43.3467C67.0302 41.6499 68.1237 40.5187 69.6671 40.0842Z" fill="white"/>
    <path d="M49.9993 58.1203C47.3659 57.4141 45.7129 59.9732 45.2055 61.7322C44.5305 64.0718 45.4837 68.3805 48.5806 67.9731C51.3614 67.6072 54.0564 65.9063 53.9991 62.7809C53.9547 60.357 52.3144 58.7411 49.9993 58.1203Z" stroke="black" stroke-linecap="round"/>
    <path d="M75.0007 49.1203C77.6341 48.4141 79.2871 50.9732 79.7945 52.7322C80.4695 55.0719 79.5163 59.3805 76.4194 58.9731C73.6386 58.6072 70.9436 56.9063 71.0009 53.7809C71.0453 51.357 72.6856 49.7411 75.0007 49.1203Z" stroke="black" stroke-linecap="round"/>
    <path d="M49.3329 44.0842C47.5773 43.5899 46.4753 45.3813 46.137 46.6125C45.687 48.2503 46.3225 51.2663 48.387 50.9812C50.241 50.7251 52.0376 49.5344 51.9994 47.3467C51.9698 45.6499 50.8763 44.5187 49.3329 44.0842Z" stroke="black" stroke-linecap="round"/>
    <path d="M59.5555 85.0121C59.2629 84.9414 59.0792 85.1973 59.0228 85.3732C58.9478 85.6072 59.0537 86.0381 59.3978 85.9973C59.7068 85.9608 60.0063 85.7907 59.9999 85.4781C59.995 85.2357 59.8127 85.0741 59.5555 85.0121Z" stroke="black" stroke-linecap="round"/>
    <path d="M49.5555 61.0121C49.2629 60.9414 49.0792 61.1973 49.0228 61.3732C48.9478 61.6072 49.0537 62.0381 49.3978 61.9973C49.7068 61.9607 50.0063 61.7907 49.9999 61.4781C49.995 61.2357 49.8127 61.0741 49.5555 61.0121Z" stroke="black" stroke-linecap="round"/>
    <path d="M49.5555 46.0121C49.2629 45.9414 49.0792 46.1973 49.0228 46.3732C48.9478 46.6072 49.0537 47.0381 49.3978 46.9973C49.7068 46.9607 50.0063 46.7907 49.9999 46.4781C49.995 46.2357 49.8127 46.0741 49.5555 46.0121Z" stroke="black" stroke-linecap="round"/>
    <path d="M51.5555 64.0121C51.2629 63.9414 51.0792 64.1973 51.0228 64.3732C50.9478 64.6072 51.0537 65.0381 51.3978 64.9973C51.7068 64.9607 52.0063 64.7907 51.9999 64.4781C51.995 64.2357 51.8127 64.0741 51.5555 64.0121Z" stroke="black" stroke-linecap="round"/>
    <path d="M75.5555 51.0121C75.2629 50.9414 75.0792 51.1973 75.0228 51.3732C74.9478 51.6072 75.0537 52.0381 75.3978 51.9973C75.7068 51.9607 76.0063 51.7907 75.9999 51.4781C75.995 51.2357 75.8127 51.0741 75.5555 51.0121Z" stroke="black" stroke-linecap="round"/>
    <path d="M77.5555 55.0121C77.2629 54.9414 77.0792 55.1973 77.0228 55.3732C76.9478 55.6072 77.0537 56.0381 77.3978 55.9973C77.7068 55.9607 78.0063 55.7907 77.9999 55.4781C77.995 55.2357 77.8127 55.0741 77.5555 55.0121Z" stroke="black" stroke-linecap="round"/>
    <path d="M73.5555 54.0121C73.2629 53.9414 73.0792 54.1973 73.0228 54.3732C72.9478 54.6072 73.0537 55.0381 73.3978 54.9973C73.7068 54.9607 74.0063 54.7907 73.9999 54.4781C73.995 54.2357 73.8127 54.0741 73.5555 54.0121Z" stroke="black" stroke-linecap="round"/>
    <path d="M70.5555 44.0121C70.2629 43.9414 70.0792 44.1973 70.0228 44.3732C69.9478 44.6072 70.0537 45.0381 70.3978 44.9973C70.7068 44.9607 71.0063 44.7907 70.9999 44.4781C70.995 44.2357 70.8127 44.0741 70.5555 44.0121Z" stroke="black" stroke-linecap="round"/>
    <path d="M47.5555 64.0121C47.2629 63.9414 47.0792 64.1973 47.0228 64.3732C46.9478 64.6072 47.0537 65.0381 47.3978 64.9973C47.7068 64.9607 48.0063 64.7907 47.9999 64.4781C47.995 64.2357 47.8127 64.0741 47.5555 64.0121Z" stroke="black" stroke-linecap="round"/>
    <path d="M73.5555 79.0121C73.2629 78.9414 73.0792 79.1973 73.0228 79.3732C72.9478 79.6072 73.0537 80.0381 73.3978 79.9973C73.7068 79.9608 74.0063 79.7907 73.9999 79.4781C73.995 79.2357 73.8127 79.0741 73.5555 79.0121Z" stroke="black" stroke-linecap="round"/>
    <path d="M84.5555 78.0121C84.2629 77.9414 84.0792 78.1973 84.0228 78.3732C83.9478 78.6072 84.0537 79.0381 84.3978 78.9973C84.7068 78.9608 85.0063 78.7907 84.9999 78.4781C84.995 78.2357 84.8127 78.0741 84.5555 78.0121Z" stroke="black" stroke-linecap="round"/>
    <path d="M57.5555 79.0121C57.2629 78.9414 57.0792 79.1973 57.0228 79.3732C56.9478 79.6072 57.0537 80.0381 57.3978 79.9973C57.7068 79.9608 58.0063 79.7907 57.9999 79.4781C57.995 79.2357 57.8127 79.0741 57.5555 79.0121Z" stroke="black" stroke-linecap="round"/>
    <path d="M69.5555 72.0121C69.2629 71.9414 69.0792 72.1973 69.0228 72.3732C68.9478 72.6072 69.0537 73.0381 69.3978 72.9973C69.7068 72.9608 70.0063 72.7907 69.9999 72.4781C69.995 72.2357 69.8127 72.0741 69.5555 72.0121Z" stroke="black" stroke-linecap="round"/>
    <path d="M71.5555 74.0121C71.2629 73.9414 71.0792 74.1973 71.0228 74.3732C70.9478 74.6072 71.0537 75.0381 71.3978 74.9973C71.7068 74.9608 72.0063 74.7907 71.9999 74.4781C71.995 74.2357 71.8127 74.0741 71.5555 74.0121Z" stroke="black" stroke-linecap="round"/>
    <path d="M81.5555 65.0121C81.2629 64.9414 81.0792 65.1973 81.0228 65.3732C80.9478 65.6072 81.0537 66.0381 81.3978 65.9973C81.7068 65.9607 82.0063 65.7907 81.9999 65.4781C81.995 65.2357 81.8127 65.0741 81.5555 65.0121Z" stroke="black" stroke-linecap="round"/>
    <path d="M83.5555 71.0121C83.2629 70.9414 83.0792 71.1973 83.0228 71.3732C82.9478 71.6072 83.0537 72.0381 83.3978 71.9973C83.7068 71.9607 84.0063 71.7907 83.9999 71.4781C83.995 71.2357 83.8127 71.0741 83.5555 71.0121Z" stroke="black" stroke-linecap="round"/>
    <path d="M55.5555 90.0121C55.2629 89.9414 55.0792 90.1973 55.0228 90.3732C54.9478 90.6072 55.0537 91.0381 55.3978 90.9973C55.7068 90.9608 56.0063 90.7907 55.9999 90.4781C55.995 90.2357 55.8127 90.0741 55.5555 90.0121Z" stroke="black" stroke-linecap="round"/>
    <path d="M78.5555 81.0121C78.2629 80.9414 78.0792 81.1973 78.0228 81.3732C77.9478 81.6072 78.0537 82.0381 78.3978 81.9973C78.7068 81.9608 79.0063 81.7907 78.9999 81.4781C78.995 81.2357 78.8127 81.0741 78.5555 81.0121Z" stroke="black" stroke-linecap="round"/>
    <path d="M70.5555 88.0121C70.2629 87.9414 70.0792 88.1973 70.0228 88.3732C69.9478 88.6072 70.0537 89.0381 70.3978 88.9973C70.7068 88.9608 71.0063 88.7907 70.9999 88.4781C70.995 88.2357 70.8127 88.0741 70.5555 88.0121Z" stroke="black" stroke-linecap="round"/>
    <path d="M76.5555 89.0121C76.2629 88.9414 76.0792 89.1973 76.0228 89.3732C75.9478 89.6072 76.0537 90.0381 76.3978 89.9973C76.7068 89.9608 77.0063 89.7907 76.9999 89.4781C76.995 89.2357 76.8127 89.0741 76.5555 89.0121Z" stroke="black" stroke-linecap="round"/>
    <path d="M73.5555 83.0121C73.2629 82.9414 73.0792 83.1973 73.0228 83.3732C72.9478 83.6072 73.0537 84.0381 73.3978 83.9973C73.7068 83.9608 74.0063 83.7907 73.9999 83.4781C73.995 83.2357 73.8127 83.0741 73.5555 83.0121Z" stroke="black" stroke-linecap="round"/>
    <path d="M69.6671 40.0842C71.4227 39.5899 72.5247 41.3813 72.863 42.6125C73.313 44.2503 72.6775 47.2663 70.613 46.9812C68.759 46.7251 66.9624 45.5344 67.0006 43.3467C67.0302 41.6499 68.1237 40.5187 69.6671 40.0842Z" stroke="black" stroke-linecap="round"/>
</svg>
