<svg width="120" height="120" viewBox="0 0 120 120" fill="none" xmlns="http://www.w3.org/2000/svg">
    <path d="M9.2292 16.242C12.1114 8.41999 23.6114 -4.16954 31.8691 5.0329C40.1449 14.2555 27.2179 18.8968 26.239 28.7155C25.697 34.1515 26.3505 42.1108 19.0633 42.3196C7.18061 42.6601 6.71809 23.057 9.2292 16.242Z" fill="#C4C4C4"/>
    <path d="M112.771 16.242C109.889 8.41999 98.3886 -4.16954 90.1309 5.0329C81.8551 14.2555 94.7821 18.8968 95.761 28.7155C96.303 34.1515 95.6495 42.1108 102.937 42.3196C114.819 42.6601 115.282 23.057 112.771 16.242Z" fill="#C4C4C4"/>
    <path d="M109.83 19.5001C109.43 12.3001 103.83 5.49989 99.83 5.5C96.8494 5.50008 102.28 10.0452 103.83 13C105.138 15.4938 106.83 19.5001 106.83 19.5001C106.83 19.5001 110.33 28.5001 109.83 19.5001Z" fill="#F5F5F5"/>
    <path d="M22.0001 5.5C18.0001 5.49989 12.4001 12.3001 12.0001 19.5001C11.5001 28.5001 15.0001 19.5001 15.0001 19.5001C15.0001 19.5001 16.6919 15.4938 18.0001 13C19.5501 10.0452 24.9807 5.50008 22.0001 5.5Z" fill="#F5F5F5"/>
    <path d="M61.2481 118.299C58.6545 115.964 57.9342 114.084 54.5874 113.137C48.8938 111.527 41.5469 109.302 41.5469 102.423C41.5469 95.8017 52.7835 93.5072 61.2481 93.3806C69.7256 93.2538 78.9676 94.4856 80.6686 103.557C80.6686 109.227 77.9954 113.137 69.3289 113.137C64.262 113.137 64.083 115.464 61.2481 118.299Z" fill="#E6E6E6"/>
    <path d="M33.0421 61.6004C32.9192 53.7397 33.6063 36.6665 26.2383 32.1174L26.2773 28.5193C36.2817 32.7712 35.7971 49.9969 35.7971 59.056C35.7971 72.5683 28.7191 90.4172 42.1141 98.4542L41.5468 101.289C25.6713 94.4854 33.2253 73.3252 33.0421 61.6004Z" fill="#F5F5F5"/>
    <path d="M88.6072 61.6004C88.73 53.7397 88.0429 36.6665 95.4109 32.1174L95.3719 28.5193C85.3675 32.7712 85.8522 49.9969 85.8522 59.056C85.8522 72.5683 92.895 90.963 79.5 99L80.1024 101.289C95.9779 94.4854 88.424 73.3252 88.6072 61.6004Z" fill="#F5F5F5"/>
    <path d="M9.2292 16.242C12.1114 8.41999 23.6114 -4.16954 31.8691 5.0329C40.1449 14.2555 27.2179 18.8968 26.239 28.7155C25.697 34.1515 26.3505 42.1108 19.0633 42.3196C7.18061 42.6601 6.71809 23.057 9.2292 16.242Z" stroke="black" stroke-linecap="round" stroke-linejoin="round"/>
    <path d="M112.771 16.242C109.889 8.41999 98.3886 -4.16954 90.1309 5.0329C81.8551 14.2555 94.7821 18.8968 95.761 28.7155C96.303 34.1515 95.6495 42.1108 102.937 42.3196C114.819 42.6601 115.282 23.057 112.771 16.242Z" stroke="black" stroke-linecap="round" stroke-linejoin="round"/>
    <path d="M61.2481 118.299C58.6545 115.964 57.9342 114.084 54.5874 113.137C48.8938 111.527 41.5469 109.302 41.5469 102.423C41.5469 95.8017 52.7835 93.5072 61.2481 93.3806C69.7256 93.2538 78.9676 94.4856 80.6686 103.557C80.6686 109.227 77.9954 113.137 69.3289 113.137C64.262 113.137 64.083 115.464 61.2481 118.299Z" stroke="black" stroke-linecap="round" stroke-linejoin="round"/>
    <path d="M26.2383 32.1174C33.6063 36.6665 32.9192 53.7397 33.0421 61.6004C33.2253 73.3252 25.6713 94.4854 41.5468 101.289" stroke="black" stroke-linecap="round" stroke-linejoin="round"/>
    <path d="M26.2773 28.5193C36.2817 32.7712 35.7971 49.9969 35.7971 59.056C35.7971 72.5683 28.7191 90.4172 42.1141 98.4542" stroke="black" stroke-linecap="round" stroke-linejoin="round"/>
    <path d="M95.4102 32.1174C88.0422 36.6665 88.7292 53.7397 88.6064 61.6004C88.4232 73.3252 95.9771 94.4854 80.1017 101.289" stroke="black" stroke-linecap="round" stroke-linejoin="round"/>
    <path d="M95.3711 28.5193C85.3667 32.7712 85.8514 49.9969 85.8514 59.056C85.8514 72.5683 92.9294 90.4172 79.5344 98.4542" stroke="black" stroke-linecap="round" stroke-linejoin="round"/>
</svg>
