<svg width="120" height="120" viewBox="0 0 120 120" fill="none" xmlns="http://www.w3.org/2000/svg">
    <path d="M64.372 78.3419C58.0548 80.9282 49.8763 81.5632 47.192 81.5632C30.6125 81.5632 19.2416 88.0204 9.446 100.951C8.86357 102.115 8 102.262 8 99.817C13.9056 85.8582 36.9171 78.3419 47.192 78.3419C52.1873 78.3419 58.6734 77.8482 63.2982 75.6575C72.2318 71.4259 74.9601 66.8076 76.7202 58.4775C78.2166 51.3952 75.0701 47.2898 73.4989 40.2237C72.0779 33.8335 69.8648 30.1878 70.2776 23.5806C70.6458 17.6879 70.9718 13.764 74.5726 9.08508C76.5385 6.53066 81.0217 -0.233417 80.7927 3.65967C80.5867 7.1613 75.503 11.3975 74.2037 17.0951C72.4203 24.9156 76.1833 37.5393 76.1833 37.5393C76.1833 37.5393 79.9414 49.003 79.9414 55.2562C79.9414 65.0088 73.4234 74.6363 64.372 78.3419Z" fill="#C4C4C4"/>
    <path d="M105.174 17.1383C106.713 14.6764 107.915 12.5983 110.907 11.9993C111.952 11.79 103.993 28.3906 95.5106 34.8552C85.9593 42.1343 77.2673 41.5313 66.5853 42.525C53.6233 43.7307 42.8964 49.3509 42.8964 59.5516C42.8964 76.1653 54.708 85.3215 52.0238 96.596C49.6999 106.357 39.408 120.395 36.8055 117.835C33.7699 114.85 45.5808 105.723 48.2655 96.596C50.4764 89.0797 39.0962 68.6038 39.0962 58.6886C39.0962 47.5202 53.8055 39.3334 67.0995 39.3334C72.9618 39.3334 83.8605 39.2339 92.1172 33.5423C98.8318 28.9136 101.185 23.5206 105.174 17.1383Z" fill="#C4C4C4"/>
    <path d="M9.446 100.951L9.04745 100.649L9.01949 100.686L8.99879 100.727L9.446 100.951ZM64.372 78.3419L64.5614 78.8046L64.372 78.3419ZM76.1833 37.5393L75.7039 37.6822L75.7082 37.6951L76.1833 37.5393ZM74.2037 17.0951L73.7162 16.9839L74.2037 17.0951ZM80.7927 3.65967L81.2918 3.68903V3.68903L80.7927 3.65967ZM74.5726 9.08508L74.1764 8.78014L74.5726 9.08508ZM70.2776 23.5806L69.7786 23.5494L70.2776 23.5806ZM73.4989 40.2237L73.987 40.1152L73.4989 40.2237ZM76.7202 58.4775L77.2094 58.5809L76.7202 58.4775ZM63.2982 75.6575L63.0842 75.2057L63.2982 75.6575ZM47.7288 77.8419C47.4527 77.8419 47.2288 78.0658 47.2288 78.3419C47.2288 78.6181 47.4527 78.8419 47.7288 78.8419V77.8419ZM8 99.817L7.53952 99.6221L7.5 99.7155V99.817H8ZM49.3124 80.527C49.0367 80.5419 48.8253 80.7775 48.8402 81.0533C48.8551 81.329 49.0907 81.5405 49.3665 81.5255L49.3124 80.527ZM45.5943 82.0837C45.8704 82.0766 46.0883 81.847 46.0812 81.5709C46.074 81.2949 45.8444 81.0769 45.5683 81.0841L45.5943 82.0837ZM44.5565 78.9822C44.8313 78.9552 45.0322 78.7105 45.0052 78.4357C44.9782 78.1609 44.7335 77.96 44.4587 77.987L44.5565 78.9822ZM7.5 99.817C7.5 100.451 7.55524 100.953 7.66366 101.328C7.76486 101.679 7.94923 102.044 8.30809 102.197C8.70838 102.368 9.07405 102.181 9.29941 101.989C9.53226 101.789 9.73164 101.497 9.89321 101.174L8.99879 100.727C8.86915 100.986 8.74218 101.149 8.6493 101.229C8.54893 101.315 8.5895 101.23 8.70109 101.278C8.77125 101.308 8.70333 101.324 8.62441 101.051C8.55271 100.802 8.5 100.406 8.5 99.817H7.5ZM74.6912 17.2063C75.3179 14.4581 76.8617 12.0454 78.3254 9.82947C79.0494 8.73341 79.7602 7.67509 80.2994 6.67166C80.8377 5.6699 81.234 4.67222 81.2918 3.68903L80.2936 3.63031C80.2484 4.39794 79.932 5.24289 79.4185 6.1983C78.906 7.15205 78.2261 8.16542 77.491 9.27832C76.0365 11.4803 74.3888 14.0345 73.7162 16.9839L74.6912 17.2063ZM76.1833 37.5393C76.6624 37.3965 76.6624 37.3965 76.6624 37.3965C76.6624 37.3964 76.6624 37.3963 76.6624 37.3962C76.6623 37.3959 76.6621 37.3954 76.6619 37.3948C76.6615 37.3934 76.6609 37.3913 76.6601 37.3885C76.6584 37.3827 76.6558 37.374 76.6524 37.3623C76.6455 37.339 76.6353 37.3039 76.622 37.2575C76.5953 37.1648 76.5563 37.0271 76.5071 36.8487C76.4087 36.4919 76.2697 35.9723 76.1084 35.3239C75.7856 34.0268 75.3737 32.2165 75.0173 30.1644C74.3012 26.0404 73.823 21.0133 74.6912 17.2063L73.7162 16.9839C72.801 20.9974 73.3126 26.1924 74.0321 30.3355C74.3935 32.4168 74.8109 34.2512 75.138 35.5654C75.3016 36.2228 75.4427 36.7505 75.5431 37.1146C75.5933 37.2966 75.6333 37.4378 75.6609 37.5338C75.6747 37.5818 75.6854 37.6185 75.6927 37.6434C75.6963 37.6559 75.6991 37.6654 75.7011 37.6718C75.702 37.6751 75.7028 37.6776 75.7033 37.6793C75.7035 37.6802 75.7037 37.6808 75.7039 37.6813C75.7039 37.6815 75.704 37.6818 75.704 37.6819C75.7041 37.682 75.7041 37.6822 76.1833 37.5393ZM80.4414 55.2562C80.4414 52.0597 79.486 47.5754 78.5465 43.9281C78.0747 42.0963 77.603 40.4614 77.2493 39.2843C77.0724 38.6957 76.925 38.2213 76.8216 37.8937C76.7699 37.7299 76.7292 37.6027 76.7014 37.5164C76.6875 37.4732 76.6768 37.4402 76.6696 37.4179C76.666 37.4067 76.6632 37.3982 76.6613 37.3925C76.6604 37.3896 76.6597 37.3875 76.6592 37.386C76.6589 37.3852 76.6588 37.3846 76.6586 37.3842C76.6586 37.384 76.6585 37.3839 76.6585 37.3838C76.6584 37.3837 76.6584 37.3836 76.1833 37.5393C75.7082 37.6951 75.7082 37.6951 75.7082 37.6951C75.7082 37.6952 75.7082 37.6953 75.7083 37.6955C75.7084 37.6958 75.7085 37.6962 75.7087 37.6969C75.7092 37.6982 75.7098 37.7001 75.7107 37.7028C75.7124 37.7081 75.715 37.7162 75.7185 37.7269C75.7255 37.7484 75.7359 37.7805 75.7495 37.8228C75.7768 37.9074 75.8169 38.0327 75.8679 38.1946C75.9701 38.5183 76.1162 38.9883 76.2916 39.5721C76.6426 40.74 77.1104 42.3618 77.5781 44.1775C78.5178 47.8255 79.4414 52.1996 79.4414 55.2562H80.4414ZM81.2918 3.68903C81.3212 3.19061 81.2882 2.74076 81.1058 2.42195C81.0035 2.24317 80.8458 2.09185 80.6274 2.02051C80.4193 1.95254 80.2157 1.97684 80.0492 2.02716C79.732 2.12304 79.4101 2.35605 79.1137 2.6162C78.8048 2.88744 78.4714 3.23584 78.13 3.62466C76.7798 5.16238 75.1308 7.53993 74.1764 8.78014L74.9689 9.39002C75.9803 8.07581 77.5559 5.79412 78.8815 4.28447C79.209 3.91144 79.5103 3.59873 79.7735 3.36769C80.0493 3.12556 80.2369 3.0151 80.3385 2.9844C80.3814 2.97143 80.3646 2.98666 80.3169 2.9711C80.259 2.95218 80.2356 2.91475 80.2378 2.91862C80.2644 2.96508 80.3215 3.15546 80.2936 3.63031L81.2918 3.68903ZM74.1764 8.78014C70.4756 13.5889 70.1472 17.6506 69.7786 23.5494L70.7767 23.6117C71.1445 17.7253 71.468 13.9391 74.9689 9.39002L74.1764 8.78014ZM69.7786 23.5494C69.5678 26.9226 70.029 29.542 70.7176 32.1129C71.4136 34.7111 72.3008 37.139 73.0108 40.3322L73.987 40.1152C73.2761 36.9182 72.3462 34.3282 71.6836 31.8542C71.0136 29.3529 70.5746 26.8458 70.7767 23.6117L69.7786 23.5494ZM73.0108 40.3322C73.409 42.123 73.9064 43.723 74.4008 45.2179C74.8977 46.7203 75.3849 48.0975 75.779 49.4815C76.5605 52.2255 76.9573 54.9364 76.231 58.3741L77.2094 58.5809C77.9794 54.9363 77.5513 52.0534 76.7408 49.2076C76.339 47.7967 75.8384 46.38 75.3502 44.9039C74.8596 43.4205 74.3744 41.8574 73.987 40.1152L73.0108 40.3322ZM63.0842 75.2057C58.5647 77.3465 52.7095 77.8419 47.7288 77.8419V78.8419C52.7389 78.8419 58.7822 78.35 63.5123 76.1094L63.0842 75.2057ZM76.231 58.3741C75.3569 62.5107 74.2538 65.6663 72.2975 68.3068C70.3437 70.9439 67.5055 73.1114 63.0842 75.2057L63.5123 76.1094C68.0245 73.972 71.0173 71.7145 73.101 68.9021C75.1822 66.093 76.3233 62.7744 77.2094 58.5809L76.231 58.3741ZM64.5614 78.8046C73.7986 75.023 80.4414 65.214 80.4414 55.2562H79.4414C79.4414 64.8036 73.0482 74.2496 64.1826 77.8792L64.5614 78.8046ZM49.3665 81.5255C52.9111 81.3337 59.1301 81.0282 64.5614 78.8046L64.1826 77.8792C58.9316 80.0289 52.881 80.3339 49.3124 80.527L49.3665 81.5255ZM9.84455 101.253C19.2405 88.8499 30.0547 82.488 45.5943 82.0837L45.5683 81.0841C29.6856 81.4972 18.6018 88.0369 9.04745 100.649L9.84455 101.253ZM44.4587 77.987C38.8185 78.5416 30.9903 80.682 23.8839 84.299C16.7887 87.9103 10.3246 93.0392 7.53952 99.6221L8.46048 100.012C11.1103 93.7485 17.3251 88.7594 24.3375 85.1902C31.3387 81.6267 39.0468 79.524 44.5565 78.9822L44.4587 77.987Z" fill="black"/>
    <path d="M52.0238 96.596L51.5374 96.4802L52.0238 96.596ZM66.5853 42.525L66.539 42.0271L66.5853 42.525ZM95.5106 34.8552L95.8137 35.2529L95.5106 34.8552ZM110.907 11.9993L110.809 11.509L110.907 11.9993ZM105.174 17.1383L105.598 17.4033L105.174 17.1383ZM92.1172 33.5423L91.8334 33.1306L92.1172 33.5423ZM48.2655 96.596L47.7858 96.4549L48.2655 96.596ZM36.8055 117.835L37.1561 117.479L36.8055 117.835ZM73.5378 42.333C73.8131 42.3114 74.0187 42.0707 73.9971 41.7954C73.9755 41.5201 73.7348 41.3145 73.4595 41.3361L73.5378 42.333ZM77.7398 40.8006C77.4652 40.8304 77.2668 41.0771 77.2966 41.3516C77.3264 41.6261 77.5731 41.8246 77.8476 41.7948L77.7398 40.8006ZM76.6588 38.3608C76.3848 38.3945 76.1899 38.6441 76.2237 38.9181C76.2574 39.1922 76.5069 39.3871 76.781 39.3533L76.6588 38.3608ZM72.9953 39.8323C73.2708 39.8138 73.4792 39.5754 73.4607 39.2999C73.4422 39.0244 73.2038 38.816 72.9283 38.8345L72.9953 39.8323ZM110.809 11.509C107.574 12.1568 106.268 14.4458 104.75 16.8733L105.598 17.4033C107.159 14.907 108.257 13.0398 111.005 12.4895L110.809 11.509ZM104.75 16.8733C100.726 23.3128 98.4388 28.5773 91.8334 33.1306L92.401 33.9539C99.2249 29.2499 101.645 23.7285 105.598 17.4033L104.75 16.8733ZM95.8137 35.2529C100.135 31.9595 104.285 26.1231 107.212 21.1792C108.679 18.6999 109.85 16.4258 110.591 14.7781C110.96 13.9576 111.228 13.2778 111.372 12.8C111.441 12.5708 111.494 12.3461 111.499 12.1637C111.501 12.0858 111.499 11.9232 111.407 11.7703C111.353 11.6806 111.265 11.5901 111.137 11.5381C111.012 11.4878 110.895 11.4918 110.809 11.509L111.005 12.4895C110.952 12.5002 110.862 12.5058 110.762 12.4652C110.657 12.423 110.589 12.3501 110.55 12.2859C110.489 12.1839 110.5 12.1035 110.499 12.1372C110.498 12.1781 110.479 12.295 110.414 12.5122C110.289 12.9275 110.042 13.5608 109.679 14.3682C108.956 15.9763 107.803 18.2171 106.351 20.6699C103.439 25.59 99.3687 31.2862 95.2075 34.4575L95.8137 35.2529ZM38.5962 58.6886C38.5962 61.2453 39.3266 64.4436 40.361 67.8817C41.3977 71.3274 42.7568 75.0669 44.0383 78.7079C45.3232 82.3586 46.5302 85.9101 47.2795 89.0137C48.0343 92.1406 48.2978 94.7142 47.7858 96.4549L48.7451 96.7371C49.3386 94.7197 49.0087 91.9152 48.2515 88.779C47.4888 85.6195 46.2653 82.0231 44.9816 78.3759C43.6944 74.7189 42.3466 71.0106 41.3186 67.5936C40.2883 64.1689 39.5962 61.0895 39.5962 58.6886H38.5962ZM52.5102 96.7118C53.8985 90.8804 51.5247 85.6122 48.9221 79.8696C46.3022 74.0889 43.3964 67.7374 43.3964 59.5516H42.3964C42.3964 67.9794 45.3964 74.5129 48.0113 80.2824C50.6434 86.09 52.8333 91.0372 51.5374 96.4802L52.5102 96.7118ZM47.7858 96.4549C46.4757 100.909 42.9248 105.39 39.9935 109.215C38.5465 111.103 37.2397 112.847 36.4924 114.314C36.1187 115.047 35.8618 115.755 35.8174 116.406C35.7716 117.079 35.9544 117.7 36.4549 118.192L37.1561 117.479C36.8977 117.225 36.7856 116.907 36.8151 116.474C36.8461 116.019 37.0349 115.452 37.3835 114.768C38.0809 113.398 39.3254 111.73 40.7873 109.823C43.6737 106.056 47.3706 101.41 48.7451 96.7371L47.7858 96.4549ZM36.4549 118.192C36.953 118.682 37.6108 118.727 38.2528 118.538C38.8804 118.352 39.5654 117.928 40.2694 117.358C41.6854 116.209 43.3183 114.35 44.9243 112.129C48.1358 107.688 51.3279 101.678 52.5102 96.7118L51.5374 96.4802C50.3958 101.275 47.28 107.165 44.1139 111.543C42.5311 113.732 40.9578 115.512 39.6396 116.581C38.9764 117.119 38.4122 117.448 37.9697 117.578C37.5417 117.705 37.3086 117.629 37.1561 117.479L36.4549 118.192ZM67.0995 38.8334C60.3593 38.8334 53.2639 40.9063 47.8417 44.4026C42.4273 47.894 38.5962 52.8674 38.5962 58.6886H39.5962C39.5962 53.3414 43.1198 48.6373 48.3836 45.2431C53.6395 41.8539 60.5458 39.8334 67.0995 39.8334V38.8334ZM43.3964 59.5516C43.3964 54.658 45.9581 50.8446 50.155 48.0829C54.3657 45.3121 60.1998 43.6211 66.6316 43.0228L66.539 42.0271C60.0088 42.6346 53.9985 44.3566 49.6053 47.2475C45.1982 50.1475 42.3964 54.2446 42.3964 59.5516H43.3964ZM66.6316 43.0228C69.2518 42.7791 71.1392 42.5214 73.5378 42.333L73.4595 41.3361C71.0707 41.5237 69.092 41.7896 66.539 42.0271L66.6316 43.0228ZM77.8476 41.7948C84.1288 41.1135 89.5227 40.0472 95.8137 35.2529L95.2075 34.4575C89.1244 39.0935 83.9393 40.1282 77.7398 40.8006L77.8476 41.7948ZM91.8334 33.1306C87.1807 36.3379 81.6519 37.7463 76.6588 38.3608L76.781 39.3533C81.8545 38.7289 87.5624 37.2893 92.401 33.9539L91.8334 33.1306ZM72.9283 38.8345C70.4997 38.9976 68.9074 38.8334 67.0995 38.8334V39.8334C68.795 39.8334 70.5316 39.9978 72.9953 39.8323L72.9283 38.8345Z" fill="black"/>
    <path d="M80.6796 5.94309C80.4269 5.83173 80.1318 5.94631 80.0204 6.19901C79.9091 6.4517 80.0236 6.74682 80.2763 6.85818L80.6796 5.94309ZM103.915 18.1393C104.171 18.2418 104.462 18.1171 104.565 17.8607C104.667 17.6043 104.543 17.3134 104.286 17.2108L103.915 18.1393ZM76.8992 11.1195C76.6692 10.9666 76.3589 11.029 76.206 11.259C76.0531 11.4889 76.1155 11.7993 76.3455 11.9522L76.8992 11.1195ZM100.516 24.9675C100.77 25.0763 101.064 24.9588 101.173 24.705C101.282 24.4512 101.164 24.1572 100.91 24.0484L100.516 24.9675ZM74.5367 18.9681C74.2917 18.8407 73.9898 18.9361 73.8624 19.1811C73.735 19.4261 73.8303 19.728 74.0753 19.8554L74.5367 18.9681ZM94.1848 31.5288C94.4233 31.668 94.7295 31.5874 94.8686 31.3489C95.0078 31.1103 94.9272 30.8042 94.6887 30.6651L94.1848 31.5288ZM74.8281 29.0567C74.5908 28.9154 74.2839 28.9933 74.1427 29.2306C74.0014 29.4679 74.0793 29.7747 74.3166 29.916L74.8281 29.0567ZM86.1111 36.8849C86.3427 37.0354 86.6524 36.9697 86.8028 36.7382C86.9533 36.5066 86.8876 36.1969 86.6561 36.0465L86.1111 36.8849ZM67.2572 42.2329C67.0676 42.0321 66.7512 42.0229 66.5503 42.2124C66.3495 42.402 66.3404 42.7184 66.5299 42.9193L67.2572 42.2329ZM75.6461 48.0989C75.3699 48.0989 75.1461 48.3228 75.1461 48.5989C75.1461 48.875 75.3699 49.0989 75.6461 49.0989V48.0989ZM58.4236 44.0562C58.2177 43.8723 57.9016 43.8902 57.7177 44.0962C57.5338 44.3022 57.5517 44.6183 57.7577 44.8022L58.4236 44.0562ZM76.3877 58.9192C76.6316 59.0487 76.9343 58.9561 77.0639 58.7122C77.1934 58.4683 77.1008 58.1656 76.8569 58.0361L76.3877 58.9192ZM50.2253 47.3823C50.0277 47.1894 49.7111 47.1932 49.5182 47.3908C49.3253 47.5884 49.3292 47.905 49.5268 48.0979L50.2253 47.3823ZM74.3584 65.909C74.608 66.0271 74.9061 65.9205 75.0243 65.6709C75.1424 65.4213 75.0358 65.1232 74.7862 65.0051L74.3584 65.909ZM44.5031 53.7911C44.2869 53.6194 43.9724 53.6554 43.8006 53.8716C43.6288 54.0878 43.6648 54.4023 43.8811 54.5741L44.5031 53.7911ZM68.98 72.3467C69.2269 72.4702 69.5273 72.3701 69.6508 72.1231C69.7743 71.8762 69.6742 71.5758 69.4272 71.4523L68.98 72.3467ZM43.7871 62.956C43.5918 62.7607 43.2752 62.7607 43.08 62.956C42.8847 63.1512 42.8847 63.4678 43.08 63.6631L43.7871 62.956ZM59.7231 77.085C59.9184 77.2802 60.235 77.2802 60.4302 77.085C60.6255 76.8897 60.6255 76.5731 60.4302 76.3779L59.7231 77.085ZM29.7824 84.9273C29.5647 84.7574 29.2505 84.7961 29.0806 85.0138C28.9107 85.2315 28.9494 85.5457 29.1671 85.7156L29.7824 84.9273ZM47.94 95.3648C48.1497 95.5445 48.4653 95.5203 48.645 95.3106C48.8247 95.1009 48.8005 94.7853 48.5908 94.6056L47.94 95.3648ZM20.7319 89.8332C20.5552 89.6211 20.2399 89.5924 20.0277 89.7692C19.8156 89.946 19.7869 90.2613 19.9637 90.4734L20.7319 89.8332ZM43.8816 104.122C44.098 104.294 44.4125 104.257 44.584 104.041C44.7555 103.824 44.719 103.51 44.5026 103.339L43.8816 104.122ZM12.0824 98.3631C11.8724 98.1838 11.5568 98.2087 11.3775 98.4187C11.1982 98.6287 11.2232 98.9443 11.4332 99.1236L12.0824 98.3631ZM38.2893 111.482C38.5049 111.654 38.8196 111.619 38.9921 111.404C39.1646 111.188 39.1296 110.874 38.914 110.701L38.2893 111.482ZM38.879 82.221C38.6492 82.0679 38.3388 82.1299 38.1856 82.3597C38.0324 82.5895 38.0945 82.8999 38.3243 83.0531L38.879 82.221ZM46.4182 86.8357C46.6615 86.9663 46.9646 86.875 47.0953 86.6317C47.2259 86.3884 47.1346 86.0853 46.8913 85.9547L46.4182 86.8357ZM74.3166 29.916C77.3191 31.7032 83.3943 35.1192 86.1111 36.8849L86.6561 36.0465C83.9203 34.2684 77.781 30.8144 74.8281 29.0567L74.3166 29.916ZM29.1671 85.7156C29.9958 86.3624 31.3725 87.0902 32.9835 87.8571C34.6053 88.6292 36.5136 89.4631 38.4273 90.3152C40.3462 91.1697 42.2741 92.0439 43.9549 92.9038C45.6436 93.7678 47.048 94.6003 47.94 95.3648L48.5908 94.6056C47.6037 93.7595 46.1097 92.883 44.4104 92.0136C42.7031 91.1401 40.7531 90.2562 38.8341 89.4017C36.9098 88.5449 35.0201 87.7191 33.4134 86.9542C31.7958 86.1842 30.5135 85.4979 29.7824 84.9273L29.1671 85.7156ZM80.2763 6.85818C84.2433 8.60635 88.1166 10.6102 92.024 12.5897C95.9256 14.5662 99.8575 16.5163 103.915 18.1393L104.286 17.2108C100.274 15.6059 96.3769 13.6738 92.4759 11.6976C88.5807 9.72431 84.6776 7.70491 80.6796 5.94309L80.2763 6.85818ZM76.3455 11.9522C82.3728 15.96 92.0633 21.3434 100.516 24.9675L100.91 24.0484C92.5152 20.4492 82.8781 15.0951 76.8992 11.1195L76.3455 11.9522ZM74.0753 19.8554C80.7254 23.3134 87.7178 27.7564 94.1848 31.5288L94.6887 30.6651C88.2706 26.9212 81.2138 22.4403 74.5367 18.9681L74.0753 19.8554ZM66.5299 42.9193C68.0034 44.4805 70.2988 46.0156 72.1624 47.1462C73.1003 47.7152 73.9407 48.1886 74.5295 48.5183C74.8263 48.6845 75.053 48.8107 75.2002 48.8962C75.2766 48.9406 75.3176 48.9659 75.3337 48.977C75.3555 48.9919 75.3156 48.9683 75.2736 48.9206C75.2607 48.906 75.2292 48.8688 75.2019 48.8126C75.1786 48.7647 75.1203 48.6248 75.1741 48.4498C75.2352 48.2511 75.3896 48.1617 75.4764 48.1295C75.5558 48.1001 75.6225 48.0989 75.6461 48.0989V49.0989C75.6731 49.0989 75.7426 49.0974 75.824 49.0672C75.9128 49.0342 76.0684 48.9438 76.1299 48.7436C76.1842 48.5671 76.1256 48.4254 76.1012 48.3754C76.0729 48.317 76.0395 48.2772 76.0241 48.2597C75.9719 48.2005 75.91 48.1596 75.8986 48.1518C75.8482 48.1173 75.7777 48.0752 75.7025 48.0315C75.5463 47.9408 75.3087 47.8085 75.018 47.6457C74.4316 47.3175 73.6036 46.8508 72.6811 46.2912C70.8239 45.1645 68.6306 43.6881 67.2572 42.2329L66.5299 42.9193ZM57.7577 44.8022C60.1026 46.8957 63.5865 49.8 67.0648 52.4897C70.535 55.1731 74.03 57.6667 76.3877 58.9192L76.8569 58.0361C74.5819 56.8275 71.1463 54.3817 67.6765 51.6986C64.2147 49.0217 60.7491 46.1324 58.4236 44.0562L57.7577 44.8022ZM49.5268 48.0979C56.1337 54.5476 66.0742 61.9883 74.3584 65.909L74.7862 65.0051C66.6255 61.1429 56.774 53.7751 50.2253 47.3823L49.5268 48.0979ZM43.8811 54.5741C50.6188 59.927 61.1999 68.4567 68.98 72.3467L69.4272 71.4523C61.7639 67.6207 51.2808 59.1758 44.5031 53.7911L43.8811 54.5741ZM43.08 63.6631C43.6414 64.2245 44.807 65.1828 46.2521 66.3271C47.7062 67.4786 49.4707 68.8399 51.2478 70.2146C54.8214 72.9791 58.4098 75.7717 59.7231 77.085L60.4302 76.3779C59.0591 75.0068 55.3997 72.1622 51.8597 69.4237C50.08 68.0469 48.3213 66.6902 46.8729 65.5432C45.4155 64.389 44.2994 63.4683 43.7871 62.956L43.08 63.6631ZM19.9637 90.4734C21.3562 92.1444 23.3883 93.6877 25.6672 95.0943C27.951 96.504 30.5111 97.7933 32.9819 98.9473C35.4484 100.099 37.8504 101.128 39.7904 102C41.7635 102.886 43.2147 103.594 43.8816 104.122L44.5026 103.339C43.7164 102.716 42.1317 101.956 40.2004 101.087C38.236 100.205 35.8652 99.1904 33.4051 98.0413C30.9491 96.8942 28.4286 95.6236 26.1924 94.2434C23.9513 92.8601 22.0239 91.3835 20.7319 89.8332L19.9637 90.4734ZM11.4332 99.1236C15.3476 102.465 20.8055 104.504 25.8789 106.233C28.4318 107.104 30.8821 107.893 33.038 108.736C35.1967 109.579 37.0083 110.457 38.2893 111.482L38.914 110.701C37.5105 109.578 35.5824 108.657 33.402 107.804C31.2188 106.951 28.7306 106.149 26.2016 105.287C21.1111 103.551 15.8315 101.563 12.0824 98.3631L11.4332 99.1236ZM38.3243 83.0531C39.1785 83.6226 40.4942 84.1792 41.9136 84.7757C43.3556 85.3818 44.9432 86.0437 46.4182 86.8357L46.8913 85.9547C45.3667 85.136 43.7331 84.4557 42.3011 83.8539C40.8464 83.2424 39.6354 82.7253 38.879 82.221L38.3243 83.0531Z" fill="black"/>
</svg>
