<svg width="120" height="120" viewBox="0 0 120 120" fill="none" xmlns="http://www.w3.org/2000/svg">
    <path d="M38.2666 63.5559C38.2666 57.4638 50.8567 49.0289 55.6918 46.6587L91.0703 29.7615C94.6459 27.2902 113.248 17.0886 118 13.9204V32.9298C110.08 37.6821 88.4301 50.355 81.0376 54.5793L67.6781 61.4048C62.141 64.1734 56.6698 66.6474 51.0795 69.2159C48.5896 70.36 47.0331 70.3514 44.733 68.7277L38.2666 63.5559Z" fill="#C4C4C4"/>
    <path d="M42.4916 69.8924C36.6832 72.0045 36.1844 70.1185 31.9308 70.9485C29.4921 71.4362 22.9543 74.6447 13.001 76.0507C25.0663 69.8924 49.3561 58.8036 58.3327 54.0513C59.9029 54.0513 62.029 57.2195 62.5571 59.3316C56.2206 63.0279 47.2439 67.2522 42.4916 69.8924Z" fill="white"/>
    <path d="M56.1743 60.4516L56.1782 60.4559C51.9961 62.5 47.2437 65.6683 43.2682 67.2635C43.2682 67.2635 41.9637 66.7243 39.8516 65.6683C43.5478 64.0841 49.8835 60.4559 54.1078 58.8037C55.1633 59.3311 55.1639 59.3317 56.1743 60.4516Z" fill="#9E9E9E"/>
    <path d="M79.9582 37.1541C80.5089 39.2663 84.9708 35.3554 87.9014 32.9298C89.6419 31.4893 91.9912 29.5692 93.1818 28.1775L118 14.4485V5.99993C116.415 3.88778 102.686 1.77557 97.9342 1.77563C94.8588 1.77568 86.6199 6.35196 82.8108 9.16816C77.3407 12.3364 71.4386 18.9796 69.1422 22.8376C65.5529 30.1658 57.9116 36.3177 55.2287 43.8299C53.61 48.3623 64.6418 48.7118 66.8098 48.7118C71.75 48.7118 76.4264 45.5714 78.4179 41.0906C79.0519 39.6641 79.5579 38.3535 79.9582 37.1541L80.5089 26.5934C76.8127 36.6261 79.4529 35.2162 79.9582 37.1541Z" fill="#E6E6E6"/>
    <path d="M100.69 68.8364C97.7197 67.08 94.689 65.5358 91.8705 63.249C88.9896 60.9117 74.573 48.2685 70.8782 53.7021C69.2039 56.1644 68.115 58.5225 67.836 61.4438C67.4945 65.02 68.3526 69.1768 70.6612 72.145C78.4355 82.1405 91.8519 89.2489 97.4576 100.46C97.9212 108.44 105.327 115.832 111.663 119H118V32.9298L102.158 42.4345C102.158 50.979 102.801 62.346 107.436 69.3598C105.137 69.4226 101.802 68.8364 100.69 68.8364Z" fill="#E6E6E6"/>
    <path d="M81.3509 82.778C77.4635 79.3955 73.6464 75.9831 70.6612 72.145C68.3526 69.1768 67.4945 65.02 67.836 61.4438L52.0555 68.7278C52.0555 72.985 51.0791 77.069 51.0791 81.3937C51.0791 84.6791 54.2816 85.0991 56.9374 85.7061C59.0201 86.1821 60.828 85.7747 62.5557 84.9918C65.6419 88.9198 66.5409 97.3916 71.9628 98.8873C73.6791 99.3608 77.2181 98.229 78.3093 96.8261C81.4901 92.7365 81.3509 87.7419 81.3509 82.778Z" fill="#E6E6E6"/>
    <path d="M104.293 71.1686C100.24 68.2212 95.8446 66.473 91.8709 63.249C88.9899 60.9117 74.5734 48.2685 70.8786 53.7021C67.1546 59.1785 66.4671 66.7521 70.6616 72.145C78.4359 82.1405 91.8523 89.2489 97.458 100.46C97.9216 108.44 105.327 115.832 111.663 119" stroke="black" stroke-linecap="round"/>
    <path d="M55.6918 46.6587C50.8567 49.0289 38.2666 57.4638 38.2666 63.5559" stroke="black" stroke-linecap="round"/>
    <path d="M13 76.0507L12.7727 75.6053C12.5551 75.7164 12.4496 75.9684 12.5232 76.2014C12.5969 76.4343 12.828 76.5799 13.0699 76.5458L13 76.0507ZM31.9299 70.9485L31.8341 70.4577L31.8318 70.4582L31.9299 70.9485ZM42.4906 69.8924L42.6615 70.3623C42.6863 70.3533 42.7103 70.3423 42.7334 70.3295L42.4906 69.8924ZM62.5561 59.3316L62.808 59.7635C63.0001 59.6515 63.0951 59.4261 63.0412 59.2104L62.5561 59.3316ZM58.3317 54.0513V53.5513C58.2502 53.5513 58.1698 53.5712 58.0978 53.6094L58.3317 54.0513ZM32.0256 71.4392C34.0679 71.0407 35.165 71.2929 36.5898 71.3998C38.0465 71.5092 39.6941 71.4413 42.6615 70.3623L42.3197 69.4225C39.4787 70.4556 37.9728 70.5008 36.6646 70.4026C35.3245 70.3021 34.0454 70.0262 31.8341 70.4577L32.0256 71.4392ZM63.0412 59.2104C62.7577 58.0767 62.0596 56.6968 61.2344 55.599C60.8202 55.0479 60.3601 54.5491 59.8851 54.1832C59.4196 53.8246 58.8847 53.5513 58.3317 53.5513V54.5513C58.5638 54.5513 58.8836 54.674 59.2748 54.9754C59.6566 55.2695 60.0554 55.6948 60.435 56.1998C61.1974 57.2141 61.8264 58.4744 62.071 59.4529L63.0412 59.2104ZM42.7334 70.3295C45.0992 69.0152 48.5185 67.3055 52.1561 65.4536C55.786 63.6057 59.626 61.6197 62.808 59.7635L62.3042 58.8998C59.1497 60.7398 55.3332 62.7141 51.7025 64.5625C48.0796 66.4068 44.6344 68.1294 42.2478 69.4553L42.7334 70.3295ZM58.0978 53.6094C53.6215 55.9792 45.3174 59.9336 36.6095 64.0721C27.91 68.2067 18.8133 72.5222 12.7727 75.6053L13.2273 76.496C19.2521 73.4209 28.3329 69.1129 37.0388 64.9753C45.7362 60.8418 54.0653 56.8757 58.5657 54.4932L58.0978 53.6094ZM13.0699 76.5458C18.0841 75.8375 22.2365 74.6753 25.438 73.6306C27.0369 73.1088 28.4019 72.6152 29.509 72.2254C30.6302 71.8305 31.46 71.5523 32.0279 71.4388L31.8318 70.4582C31.1803 70.5885 30.2784 70.8942 29.1768 71.2821C28.0611 71.675 26.7123 72.1628 25.1278 72.6799C21.9624 73.7129 17.8692 74.8579 12.9301 75.5556L13.0699 76.5458Z" fill="black"/>
    <path d="M56.1733 60.4516L56.1772 60.4559C51.9951 62.5 47.2428 65.6683 43.2672 67.2635C43.2672 67.2635 41.9627 66.7243 39.8506 65.6683C43.5468 64.0841 49.8825 60.4559 54.1068 58.8037C55.1623 59.3311 55.1629 59.3317 56.1733 60.4516Z" stroke="black" stroke-linecap="round" stroke-linejoin="round"/>
    <path d="M44.7324 68.7279C47.0326 70.3516 48.589 70.3601 51.0789 69.2161C56.6692 66.6476 62.1405 64.1735 67.6775 61.405" stroke="black" stroke-linecap="round"/>
    <path d="M81.0371 54.5795C88.4296 50.3552 110.079 37.6823 118 32.9299" stroke="black" stroke-linecap="round"/>
    <path d="M52.0555 68.7278C52.0555 72.985 51.0791 77.0689 51.0791 81.3937C51.0791 84.6791 54.2816 85.099 56.9374 85.7061C60.2125 86.4547 62.8079 85.0184 65.4808 83.3736C68.8568 81.296 68.6541 77.0087 68.6541 73.6097" stroke="black" stroke-linecap="round"/>
    <path d="M63.2842 85.3263C66.3705 89.2543 66.5413 97.3915 71.9632 98.8872C73.6795 99.3607 77.2185 98.2289 78.3097 96.8259C81.4905 92.7363 81.5654 88.0572 81.5654 83.0933" stroke="black" stroke-linecap="round"/>
    <path d="M79.6084 38.0412C79.3772 38.1922 79.3122 38.502 79.4632 38.7332C79.6142 38.9644 79.924 39.0294 80.1552 38.8785L79.6084 38.0412ZM87.9014 32.9298L88.2202 33.315L87.9014 32.9298ZM98.8157 21.6665C99.011 21.4713 99.011 21.1547 98.8157 20.9594C98.6204 20.7642 98.3039 20.7642 98.1086 20.9594L98.8157 21.6665ZM80.1552 38.8785C82.1639 37.5667 85.2606 35.7645 88.2202 33.315L87.5826 32.5446C84.6808 34.9463 81.6699 36.6949 79.6084 38.0412L80.1552 38.8785ZM88.2202 33.315C90.6196 31.3291 92.2454 29.4338 93.7839 27.5276C95.3243 25.6191 96.7622 23.7201 98.8157 21.6665L98.1086 20.9594C96.0071 23.0609 94.5263 25.0157 93.0058 26.8996C91.4835 28.7857 89.9064 30.6213 87.5826 32.5446L88.2202 33.315Z" fill="black"/>
    <path d="M91.0703 29.7615C94.6459 27.2902 113.248 17.0886 118 13.9204" stroke="black" stroke-linecap="round"/>
    <path d="M102.159 69.3645C103.743 69.3645 108.363 70.0247 109.552 68.8364" stroke="black" stroke-linecap="round"/>
    <path d="M107.44 69.3645C102.802 62.3511 102.159 50.981 102.159 42.4346" stroke="black" stroke-linecap="round"/>
    <path d="M69.1424 22.8376L68.7127 22.5818L68.7023 22.5993L68.6934 22.6176L69.1424 22.8376ZM55.2289 43.8299L54.758 43.6617L55.2289 43.8299ZM78.4181 41.0906L77.9612 40.8875L78.4181 41.0906ZM80.0619 26.3698C79.9384 26.6168 80.0385 26.9171 80.2855 27.0406C80.5325 27.1641 80.8328 27.064 80.9563 26.817L80.0619 26.3698ZM82.811 9.16816L83.0616 9.60082L83.0858 9.58682L83.1082 9.5702L82.811 9.16816ZM97.9343 1.77563L97.9343 1.27563L97.9343 1.77563ZM117.6 6.29993C117.765 6.52085 118.079 6.56562 118.3 6.39993C118.521 6.23425 118.565 5.92085 118.4 5.69993L117.6 6.29993ZM54.758 43.6617C54.5233 44.319 54.5071 44.9372 54.6995 45.5021C54.8896 46.0603 55.267 46.5195 55.7389 46.8957C56.6695 47.6377 58.0547 48.1264 59.4867 48.4576C62.3696 49.1246 65.7151 49.2118 66.8099 49.2118V48.2118C65.7368 48.2118 62.4824 48.1243 59.7121 47.4834C58.3174 47.1607 57.1128 46.7122 56.3624 46.1138C55.9938 45.82 55.758 45.5083 55.6461 45.1798C55.5366 44.8581 55.5298 44.4739 55.6997 43.998L54.758 43.6617ZM66.8099 49.2118C71.9538 49.2118 76.8057 45.9494 78.875 41.2936L77.9612 40.8875C76.0474 45.1934 71.5465 48.2118 66.8099 48.2118V49.2118ZM78.875 41.2936C81.2813 35.8794 81.8778 32.0802 81.828 29.6556C81.8031 28.4452 81.6169 27.5692 81.4075 27.0045C81.3051 26.7285 81.1876 26.5007 81.0619 26.3452C81.0086 26.2793 80.9058 26.1646 80.7518 26.1051C80.6651 26.0715 80.5251 26.0421 80.3687 26.0971C80.2065 26.1541 80.1108 26.272 80.0619 26.3698L80.9563 26.817C80.9201 26.8894 80.8414 26.9909 80.7002 27.0405C80.5649 27.0881 80.4497 27.0604 80.3911 27.0377C80.2934 26.9999 80.2599 26.9438 80.2843 26.974C80.3142 27.0109 80.3861 27.1264 80.4699 27.3521C80.6326 27.791 80.8051 28.5527 80.8282 29.6761C80.8743 31.9191 80.3238 35.5715 77.9612 40.8875L78.875 41.2936ZM68.6934 22.6176C66.9283 26.2212 64.1639 29.5414 61.4542 32.9538C58.7642 36.3413 56.131 39.8172 54.758 43.6617L55.6997 43.998C57.0096 40.3304 59.5385 36.9743 62.2373 33.5757C64.9162 30.2021 67.7671 26.7822 69.5914 23.0575L68.6934 22.6176ZM69.572 23.0933C70.695 21.2068 72.718 18.6118 75.1466 16.0911C77.5754 13.5702 80.3819 11.1529 83.0616 9.60082L82.5604 8.73549C79.77 10.3517 76.8903 12.84 74.4265 15.3973C71.9624 17.9547 69.8862 20.6104 68.7127 22.5818L69.572 23.0933ZM83.1082 9.5702C84.9865 8.18148 87.9744 6.34725 90.8758 4.86084C92.3255 4.11813 93.7443 3.46709 94.9847 3.00301C96.2408 2.53308 97.261 2.27564 97.9343 2.27563L97.9343 1.27563C97.07 1.27565 95.907 1.59027 94.6343 2.06641C93.346 2.54839 91.8904 3.21744 90.4198 3.97084C87.4806 5.47663 84.4444 7.33864 82.5137 8.76611L83.1082 9.5702ZM97.9343 2.27563C100.266 2.2756 104.852 2.79751 109.063 3.58714C111.166 3.98138 113.157 4.4392 114.715 4.92605C115.495 5.16972 116.154 5.417 116.66 5.66195C117.182 5.91523 117.477 6.13659 117.6 6.29993L118.4 5.69993C118.126 5.33524 117.646 5.02856 117.096 4.76205C116.529 4.48721 115.818 4.22295 115.014 3.97157C113.403 3.46835 111.369 3.00209 109.247 2.60427C105.01 1.80977 100.355 1.2756 97.9343 1.27563L97.9343 2.27563Z" fill="black"/>
</svg>
