<svg width="80" height="81" viewBox="0 0 80 81" fill="none" xmlns="http://www.w3.org/2000/svg">
    <path d="M21.2379 47.1389C20.7351 47.7335 19.3892 48.1612 19.3892 49.0127C19.3892 51.1817 20.852 49.973 20.852 55.4988C20.852 57.2831 19.3892 58.9524 18.7391 62.4585C19.3892 65.8597 19.2912 68.4881 16.5044 70.6948C9.09962 70.6948 12.4169 65.3649 9.5969 62.0608C5.45288 56.535 5.85125 52.2854 7.87008 48.2462C5.10767 43.4111 6.17442 37.7187 7.52531 35.4678C5.97268 31.8447 3.82551 20.3458 10.288 16.818C14.5563 14.488 19.2851 15.7275 22.7211 17.5087C23.2512 17.9179 25.484 18.3149 28.9376 19.2356C31.962 20.0417 31.3992 23.0712 34.4634 21.7702L51.9302 18.0141C64.5108 14.0551 79.3615 14.4004 73.1449 29.2511C74.5264 32.7048 75.5625 39.6121 73.1449 45.1379C74.181 47.9009 77.6355 59.9885 68.6552 63.7875C67.9171 65.1025 65.2965 67.6297 64.1654 68.2773C60.8251 70.1899 59.6757 67.2412 53.4583 70.3494C48.2787 71.731 48.278 68.8261 46.8964 68.8261C46.2058 70.423 48.287 74.2842 43.8342 75.6045C43.5064 75.7017 42.9857 79.1466 42.9264 79.6391C42.8772 80.0473 41.3525 76.7797 41.1699 76.1165C40.5725 73.9465 36.3833 74.2757 36.177 70.423C35.9602 66.3724 38.9676 63.4421 43.8337 63.4421C43.8337 63.4421 46.2358 63.527 46.8964 62.4585C47.6313 61.2697 46 58.9936 46 58.9936C46 58.9936 53 58.6603 60 58.6603C61 57.9936 62.1936 57.8146 63 56.6603C64.2674 54.8462 63 50.9936 63 50.9936L60 49.6603C60 49.6603 62.0054 49.3923 63 48.6603C65.5222 46.8041 61.8634 42.789 62 39.6603C62.1248 36.801 63.6667 34.6603 63.6667 33.327C61 29.1506 60.711 25.1068 60.711 25.1068C58.9842 27.179 56.2213 30.6663 52.0972 29.1838C48.9692 31.3234 44.1341 31.9429 40.8831 29.1014C37.1923 32.094 29.8573 31.7073 26.1746 29.2044C23.9395 29.8516 22.437 31.86 17.8472 29.1506C18.42 29.7017 19.6244 31.0586 20.1003 31.9429C21.6306 34.7866 22.7211 37.3121 22.7211 40.6482C22.7211 43.0945 22.7852 45.3093 21.2379 47.1389Z" fill="#E6E6E6"/>
    <path d="M43.3334 2.32715L40.3334 3.66048C40.0001 3.8827 39.4944 5.15269 41.3334 7.66048C45.0001 12.6605 41.1112 13.1049 40.6667 13.9938C42.1112 14.5494 41.0001 14.3271 38.3334 14.3271C31.8836 14.3271 29.889 17.3271 29.6667 19.3271C30.3334 19.9938 30.2001 18.7271 31.0001 20.3271C31.8001 21.9271 32.889 22.1049 33.3334 21.9938L35.0001 22.9938H37.3334C38.0001 22.9938 46.6667 26.6605 49.6667 22.9938C52.0667 20.0605 51.1112 16.216 50.3334 14.6605C50.2223 13.7716 49.3334 11.3938 46.6667 8.99382C44.0001 6.59382 43.3334 3.54937 43.3334 2.32715Z" fill="#FAFAFA"/>
    <path d="M28.5927 64.4781C26.0831 64.5733 21.6392 63.7754 19.2676 62.4256C19.9583 59.9028 19.6129 56.0203 30.6646 57.9162C30.1124 57.2473 22.7481 57.7123 22.0305 56.0203C20.6392 52.7396 18.6285 47.078 27.4329 46.7284C21.4616 46.4561 23.0666 45.1931 23.0666 43.0655C22.7212 41.0608 23.0538 39.2204 23.2516 37.5397C22.8674 35.6885 20.6647 34.7461 21.6853 32.7046C22.8674 30.6324 26.852 31.3232 28.938 31.3232C31.8154 31.3232 35.7432 31.2188 38.5615 31.3232C40.7058 31.4025 41.9773 34.0861 44.134 34.0861C45.4805 34.0861 46.9397 32.9643 48.0007 32.1689C50.6959 30.6324 55.1857 29.251 59.6754 29.251C62.5714 29.4033 63.3934 31.7601 63.4744 34.4315C63.5441 36.7287 63.8461 39.7417 60.3661 39.821C60.3661 40.0871 61.2852 40.1098 61.9964 40.1737C64.5105 40.3996 64.5105 47.0668 63.2704 47.9006C62.2806 49.3847 58.9638 49.4018 59.9944 49.917C60.6738 50.2565 63.2307 50.5432 63.2704 51.5341C63.3607 53.7919 63.8409 56.6687 61.9964 57.5906C56.9284 60.1236 51.3859 57.8837 46.183 58.7506C45.416 58.8784 46.6001 59.6407 46.8099 59.9028C48.4205 61.9153 45.1543 64.4873 44.134 63.442C41.9569 61.2116 39.4981 60.4323 40.3969 56.2889C40.8714 54.1017 46.2818 52.9526 48.0007 53.1482C51.0095 53.4907 54.2998 54.2353 57.2179 53.1482C57.7489 52.9504 51.3772 52.4676 50.0771 52.3691L49.9974 52.363C47.6701 52.1864 43.7248 51.14 43.7248 48.9367C43.7248 46.1738 49.7559 45.9701 53.4586 45.6891C54.1493 45.6367 57.2179 44.5771 59.3298 44.2221C55.5308 44.7923 49.936 45.8284 47.5874 45.8284C45.2388 45.8284 44.793 43.5931 48.0007 41.6841C48.6216 41.2467 49.4773 40.5216 50.469 39.7259C47.8286 41.519 44.5813 43.4135 43.4223 41.9492C41.0255 38.9212 37.9174 34.0861 34.205 34.6141C35.1543 35.1222 40.4993 36.3732 40.3566 40.1737C40.2297 43.5527 36.2441 41.9492 34.205 41.6841C32.3914 41.4482 30.455 40.5442 26.1749 39.945C26.9367 40.168 29.3945 41.3822 30.6646 41.9492C32.3914 42.7202 39.1073 43.3058 39.1073 44.2221C39.9894 47.2099 37.4799 47.2099 35.845 47.2099C36.9342 47.9337 39.9894 47.2099 38.5615 52.0118C37.083 53.3932 29.6287 51.0089 26.9442 52.0118C29.9741 52.7556 38.6696 52.9213 38.5615 56.0203C38.4612 58.8977 39.6183 61.4212 37.9174 63.0966C36.1142 64.8729 31.2627 64.3768 28.5927 64.4781Z" fill="#F4F4F4"/>
    <path d="M7.99967 22.6602C7.88855 20.3269 9.39967 15.9935 16.333 17.3269C9.99984 19.3268 10.6665 20.3268 7.99967 22.6602Z" fill="#F2F2F2"/>
    <path d="M8.66663 36.9935C7.44421 37.9935 6.26638 40.3935 8.66662 45.9935C7.99967 42.3268 7.99967 41.6602 8.66663 36.9935Z" fill="#F2F2F2"/>
    <path d="M8.66662 50.6602C7.77769 51.8824 6.6665 54.7935 9.33317 59.3268C8.66662 56.3268 8.33317 55.3268 8.66662 50.6602Z" fill="#F2F2F2"/>
    <path d="M72.6665 19.9935C71.5998 16.5268 66.9998 16.8824 63.9998 17.3268C68.3332 17.3268 69.3332 19.3269 70.9998 21.3269C72.3332 22.9269 71.9998 24.6602 72.3332 27.3268C72.7776 25.9935 73.7332 23.4602 72.6665 19.9935Z" fill="#F2F2F2"/>
    <path d="M64.9998 29.9935C63.6665 29.1935 62.8887 26.1046 62.6665 24.6602C62.111 24.9935 61.1332 26.1269 61.6665 27.9935C62.3332 30.3269 63.9998 30.3269 64.9998 29.9935Z" fill="#F2F2F2"/>
    <path d="M72.3609 31.7394L72.3332 31.6602C72.3332 38.6602 71.5498 35.9935 72.5498 42.3269C74.1309 36.7932 73.1352 33.9502 72.3609 31.7394Z" fill="#F2F2F2"/>
    <path d="M72.3332 47.9935C73.4443 51.5491 74.5332 56.9269 69.9998 60.6602C72.3332 53.9935 71.3332 56.3269 72.3332 47.9935Z" fill="#F2F2F2"/>
    <path d="M35.9575 18.6875C34.906 19.0978 34.3222 19.6724 33.6162 20.0254" stroke="black" stroke-linecap="round"/>
    <path d="M33.2817 24.0389C37.6994 20.6921 43.279 26.7495 48.6672 23.6301C52.1718 21.6011 52.7429 14.0049 47.6638 14.0049" stroke="black" stroke-linecap="round"/>
    <path d="M34.4636 21.7712C31.3994 23.0722 31.9622 20.0427 28.9379 19.2365C25.4842 18.3159 23.2514 17.9189 22.7213 17.5097C19.2853 15.7284 14.5566 14.4889 10.2882 16.819C3.82576 20.3468 5.97293 31.8457 7.52555 35.4688C6.17466 37.7196 5.10791 43.4121 7.87032 48.2472C5.8515 52.2863 5.45312 56.5359 9.59714 62.0618C12.4172 65.3659 9.09986 70.6958 16.5047 70.6958C19.2915 68.4891 19.3895 65.8607 18.7394 62.4595C19.3895 58.9534 20.8522 57.2841 20.8522 55.4998C20.8522 49.974 19.3895 51.1827 19.3895 49.0137C19.3895 48.1622 20.7354 47.7345 21.2382 47.1399C22.7855 45.3103 22.7213 43.0955 22.7213 40.6492C22.7213 37.3131 21.6309 34.7875 20.1005 31.9439C19.6246 31.0596 18.4202 29.7026 17.8475 29.1516C22.4372 31.8609 23.9397 29.8526 26.1749 29.2053C29.8575 31.7083 37.1925 32.095 40.8833 29.1024C44.1343 31.9439 48.9694 31.3243 52.0975 29.1847C56.2215 30.6673 58.9844 27.1799 60.7112 25.1078C60.5854 26.2923 60.9336 28.928 62.0002 29.9946" stroke="black" stroke-linecap="round" stroke-linejoin="round"/>
    <path d="M51.9302 18.0148C64.5108 14.0558 79.3615 14.4011 73.1449 29.2517C74.5264 32.7055 75.5624 39.6128 73.1449 45.1386C74.181 47.9015 77.6355 59.9891 68.6552 63.7881C67.9171 65.1032 65.2965 67.6304 64.1654 68.278C60.8251 70.1905 59.6757 67.2419 53.4583 70.3501C48.2787 71.7316 48.278 68.8267 46.8964 68.8267C46.2058 70.4237 48.287 74.2849 43.8342 75.6052C43.5064 75.7023 42.9857 79.1472 42.9263 79.6397C42.8772 80.0479 41.3525 76.7803 41.1699 76.1172C40.5725 73.9472 36.3833 74.2764 36.177 70.4237C35.9602 66.3731 38.9676 63.4428 43.8337 63.4428" stroke="black" stroke-linecap="round" stroke-linejoin="round"/>
    <path d="M30.6651 57.9172C19.6134 56.0212 19.9588 59.9038 19.2681 62.4266C21.6397 63.7764 26.0836 64.5743 28.5932 64.4791C31.2632 64.3778 36.1147 64.8739 37.9179 63.0976C39.6188 61.4222 38.4617 58.8987 38.562 56.0212C38.6701 52.9223 29.9745 52.7566 26.9446 52.0128C29.6292 51.0099 37.0835 53.3942 38.562 52.0128C39.9899 47.2109 36.9347 47.9347 35.8455 47.2109C37.4804 47.2109 39.9899 47.2109 39.1078 44.2231C39.1078 43.3068 32.3919 42.7211 30.6651 41.9502C29.395 41.3832 26.9372 40.169 26.1753 39.946C30.4555 40.5452 32.3919 41.4492 34.2055 41.6851C36.2446 41.9502 40.2302 43.5537 40.3571 40.1747C40.4998 36.3742 35.1548 35.1231 34.2055 34.6151C37.9179 34.087 41.026 38.9221 43.4228 41.9502C45.032 43.9833 50.6672 39.5412 53.1137 37.886C54.9244 36.6611 57.9389 34.8215 57.2184 35.8548C53.8045 36.5046 49.8559 40.3788 48.0011 41.6851C44.7935 43.5941 45.2393 45.8294 47.5879 45.8294C49.9365 45.8294 55.5313 44.7933 59.3303 44.2231C57.2184 44.5781 54.1498 45.6377 53.4591 45.6901C49.7564 45.9711 43.7253 46.1748 43.7253 48.9377C43.7253 51.1409 47.6706 52.1874 49.9979 52.364C51.0884 52.4468 57.7613 52.9469 57.2184 53.1492C54.3003 54.2363 51.01 53.4917 48.0011 53.1492C46.2823 52.9535 40.8718 54.1027 40.3974 56.2899C39.4986 60.4333 41.9574 61.2126 44.1345 63.443C45.1548 64.4882 48.4209 61.9162 46.8104 59.9038C46.6006 59.6417 45.4164 58.8793 46.1835 58.7515C51.3864 57.8847 56.9289 60.1246 61.9969 57.5916C63.8414 56.6696 63.3612 53.7928 63.2708 51.5351C63.2312 50.5442 60.6743 50.2575 59.9949 49.9179C58.9643 49.4028 62.2811 49.3856 63.2708 47.9016C64.511 47.0677 64.511 40.4005 61.9969 40.1747C61.2857 40.1108 60.3666 40.0881 60.3666 39.822C63.8466 39.7427 63.5445 36.7297 63.4749 34.4324C63.3939 31.7611 62.5719 29.4043 59.6759 29.252C55.1862 29.252 50.6964 30.6334 48.0011 32.1699C46.9402 32.9653 45.481 34.087 44.1345 34.087C41.9778 34.087 40.7063 31.4035 38.562 31.3241C35.7437 31.2198 31.8158 31.3241 28.9385 31.3241C26.8525 31.3241 22.8679 30.6334 21.6858 32.7056C20.6651 34.7471 22.8678 35.6895 23.2521 37.5407C23.0543 39.2214 22.7217 41.0617 23.0671 43.0665C23.0671 45.4841 20.9949 46.7852 30.3197 46.7852C18.232 45.9551 20.5043 52.4215 22.031 56.0212C22.7486 57.7132 30.1129 57.2483 30.6651 57.9172Z" stroke="black" stroke-linecap="round" stroke-linejoin="round"/>
    <path d="M29.6289 18.8908C32.2759 12.5364 37.5669 15.1138 42.7527 14.0557" stroke="black" stroke-linecap="round"/>
    <path d="M40.1216 14.0562C41.6468 12.938 42.753 13.1084 42.753 11.2933C42.753 8.83011 40.1216 6.63219 40.1216 3.69531" stroke="black" stroke-linecap="round"/>
    <path d="M43.4456 2.31348C43.4456 7.8481 49.8211 9.91379 50.3508 14.7466" stroke="black" stroke-linecap="round"/>
</svg>
