<svg width="120" height="120" viewBox="0 0 120 120" fill="none" xmlns="http://www.w3.org/2000/svg">
    <path d="M72.6883 110.284C61.7215 110.791 53.6247 108.102 46.689 99.5917C32.5369 82.2268 71.001 71.0001 81.5007 61.0001C94.3165 48.794 117.501 77.5003 98.4768 96.02C90.2301 104.048 84.185 109.753 72.6883 110.284Z" fill="#E6E6E6"/>
    <path d="M49.0879 52.3658C39.5616 56.5336 25.3303 53.4043 19.0409 45.3678C12.0575 36.4446 4.20555 14.5942 18.624 9.60324C29.8868 5.70458 34.6 17.4371 41.5538 23.6589C45.0231 26.763 49.8342 28.7827 53.0485 31.997C60.4881 39.4366 58.1951 48.3814 49.0879 52.3658Z" fill="#E6E6E6"/>
    <path d="M72.6881 110.284C61.7213 110.791 52.1668 109.106 46.6888 99.5916C37.9996 84.5001 62.5573 110.945 74.9997 103.5C87.5002 96.0199 106.723 87.9921 98.4766 96.0199C90.2298 104.048 84.1847 109.752 72.6881 110.284Z" fill="#C4C4C4"/>
    <path d="M49.0877 52.3658C39.5614 56.5336 25.3301 53.4042 19.0407 45.3677C12.0573 36.4445 8.00056 26.5001 12.0002 16C14.7178 38.9998 17.2613 44.9344 31.4998 47.4999C41.1043 49.2304 53.2862 36.2857 56.5005 39.5C59.5005 45.8679 55.0005 48 49.0877 52.3658Z" fill="#C4C4C4"/>
    <path d="M66.3141 94.2332C61.6937 91.5929 59.9998 88 66.3141 85.1208C72.6283 82.2417 70.5008 92.9999 88.7079 85.1208C83.1563 90.3024 74.8297 99.0992 66.3141 94.2332Z" fill="#C4C4C4"/>
    <path d="M41.5529 41.3475C35.9357 41.3475 28.54 41.7038 24.9363 36.4042C20.7828 30.2962 19.4998 14 31.3685 20.4427C24.0007 25.5 41.5529 41.3475 41.5529 41.3475Z" fill="#C4C4C4"/>
    <path d="M72.6878 110.284C61.7211 110.791 53.6242 108.102 46.6885 99.5916C32.5364 82.2267 71.0005 71.0001 81.5002 61.0001C94.316 48.794 117.501 77.5003 98.4763 96.0199C90.2296 104.048 84.1845 109.753 72.6878 110.284Z" stroke="black" stroke-linecap="round"/>
    <path d="M66.3148 85.1208C60.0005 88 61.6944 91.593 66.3148 94.2332C74.8304 99.0993 83.157 90.3024 88.7086 85.1208" stroke="black" stroke-linecap="round"/>
    <path d="M49.0874 52.3658C39.5611 56.5336 25.3298 53.4043 19.0404 45.3678C12.057 36.4446 4.20507 14.5942 18.6235 9.60324C29.8863 5.70458 34.5995 17.4371 41.5533 23.6589C45.0226 26.763 49.8337 28.7827 53.048 31.997C60.4876 39.4366 58.1946 48.3814 49.0874 52.3658Z" stroke="black" stroke-linecap="round"/>
    <path d="M31.3687 20.4427C19.5 14 20.783 30.2962 24.9365 36.4042C28.5402 41.7038 35.9359 41.3475 41.5531 41.3475" stroke="black" stroke-linecap="round"/>
</svg>
