<svg width="80" height="81" viewBox="0 0 80 81" fill="none" xmlns="http://www.w3.org/2000/svg">
    <path d="M51.6666 21.6609C50.3333 18.9942 48.111 20.5498 47.3333 21.6609L48.9999 47.3275C49.2221 47.9941 49.7999 49.3275 50.3333 49.3275C50.8666 49.3275 52.111 47.9941 52.6666 47.3275C53.111 45.1052 54.1999 40.1275 54.9999 37.9941C55.9999 35.3275 54.6666 29.3275 53.9999 28.3275C53.3333 27.3275 53.3333 24.9942 51.6666 21.6609Z" fill="#999999"/>
    <path d="M46.3341 49.3518C48.2219 48.3789 50.4976 47.452 51.0024 44.9803C52.392 38.1766 56.4308 24.2415 46.8546 21.4945C38.2047 18.3573 25.6357 15.2621 16.4046 18.1318C8.54313 20.5757 5.34475 31.5802 2.18804 38.4496C1 44.9803 4.2782 50.0498 5.41069 52.5143C9.0527 60.4397 4.37862 61.8646 4.37862 70.7475C4.37862 76.2274 26.8791 63.2314 28.8043 61.4589C33.885 56.7812 40.0991 52.5653 46.3341 49.3518Z" fill="#FAFAFA"/>
    <path d="M77.8696 27.0482C77.6419 28.3182 76.1275 29.6261 74.9743 30.3782C69.6712 33.8365 67.2831 39.4565 62.1614 42.8172C60.4837 43.918 54.2025 48.4545 52.0589 46.7991C51.281 46.1983 54.5259 38.5972 54.564 37.3553C55.9818 30.3782 52.0589 24.6481 51.9767 22.4496C61.1421 22.928 79.8115 16.2173 77.8696 27.0482Z" fill="#FAFAFA"/>
    <path d="M38.3332 20.9944C27.9282 18.5553 19.6666 18.7278 15.3331 21.661C12.3593 23.674 8.66647 26.6611 8.99981 28.3277C9.33314 29.9944 22.3505 24.7143 30.9999 25.3277C36.7043 25.7322 41.6666 26.9943 44.3333 27.3276C46.4666 27.5943 50.6212 26.9041 49.6665 24.9944C47.9999 21.661 41.1012 21.6432 38.3332 20.9944Z" fill="#F4F4F4"/>
    <path d="M58.8389 26.1567C57.5056 26.1567 57.5057 29.1567 56.5057 28.49C55.1516 27.5873 53.7119 24.5706 55.5057 24.1567C59.8393 23.1567 72.5056 21.4901 73.8389 22.8234C74.5461 23.5305 74.8389 24.1567 73.8389 24.1567C72.8389 24.1567 60.1723 26.1567 58.8389 26.1567Z" fill="#F4F4F4"/>
    <path d="M46.3341 49.3518C48.2219 48.3789 50.4977 47.452 51.0025 44.9803C52.3921 38.1766 56.4309 24.2415 46.8546 21.4945C38.2047 18.3573 25.6358 15.2621 16.4046 18.1318C8.5432 20.5757 5.34482 31.5802 2.18811 38.4496C0.66683 44.3275 4.27826 50.0498 5.41075 52.5143C9.05276 60.4397 4.37868 61.8646 4.37868 70.7475C4.37868 76.2274 26.8791 63.2314 28.8043 61.4589C33.8851 56.7812 40.0992 52.5653 46.3341 49.3518Z" stroke="black" stroke-linecap="round"/>
    <path d="M77.8698 27.0482C77.6421 28.3182 76.1278 29.6261 74.9746 30.3782C69.6715 33.8365 67.2834 39.4565 62.1616 42.8172C60.4839 43.918 54.2027 48.4545 52.0591 46.7991C51.2812 46.1983 54.5261 38.5972 54.5642 37.3553C55.982 30.3782 52.0591 24.6481 51.977 22.4496C61.1424 22.928 79.8117 16.2173 77.8698 27.0482Z" stroke="black" stroke-linecap="round" stroke-linejoin="round"/>
    <path d="M47.3816 21.5517C47.6532 20.4719 48.679 20.0992 49.7898 20.1756C50.9271 20.2539 51.7756 21.1024 51.8539 22.2397" stroke="black" stroke-linecap="round"/>
    <path d="M49.7897 47.3541C48.6018 49.0068 50.1158 49.6054 51.1411 48.8598C51.7243 48.4357 53.0625 47.5306 52.1979 46.666" stroke="black" stroke-linecap="round"/>
</svg>
