<svg width="120" height="120" viewBox="0 0 120 120" fill="none" xmlns="http://www.w3.org/2000/svg">
    <path d="M116.442 69.8365C114.349 82.6231 89.1422 91.5324 76.8537 90.8497C73.2952 90.652 50.5827 76.9233 45.8615 79.0788C45.8293 79.0947 45.7971 79.1106 45.7651 79.1263C45.0055 79.5005 44.308 79.83 43.6994 80.1096C38.6107 82.4477 26.6782 80.6037 21.8835 77.816C7.33292 69.3564 -1.45542 58.1624 3.97216 42.5364C8.85713 18.6549 49.4152 4.00027 95.1564 19.1975C113.068 25.1484 118.975 54.3559 116.442 69.8365Z" fill="#F5F5F5"/>
    <path d="M59.3334 58.2766C58.0308 55.2371 47.5735 45.2503 42.5078 43.622C33.2806 41.9937 38.7084 51.7635 35.9948 54.4773C33.2811 57.1911 33.8237 60.9904 26.225 61.5332C20.1461 61.9674 6.68547 48.326 4.51436 40.9082C1.80055 45.974 -1.02182 58.7108 9.39923 69.1319C22.4255 82.1582 34.3663 79.9871 40.8795 81.6154C42.5078 79.9871 43.5934 79.9871 47.3926 78.3588C52.2775 78.3588 68.5604 87.5858 70.7314 88.1286C72.9025 88.6713 77.7875 92.4356 87.0143 89.7569C103.84 84.872 113.61 77.2733 115.781 72.3884C117.952 67.5036 115.781 55.5628 113.61 54.4773C111.439 53.3917 111.421 63.0445 108.182 67.5036C101.327 76.9424 92.7024 79.5782 81.0439 79.9871C71.0608 80.3373 48.4781 78.3588 56.6196 72.3884C64.761 66.4181 60.9617 62.076 59.3334 58.2766Z" fill="#E0E0E0"/>
    <path d="M79.5511 98.2174C77.0406 95.7069 77.81 94.0982 77.787 91.3167C96.7844 89.2139 105.193 83.2302 105.193 83.2302C109.347 90.1537 105.265 106.679 95.9985 107.193C90.2588 107.512 86.7387 101.141 79.5511 98.2174Z" fill="#C4C4C4"/>
    <path d="M86.6598 102.991C79.9584 104.411 88.5041 107.779 87.8247 112.539C87.1453 117.3 74.5307 104.411 76.9697 94.0854C78.3299 97.3556 81.5867 99.5266 86.6598 102.991Z" fill="#E6E6E6"/>
    <path d="M43.4385 79.9736C38.0307 83.3765 39.5251 88.5963 43.4387 92.51C46.6773 95.7486 52.4729 96.5053 56.6693 97.9578C65.1257 100.885 71.5318 101.616 76.9688 93.5426V91.3847C63.1325 86.5 51.9991 76.0551 43.4385 79.9736Z" fill="#E0E0E0"/>
    <path d="M18.5913 69.4883C18.3989 69.6864 18.4037 70.003 18.6018 70.1953C18.8 70.3876 19.1165 70.3829 19.3089 70.1848L18.5913 69.4883ZM32.9589 62.3392L33.0296 61.8442L32.9589 62.3392ZM43.6731 61.9501L43.7711 61.4598L43.6731 61.9501ZM45.6707 62.6246L45.447 62.1774L45.6707 62.6246ZM48.1253 61.8784C48.3723 61.7549 48.4724 61.4546 48.3489 61.2076C48.2254 60.9606 47.9251 60.8605 47.6781 60.984L48.1253 61.8784ZM28.4087 62.6614C28.1326 62.6547 27.9034 62.873 27.8966 63.1491C27.8899 63.4251 28.1082 63.6544 28.3843 63.6611L28.4087 62.6614ZM35.8876 68.9884C36.0111 69.2354 36.3114 69.3355 36.5584 69.212C36.8054 69.0885 36.9055 68.7882 36.782 68.5412L35.8876 68.9884ZM36.4676 61.4528C36.2216 61.5783 36.1239 61.8794 36.2494 62.1254C36.3749 62.3714 36.6761 62.469 36.922 62.3435L36.4676 61.4528ZM41.7549 58.9418C41.9274 58.7261 41.8924 58.4115 41.6768 58.239C41.4611 58.0665 41.1465 58.1014 40.974 58.3171L41.7549 58.9418ZM53.3157 48.3078C53.4307 48.5589 53.7275 48.6692 53.9785 48.5542C54.2296 48.4392 54.3399 48.1425 54.2249 47.8914L53.3157 48.3078ZM53.0768 42.2649L52.6864 41.9526L53.0768 42.2649ZM56.1977 40.0486L56.2413 40.5467L56.1977 40.0486ZM59.5975 40.7572L59.706 40.2691H59.7059L59.5975 40.7572ZM63.932 41.4206L63.9848 40.9234L63.932 41.4206ZM76.8227 42.1292L76.85 42.6285L76.8227 42.1292ZM80.6748 40.0939L80.2907 39.7738V39.7738L80.6748 40.0939ZM81.014 34.3873L81.4736 34.1903L81.014 34.3873ZM74.7948 29.118L74.5845 29.5716L74.7948 29.118ZM59.5598 25.6353L59.4919 26.1306L59.5598 25.6353ZM33.5373 25.0925L33.4624 24.5981L33.5373 25.0925ZM23.6771 29.5703L23.3812 29.1673L23.6771 29.5703ZM16.8474 36.4001L17.2861 36.6398L16.8474 36.4001ZM15.7241 41.1794L16.221 41.2358L15.7241 41.1794ZM16.6891 45.2652L16.2464 45.4976V45.4976L16.6891 45.2652ZM19.0184 46.9085L19.1555 46.4277L19.0184 46.9085ZM28.1022 47.5342L28.1306 48.0334L28.1022 47.5342ZM34.9379 45.5144C35.1588 45.3487 35.2036 45.0353 35.0379 44.8144C34.8722 44.5935 34.5588 44.5487 34.3379 44.7144L34.9379 45.5144ZM80.7817 33.9693C80.5468 34.1144 80.474 34.4225 80.6191 34.6575C80.7642 34.8924 81.0723 34.9652 81.3072 34.8201L80.7817 33.9693ZM86.1706 32.3594L86.1785 32.8593L86.1706 32.3594ZM89.3216 33.4021C89.5977 33.4021 89.8216 33.1783 89.8216 32.9021C89.8216 32.626 89.5977 32.4021 89.3216 32.4021V33.4021ZM63.7189 26.242C63.7127 26.5181 63.9314 26.747 64.2075 26.7533C64.4835 26.7595 64.7124 26.5408 64.7187 26.2648L63.7189 26.242ZM64.8445 22.8687L64.4168 22.6098L64.8445 22.8687ZM66.8573 21.1725L66.5874 20.7516L66.8573 21.1725ZM70.1892 20.9187C70.4654 20.9187 70.6892 20.6948 70.6892 20.4187C70.6892 20.1426 70.4654 19.9187 70.1892 19.9187V20.9187ZM75.1251 30.0074C75.3998 29.9792 75.5996 29.7337 75.5715 29.459C75.5433 29.1843 75.2978 28.9844 75.0231 29.0126L75.1251 30.0074ZM66.7137 33.347C66.6596 33.6177 66.8352 33.8811 67.106 33.9353C67.3767 33.9895 67.6401 33.8138 67.6943 33.5431L66.7137 33.347ZM33.8581 47.4323C33.6395 47.2637 33.3255 47.3042 33.1568 47.5228C32.9882 47.7415 33.0287 48.0554 33.2473 48.2241L33.8581 47.4323ZM36.6736 50.6777L37.1092 50.4323L36.6736 50.6777ZM36.3124 52.9293C36.2819 53.2037 36.4796 53.4509 36.7541 53.4814C37.0285 53.5119 37.2757 53.3141 37.3062 53.0397L36.3124 52.9293ZM55.9563 39.7252C56.1274 39.9419 56.4418 39.9789 56.6586 39.8078C56.8753 39.6367 56.9123 39.3223 56.7412 39.1056L55.9563 39.7252ZM52.3836 35.5407L52.1457 35.9805L52.3836 35.5407ZM47.8002 34.3019C47.5241 34.3019 47.3002 34.5258 47.3002 34.8019C47.3002 35.078 47.5241 35.3019 47.8002 35.3019V34.3019ZM77.559 30.8669C77.559 31.143 77.7828 31.3669 78.059 31.3669C78.3351 31.3669 78.559 31.143 78.559 30.8669H77.559ZM79.3707 26.1177L79.0933 25.7017L79.3707 26.1177ZM82.9725 24.8894C83.1934 24.7237 83.2382 24.4103 83.0725 24.1894C82.9068 23.9685 82.5934 23.9237 82.3725 24.0894L82.9725 24.8894ZM60.9622 59.7626C60.6861 59.7626 60.4622 59.9865 60.4622 60.2626C60.4622 60.5388 60.6861 60.7626 60.9622 60.7626V59.7626ZM83.2155 51.5785L83.3977 51.1128L83.2155 51.5785ZM97.599 64.111L98.0897 64.0153C98.0856 63.9942 98.0801 63.9733 98.0733 63.9529L97.599 64.111ZM107.273 61.445C107.15 61.198 106.849 61.0979 106.602 61.2214C106.355 61.3449 106.255 61.6452 106.379 61.8922L107.273 61.445ZM27.8846 46.7966C27.6146 46.8544 27.4426 47.1202 27.5005 47.3902C27.5584 47.6602 27.8241 47.8322 28.0942 47.7744L27.8846 46.7966ZM30.4318 43.7274L29.9319 43.7355L30.4318 43.7274ZM27.6436 40.5841C27.3898 40.4753 27.0958 40.5929 26.9871 40.8467C26.8783 41.1005 26.9959 41.3945 27.2497 41.5033L27.6436 40.5841ZM17.183 46.6975C17.4578 46.6703 17.6585 46.4255 17.6314 46.1507C17.6042 45.8759 17.3594 45.6752 17.0846 45.7024L17.183 46.6975ZM10.5151 50.0897L10.0198 50.0212L10.5151 50.0897ZM11.1109 54.5383C11.2197 54.7922 11.5136 54.9097 11.7674 54.801C12.0212 54.6922 12.1388 54.3982 12.03 54.1444L11.1109 54.5383ZM80.3733 40.1367C80.0971 40.1327 79.8701 40.3533 79.8661 40.6294C79.8621 40.9055 80.0827 41.1326 80.3588 41.1366L80.3733 40.1367ZM87.4219 43.0791L87.0047 43.3546V43.3546L87.4219 43.0791ZM87.6844 45.3798C87.5312 45.6096 87.5933 45.92 87.823 46.0732C88.0528 46.2264 88.3632 46.1643 88.5164 45.9345L87.6844 45.3798ZM89.0014 56.0473C89.0443 55.7745 88.8579 55.5186 88.5851 55.4757C88.3123 55.4329 88.0564 55.6193 88.0135 55.8921L89.0014 56.0473ZM87.6029 58.4121L87.9636 58.7583L87.6029 58.4121ZM83.894 59.8745L84.0043 60.3622L83.894 59.8745ZM79.2805 59.9475C79.0043 59.9475 78.7805 60.1713 78.7805 60.4475C78.7805 60.7236 79.0043 60.9475 79.2805 60.9475V59.9475ZM91.9429 67.5136C91.9485 67.7897 92.1769 68.0089 92.453 68.0033C92.729 67.9976 92.9483 67.7693 92.9426 67.4932L91.9429 67.5136ZM96.1992 62.0758C96.1993 61.7996 95.9754 61.5758 95.6993 61.5758C95.4231 61.5757 95.1993 61.7996 95.1992 62.0757L96.1992 62.0758ZM92.8073 57.2664C92.5492 57.3647 92.4197 57.6536 92.518 57.9116C92.6163 58.1697 92.9052 58.2992 93.1633 58.2009L92.8073 57.2664ZM99.4799 52.306C99.4799 52.0299 99.2561 51.806 98.9799 51.806C98.7038 51.806 98.4799 52.0299 98.4799 52.306H99.4799ZM19.3089 70.1848C23.55 65.8151 26.8649 61.9737 32.8882 62.8342L33.0296 61.8442C26.4098 60.8985 22.7258 65.2284 18.5913 69.4883L19.3089 70.1848ZM32.8882 62.8342C34.0253 62.9966 35.1301 62.8765 36.1805 62.7275C37.2502 62.5758 38.2457 62.3982 39.2629 62.3982V61.3982C38.1546 61.3982 37.0601 61.5928 36.0401 61.7374C35.0009 61.8848 34.0165 61.9852 33.0296 61.8442L32.8882 62.8342ZM39.2629 62.3982C39.975 62.3982 40.7797 62.3406 41.4944 62.32C42.2366 62.2986 42.9392 62.3132 43.575 62.4404L43.7711 61.4598C43.0216 61.3099 42.2277 61.2985 41.4656 61.3204C40.6758 61.3432 39.9681 61.3982 39.2629 61.3982V62.3982ZM43.575 62.4404C43.6574 62.4568 43.765 62.503 43.9171 62.5911C43.9908 62.6338 44.0662 62.681 44.1502 62.7337C44.2316 62.7848 44.3217 62.8416 44.4131 62.895C44.7501 63.0919 45.302 63.3679 45.8943 63.0718L45.447 62.1774C45.3641 62.2188 45.246 62.2234 44.9175 62.0315C44.8426 61.9877 44.7666 61.94 44.6821 61.8869C44.6002 61.8355 44.51 61.7788 44.4183 61.7258C44.2397 61.6223 44.0176 61.5091 43.7711 61.4598L43.575 62.4404ZM45.8943 63.0718C46.2805 62.8787 46.6613 62.6683 47.0306 62.4642C47.4032 62.2584 47.7641 62.059 48.1253 61.8784L47.6781 60.984C47.2954 61.1754 46.9163 61.3849 46.5471 61.5889C46.1746 61.7946 45.8118 61.995 45.447 62.1774L45.8943 63.0718ZM28.3843 63.6611C31.444 63.7358 34.468 66.1491 35.8876 68.9884L36.782 68.5412C35.2474 65.4719 31.9389 62.7475 28.4087 62.6614L28.3843 63.6611ZM36.922 62.3435C38.7494 61.4112 40.3999 60.6355 41.7549 58.9418L40.974 58.3171C39.7782 59.8119 38.3397 60.4976 36.4676 61.4528L36.922 62.3435ZM54.2249 47.8914C53.7966 46.9562 53.2934 46.0242 53.0545 45.0755C52.8236 44.1585 52.8685 43.3257 53.4672 42.5773L52.6864 41.9526C51.8251 43.0291 51.8083 44.2216 52.0848 45.3197C52.3534 46.3861 52.927 47.459 53.3157 48.3078L54.2249 47.8914ZM53.4672 42.5773C53.7338 42.2441 54.2305 41.7394 54.7816 41.3102C55.0558 41.0965 55.3338 40.9092 55.5946 40.7723C55.8608 40.6325 56.0794 40.5609 56.2413 40.5467L56.1541 39.5505C55.8059 39.581 55.4527 39.7173 55.1296 39.887C54.801 40.0596 54.4723 40.2835 54.1671 40.5213C53.5592 40.9948 53.0055 41.5537 52.6864 41.9526L53.4672 42.5773ZM56.2413 40.5467C56.69 40.5075 57.2083 40.6058 57.7826 40.7631C58.314 40.9087 58.9615 41.1281 59.489 41.2453L59.7059 40.2691C59.1953 40.1557 58.6848 39.9734 58.0468 39.7986C57.4518 39.6356 56.7893 39.4949 56.1541 39.5505L56.2413 40.5467ZM59.489 41.2453C60.9432 41.5685 62.4193 41.7629 63.8793 41.9178L63.9848 40.9234C62.5389 40.77 61.1059 40.5802 59.706 40.2691L59.489 41.2453ZM63.8793 41.9178C68.1163 42.3675 72.5323 42.8651 76.85 42.6285L76.7953 41.63C72.5736 41.8613 68.243 41.3753 63.9848 40.9234L63.8793 41.9178ZM76.85 42.6285C78.579 42.5337 79.9795 41.7092 81.0589 40.4139L80.2907 39.7738C79.3592 40.8915 78.2037 41.5528 76.7953 41.63L76.85 42.6285ZM81.0589 40.4139C82.5727 38.5974 82.2777 36.0667 81.4736 34.1903L80.5544 34.5843C81.299 36.3215 81.4475 38.3855 80.2907 39.7738L81.0589 40.4139ZM81.4736 34.1903C80.2269 31.2815 77.5692 29.8535 75.0052 28.6644L74.5845 29.5716C77.1548 30.7636 79.4722 32.0592 80.5544 34.5843L81.4736 34.1903ZM75.0052 28.6644C70.1272 26.4021 64.7705 25.8443 59.6276 25.1399L59.4919 26.1306C64.6943 26.8432 69.8742 27.3871 74.5845 29.5716L75.0052 28.6644ZM59.6276 25.1399C51.0253 23.9617 42.1496 23.2819 33.4624 24.5981L33.6122 25.5868C42.1571 24.2922 50.9202 24.9566 59.4919 26.1306L59.6276 25.1399ZM33.4624 24.5981C29.5587 25.1896 26.4707 26.8982 23.3812 29.1673L23.9731 29.9733C26.997 27.7524 29.9326 26.1444 33.6122 25.5868L33.4624 24.5981ZM23.3812 29.1673C20.8274 31.0429 18.0241 33.2043 16.4086 36.1603L17.2861 36.6398C18.7809 33.9048 21.4031 31.8608 23.9731 29.9733L23.3812 29.1673ZM16.4086 36.1603C15.5935 37.6518 15.4014 39.591 15.2273 41.1229L16.221 41.2358C16.4022 39.6408 16.5847 37.9232 17.2861 36.6398L16.4086 36.1603ZM15.2273 41.1229C15.0673 42.5311 15.6333 44.3299 16.2464 45.4976L17.1318 45.0328C16.5644 43.952 16.0928 42.3632 16.221 41.2358L15.2273 41.1229ZM16.2464 45.4976C16.8053 46.5622 17.8994 47.1093 18.8813 47.3894L19.1555 46.4277C18.276 46.1769 17.5025 45.7389 17.1318 45.0328L16.2464 45.4976ZM18.8813 47.3894C21.8618 48.2394 25.1477 48.2031 28.1306 48.0334L28.0738 47.035C25.1033 47.204 21.9627 47.2283 19.1555 46.4277L18.8813 47.3894ZM28.1306 48.0334C30.915 47.8751 32.7556 47.1512 34.9379 45.5144L34.3379 44.7144C32.3034 46.2403 30.6498 46.8885 28.0738 47.035L28.1306 48.0334ZM81.3072 34.8201C82.9589 33.8 84.3632 32.8881 86.1785 32.8593L86.1626 31.8594C84.0208 31.8934 82.374 32.9858 80.7817 33.9693L81.3072 34.8201ZM86.1785 32.8593C86.6501 32.8518 87.1049 32.9673 87.6283 33.1072C88.1306 33.2415 88.7078 33.4021 89.3216 33.4021V32.4021C88.8628 32.4021 88.4159 32.2826 87.8866 32.1411C87.3784 32.0053 86.7939 31.8494 86.1626 31.8594L86.1785 32.8593ZM64.7187 26.2648C64.7314 25.7061 64.7401 25.1349 64.815 24.5817C64.8897 24.0302 65.0262 23.5341 65.2723 23.1276L64.4168 22.6098C64.0721 23.1792 63.9083 23.8256 63.824 24.4475C63.74 25.0678 63.7312 25.7009 63.7189 26.242L64.7187 26.2648ZM65.2723 23.1276C65.6713 22.4683 66.3286 22.1053 67.1271 21.5935L66.5874 20.7516C65.8856 21.2015 64.9662 21.7019 64.4168 22.6098L65.2723 23.1276ZM67.1271 21.5935C68.1308 20.9501 68.8891 20.9187 70.1892 20.9187V19.9187C68.8637 19.9187 67.8505 19.9419 66.5874 20.7516L67.1271 21.5935ZM75.0231 29.0126C73.6134 29.1572 71.7415 29.2207 70.1667 29.7251C69.3659 29.9815 68.6047 30.361 67.9894 30.9482C67.3681 31.5411 66.9182 32.3246 66.7137 33.347L67.6943 33.5431C67.8602 32.7136 68.2133 32.1169 68.6798 31.6717C69.1522 31.2208 69.7634 30.9042 70.4717 30.6774C71.915 30.2152 73.6078 30.163 75.1251 30.0074L75.0231 29.0126ZM33.2473 48.2241C33.7927 48.6449 34.371 49.0418 34.9406 49.5118C35.5001 49.9735 35.9664 50.441 36.238 50.9232L37.1092 50.4323C36.7453 49.7864 36.1632 49.2242 35.5771 48.7405C35.0011 48.2653 34.3367 47.8015 33.8581 47.4323L33.2473 48.2241ZM36.238 50.9232C36.5975 51.5613 36.4239 51.9256 36.3124 52.9293L37.3062 53.0397C37.3923 52.265 37.6727 51.4325 37.1092 50.4323L36.238 50.9232ZM56.7412 39.1056C55.7178 37.8093 54.2342 35.9731 52.6214 35.1009L52.1457 35.9805C53.5439 36.7366 54.9032 38.3912 55.9563 39.7252L56.7412 39.1056ZM52.6214 35.1009C50.9017 34.1708 49.4437 34.3019 47.8002 34.3019V35.3019C49.5291 35.3019 50.6957 35.1963 52.1457 35.9805L52.6214 35.1009ZM78.559 30.8669C78.559 30.0945 78.5341 29.1979 78.6757 28.369C78.8176 27.5384 79.1089 26.8932 79.648 26.5337L79.0933 25.7017C78.2138 26.288 77.8493 27.2679 77.69 28.2007C77.5304 29.1351 77.559 30.1402 77.559 30.8669H78.559ZM79.648 26.5337C80.1203 26.2189 80.6491 26.0133 81.235 25.7796C81.802 25.5535 82.4253 25.2998 82.9725 24.8894L82.3725 24.0894C81.9461 24.4092 81.4429 24.6201 80.8645 24.8508C80.3051 25.0739 79.6699 25.3173 79.0933 25.7017L79.648 26.5337ZM60.9622 60.7626C62.7987 60.7626 64.7389 60.0181 66.6721 59.0003C68.6087 57.9806 70.6105 56.6456 72.5535 55.4153C74.5132 54.1745 76.4166 53.0376 78.2111 52.3595C80.0055 51.6814 81.6181 51.4903 83.0333 52.0441L83.3977 51.1128C81.652 50.4297 79.7584 50.7058 77.8576 51.424C75.9569 52.1423 73.976 53.331 72.0185 54.5704C70.0444 55.8204 68.0963 57.1203 66.2062 58.1154C64.3127 59.1124 62.5496 59.7626 60.9622 59.7626V60.7626ZM83.0333 52.0441C83.7663 52.3309 84.9384 52.9948 86.3255 53.9139C87.7035 54.827 89.2659 55.9732 90.7723 57.2048C92.2799 58.4372 93.7232 59.7483 94.8674 60.9905C96.0242 62.2463 96.8294 63.3835 97.1246 64.2691L98.0733 63.9529C97.7072 62.8547 96.7764 61.587 95.6029 60.313C94.4169 59.0254 92.9358 57.6817 91.4053 56.4305C89.8737 55.1785 88.2845 54.0123 86.8778 53.0803C85.4803 52.1543 84.2348 51.4404 83.3977 51.1128L83.0333 52.0441ZM97.1082 64.2068C97.3591 65.4926 98.3973 66.3043 99.6018 66.7282C100.812 67.154 102.284 67.2303 103.628 66.9929C104.962 66.757 106.256 66.1955 107.034 65.2586C107.43 64.7825 107.69 64.2107 107.745 63.5526C107.799 62.8976 107.646 62.1912 107.273 61.445L106.379 61.8922C106.688 62.5103 106.784 63.0338 106.748 63.4702C106.712 63.9037 106.543 64.285 106.265 64.6195C105.697 65.3039 104.665 65.7941 103.454 66.0081C102.252 66.2205 100.957 66.1449 99.9338 65.7849C98.9056 65.4231 98.2458 64.8151 98.0897 64.0153L97.1082 64.2068ZM28.0942 47.7744C28.9663 47.5875 29.6802 46.9393 30.1611 46.2012C30.6448 45.4587 30.9453 44.5475 30.9318 43.7192L29.9319 43.7355C29.9417 44.3308 29.718 45.0493 29.3232 45.6553C28.9255 46.2657 28.4066 46.6847 27.8846 46.7966L28.0942 47.7744ZM30.9318 43.7192C30.9153 42.7155 30.3139 42.0393 29.6492 41.5785C28.9978 41.1269 28.1933 40.8197 27.6436 40.5841L27.2497 41.5033C27.859 41.7644 28.5344 42.0225 29.0795 42.4004C29.6112 42.7689 29.9229 43.1863 29.9319 43.7355L30.9318 43.7192ZM17.0846 45.7024C15.9109 45.8184 14.2922 46.0918 12.9027 46.7148C11.5201 47.3348 10.2502 48.3575 10.0198 50.0212L11.0104 50.1583C11.1711 48.9974 12.0587 48.1892 13.3118 47.6273C14.5579 47.0686 16.0531 46.8093 17.183 46.6975L17.0846 45.7024ZM10.0198 50.0212C9.77837 51.7649 10.5452 53.2183 11.1109 54.5383L12.03 54.1444C11.4157 52.711 10.8161 51.5611 11.0104 50.1583L10.0198 50.0212ZM80.3588 41.1366C81.5581 41.1539 82.9017 41.208 84.1189 41.5197C85.3326 41.8306 86.363 42.3829 87.0047 43.3546L87.8392 42.8035C87.0095 41.5471 85.7128 40.8956 84.3669 40.551C83.0244 40.2072 81.5758 40.1541 80.3733 40.1367L80.3588 41.1366ZM87.0047 43.3546C87.155 43.5822 87.3986 44.0488 87.5575 44.5176C87.6367 44.7514 87.6874 44.9644 87.7017 45.1354C87.7172 45.3199 87.6841 45.3802 87.6844 45.3798L88.5164 45.9345C88.7023 45.6557 88.7207 45.3205 88.6982 45.0519C88.6746 44.7697 88.5978 44.4718 88.5046 44.1967C88.3185 43.6475 88.0372 43.1034 87.8392 42.8035L87.0047 43.3546ZM88.0135 55.8921C87.9486 56.3054 87.8786 56.724 87.7568 57.1131C87.6352 57.5014 87.4718 57.8264 87.2421 58.0659L87.9636 58.7583C88.3398 58.3662 88.5642 57.8813 88.7111 57.4119C88.8578 56.9433 88.9371 56.4564 89.0014 56.0473L88.0135 55.8921ZM87.2421 58.0659C86.8905 58.4323 86.35 58.7 85.7057 58.9099C85.0631 59.1191 84.3901 59.2497 83.7837 59.3869L84.0043 60.3622C84.5702 60.2343 85.3149 60.0888 86.0153 59.8607C86.7139 59.6332 87.4417 59.3023 87.9636 58.7583L87.2421 58.0659ZM83.7837 59.3869C82.3234 59.7171 80.7593 59.9475 79.2805 59.9475V60.9475C80.8562 60.9475 82.4977 60.7029 84.0043 60.3622L83.7837 59.3869ZM92.9426 67.4932C92.9378 67.2552 93.0425 67.0284 93.3067 66.7381C93.5893 66.4278 93.9455 66.1534 94.3931 65.7492C95.2508 64.9749 96.1992 63.9148 96.1992 62.0758L95.1992 62.0757C95.1992 63.4932 94.5022 64.3035 93.723 65.007C93.3522 65.3418 92.8921 65.7082 92.5673 66.0649C92.2243 66.4416 91.9305 66.908 91.9429 67.5136L92.9426 67.4932ZM93.1633 58.2009C93.9985 57.8827 94.764 57.6492 95.5079 57.3916C96.2335 57.1403 96.9243 56.8701 97.5151 56.4945C98.1159 56.1125 98.6188 55.6183 98.965 54.9223C99.308 54.2328 99.4799 53.3802 99.4799 52.306H98.4799C98.4799 53.2776 98.3239 53.9658 98.0697 54.4769C97.8187 54.9814 97.455 55.3476 96.9786 55.6506C96.4922 55.9599 95.8951 56.1992 95.1806 56.4467C94.4844 56.6878 93.6577 56.9424 92.8073 57.2664L93.1633 58.2009Z" fill="#9E9E9E"/>
    <path d="M58.6422 58.1624C70.026 66.7865 50.8037 76.8455 43.6994 80.1096C38.6107 82.4477 26.6782 80.6037 21.8835 77.816C7.33292 69.3564 -1.45542 58.1624 3.97216 42.5364C8.85713 18.6549 49.4152 4.00027 95.1564 19.1975C113.068 25.1484 118.975 54.3559 116.442 69.8365C114.349 82.6231 89.1422 91.5324 76.8537 90.8497C73.2703 90.6506 50.2637 76.7304 45.765 79.1264" stroke="black" stroke-linecap="round"/>
    <path d="M77.7876 91.3167C76.3781 95.0165 77.0411 95.7069 79.5517 98.2174C86.7392 101.141 90.2593 107.512 95.9991 107.193C105.266 106.679 109.347 90.1537 105.193 83.2302" stroke="black" stroke-linecap="round"/>
    <path d="M76.9698 94.0854C73.6957 102.68 87.1454 117.3 87.8248 112.539C88.3671 108.74 80.5664 104.006 86.6599 102.991" stroke="black" stroke-linecap="round"/>
    <path d="M76.9697 93.5427C71.5328 101.616 65.1267 100.885 56.6703 97.9579C52.4739 96.5053 46.6783 95.7486 43.4397 92.51C39.5261 88.5964 38.0317 83.3765 43.4395 79.9736" stroke="black" stroke-linecap="round"/>
    <path d="M101.937 91.3719C99.7657 90.2864 93.7392 89.7995 92.167 91.3718" stroke="black" stroke-linecap="round"/>
    <path d="M101.809 96.9627C99.7651 95.1707 96.5085 94.6279 93.252 94.6279" stroke="black" stroke-linecap="round"/>
    <path d="M99.1714 102.403C98.1374 100.056 94.8808 97.8846 92.167 96.7991" stroke="black" stroke-linecap="round"/>
</svg>
