<svg width="120" height="120" viewBox="0 0 120 120" fill="none" xmlns="http://www.w3.org/2000/svg">
    <path d="M69.3923 110.092C66.2766 91.5846 69.3635 70.3605 69.3635 51.6532C69.3635 46.8288 73.7005 24 78.9426 24C99.4175 24 117 60.7304 117 79.1071C117 89.558 116.103 102.982 111.189 112.171C108.261 117.648 70.0813 114.185 69.3923 110.092Z" fill="#E6E6E6"/>
    <path d="M51.6077 110.092C54.7234 91.5846 51.6365 70.3605 51.6365 51.6532C51.6365 46.8288 47.2995 24 42.0574 24C21.5825 24 4 60.7304 4 79.1071C4 89.558 4.8969 102.982 9.81073 112.171C12.7395 117.648 50.9187 114.185 51.6077 110.092Z" fill="#E6E6E6"/>
    <path d="M35.4079 68.8117C35.4079 64.8396 28 72.7752 28 74.7037L23.5 68.8117C34 67 57 46.3458 57 42C57.6839 29.6913 57.6457 17.226 55 4H65.5C62.8543 17.226 62.8161 29.6913 63.5 42C63.5 46.3458 86.6714 66.7464 97 68.8117L94 74.7037C92.9479 72.5998 84.776 64.0923 84.776 68.8117V87L80.9139 85.9754C82.5013 78.5946 79.8556 69.5803 79.8556 69.5803C79.8556 69.5803 70.2273 50.053 60.8066 50.0265C50.1777 49.9965 41.7576 65.4815 40.82 69.5803C39.3849 75.8534 38.1805 79.6167 39.1688 85.9754H35.4079C34.3497 82.2979 35.4079 72.2461 35.4079 68.8117Z" fill="#F5F5F5"/>
    <path d="M79.125 84.5001L81.125 86.0001C83.625 68.5 74.625 58 69.125 54.5C67.625 72 67.625 104.5 69.125 110.5C80.6253 115 102 115.5 109.5 113.5C111.5 112.5 112 111 112 110C103.6 114 82.125 111.667 73.625 110C70.625 93.6668 68.5388 63.5 72.125 62.0001C78.125 62.8001 79.2917 77.3334 79.125 84.5001Z" fill="#C4C4C4"/>
    <path d="M39.5 86.0001L41.5 84.5001C41.3333 77.3334 42.5 62.8001 48.5 62.0001C52.0613 63 50 93.6668 47 110C38.5 111.667 16.9 113.5 8.5 109.5C8.50003 110.5 10.4996 112.5 12.5 113.5C20 115.5 39.9997 115 51.5 110.5C53 104.5 53 72 51.5 54.5C46 58 37 68.5 39.5 86.0001Z" fill="#C4C4C4"/>
    <path d="M94.5 75C91.3333 74.3333 85 72.9 85 72.5C85 72 84.5 66.5 86.5 67.5C88.1 68.3 92.5 72.8333 94.5 75Z" fill="#C4C4C4"/>
    <path d="M27.5 75C30 74.3333 35 72.8 35 72C35 71 36 67.5 35 67.5C34 67.5 27.5 73.5 27.5 75Z" fill="#C4C4C4"/>
    <path d="M60.8066 50.0265L60.8052 50.5265L60.8066 50.0265ZM55.4903 3.90192C55.4361 3.63115 55.1727 3.45555 54.9019 3.50971C54.6311 3.56388 54.4555 3.8273 54.5097 4.09808L55.4903 3.90192ZM57 42L56.5008 41.9723L56.5 41.9861V42H57ZM27.5 74.7037C27.5 74.9798 27.7239 75.2037 28 75.2037C28.2761 75.2037 28.5 74.9798 28.5 74.7037H27.5ZM34.9274 86.1137C35.0038 86.3791 35.2808 86.5323 35.5462 86.4559C35.8116 86.3796 35.9648 86.1025 35.8884 85.8372L34.9274 86.1137ZM40.82 69.5803L40.3326 69.4688L40.82 69.5803ZM38.6747 86.0522C38.7171 86.3251 38.9727 86.5119 39.2456 86.4695C39.5184 86.4271 39.7052 86.1715 39.6628 85.8986L38.6747 86.0522ZM23.415 68.319C23.1429 68.3659 22.9603 68.6246 23.0073 68.8967C23.0542 69.1688 23.3129 69.3514 23.585 69.3044L23.415 68.319ZM79.8556 69.5803L80.3354 69.4395L80.3232 69.398L80.3041 69.3592L79.8556 69.5803ZM80.4251 85.8703C80.367 86.1403 80.5388 86.4062 80.8088 86.4642C81.0788 86.5223 81.3447 86.3505 81.4028 86.0806L80.4251 85.8703ZM84.276 87C84.276 87.2761 84.4999 87.5 84.776 87.5C85.0522 87.5 85.276 87.2761 85.276 87H84.276ZM93.5528 74.9273C93.6763 75.1743 93.9767 75.2744 94.2236 75.1509C94.4706 75.0274 94.5707 74.727 94.4472 74.48L93.5528 74.9273ZM65.9903 4.09808C66.0445 3.8273 65.8689 3.56388 65.5981 3.50971C65.3273 3.45555 65.0639 3.63115 65.0097 3.90192L65.9903 4.09808ZM63.5 42H64V41.9861L63.9992 41.9723L63.5 42ZM96.902 69.302C97.1727 69.3561 97.4361 69.1805 97.4903 68.9097C97.5444 68.639 97.3688 68.3756 97.098 68.3214L96.902 69.302ZM28.5 74.7037C28.5 74.5896 28.566 74.3454 28.7629 73.9626C28.9499 73.5992 29.2236 73.1692 29.5616 72.7053C30.2371 71.7783 31.1419 70.7534 32.0451 69.9105C32.9674 69.0497 33.8218 68.4419 34.3986 68.2629C34.6869 68.1735 34.771 68.2309 34.7804 68.2383C34.7995 68.2533 34.9079 68.3648 34.9079 68.8117H35.9079C35.9079 68.2656 35.7849 67.7562 35.3988 67.4524C35.0031 67.141 34.5085 67.1818 34.1023 67.3078C33.2901 67.5599 32.2925 68.3117 31.3628 69.1794C30.414 70.0649 29.4669 71.1373 28.7534 72.1164C28.3969 72.6057 28.0919 73.081 27.8737 73.5052C27.6655 73.91 27.5 74.3357 27.5 74.7037H28.5ZM85.276 87V68.8117H84.276V87H85.276ZM85.276 68.8117C85.276 68.2708 85.397 68.0591 85.4742 67.9855C85.531 67.9314 85.655 67.8684 85.9651 67.9345C86.2756 68.0007 86.6785 68.1808 87.1557 68.4735C87.6268 68.7624 88.1425 69.1437 88.6746 69.5841C89.7388 70.465 90.8411 71.56 91.7426 72.5656C92.6563 73.5849 93.3228 74.4674 93.5528 74.9273L94.4472 74.48C94.1511 73.8881 93.4016 72.9181 92.4872 71.8981C91.5605 70.8643 90.4226 69.7329 89.3123 68.8138C88.7571 68.3543 88.2021 67.9422 87.6786 67.6211C87.1612 67.3037 86.6456 67.0571 86.1735 66.9565C85.701 66.8557 85.1785 66.8859 84.7843 67.2617C84.4104 67.618 84.276 68.1728 84.276 68.8117H85.276ZM54.5097 4.09808C57.1436 17.2649 57.1837 29.6827 56.5008 41.9723L57.4992 42.0277C58.1842 29.6999 58.1478 17.187 55.4903 3.90192L54.5097 4.09808ZM56.5 42C56.5 42.1721 56.4401 42.434 56.2811 42.7968C56.1253 43.1526 55.8891 43.5723 55.5739 44.0501C54.9436 45.0053 54.0222 46.155 52.8707 47.4333C50.5696 49.9877 47.3842 53.0175 43.8659 55.9733C40.3479 58.9288 36.5079 61.8011 32.9 64.0446C29.2782 66.2968 25.9402 67.8833 23.415 68.319L23.585 69.3044C26.3098 68.8343 29.7843 67.1596 33.4281 64.8938C37.0859 62.6193 40.9646 59.7167 44.5091 56.739C48.0533 53.7615 51.2742 50.6996 53.6137 48.1026C54.7825 46.805 55.74 45.614 56.4085 44.6008C56.7427 44.0944 57.0109 43.623 57.1971 43.198C57.3803 42.7799 57.5 42.3711 57.5 42H56.5ZM41.3074 69.6918C41.527 68.7316 42.2047 67.0413 43.2844 65.0279C44.3589 63.0242 45.8144 60.7323 47.5675 58.57C51.0965 54.217 55.7291 50.5121 60.8052 50.5265L60.808 49.5265C55.2552 49.5108 50.3633 53.5335 46.7907 57.9402C44.9928 60.1578 43.5033 62.5037 42.4031 64.5553C41.3082 66.5972 40.5817 68.3796 40.3326 69.4688L41.3074 69.6918ZM34.9079 68.8117C34.9079 70.5208 34.6453 73.8408 34.5115 77.283C34.4451 78.9888 34.4116 80.7109 34.4618 82.2415C34.5116 83.7623 34.6449 85.1318 34.9274 86.1137L35.8884 85.8372C35.6419 84.9803 35.5106 83.7143 35.4612 82.2087C35.4122 80.7129 35.4448 79.018 35.5107 77.3218C35.6414 73.9601 35.9079 70.537 35.9079 68.8117H34.9079ZM40.3326 69.4688C38.9037 75.715 37.6687 79.5797 38.6747 86.0522L39.6628 85.8986C38.6922 79.6537 39.8662 75.9919 41.3074 69.6918L40.3326 69.4688ZM60.8052 50.5265C62.9916 50.5326 65.2488 51.6748 67.4395 53.4789C69.6221 55.2764 71.6807 57.6833 73.4608 60.1092C75.2387 62.5321 76.7264 64.9568 77.7703 66.7775C78.2919 67.6873 78.702 68.445 78.9813 68.9745C79.1209 69.2392 79.2278 69.4469 79.2996 69.5879C79.3355 69.6584 79.3627 69.7122 79.3807 69.7482C79.3897 69.7662 79.3964 69.7798 79.4009 69.7887C79.4031 69.7931 79.4047 69.7964 79.4058 69.7986C79.4063 69.7997 79.4067 69.8004 79.4069 69.8009C79.407 69.8011 79.4071 69.8013 79.4072 69.8014C79.4072 69.8015 79.4072 69.8015 79.8556 69.5803C80.3041 69.3592 80.304 69.3591 80.3039 69.3588C80.3038 69.3587 80.3037 69.3583 80.3035 69.358C80.3031 69.3573 80.3026 69.3563 80.302 69.355C80.3007 69.3524 80.2989 69.3486 80.2964 69.3437C80.2915 69.3338 80.2843 69.3194 80.2748 69.3004C80.2558 69.2625 80.2277 69.2067 80.1908 69.1342C80.1169 68.9891 80.0078 68.7772 79.8658 68.5079C79.5817 67.9695 79.166 67.2014 78.6378 66.2801C77.5819 64.4385 76.0738 61.9798 74.267 59.5176C72.4625 57.0583 70.3476 54.5784 68.0753 52.707C65.8111 50.8423 63.332 49.5336 60.808 49.5265L60.8052 50.5265ZM79.8556 69.5803C79.3759 69.7211 79.3759 69.7211 79.3759 69.7211C79.3759 69.7211 79.3759 69.7211 79.3759 69.7212C79.3759 69.7214 79.376 69.7216 79.3762 69.7221C79.3764 69.7229 79.3768 69.7243 79.3774 69.7263C79.3785 69.7301 79.3802 69.7362 79.3826 69.7443C79.3872 69.7606 79.3943 69.7853 79.4035 69.8182C79.4219 69.8839 79.4489 69.9822 79.483 70.1103C79.551 70.3667 79.6469 70.7426 79.7572 71.2173C79.978 72.1671 80.2562 73.5106 80.4853 75.0822C80.9449 78.2348 81.2005 82.2651 80.4251 85.8703L81.4028 86.0806C82.2148 82.305 81.9413 78.1377 81.4748 74.938C81.2409 73.3334 80.957 71.962 80.7313 70.9909C80.6184 70.5052 80.5199 70.1193 80.4495 69.8538C80.4143 69.7211 80.386 69.6185 80.3665 69.5486C80.3567 69.5136 80.349 69.4868 80.3438 69.4685C80.3412 69.4594 80.3392 69.4524 80.3377 69.4475C80.337 69.4451 80.3365 69.4432 80.3361 69.4419C80.3359 69.4412 80.3358 69.4407 80.3356 69.4403C80.3356 69.4401 80.3355 69.4399 80.3355 69.4398C80.3354 69.4397 80.3354 69.4395 79.8556 69.5803ZM65.0097 3.90192C62.3522 17.187 62.3158 29.6999 63.0008 42.0277L63.9992 41.9723C63.3163 29.6827 63.3564 17.2649 65.9903 4.09808L65.0097 3.90192ZM63 42C63 42.3721 63.121 42.7805 63.3056 43.1972C63.4933 43.6207 63.7637 44.0897 64.1002 44.593C64.7734 45.5998 65.7372 46.7819 66.9127 48.0694C69.2656 50.6464 72.5024 53.6841 76.0567 56.6452C79.6116 59.6067 83.4947 62.5004 87.1428 64.7859C90.7775 67.063 94.2264 68.767 96.902 69.302L97.098 68.3214C94.6093 67.8238 91.2885 66.2031 87.6737 63.9385C84.0723 61.6822 80.2259 58.8169 76.6968 55.8769C73.1672 52.9364 69.9657 49.93 67.6512 47.3951C66.493 46.1266 65.5658 44.9859 64.9315 44.0371C64.6142 43.5627 64.3766 43.1457 64.2199 42.792C64.0601 42.4314 64 42.1712 64 42H63Z" fill="black"/>
    <path d="M69 49.5C69 44.6756 73.7005 24 78.9426 24C99.4175 24 117 60.7304 117 79.1071C117 89.558 116.103 102.982 111.189 112.171C108.261 117.648 70.0813 114.185 69.3923 110.092C66.5486 93.2004 68.569 72.252 68.9434 54.5" stroke="black" stroke-linecap="round"/>
    <path d="M51.5 49.5C51.5 44.6756 47.2995 24 42.0574 24C21.5825 24 4 60.7304 4 79.1071C4 89.558 4.8969 102.982 9.81073 112.171C12.7395 117.648 50.9187 114.185 51.6077 110.092C54.4782 93.0415 51.9682 71.8576 51.5553 54" stroke="black" stroke-linecap="round"/>
</svg>
