<svg width="80" height="81" viewBox="0 0 80 81" fill="none" xmlns="http://www.w3.org/2000/svg">
    <path d="M7.33366 27.1423L2.66769 28.4756C1.55658 28.92 4.33366 26.8089 5.66728 26.4756C12.3937 24.7943 25.8892 20.5867 31.3337 19.4756C32.3337 20.4756 33.0003 21.1423 33.0003 21.4756C31.3337 21.8089 16.5559 25.8089 9.00033 28.4756L7.33366 27.1423Z" fill="#F2F2F2"/>
    <path d="M45.667 59.8089C41.667 61.4089 21.5559 42.1423 13.3337 39.8089C14.4003 48.8756 17.3337 67.1423 22.667 72.8089L50.667 63.4756C49.3337 62.4756 47.667 61.4756 45.667 59.8089Z" fill="#F2F2F2"/>
    <path d="M64.334 9.47559L50.334 38.8089L52.0007 38.1423L65.334 10.1423L64.334 9.47559Z" fill="#F2F2F2"/>
    <path d="M4.55479 26.7884C12.4639 23.9411 22.4002 20.0452 30.7893 19.2063C33.7414 18.9111 36.9878 34.6648 37.3918 36.7277C38.9079 44.4676 42.9378 60.1253 50.7975 63.6979C46.993 64.345 31.7142 70.4866 22.6849 72.8084C17.3042 66.8299 15.9108 54.7349 14.5866 47.1832C13.9785 43.7157 11.0538 27.1282 5.95322 26.5615C4.50392 26.4004 3.36499 27.4611 2.6416 28.5571L7.38297 27.1571" stroke="black" stroke-linecap="round" stroke-linejoin="round"/>
    <path d="M62.2504 8.77441C63.9685 8.77441 65.1252 9.56146 65.8972 10.3331C63.9682 14.5769 56.6379 30.3947 53.7183 35.8458C52.8459 37.4748 50.6114 38.9871 49.2354 39.6346C49.2351 38.1779 49.4625 35.3037 50.2187 33.9658C51.2367 31.1663 60.1101 13.4195 62.2504 8.77441Z" stroke="black" stroke-linecap="round" stroke-linejoin="round"/>
    <path d="M54.3333 34.4753C53.318 34.4753 51.4303 33.7025 51 32.8086" stroke="black" stroke-linecap="round" stroke-linejoin="round"/>
    <path d="M64.6663 12.4753C63.9997 11.4753 62.333 10.8086 61.333 10.8086" stroke="black" stroke-linecap="round" stroke-linejoin="round"/>
    <path d="M18.78 28.5576C17.5356 30.7008 16.1424 32.8003 15.1357 35.0652" stroke="black" stroke-linecap="round" stroke-linejoin="round"/>
    <path d="M14.6152 28.5576C16.1487 30.5335 17.8171 32.0559 19.8213 33.5034" stroke="black" stroke-linecap="round" stroke-linejoin="round"/>
    <path d="M22.9443 30.6396C25.4016 29.6891 27.7252 29.0133 30.2328 28.2969" stroke="black" stroke-linecap="round" stroke-linejoin="round"/>
    <path d="M20.6021 40.2705C19.7321 42.3488 18.4855 44.2436 17.4785 46.2574" stroke="black" stroke-linecap="round" stroke-linejoin="round"/>
    <path d="M16.1768 41.3125C18.1168 42.3673 19.4669 43.5558 21.1225 44.9567" stroke="black" stroke-linecap="round" stroke-linejoin="round"/>
    <path d="M24.2461 41.8324C26.7337 41.2994 29.4559 40.7524 31.7948 39.75" stroke="black" stroke-linecap="round" stroke-linejoin="round"/>
    <path d="M23.2052 52.2451C21.9615 54.7325 20.7963 57.1937 19.8213 59.7939" stroke="black" stroke-linecap="round" stroke-linejoin="round"/>
    <path d="M19.3008 53.5469C21.3436 54.9574 23.3041 56.4843 25.2877 57.972" stroke="black" stroke-linecap="round" stroke-linejoin="round"/>
    <path d="M27.6309 53.8067C28.4748 52.7712 35.4192 50.9434 36.4811 50.9434" stroke="black" stroke-linecap="round" stroke-linejoin="round"/>
    <path d="M27.1095 61.6152C26.0052 63.7135 24.8763 65.7911 23.7256 67.8625" stroke="black" stroke-linecap="round" stroke-linejoin="round"/>
    <path d="M22.6846 64.2188C24.6447 65.1625 26.551 65.5865 28.6715 66.0409" stroke="black" stroke-linecap="round" stroke-linejoin="round"/>
    <path d="M31.5342 64.2188C34.968 62.4479 37.2792 61.9035 40.8198 60.4873" stroke="black" stroke-linecap="round" stroke-linejoin="round"/>
    <path d="M72.9223 15.2822C73.227 17.2777 72.4554 19.5925 70.8398 20.4883" stroke="black" stroke-linecap="round" stroke-linejoin="round"/>
    <path d="M71.6846 23.8901C75.2291 23.4498 78.2432 16.1196 75.9284 13.0332" stroke="black" stroke-linecap="round" stroke-linejoin="round"/>
</svg>
