<svg width="80" height="81" viewBox="0 0 80 81" fill="none" xmlns="http://www.w3.org/2000/svg">
    <path d="M36.005 17.0829C34.5087 16.1763 29.864 17.6971 28.6357 18.6183C31.3992 18.6183 32.9345 24.4926 32.9345 26.6017C34.38 26.8482 37.6585 26.3432 38.7685 25.3734C38.7685 22.2828 39.0859 18.9496 36.005 17.0829Z" fill="#F4F4F4"/>
    <path d="M32.3213 30.3146C31.7072 26.937 29.6631 23.0918 27.1086 23.527C27.1062 23.5282 27.1038 23.5294 27.1014 23.5306L27.7155 25.4018C27.7155 25.4018 31.1817 30.5522 32.3213 30.3146Z" fill="#E6E6E6"/>
    <path d="M42.7604 27.523L41.5322 25.4025L46.7521 23.8672L48.2874 26.0166L42.7604 27.523Z" fill="#E6E6E6"/>
    <path d="M58.3984 41.0336V45.6682C57.4991 46.769 40.9182 51.5022 36.3127 50.8593C34.6646 49.188 24.6164 33.9928 23.7238 31.8219C23.7238 31.0947 23.4787 26.569 24.3373 26.3238C24.3373 26.3238 27.9867 29.1462 28.329 29.6726C29.1666 30.9606 35.8177 44.6482 36.3127 46.1026C40.6111 46.8964 55.9638 42.5977 58.3984 41.0336Z" fill="#999999"/>
    <path d="M51.0515 26.6309L30.1719 32.4361L54.1221 30.9296L51.0515 26.6309Z" fill="#E6E6E6"/>
    <path d="M32.3209 55.7718L63.2724 47.5507L63.3333 54.8506L32.3209 63.4482L16.6611 39.1909V30.9005L32.3209 55.7718Z" fill="#F2F2F2"/>
    <path d="M38.4616 43.5178L35.084 35.8415L39.6898 34.6133L43.0674 42.5967L38.4616 43.5178Z" fill="#E6E6E6"/>
    <path d="M42.4538 35.4629C42.0635 34.9817 42.4511 34.0586 43.0679 34.0002C43.6647 33.9437 44.2103 34.6712 43.9889 35.2283C43.765 35.7919 42.8358 35.9339 42.4538 35.4629Z" fill="#F2F2F2"/>
    <path d="M46.2946 34.2373C45.9044 33.7562 46.2919 32.833 46.9087 32.7746C47.5055 32.7181 48.0511 33.4456 47.8298 34.0027C47.6058 34.5663 46.6767 34.7083 46.2946 34.2373Z" fill="#F2F2F2"/>
    <path d="M49.9802 33.0088C49.5899 32.5276 49.9775 31.6045 50.5942 31.5461C51.1911 31.4896 51.7367 32.2171 51.5153 32.7742C51.2913 33.3378 50.3622 33.4798 49.9802 33.0088Z" fill="#F2F2F2"/>
    <path d="M43.8395 38.5361C43.4493 38.055 43.8368 37.1318 44.4536 37.0734C45.0505 37.0169 45.5961 37.7444 45.3747 38.3016C45.1507 38.8652 44.2216 39.0071 43.8395 38.5361Z" fill="#F2F2F2"/>
    <path d="M47.5231 37.3076C47.1329 36.8265 47.5204 35.9033 48.1372 35.8449C48.7341 35.7884 49.2797 36.5159 49.0583 37.0731C48.8343 37.6367 47.9052 37.7786 47.5231 37.3076Z" fill="#F2F2F2"/>
    <path d="M51.2077 36.0801C50.8174 35.5989 51.205 34.6757 51.8218 34.6174C52.4186 34.5609 52.9642 35.2884 52.7428 35.8455C52.5189 36.4091 51.5898 36.5511 51.2077 36.0801Z" fill="#F2F2F2"/>
    <path d="M45.0671 41.6064C44.6768 41.1253 45.0644 40.2021 45.6811 40.1437C46.278 40.0872 46.8236 40.8147 46.6022 41.3719C46.3783 41.9355 45.4491 42.0775 45.0671 41.6064Z" fill="#F2F2F2"/>
    <path d="M48.7517 40.3779C48.3614 39.8968 48.749 38.9736 49.3657 38.9152C49.9626 38.8587 50.5082 39.5862 50.2868 40.1434C50.0628 40.707 49.1337 40.8489 48.7517 40.3779Z" fill="#F2F2F2"/>
    <path d="M52.4362 39.1504C52.046 38.6692 52.4335 37.7461 53.0503 37.6877C53.6471 37.6312 54.1927 38.3587 53.9714 38.9158C53.7474 39.4794 52.8183 39.6214 52.4362 39.1504Z" fill="#F2F2F2"/>
    <path d="M32.0137 19.2327C32.3207 18.9256 34.4701 18.3115 35.3913 18.3115" stroke="black" stroke-linecap="round"/>
    <path d="M33.2422 20.7678C33.5492 20.4608 35.6986 19.8467 36.6198 19.8467" stroke="black" stroke-linecap="round"/>
    <path d="M33.8564 22.6096C34.1635 22.3026 36.3129 21.6885 37.234 21.6885" stroke="black" stroke-linecap="round"/>
    <path d="M28.6357 18.6183L28.3357 18.2183C28.1636 18.3475 28.0933 18.5723 28.1614 18.7764C28.2295 18.9806 28.4205 19.1183 28.6357 19.1183V18.6183ZM36.005 17.0829L35.7459 17.5106L36.005 17.0829ZM38.7685 25.3734L39.0975 25.7499L39.2685 25.6005V25.3734H38.7685ZM32.9345 26.6017H32.4345V27.0237L32.8505 27.0946L32.9345 26.6017ZM28.9358 19.0183C29.1911 18.8268 29.6645 18.5782 30.284 18.3251C30.8941 18.0759 31.6146 17.835 32.3431 17.6497C33.0737 17.4639 33.7973 17.3378 34.4172 17.3103C35.0574 17.2819 35.503 17.3634 35.7459 17.5106L36.2641 16.6553C35.7589 16.3492 35.0627 16.2807 34.3729 16.3113C33.6626 16.3428 32.8677 16.4844 32.0966 16.6806C31.3233 16.8773 30.5588 17.1327 29.9059 17.3994C29.2622 17.6623 28.6945 17.9492 28.3357 18.2183L28.9358 19.0183ZM35.7459 17.5106C37.1431 18.3571 37.7689 19.5231 38.0528 20.8722C38.3447 22.259 38.2685 23.7885 38.2685 25.3734H39.2685C39.2685 23.8677 39.3511 22.1853 39.0314 20.6662C38.7037 19.1093 37.9479 17.6755 36.2641 16.6553L35.7459 17.5106ZM33.4345 26.6017C33.4345 25.4687 33.0324 23.4068 32.2823 21.6251C31.906 20.7313 31.4283 19.874 30.8426 19.2321C30.2568 18.5901 29.5187 18.1183 28.6357 18.1183V19.1183C29.1345 19.1183 29.6246 19.3808 30.1039 19.9061C30.5833 20.4315 31.0076 21.1746 31.3606 22.0131C32.069 23.6957 32.4345 25.6255 32.4345 26.6017H33.4345ZM32.8505 27.0946C33.6573 27.2322 34.9052 27.1565 36.0707 26.9349C36.6605 26.8227 37.2475 26.6698 37.7655 26.4781C38.2759 26.2892 38.7538 26.0502 39.0975 25.7499L38.4395 24.9969C38.2282 25.1815 37.8801 25.3694 37.4184 25.5402C36.9643 25.7082 36.4332 25.848 35.8839 25.9525C34.7713 26.1641 33.6572 26.2177 33.0185 26.1088L32.8505 27.0946Z" fill="black"/>
    <path d="M27.1086 23.527C29.6631 23.0918 31.7072 26.937 32.3213 30.3146M32.3213 30.3146C31.1817 30.5522 27.7155 25.4018 27.7155 25.4018M32.3213 30.3146C33.6095 30.046 40.9188 28.1365 40.9188 28.1365C40.7515 25.9285 40.5767 21.1405 38.7694 21.0742M27.7155 25.4018L27.1014 23.5306C28.3296 22.9165 31.0931 21.9954 31.7072 21.9954M27.7155 25.4018L24.3379 26.3229" stroke="black" stroke-linecap="round" stroke-linejoin="round"/>
    <path d="M42.7604 27.523L41.5322 25.4025L46.7521 23.8672L48.2874 26.0166L42.7604 27.523Z" stroke="black" stroke-linecap="round" stroke-linejoin="round"/>
    <path d="M36.3127 50.8593C36.3127 50.8593 36.3127 48.381 36.3127 46.1026M36.3127 50.8593C34.6646 49.188 24.6164 33.9928 23.7238 31.8219C23.7238 31.0947 23.4787 26.569 24.3373 26.3238C24.3373 26.3238 27.9867 29.1462 28.329 29.6726C29.1666 30.9606 35.8177 44.6482 36.3127 46.1026M36.3127 50.8593C40.9182 51.5022 57.4991 46.769 58.3984 45.6682C58.3984 45.6682 58.3984 43.0132 58.3984 41.0336M36.3127 46.1026C40.6111 46.8964 55.9638 42.5977 58.3984 41.0336M58.3984 41.0336C58.0949 37.1175 50.1298 23.8386 46.8178 21.7271C44.9099 20.7681 41.9111 21.9708 40.3041 22.3033" stroke="black" stroke-linecap="round" stroke-linejoin="round"/>
    <path d="M30.1719 32.4361L51.0515 26.6309" stroke="black" stroke-linecap="round"/>
    <path d="M23.7234 29.0869L16.6611 30.9005M16.6611 30.9005L32.3209 55.7718M16.6611 30.9005V39.1909L32.3209 63.4482M63.2724 47.5507L58.5513 43.1826M63.2724 47.5507L32.3209 55.7718M63.2724 47.5507L63.3333 54.8506L32.3209 63.4482M32.3209 55.7718V63.4482" stroke="black" stroke-linecap="round" stroke-linejoin="round"/>
    <path d="M38.4616 43.5178L35.084 35.8415L39.6898 34.6133L43.0674 42.5967L38.4616 43.5178Z" stroke="black" stroke-linecap="round" stroke-linejoin="round"/>
    <path d="M36.6191 38.2981L40.6108 37.377" stroke="black" stroke-linecap="round"/>
    <path d="M37.541 41.0618L41.8398 40.1406" stroke="black" stroke-linecap="round"/>
    <path d="M37.541 35.2275L40.6116 42.9039" stroke="black" stroke-linecap="round"/>
    <path d="M42.4538 35.4629C42.0635 34.9817 42.4511 34.0586 43.0679 34.0002C43.6647 33.9437 44.2103 34.6712 43.9889 35.2283C43.765 35.7919 42.8358 35.9339 42.4538 35.4629Z" stroke="black" stroke-linecap="round"/>
    <path d="M46.2946 34.2373C45.9044 33.7562 46.2919 32.833 46.9087 32.7746C47.5055 32.7181 48.0511 33.4456 47.8298 34.0027C47.6058 34.5663 46.6767 34.7083 46.2946 34.2373Z" stroke="black" stroke-linecap="round"/>
    <path d="M49.9802 33.0088C49.5899 32.5276 49.9775 31.6045 50.5942 31.5461C51.1911 31.4896 51.7367 32.2171 51.5153 32.7742C51.2913 33.3378 50.3622 33.4798 49.9802 33.0088Z" stroke="black" stroke-linecap="round"/>
    <path d="M43.8395 38.5361C43.4493 38.055 43.8368 37.1318 44.4536 37.0734C45.0505 37.0169 45.5961 37.7444 45.3747 38.3016C45.1507 38.8652 44.2216 39.0071 43.8395 38.5361Z" stroke="black" stroke-linecap="round"/>
    <path d="M47.5231 37.3076C47.1329 36.8265 47.5204 35.9033 48.1372 35.8449C48.7341 35.7884 49.2797 36.5159 49.0583 37.0731C48.8343 37.6367 47.9052 37.7786 47.5231 37.3076Z" stroke="black" stroke-linecap="round"/>
    <path d="M51.2077 36.0801C50.8174 35.5989 51.205 34.6757 51.8218 34.6174C52.4186 34.5609 52.9642 35.2884 52.7428 35.8455C52.5189 36.4091 51.5898 36.5511 51.2077 36.0801Z" stroke="black" stroke-linecap="round"/>
    <path d="M45.0671 41.6064C44.6768 41.1253 45.0644 40.2021 45.6811 40.1437C46.278 40.0872 46.8236 40.8147 46.6022 41.3719C46.3783 41.9355 45.4491 42.0775 45.0671 41.6064Z" stroke="black" stroke-linecap="round"/>
    <path d="M48.7517 40.3779C48.3614 39.8968 48.749 38.9736 49.3657 38.9152C49.9626 38.8587 50.5082 39.5862 50.2868 40.1434C50.0628 40.707 49.1337 40.8489 48.7517 40.3779Z" stroke="black" stroke-linecap="round"/>
    <path d="M52.4362 39.1504C52.046 38.6692 52.4335 37.7461 53.0503 37.6877C53.6471 37.6312 54.1927 38.3587 53.9714 38.9158C53.7474 39.4794 52.8183 39.6214 52.4362 39.1504Z" stroke="black" stroke-linecap="round"/>
    <path fill-rule="evenodd" clip-rule="evenodd" d="M77.9743 41.747C77.2732 63.6637 63.2842 78.0444 41.3069 78.7516C18.5933 79.4824 1.99984 64.4094 2 41.747C2.00016 18.0568 19.0236 2.11034 41.3069 2.11035C64.0401 2.11037 78.6991 19.0884 77.9743 41.747ZM60.4075 15.8633C60.0903 15.609 15.3509 60.8738 15.3509 60.8738C10.4061 54.5148 8.67927 49.4429 8.60862 41.3964C8.45119 23.468 22.9683 8.36165 40.9437 8.71642C49.0421 8.87626 54.1207 10.77 60.4075 15.8633ZM19.0236 64.7139L64.183 19.7034C69.8289 26.6214 71.7432 32.4855 71.3494 41.3964C70.6048 58.2445 57.8384 71.3958 40.9437 72.1453C31.9112 72.5459 25.9549 70.5035 19.0236 64.7139Z" fill="#F2F2F2" stroke="black" stroke-linecap="round" stroke-linejoin="round"/>
</svg>
