<svg width="80" height="81" viewBox="0 0 80 81" fill="none" xmlns="http://www.w3.org/2000/svg">
    <path d="M67.6353 39.4756C63.3942 43.3645 54.7779 51.1423 54.2422 51.1423C54.2422 51.4756 60.6039 57.4756 67.7681 51.1423C72.7754 46.7156 69.4211 41.2534 67.6353 39.4756Z" fill="#F2F2F2"/>
    <path d="M4.68804 10.1416C4.68679 31.687 4.68807 53.2324 4.68841 74.7778C22.9975 74.8464 58.5376 74.7778 75.0014 74.7778" stroke="#F2F2F2" stroke-width="2" stroke-linecap="round" stroke-linejoin="round"/>
    <path d="M75.0015 73.4749L76.3408 74.8083L75.0015 76.1416" stroke="#F2F2F2" stroke-width="2" stroke-linecap="round" stroke-linejoin="round"/>
    <path d="M3.34863 10.1419L4.68795 8.80859L6.02726 10.1419" stroke="#F2F2F2" stroke-width="2" stroke-linecap="round" stroke-linejoin="round"/>
    <path d="M60.6038 54.1419C54.7109 53.8753 52.1215 49.1419 51.5635 46.8086C51.5635 52.4753 55.5814 54.8086 56.2511 55.1419C56.5506 55.291 59.2645 56.8086 64.2869 55.4753C68.3049 54.4086 70.0906 49.253 70.3139 46.8086C69.5326 49.3641 66.4968 54.4086 60.6038 54.1419Z" fill="#999999"/>
    <path d="M61.7071 12.1416C61.7071 12.1416 64.1381 18.3242 64.2877 18.8815M61.7071 12.1416C57.9033 19.7423 48.1138 42.5536 41.9298 49.728C38.0954 54.9553 29.8117 38.6419 24.1042 40.1129C20.4425 41.0566 15.3404 64.0738 14.0635 68.8083M61.7071 12.1416C61.7071 12.1416 57.0184 14.1579 54.4977 15.4381" stroke="#F2F2F2" stroke-width="2" stroke-linecap="round" stroke-linejoin="round"/>
    <path d="M4.68804 9.47461C4.68679 31.02 4.68807 52.5654 4.68841 74.1108C22.9975 74.1794 58.5376 74.1108 75.0014 74.1108" stroke="black" stroke-linecap="round" stroke-linejoin="round"/>
    <path d="M75.0015 72.8079L76.3408 74.1413L75.0015 75.4746" stroke="black" stroke-linecap="round" stroke-linejoin="round"/>
    <path d="M3.34863 9.47494L4.68795 8.1416L6.02726 9.47494" stroke="black" stroke-linecap="round" stroke-linejoin="round"/>
    <path d="M61.0371 11.4746C61.0371 11.4746 63.4681 17.6572 63.6178 18.2145M61.0371 11.4746C57.2333 19.0753 47.4439 41.8867 41.2599 49.0611C37.4255 54.2883 29.1418 37.9749 23.4343 39.4459C19.7726 40.3897 14.6704 63.4068 13.3936 68.1413M61.0371 11.4746C61.0371 11.4746 56.3485 13.4909 53.8278 14.7711" stroke="black" stroke-linecap="round" stroke-linejoin="round"/>
    <path d="M51.5724 45.1067C51.7837 40.3264 55.9688 36.7858 60.9425 36.8087C65.8905 36.8315 70.0128 40.351 70.2232 45.1067C70.4424 50.0626 66.0989 54.118 60.9425 54.1418C55.7614 54.1657 51.3522 50.0862 51.5724 45.1067Z" stroke="black" stroke-linecap="round" stroke-linejoin="round"/>
    <path d="M66.9659 40.1416L54.9121 50.8083" stroke="black" stroke-linecap="round" stroke-linejoin="round"/>
    <path d="M51.5635 45.4746C51.5635 53.2223 55.2706 56.1413 60.9387 56.1413C66.6067 56.1413 70.3139 52.0584 70.3139 45.8849" stroke="black" stroke-linecap="round" stroke-linejoin="round"/>
</svg>
