<svg width="80" height="81" viewBox="0 0 80 81" fill="none" xmlns="http://www.w3.org/2000/svg">
    <path d="M76.6669 9.47559L3.11133 9.47564V72.5232L76.6669 72.5232V9.47559Z" fill="#F4F4F4"/>
    <path d="M18.9268 17.1816L39.2549 52.7627L56.552 40.1621L61.2552 65.5181L9.41602 65.4149L18.9268 17.1816Z" fill="#E6E6E6"/>
    <path d="M40.252 33.704C40.5931 25.3966 47.3467 19.2436 55.3728 19.2834C63.3575 19.3229 70.0097 25.4394 70.3492 33.704C70.7029 42.3167 63.6938 49.3644 55.3728 49.4058C47.012 49.4473 39.8967 42.3578 40.252 33.704Z" fill="#F2F2F2"/>
    <path d="M76.6669 9.47559L3.11133 9.47564V72.5232L76.6669 72.5232V9.47559Z" stroke="black" stroke-linecap="round" stroke-linejoin="round"/>
    <path d="M18.9268 17.1816L39.2549 52.7627L56.552 40.1621L61.2552 65.5181L9.41602 65.4149L18.9268 17.1816Z" stroke="black" stroke-linecap="round" stroke-linejoin="round"/>
    <path d="M40.252 33.704C40.5931 25.3966 47.3467 19.2436 55.3728 19.2834C63.3575 19.3229 70.0097 25.4394 70.3492 33.704C70.7029 42.3167 63.6938 49.3644 55.3728 49.4058C47.012 49.4473 39.8967 42.3578 40.252 33.704Z" stroke="black" stroke-linecap="round" stroke-linejoin="round"/>
</svg>
