<svg width="80" height="81" viewBox="0 0 80 81" fill="none" xmlns="http://www.w3.org/2000/svg">
    <path d="M25.4996 9.53437C26.6087 8.2393 26.6087 6.78563 27.1165 5.66113C27.3358 6.78563 27.167 8.45423 28.2472 9.53437C29.2574 10.5446 30.4228 10.9959 31.5981 11.5101C31.665 11.5393 28.9175 12.139 28.2472 12.7927C27.6992 13.3271 27.4879 15.0219 27.1165 16.3426C26.6089 15.1442 26.4559 13.4548 25.4996 12.7927C24.4071 12.0364 22.2478 11.5101 22.2478 11.5101C22.0392 11.364 24.7288 10.4344 25.4996 9.53437Z" fill="#F2F2F2"/>
    <path d="M17.4676 21.5792C18.0703 20.8742 18.0703 20.0828 18.3462 19.4707C18.4654 20.0828 18.3737 20.9912 18.9606 21.5792C19.5096 22.1291 20.1429 22.3748 20.7815 22.6547C20.8179 22.6706 19.3249 22.9971 18.9606 23.3529C18.6629 23.6439 18.5481 24.5664 18.3462 25.2854C18.0704 24.633 17.9873 23.7133 17.4676 23.3529C16.874 22.9412 15.7006 22.6547 15.7006 22.6547C15.5872 22.5752 17.0488 22.0692 17.4676 21.5792Z" fill="#F2F2F2"/>
    <path d="M66.5735 10.2629C67.5652 8.88975 69.8649 5.26633 68.0272 3.35793C64.695 -0.102395 55.7769 13.8426 54.2173 15.7142C52.6246 17.7356 47.8382 19.9926 45.9669 21.656C42.5265 24.7141 40.5047 27.8201 37.1367 30.9776L45.0007 39.1419L54.6673 42.1419L57.8028 38.0952C57.8028 38.0952 61.8491 33.6358 62.9393 32.0679C63.7686 30.8752 65.4534 28.0703 64.5549 24.8477C63.7573 22.898 61.6979 21.2587 61.4857 19.3483C61.2107 16.8733 65.2341 12.1175 66.5735 10.2629Z" fill="#F2F2F2"/>
    <path d="M54.3712 22.3618C52.007 21.705 48.4703 23.1259 46.7691 24.7515C44.1806 27.2249 41.8961 30.2908 39.3164 32.7947C39.3164 33.8502 41.3277 34.5771 42.3333 34.8086L44.3333 36.8086L47.154 37.2291C49.1583 35.2249 61.0981 24.2304 54.3712 22.3618Z" fill="#E6E6E6"/>
    <path d="M54 39.4753C53.3333 40.1419 53 39.8086 52.6667 39.8086C52.4 39.8086 49.6667 38.9197 48.3333 38.4753C48.7778 38.8086 49.6667 39.542 49.6667 39.8086C49.6667 40.1419 52 40.8087 52.3333 40.8087C52.6 40.8087 54.2222 40.3642 55 40.142C55.3333 39.6975 56 38.742 56 38.4753C56 38.2087 57.3333 38.1419 58 38.1419C59.4444 36.4753 62.5333 32.8753 63.3333 31.8087C64.3333 30.4753 65 27.4753 65 25.8086C65 24.1419 62 20.4753 62.3333 21.4753C62.6667 22.4753 63.4246 26.9381 62.3333 30.1419C61.2841 33.2225 58.8889 34.6975 57.3333 36.8086C57.1111 37.1419 56.5333 37.8753 56 38.1419C55.3333 38.4753 54.6667 38.8086 54 39.4753Z" fill="#E6E6E6"/>
    <path d="M60.6667 16.4753C60.1333 17.5419 61 19.0308 61.3333 19.4753C61.3333 19.142 62.6667 16.1419 62.6667 15.8086C62.6667 15.4753 68 7.80865 68.3333 7.14198C68.6667 6.47532 68.3333 3.80865 68.3333 4.14198C68.3333 4.47532 67.3333 6.47532 67 6.80865C66.7333 7.07532 62 13.8086 60.6667 16.4753Z" fill="#E6E6E6"/>
    <path d="M52.667 26.8083C52.3337 28.4749 44.3337 36.4749 43.667 36.4749L47.3337 37.1416L51.667 32.4749C53.2225 30.1416 56.3337 26.8084 56.667 24.4749C56.8161 23.4314 54.3337 22.1416 53.3337 22.1416C51.8429 22.1416 53.0003 25.1416 52.667 26.8083Z" fill="#999999"/>
    <path d="M48.8544 39.0249C50.0209 40.0419 49.8568 41.1531 54.5812 40.4263C55.667 39.6994 54.9439 37.882 58.2147 38.2456L58.9417 36.7919C60.1233 36.4284 62.6389 36.1005 63.4484 37.5173C63.9738 38.4368 65.3158 39.1032 66.2101 39.6994C62.3624 41.069 54.467 43.8081 53.667 43.8081C52.667 43.8081 41.0003 44.5233 31.667 42.4748C22.3337 40.4263 18.0251 41.1531 17.5127 41.1531C17.8121 39.3569 19.6025 38.4982 21.1404 37.2928C22.8701 35.9371 23.4794 34.4433 24.8453 32.8823C25.6769 31.9318 27.0731 32.3638 27.6884 31.2304C28.2431 30.2085 28.7003 29.0706 29.8171 28.5681C32.0786 27.5504 32.2047 27.8238 32.9124 30.0115C33.2918 31.184 36.8091 30.9108 37.8843 31.2304C38.7626 31.4915 38.7425 32.5238 39.2154 33.171C39.8454 34.0331 40.7563 34.1436 41.6212 34.6626C43.3089 35.6752 43.5296 37.3674 45.8231 37.0683C47.1293 36.8979 47.9479 38.2347 48.8544 39.0249Z" fill="white"/>
    <path d="M32.667 37.1421L31.667 36.1421C31.667 35.6088 33.4448 35.9199 34.3337 36.1421H36.0003C35.667 36.5866 34.867 37.4755 34.3337 37.4755C33.667 37.4755 33.0003 37.4755 32.667 37.1421Z" fill="#F4F4F4"/>
    <path d="M50.0003 40.4754L53.0003 41.8088L54.0003 40.4754H50.0003Z" fill="#F4F4F4"/>
    <path d="M20.3337 38.1421C19.8003 38.1421 18.3337 39.9199 17.667 40.8088C18.3337 40.8088 29.3337 41.4754 34.3337 42.8088C39.3337 44.1421 51.0003 44.1421 53.3337 43.8088C55.2003 43.5421 61.4448 41.4754 64.3337 40.4754C64.3337 40.4754 62.667 39.6976 62.3337 39.8088C62.0003 39.9199 61.0003 40.1421 61.0003 40.1421H58.667C58.0003 40.1421 58.1521 41.0414 57.667 41.4754C57.0162 42.0577 56.4757 42.146 55.667 42.4754C54.1758 43.0829 53.2313 43.7224 51.667 43.4754C50.8538 43.347 50.4613 43.0254 49.667 42.8088C47.8909 42.3244 45.8003 42.4088 45.0003 42.1421C44.0003 41.8088 43.3804 42.3995 42.3337 42.4754C39.2069 42.7024 37.4122 42.4012 34.3337 41.8088C32.7525 41.5045 31.9331 40.994 30.3337 40.8088C28.9112 40.6441 27.0003 40.8088 26.667 40.8088C26.3337 40.8088 25.062 39.7549 23.667 39.1421C22.601 38.6738 21.0003 38.1421 20.3337 38.1421Z" fill="#F4F4F4"/>
    <path d="M9.6669 49.1416C9.00023 47.586 8.20023 43.9416 10.3336 41.8083C13.0002 39.1416 24.0004 48.4749 28.0004 48.4749C32.0004 48.4749 52.3338 48.4749 55.3338 47.8083C58.3338 47.1416 65.0004 45.1416 65.6671 44.8083C66.2004 44.5416 67.8893 44.0305 68.6671 43.8083L68.3338 47.1416L69.3338 49.1416C71.667 53.9194 76.0003 69.1416 71.0003 74.8083C68.8171 77.2826 63.3337 78.4749 61.0003 78.4749C63.7781 76.3638 69.3338 71.5416 69.3338 69.1416C69.3338 66.7416 66.8893 55.0444 65.6671 49.4958C51.3352 50.8647 28.5502 52.8707 24.3239 52.5949C28.1794 53.9 46.4107 61.4749 46.0004 61.4749C43.0003 61.4749 18.6671 55.1416 18.6671 54.8083C18.6671 54.4749 16.6671 59.8083 17.6671 62.8083C18.6671 65.8083 20.0003 74.1416 22.3337 74.8083C24.2003 75.3416 30.4449 77.8083 33.3338 78.4749C26.4447 78.3638 12.2002 77.3416 10.3337 75.4749C8.00052 73.1416 5.00042 70.8083 6.33375 62.1416C7.40042 55.2083 9.00029 50.586 9.6669 49.1416Z" fill="#FAFAFA"/>
    <path d="M39.3164 32.7942C41.8961 30.2904 44.1806 27.2244 46.7691 24.751C48.4702 23.1254 52.007 21.7045 54.3712 22.3613C61.0981 24.2299 49.1583 35.2244 47.154 37.2286" stroke="black" stroke-linecap="round" stroke-linejoin="round"/>
    <path d="M37.1357 30.9776C40.5037 27.8201 42.5255 24.7141 45.9659 21.656C47.8372 19.9926 52.6237 17.7356 54.2163 15.7142C55.7759 13.8426 64.694 -0.102395 68.0262 3.35793C69.8639 5.26633 67.5642 8.88975 66.5725 10.2629C65.2331 12.1175 61.2097 16.8733 61.4847 19.3483C61.6969 21.2587 63.7563 22.898 64.5539 24.8477C65.4524 28.0703 63.7676 30.8752 62.9383 32.0679C61.8481 33.6358 57.8019 38.0952 57.8019 38.0952" stroke="black" stroke-linecap="round" stroke-linejoin="round"/>
    <path d="M68.3898 46.2409C69.1636 44.3063 70.0767 38.6576 66.5727 39.6993C60.3496 41.5495 55.1679 44.1572 48.6287 44.1572C36.8473 44.1572 22.3905 39.6848 10.97 41.5164C9.6695 41.7249 8.06305 46.6044 9.51653 49.065C17.4191 48.2061 65.4826 52.7823 68.3898 46.2409Z" stroke="black" stroke-linecap="round" stroke-linejoin="round"/>
    <path d="M12.7871 52.4189C14.2092 52.4189 31.985 59.7991 45.4946 61.141" stroke="black" stroke-linecap="round"/>
    <path d="M9.51572 49.1484C6.62996 60.6914 0.463492 75.3353 17.3061 77.581C27.5341 78.9447 52.8508 79.5083 65.8454 77.581C74.5674 76.2873 76.0018 61.0649 68.3899 46.6045" stroke="black" stroke-linecap="round" stroke-linejoin="round"/>
    <path d="M25.4986 9.53437C26.6077 8.2393 26.6077 6.78563 27.1155 5.66113C27.3348 6.78563 27.1661 8.45423 28.2462 9.53437C29.2564 10.5446 30.4219 10.9959 31.5971 11.5101C31.664 11.5393 28.9165 12.139 28.2462 12.7927C27.6982 13.3271 27.4869 15.0219 27.1155 16.3426C26.608 15.1442 26.4549 13.4548 25.4986 12.7927C24.4062 12.0364 22.2469 11.5101 22.2469 11.5101C22.0382 11.364 24.7278 10.4344 25.4986 9.53437Z" stroke="black" stroke-linecap="round" stroke-linejoin="round"/>
    <path d="M17.4676 21.5792C18.0703 20.8742 18.0703 20.0828 18.3462 19.4707C18.4654 20.0828 18.3737 20.9912 18.9606 21.5792C19.5096 22.1291 20.1429 22.3748 20.7815 22.6547C20.8179 22.6706 19.3249 22.9971 18.9606 23.3529C18.6629 23.6439 18.5481 24.5664 18.3462 25.2854C18.0704 24.633 17.9873 23.7133 17.4676 23.3529C16.874 22.9412 15.7006 22.6547 15.7006 22.6547C15.5872 22.5752 17.0488 22.0692 17.4676 21.5792Z" stroke="black" stroke-linecap="round" stroke-linejoin="round"/>
    <path d="M54.5803 40.4263C49.8558 41.1531 50.0199 40.0419 48.8534 39.0249C47.9469 38.2347 47.1283 36.8979 45.8222 37.0683C43.5286 37.3674 43.3079 35.6752 41.6202 34.6626C40.7553 34.1436 39.8444 34.0331 39.2145 33.171C38.7415 32.5238 38.7616 31.4915 37.8833 31.2304C36.8081 30.9108 33.2908 31.184 32.9115 30.0115C32.2037 27.8238 32.0776 27.5504 29.8161 28.5681C28.6993 29.0706 28.2421 30.2085 27.6874 31.2304C27.0721 32.3638 25.676 31.9318 24.8443 32.8823C23.4784 34.4433 22.8692 35.9371 21.1395 37.2928C19.6015 38.4982 17.8111 39.3569 17.5117 41.1531" stroke="black" stroke-linecap="round" stroke-linejoin="round"/>
    <path d="M58.9414 36.7921C60.123 36.4285 62.6385 36.1007 63.4481 37.5175C63.9735 38.4369 65.3155 39.1034 66.2097 39.6996" stroke="black" stroke-linecap="round" stroke-linejoin="round"/>
    <path d="M58.2137 38.2456C54.9429 37.8821 55.2809 40.9594 53.1826 41.5589" stroke="black" stroke-linecap="round" stroke-linejoin="round"/>
    <path d="M31.8477 35.703C32.3443 35.6136 32.8458 35.4623 33.3271 35.703C33.5368 35.8078 33.8011 36.0253 33.9796 36.174C34.2137 36.3691 35.2141 36.3435 35.4904 36.2054" stroke="black" stroke-linecap="round"/>
</svg>
