<svg width="80" height="81" viewBox="0 0 80 81" fill="none" xmlns="http://www.w3.org/2000/svg">
    <path d="M55 73.4753C60.6078 73.4753 64.7308 72.191 65.1538 70.4788C65.7885 67.9103 66 65.77 66 64.4858V47.363C65.2949 42.6542 63.5462 32.8086 60.5 32.8086C55.4231 34.5209 51.0513 33.522 49.5 32.8086C46.4538 32.8086 44.7051 42.6542 44 47.363V64.4858C44 65.77 44.4231 68.3384 44.8462 70.4788C45.1299 71.9142 49.3922 73.4753 55 73.4753Z" fill="#E6E6E6"/>
    <path d="M46.1791 70.445C46.4963 71.1237 49.4834 71.8591 50.9373 72.1419C49.3511 66.7117 50.5408 45.5561 51.334 35.6571C48.9547 34.8087 49.7479 35.2328 48.9547 34.8086C43.4035 47.9601 45.7826 69.5965 46.1791 70.445Z" fill="white"/>
    <path d="M40.6792 16.9755C41.9807 14.0081 44.9511 7.53588 44.9511 7.53588C44.9511 7.53588 40.7529 13.2883 38.7984 15.8727C37.5155 17.5689 34.7753 14.2301 32.6245 17.8973L10.8084 55.0964C8.65762 58.7637 12.9092 59.5254 12.0551 61.473C10.7536 64.4405 7.98445 70.5677 7.98445 70.5677C7.98445 70.5677 11.9811 65.1601 13.9357 62.5757C15.2185 60.8795 17.9588 64.2183 20.1095 60.5511L41.926 23.3521C44.0767 19.6849 39.8251 18.9231 40.6792 16.9755Z" fill="#F2F2F2"/>
    <path d="M33.8167 18.6101C35.0002 16.809 36.0006 17.8091 36.0006 17.8091L12.3341 58.1424C12.3341 58.1424 11.3341 57.4757 12.0005 55.8091L33.8167 18.6101Z" fill="white"/>
    <path d="M40.7154 17.2246C42.0168 14.2571 44.9872 7.78491 44.9872 7.78491C44.9872 7.78491 40.7891 13.5374 38.8345 16.1218C37.5517 17.8179 34.8114 14.4792 32.6607 18.1464L10.8445 55.3455C8.69376 59.0127 12.9454 59.7745 12.0912 61.722C10.7898 64.6895 8.02059 70.8167 8.02059 70.8167C8.02059 70.8167 12.0172 65.4091 13.9718 62.8247C15.2546 61.1285 17.9949 64.4673 20.1456 60.8001L41.9621 23.6011C44.1128 19.9339 39.8612 19.1721 40.7154 17.2246Z" stroke="black" stroke-linecap="round"/>
    <path d="M39.6835 14.8586C39.7785 15.2229 40.5315 16.0963 41.4058 15.8684" stroke="black"/>
    <path d="M12.9474 64.3934C12.8524 64.0291 12.0994 63.1556 11.2251 63.3835" stroke="black"/>
    <path d="M60.6673 29.8995C60.6673 30.502 58.2178 30.9904 55.1961 30.9904C52.1744 30.9904 49.334 30.502 49.334 29.8995M60.6673 29.8995C60.6673 29.297 58.2178 28.8086 55.1961 28.8086C52.1744 28.8086 49.334 29.297 49.334 29.8995M60.6673 29.8995V32.8086M49.334 29.8995V32.8086" stroke="black"/>
    <path d="M60.6673 32.8086C60.6673 33.1768 58.1303 34.1419 55.0007 34.1419C51.871 34.1419 49.334 33.1768 49.334 32.8086" stroke="black" stroke-linecap="round" stroke-linejoin="round"/>
    <path d="M49.3333 32.8086C46.2872 32.8086 44.7051 43.1595 44 47.791V64.6332C44 65.8963 44.4231 68.4226 44.8462 70.5279C45.1299 71.9398 49.3922 73.4753 55 73.4753C60.6078 73.4753 64.7308 72.2121 65.1538 70.5279C65.7885 68.0016 66 65.8963 66 64.6332V47.791C65.2949 43.1595 63.7128 32.8086 60.6667 32.8086" stroke="black" stroke-linecap="round" stroke-linejoin="round"/>
    <rect x="5.33398" y="9.43457" width="0.884678" height="22.1169" rx="0.442339" transform="rotate(-45 5.33398 9.43457)" fill="black"/>
    <rect x="5.96094" y="25.0732" width="0.884678" height="22.1169" rx="0.442339" transform="rotate(-135 5.96094 25.0732)" fill="black"/>
</svg>
