<svg width="120" height="120" viewBox="0 0 120 120" fill="none" xmlns="http://www.w3.org/2000/svg">
<path d="M64.1584 48.5688C65.148 47.2093 67.4427 43.622 65.609 41.7326C62.284 38.3067 53.3851 52.1129 51.8289 53.9657C50.2397 55.9671 45.4636 58.2015 43.5963 59.8484C40.1633 62.876 38.1459 65.9512 34.7852 69.0772L42.6321 77.1602L52.2779 80.1303L55.4067 76.1239C55.4067 76.1239 59.4442 71.7089 60.5321 70.1566C61.3596 68.9758 63.0408 66.1988 62.1442 63.0083C61.3483 61.078 59.2934 59.4551 59.0816 57.5637C58.8072 55.1133 62.8219 50.4049 64.1584 48.5688Z" fill="#E5E5E5"/>
<path d="M51.9833 60.5472C49.6241 59.897 46.095 61.3038 44.3976 62.9131C41.8147 65.3619 39.5351 68.3973 36.9609 70.8762C36.9609 71.9213 38.9679 72.6409 39.9714 72.8701L41.967 74.8501L44.7817 75.2665C46.7816 73.2822 58.6957 62.3972 51.9833 60.5472Z" fill="#C4C4C4"/>
<path d="M51.6129 77.4902C50.9476 78.1503 50.615 77.8203 50.2824 77.8203C50.0163 77.8203 47.2889 76.9402 45.9584 76.5002C46.4019 76.8302 47.2889 77.5563 47.2889 77.8203C47.2889 78.1502 49.6172 78.8104 49.9498 78.8104C50.2159 78.8104 51.8346 78.3703 52.6107 78.1503C52.9433 77.7103 53.6085 76.7643 53.6085 76.5003C53.6085 76.2362 54.939 76.1702 55.6042 76.1702C57.0456 74.5201 60.1278 70.956 60.9261 69.9C61.9239 68.5799 62.5891 65.6098 62.5891 63.9597C62.5891 62.3096 59.5956 58.6795 59.9282 59.6695C60.2608 60.6596 61.0171 65.078 59.9282 68.2499C58.8812 71.2998 56.4912 72.7601 54.939 74.8501C54.7173 75.1802 54.1407 75.9062 53.6085 76.1702C52.9433 76.5002 52.2781 76.8302 51.6129 77.4902Z" fill="#C4C4C4"/>
<path d="M58.2651 54.7193C57.733 55.7754 58.5978 57.2494 58.9304 57.6894C58.9304 57.3595 60.2608 54.3893 60.2608 54.0593C60.2608 53.7293 65.5827 46.139 65.9153 45.479C66.2479 44.819 65.9153 42.1789 65.9153 42.5089C65.9153 42.8389 64.9174 44.819 64.5848 45.149C64.3187 45.413 59.5956 52.0792 58.2651 54.7193Z" fill="#C4C4C4"/>
<path d="M50.2833 64.9498C49.9507 66.5998 41.968 74.5202 41.3027 74.5202L44.9615 75.1802L49.2855 70.56C50.8377 68.2499 53.9421 64.9499 54.2747 62.6397C54.4234 61.6066 51.9464 60.3296 50.9486 60.3296C49.4611 60.3296 50.6159 63.2997 50.2833 64.9498Z" fill="#9E9E9E"/>
<path d="M46.4782 77.0448C47.6422 78.0516 47.4785 79.1517 52.1927 78.4321C53.2761 77.7125 52.5546 75.9133 55.8183 76.2732L56.5438 74.834C57.7228 74.4741 60.2329 74.1495 61.0408 75.5521C61.565 76.4625 62.9041 77.1223 63.7964 77.7125C59.9571 79.0685 52.0787 81.7803 51.2804 81.7803C50.2826 81.7803 38.6411 82.4883 29.3279 80.4602C20.0147 78.4321 15.7154 79.1517 15.2041 79.1517C15.5028 77.3734 17.2894 76.5233 18.824 75.3299C20.55 73.9877 21.158 72.5088 22.5208 70.9633C23.3507 70.0223 24.7439 70.45 25.3578 69.3279C25.9114 68.3161 26.3676 67.1896 27.482 66.6921C29.7386 65.6845 29.8644 65.9552 30.5706 68.1211C30.9492 69.282 34.4589 69.0114 35.5317 69.3279C36.4081 69.5864 36.3881 70.6084 36.86 71.2492C37.4886 72.1026 38.3975 72.2121 39.2606 72.7258C40.9447 73.7284 41.1649 75.4038 43.4535 75.1076C44.7568 74.9389 45.5737 76.2624 46.4782 77.0448Z" fill="white"/>
<path d="M30.326 75.1805L29.3282 74.1905C29.3282 73.6625 31.1021 73.9705 31.9891 74.1905H33.6522C33.3196 74.6305 32.5213 75.5105 31.9891 75.5105C31.3239 75.5105 30.6587 75.5105 30.326 75.1805Z" fill="#F5F5F5"/>
<path d="M47.622 78.4806L50.6155 79.8007L51.6134 78.4806H47.622Z" fill="#F5F5F5"/>
<path d="M18.0193 76.1705C17.4871 76.1705 16.0236 77.9306 15.3584 78.8106C16.0236 78.8106 26.9999 79.4706 31.9891 80.7907C36.9783 82.1107 48.6198 82.1107 50.9481 81.7807C52.8108 81.5167 59.0418 79.4706 61.9244 78.4806C61.9244 78.4806 60.2613 77.7106 59.9287 77.8206C59.5961 77.9306 58.5983 78.1506 58.5983 78.1506H56.27C55.6047 78.1506 55.7561 79.041 55.2721 79.4706C54.6228 80.0471 54.0834 80.1345 53.2764 80.4607C51.7885 81.0621 50.846 81.6952 49.2851 81.4507C48.4736 81.3236 48.082 81.0052 47.2894 80.7907C45.5171 80.3111 43.4311 80.3947 42.6328 80.1307C41.6349 79.8007 41.0164 80.3855 39.9719 80.4607C36.8518 80.6854 35.061 80.3872 31.9891 79.8007C30.4114 79.4994 29.5938 78.994 27.9977 78.8106C26.5784 78.6476 24.6716 78.8106 24.339 78.8106C24.0064 78.8106 22.7374 77.7672 21.3455 77.1605C20.2818 76.6969 18.6845 76.1705 18.0193 76.1705Z" fill="#F5F5F5"/>
<path d="M7.37579 87.0604C6.71057 85.5203 5.91229 81.9122 8.04102 79.8001C10.7019 77.16 21.6784 86.4003 25.6698 86.4003C29.6611 86.4003 49.9506 86.4003 52.9442 85.7403C55.9377 85.0803 62.59 83.1002 63.2552 82.7702C63.7874 82.5062 65.4726 82.0002 66.2487 81.7802L65.9161 85.0803L66.914 87.0604C69.2422 91.7906 73.5661 106.861 68.5769 112.471C66.3984 114.921 60.9268 116.102 58.5985 116.102C61.3703 114.011 66.914 109.237 66.914 106.861C66.914 104.485 64.4748 92.9043 63.2552 87.411C48.9542 88.7663 26.2183 90.7524 22.0012 90.4793C25.8483 91.7713 44.0403 99.2709 43.631 99.2709C40.6373 99.2709 16.3566 93.0006 16.3566 92.6706C16.3566 92.3406 14.3609 97.6208 15.3587 100.591C16.3566 103.561 17.6869 111.811 20.0152 112.471C21.8779 112.999 28.1089 115.442 30.9916 116.102C24.1174 115.992 9.90361 114.979 8.04112 113.131C5.71301 110.821 2.71938 108.511 4.04984 99.9309C5.11421 93.0666 6.71063 88.4904 7.37579 87.0604Z" fill="#E0E0E0"/>
<path d="M36.9629 70.8762C39.5371 68.3972 41.8166 65.3618 44.3995 62.913C46.097 61.3037 49.6261 59.897 51.9852 60.5471C58.6976 62.3971 46.7836 73.2821 44.7836 75.2664" stroke="black" stroke-linecap="round" stroke-linejoin="round"/>
<path d="M34.7871 69.0772C38.1478 65.9512 40.1653 62.876 43.5982 59.8484C45.4655 58.2015 50.2416 55.9671 51.8309 53.9657C53.3871 52.1129 62.286 38.3067 65.6109 41.7326C67.4447 43.622 65.15 47.2093 64.1604 48.5688C62.8239 50.4049 58.8091 55.1133 59.0835 57.5637C59.2953 59.4551 61.3503 61.078 62.1462 63.0083C63.0427 66.1988 61.3616 68.9758 60.5341 70.1566C59.4462 71.7089 55.4087 76.1239 55.4087 76.1239" stroke="black" stroke-linecap="round" stroke-linejoin="round"/>
<path d="M65.9735 84.1889C66.7456 82.2736 67.6568 76.6811 64.1603 77.7125C57.9506 79.5442 52.7801 82.1259 46.255 82.1259C34.4991 82.1259 20.0735 77.6981 8.67751 79.5114C7.37984 79.7179 5.77685 84.5487 7.2272 86.9849C15.1127 86.1345 63.0725 90.6652 65.9735 84.1889Z" stroke="black" stroke-linecap="round" stroke-linejoin="round"/>
<path d="M10.4893 90.3052C11.9083 90.3052 29.6458 97.6118 43.1262 98.9403" stroke="black" stroke-linecap="round"/>
<path d="M7.22591 87.0669C4.34638 98.495 -1.80679 112.993 14.9995 115.216C25.2054 116.566 50.4675 117.124 63.4341 115.216C72.1373 113.936 73.5686 98.8647 65.9731 84.5483" stroke="black" stroke-linecap="round" stroke-linejoin="round"/>
<path d="M52.1927 78.4321C47.4785 79.1517 47.6422 78.0516 46.4782 77.0448C45.5737 76.2624 44.7568 74.9389 43.4535 75.1076C41.1649 75.4038 40.9447 73.7284 39.2606 72.7258C38.3975 72.2121 37.4886 72.1026 36.86 71.2492C36.3881 70.6084 36.4081 69.5864 35.5317 69.3279C34.4589 69.0114 30.9492 69.282 30.5706 68.1211C29.8644 65.9552 29.7386 65.6845 27.482 66.6921C26.3676 67.1896 25.9114 68.3161 25.3578 69.3279C24.7439 70.45 23.3507 70.0223 22.5208 70.9633C21.158 72.5088 20.55 73.9877 18.824 75.3299C17.2894 76.5233 15.5028 77.3734 15.2041 79.1517" stroke="black" stroke-linecap="round" stroke-linejoin="round"/>
<path d="M56.5439 74.8339C57.723 74.474 60.2331 74.1494 61.0409 75.552C61.5652 76.4624 62.9043 77.1222 63.7966 77.7124" stroke="black" stroke-linecap="round" stroke-linejoin="round"/>
<path d="M55.82 76.2729C52.5563 75.913 52.8936 78.9597 50.7998 79.5532" stroke="black" stroke-linecap="round" stroke-linejoin="round"/>
<path d="M29.5088 73.7554C30.0044 73.6669 30.5047 73.5171 30.985 73.7554C31.1943 73.8592 31.458 74.0745 31.6361 74.2217C31.8698 74.4149 32.868 74.3896 33.1437 74.2528" stroke="black" stroke-linecap="round"/>
<path d="M93.8511 110.428C99.8923 110.428 104.334 109.045 104.79 107.2C105.473 104.433 105.701 102.127 105.701 100.744V82.2978C104.942 77.2252 103.058 66.6187 99.7762 66.6187C94.3069 68.4633 89.5972 67.3872 87.926 66.6187C84.6445 66.6187 82.7606 77.2252 82.001 82.2978V100.744C82.001 102.127 82.4568 104.894 82.9125 107.2C83.2182 108.747 87.8099 110.428 93.8511 110.428Z" fill="#C4C4C4"/>
<path d="M84.3479 107.164C84.6897 107.895 87.9076 108.687 89.4738 108.992C87.765 103.142 89.0468 80.3513 89.9012 69.6873C87.338 68.7733 88.1926 69.2301 87.338 68.7732C81.3578 82.9411 83.9208 106.25 84.3479 107.164Z" fill="white"/>
<path d="M72.4995 12.268C69.9586 9.87443 64.4646 4.52006 64.4646 4.52006C64.4646 4.52006 68.7844 10.8601 70.7004 13.778C71.9578 15.693 67.5789 17.2668 70.5228 20.7752L100.385 56.3634C103.329 59.8718 105.639 55.8327 107.307 57.4036C109.848 59.7972 115.064 64.8226 115.064 64.8226C115.064 64.8226 111.022 58.8117 109.106 55.8938C107.848 53.9788 112.227 52.4051 109.283 48.8967L79.4212 13.3082C76.4773 9.79979 74.1671 13.8389 72.4995 12.268Z" fill="#E5E5E5"/>
<path d="M71.0586 19.8078C69.6588 17.9556 71.0354 17.3019 71.0354 17.3019L103.409 55.901C103.409 55.901 102.371 56.6748 100.921 55.396L71.0586 19.8078Z" fill="white"/>
<path d="M72.6965 12.4187C70.172 10.0078 64.7145 4.61615 64.7145 4.61615C64.7145 4.61615 68.991 10.9855 70.8871 13.9164C72.1315 15.84 67.7419 17.3838 70.6618 20.9122L100.281 56.7032C103.201 60.2316 105.538 56.2083 107.195 57.7906C109.72 60.2014 114.902 65.2623 114.902 65.2623C114.902 65.2623 110.9 59.2239 109.004 56.2931C107.76 54.3695 112.15 52.8257 109.23 49.2972L79.6109 13.5061C76.691 9.97765 74.3533 14.0009 72.6965 12.4187Z" stroke="black" stroke-linecap="round"/>
<path d="M69.921 12.59C70.3248 12.6281 71.4865 12.1876 71.5779 11.2186" stroke="black"/>
<path d="M110.215 57.9076C109.811 57.8695 108.649 58.3099 108.558 59.279" stroke="black"/>
<path d="M99.9582 63.4843C99.9582 64.1334 97.3194 64.6595 94.0641 64.6595C90.8089 64.6595 87.749 64.1334 87.749 63.4843M99.9582 63.4843C99.9582 62.8352 97.3194 62.3091 94.0641 62.3091C90.8089 62.3091 87.749 62.8352 87.749 63.4843M99.9582 63.4843V66.6182M87.749 63.4843V66.6182" stroke="black"/>
<path d="M99.9582 66.6182C99.9582 67.0148 97.2251 68.0545 93.8536 68.0545C90.4821 68.0545 87.749 67.0148 87.749 66.6182" stroke="black" stroke-linecap="round" stroke-linejoin="round"/>
<path d="M87.7465 66.6182C84.4649 66.6182 82.7606 77.769 82.001 82.7585V100.902C82.001 102.263 82.4568 104.985 82.9125 107.253C83.2182 108.774 87.8099 110.428 93.8511 110.428C99.8923 110.428 104.334 109.067 104.79 107.253C105.473 104.531 105.701 102.263 105.701 100.902V82.7585C104.942 77.769 103.237 66.6182 99.9557 66.6182" stroke="black" stroke-linecap="round" stroke-linejoin="round"/>
<rect x="22.8594" y="20.6013" width="0.953048" height="23.8262" rx="0.476524" transform="rotate(-45 22.8594 20.6013)" fill="black"/>
<rect x="23.5342" y="37.4492" width="0.953048" height="23.8262" rx="0.476524" transform="rotate(-135 23.5342 37.4492)" fill="black"/>
</svg>
