<svg width="80" height="81" viewBox="0 0 80 81" fill="none" xmlns="http://www.w3.org/2000/svg">
    <path d="M39.3453 16.3085C40.6467 13.3411 43.6171 6.86889 43.6171 6.86889C43.6171 6.86889 39.419 12.6214 37.4644 15.2057C36.1816 16.9019 33.4413 13.5631 31.2906 17.2303L9.47437 54.4295C7.32364 58.0967 11.5752 58.8585 10.7211 60.806C9.41966 63.7735 6.65047 69.9007 6.65047 69.9007C6.65047 69.9007 10.6471 64.4931 12.6017 61.9087C13.8845 60.2125 16.6248 63.5513 18.7755 59.8841L40.592 22.6851C42.7427 19.0179 38.4911 18.2561 39.3453 16.3085Z" fill="#F2F2F2"/>
    <path d="M32.4827 17.9431C33.6662 16.142 34.6667 17.1421 34.6667 17.1421L11.0001 57.4754C11.0001 57.4754 10.0001 56.8087 10.6665 55.1421L32.4827 17.9431Z" fill="white"/>
    <path d="M39.3824 15.8915C40.6838 12.9241 43.6542 6.4519 43.6542 6.4519C43.6542 6.4519 39.4561 12.2044 37.5015 14.7887C36.2187 16.4849 33.4784 13.1461 31.3277 16.8134L9.51148 54.0125C7.36075 57.6797 11.6123 58.4415 10.7582 60.389C9.45677 63.3565 6.68758 69.4837 6.68758 69.4837C6.68758 69.4837 10.6842 64.0761 12.6388 61.4917C13.9216 59.7955 16.6619 63.1343 18.8126 59.4671L40.6291 22.2681C42.7798 18.6009 38.5282 17.8391 39.3824 15.8915Z" stroke="black" stroke-linecap="round"/>
    <path d="M38.3505 13.5256C38.4455 13.8899 39.1985 14.7633 40.0728 14.5354" stroke="black"/>
    <path d="M11.6144 63.0604C11.5194 62.6961 10.7664 61.8226 9.89208 62.0505" stroke="black"/>
    <path d="M37.7234 66.4972C35.1665 68.4876 29.9064 72.6766 29.9064 72.6766C29.9064 72.6766 34.1671 67.4749 36.1922 64.9454C37.5213 63.2853 33.6118 61.449 36.6384 58.4634L51.1596 43.5088L50.6816 47.867L54.0971 46.7114L52.8261 50.1669L56.9717 48.8621L55.2062 52.8752L59.1165 51.1625L44.2108 66.1395C41.1842 69.1251 39.4015 65.1908 37.7234 66.4972Z" stroke="black" stroke-linejoin="round"/>
    <path d="M36.3273 67.7469C36.3298 67.3705 35.8285 66.3319 34.9251 66.3257" stroke="black" stroke-linejoin="round"/>
    <path d="M57.7141 14.5048C56.536 11.4862 54.0599 4.80927 54.0599 4.80927C54.0599 4.80927 55.1589 11.8454 55.6043 15.055C55.8966 17.1614 51.598 16.7382 52.6703 20.8521L58.3283 42.5295L61.3923 45.1224L62.0993 41.5868L64.4563 44.4152L65.3991 40.1725L67.9919 43.7081L68.699 39.7011L63.1045 18.1321C62.0322 14.0182 58.4872 16.4859 57.7141 14.5048Z" stroke="black" stroke-linejoin="round"/>
    <path d="M55.3106 13.5607C55.6353 13.7512 56.7854 13.8363 57.2425 13.057" stroke="black" stroke-linejoin="round"/>
    <path d="M63.334 51.8086V56.4753" stroke="black" stroke-linecap="round" stroke-linejoin="round"/>
    <path d="M65.4717 50.0469L68.5297 53.572" stroke="black" stroke-linecap="round" stroke-linejoin="round"/>
    <path d="M67.001 48.1426L71.5294 49.27" stroke="black" stroke-linecap="round" stroke-linejoin="round"/>
</svg>
