<svg width="80" height="81" viewBox="0 0 80 81" fill="none" xmlns="http://www.w3.org/2000/svg">
    <path d="M21.2636 25.4787H25.2376C26.9132 25.4787 28.3264 23.2824 29.2116 21.866C29.9625 20.3643 31.3793 18.5572 31.3793 16.8082C31.3793 15.4891 33.5469 14.6405 34.6307 13.918C38.6048 17.5307 41.2636 20.175 42.5788 21.866C43.5869 23.1622 50.1855 25.4787 51.9719 25.4787C56.3737 25.4787 54.0838 27.1183 58.8361 27.6464C57.7523 29.4527 56.5916 31.3475 56.3072 32.3429C55.9742 33.5085 57.6328 36.0056 57.0297 37.0395C56.5647 37.8367 54.3099 40.1827 53.8446 40.7808C53.1594 41.6619 49.0128 44.2313 48.9363 44.8817C51.3632 44.265 51.8566 44.4272 54.6147 44.265C54.9759 45.3488 55.5846 47.8777 55.9459 50.0453C55.9459 51.5877 53.8446 50.2039 53.8446 51.8517C53.8446 53.152 55.5846 54.8134 55.5846 56.187C55.5846 58.2211 58.197 56.187 59.1974 56.9095C59.3325 57.0176 58.1136 58.7159 57.7523 60.8836C55.6512 61.6061 54.1396 63.0512 53.0557 64.135C52.096 64.135 42.6527 62.1001 41.8562 61.9674C41.1472 61.8492 38.6048 65.0382 38.2435 65.5801C37.521 66.6639 38.2435 69.2339 37.8822 69.5541C36.0759 69.2339 35.0996 69.2253 33.5469 69.9154C32.4631 69.1928 29.5729 67.9559 28.4891 67.3551C28.183 66.804 24.5151 66.6639 23.07 67.3551C18.7347 65.2188 16.5671 64.8576 15.4832 61.9674C15.9767 59.0067 17.7052 52.3166 19.4573 50.0453C19.096 48.6002 19.096 46.7939 18.7347 44.9875C18.1439 43.0673 14.5649 38.9623 13.3156 37.4008C11.4434 35.0604 8.81356 33.0655 5.72886 33.0655C4.83368 33.0655 6.82716 31.8997 7.17395 30.8978C7.35504 30.3747 5.0244 30.5613 5.36756 30.1753C6.17372 29.2683 6.35178 27.6025 7.53518 27.6464C8.83062 27.6944 11.0725 28.0122 12.2317 28.3689C13.446 28.7425 15.8047 29.5152 16.9283 29.4527C18.0738 29.3891 16.377 24.7562 16.9283 23.3111C16.9283 22.9498 18.0121 22.5885 19.0959 22.9498C19.4572 23.6724 20.1311 25.4787 21.2636 25.4787Z" fill="#F2F2F2"/>
    <path d="M67.5067 66.6639C67.7957 66.6639 67.6271 64.7371 67.5067 63.7738C68.0847 63.7738 68.9518 65.7005 69.3131 66.6639V69.9154C69.3131 70.2044 68.1088 73.6486 67.5067 75.3345C67.025 75.0937 65.9893 74.5397 65.7003 74.2507C65.4113 73.9617 65.5799 73.1669 65.7003 72.8056L63.8939 68.8316L66.0616 66.6639H67.5067Z" fill="#F2F2F2"/>
    <path d="M21.2636 25.4787H25.2376C26.9132 25.4787 28.3264 23.2824 29.2116 21.866C29.9625 20.3643 31.3793 18.5572 31.3793 16.8082C31.3793 15.4891 33.5469 14.6405 34.6307 13.918C38.6048 17.5307 41.2636 20.175 42.5788 21.866C43.5869 23.1622 50.1855 25.4787 51.9719 25.4787C56.3737 25.4787 54.0838 27.1183 58.8361 27.6464C57.7523 29.4527 56.5916 31.3475 56.3072 32.3429C55.9742 33.5085 57.6328 36.0056 57.0297 37.0395C56.5647 37.8367 54.3099 40.1827 53.8446 40.7808C53.1594 41.6619 49.0128 44.2313 48.9363 44.8817C51.3632 44.265 51.8566 44.4272 54.6147 44.265C54.9759 45.3488 55.5846 47.8777 55.9459 50.0453C55.9459 51.5877 53.8446 50.2039 53.8446 51.8517C53.8446 53.1521 55.5846 54.8134 55.5846 56.187C55.5846 58.2211 58.197 56.187 59.1974 56.9095C59.3325 57.0176 58.1136 58.7159 57.7523 60.8836C55.6512 61.6061 54.1396 63.0512 53.0557 64.135C52.096 64.135 42.6527 62.1001 41.8562 61.9674C41.1472 61.8492 38.6048 65.0382 38.2435 65.5801C37.521 66.6639 38.2435 69.2339 37.8822 69.5541C36.0759 69.2339 35.0996 69.2253 33.5469 69.9154C32.4631 69.1929 29.5729 67.9559 28.4891 67.3551C28.183 66.8041 24.5151 66.6639 23.07 67.3551C18.7347 65.2188 16.5671 64.8576 15.4832 61.9674C15.9767 59.0067 17.7052 52.3166 19.4573 50.0453C19.096 48.6003 19.096 46.7939 18.7347 44.9875C18.1439 43.0673 14.5649 38.9623 13.3156 37.4008C11.4434 35.0604 8.81356 33.0655 5.72886 33.0655C4.83368 33.0655 6.82716 31.8997 7.17395 30.8978C7.35504 30.3747 5.0244 30.5613 5.36756 30.1753C6.17372 29.2684 6.35178 27.6025 7.53518 27.6464C8.83062 27.6944 11.0725 28.0122 12.2317 28.3689C13.446 28.7425 15.8047 29.5152 16.9283 29.4527C18.0738 29.3891 16.377 24.7562 16.9283 23.3111C16.9283 22.9498 18.0121 22.5885 19.0959 22.9498C19.4572 23.6724 20.1311 25.4787 21.2636 25.4787Z" stroke="black" stroke-linecap="round" stroke-linejoin="round"/>
    <path d="M67.5067 66.664C67.7957 66.664 67.6271 64.7372 67.5067 63.7738C68.0847 63.7738 68.9518 65.7006 69.3131 66.664V69.9154C69.3131 70.2044 68.1088 73.6486 67.5067 75.3345C67.025 75.0937 65.9893 74.5397 65.7003 74.2507C65.4113 73.9617 65.5799 73.1669 65.7003 72.8056L63.8939 68.8316L66.0616 66.664H67.5067Z" stroke="black" stroke-linecap="round" stroke-linejoin="round"/>
    <path d="M73.6659 5.87C72.1761 5.90664 65.3565 4.69788 65.2244 10.1145" stroke="black" stroke-linecap="round"/>
    <path d="M58.6666 22.7289C61.6663 23.0623 65.3334 21.8695 65.3328 17.8695" stroke="black" stroke-linecap="round"/>
    <path d="M73.0127 7.45876C76.5547 6.74668 75.7038 4.86726 73.59 4.09963" stroke="black" stroke-linecap="round"/>
    <rect x="25.6191" y="35.1484" width="6.87452" height="18.3321" rx="3.43726" transform="rotate(-45 25.6191 35.1484)" fill="white"/>
    <path d="M28.0497 37.5789C26.7073 36.2366 26.7073 34.0603 28.0497 32.7179C29.392 31.3756 31.5683 31.3756 32.9107 32.7179L37.0689 36.8762C37.0689 36.8762 35.1567 37.6986 34.2123 38.5948C33.1565 39.5967 32.2079 41.7372 32.2079 41.7372L28.0497 37.5789Z" fill="#999999"/>
    <ellipse cx="30.2554" cy="33.2048" rx="0.887175" ry="0.808069" transform="rotate(-45 30.2554 33.2048)" fill="white"/>
    <path d="M27.3381 35.1572L38.5091 46.3283C37.793 46.3283 37.0757 45.9888 36.6473 45.6122C36.4844 45.469 28.1616 37.1623 28.0542 37.0191C27.303 36.0165 27.3381 35.1572 27.3381 35.1572Z" fill="#FAFAFA"/>
    <rect x="25.6191" y="35.1484" width="6.87452" height="18.3321" rx="3.43726" transform="rotate(-45 25.6191 35.1484)" stroke="black" stroke-linecap="round" stroke-linejoin="round"/>
    <path d="M32.2229 41.7219C32.2229 41.7219 33.2667 39.5938 34.3558 38.5938C35.2453 37.777 36.9827 36.9622 36.9827 36.9622" stroke="black" stroke-linecap="round" stroke-linejoin="round"/>
    <rect x="60.999" y="10.5361" width="0.697144" height="11.4015" rx="0.348572" transform="rotate(-45 60.999 10.5361)" fill="black"/>
    <path d="M61.9111 18.2911C61.7757 18.4264 61.5563 18.4264 61.421 18.2911C61.2857 18.1558 61.2857 17.9364 61.421 17.801L68.993 10.229C69.1283 10.0937 69.3477 10.0937 69.4831 10.229C69.6184 10.3643 69.6184 10.5837 69.4831 10.7191L61.9111 18.2911Z" fill="black"/>
</svg>
