<svg width="80" height="81" viewBox="0 0 80 81" fill="none" xmlns="http://www.w3.org/2000/svg">
<path d="M12.0003 73.4946C12.0003 71.157 10.7493 64.6984 18 61.5C21.1498 60.1106 27.3776 57.8105 29.5 57.0001C30.999 56.4276 35.6236 62.2917 40.5 62.5001C43.0624 62.6096 48.824 59.4854 50.5 57.5001C52.6224 58.3105 58.3753 60.5169 61.5252 61.9064C68.7759 65.1048 68.64 71.157 68.64 73.4946L68.6399 80.1562H12.1601L12.0003 73.4946Z" fill="white"/>
<path d="M32.4805 55.3539L33.5 49C38 51 40.6405 51.5 46.5 49.5C47.5 54 46.0723 54.4284 48.0005 56.1562C49.5 57.5 50.5 57.5 50.5 57.5C50.5 57.5 43.3097 62.2542 40.6405 62.2362C38.0311 62.2187 30 57 30 57L32.4805 55.3539Z" fill="#F5F5F5"/>
<path d="M55.5195 27.8338C55.5195 26.6851 56.4508 25.7538 57.5995 25.7538C58.7483 25.7538 59.6795 26.6851 59.6795 27.8339V31.5138C59.6795 33.8113 57.817 35.6738 55.5195 35.6738V27.8338Z" fill="#F5F5F5"/>
<path d="M24.4805 27.8338C24.4805 26.6851 23.5492 25.7538 22.4005 25.7538C21.2517 25.7538 20.3205 26.6851 20.3205 27.8338V31.5139C20.3205 33.8114 22.183 35.6738 24.4805 35.6738V27.8338Z" fill="#F5F5F5"/>
<path d="M51.5 10.6562C53.9636 12 53.4795 22.9438 56 27.5C56 27.921 55.9322 31.3063 55.8477 35.3677C55.67 43.8976 48.7007 50.7162 40.1689 50.7162C31.5044 50.7162 24.4805 43.692 24.4805 35.0275C24.4805 31.7099 24.4805 28.5981 24.4805 26.5561C25.5 26.5561 27 22 28 15C28.3691 12.4162 28 9.5 34 8.49999C38.5 8.5 45.5914 7.43342 51.5 10.6562Z" fill="#F5F5F5"/>
<path d="M24.6606 27.1562L22.6605 26.1562C23.1605 25.1562 21.1605 13.1562 25.1605 9.15619C27.2169 7.09975 32.7023 6.23574 34 5.00006C35.2265 3.8322 32.2853 2.24297 33.5 2.00002C36 1.50002 49.6393 4.62747 54.6605 9.65619C57.5 12.5 58.8271 21.4895 58.1605 25.1562L54.6605 28.0001C53.5 25.5001 53.5002 14.5 53 12C53 9.50002 44 8.00002 40.5 8.00002C34.4998 8.00002 34.4998 8.00002 29.1018 10.9445L29 11.0001C28 16.5001 26.5 27.0001 24.6606 27.1562Z" fill="#9E9E9E"/>
<path d="M32.5002 37.5001C33.0002 36.5001 36.5002 35.1562 37.5002 35.1562L42.6608 35.1562C43.3679 35.1562 46.6608 37.1562 47.1608 38.1562L48.1608 39.5C49.4379 39.1807 53.5002 37.5001 54.5002 28.5001C55.5958 27.8827 55.1608 35.4755 55.1608 35.6562C55.1608 36.1562 55.7766 44.3483 48.1608 48.1562C45.1608 49.6562 43.6608 50.6562 40.1608 50.6562C38.1608 50.6562 32.6608 49.1562 32.1608 48.6562C31.6608 48.1562 24 43 24.5 35L24.5569 32.3491C24.3449 30.0361 24.0182 27.1147 24.6608 27.5001C27.0002 38.1562 30.9574 38.9217 31.6608 39.1562L32.5002 37.5001Z" fill="#9E9E9E"/>
<path d="M55.501 26.6917C55.501 28.7682 55.501 31.9507 55.501 35.3311C55.501 43.9026 48.5524 50.8517 39.981 50.8517V50.8517C31.4095 50.8517 24.461 43.9 24.461 35.3285C24.461 30.8944 24.461 27.1282 24.461 26.6917" stroke="black" stroke-linecap="round" stroke-linejoin="round"/>
<path d="M46.7973 49.5717C47.3279 55.1099 46.9864 55.8886 49.2732 56.7177C51.3956 57.4873 57.9725 60.0433 61.1224 61.3626C68.3731 64.3997 68.2372 70.1465 68.2371 72.3662C68.2371 74.5859 68.2371 79.5199 68.2371 79.5199" stroke="black" stroke-linecap="round" stroke-linejoin="round"/>
<path d="M32.9595 49.6C32.429 55.1381 32.7704 55.9168 30.4836 56.746C28.3612 57.5156 21.7844 60.0715 18.6345 61.3909C11.3838 64.428 11.5197 70.1748 11.5197 72.3945C11.5197 74.6142 11.5197 79.5199 11.5197 79.5199" stroke="black" stroke-linecap="round" stroke-linejoin="round"/>
<path d="M55.4375 27.9717C55.4375 26.823 56.3687 25.8917 57.5175 25.8917V25.8917C58.6663 25.8917 59.5975 26.823 59.5975 27.9717V31.6517C59.5975 33.9492 57.735 35.8117 55.4375 35.8117V35.8117V27.9717Z" stroke="black" stroke-linecap="round" stroke-linejoin="round"/>
<path d="M24.3975 27.9717C24.3975 26.823 23.4662 25.8917 22.3175 25.8917V25.8917C21.1687 25.8917 20.2375 26.823 20.2375 27.9717V31.6517C20.2375 33.9492 22.1 35.8117 24.3975 35.8117V35.8117V27.9717Z" stroke="black" stroke-linecap="round" stroke-linejoin="round"/>
<path d="M55 28.5C51.9995 23 54.5 14 52.5 11.5C51.1704 9.83797 48 9 45.5 8.5C43 8 39 7.7 35 8.5C31 9.3 29.5003 9.5 28.5 12C27.2706 15.0727 27.5 26.5 24.5 28C25 25.92 22.4997 25.92 22.4997 25.92C22.4997 25.92 22.4997 13 23.9808 10.5C25.4618 8 28.2151 6.6145 30.9997 6C38.5 4.34484 29.5 2 34 2C38.5 2 49.4999 6 51.9995 7.5C54.499 9 56.6674 12.4715 57.7402 16.5C58.6518 19.9234 57.7408 25.5716 57.7408 25.5716C56.7555 25.5716 55 25.92 55 28.5Z" stroke="black" stroke-linecap="round" stroke-linejoin="round"/>
<path d="M29.5 56.9999C29.5 56.9999 37.6832 62.4652 40.3193 62.4C42.7134 62.3407 51 57.4999 51 57.4999" stroke="black" stroke-linecap="round" stroke-linejoin="round"/>
<path d="M35.6543 38.7227C35.6543 38.7227 36.7557 40.1502 39.9376 40.1502C43.1194 40.1502 44.2191 38.7227 44.2191 38.7227" stroke="black" stroke-linecap="round" stroke-linejoin="round"/>
<path d="M34.584 29.4442V32.1206M45.29 29.4442V32.1206" stroke="black" stroke-linecap="round" stroke-linejoin="round"/>
<path d="M26.4004 30.9033C26.4004 28.4796 28.3652 26.5148 30.789 26.5148H34.0804C36.9081 26.5148 39.2004 28.8071 39.2004 31.6348V31.6348C39.2004 34.4625 36.9081 36.7548 34.0804 36.7548H32.2518C29.0202 36.7548 26.4004 34.135 26.4004 30.9033V30.9033Z" stroke="black" stroke-linecap="round" stroke-linejoin="round"/>
<path d="M41.4395 31.6348C41.4395 28.8071 43.7318 26.5148 46.5595 26.5148H49.8509C52.2746 26.5148 54.2394 28.4796 54.2394 30.9033V30.9033C54.2394 34.135 51.6197 36.7548 48.388 36.7548H46.5595C43.7318 36.7548 41.4395 34.4625 41.4395 31.6348V31.6348Z" stroke="black" stroke-linecap="round" stroke-linejoin="round"/>
<path d="M39.1992 29.3949C39.5726 29.0749 40.5432 28.6269 41.4392 29.3949" stroke="black" stroke-linecap="round"/>
</svg>
