<svg width="80" height="81" viewBox="0 0 80 81" fill="none" xmlns="http://www.w3.org/2000/svg">
    <path d="M12.0001 73.4967C12.0001 71.1591 10.749 64.7006 17.9997 61.5022C21.1496 60.1127 27.3773 57.8127 29.4998 57.0022C30.9988 56.4298 35.6234 62.2939 40.4998 62.5022C43.0622 62.6117 48.8237 59.4876 50.4998 57.5022C52.6222 58.3127 58.3751 60.5191 61.5249 61.9085C68.7756 65.1069 68.6397 71.1591 68.6397 73.4967L68.6397 80.1583H12.1599L12.0001 73.4967Z" fill="white"/>
    <path d="M32.48 55.3559L33.4995 49.002C37.9995 51.002 40.64 51.502 46.4995 49.502C47.4995 54.002 46.0718 54.4303 48 56.1582C49.4995 57.5019 50.4995 57.5019 50.4995 57.5019C50.4995 57.5019 43.3092 62.2561 40.64 62.2382C38.0306 62.2206 29.9995 57.0019 29.9995 57.0019L32.48 55.3559Z" fill="#F4F4F4"/>
    <path d="M55.5195 27.8359C55.5195 26.6871 56.4508 25.7559 57.5995 25.7559C58.7483 25.7559 59.6795 26.6871 59.6795 27.8359V31.5159C59.6795 33.8134 57.817 35.6759 55.5195 35.6759V27.8359Z" fill="#F4F4F4"/>
    <path d="M24.48 27.8359C24.48 26.6871 23.5487 25.7559 22.4 25.7559C21.2512 25.7559 20.32 26.6871 20.32 27.8359V31.5159C20.32 33.8134 22.1825 35.6759 24.48 35.6759V27.8359Z" fill="#F4F4F4"/>
    <path d="M51.4995 10.6584C53.9631 12.0022 53.479 22.946 55.9995 27.5022C55.9995 27.9232 55.9317 31.3085 55.8472 35.3699C55.6695 43.8998 48.7002 50.7184 40.1684 50.7184C31.5039 50.7184 24.48 43.6942 24.48 35.0297C24.48 31.7121 24.48 28.6003 24.48 26.5583C25.4995 26.5583 26.9995 22.0022 27.9995 15.0022C28.3686 12.4184 27.9995 9.50219 33.9995 8.50219C38.4995 8.50219 45.591 7.43562 51.4995 10.6584Z" fill="#F4F4F4"/>
    <path d="M24.6602 27.1586L22.66 26.1586C23.16 25.1587 21.16 13.1586 25.16 9.15863C27.2164 7.1022 32.7018 6.23818 33.9995 5.0025C35.226 3.83464 32.2848 2.24541 33.4995 2.00246C35.9995 1.50246 49.6388 4.62991 54.66 9.65863C57.4995 12.5024 58.8266 21.492 58.16 25.1586L54.66 28.0025C53.4995 25.5025 53.4997 14.5025 52.9995 12.0025C52.9995 9.50246 43.9995 8.00246 40.4995 8.00246C34.4993 8.00246 34.4993 8.00246 29.1013 10.947L28.9995 11.0025C27.9995 16.5025 26.4995 27.0025 24.6602 27.1586Z" fill="#FAFAFA"/>
    <path d="M32.4994 37.5023C32.9994 36.5023 36.4994 35.1584 37.4994 35.1584L42.6601 35.1584C43.3672 35.1584 46.6601 37.1584 47.1601 38.1584L48.1601 39.5022C49.4371 39.1829 53.4994 37.5023 54.4994 28.5023C55.5951 27.8849 55.1601 35.4777 55.1601 35.6584C55.1601 36.1584 55.7758 44.3505 48.1601 48.1584C45.1601 49.6584 43.6601 50.6584 40.1601 50.6584C38.1601 50.6584 32.6601 49.1584 32.1601 48.6584C31.6601 48.1584 23.9993 43.0022 24.4993 35.0022L24.5561 32.3513C24.3442 30.0383 24.0175 27.1169 24.6601 27.5023C26.9995 38.1584 30.9566 38.9239 31.6601 39.1584L32.4994 37.5023Z" fill="#999999"/>
    <path d="M55.5017 26.6934C55.5017 28.7698 55.5017 31.9524 55.5017 35.3328C55.5017 43.9042 48.5532 50.8534 39.9817 50.8534V50.8534C31.4102 50.8534 24.4617 43.9016 24.4617 35.3302C24.4617 30.8961 24.4617 27.1299 24.4617 26.6934" stroke="black" stroke-linecap="round" stroke-linejoin="round"/>
    <path d="M46.7975 49.5732C47.3281 55.1114 46.9867 55.8901 49.2734 56.7193C51.3959 57.4888 57.9727 60.0448 61.1226 61.3642C68.3733 64.4012 68.2374 70.1481 68.2374 72.3678C68.2373 74.5874 68.2374 79.5215 68.2374 79.5215" stroke="black" stroke-linecap="round" stroke-linejoin="round"/>
    <path d="M32.96 49.6016C32.4295 55.1397 32.7709 55.9184 30.4841 56.7476C28.3617 57.5172 21.7848 60.0731 18.635 61.3925C11.3843 64.4295 11.5202 70.1764 11.5202 72.3961C11.5202 74.6158 11.5202 79.5215 11.5202 79.5215" stroke="black" stroke-linecap="round" stroke-linejoin="round"/>
    <path d="M55.4377 27.9736C55.4377 26.8248 56.369 25.8936 57.5177 25.8936V25.8936C58.6665 25.8936 59.5977 26.8248 59.5977 27.9736V31.6536C59.5977 33.9511 57.7353 35.8136 55.4377 35.8136V35.8136V27.9736Z" stroke="black" stroke-linecap="round" stroke-linejoin="round"/>
    <path d="M24.3977 27.9736C24.3977 26.8248 23.4665 25.8936 22.3177 25.8936V25.8936C21.169 25.8936 20.2377 26.8248 20.2377 27.9736V31.6536C20.2377 33.9511 22.1002 35.8136 24.3977 35.8136V35.8136V27.9736Z" stroke="black" stroke-linecap="round" stroke-linejoin="round"/>
    <path d="M55.0007 28.502C52.0002 23.002 54.5007 14.0019 52.5007 11.502C51.1711 9.83992 48.0007 9.00195 45.5007 8.50195C43.0007 8.00195 39.0007 7.70195 35.0007 8.50195C31.0007 9.30195 29.501 9.50196 28.5007 12.002C27.2713 15.0746 27.5007 26.502 24.5007 28.002C25.0007 25.9219 22.5004 25.9219 22.5004 25.9219C22.5004 25.9219 22.5004 13.002 23.9815 10.502C25.4626 8.00195 28.2159 6.61645 31.0004 6.00195C38.5007 4.3468 29.5007 2.00195 34.0007 2.00195C38.5007 2.00195 49.5006 6.00195 52.0002 7.50195C54.4998 9.00195 56.6682 12.4735 57.7409 16.502C58.6525 19.9253 57.7416 25.5736 57.7416 25.5736C56.7563 25.5736 55.0007 25.9219 55.0007 28.502Z" stroke="black" stroke-linecap="round" stroke-linejoin="round"/>
    <path d="M29.5007 57.002C29.5007 57.002 37.6839 62.4672 40.32 62.402C42.7141 62.3427 51.0007 57.502 51.0007 57.502" stroke="black" stroke-linecap="round" stroke-linejoin="round"/>
    <circle cx="56.96" cy="72.6423" r="2.24" stroke="black" stroke-linecap="round" stroke-linejoin="round"/>
    <path d="M27.52 57.6142C25.92 57.2942 21.888 63.1502 21.76 65.4542" stroke="black" stroke-linecap="round" stroke-linejoin="round"/>
    <path d="M56.9601 70.4023C56.9601 66.669 57.0881 58.9143 54.4001 58.4023" stroke="black" stroke-linecap="round" stroke-linejoin="round"/>
    <path d="M19.0399 77.7614H17.9199C17.9199 77.7614 18.2399 72.9616 18.5599 68.4442C18.6748 66.8229 19.9746 65.6016 21.5999 65.6016C23.2253 65.6016 24.5062 66.8244 24.6399 68.4443C24.9599 72.3216 25.2799 76.9302 25.2799 77.7616L24.1601 77.7614" stroke="black" stroke-linecap="round" stroke-linejoin="round"/>
    <path d="M35.6553 38.7246C35.6553 38.7246 36.7567 40.1521 39.9385 40.1521C43.1204 40.1521 44.2201 38.7246 44.2201 38.7246" stroke="black" stroke-linecap="round" stroke-linejoin="round"/>
    <path d="M34.5845 29.4463V32.1228M45.2905 29.4463V32.1228" stroke="black" stroke-linecap="round" stroke-linejoin="round"/>
    <path d="M26.4009 30.9052C26.4009 28.4814 28.3657 26.5166 30.7895 26.5166H34.0809C36.9086 26.5166 39.2009 28.8089 39.2009 31.6366V31.6366C39.2009 34.4643 36.9086 36.7566 34.0809 36.7566H32.2523C29.0207 36.7566 26.4009 34.1368 26.4009 30.9052V30.9052Z" stroke="black" stroke-linecap="round" stroke-linejoin="round"/>
    <path d="M41.4399 31.6366C41.4399 28.8089 43.7322 26.5166 46.5599 26.5166H49.8514C52.2751 26.5166 54.2399 28.4814 54.2399 30.9052V30.9052C54.2399 34.1368 51.6202 36.7566 48.3885 36.7566H46.5599C43.7322 36.7566 41.4399 34.4643 41.4399 31.6366V31.6366Z" stroke="black" stroke-linecap="round" stroke-linejoin="round"/>
    <path d="M39.1997 29.3967C39.573 29.0767 40.5437 28.6287 41.4397 29.3967" stroke="black" stroke-linecap="round"/>
</svg>
