<svg width="150" height="151" viewBox="0 0 150 151" fill="none" xmlns="http://www.w3.org/2000/svg">
<path d="M22.5001 137.802C22.5001 133.419 20.1544 121.31 33.7494 115.312C39.6554 112.707 51.3325 108.395 55.312 106.875C58.1227 105.802 66.7938 116.797 75.937 117.188C80.7416 117.393 91.5444 111.535 94.687 107.813C98.6666 109.332 109.453 113.469 115.359 116.074C128.954 122.071 128.699 133.419 128.699 137.802L128.699 150.293H22.7998L22.5001 137.802Z" fill="white"/>
<path d="M60.8999 103.789L62.8115 91.875C71.249 95.625 76.1999 96.5625 87.1865 92.8125C89.0615 101.25 86.3845 102.053 89.9999 105.293C92.8115 107.812 94.6865 107.812 94.6865 107.812C94.6865 107.812 81.2047 116.727 76.1999 116.693C71.3074 116.66 56.249 106.875 56.249 106.875L60.8999 103.789Z" fill="#F5F5F5"/>
<path d="M104.099 52.1885C104.099 50.0346 105.845 48.2885 107.999 48.2885C110.153 48.2885 111.899 50.0346 111.899 52.1885V59.0885C111.899 63.3963 108.406 66.8885 104.099 66.8885V52.1885Z" fill="#F5F5F5"/>
<path d="M45.9004 52.1885C45.9004 50.0346 44.1543 48.2885 42.0004 48.2885C39.8465 48.2885 38.1004 50.0346 38.1004 52.1885V59.0885C38.1004 63.3963 41.5926 66.8885 45.9004 66.8885V52.1885Z" fill="#F5F5F5"/>
<path d="M96.562 19.9805C101.181 22.5 100.274 43.0197 105 51.5625C105 52.352 104.872 58.6993 104.714 66.3144C104.381 82.3081 91.3133 95.0928 75.3161 95.0928C59.0703 95.0928 45.9004 81.9225 45.9004 65.6766C45.9004 59.456 45.9004 53.6216 45.9004 49.7928C47.812 49.7928 50.6245 41.25 52.4995 28.125C53.1916 23.2803 52.4995 17.8125 63.7495 15.9375C72.187 15.9375 85.4835 13.9377 96.562 19.9805Z" fill="#F5F5F5"/>
<path d="M46.2383 50.9179L42.488 49.0429C43.4255 47.1679 39.6755 24.6679 47.1755 17.1679C51.0313 13.312 61.3165 11.692 63.7496 9.37511C66.0493 7.18537 60.5345 4.20557 62.8121 3.75004C67.4996 2.81254 93.0733 8.6765 102.488 18.1054C107.812 23.4375 110.301 40.2929 109.051 47.1679L102.488 52.5001C100.312 47.8126 100.312 27.1875 99.3746 22.5C99.3746 17.8125 82.4996 15 75.9371 15C64.6867 15 64.6867 15 54.5655 20.521L54.3746 20.6251C52.4996 30.9376 49.6871 50.6251 46.2383 50.9179Z" fill="#9E9E9E"/>
<path d="M60.9371 70.3126C61.8746 68.4376 68.437 65.9178 70.312 65.9178L79.9882 65.9179C81.3141 65.9179 87.4882 69.6678 88.4257 71.5429L90.3007 74.0625C92.6952 73.4638 100.312 70.3126 102.187 53.4376C104.241 52.28 103.426 66.5165 103.426 66.8553C103.426 67.7928 104.58 83.1531 90.3007 90.2929C84.6757 93.1054 81.8633 94.9804 75.3007 94.9804C71.5508 94.9804 61.2382 92.1679 60.3007 91.2304C59.3632 90.2929 44.9993 80.625 45.9368 65.625L46.0434 60.6546C45.646 56.3177 45.0334 50.8401 46.2383 51.5626C50.6246 71.5429 58.0443 72.9782 59.3633 73.4178L60.9371 70.3126Z" fill="#9E9E9E"/>
<path d="M104.065 50.0469C104.065 53.9402 104.065 59.9075 104.065 66.2458C104.065 82.3173 91.0369 95.3469 74.9654 95.3469V95.3469C58.8939 95.3469 45.8654 82.3124 45.8654 66.2409C45.8654 57.927 45.8654 50.8653 45.8654 50.0469" stroke="black" stroke-width="1.3" stroke-linecap="round" stroke-linejoin="round"/>
<path d="M87.7453 92.947C88.7401 103.331 88.0999 104.791 92.3876 106.346C96.3672 107.789 108.699 112.581 114.605 115.055C128.2 120.749 127.945 131.525 127.945 135.687C127.945 139.849 127.945 149.1 127.945 149.1" stroke="black" stroke-width="1.3" stroke-linecap="round" stroke-linejoin="round"/>
<path d="M61.7996 92.9999C60.8048 103.384 61.445 104.844 57.1573 106.399C53.1777 107.842 40.8462 112.634 34.9401 115.108C21.3451 120.802 21.5999 131.578 21.5999 135.74C21.6 139.902 21.6 149.1 21.6 149.1" stroke="black" stroke-width="1.3" stroke-linecap="round" stroke-linejoin="round"/>
<path d="M103.945 52.447C103.945 50.2931 105.691 48.547 107.845 48.547V48.547C109.999 48.547 111.745 50.2931 111.745 52.447V59.347C111.745 63.6548 108.253 67.147 103.945 67.147V67.147V52.447Z" stroke="black" stroke-width="1.3" stroke-linecap="round" stroke-linejoin="round"/>
<path d="M45.7451 52.447C45.7451 50.2931 43.999 48.547 41.8451 48.547V48.547C39.6912 48.547 37.9451 50.2931 37.9451 52.447V59.347C37.9451 63.6548 41.4373 67.147 45.7451 67.147V67.147V52.447Z" stroke="black" stroke-width="1.3" stroke-linecap="round" stroke-linejoin="round"/>
<path d="M103.126 53.4375C97.4996 43.125 102.188 26.25 98.4381 21.5625C95.9451 18.4462 90.0006 16.875 85.3131 15.9375C80.6256 15 73.1256 14.4375 65.6256 15.9375C58.1256 17.4375 55.3137 17.8125 53.4381 22.5C51.133 28.2612 51.5631 49.6875 45.9381 52.5C46.8756 48.5999 42.1876 48.5999 42.1876 48.5999C42.1876 48.5999 42.1876 24.375 44.9646 19.6875C47.7416 15 52.904 12.4022 58.1251 11.25C72.1881 8.14658 55.3131 3.75 63.7506 3.75C72.1881 3.75 92.8129 11.25 97.4996 14.0625C102.186 16.875 106.252 23.3841 108.263 30.9375C109.973 37.3564 108.265 47.9468 108.265 47.9468C106.417 47.9468 103.126 48.5999 103.126 53.4375Z" stroke="black" stroke-width="1.3" stroke-linecap="round" stroke-linejoin="round"/>
<path d="M55.3135 106.875C55.3135 106.875 70.6569 117.122 75.5997 117C80.0886 116.889 95.626 107.812 95.626 107.812" stroke="black" stroke-width="1.3" stroke-linecap="round" stroke-linejoin="round"/>
<path d="M66.8525 72.605C66.8525 72.605 68.9177 75.2815 74.8837 75.2815C80.8496 75.2815 82.9115 72.605 82.9115 72.605" stroke="black" stroke-width="1.3" stroke-linecap="round" stroke-linejoin="round"/>
<path d="M64.8457 55.2077V60.2261M84.9194 55.2077V60.2261" stroke="black" stroke-width="1.3" stroke-linecap="round" stroke-linejoin="round"/>
<path d="M49.501 57.9438C49.501 53.3993 53.185 49.7152 57.7296 49.7152H63.901C69.2029 49.7152 73.501 54.0133 73.501 59.3152V59.3152C73.501 64.6171 69.2029 68.9152 63.901 68.9152H60.4724C54.4131 68.9152 49.501 64.0031 49.501 57.9438V57.9438Z" stroke="black" stroke-width="1.3" stroke-linecap="round" stroke-linejoin="round"/>
<path d="M77.6992 59.3152C77.6992 54.0133 81.9973 49.7152 87.2992 49.7152H93.4706C98.0152 49.7152 101.699 53.3993 101.699 57.9438V57.9438C101.699 64.0031 96.7871 68.9152 90.7278 68.9152H87.2992C81.9973 68.9152 77.6992 64.6171 77.6992 59.3152V59.3152Z" stroke="black" stroke-width="1.3" stroke-linecap="round" stroke-linejoin="round"/>
<path d="M73.499 55.1154C74.199 54.5154 76.019 53.6754 77.699 55.1154" stroke="black" stroke-width="1.3" stroke-linecap="round"/>
</svg>
