<svg width="80" height="81" viewBox="0 0 80 81" fill="none" xmlns="http://www.w3.org/2000/svg">
    <path d="M12.1603 71.6504C12.1603 69.4308 12.0244 63.6839 19.2751 60.6469C22.425 59.3275 23.7402 58.0856 28.5 57.002C33.5 59.502 36 61.502 40 63.502C45.5 60.502 48 59.002 52.5 57.002C59.7 59.2959 63.8402 60.6469 67.0402 65.816C68.9222 69.6299 67.9682 77.768 68.0002 78.502H12.1603V71.6504Z" fill="#999999"/>
    <path d="M21 30.002C21 34.4202 22.8333 35.1687 24 35.002C24 38.002 25.5 41.502 26 44.002C26.3101 45.5525 31.1667 48.8354 33.5 50.002L32.5 54.002C31.5 56.002 30.5 56.002 28.5 57.002C33 59.502 35.5 61.002 40 63.502C46 60.002 49.5 58.502 52 57.002C50.6667 56.1687 47.9 54.302 47.5 53.502C47.1 52.702 47.3334 50.8354 47.5 49.502C48.6667 48.6687 50.9 47.202 52.5 46.002C54.1 44.802 55.6667 38.1687 56 35.502C57 35.002 55.2 35.802 58 35.002C60.8 34.202 60.3334 30.1687 60 28.502C60.3334 27.502 60.0001 25.002 58 25.502C56 26.002 55.5 26.002 54.5 26.002C53.5 25.502 55.1532 25.0191 50.5 24.502C46 24.002 37 23.502 29.5 24.002C25 26.002 24.5 25.502 22.5 25.502C21 25.502 21 26.002 21 30.002Z" fill="#F2F2F2"/>
    <path d="M54.0001 36.002C36.5001 31.002 28.0001 36.002 26.0001 35.502C24.8001 37.102 25.8334 42.8353 26.5001 45.502C28.8334 47.502 34.8001 51.502 40.0001 51.502C45.2001 51.502 50.5001 47.502 52.5001 45.502C54.0001 43.002 54.5 41.002 54.0001 36.002Z" fill="white"/>
    <path d="M54.3359 25.502C55.6284 25.7761 55.9434 26.857 55.9686 28.0405C55.8562 28.7244 55.8005 29.5799 55.825 30.6446C55.8233 30.7729 55.8263 30.8927 55.8359 31.002C55.8313 30.8803 55.8277 30.7612 55.825 30.6446C55.8342 29.9323 55.9881 28.9558 55.9686 28.0405C56.2993 26.0292 57.1209 25.502 57.8363 25.502C57.8363 25.502 58.4889 19.4253 57.5773 16.002C56.5045 11.9735 54.3361 8.50195 51.8365 7.00195C49.337 5.50195 43.8361 4.00193 40.8361 4.00195C39.163 4.00197 35.347 5.22714 31.8359 6.00195C29.0514 6.61645 25.2989 9.50195 23.8179 12.002C22.3368 14.502 19.5 25.002 22.5 25.502C25.5 26.002 27.8359 25.002 29.3359 24.502C30.8359 24.002 37.8359 22.002 54.3359 25.502Z" fill="#999999"/>
    <path d="M21.3359 39.502C22.5359 39.502 22.1693 36.502 21.8359 35.002L24.3359 35.502V38.502C23.8179 41.002 19.8359 39.502 21.3359 39.502Z" fill="#999999"/>
    <path d="M58.8359 39.502C56.8359 38.502 57.1693 37.3353 57.3359 35.502H55.8359L55.3359 38.502C56.1484 40.002 57.8362 40.2517 58.8359 39.502Z" fill="#999999"/>
    <path d="M24 27.502C23.6667 32.1686 24.9998 41.502 26.9997 45.502M55.9022 27.502C56.2356 32.1686 55.9022 40.002 53 45.002" stroke="black" stroke-linecap="round" stroke-linejoin="round"/>
    <path d="M58.0004 25.502C58.0004 25.502 58.6529 19.4253 57.7413 16.002C55.6384 8.10496 48.0926 4.00189 40 4.00195C31.9074 4.00202 23.5 10.002 22 16.002C20.875 20.502 21 22.502 21.5 25.502M22 35.002C22.3333 36.502 22.7 39.502 21.5 39.502C20 39.502 23.9819 41.002 24.5 38.502M57.5 35.502C57.3333 37.3353 57 38.502 59 39.502C58.0002 40.2517 56.3125 40.002 55.5 38.502" stroke="black" stroke-linecap="round" stroke-linejoin="round"/>
    <path d="M33.5 50.002C33.5 51.002 33.2641 53.1398 33 54.0019C33 54.0019 32.1224 55.7324 30 56.5019C27.8776 57.2715 22.2648 59.4282 19.115 60.7476C11.8643 63.7846 12.0002 69.5315 12.0002 71.7512C12.0002 73.9708 12.0002 78.0766 12.0002 78.0766" stroke="black" stroke-linecap="round" stroke-linejoin="round"/>
    <path d="M46.9995 50.002C46.7994 53.0472 47.1772 53.0277 47.5 54.002C47.5 54.002 48.3776 55.7324 50.5 56.502C52.6224 57.2715 58.3753 59.4282 61.5252 60.7476C68.7759 63.7846 68.64 69.5315 68.64 71.7512C68.6399 73.9709 68.6399 78.0767 68.6399 78.0767" stroke="black" stroke-linecap="round" stroke-linejoin="round"/>
    <path d="M56 27.502C56 26.3974 56.8954 25.502 58 25.502V25.502C59.1046 25.502 60 26.3974 60 27.502V31.502C60 33.7111 58.2091 35.502 56 35.502V35.502V27.502Z" stroke="black" stroke-linecap="round" stroke-linejoin="round"/>
    <path d="M24 27.002C24 26.1735 23.3284 25.502 22.5 25.502V25.502C21.6716 25.502 21 26.1735 21 27.002V32.502C21 34.1588 22.3431 35.502 24 35.502V35.502V27.002Z" stroke="black" stroke-linecap="round" stroke-linejoin="round"/>
    <path d="M26 35.502C28.8333 35.002 35.3005 34.002 40.5005 34.002C45.7005 34.002 52.0005 35.3353 54.5005 36.002M26 35.502C25.6 39.102 26.0005 43.3353 26.5005 45.002C27.5004 46.502 30.5004 48.502 32.5005 49.502C32.9477 49.7256 36.0005 51.502 40.0005 51.502C44.0005 51.502 46.0003 50.3353 47.0004 50.002C48.5003 49.502 52.5005 46.502 53.0005 45.002C53.4005 43.802 54.1671 38.502 54.5005 36.002M26 35.502C26 34.702 24.3333 28.8353 23.5 26.002M54.5005 36.002L56.0004 26.502M30.0004 37.002C30.5004 37.002 42.0004 35.502 51.0004 37.502" stroke="black" stroke-linecap="round" stroke-linejoin="round"/>
    <path d="M24 26.0018C26.8333 25.0018 34 23.1018 40 23.5018C47.5 24.0018 56 25.0018 56 27.0018" stroke="black"/>
    <path d="M29 57.002L40 63.502L52 57.002" stroke="black"/>
    <path d="M35.0645 30.0811V31.637M45.7704 30.0811V31.637" stroke="black" stroke-linecap="round" stroke-linejoin="round"/>
</svg>
