<svg width="80" height="81" viewBox="0 0 80 81" fill="none" xmlns="http://www.w3.org/2000/svg">
    <path d="M11.5202 72.7172C11.5202 70.4975 11.3843 64.7507 18.635 61.7137C21.7848 60.3943 29.3976 57.0923 31.52 56.3227C33.8068 55.4936 36.0841 57.4967 47.52 56.3227C49.6425 57.0923 57.8952 60.3943 61.0451 61.7137C68.2958 64.7507 68.1599 70.4975 68.1598 72.7172L68.1598 79.0427H11.68L11.5202 72.7172Z" fill="white"/>
    <path d="M32.3201 55.5205L33.1201 48.4805C37.9201 49.9205 40.8001 49.6005 46.5601 48.9605C46.5601 54.2085 46.8267 55.0938 47.5201 55.5205C46.5067 56.3738 40.0001 66.4028 40.0001 66.4028L32.3201 55.5205Z" fill="#FAFAFA"/>
    <path d="M55.3601 27.9999C55.3601 26.8512 56.2914 25.9199 57.4401 25.9199C58.5889 25.9199 59.5201 26.8512 59.5201 27.9999V31.6799C59.5201 33.9774 57.6576 35.8399 55.3601 35.8399V27.9999Z" fill="#FAFAFA"/>
    <path d="M24.3201 27.9999C24.3201 26.8512 23.3888 25.9199 22.2401 25.9199C21.0913 25.9199 20.1601 26.8512 20.1601 27.9999V31.6799C20.1601 33.9774 22.0226 35.8399 24.3201 35.8399V27.9999Z" fill="#FAFAFA"/>
    <path d="M44.3201 16.9619C49.2801 20.1619 49.4401 24.9619 55.3601 26.7219C55.3601 27.1584 55.3601 30.9246 55.3601 35.3587C55.3601 43.9302 48.4115 50.8819 39.8401 50.8819C31.2686 50.8819 24.3201 43.9328 24.3201 35.3613C24.3201 31.9809 24.3201 28.7984 24.3201 26.7219C27.5201 26.7219 35.5201 23.8419 44.3201 16.9619Z" fill="#FAFAFA"/>
    <path d="M44.5579 16.934C36.8779 22.214 32.3979 25.2541 24.2379 26.854C24.1739 26.534 23.1431 25.574 22.1578 25.574C21.1979 25.574 20.3978 26.3741 20.3978 27.3341V32.4541C20.3978 32.4541 21.198 35.8141 24.2379 35.8141C24.2379 40.6141 27.3602 44.3224 27.3602 44.3224C27.3602 44.3224 17.435 37.8812 13.5203 31.3624C13.0981 30.6594 14.1134 28.7264 13.5203 27.3341L11.6579 25.5438C11.1571 25.1995 10.7506 24.9092 10.7201 24.6424C10.0843 23.0527 12.5363 23.8982 12.6402 22.2424C12.7213 20.9501 10.236 20.6807 8.64014 19.3624C12.0001 16.1624 6.51029 15.8182 6.72015 14.8824C4.78293 13.3922 10.4001 10.2424 12.6402 11.5606C13.3482 11.0056 11.8401 8.48237 14.7201 7.04237C15.1428 6.78838 15.8998 7.02073 16.7242 7.30097L19.6801 7.68239C21.7601 3.68239 24.0376 7.98213 26.5601 5.76236C27.5074 5.02556 27.3602 3.25233 30.4001 2.88238C34.2401 1.72063 33.7055 4.62872 36.9601 4.64236L39.2839 4.08158C40.3432 3.65192 41.396 3.14869 42.7201 3.25233C43.863 3.3418 44.6259 4.28936 45.6141 5.06836L46.7201 5.76236C48.6366 6.62812 50.3178 7.04237 52.6401 7.68239C60.6072 9.87818 58.9579 26.5341 58.9579 26.5341C58.9579 26.5341 56.8779 25.5741 55.9179 26.6941C53.6779 26.5341 51.2074 24.4777 50.3178 23.334C46.9578 19.014 46.6379 18.5341 44.5579 16.934Z" fill="black"/>
    <path d="M44.3977 16.9346C49.3577 20.1346 49.5177 24.9346 55.4377 26.6946C55.4377 27.1311 55.4377 30.8973 55.4377 35.3314C55.4377 43.9028 48.4892 50.8546 39.9177 50.8546V50.8546C31.3463 50.8546 24.3977 43.9054 24.3977 35.334C24.3977 31.9536 24.3977 28.771 24.3977 26.6946C27.5977 26.6946 35.5977 23.8146 44.3977 16.9346Z" stroke="black" stroke-linecap="round" stroke-linejoin="round"/>
    <path d="M46.7976 49.5742C47.3281 55.1124 46.9867 55.8911 49.2735 56.7202C51.3959 57.4898 57.9727 60.0458 61.1226 61.3651C68.3733 64.4022 68.2374 70.149 68.2374 72.3687C68.2373 74.5884 68.2374 78.6942 68.2374 78.6942" stroke="black" stroke-linecap="round" stroke-linejoin="round"/>
    <path d="M32.96 49.6025C32.4295 55.1407 32.7709 55.9194 30.4841 56.7486C28.3617 57.5181 21.7848 60.0741 18.635 61.3935C11.3843 64.4305 11.5202 70.1774 11.5202 72.397C11.5202 74.6167 11.5202 78.7225 11.5202 78.7225" stroke="black" stroke-linecap="round" stroke-linejoin="round"/>
    <path d="M55.4377 27.9745C55.4377 26.8258 56.369 25.8945 57.5177 25.8945V25.8945C58.6665 25.8945 59.5977 26.8258 59.5977 27.9745V31.6545C59.5977 33.952 57.7352 35.8145 55.4377 35.8145V35.8145V27.9745Z" stroke="black" stroke-linecap="round" stroke-linejoin="round"/>
    <path d="M24.3977 27.9745C24.3977 26.8258 23.4665 25.8945 22.3177 25.8945V25.8945C21.169 25.8945 20.2377 26.8258 20.2377 27.9745V31.6545C20.2377 33.952 22.1002 35.8145 24.3977 35.8145V35.8145V27.9745Z" stroke="black" stroke-linecap="round" stroke-linejoin="round"/>
    <path d="M39.9998 66.5619L32.3566 56.002L30.0798 58.422L33.6575 60.402L31.5434 62.3819L39.9998 66.5619Z" stroke="black" stroke-linecap="round" stroke-linejoin="round"/>
    <path d="M39.9999 66.5619L47.6432 56.002L49.9199 58.422L46.3422 60.402L48.4563 62.3819L39.9999 66.5619Z" stroke="black" stroke-linecap="round" stroke-linejoin="round"/>
    <path d="M10.7199 24.6424C10.084 23.0527 12.536 23.8982 12.6399 22.2424C12.721 20.9501 10.2357 20.6807 8.63989 19.3624C11.9999 16.1624 6.51005 15.8182 6.71991 14.8824C4.78269 13.3922 10.3998 10.2424 12.6399 11.5606C13.3479 11.0056 11.8399 8.48237 14.7199 7.04237M10.7199 24.6424C10.792 25.2734 12.9669 26.0356 13.5201 27.3341M10.7199 24.6424L13.5201 27.3341M19.6798 7.68239C21.7598 3.68239 24.0374 7.98213 26.5598 5.76236C27.5072 5.02556 27.3599 3.25233 30.3998 2.88238C34.2398 1.72063 33.7053 4.62872 36.9598 4.64236M19.6798 7.68239C18.4112 8.43121 15.6882 6.46047 14.7199 7.04237M19.6798 7.68239L14.7199 7.04237M13.5201 27.3341C14.1132 28.7264 13.0979 30.6594 13.5201 31.3624C17.4347 37.8812 27.3599 44.3224 27.3599 44.3224C27.3599 44.3224 24.2376 40.6141 24.2376 35.8141C21.1977 35.8141 20.3976 32.4541 20.3976 32.4541C20.3976 32.4541 20.3976 28.2941 20.3976 27.3341C20.3976 26.3741 21.1976 25.574 22.1575 25.574C23.1428 25.574 24.1736 26.534 24.2376 26.854C32.3976 25.2541 36.8776 22.214 44.5576 16.934C46.6377 18.5341 46.9576 19.014 50.3176 23.334C51.2071 24.4777 53.6776 26.5341 55.9176 26.6941C56.8776 25.5741 58.9576 26.5341 58.9576 26.5341C58.9576 26.5341 60.607 9.87818 52.6398 7.68239C50.3176 7.04237 48.6363 6.62812 46.7198 5.76236M36.9598 4.64236C39.0046 4.65094 40.471 3.07629 42.7198 3.25233M36.9598 4.64236L42.7198 3.25233M42.7198 3.25233C44.2501 3.37212 45.0992 5.03025 46.7198 5.76236M42.7198 3.25233L46.7198 5.76236" stroke="black" stroke-linecap="round" stroke-linejoin="round"/>
    <path d="M25.9199 30.2961C25.9199 28.411 27.4481 26.8828 29.3333 26.8828H35.3066C37.1917 26.8828 38.7199 28.411 38.7199 30.2961V30.7228C38.7199 34.2574 35.8545 37.1228 32.3199 37.1228V37.1228C28.7853 37.1228 25.9199 34.2574 25.9199 30.7228V30.2961Z" stroke="black" stroke-linecap="round" stroke-linejoin="round"/>
    <path d="M40.96 30.2961C40.96 28.411 42.4882 26.8828 44.3733 26.8828H50.3466C52.2318 26.8828 53.76 28.411 53.76 30.2961V30.7228C53.76 34.2574 50.8946 37.1228 47.36 37.1228V37.1228C43.8253 37.1228 40.96 34.2574 40.96 30.7228V30.2961Z" stroke="black" stroke-linecap="round" stroke-linejoin="round"/>
    <path d="M38.7197 29.7619C39.0931 29.4419 40.0637 28.9939 40.9597 29.7619" stroke="black" stroke-linecap="round"/>
    <path d="M35.6553 38.7246C35.6553 38.7246 36.7567 40.1521 39.9385 40.1521C43.1204 40.1521 44.2201 38.7246 44.2201 38.7246" stroke="black" stroke-linecap="round" stroke-linejoin="round"/>
    <path d="M34.5845 29.4463V32.1228M45.2905 29.4463V32.1228" stroke="black" stroke-linecap="round" stroke-linejoin="round"/>
</svg>
