<svg width="150" height="151" viewBox="0 0 150 151" fill="none" xmlns="http://www.w3.org/2000/svg">
<path d="M22.1996 137.509C22.1995 133.126 21.9447 121.779 35.5398 115.782C41.4458 113.176 57.895 105.582 61.8745 104.062C64.7929 102.948 67.4995 106.875 75.937 108.75L79.7908 106.971C81.7463 105.498 83.8914 103.583 88.1245 103.125C92.1041 104.645 109.153 113.176 115.059 115.782C128.654 121.779 128.399 133.126 128.399 137.509L128.399 150H22.4992L22.1996 137.509Z" fill="white"/>
<path d="M103.799 51.8956C103.799 49.7417 105.545 47.9956 107.699 47.9956C109.853 47.9956 111.599 49.7417 111.599 51.8956V58.7956C111.599 63.1034 108.107 66.5956 103.799 66.5956V51.8956Z" fill="#F5F5F5"/>
<path d="M45.5996 51.8956C45.5996 49.7417 43.8535 47.9956 41.6996 47.9956C39.5457 47.9956 37.7996 49.7417 37.7996 51.8956V58.7956C37.7996 63.1034 41.2918 66.5956 45.5996 66.5956V51.8956Z" fill="#F5F5F5"/>
<path d="M95.6245 25.3125C104.737 31.8751 103.799 39.375 103.799 49.4999C103.799 50.3184 103.799 57.38 103.799 65.694C103.799 81.7654 90.7702 94.7999 74.6987 94.7999C58.6272 94.7999 45.5987 81.7703 45.5987 65.6988C45.5987 59.3606 45.5987 53.3933 45.5987 49.4999C44.9987 40.3125 45.937 32.8125 49.6871 29.0625C54.1736 25.6977 65.6245 18.75 75.937 18.75C81.9136 18.75 85.6566 19.8755 95.6245 25.3125Z" fill="#F5F5F5"/>
<path d="M60.9375 103.125L61.875 92.8125C65 93.75 72 95.625 75 95.625C78 95.625 85 93.75 88.125 92.8125C88.4375 95.625 90.4041 102.454 89.0625 103.125C87.1875 104.062 80.625 106.875 75.9375 109.688L60.9375 103.125Z" fill="#F5F5F5"/>
<path d="M70.3118 66.5625C68.4368 66.5625 65.6243 68.7 64.6868 70.575C73.1243 70.3125 75.9368 70.575 83.4368 70.575C82.4993 68.7 80.0743 66.5625 78.7485 66.5625H70.3118Z" fill="#E0E0E0"/>
<path d="M78.7485 77.8125C76.4985 78.5625 72.4985 78.125 71.2485 77.8125C71.2485 79.6875 74.061 80.625 74.9985 80.625C75.936 80.625 78.7485 79.6875 78.7485 77.8125Z" fill="#E0E0E0"/>
<path d="M62.8118 71.25C60.6548 70.531 49.4166 60.3125 45.936 58.125C43.1227 82.5 59.061 90 59.9985 90.9375C60.936 91.875 70.3101 95.625 74.0601 95.625C80.6226 95.625 84.3743 93.75 89.9993 90.9375C104.279 83.7977 104.998 63.75 103.123 58.125C99.3726 65.625 89.5933 69.6375 85.8433 70.575C84.0242 71.0297 86.4014 76.7229 83.4368 79.6875C79.6868 83.4375 76.8735 82.5 74.9985 82.5C73.1222 82.5 69.3743 83.4375 66.5618 79.6875C63.7493 75.9375 64.9688 71.969 62.8118 71.25Z" fill="#E0E0E0"/>
<path d="M52.4976 41.25C49.2817 43.1789 46.5607 48.125 45.936 51.5625V37.5C45.936 36.5625 46.8726 31.875 49.6851 30C52.1518 28.3555 59.8731 18.75 74.0601 18.75C88.1235 18.75 100.31 27.1875 102.185 31.875C103.685 35.625 103.436 46.5625 103.123 51.5625C101.249 42.1875 99.3726 45 97.4976 41.25C92.1205 30.4959 93.7493 23.4375 81.5618 22.5C74.0601 21.923 76.8618 22.0839 69.3726 22.5C52.4976 23.4375 57.1868 38.4375 52.4976 41.25Z" fill="#E0E0E0"/>
<path d="M104.061 48.7499C77.8114 44.9999 48.7489 48.7499 46.8739 48.7499C44.0614 52.4999 48.7489 66.5625 49.6864 67.5C50.6239 68.4375 65.6239 67.5 68.4364 67.5C71.2489 67.5 71.2489 59.0625 74.9989 59.0625C78.7489 59.0625 77.8119 66.5625 80.6244 67.5C82.8744 68.25 95.3119 68.75 100.312 67.5C104.061 63.75 104.999 57.1875 104.061 48.7499Z" fill="white"/>
<path d="M56.25 40.3125C55.5 39.5625 49.0626 40.625 45.9376 41.25C45.6251 40.3125 45.1876 38.25 45.9376 37.5C46.6876 36.75 53.1251 36.5625 56.25 36.5625C56.5625 38.125 57 41.0625 56.25 40.3125Z" fill="#9E9E9E"/>
<path d="M71.2498 39.375V35.625C78.7498 34.875 96.2497 36.5625 104.062 37.5C105 39.6875 106.312 43.5 104.062 41.25C101.812 39 81.2498 39.0625 71.2498 39.375Z" fill="#9E9E9E"/>
<circle cx="63.75" cy="37.5" r="7.5" fill="white"/>
<path d="M75.9375 109.688L79.6875 117.188L90 108.75V105L88.125 103.125L75.9375 109.688ZM75.9375 109.688L61.875 103.125L60 105V108.75L72.1875 117.188L75.9375 109.688Z" stroke="black" stroke-width="1.3" stroke-linecap="round" stroke-linejoin="round"/>
<path d="M104.062 48.7499C77.8123 44.9999 48.7498 48.7499 46.8748 48.7499C44.0623 52.4999 48.7498 66.5625 49.6873 67.5C50.6248 68.4375 65.6248 67.5 68.4373 67.5C71.2498 67.5 71.2498 59.0625 74.9998 59.0625C78.7498 59.0625 77.8129 66.5625 80.6254 67.5C82.8754 68.25 95.3129 68.75 100.313 67.5C104.062 63.75 105 57.1875 104.062 48.7499Z" stroke="black" stroke-width="1.3" stroke-linecap="round" stroke-linejoin="round"/>
<path d="M48.75 51.5626C60 50.3126 86.25 48.5626 101.25 51.5626" stroke="black" stroke-width="1.3" stroke-linecap="round" stroke-linejoin="round"/>
<circle cx="63.75" cy="37.5" r="7.5" stroke="black" stroke-width="1.3" stroke-linecap="round" stroke-linejoin="round"/>
<circle cx="63.75" cy="37.5" r="3.75" stroke="black" stroke-width="1.3" stroke-linecap="round" stroke-linejoin="round"/>
<path d="M71.25 39.3751C79.375 39.0626 96.5625 39.0001 104.062 41.2501" stroke="black" stroke-width="1.3" stroke-linecap="round" stroke-linejoin="round"/>
<path d="M72.1875 35.625C80.3125 35.3125 96.5625 35.4085 104.062 37.6585" stroke="black" stroke-width="1.3" stroke-linecap="round" stroke-linejoin="round"/>
<path d="M56.25 40.3125C53.4375 40.3125 48.9375 40.5 45.9375 41.25" stroke="black" stroke-width="1.3" stroke-linecap="round" stroke-linejoin="round"/>
<path d="M56.25 36.5625C53.6538 36.5625 48.75 36.5625 46.875 37.5" stroke="black" stroke-width="1.3" stroke-linecap="round" stroke-linejoin="round"/>
<path d="M104.065 50.047C104.065 53.9403 104.065 59.9077 104.065 66.2459C104.065 82.3174 91.0369 95.347 74.9654 95.347V95.347C58.8939 95.347 45.8654 82.3125 45.8654 66.2411C45.8654 57.9271 45.8654 50.8655 45.8654 50.047" stroke="black" stroke-width="1.3" stroke-linecap="round" stroke-linejoin="round"/>
<path d="M87.7453 92.947C88.7401 103.331 88.0999 104.791 92.3876 106.346C96.3672 107.789 108.699 112.581 114.605 115.055C128.2 120.749 127.945 131.525 127.945 135.687C127.945 139.849 127.945 149.1 127.945 149.1" stroke="black" stroke-width="1.3" stroke-linecap="round" stroke-linejoin="round"/>
<path d="M61.7996 93C60.8048 103.384 61.445 104.844 57.1573 106.399C53.1777 107.842 40.8462 112.634 34.9401 115.108C21.3451 120.802 21.5999 131.578 21.5999 135.74C21.6 139.902 21.6 149.1 21.6 149.1" stroke="black" stroke-width="1.3" stroke-linecap="round" stroke-linejoin="round"/>
<path d="M103.945 52.447C103.945 50.2931 105.691 48.547 107.845 48.547V48.547C109.999 48.547 111.745 50.2931 111.745 52.447V59.347C111.745 63.6548 108.253 67.147 103.945 67.147V67.147V52.447Z" stroke="black" stroke-width="1.3" stroke-linecap="round" stroke-linejoin="round"/>
<path d="M45.7451 52.447C45.7451 50.2931 43.999 48.547 41.8451 48.547V48.547C39.6912 48.547 37.9451 50.2931 37.9451 52.447V59.347C37.9451 63.6548 41.4373 67.147 45.7451 67.147V67.147V52.447Z" stroke="black" stroke-width="1.3" stroke-linecap="round" stroke-linejoin="round"/>
<path d="M60.0688 148.125V105L48 114.6L55.5 124.8L49.5 126.6L60.0688 148.125Z" stroke="black" stroke-width="1.3" stroke-linecap="round" stroke-linejoin="round"/>
<path d="M90.2309 150V105L102.3 114.6L94.7998 124.8L100.8 126.6L90.2309 150Z" stroke="black" stroke-width="1.3" stroke-linecap="round" stroke-linejoin="round"/>
<path d="M104.063 51.5625C104.063 48.0907 104.343 41.8124 104.063 37.5C103.483 28.5716 90.6726 18.7499 75.938 18.75C65.2626 18.7501 45.938 26.25 45.938 37.5C45.938 45.8073 45.938 44.6406 45.938 50.625" stroke="black" stroke-width="1.3" stroke-linecap="round" stroke-linejoin="round"/>
<path d="M74.8837 75.2816C68.9177 75.2816 66.8525 72.6051 66.8525 72.6051H82.9115C82.9115 72.6051 80.8496 75.2816 74.8837 75.2816Z" stroke="black" stroke-width="1.3" stroke-linecap="round" stroke-linejoin="round"/>
<path d="M64.8457 55.2078V60.2262M84.9194 55.2078V60.2262" stroke="black" stroke-width="1.3" stroke-linecap="round" stroke-linejoin="round"/>
</svg>
