<svg width="150" height="151" viewBox="0 0 150 151" fill="none" xmlns="http://www.w3.org/2000/svg">
<path d="M22.2 137.509C22.2 133.126 21.9452 121.779 35.5402 115.781C41.4463 113.176 53.7778 108.129 57.7574 106.61C62.0451 104.972 71.3997 108.928 92.842 106.61C96.8216 108.129 109.153 113.176 115.059 115.781C128.654 121.779 128.399 133.126 128.399 137.509L128.399 150H22.4997L22.2 137.509Z" fill="white"/>
<path d="M104.583 49.9076C87.8176 40.6608 79.1176 30.7608 79.1176 30.7608C79.1176 30.7608 67.9786 39.584 59.9176 43.6608C54.3802 46.4613 49.3828 49.3076 45.1828 49.6076C43.3828 47.5076 39.4828 49.3076 39.4828 49.3076C39.4828 49.3076 36.3332 27.6041 46.1175 19.0607C55.9017 10.5174 71.0448 10.583 78.2175 10.3608C101.48 9.63999 110.618 48.1607 110.618 48.1607L108.483 47.5076C106.636 47.5076 104.583 49.9076 104.583 49.9076Z" fill="#9E9E9E"/>
<path d="M93.4507 2.11073C88.4217 3.27356 84.7539 6.55979 82.5674 9.61073L98.3174 84.1607V99.4608L102.517 89.9774L105.701 105.344L110.751 93.9691L115.434 105.469C117.734 80.5852 127.532 38.6048 113.617 17.5608C108.312 9.53721 102.822 -0.0562478 93.4507 2.11073Z" fill="#9E9E9E"/>
<path d="M60.6001 103.496L62.1001 90.2957C71.1001 92.9957 76.5001 92.3957 87.3001 91.1957C87.3001 101.036 89.894 100.149 89.7001 105C89.5477 108.813 88.2001 112.5 88.2001 112.5C88.2001 112.5 80.9049 116.434 75.9001 116.4C71.0076 116.367 61.8001 112.5 61.8001 112.5L60.6001 103.496Z" fill="#E0E0E0"/>
<path d="M103.799 51.8956C103.799 49.7417 105.545 47.9956 107.699 47.9956C109.853 47.9956 111.599 49.7417 111.599 51.8956V58.7956C111.599 63.1034 108.107 66.5956 103.799 66.5956V51.8956Z" fill="#E0E0E0"/>
<path d="M45.6001 51.8956C45.6001 49.7417 43.854 47.9956 41.7001 47.9956C39.5462 47.9956 37.8001 49.7417 37.8001 51.8956V58.7956C37.8001 63.1034 41.2923 66.5956 45.6001 66.5956V51.8956Z" fill="#E0E0E0"/>
<path d="M78.6001 31.1998C87.9001 37.1998 92.7001 46.1998 103.8 49.4998C103.8 50.3183 103.8 57.3799 103.8 65.6939C103.8 81.7653 90.7716 94.7998 74.7001 94.7998C58.6286 94.7998 45.6001 81.7702 45.6001 65.6987C45.6001 59.3605 45.6001 53.3932 45.6001 49.4998C51.6001 49.4998 62.1001 44.0998 78.6001 31.1998Z" fill="#E0E0E0"/>
<path d="M74.6995 116.7C73.0195 116.7 66.1995 114.7 62.9995 113.7L70.1995 149.7H80.0995L87.8995 113.7C84.5995 114.7 76.3795 116.7 74.6995 116.7Z" fill="#E0E0E0"/>
<path d="M104.065 50.047C104.065 53.9403 104.065 59.9077 104.065 66.2459C104.065 82.3174 91.0364 95.347 74.9649 95.347V95.347C58.8935 95.347 45.8649 82.3125 45.8649 66.241C45.8649 57.9271 45.8649 50.8655 45.8649 50.047" stroke="black" stroke-width="1.3" stroke-linecap="round" stroke-linejoin="round"/>
<path d="M87.7453 92.9471C88.7401 103.331 88.0999 104.791 92.3876 106.346C96.3672 107.789 108.699 112.581 114.605 115.055C128.2 120.75 127.945 131.525 127.945 135.687C127.945 139.849 127.945 149.1 127.945 149.1" stroke="black" stroke-width="1.3" stroke-linecap="round" stroke-linejoin="round"/>
<path d="M61.7996 93C60.8048 103.384 61.445 104.844 57.1573 106.399C53.1777 107.842 40.8462 112.634 34.9401 115.108C21.3451 120.802 21.5999 131.578 21.5999 135.74C21.6 139.902 21.6 149.1 21.6 149.1" stroke="black" stroke-width="1.3" stroke-linecap="round" stroke-linejoin="round"/>
<path d="M69.2995 149.4L60.0684 105L47.9995 114.6L55.4995 124.8L49.4995 126.6L69.2995 149.4Z" stroke="black" stroke-width="1.3" stroke-linecap="round" stroke-linejoin="round"/>
<path d="M80.9993 149.4L90.2305 105L102.299 114.6L94.7993 124.8L100.799 126.6L80.9993 149.4Z" stroke="black" stroke-width="1.3" stroke-linecap="round" stroke-linejoin="round"/>
<path d="M62.3994 113.7C62.3994 113.7 70.6567 117.122 75.5994 117C80.0884 116.889 87.5994 113.7 87.5994 113.7" stroke="black" stroke-width="1.3" stroke-linecap="round" stroke-linejoin="round"/>
<circle cx="106.8" cy="136.2" r="4.2" stroke="black" stroke-width="1.3" stroke-linecap="round" stroke-linejoin="round"/>
<path d="M51.5998 108.024C48.5998 107.424 41.0398 118.404 40.7998 122.724" stroke="black" stroke-width="1.3" stroke-linecap="round" stroke-linejoin="round"/>
<path d="M106.8 132C106.8 125 107.04 110.46 102 109.5" stroke="black" stroke-width="1.3" stroke-linecap="round" stroke-linejoin="round"/>
<path d="M35.7001 145.8H33.6001C33.6001 145.8 34.2001 136.8 34.8001 128.33C35.0154 125.29 37.4525 123 40.5001 123C43.5477 123 45.9494 125.293 46.2001 128.33C46.8001 135.6 47.4001 144.241 47.4001 145.8L45.3004 145.8" stroke="black" stroke-width="1.3" stroke-linecap="round" stroke-linejoin="round"/>
<path d="M103.946 52.447C103.946 50.2931 105.692 48.547 107.846 48.547V48.547C110 48.547 111.746 50.2931 111.746 52.447V59.347C111.746 63.6548 108.254 67.147 103.946 67.147V67.147V52.447Z" stroke="black" stroke-width="1.3" stroke-linecap="round" stroke-linejoin="round"/>
<path d="M45.7456 52.447C45.7456 50.2931 43.9995 48.547 41.8456 48.547V48.547C39.6917 48.547 37.9456 50.2931 37.9456 52.447V59.347C37.9456 63.6548 41.4378 67.147 45.7456 67.147V67.147V52.447Z" stroke="black" stroke-width="1.3" stroke-linecap="round" stroke-linejoin="round"/>
<path d="M66.8525 72.6051C66.8525 72.6051 68.9177 75.2816 74.8837 75.2816C80.8496 75.2816 82.9115 72.6051 82.9115 72.6051" stroke="black" stroke-width="1.3" stroke-linecap="round" stroke-linejoin="round"/>
<path d="M64.8452 55.2078V60.2263M84.919 55.2078V60.2263" stroke="black" stroke-width="1.3" stroke-linecap="round" stroke-linejoin="round"/>
<path d="M82.3506 10.0499C84.5371 6.999 88.2049 3.71277 93.2339 2.54994C102.606 0.382961 108.095 9.97642 113.401 18C127.315 39.044 117.518 81.0244 115.217 105.908L110.534 94.4083L105.484 105.783L102.301 90.4166L98.1006 99.9C98.1006 99.9 98.1006 88.9144 98.1006 84.5999" stroke="black" stroke-width="1.3" stroke-linecap="round" stroke-linejoin="round"/>
<path d="M104.366 50.3468C87.6003 41.1 78.9003 31.2 78.9003 31.2C78.9003 31.2 67.7613 40.0232 59.7003 44.1C54.163 46.9005 49.1656 49.7469 44.9656 50.0469C43.1656 47.9469 39.2655 49.7469 39.2655 49.7469C39.2655 49.7469 36.1159 28.0433 45.9002 19.4999C55.6844 10.9566 70.8276 11.0222 78.0002 10.8C101.263 10.0792 110.4 48.5999 110.4 48.5999L108.266 47.9468C106.418 47.9468 104.366 50.3468 104.366 50.3468Z" stroke="black" stroke-width="1.3" stroke-linecap="round" stroke-linejoin="round"/>
</svg>
