<svg width="80" height="81" viewBox="0 0 80 81" fill="none" xmlns="http://www.w3.org/2000/svg">
<path d="M11.84 73.3384C11.84 71.0008 11.7041 64.9486 18.9548 61.7502C22.1047 60.3607 28.6815 57.6689 30.8039 56.8585C33.0907 55.9853 38.0798 58.0949 49.5157 56.8585C51.6382 57.6689 58.215 60.3607 61.3649 61.7502C68.6156 64.9486 68.4797 71.0008 68.4797 73.3384L68.4796 80H11.9998L11.84 73.3384Z" fill="white"/>
<path d="M55.7775 26.6174C46.8361 21.6858 42.1961 16.4058 42.1961 16.4058C42.1961 16.4058 36.2553 21.1115 31.9561 23.2858C29.0028 24.7794 26.3375 26.2974 24.0975 26.4574C23.1375 25.3374 21.0575 26.2974 21.0575 26.2974C21.0575 26.2974 19.3777 14.7222 24.596 10.1658C29.8143 5.6093 37.8906 5.6443 41.716 5.52577C54.1229 5.14136 58.9961 25.6858 58.9961 25.6858L57.8576 25.3374C56.8723 25.3374 55.7775 26.6174 55.7775 26.6174Z" fill="#9E9E9E"/>
<path d="M49.8406 1.12572C47.1584 1.7459 45.2023 3.49856 44.0361 5.12572L52.4361 44.8857V53.0457L54.6761 47.988L56.3739 56.1835L59.0672 50.1168L61.565 56.2502C62.7918 42.9788 68.0174 20.5892 60.5961 9.36574C57.7666 5.08651 54.8388 -0.0299988 49.8406 1.12572Z" fill="#9E9E9E"/>
<path d="M32.3198 55.1976L33.1198 48.1577C37.9198 49.5977 40.7998 49.2777 46.5598 48.6377C46.5598 53.8856 47.9432 53.4129 47.8398 56C47.7585 58.0335 47.0398 59.9999 47.0398 59.9999C47.0398 59.9999 43.1491 62.0979 40.4798 62.0799C37.8705 62.0624 32.9598 59.9999 32.9598 59.9999L32.3198 55.1976Z" fill="#E0E0E0"/>
<path d="M55.3599 27.6777C55.3599 26.5289 56.2911 25.5977 57.4399 25.5977V25.5977C58.5886 25.5977 59.5199 26.5289 59.5199 27.6777V31.3576C59.5199 33.6552 57.6574 35.5177 55.3599 35.5177V35.5177V27.6777Z" fill="#E0E0E0"/>
<path d="M24.3198 27.6777C24.3198 26.5289 23.3886 25.5977 22.2398 25.5977V25.5977C21.0911 25.5977 20.1598 26.5289 20.1598 27.6777V31.3577C20.1598 33.6552 22.0223 35.5177 24.3198 35.5177V35.5177V27.6777Z" fill="#E0E0E0"/>
<path d="M41.9198 16.64C46.8798 19.84 49.4398 24.64 55.3598 26.4C55.3598 26.8365 55.3598 30.6027 55.3598 35.0368C55.3598 43.6082 48.4113 50.56 39.8398 50.56V50.56C31.2684 50.56 24.3198 43.6108 24.3198 35.0394C24.3198 31.659 24.3198 28.4764 24.3198 26.4C27.5198 26.4 33.1198 23.52 41.9198 16.64Z" fill="#E0E0E0"/>
<path d="M39.8401 62.24C38.9441 62.24 35.3068 61.1733 33.6001 60.64L37.4401 79.8399H42.7201L46.8801 60.64C45.1201 61.1733 40.7361 62.24 39.8401 62.24Z" fill="#E0E0E0"/>
<path d="M55.5015 26.6917C55.5015 28.7681 55.5015 31.9507 55.5015 35.3311C55.5015 43.9025 48.5529 50.8517 39.9815 50.8517V50.8517C31.41 50.8517 24.4615 43.8999 24.4615 35.3285C24.4615 30.8944 24.4615 27.1282 24.4615 26.6917" stroke="black" stroke-linecap="round" stroke-linejoin="round"/>
<path d="M46.7978 49.5717C47.3283 55.1099 46.9869 55.8886 49.2737 56.7177C51.3961 57.4873 57.973 60.0433 61.1228 61.3626C68.3735 64.3997 68.2376 70.1465 68.2376 72.3662C68.2376 74.5859 68.2376 79.5199 68.2376 79.5199" stroke="black" stroke-linecap="round" stroke-linejoin="round"/>
<path d="M32.96 49.6C32.4295 55.1381 32.7709 55.9168 30.4841 56.746C28.3617 57.5156 21.7848 60.0715 18.635 61.3909C11.3843 64.428 11.5202 70.1748 11.5202 72.3945C11.5202 74.6142 11.5202 79.5199 11.5202 79.5199" stroke="black" stroke-linecap="round" stroke-linejoin="round"/>
<path d="M36.9601 79.6799L32.0368 55.9999L25.6001 61.1199L29.6001 66.5599L26.4001 67.5199L36.9601 79.6799Z" stroke="black" stroke-linecap="round" stroke-linejoin="round"/>
<path d="M43.2001 79.6799L48.1233 55.9999L54.5601 61.1199L50.5601 66.5599L53.7601 67.5199L43.2001 79.6799Z" stroke="black" stroke-linecap="round" stroke-linejoin="round"/>
<path d="M33.2803 60.64C33.2803 60.64 37.6841 62.4652 40.3203 62.4C42.7144 62.3407 46.7203 60.64 46.7203 60.64" stroke="black" stroke-linecap="round" stroke-linejoin="round"/>
<circle cx="56.9602" cy="72.6399" r="2.24" stroke="black" stroke-linecap="round" stroke-linejoin="round"/>
<path d="M27.5198 57.6125C25.9198 57.2925 21.8878 63.1485 21.7598 65.4525" stroke="black" stroke-linecap="round" stroke-linejoin="round"/>
<path d="M56.9599 70.3999C56.9599 66.6666 57.0879 58.9119 54.3999 58.3999" stroke="black" stroke-linecap="round" stroke-linejoin="round"/>
<path d="M19.0399 77.7598H17.9199C17.9199 77.7598 18.2399 72.9599 18.5599 68.4426C18.6748 66.8213 19.9746 65.5999 21.5999 65.5999C23.2253 65.5999 24.5062 66.8228 24.6399 68.4427C24.9599 72.3199 25.2799 76.9285 25.2799 77.7599L24.1601 77.7598" stroke="black" stroke-linecap="round" stroke-linejoin="round"/>
<path d="M55.438 27.9717C55.438 26.8229 56.3692 25.8917 57.518 25.8917V25.8917C58.6667 25.8917 59.598 26.8229 59.598 27.9717V31.6517C59.598 33.9492 57.7355 35.8117 55.438 35.8117V35.8117V27.9717Z" stroke="black" stroke-linecap="round" stroke-linejoin="round"/>
<path d="M24.3979 27.9717C24.3979 26.8229 23.4667 25.8917 22.3179 25.8917V25.8917C21.1692 25.8917 20.2379 26.8229 20.2379 27.9717V31.6517C20.2379 33.9492 22.1004 35.8117 24.3979 35.8117V35.8117V27.9717Z" stroke="black" stroke-linecap="round" stroke-linejoin="round"/>
<path d="M35.6553 38.7227C35.6553 38.7227 36.7567 40.1501 39.9385 40.1501C43.1204 40.1501 44.2201 38.7227 44.2201 38.7227" stroke="black" stroke-linecap="round" stroke-linejoin="round"/>
<path d="M34.5845 29.4441V32.1206M45.2905 29.4441V32.1206" stroke="black" stroke-linecap="round" stroke-linejoin="round"/>
<path d="M43.9204 5.35991C45.0865 3.73275 47.0427 1.98009 49.7249 1.35992C54.7231 0.204193 57.6509 5.32071 60.4804 9.59993C67.9017 20.8234 62.6761 43.213 61.4493 56.4844L58.9515 50.351L56.2582 56.4177L54.5604 48.2221L52.3204 53.2799C52.3204 53.2799 52.3204 47.421 52.3204 45.1199" stroke="black" stroke-linecap="round" stroke-linejoin="round"/>
<path d="M55.6618 26.8516C46.7203 21.92 42.0803 16.64 42.0803 16.64C42.0803 16.64 36.1395 21.3457 31.8403 23.52C28.8871 25.0136 26.2218 26.5316 23.9818 26.6916C23.0218 25.5716 20.9418 26.5316 20.9418 26.5316C20.9418 26.5316 19.262 14.9564 24.4803 10.4C29.6985 5.84349 37.7749 5.87849 41.6003 5.75997C54.0072 5.37555 58.8804 25.92 58.8804 25.92L57.7419 25.5716C56.7566 25.5716 55.6618 26.8516 55.6618 26.8516Z" stroke="black" stroke-linecap="round" stroke-linejoin="round"/>
</svg>
