<svg width="150" height="150" viewBox="0 0 150 150" fill="none" xmlns="http://www.w3.org/2000/svg">
<path d="M22.8011 134.341C22.8011 130.179 22.5463 119.404 36.1413 113.709C42.0473 111.235 44.5134 108.907 53.438 106.875C61.8755 112.5 68.438 127.5 75.938 131.25C83.438 123.401 90.938 113.709 98.438 106.875C111.938 111.176 119.701 113.709 125.701 123.401C129.23 130.552 127.441 145.811 127.501 147.188H22.8011V134.341Z" fill="#9E9E9E"/>
<path d="M106.458 49.9077C89.6931 40.6608 80.9931 30.7608 80.9931 30.7608C80.9931 30.7608 69.8541 39.584 61.7931 43.6608C56.2557 46.4613 51.2583 49.3077 47.0583 49.6077C45.2583 47.5077 41.3583 49.3077 41.3583 49.3077C41.3583 49.3077 38.2087 27.6042 47.993 19.0608C57.7772 10.5174 72.9203 10.5831 80.093 10.3608C103.356 9.64005 112.493 48.1608 112.493 48.1608L110.358 47.5077C108.511 47.5077 106.458 49.9077 106.458 49.9077Z" fill="#9E9E9E"/>
<path d="M95.3267 2.11073C90.2977 3.27356 86.6299 6.55979 84.4434 9.61073L100.193 84.1607V99.4608L104.393 89.9774L107.577 105.344L112.627 93.9691L117.31 105.469C119.61 80.5852 129.408 38.6048 115.493 17.5608C110.188 9.53721 104.698 -0.0562478 95.3267 2.11073Z" fill="#9E9E9E"/>
<path d="M61.875 90.9375C70.875 93.6375 76.3875 94.0125 87.1875 92.8125C87.1875 97.2839 88.125 105.938 96.5625 106.875C96.5625 106.875 81.5625 125.625 75.9375 131.25C70.3125 125.625 60 113.438 55.3125 105.937C61.8746 103.125 61.875 101.25 61.875 90.9375Z" fill="#E0E0E0"/>
<path d="M105.674 51.8956C105.674 49.7417 107.42 47.9956 109.574 47.9956C111.728 47.9956 113.474 49.7417 113.474 51.8956V58.7956C113.474 63.1034 109.982 66.5956 105.674 66.5956V51.8956Z" fill="#E0E0E0"/>
<path d="M47.4766 51.8956C47.4766 49.7417 45.7305 47.9956 43.5766 47.9956C41.4227 47.9956 39.6766 49.7417 39.6766 51.8956V58.7956C39.6766 63.1034 43.1687 66.5956 47.4766 66.5956V51.8956Z" fill="#E0E0E0"/>
<path d="M80.4766 31.2C89.7766 37.2 94.5766 46.2 105.677 49.4999C105.677 50.3184 105.677 57.38 105.677 65.694C105.677 81.7655 92.648 94.7999 76.5766 94.7999C60.5051 94.7999 47.4766 81.7703 47.4766 65.6988C47.4766 59.3606 47.4766 53.3933 47.4766 49.4999C53.4766 49.4999 63.9766 44.0999 80.4766 31.2Z" fill="#E0E0E0"/>
<path d="M61.875 91.875C61.875 93.75 62.3701 99.6334 61.875 101.25C61.875 101.25 60.2296 104.495 56.25 105.937C52.2704 107.38 41.7465 111.424 35.8405 113.898C22.2455 119.593 22.5003 130.368 22.5003 134.53C22.5004 138.692 22.5004 146.39 22.5004 146.39" stroke="black" stroke-width="1.3" stroke-linecap="round" stroke-linejoin="round"/>
<path d="M110.625 133.125H90.9375V136.875H110.625V133.125Z" stroke="black" stroke-width="1.3" stroke-linecap="round" stroke-linejoin="round"/>
<path d="M88.125 93.75C87.7498 99.4599 88.4582 99.4233 89.0634 101.25C89.0634 101.25 90.7089 104.495 94.6884 105.938C98.668 107.38 109.455 111.424 115.361 113.898C128.956 119.593 128.701 130.368 128.701 134.53C128.701 138.692 128.701 146.39 128.701 146.39" stroke="black" stroke-width="1.3" stroke-linecap="round" stroke-linejoin="round"/>
<path d="M54.375 106.875L75.9375 131.25L97.5 106.875" stroke="black" stroke-width="1.3"/>
<path d="M105.939 50.0469C105.939 53.9402 105.939 59.9075 105.939 66.2458C105.939 82.3173 92.9109 95.3469 76.8394 95.3469V95.3469C60.768 95.3469 47.7395 82.3124 47.7395 66.2409C47.7395 57.927 47.7395 50.8653 47.7395 50.0469" stroke="black" stroke-width="1.3" stroke-linecap="round" stroke-linejoin="round"/>
<path d="M105.82 52.4469C105.82 50.293 107.566 48.5469 109.72 48.5469V48.5469C111.874 48.5469 113.62 50.293 113.62 52.4469V59.3469C113.62 63.6547 110.128 67.1469 105.82 67.1469V67.1469V52.4469Z" stroke="black" stroke-width="1.3" stroke-linecap="round" stroke-linejoin="round"/>
<path d="M47.6201 52.4469C47.6201 50.293 45.874 48.5469 43.7201 48.5469V48.5469C41.5662 48.5469 39.8201 50.293 39.8201 52.4469V59.3469C39.8201 63.6547 43.3123 67.1469 47.6201 67.1469V67.1469V52.4469Z" stroke="black" stroke-width="1.3" stroke-linecap="round" stroke-linejoin="round"/>
<path d="M68.7266 72.605C68.7266 72.605 70.7917 75.2815 76.7577 75.2815C82.7237 75.2815 84.7856 72.605 84.7856 72.605" stroke="black" stroke-width="1.3" stroke-linecap="round" stroke-linejoin="round"/>
<path d="M66.7197 55.2076V60.2261M86.7935 55.2076V60.2261" stroke="black" stroke-width="1.3" stroke-linecap="round" stroke-linejoin="round"/>
<path d="M84.2246 10.0498C86.4111 6.99888 90.079 3.71265 95.1079 2.54982C104.48 0.382839 109.969 9.9763 115.275 17.9999C129.19 39.0439 119.392 81.0243 117.091 105.908L112.408 94.4081L107.358 105.783L104.175 90.4165L99.9746 99.8998C99.9746 99.8998 99.9746 88.9143 99.9746 84.5998" stroke="black" stroke-width="1.3" stroke-linecap="round" stroke-linejoin="round"/>
<path d="M106.24 50.3468C89.4744 41.0999 80.7744 31.1999 80.7744 31.1999C80.7744 31.1999 69.6354 40.0231 61.5744 44.0999C56.037 46.9004 51.0396 49.7468 46.8396 50.0468C45.0396 47.9468 41.1396 49.7468 41.1396 49.7468C41.1396 49.7468 37.99 28.0433 47.7742 19.4999C57.5585 10.9565 72.7016 11.0221 79.8742 10.7999C103.137 10.0791 112.274 48.5999 112.274 48.5999L110.14 47.9468C108.292 47.9468 106.24 50.3468 106.24 50.3468Z" stroke="black" stroke-width="1.3" stroke-linecap="round" stroke-linejoin="round"/>
</svg>
