<svg width="150" height="150" viewBox="0 0 150 150" fill="none" xmlns="http://www.w3.org/2000/svg">
<path d="M22.8006 134.341C22.8006 130.179 22.5458 119.404 36.1408 113.709C42.0468 111.235 44.5129 108.907 53.4375 106.875C62.8125 111.562 67.5 115.312 75 119.062C85.3125 113.438 90 110.625 98.4375 106.875C111.938 111.176 119.7 113.709 125.7 123.401C129.229 130.552 127.44 145.811 127.5 147.188H22.8006V134.341Z" fill="#9E9E9E"/>
<path d="M39.375 56.25C39.3751 64.534 42.8125 65.9375 45 65.625C45 71.25 47.8125 77.8125 48.75 82.5C49.3314 85.4071 58.4375 91.5625 62.8125 93.75L60.9375 101.25C59.0625 105 57.1875 105 53.4375 106.875C61.875 111.563 66.5625 114.375 75 119.063C86.25 112.5 92.8125 109.688 97.5 106.875C95 105.313 89.8125 101.813 89.0625 100.313C88.3125 98.8125 88.75 95.3125 89.0625 92.8125C91.25 91.25 95.4375 88.5 98.4375 86.25C101.437 84 104.375 71.5625 105 66.5625C106.875 65.625 103.5 67.125 108.75 65.625C114 64.125 113.125 56.5625 112.5 53.4375C113.125 51.5625 112.5 46.875 108.75 47.8125C105 48.75 104.062 48.75 102.187 48.75C100.312 47.8125 103.412 46.9069 94.6875 45.9375C86.25 45 69.375 44.0625 55.3125 45C46.875 48.75 45.9374 47.8125 42.1875 47.8125C39.3751 47.8125 39.3749 48.75 39.375 56.25Z" fill="#E6E6E6"/>
<path d="M101.25 67.5C68.4376 58.125 52.5001 67.5 48.7501 66.5625C46.5001 69.5625 48.4376 80.3125 49.6876 85.3125C54.0626 89.0625 65.2501 96.5625 75.0001 96.5625C84.7501 96.5625 94.6876 89.0625 98.4376 85.3125C101.25 80.625 102.187 76.875 101.25 67.5Z" fill="white"/>
<path d="M101.88 47.8125C104.303 48.3266 104.894 50.3533 104.941 52.5723C104.73 53.8546 104.626 55.4587 104.672 57.455C104.669 57.6956 104.674 57.9201 104.692 58.125C104.684 57.8969 104.677 57.6736 104.672 57.455C104.689 56.1195 104.978 54.2884 104.941 52.5723C105.561 48.801 107.102 47.8125 108.443 47.8125C108.443 47.8125 109.667 36.4189 107.957 30C105.946 22.4466 101.88 15.9375 97.1935 13.125C92.5068 10.3125 82.1927 7.49995 76.5677 7.5C73.4306 7.50003 66.2756 9.79722 59.6924 11.25C54.4713 12.4022 47.4355 17.8125 44.6585 22.5C41.8815 27.1875 36.5625 46.875 42.1875 47.8125C47.8125 48.75 52.1924 46.875 55.0049 45.9375C57.8174 45 70.9424 41.25 101.88 47.8125Z" fill="#9E9E9E"/>
<path d="M40.0049 74.0625C42.2549 74.0625 41.5674 68.4375 40.9424 65.625L45.6299 66.5625V72.1875C44.6585 76.875 37.1924 74.0625 40.0049 74.0625Z" fill="#9E9E9E"/>
<path d="M110.317 74.0625C106.567 72.1875 107.192 70 107.505 66.5625H104.692L103.755 72.1875C105.278 75 108.443 75.4682 110.317 74.0625Z" fill="#9E9E9E"/>
<path d="M45.0005 51.5625C44.3755 60.3125 46.875 77.8125 50.6248 85.3125M104.817 51.5625C105.442 60.3125 104.817 75 99.3754 84.375" stroke="black" stroke-width="1.3" stroke-linecap="round" stroke-linejoin="round"/>
<path d="M108.751 47.8125C108.751 47.8125 109.974 36.4189 108.265 30C104.322 15.1931 90.1736 7.49987 75 7.5C59.8264 7.50013 44.0625 18.75 41.25 30C39.1406 38.4375 39.375 42.1875 40.3125 47.8125M41.25 65.625C41.875 68.4375 42.5625 74.0625 40.3125 74.0625C37.5 74.0625 44.9661 76.875 45.9375 72.1875M107.812 66.5625C107.5 70 106.875 72.1875 110.625 74.0625C108.75 75.4682 105.586 75 104.062 72.1875" stroke="black" stroke-width="1.3" stroke-linecap="round" stroke-linejoin="round"/>
<path d="M62.8125 93.75C62.8125 95.625 62.3701 99.6334 61.875 101.25C61.875 101.25 60.2296 104.495 56.25 105.937C52.2704 107.38 41.7465 111.424 35.8405 113.898C22.2455 119.593 22.5003 130.368 22.5003 134.53C22.5004 138.692 22.5004 146.39 22.5004 146.39" stroke="black" stroke-width="1.3" stroke-linecap="round" stroke-linejoin="round"/>
<path d="M88.1245 93.75C87.7493 99.4599 88.4578 99.4233 89.0629 101.25C89.0629 101.25 90.7084 104.495 94.6879 105.938C98.6675 107.38 109.454 111.424 115.36 113.898C128.955 119.593 128.7 130.368 128.7 134.53C128.7 138.692 128.7 146.39 128.7 146.39" stroke="black" stroke-width="1.3" stroke-linecap="round" stroke-linejoin="round"/>
<path d="M105 51.5625C105 49.4914 106.679 47.8125 108.75 47.8125V47.8125C110.821 47.8125 112.5 49.4914 112.5 51.5625V59.0625C112.5 63.2046 109.142 66.5625 105 66.5625V66.5625V51.5625Z" stroke="black" stroke-width="1.3" stroke-linecap="round" stroke-linejoin="round"/>
<path d="M45 50.625C45 49.0717 43.7408 47.8125 42.1875 47.8125V47.8125C40.6342 47.8125 39.375 49.0717 39.375 50.625V60.9375C39.375 64.0441 41.8934 66.5625 45 66.5625V66.5625V50.625Z" stroke="black" stroke-width="1.3" stroke-linecap="round" stroke-linejoin="round"/>
<path d="M48.75 66.5625C54.0625 65.625 66.1884 63.75 75.9384 63.75C85.6884 63.75 97.5009 66.25 102.188 67.5M48.75 66.5625C48 73.3125 48.7509 81.25 49.6884 84.375C51.5633 87.1875 57.1883 90.9375 60.9384 92.8125C61.7769 93.2318 67.5009 96.5625 75.0009 96.5625C82.5009 96.5625 86.2506 94.3751 88.1258 93.75C90.9381 92.8125 98.4384 87.1875 99.3759 84.375C100.126 82.125 101.563 72.1875 102.188 67.5M48.75 66.5625C48.75 65.0625 45.625 54.0625 44.0625 48.75M102.188 67.5L105.001 49.6875M56.2508 69.375C57.1883 69.375 78.7508 66.5625 95.6258 70.3125" stroke="black" stroke-width="1.3" stroke-linecap="round" stroke-linejoin="round"/>
<path d="M45 48.75C50.3125 46.875 63.75 43.3125 75 44.0625C89.0625 45 105 46.875 105 50.625" stroke="black" stroke-width="1.3"/>
<path d="M54.375 106.875L75 119.062L97.5 106.875" stroke="black" stroke-width="1.3"/>
<path d="M65.7461 56.3978V59.3152M85.8198 56.3978V59.3152" stroke="black" stroke-width="1.3" stroke-linecap="round" stroke-linejoin="round"/>
</svg>
