<svg width="130" height="34" viewBox="0 0 130 34" fill="none" xmlns="http://www.w3.org/2000/svg">
<path d="M55.9125 8.40907C52.9829 7.48775 50.2568 6.60542 50.2568 4.72328C50.2568 4.46074 50.3131 4.21281 50.4144 3.98438C48.5014 7.59385 54.5765 10.0536 54.5765 10.0536C54.5765 10.0536 61.2688 12.653 58.9731 16.1163C58.3603 17.6807 56.0689 18.5046 53.4782 18.5398C50.3548 18.621 48.8018 18.2983 46.3697 16.9385L46.1899 19.6608C48.8667 20.3017 51.4937 20.581 54.0271 20.581C58.5389 20.6216 63.6993 18.8191 63.6993 14.6136C63.6993 10.891 59.6313 9.60916 55.9125 8.40907Z" fill="white"/>
<path d="M54.577 10.0527C54.577 10.0527 48.5018 7.59245 50.4143 3.9846C50.9978 2.64268 53.156 1.89838 55.3142 2.00177C59.6323 2.16092 61.515 3.32149 63.0545 4.28449C63.0545 3.48064 63.1535 2.80075 62.9549 1.71975C60.3761 0.398949 58.5908 0 54.8195 0C50.0602 0 45.7422 2.00123 45.7422 5.36386C45.7422 9.32735 49.8085 10.5291 53.5793 11.6501C56.4553 12.4908 59.1365 13.2903 59.1365 15.2542C59.1365 15.5617 59.0791 15.8486 58.9735 16.1149C61.2692 12.6516 54.577 10.0527 54.577 10.0527Z" fill="white"/>
<path d="M34.2655 0.375977C27.8082 0.375977 24.1765 4.4499 24.1765 10.9879V20.3488H28.8172V9.73744C28.8172 4.32918 31.1178 2.71499 34.4663 2.75559C37.8154 2.7951 39.5882 4.3687 39.5882 9.73744V20.3488H44.2311V10.9879C44.2311 4.44936 41.4471 0.375977 34.2655 0.375977Z" fill="white"/>
<path d="M75.7617 0.286133C79.3046 0.286133 82.0567 1.29461 83.8928 3.27148C85.5552 1.41424 88.1827 0.286133 92.0238 0.286133C98.8552 0.286133 102.636 3.65851 102.636 10.8564V20.3407H97.7222L97.7233 9.62595C97.7233 4.21877 95.5689 2.62353 92.0255 2.66413C88.5248 2.66413 86.3249 4.34003 86.3249 9.62595V20.3407H81.4385V9.62595C81.4385 4.21877 79.3025 2.62461 75.759 2.66413C72.2161 2.70581 70.0606 4.25883 70.0606 9.62595L70.0595 20.3407H65.1504V10.8564C65.1509 3.65851 68.9704 0.286133 75.7617 0.286133Z" fill="white"/>
<path d="M14.0617 0.672162H4.10315L3.72045 4.33956L3.72856 4.34227H14.7508C16.9767 4.34227 16.9799 6.06743 16.9799 6.49182V6.78196L16.9777 6.77222H7.17836C3.66902 6.85504 1.07072 7.99288 0.17485 11.6765C0.0644218 12.154 0 12.9405 0 13.4607C0 13.9787 0.063337 14.7111 0.172682 15.1956C0.838497 18.4797 3.43842 20.3456 7.17781 20.3456H15.5081C17.2619 20.3456 18.3938 20.0041 19.8223 18.9718C21.0219 18.1035 21.5719 16.7703 21.5719 15.3867V5.70475C21.5729 2.1743 19.1933 0.647803 14.0617 0.672162ZM16.9783 14.1276C16.9783 14.5504 16.975 16.6555 14.7492 16.6555H6.28465C4.57626 16.6555 2.9848 15.4062 2.9848 13.4412C2.9848 11.4968 4.57627 10.4299 6.24513 10.4299L16.9783 10.4407V14.1276Z" fill="white"/>
<path d="M27.5816 24.4307H28.098L29.5514 27.8696H29.015L28.6648 27.003H26.9791L26.6294 27.8696H26.113L27.5816 24.4307ZM27.8225 24.8935L27.1377 26.5975H28.5067L27.8225 24.8935Z" fill="white"/>
<path d="M32.2291 27.7607C32.2291 28.5251 31.835 28.963 30.9326 28.963C30.6668 28.963 30.4357 28.9283 30.0313 28.7914L30.08 28.361C30.4357 28.5251 30.6468 28.5889 30.9873 28.5889C31.475 28.5889 31.7657 28.2593 31.7657 27.7266V27.4814H31.7554C31.5589 27.7418 31.2341 27.869 30.9126 27.869C30.1932 27.869 29.8386 27.2822 29.8386 26.6321C29.8386 25.9874 30.2029 25.2988 30.9618 25.2988C31.4052 25.2988 31.6515 25.4607 31.7901 25.7308H31.7998V25.3562H32.2291V27.7607ZM31.7657 26.6413C31.7657 26.1205 31.5243 25.6723 31.0317 25.6723C30.5629 25.6723 30.3323 26.1779 30.3323 26.6083C30.3323 27.0808 30.5981 27.4939 31.0317 27.4939C31.4653 27.4944 31.7657 27.1101 31.7657 26.6413Z" fill="white"/>
<path d="M34.9456 27.7647C34.7686 27.8302 34.5661 27.9288 34.152 27.9288C33.261 27.9288 32.8518 27.3864 32.8518 26.5684C32.8518 25.8252 33.3195 25.2969 34.0286 25.2969C34.8665 25.2969 35.1383 25.9086 35.1383 26.7173H33.3449C33.3449 27.2153 33.7341 27.5547 34.1715 27.5547C34.4768 27.5547 34.8324 27.3966 34.9456 27.3019V27.7647ZM34.6451 26.3714C34.6451 25.9876 34.4178 25.6709 34.0199 25.6709C33.5663 25.6709 33.3785 26.0455 33.3449 26.3714H34.6451Z" fill="white"/>
<path d="M35.7595 25.3564H36.2083V25.7559H36.218C36.3566 25.4701 36.6906 25.2969 37.0408 25.2969C37.6915 25.2969 37.9816 25.7018 37.9816 26.3757V27.8692H37.5177V26.5684C37.5177 25.9816 37.3894 25.6964 36.9867 25.6709C36.4589 25.6709 36.2224 26.0953 36.2224 26.7054V27.8692H35.7595V25.3564Z" fill="white"/>
<path d="M40.3683 25.7808C40.1908 25.7056 40.0138 25.6709 39.8655 25.6709C39.3485 25.6709 39.0584 26.1338 39.0584 26.6128C39.0584 27.0605 39.2998 27.5547 39.8947 27.5547C40.0533 27.5547 40.2498 27.5044 40.3932 27.4096L40.4274 27.8243C40.2352 27.9131 40.0138 27.9288 39.8454 27.9288C39.0865 27.9288 38.5647 27.3322 38.5647 26.6128C38.5647 25.8485 39.0768 25.2969 39.8454 25.2969C40.0333 25.2969 40.2742 25.3413 40.4073 25.3954L40.3683 25.7808Z" fill="white"/>
<path d="M42.8873 27.7647C42.7103 27.8302 42.5084 27.9288 42.0937 27.9288C41.2027 27.9288 40.7935 27.3864 40.7935 26.5684C40.7935 25.8252 41.2612 25.2969 41.9697 25.2969C42.8077 25.2969 43.0795 25.9086 43.0795 26.7173H41.2861C41.2861 27.2153 41.6758 27.5547 42.1132 27.5547C42.4185 27.5547 42.7747 27.3966 42.8873 27.3019V27.7647ZM42.5863 26.3714C42.5863 25.9876 42.359 25.6709 41.9611 25.6709C41.5075 25.6709 41.3202 26.0455 41.2861 26.3714H42.5863Z" fill="white"/>
<path d="M45.072 25.3564H45.5208V25.7559H45.5311C45.668 25.4701 46.0036 25.2969 46.3533 25.2969C47.004 25.2969 47.2946 25.7018 47.2946 26.3757V27.8692H46.8318V26.5684C46.8318 25.9816 46.7035 25.6964 46.3003 25.6709C45.7725 25.6709 45.5354 26.0953 45.5354 26.7054V27.8692H45.0726V25.3564H45.072Z" fill="white"/>
<path d="M48.2028 25.5343C48.434 25.3952 48.7095 25.2988 49.0305 25.2988C49.7499 25.2988 50.0401 25.6518 50.0401 26.3371V27.3775C50.0401 27.6633 50.0503 27.7959 50.0601 27.8695H49.6265V27.5453H49.6167C49.5074 27.6979 49.2616 27.9291 48.8383 27.9291C48.2965 27.9291 47.917 27.6914 47.917 27.1458C47.917 26.5146 48.6061 26.3176 49.0841 26.3176C49.267 26.3176 49.3953 26.3176 49.5772 26.3273C49.5772 25.8932 49.4192 25.6729 48.9563 25.6729C48.696 25.6729 48.4139 25.7714 48.2272 25.9278L48.2028 25.5343ZM49.5772 26.6727C49.4782 26.6727 49.3797 26.6629 49.2817 26.6629C49.031 26.6629 48.4096 26.7014 48.4096 27.1452C48.4096 27.4116 48.6662 27.5523 48.8784 27.5523C49.3363 27.5523 49.5778 27.267 49.5778 26.8924V26.6727H49.5772Z" fill="white"/>
<path d="M52.1606 25.7317H51.4959V27.1077C51.4959 27.3973 51.6723 27.5553 51.8845 27.5553C52.028 27.5553 52.1303 27.5109 52.2001 27.4666V27.8601C52.0962 27.8893 51.9538 27.9299 51.806 27.9299C51.3286 27.9299 51.032 27.702 51.032 27.2002V25.7317H50.4663V25.3571H51.032V24.7762L51.4959 24.6279V25.3571H52.1606V25.7317Z" fill="white"/>
<path d="M53.2946 24.7952H52.7722V24.2744H53.2946V24.7952ZM52.8025 25.3565H53.2659V27.8693H52.8025V25.3565Z" fill="white"/>
<path d="M55.2268 25.2969C55.9906 25.2969 56.5033 25.8506 56.5033 26.6128C56.5033 27.3328 55.9809 27.9288 55.2268 27.9288C54.4679 27.9288 53.9456 27.3322 53.9456 26.6128C53.945 25.8506 54.4582 25.2969 55.2268 25.2969ZM55.2268 27.5547C55.7687 27.5547 56.0101 27.0605 56.0101 26.6128C56.0101 26.1343 55.72 25.6709 55.2268 25.6709C54.7288 25.6709 54.4387 26.1338 54.4387 26.6128C54.4382 27.0605 54.6796 27.5547 55.2268 27.5547Z" fill="white"/>
<path d="M57.1255 25.3564H57.5737V25.7559H57.584C57.7209 25.4701 58.056 25.2969 58.4062 25.2969C59.0569 25.2969 59.3476 25.7018 59.3476 26.3757V27.8692H58.8842V26.5684C58.8842 25.9816 58.7559 25.6964 58.3526 25.6709C57.8254 25.6709 57.5883 26.0953 57.5883 26.7054V27.8692H57.126V25.3564H57.1255Z" fill="white"/>
<path d="M60.2555 25.5343C60.4867 25.3952 60.7627 25.2988 61.0837 25.2988C61.8031 25.2988 62.0933 25.6518 62.0933 26.3371V27.3775C62.0933 27.6633 62.1036 27.7959 62.1133 27.8695H61.6792V27.5453H61.6694C61.5601 27.6979 61.3143 27.9291 60.8905 27.9291C60.3492 27.9291 59.9697 27.6914 59.9697 27.1458C59.9697 26.5146 60.6594 26.3176 61.1368 26.3176C61.3198 26.3176 61.448 26.3176 61.6299 26.3273C61.6299 25.8932 61.4713 25.6729 61.0096 25.6729C60.7487 25.6729 60.4667 25.7714 60.2799 25.9278L60.2555 25.5343ZM61.6299 26.6727C61.5309 26.6727 61.4318 26.6629 61.3344 26.6629C61.0837 26.6629 60.4623 26.7014 60.4623 27.1452C60.4623 27.4116 60.7189 27.5523 60.9306 27.5523C61.3891 27.5523 61.6305 27.267 61.6305 26.8924V26.6727H61.6299Z" fill="white"/>
<path d="M63.4012 24.1738H62.9373V27.8694H63.4012V24.1738Z" fill="white"/>
<path d="M66.1748 27.7647C65.9978 27.8302 65.7954 27.9288 65.3818 27.9288C64.4908 27.9288 64.0815 27.3864 64.0815 26.5684C64.0815 25.8252 64.5482 25.2969 65.2578 25.2969C66.0958 25.2969 66.367 25.9086 66.367 26.7173H64.5742C64.5742 27.2153 64.9628 27.5547 65.4013 27.5547C65.7066 27.5547 66.0623 27.3966 66.1748 27.3019V27.7647ZM65.8744 26.3714C65.8744 25.9876 65.6471 25.6709 65.2486 25.6709C64.795 25.6709 64.6077 26.0455 64.5742 26.3714H65.8744Z" fill="white"/>
<path d="M70.1379 27.5143H70.1282C70.0048 27.7032 69.7195 27.9289 69.2712 27.9289C68.5118 27.9289 68.1924 27.2534 68.1924 26.5686C68.1924 25.8952 68.5475 25.2971 69.275 25.2971C69.7151 25.2971 69.9663 25.4708 70.1087 25.702H70.1184V24.1738H70.5813V27.8694H70.1374V27.5143H70.1379ZM69.3795 27.5549C69.9024 27.5549 70.119 27.0358 70.119 26.6168C70.119 26.1496 69.8775 25.6711 69.3747 25.6711C68.8718 25.6711 68.6753 26.1458 68.685 26.6033C68.6753 26.9968 68.882 27.5549 69.3795 27.5549Z" fill="white"/>
<path d="M73.2989 27.7647C73.1213 27.8302 72.9189 27.9288 72.5048 27.9288C71.6143 27.9288 71.2051 27.3864 71.2051 26.5684C71.2051 25.8252 71.6722 25.2969 72.3813 25.2969C73.2198 25.2969 73.491 25.9086 73.491 26.7173H71.6971C71.6971 27.2153 72.0869 27.5547 72.5248 27.5547C72.8295 27.5547 73.1852 27.3966 73.2989 27.3019V27.7647ZM72.9979 26.3714C72.9979 25.9876 72.7705 25.6709 72.3727 25.6709C71.9191 25.6709 71.7312 26.0455 71.6971 26.3714H72.9979Z" fill="white"/>
<path d="M75.2966 27.3775C75.4779 27.4955 75.7405 27.555 75.8726 27.555C76.0848 27.555 76.3462 27.4662 76.3462 27.1961C76.3462 26.7371 75.2571 26.7777 75.2571 26.0707C75.2571 25.55 75.6458 25.2988 76.1438 25.2988C76.3597 25.2988 76.5384 25.3411 76.7208 25.3952L76.6802 25.8006C76.5768 25.7368 76.3007 25.6734 76.1941 25.6734C75.9565 25.6734 75.7502 25.7703 75.7502 25.9782C75.7502 26.4897 76.8388 26.343 76.8388 27.1458C76.8388 27.6822 76.4106 27.9291 75.9619 27.9291C75.7253 27.9291 75.4844 27.9042 75.2717 27.7899L75.2966 27.3775Z" fill="white"/>
<path d="M79.328 27.7645C79.1504 27.83 78.949 27.9285 78.5349 27.9285C77.6423 27.9285 77.2341 27.3861 77.2341 26.5682C77.2341 25.825 77.7013 25.2967 78.4115 25.2967C79.2489 25.2967 79.5201 25.9084 79.5201 26.7171H77.7262C77.7262 27.2151 78.1159 27.5545 78.5544 27.5545C78.8603 27.5545 79.2143 27.3959 79.328 27.3033V27.7645ZM79.0281 26.3712C79.0281 25.9874 78.8013 25.6707 78.4018 25.6707C77.9481 25.6707 77.7608 26.0453 77.7262 26.3712H79.0281ZM78.4905 24.2969H79.0281L78.3817 25.0071H78.0515L78.4905 24.2969Z" fill="white"/>
<path d="M81.7382 25.7808C81.5607 25.7056 81.3842 25.6709 81.2353 25.6709C80.7189 25.6709 80.4277 26.1338 80.4277 26.6128C80.4277 27.0605 80.6691 27.5547 81.2651 27.5547C81.4237 27.5547 81.6202 27.5044 81.7631 27.4096L81.7978 27.8243C81.6045 27.9131 81.3842 27.9288 81.2148 27.9288C80.4564 27.9288 79.9351 27.3322 79.9351 26.6128C79.9351 25.8485 80.4466 25.2969 81.2148 25.2969C81.4037 25.2969 81.644 25.3413 81.7783 25.3954L81.7382 25.7808Z" fill="white"/>
<path d="M84.5524 27.8692H84.1037V27.4697H84.094C83.957 27.7555 83.6214 27.9288 83.2717 27.9288C82.6211 27.9288 82.3298 27.5233 82.3298 26.8499V25.3564H82.7926V26.6572C82.7926 27.244 82.922 27.5293 83.3253 27.5547C83.852 27.5547 84.0886 27.1303 84.0886 26.5203V25.3564H84.5514V27.8692H84.5524Z" fill="white"/>
<path d="M85.3431 25.3564H85.7772V25.7462H85.7869C85.9104 25.4858 86.1756 25.2969 86.4408 25.2969C86.58 25.2969 86.6492 25.3126 86.7467 25.3315V25.7462C86.6628 25.7115 86.5702 25.7018 86.4912 25.7018C86.0765 25.7018 85.8059 26.0953 85.8059 26.7265V27.8692H85.3425V25.3564H85.3431Z" fill="white"/>
<path d="M87.8125 24.7952H87.29V24.2744H87.8125V24.7952ZM87.3204 25.3565H87.7838V27.8693H87.3204V25.3565Z" fill="white"/>
<path d="M89.9667 25.7317H89.3008V27.1077C89.3008 27.3973 89.4784 27.5553 89.6906 27.5553C89.8335 27.5553 89.9358 27.5109 90.0051 27.4666V27.8601C89.9017 27.8893 89.7599 27.9299 89.6116 27.9299C89.1341 27.9299 88.838 27.702 88.838 27.2002V25.7317H88.2717V25.3571H88.838V24.7762L89.3008 24.6279V25.3571H89.9667V25.7317Z" fill="white"/>
<path d="M92.4758 27.7645C92.2982 27.83 92.0958 27.9285 91.6827 27.9285C90.7901 27.9285 90.3809 27.3861 90.3809 26.5682C90.3809 25.825 90.8486 25.2967 91.5593 25.2967C92.3967 25.2967 92.6669 25.9084 92.6669 26.7171H90.874C90.874 27.2151 91.2638 27.5545 91.7017 27.5545C92.0064 27.5545 92.3616 27.3959 92.4758 27.3033V27.7645ZM92.1743 26.3712C92.1743 25.9874 91.9474 25.6707 91.549 25.6707C91.0954 25.6707 90.9081 26.0453 90.8735 26.3712H92.1743ZM91.6378 24.2969H92.1743L91.5285 25.0071H91.1988L91.6378 24.2969Z" fill="white"/>
<path d="M96.4393 27.5143H96.4284C96.305 27.7032 96.0198 27.9289 95.571 27.9289C94.8126 27.9289 94.4922 27.2534 94.4922 26.5686C94.4922 25.8952 94.8473 25.2971 95.577 25.2971C96.0149 25.2971 96.2671 25.4708 96.4089 25.702H96.4198V24.1738H96.8826V27.8694H96.4398V27.5143H96.4393ZM95.6798 27.5549C96.2016 27.5549 96.4192 27.0358 96.4192 26.6168C96.4192 26.1496 96.1778 25.6711 95.6755 25.6711C95.1721 25.6711 94.9756 26.1458 94.9853 26.6033C94.9756 26.9968 95.1823 27.5549 95.6798 27.5549Z" fill="white"/>
<path d="M99.8941 27.8692H99.4465V27.4697H99.4367C99.2976 27.7555 98.9642 27.9288 98.6145 27.9288C97.9622 27.9288 97.6726 27.5233 97.6726 26.8499V25.3564H98.136V26.6572C98.136 27.244 98.2642 27.5293 98.6675 27.5547C99.1953 27.5547 99.4308 27.1303 99.4308 26.5203V25.3564H99.8936V27.8692H99.8941Z" fill="white"/>
<path d="M102.049 25.3564H102.483V25.7213H102.493C102.67 25.43 102.921 25.2969 103.292 25.2969C103.582 25.2969 103.873 25.4452 104.006 25.7851C104.178 25.4262 104.557 25.2969 104.784 25.2969C105.425 25.2969 105.656 25.7115 105.656 26.2577V27.8692H105.193V26.3719C105.193 26.0612 105.12 25.6715 104.745 25.6715C104.271 25.6715 104.085 26.1348 104.085 26.6036V27.8697H103.622V26.3725C103.622 26.0618 103.547 25.672 103.173 25.672C102.7 25.672 102.513 26.1354 102.513 26.6042V27.8703H102.049V25.3564Z" fill="white"/>
<path d="M108.363 27.7645C108.186 27.83 107.984 27.9285 107.57 27.9285C106.677 27.9285 106.269 27.3861 106.269 26.5682C106.269 25.825 106.736 25.2967 107.447 25.2967C108.284 25.2967 108.555 25.9084 108.555 26.7171H106.761C106.761 27.2151 107.151 27.5545 107.589 27.5545C107.895 27.5545 108.249 27.3959 108.363 27.3033V27.7645ZM108.063 26.3712C108.063 25.9874 107.836 25.6707 107.437 25.6707C106.983 25.6707 106.796 26.0453 106.761 26.3712H108.063ZM107.526 24.2969H108.063L107.417 25.0071H107.087L107.526 24.2969Z" fill="white"/>
<path d="M110.957 27.5143H110.948C110.824 27.7032 110.539 27.9289 110.09 27.9289C109.331 27.9289 109.01 27.2534 109.01 26.5686C109.01 25.8952 109.365 25.2971 110.095 25.2971C110.533 25.2971 110.784 25.4708 110.928 25.702H110.938V24.1738H111.401V27.8694H110.957V27.5143ZM110.199 27.5549C110.72 27.5549 110.938 27.0358 110.938 26.6168C110.938 26.1496 110.697 25.6711 110.194 25.6711C109.691 25.6711 109.495 26.1458 109.504 26.6033C109.495 26.9968 109.701 27.5549 110.199 27.5549Z" fill="white"/>
<path d="M112.742 24.7952H112.219V24.2744H112.742V24.7952ZM112.25 25.3565H112.713V27.8693H112.25V25.3565Z" fill="white"/>
<path d="M115.156 25.7808C114.981 25.7056 114.802 25.6709 114.654 25.6709C114.138 25.6709 113.846 26.1338 113.846 26.6128C113.846 27.0605 114.087 27.5547 114.684 27.5547C114.842 27.5547 115.038 27.5044 115.181 27.4096L115.216 27.8243C115.025 27.9131 114.802 27.9288 114.635 27.9288C113.877 27.9288 113.354 27.3322 113.354 26.6128C113.354 25.8485 113.866 25.2969 114.635 25.2969C114.822 25.2969 115.063 25.3413 115.197 25.3954L115.156 25.7808Z" fill="white"/>
<path d="M115.869 25.5343C116.099 25.3952 116.374 25.2988 116.695 25.2988C117.416 25.2988 117.706 25.6518 117.706 26.3371V27.3775C117.706 27.6633 117.716 27.7959 117.726 27.8695H117.292V27.5453H117.283C117.173 27.6979 116.928 27.9291 116.504 27.9291C115.962 27.9291 115.583 27.6914 115.583 27.1458C115.583 26.5146 116.273 26.3176 116.751 26.3176C116.932 26.3176 117.062 26.3176 117.243 26.3273C117.243 25.8932 117.086 25.6729 116.622 25.6729C116.361 25.6729 116.082 25.7714 115.893 25.9278L115.869 25.5343ZM117.243 26.6727C117.144 26.6727 117.046 26.6629 116.948 26.6629C116.695 26.6629 116.075 26.7014 116.075 27.1452C116.075 27.4116 116.332 27.5523 116.543 27.5523C117.001 27.5523 117.243 27.267 117.243 26.8924V26.6727Z" fill="white"/>
<path d="M118.485 25.3564H118.919V25.7213H118.929C119.107 25.43 119.357 25.2969 119.728 25.2969C120.018 25.2969 120.309 25.4452 120.442 25.7851C120.614 25.4262 120.993 25.2969 121.22 25.2969C121.861 25.2969 122.092 25.7115 122.092 26.2577V27.8692H121.629V26.3719C121.629 26.0612 121.556 25.6715 121.181 25.6715C120.707 25.6715 120.521 26.1348 120.521 26.6036V27.8697H120.058V26.3725C120.058 26.0618 119.983 25.672 119.608 25.672C119.136 25.672 118.948 26.1354 118.948 26.6042V27.8703H118.485V25.3564Z" fill="white"/>
<path d="M124.8 27.7647C124.622 27.8302 124.42 27.9288 124.007 27.9288C123.115 27.9288 122.706 27.3864 122.706 26.5684C122.706 25.8252 123.173 25.2969 123.883 25.2969C124.721 25.2969 124.991 25.9086 124.991 26.7173H123.199C123.199 27.2153 123.588 27.5547 124.026 27.5547C124.331 27.5547 124.687 27.3966 124.8 27.3019V27.7647ZM124.499 26.3714C124.499 25.9876 124.273 25.6709 123.874 25.6709C123.42 25.6709 123.233 26.0455 123.199 26.3714H124.499Z" fill="white"/>
<path d="M125.614 25.3564H126.063V25.7559H126.073C126.21 25.4701 126.545 25.2969 126.896 25.2969C127.546 25.2969 127.836 25.7018 127.836 26.3757V27.8692H127.373V26.5684C127.373 25.9816 127.246 25.6964 126.841 25.6709C126.314 25.6709 126.077 26.0953 126.077 26.7054V27.8692H125.614V25.3564H125.614Z" fill="white"/>
<path d="M129.961 25.7317H129.295V27.1077C129.295 27.3973 129.473 27.5553 129.685 27.5553C129.828 27.5553 129.931 27.5109 130 27.4666V27.8601C129.896 27.8893 129.754 27.9299 129.606 27.9299C129.128 27.9299 128.833 27.702 128.833 27.2002V25.7317H128.265V25.3571H128.833V24.7762L129.295 24.6279V25.3571H129.961V25.7317Z" fill="white"/>
<path d="M28.374 32.8331C28.1976 32.897 27.9951 32.9955 27.581 32.9955C26.69 32.9955 26.2808 32.4531 26.2808 31.6368C26.2808 30.8898 26.7479 30.3652 27.4576 30.3652C28.2955 30.3652 28.5673 30.9748 28.5673 31.7835H26.7739C26.7739 32.2793 27.1631 32.6209 27.601 32.6209C27.9063 32.6209 28.262 32.4628 28.3746 32.3681V32.8331H28.374ZM28.0741 31.4376C28.0741 31.0538 27.8468 30.7387 27.4484 30.7387C26.9948 30.7387 26.8075 31.1133 26.7739 31.4376H28.0741Z" fill="white"/>
<path d="M30.5234 30.7971H29.8587V32.1731C29.8587 32.4627 30.0357 32.6208 30.2479 32.6208C30.3913 32.6208 30.4942 32.5764 30.5629 32.532V32.9255C30.4595 32.9548 30.3172 32.9954 30.1688 32.9954C29.692 32.9954 29.3948 32.7696 29.3948 32.2657V30.7971H28.8291V30.4225H29.3948V29.8417L29.8587 29.6934V30.4225H30.5234V30.7971Z" fill="white"/>
<path d="M34.2556 32.5797H34.2459C34.1225 32.7686 33.8367 32.9943 33.3879 32.9943C32.629 32.9943 32.3091 32.3188 32.3091 31.634C32.3091 30.9606 32.6647 30.3625 33.3928 30.3625C33.8318 30.3625 34.0835 30.5362 34.2259 30.7674H34.2356V29.2393H34.6995V32.9348H34.2556V32.5797ZM33.4967 32.6197C34.0196 32.6197 34.2361 32.1028 34.2361 31.6822C34.2361 31.215 33.9947 30.7365 33.4924 30.7365C32.9895 30.7365 32.7925 31.2112 32.8028 31.6687C32.7925 32.0622 32.9993 32.6197 33.4967 32.6197Z" fill="white"/>
<path d="M37.4148 32.8331C37.2383 32.897 37.0353 32.9955 36.6218 32.9955C35.7308 32.9955 35.3215 32.4531 35.3215 31.6368C35.3215 30.8898 35.7881 30.3652 36.4984 30.3652C37.3363 30.3652 37.6081 30.9748 37.6081 31.7835H35.8152C35.8152 32.2793 36.2044 32.6209 36.6418 32.6209C36.9471 32.6209 37.3028 32.4628 37.4153 32.3681V32.8331H37.4148ZM37.1149 31.4376C37.1149 31.0538 36.8876 30.7387 36.4892 30.7387C36.0361 30.7387 35.8482 31.1133 35.8147 31.4376H37.1149Z" fill="white"/>
<path d="M38.0422 32.4429C38.2241 32.5609 38.4861 32.6205 38.6182 32.6205C38.8309 32.6205 39.0913 32.5317 39.0913 32.2616C39.0913 31.8025 38.0027 31.8431 38.0027 31.1362C38.0027 30.6154 38.3913 30.3643 38.8899 30.3643C39.1059 30.3643 39.284 30.4065 39.4658 30.4606L39.4263 30.8661C39.3229 30.8022 39.0463 30.7388 38.9391 30.7388C38.7021 30.7388 38.4958 30.8357 38.4958 31.0436C38.4958 31.5552 39.5844 31.4084 39.5844 32.2112C39.5844 32.7477 39.1562 32.9945 38.7075 32.9945C38.4709 32.9945 38.2306 32.9696 38.0173 32.8554L38.0422 32.4429Z" fill="white"/>
<path d="M41.5186 30.4228H41.9619V30.7779H41.9722C42.0956 30.5906 42.3814 30.3633 42.8247 30.3633C43.5544 30.3633 43.909 30.9598 43.909 31.6348C43.909 32.3255 43.5885 32.9951 42.8301 32.9951C42.3863 32.9951 42.1356 32.8214 41.9922 32.5919H41.9819V33.9695H41.5186V30.4228ZM42.7257 30.7395C42.2223 30.7395 41.9814 31.2164 41.9814 31.6852C41.9814 32.1041 42.1979 32.6211 42.7203 32.6211C43.2188 32.6211 43.425 32.0652 43.4153 31.67C43.4256 31.2158 43.2275 30.7395 42.7257 30.7395Z" fill="white"/>
<path d="M44.53 30.4228H44.9642V30.8126H44.9739C45.0973 30.5522 45.3631 30.3633 45.6289 30.3633C45.7675 30.3633 45.8362 30.379 45.9342 30.3979V30.8126C45.8503 30.7779 45.7572 30.7682 45.6781 30.7682C45.264 30.7682 44.9934 31.1617 44.9934 31.7929V32.9356H44.53V30.4228Z" fill="white"/>
<path d="M47.5614 30.3633C48.3252 30.3633 48.8383 30.917 48.8383 31.6792C48.8383 32.3992 48.3154 32.9951 47.5614 32.9951C46.8025 32.9951 46.2795 32.3986 46.2795 31.6792C46.2795 30.917 46.7927 30.3633 47.5614 30.3633ZM47.5614 32.6206C48.1027 32.6206 48.3452 32.1269 48.3452 31.6792C48.3452 31.2029 48.054 30.7373 47.5614 30.7373C47.0634 30.7373 46.7727 31.2023 46.7727 31.6792C46.7727 32.1269 47.0141 32.6206 47.5614 32.6206Z" fill="white"/>
<path d="M51.2386 32.5797H51.2288C51.1054 32.7686 50.8196 32.9943 50.3708 32.9943C49.6119 32.9943 49.292 32.3188 49.292 31.634C49.292 30.9606 49.6476 30.3625 50.3757 30.3625C50.8147 30.3625 51.0664 30.5362 51.2088 30.7674H51.2185V29.2393H51.6824V32.9348H51.2386V32.5797ZM50.4796 32.6197C51.0026 32.6197 51.2185 32.1028 51.2185 31.6822C51.2185 31.215 50.9782 30.7365 50.4748 30.7365C49.9719 30.7365 49.7754 31.2112 49.7851 31.6687C49.7748 32.0622 49.9816 32.6197 50.4796 32.6197Z" fill="white"/>
<path d="M54.6941 32.9346H54.2453V32.5352H54.235C54.0981 32.821 53.7625 32.9942 53.4128 32.9942C52.7621 32.9942 52.4714 32.5909 52.4714 31.9154V30.4219H52.9343V31.7226C52.9343 32.3094 53.0625 32.5947 53.4658 32.6201C53.9936 32.6201 54.2296 32.1958 54.2296 31.5857V30.4219H54.6935V32.9346H54.6941Z" fill="white"/>
<path d="M56.0355 29.8608H55.5137V29.3379H56.0355V29.8608ZM55.5434 30.4221H56.0068V32.9349H55.5434V30.4221Z" fill="white"/>
<path d="M58.1897 30.7971H57.5249V32.1731C57.5249 32.4627 57.702 32.6208 57.9141 32.6208C58.0576 32.6208 58.1604 32.5764 58.2292 32.532V32.9255C58.1258 32.9548 57.9834 32.9954 57.8351 32.9954C57.3582 32.9954 57.061 32.7696 57.061 32.2657V30.7971H56.4954V30.4225H57.061V29.8417L57.5249 29.6934V30.4225H58.1897V30.7971Z" fill="white"/>
<path d="M58.5849 32.4429C58.7668 32.5609 59.0288 32.6205 59.1609 32.6205C59.3736 32.6205 59.634 32.5317 59.634 32.2616C59.634 31.8025 58.5454 31.8431 58.5454 31.1362C58.5454 30.6154 58.9346 30.3643 59.4332 30.3643C59.6491 30.3643 59.8272 30.4065 60.0091 30.4606L59.9696 30.8661C59.8662 30.8022 59.5896 30.7388 59.4824 30.7388C59.2448 30.7388 59.0386 30.8357 59.0386 31.0436C59.0386 31.5552 60.1271 31.4084 60.1271 32.2112C60.1271 32.7477 59.699 32.9945 59.2502 32.9945C59.0136 32.9945 58.7733 32.9696 58.56 32.8554L58.5849 32.4429Z" fill="white"/>
<path d="M63.8384 32.5797H63.8282C63.7047 32.7686 63.4189 32.9943 62.9707 32.9943C62.2118 32.9943 61.8914 32.3188 61.8914 31.634C61.8914 30.9606 62.247 30.3625 62.9751 30.3625C63.4135 30.3625 63.6652 30.5362 63.8076 30.7674H63.8179V29.2393H64.2812V32.9348H63.8379V32.5797H63.8384ZM63.0795 32.6197C63.6019 32.6197 63.8184 32.1028 63.8184 31.6822C63.8184 31.215 63.5775 30.7365 63.0746 30.7365C62.5712 30.7365 62.3753 31.2112 62.3845 31.6687C62.3753 32.0622 62.5815 32.6197 63.0795 32.6197Z" fill="white"/>
<path d="M66.9981 32.8331C66.8216 32.897 66.6192 32.9955 66.2051 32.9955C65.3135 32.9955 64.9043 32.4531 64.9043 31.6368C64.9043 30.8898 65.372 30.3652 66.0817 30.3652C66.9191 30.3652 67.1913 30.9748 67.1913 31.7835H65.3974C65.3974 32.2793 65.7866 32.6209 66.2251 32.6209C66.5293 32.6209 66.8866 32.4628 66.9986 32.3681V32.8331H66.9981ZM66.6982 31.4376C66.6982 31.0538 66.4703 30.7387 66.0725 30.7387C65.6188 30.7387 65.4315 31.1133 65.3974 31.4376H66.6982Z" fill="white"/>
<path d="M68.9955 32.4429C69.1779 32.5609 69.4394 32.6205 69.5726 32.6205C69.7848 32.6205 70.0451 32.5317 70.0451 32.2616C70.0451 31.8025 68.9565 31.8431 68.9565 31.1362C68.9565 30.6154 69.3452 30.3643 69.8432 30.3643C70.0603 30.3643 70.2378 30.4065 70.4192 30.4606L70.3797 30.8661C70.2763 30.8022 70.0008 30.7388 69.8925 30.7388C69.6548 30.7388 69.4486 30.8357 69.4486 31.0436C69.4486 31.5552 70.5377 31.4084 70.5377 32.2112C70.5377 32.7477 70.1085 32.9945 69.6608 32.9945C69.4242 32.9945 69.1834 32.9696 68.9706 32.8554L68.9955 32.4429Z" fill="white"/>
<path d="M71.2191 30.5997C71.4497 30.4606 71.7258 30.3643 72.0473 30.3643C72.7662 30.3643 73.0575 30.7172 73.0575 31.4025V32.4429C73.0575 32.7287 73.0672 32.8613 73.077 32.935H72.6428V32.6107H72.6331C72.5248 32.7634 72.278 32.9945 71.8541 32.9945C71.3128 32.9945 70.9338 32.7569 70.9338 32.2112C70.9338 31.58 71.6235 31.383 72.1004 31.383C72.2839 31.383 72.4122 31.383 72.5936 31.3928C72.5936 30.9586 72.4366 30.7383 71.9732 30.7383C71.7128 30.7383 71.4308 30.8368 71.2435 30.9933L71.2191 30.5997ZM72.5936 31.7386C72.495 31.7386 72.396 31.7289 72.2985 31.7289C72.0479 31.7289 71.4264 31.7673 71.4264 32.2112C71.4264 32.4775 71.683 32.6199 71.8942 32.6199C72.3532 32.6199 72.5936 32.3346 72.5936 31.9601V31.7386Z" fill="white"/>
<path d="M73.8418 30.4228H74.2911V30.8223H74.3008C74.4389 30.5365 74.7723 30.3633 75.1231 30.3633C75.7732 30.3633 76.0644 30.7682 76.0644 31.4421V32.9356H75.6016V31.6348C75.6016 31.048 75.4722 30.7628 75.069 30.7373C74.5423 30.7373 74.3057 31.1617 74.3057 31.7739V32.9356H73.8418V30.4228Z" fill="white"/>
<path d="M78.1894 30.7971H77.5247V32.1731C77.5247 32.4627 77.7012 32.6208 77.9134 32.6208C78.0568 32.6208 78.1602 32.5764 78.229 32.532V32.9255C78.1256 32.9548 77.9827 32.9954 77.8343 32.9954C77.358 32.9954 77.0608 32.7696 77.0608 32.2657V30.7971H76.4951V30.4225H77.0608V29.8417L77.5247 29.6934V30.4225H78.1894V30.7971Z" fill="white"/>
<path d="M80.6978 32.8309C80.5203 32.8964 80.3195 32.9949 79.9048 32.9949C79.0132 32.9949 78.604 32.4525 78.604 31.6346C78.604 30.8914 79.0717 30.3631 79.7814 30.3631C80.6188 30.3631 80.89 30.9748 80.89 31.7835H79.0961C79.0961 32.2815 79.4858 32.6209 79.9248 32.6209C80.2296 32.6209 80.5847 32.4628 80.6978 32.3703V32.8309ZM80.3979 31.4376C80.3979 31.0538 80.1711 30.7371 79.7716 30.7371C79.318 30.7371 79.1307 31.1117 79.0961 31.4376H80.3979ZM79.8604 29.3633H80.3979L79.7521 30.0735H79.4219L79.8604 29.3633Z" fill="white"/>
<path d="M24.6984 33.0464C24.6984 33.2029 24.5717 33.3301 24.4158 33.3301C24.2605 33.3301 24.1338 33.2029 24.1338 33.0464V24.4764C24.1338 24.3199 24.2605 24.1943 24.4158 24.1943C24.5717 24.1943 24.6984 24.3199 24.6984 24.4764V33.0464Z" fill="white"/>
</svg>
