<svg width="120" height="120" viewBox="0 0 120 120" fill="none" xmlns="http://www.w3.org/2000/svg">
<path d="M92 114C84.4541 120.055 79.396 114.807 70 112.5C54.7368 108.752 48 107.5 37.1074 100.358C29.9231 95.6475 22.8799 91.7952 22.8799 83.5798L42.8599 41L71.8599 31C78.3599 27.5 86.5 30.2533 92 34.5002C104.951 44.5002 109 100.358 92 114Z" fill="#F5F5F5"/>
<path d="M41.0537 23.6698C35.8997 26.8604 36.0001 33.8876 36.0001 39.0862C37.9322 40.3621 39.2204 39.7241 45.0171 41C49.5256 24.4138 56.6099 25.0517 57.2546 24.4138C57.8993 23.7759 62.4066 24.4138 63.6954 26.3276C64.7264 27.8586 69.9267 32 71 32L78 29.5C77.0883 27.2426 72.2334 18.0918 69.8082 18.0918C68.7403 18.0918 64.4272 17.1656 64.3388 15.678C64.2011 13.3594 63.0507 7.18966 62.4066 4C61.1184 4 59.1862 4 58.5421 4.6295C58.5421 7.82759 59.8303 12.931 59.8303 15.678C59.406 16.5827 57.0603 17.0129 56.6099 16.1207C55.3217 13.569 55.0048 4.86903 54.1584 4.6295C53.312 4.38997 51.1317 4.62924 50.1691 5.27573C50.2822 7.17953 51.7757 14.2069 51.7757 17.0728C50.8132 18.0918 48.8809 18.9961 47.5928 17.3966C46.9487 14.6495 46.3046 9.10332 45.6605 5.91366C44.3724 5.91366 42.4402 5.91366 41.0531 6.55173C40.5591 10.0199 44.4126 21.5905 41.0537 23.6698Z" fill="#9E9E9E"/>
<path d="M23.5 52.5C24.6468 46.1925 29.5 40.5 36.5 39.5C43.5765 38.4891 61 40.6366 61 48C61 56 48 65 44.5 69.5C42.8474 71.9302 23.4336 89.1131 21.3242 81.7302C18.3622 71.3631 21.6774 62.5243 23.5 52.5Z" fill="#E0E0E0"/>
<path d="M25.8596 91.5C26.3596 93.5 27.3596 100 28.3597 105.5C29.8596 105.5 32.8596 105 34.3596 104.5C33.9897 101.99 33.8596 100.5 33.3597 97.5L25.8596 91.5Z" fill="#E0E0E0"/>
<path d="M36 37C33.4316 36.0216 18.4799 34.7132 15.9995 36C13.4799 33.2132 12.4999 29.5 13.5 25.8572C18.9997 24.3571 33.9996 24.3573 39.4996 25.3571C37.4995 27.357 36 34.9999 36 37Z" fill="#E0E0E0"/>
<path d="M43 38.5C45.9417 39.0403 54.7217 42.5739 57.4999 43.5C61.5 46 68.2274 51.8637 72.5 54C75 54 77.5079 49.8898 78 43C78.5 36 71.5 31.5 71.5 31.5C73 28 74.5 26.5 78.5 24C80.3764 23.0618 88 19.5 92 19.5C90.7821 15.6429 87.3222 13.4397 86 13C78.8222 14.4397 68.4999 22.3572 64.9999 25.8572C61.674 26.042 60.9999 22 57.4999 22C45.5 22.5 43.3501 34.0982 43 38.5Z" fill="#E0E0E0"/>
<path d="M31.9997 44.4999C34.3997 42.4999 40.9997 42.9999 43.9997 43.4999C44.9995 45.4998 34.4998 50.4999 31.9997 51.4999C29.4995 52.4999 27.9997 53.4999 26.9997 51.4999C25.9997 49.4999 28.9997 46.9999 31.9997 44.4999Z" fill="#F5F5F5"/>
<path d="M36.5 26.0001C21.5 24.0001 14.9999 27.0001 14.5 27.0001C14.4999 27.5001 14.3722 28.3724 15 29C15.4 29.3999 26 26 36 28C36 27.0001 36 26.5 36.5 26.0001Z" fill="#F5F5F5"/>
<path d="M86.5 14.5C82.6666 15.3334 73.5 18.8002 67.5 26.0001C68 26 68 26.5 68.5 26.5C71 23.6667 78.8 17.5 88 15.5C87.5 15 87 15 86.5 14.5Z" fill="#F5F5F5"/>
<path d="M35.9997 39.5C35.9997 34.166 35.8995 27.4558 41.0535 24.1821C44.4124 22.0487 40.5589 10.1766 41.0529 6.61818C42.44 5.9635 44.3722 5.9635 45.6603 5.9635C46.3044 9.23623 46.9485 14.9268 47.5926 17.7455C48.8807 19.3866 50.813 18.4588 51.7755 17.4132C51.7755 14.4727 50.282 7.26234 50.1689 5.30896C51.1315 4.64563 53.3118 4.40013 54.1582 4.6459C55.0047 4.89167 55.3215 13.8182 56.6097 16.4364C57.0601 17.3518 59.4058 16.9104 59.8301 15.9821C59.8301 13.1636 58.5419 7.92727 58.5419 4.6459C59.186 4 61.1182 4 62.4064 4C63.0505 7.27273 64.2009 13.6032 64.3386 15.9821C64.427 17.5085 69.1162 18.4588 69.808 18.4588C70.4998 18.4588 71.4998 19 71.9998 19.5M76.5 25.5C77 26.1667 78 27.9 78 29.5" stroke="black" stroke-linecap="round" stroke-linejoin="round"/>
<path d="M42.5 38.5C43.8407 30.2195 48.1958 22 57 22" stroke="black" stroke-linecap="round"/>
<path d="M35.397 37C31.6952 35.6169 19.5434 34.1731 15.9686 35.992C12.3372 32.0528 13.0583 30.2549 13.0583 25.6919C20.9847 23.5714 31.5731 23.5867 39.5 25" stroke="black" stroke-linecap="round" stroke-linejoin="round"/>
<path d="M71.5 32C78.5669 34.3744 79.6241 45.3618 76.4794 50.7503C73.5579 55.7565 72.0413 54.0774 68.2656 51.6937C62.9819 49.0307 59.7827 43.6383 53.5014 41.5278C50.0656 40.3734 46.638 39.1621 43 38.4885" stroke="black" stroke-linecap="round"/>
<path d="M57.5 22C61.8412 22 60.937 26.1342 65.0623 25.916C69.4035 21.7837 77.4657 14.6998 86.3687 13C88.0087 13.5191 90.4894 14.6998 92 19.2537C89.676 19.8857 84.8274 20.8923 82.5 22C77.627 24.3193 73.5 27 71.5 32" stroke="black" stroke-linecap="round" stroke-linejoin="round"/>
<path d="M23.8934 51.1026C25.4545 44.6716 29.7711 40.4188 36.8245 39.3253C46.3528 37.848 61 41.4614 61 48.969C61 54.8003 53.145 60.3846 49.0756 64.8671C46.8262 67.3449 24.6742 88.9428 21.8029 81.4152C17.771 70.845 21.4125 61.3233 23.8934 51.1026Z" stroke="black" stroke-linecap="round"/>
<path d="M41 73C41.5603 74.4359 43.3335 86.554 47.8102 90.4037" stroke="black" stroke-linecap="round"/>
<path d="M43.3335 81.554C44.4004 82.3875 45.3335 83.054 48.3736 83.824" stroke="black" stroke-linecap="round"/>
<path d="M22.8799 83.5797C22.8799 91.7951 30.5593 94.7969 37.1074 100.358C41.3959 104 51.7368 108.252 67 112C76.396 114.307 83.12 120.114 91 114.5C109.951 101 105.451 45.5002 92.5 35.5002C88.3829 30.6969 78.5 28.0001 72 31.5002" stroke="black" stroke-linecap="round"/>
<path d="M77 51C80.7869 57.0591 84.014 59.987 84.014 67.4059C84.014 71.2713 82.0357 78.1726 80.2305 81.7829" stroke="black" stroke-linecap="round"/>
<path d="M84 69.5C85.5535 73.4807 87.4046 78.0329 87.7981 83.7962C87.939 85.8599 86.5001 88.9314 86.5 91C86.4998 96.6146 87.7979 103.47 87.7979 103.47" stroke="black" stroke-linecap="round"/>
<path d="M87.5 86.5C88.9042 89.1961 89.5861 91.7968 92.7968 91.7968" stroke="black" stroke-linecap="round"/>
<path d="M86.5 75.8804C89.9748 76.4653 92.8235 77.3927 94.5 74.5" stroke="black" stroke-linecap="round"/>
<path d="M25.8599 91.5C26.3599 93.5 27.3599 100 28.36 105.5C29.8599 105.5 32.8599 105 34.3599 104.5C33.9899 101.99 33.8599 100.5 33.3599 97.5" stroke="black" stroke-linecap="round" stroke-linejoin="round"/>
</svg>
