<svg width="80" height="81" viewBox="0 0 80 81" fill="none" xmlns="http://www.w3.org/2000/svg">
    <path d="M61.333 76.9943C56.3024 81.0312 52.9303 77.5323 46.6663 75.9943C36.4909 73.4959 31.9997 72.661 24.738 67.8997C19.9484 64.7593 15.2529 62.1911 15.2529 56.7142L28.5729 28.3277L47.9062 21.661C52.2396 19.3276 57.6663 21.1632 61.333 23.9944C69.9669 30.6611 72.6663 67.8997 61.333 76.9943Z" fill="#F4F4F4"/>
    <path d="M27.3689 16.7744C23.9329 18.9014 23.9999 23.5862 23.9999 27.0519C25.2879 27.9025 26.1467 27.4772 30.0112 28.3278C33.0169 17.2703 37.7397 17.6956 38.1695 17.2703C38.5993 16.845 41.6041 17.2703 42.4633 18.5462C43.1507 19.5669 46.6176 22.3278 47.3331 22.3278L51.9998 20.6611C51.392 19.1562 48.1553 13.0557 46.5386 13.0557C45.8266 13.0557 42.9512 12.4382 42.8923 11.4464C42.8005 9.90076 42.0335 5.78757 41.6041 3.66113C40.7454 3.66113 39.4572 3.66113 39.0278 4.0808C39.0278 6.21286 39.8866 9.61516 39.8866 11.4464C39.6038 12.0496 38.0399 12.3364 37.7397 11.7416C36.8809 10.0404 36.6697 4.24049 36.1054 4.0808C35.5411 3.92111 34.0875 4.08063 33.4458 4.51162C33.5212 5.78082 34.5169 10.4657 34.5169 12.3763C33.8752 13.0557 32.587 13.6585 31.7283 12.5922C31.2989 10.7608 30.8695 7.06335 30.4401 4.93691C29.5813 4.93691 28.2932 4.93691 27.3685 5.36228C27.0392 7.67437 29.6082 15.3882 27.3689 16.7744Z" fill="#999999"/>
    <path d="M15.6666 35.9945C16.4311 31.7895 19.6666 27.9945 24.3333 27.3278C29.0509 26.6538 40.6666 28.0855 40.6666 32.9945C40.6666 38.3278 31.9999 44.3278 29.6666 47.3278C28.5649 48.948 15.6223 60.4032 14.2161 55.4812C12.2414 48.5698 14.4515 42.6773 15.6666 35.9945Z" fill="#FAFAFA"/>
    <path d="M17.2396 61.9945C17.573 63.3278 18.2396 67.6611 18.9064 71.3278C19.9063 71.3278 21.9063 70.9945 22.9063 70.6611C22.6597 68.9876 22.573 67.9945 22.2397 65.9945L17.2396 61.9945Z" fill="#FAFAFA"/>
    <path d="M23.9999 25.6611C22.2876 25.0088 12.3198 24.1366 10.6663 24.9945C8.9865 23.1366 8.33321 20.6611 8.99993 18.2326C12.6664 17.2325 22.6663 17.2326 26.333 17.8992C24.9996 19.2324 23.9999 24.3278 23.9999 25.6611Z" fill="#FAFAFA"/>
    <path d="M28.6666 26.6611C30.6278 27.0213 36.481 29.3771 38.3332 29.9945C40.9999 31.6611 45.4849 35.5703 48.3333 36.9945C49.9999 36.9945 51.6718 34.2543 51.9999 29.6611C52.3333 24.9945 47.6666 21.9945 47.6666 21.9945C48.6666 19.6611 49.6666 18.6611 52.3333 16.9945C53.5842 16.369 58.6666 13.9945 61.3333 13.9945C60.5213 11.4231 58.2147 9.95426 57.3333 9.66113C52.5481 10.6209 45.6665 15.8993 43.3332 18.2326C41.1159 18.3558 40.6665 15.6611 38.3332 15.6611C30.3333 15.9945 28.9 23.7266 28.6666 26.6611Z" fill="#FAFAFA"/>
    <path d="M21.333 30.6611C22.933 29.3277 27.333 29.6611 29.333 29.9944C29.9996 31.3277 22.9998 34.6611 21.333 35.3278C19.6663 35.9944 18.6664 36.6611 17.9997 35.3278C17.333 33.9944 19.333 32.3277 21.333 30.6611Z" fill="#F4F4F4"/>
    <path d="M24.3333 18.3279C14.3333 16.9945 9.99988 18.9945 9.66655 18.9945C9.66655 19.3279 9.58138 19.9094 9.99989 20.3278C10.2666 20.5944 17.3332 18.3278 23.9999 19.6611C23.9999 18.9945 23.9999 18.6611 24.3333 18.3279Z" fill="#F4F4F4"/>
    <path d="M57.6666 10.6611C55.111 11.2167 48.9999 13.5279 44.9999 18.3279C45.3333 18.3278 45.3333 18.6611 45.6666 18.6611C47.3333 16.7722 52.5333 12.6611 58.6666 11.3278C58.3333 10.9945 57.9999 10.9945 57.6666 10.6611Z" fill="#F4F4F4"/>
    <path d="M23.9998 27.3278C23.9998 23.7718 23.9331 19.2983 27.3691 17.1159C29.6084 15.6936 27.0394 7.77889 27.3687 5.40659C28.2934 4.97014 29.5815 4.97014 30.4403 4.97014C30.8697 7.15195 31.2991 10.9457 31.7285 12.8248C32.5872 13.9189 33.8754 13.3003 34.5171 12.6033C34.5171 10.643 33.5214 5.83602 33.446 4.53377C34.0877 4.09155 35.5413 3.92788 36.1056 4.09173C36.6698 4.25558 36.8811 10.2066 37.7399 11.952C38.0401 12.5623 39.604 12.268 39.8868 11.6492C39.8868 9.77022 39.028 6.27931 39.028 4.09173C39.4574 3.66113 40.7456 3.66113 41.6043 3.66113C42.0337 5.84295 42.8007 10.0633 42.8925 11.6492C42.9514 12.6668 46.0776 13.3003 46.5388 13.3003C47 13.3003 47.6666 13.6611 48 13.9945M51.0001 17.9945C51.3334 18.4389 52.0001 19.5945 52.0001 20.6611" stroke="black" stroke-linecap="round" stroke-linejoin="round"/>
    <path d="M28.3333 26.6611C29.227 21.1408 32.1304 15.6611 37.9999 15.6611" stroke="black" stroke-linecap="round"/>
    <path d="M23.5978 25.6609C21.13 24.7389 13.0288 23.7764 10.6456 24.989C8.22461 22.3628 8.70535 21.1642 8.70535 18.1223C13.9896 16.7086 21.0486 16.7188 26.3332 17.6609" stroke="black" stroke-linecap="round" stroke-linejoin="round"/>
    <path d="M47.6665 22.3281C52.3777 23.9111 53.0826 31.236 50.9861 34.8283C49.0384 38.1658 48.0273 37.0464 45.5103 35.4572C41.9878 33.6819 39.855 30.087 35.6674 28.68C33.3769 27.9104 31.0918 27.1028 28.6665 26.6538" stroke="black" stroke-linecap="round"/>
    <path d="M38.3333 15.6611C41.2274 15.6611 40.6246 18.4173 43.3748 18.2718C46.2689 15.517 51.6438 10.7943 57.579 9.66113C58.6724 10.0072 60.3262 10.7943 61.3333 13.8303C59.7839 14.2516 56.5516 14.9227 54.9999 15.6611C51.7512 17.2073 48.9999 18.9945 47.6666 22.3278" stroke="black" stroke-linecap="round" stroke-linejoin="round"/>
    <path d="M15.9289 35.0626C16.9696 30.7752 19.8473 27.94 24.5496 27.211C30.9018 26.2261 40.6666 28.6351 40.6666 33.6402C40.6666 37.5277 35.4299 41.2505 32.717 44.2389C31.2174 45.8908 16.4494 60.2893 14.5352 55.2709C11.8473 48.2241 14.2749 41.8763 15.9289 35.0626Z" stroke="black" stroke-linecap="round"/>
    <path d="M27.3333 49.6611C27.7068 50.6184 28.8889 58.6971 31.8734 61.2636" stroke="black" stroke-linecap="round"/>
    <path d="M28.8889 55.3633C29.6002 55.919 30.2222 56.3633 32.249 56.8766" stroke="black" stroke-linecap="round"/>
    <path d="M15.2532 56.7138C15.2532 62.1907 20.3728 64.1919 24.7382 67.8993C27.5972 70.3273 34.4911 73.1622 44.6666 75.6606C50.9306 77.1987 55.4132 81.0697 60.6666 77.3273C73.3005 68.3273 70.3005 31.3274 61.6666 24.6608C58.9218 21.4586 52.3333 19.6607 47.9999 21.9941" stroke="black" stroke-linecap="round"/>
    <path d="M51.3333 34.9941C53.8579 39.0335 56.0092 40.9855 56.0092 45.9314C56.0092 48.5083 54.6904 53.1092 53.4869 55.5161" stroke="black" stroke-linecap="round"/>
    <path d="M56 47.3281C57.0356 49.9819 58.2697 53.0167 58.532 56.8589C58.626 58.2347 57.6667 60.2824 57.6667 61.6615C57.6666 65.4045 58.5319 69.9748 58.5319 69.9748" stroke="black" stroke-linecap="round"/>
    <path d="M58.3333 58.6611C59.2694 60.4585 59.724 62.1923 61.8644 62.1923" stroke="black" stroke-linecap="round"/>
    <path d="M57.6665 51.5814C59.983 51.9713 61.8822 52.5896 62.9998 50.6611" stroke="black" stroke-linecap="round"/>
    <path d="M17.24 61.9941C17.5733 63.3275 18.24 67.6608 18.9067 71.3275C19.9067 71.3275 21.9067 70.9941 22.9067 70.6608C22.66 68.9873 22.5733 67.9941 22.24 65.9941" stroke="black" stroke-linecap="round" stroke-linejoin="round"/>
</svg>
