<svg width="120" height="120" viewBox="0 0 120 120" fill="none" xmlns="http://www.w3.org/2000/svg">
<path d="M29.8711 24.3957C31.5133 23.301 35.345 20.0167 38.0819 18.3745H117.665L118 90.0818C118 98.495 112.759 106.605 108.147 109.24C99.3889 114.245 28.9756 110.882 2.50255 110.882C2.50245 96.6504 2.50286 63.8074 2.50195 44.1015C6.33364 40.2699 24.3973 29.3222 29.8711 24.3957Z" fill="#F5F5F5"/>
<path d="M69.255 60.6954C69.1806 60.8293 69.3398 60.5736 69.255 60.6954C69.4167 60.3982 69.3026 60.6098 69.255 60.6954Z" fill="#C4C4C4"/>
<path d="M60.5237 44.1016C55.5973 44.6489 57.1178 44.1016 60.098 39.7224C58.3053 39.6507 57.7453 39.4673 57.1178 37.6545C55.9468 34.2717 59.9892 33.7012 62.7133 33.7012C65.0273 33.7012 70.3767 32.6416 70.3767 29.5654C70.3767 26.0678 73.4622 25.4904 76.3979 25.4904C79.8752 25.4904 83.0801 25.1741 85.156 28.349C86.8605 30.9559 83.8894 34.7959 88.1666 34.7959C96.1339 34.7959 92.9999 44.1016 87.3455 44.1016C87.5913 45.2076 88.4398 46.5157 88.4398 47.6595C88.4398 50.6093 90.7744 52.0356 91.6025 54.6235C91.6899 54.8967 91.0593 57.6857 90.9031 58.0294C90.0382 59.9321 87.9468 60.8813 86.5544 62.4085C84.8166 64.3145 86.9067 64.9465 86.2503 66.1185C85.1638 68.0588 85.9323 70.1959 86.4936 72.2006C87.2908 75.0477 85.6347 76.7883 85.5205 79.5294C85.4522 81.1684 85.2442 83.3348 83.635 84.3647C83.2797 84.5921 82.552 84.1922 82.4186 84.4255C81.5096 86.0162 80.2296 87.5882 77.5226 87.1016C77.0824 88.6421 75.4186 88.9845 74.2687 87.5882C74.0593 87.3338 73.5055 85.4563 73.3564 85.5203C72.7971 85.7599 72.6057 86.4606 71.8967 86.0068C71.4216 85.7028 71.1273 84.7834 70.6195 84.6384C70.1045 84.4912 69.4641 84.7726 68.9773 84.4863C68.3849 84.1378 68.529 80.8371 67.8826 80.8371C66.7952 80.8371 66.3386 80.8077 66.0275 79.4078C65.5873 77.4267 65.9367 74.6199 65.9971 72.5655C66.0469 70.8715 67.0913 70.0462 68.4299 69.2812C69.08 68.9097 68.6728 67.1856 68.7644 66.5443C68.8909 65.6593 69.8288 65.3619 69.8288 64.6588C69.8288 63.6045 68.734 63.662 68.734 62.2869C68.734 61.7613 69.0299 61.1089 69.255 60.6954C68.6434 61.5735 67.7888 62.0467 67.0919 60.8272C66.761 60.2482 62.4082 63.1343 62.1654 61.0704C62.0303 59.922 61.0336 55.1894 62.1654 54.6235C64.0116 53.7004 63.5849 52.9517 62.4087 52.1907C61.1896 51.4018 60.2784 44.7303 60.5237 44.1016Z" fill="#C4C4C4"/>
<path d="M75.8501 80.7763C75.8501 79.1341 77.6017 78.8058 78.0396 79.6816C78.587 80.7763 76.9449 81.8711 75.8501 80.7763Z" fill="#E6E6E6"/>
<path d="M76.3975 74.6804C76.3975 73.0382 78.1491 72.7098 78.587 73.5856C79.1344 74.6804 77.4922 75.7751 76.3975 74.6804Z" fill="#E6E6E6"/>
<path d="M69.8291 82.3437C69.8291 80.7015 71.5807 80.3731 72.0186 81.249C72.566 82.3437 70.9239 83.4384 69.8291 82.3437Z" fill="#E6E6E6"/>
<path d="M80.7769 69.2065C80.7769 67.5643 82.5285 67.2359 82.9664 68.1118C83.5138 69.2065 81.8716 70.3012 80.7769 69.2065Z" fill="#E6E6E6"/>
<path d="M68.7344 76.8699C68.7344 75.2276 70.486 74.8993 70.9239 75.7751C71.4713 76.8699 69.8291 77.9646 68.7344 76.8699Z" fill="#E6E6E6"/>
<path d="M81.8716 75.7751C81.8716 74.1329 83.6232 73.8045 84.0611 74.6804C84.6085 75.7751 82.9663 76.8698 81.8716 75.7751Z" fill="#E6E6E6"/>
<path d="M81.8716 81.249C81.8716 79.6068 83.6232 79.2784 84.0611 80.1542C84.6085 81.249 82.9663 82.3437 81.8716 81.249Z" fill="#E6E6E6"/>
<path d="M86.2505 56.0693C86.2505 54.4271 88.0021 54.0987 88.44 54.9745C88.9874 56.0693 87.3453 57.164 86.2505 56.0693Z" fill="#E6E6E6"/>
<path d="M82.9663 58.2588C82.9663 56.6166 84.7179 56.2882 85.1558 57.164C85.7032 58.2588 84.0611 59.3535 82.9663 58.2588Z" fill="#E6E6E6"/>
<path d="M84.061 52.7851C84.061 51.1429 85.8127 50.8146 86.2506 51.6904C86.798 52.7851 85.1558 53.8799 84.061 52.7851Z" fill="#E6E6E6"/>
<path d="M64.3555 58.2588C64.3555 56.6166 66.1071 56.2882 66.545 57.164C67.0924 58.2588 65.4502 59.3535 64.3555 58.2588Z" fill="#E6E6E6"/>
<path d="M68.7344 58.2588C68.7344 56.6166 70.486 56.2882 70.9239 57.164C71.4713 58.2588 69.8291 59.3535 68.7344 58.2588Z" fill="#E6E6E6"/>
<path d="M72.0186 69.2065C72.0186 67.5643 73.7702 67.2359 74.2081 68.1118C74.7555 69.2065 73.1133 70.3012 72.0186 69.2065Z" fill="#E6E6E6"/>
<path d="M31.5133 101.029C35.0796 98.1116 38.6293 93.8184 38.6293 89.1087C38.6293 79.6101 33.7028 72.7338 33.7028 63.8074V44.6489L26.0395 44.1016C26.0395 50.5846 25.4921 57.8607 25.4921 64.3548C25.4921 72.6111 17.0052 80.6985 19.5929 89.1087C21.2485 94.4894 23.4534 107.624 31.5133 101.029Z" fill="#E0E0E0"/>
<path d="M30.0128 81.3238C28.8281 81.0924 27.5137 78.8206 27.5137 77.9362C27.5137 54.7377 30.0128 31.7861 30.0128 8.52173C31.3525 31.2673 31.5122 54.2724 31.5122 77.0575C31.5122 77.9412 30.9016 81.4974 30.0128 81.3238Z" fill="#C4C4C4"/>
<path d="M10.2866 54.0153C9.63565 50.8535 16.9198 50.0047 18.9231 49.5754C25.2008 49.5754 19.8148 56.1441 14.817 56.1441C13.6793 56.1441 10.6421 55.7422 10.2866 54.0153Z" fill="#C4C4C4"/>
<path d="M3.16815 59.6631C4.09904 58.2187 9.11499 57.809 10.4665 57.7864C11.1842 57.7864 13.1728 58.39 13.7666 58.829C14.3218 59.2395 13.7659 60.3285 13.1954 60.4972C11.2046 61.0859 9.1645 61.0706 7.03942 61.0706C6.0982 61.0706 2.33372 60.9578 3.16815 59.6631Z" fill="#C4C4C4"/>
<path d="M21.6426 60.0326C20.1237 59.8025 14.7889 60.1963 15.1042 62.6324C15.3435 64.4808 22.0378 61.8328 21.6426 60.0326Z" fill="#C4C4C4"/>
<path d="M115.81 39.1753C114.291 38.9452 112.758 41.6659 113.073 44.102C113.313 45.9503 116.205 40.9755 115.81 39.1753Z" fill="#C4C4C4"/>
<path d="M39.2232 54.0434C38.5624 51.5664 45.0057 50.441 46.3246 50.2432C53.465 49.1723 52.4631 55.5966 45.4512 55.5966C44.2049 55.5966 39.643 55.6171 39.2232 54.0434Z" fill="#C4C4C4"/>
<path d="M52.4856 59.55C56.2968 61.1548 62.3376 55.5967 56.8647 54.502C52.6558 54.502 46.7878 57.151 52.4856 59.55Z" fill="#C4C4C4"/>
<path d="M36.0388 61.3367C34.7439 59.2801 40.8453 57.9621 41.9525 57.8185C43.4575 57.8185 48.5802 57.4361 47.8657 59.3093C47.2561 60.9076 43.0693 62.062 41.023 62.1118C39.8003 62.1416 36.7208 62.4197 36.0388 61.3367Z" fill="#C4C4C4"/>
<path d="M95.343 51.978C97.569 50.4369 99.4557 50.2256 102.124 50.6704C104.007 51.1411 100.587 53.6019 99.388 53.9546C98.026 54.3552 92.059 54.2515 95.343 51.978Z" fill="#C4C4C4"/>
<path d="M110.337 46.8387C109.242 45.1967 103.138 54.3362 105.957 54.5021C109.28 54.6975 111.431 48.4808 110.337 46.8387Z" fill="#C4C4C4"/>
<path d="M115.263 47.386C115.263 47.386 110.602 50.7463 114.167 51.7651C116.27 52.3658 115.263 47.386 115.263 47.386Z" fill="#C4C4C4"/>
<path d="M94.2288 59.7022C93.3138 63.8195 99.7755 62.6096 101.74 60.6449C104.891 57.4942 96.6509 56.1442 94.2288 59.7022Z" fill="#C4C4C4"/>
<path d="M30.0128 81.3238C28.8281 81.0924 27.5137 78.8206 27.5137 77.9362C27.5137 54.7377 30.0128 31.7861 30.0128 8.52173C31.3525 31.2673 31.5122 54.2724 31.5122 77.0575C31.5122 77.9412 30.9016 81.4974 30.0128 81.3238Z" stroke="black" stroke-linecap="round"/>
<path d="M3.04834 47.386C9.61694 47.3859 16.7329 47.386 24.3963 47.386" stroke="black" stroke-linecap="round"/>
<path d="M57.1174 44.1016C56.0226 41.9121 62.2561 39.8087 60.098 39.7224C58.3053 39.6507 57.7453 39.4673 57.1178 37.6545C55.9468 34.2717 59.9892 33.7012 62.7133 33.7012C65.0273 33.7012 70.3767 32.6416 70.3767 29.5654C70.3767 26.0678 73.4622 25.4904 76.3979 25.4904C79.8752 25.4904 83.0801 25.1741 85.156 28.349C86.8605 30.9559 83.8894 34.7959 88.1666 34.7959C96.1339 34.7959 91.9052 44.1016 86.2508 44.1016" stroke="black" stroke-linecap="round"/>
<path d="M60.524 44.6489C60.2786 45.2777 61.1898 51.4018 62.409 52.1907C63.5852 52.9517 64.0119 53.7004 62.1657 54.6235C61.0339 55.1894 62.0306 59.922 62.1657 61.0704C62.4085 63.1343 66.7613 60.2482 67.0922 60.8272C67.8857 62.2158 68.8837 61.4098 69.4946 60.3102C69.6084 60.1054 68.7343 61.3837 68.7343 62.2869C68.7343 63.662 69.8291 63.6045 69.8291 64.6588C69.8291 65.3619 68.8912 65.6593 68.7647 66.5443C68.6731 67.1856 69.0803 68.9097 68.4302 69.2812C67.0916 70.0462 66.0472 70.8715 65.9974 72.5655C65.937 74.6199 65.5876 77.4267 66.0278 79.4078C66.3389 80.8077 66.7955 80.8371 67.8828 80.8371C68.5293 80.8371 68.3852 84.1378 68.9776 84.4863C69.4644 84.7726 70.1048 84.4912 70.6198 84.6384C71.1276 84.7834 71.4219 85.7028 71.897 86.0068C72.606 86.4606 72.7974 85.7599 73.3567 85.5203C73.5058 85.4563 74.0595 87.3338 74.269 87.5881C75.4189 88.9845 77.0827 88.6421 77.5229 87.1016C80.2298 87.5881 81.5099 86.0162 82.4189 84.4255C82.5522 84.1922 83.28 84.592 83.6353 84.3647C85.2445 83.3348 85.4525 81.1684 85.5208 79.5294C85.635 76.7883 87.2911 75.0477 86.4939 72.2006C85.9326 70.1959 85.1641 68.0588 86.2506 66.1185C86.907 64.9464 84.8169 64.3145 86.5547 62.4085C87.9471 60.8813 90.0385 59.9321 90.9034 58.0294C91.0596 57.6857 91.6902 54.8967 91.6028 54.6235C90.7747 52.0356 88.4401 50.6093 88.4401 47.6595C88.4401 46.5157 88.1081 45.4813 87.8623 44.3752" stroke="black" stroke-linecap="round"/>
<path d="M29.8702 24.3957C24.3963 29.3222 6.33266 40.2699 2.50098 44.1015C9.46603 43.9804 17.5294 44.0302 26.0385 44.1457M31.5123 23.301C33.1545 22.2062 35.344 20.0167 38.0809 18.3745C63.9166 18.3745 91.8691 18.3745 117.664 18.3745C117.664 18.3745 113.55 41.8232 102.125 43.5542C98.5434 44.0968 93.6591 44.4251 87.8928 44.6067M60.5236 44.7047C51.784 44.5961 42.611 44.4115 33.7018 44.263" stroke="black" stroke-linecap="round" stroke-linejoin="round"/>
<path d="M2.50098 44.1016C2.50189 63.8074 2.50148 96.6504 2.50158 110.882" stroke="black" stroke-linecap="round"/>
<path d="M2.50098 110.882C28.974 110.882 99.3879 114.245 108.146 109.24C112.758 106.605 117.999 98.495 117.999 90.0818C117.999 65.4495 117.999 36.4382 117.999 18.3745" stroke="black" stroke-linecap="round"/>
<path d="M26.0385 44.1016C26.0385 50.5846 25.4911 57.8607 25.4911 64.3548C25.4911 72.6111 17.0042 80.6985 19.5919 89.1087C21.2475 94.4894 23.4524 107.624 31.5124 101.029C35.0786 98.1116 38.6283 93.8184 38.6283 89.1087C38.6283 79.6101 33.7019 72.7338 33.7019 63.8074V44.6489" stroke="black" stroke-linecap="round"/>
<path d="M10.2866 54.0153C9.63565 50.8535 16.9198 50.0047 18.9231 49.5754C25.2008 49.5754 19.8148 56.1441 14.817 56.1441C13.6793 56.1441 10.6421 55.7422 10.2866 54.0153Z" stroke="black" stroke-linecap="round"/>
<path d="M3.16815 59.6631C4.09904 58.2187 9.11499 57.809 10.4665 57.7864C11.1842 57.7864 13.1728 58.39 13.7666 58.829C14.3218 59.2395 13.7659 60.3285 13.1954 60.4972C11.2046 61.0859 9.1645 61.0706 7.03942 61.0706C6.0982 61.0706 2.33372 60.9578 3.16815 59.6631Z" stroke="black" stroke-linecap="round"/>
<path d="M21.6426 60.0326C20.1237 59.8025 14.7889 60.1963 15.1042 62.6324C15.3435 64.4808 22.0378 61.8328 21.6426 60.0326Z" stroke="black" stroke-linecap="round"/>
<path d="M115.809 39.1753C114.29 38.9452 112.757 41.6659 113.072 44.102C113.312 45.9503 116.204 40.9755 115.809 39.1753Z" stroke="black" stroke-linecap="round"/>
<path d="M39.2232 54.0434C38.5624 51.5664 45.0057 50.441 46.3246 50.2432C53.465 49.1723 52.4631 55.5966 45.4512 55.5966C44.2049 55.5966 39.643 55.6171 39.2232 54.0434Z" stroke="black" stroke-linecap="round"/>
<path d="M52.4861 59.55C56.2973 61.1548 62.3381 55.5967 56.8652 54.502C52.6563 54.502 46.7883 57.151 52.4861 59.55Z" stroke="black" stroke-linecap="round"/>
<path d="M36.0388 61.3367C34.7439 59.2801 40.8453 57.9621 41.9525 57.8185C43.4575 57.8185 48.5802 57.4361 47.8657 59.3093C47.2561 60.9076 43.0693 62.062 41.023 62.1118C39.8003 62.1416 36.7208 62.4197 36.0388 61.3367Z" stroke="black" stroke-linecap="round"/>
<path d="M95.343 51.978C97.569 50.4369 99.4557 50.2256 102.124 50.6704C104.007 51.1411 100.587 53.6019 99.388 53.9546C98.026 54.3552 92.059 54.2515 95.343 51.978Z" stroke="black" stroke-linecap="round"/>
<path d="M110.336 46.8387C109.241 45.1967 103.137 54.3362 105.956 54.5021C109.279 54.6975 111.43 48.4808 110.336 46.8387Z" stroke="black" stroke-linecap="round"/>
<path d="M115.262 47.386L115.752 47.2869C115.718 47.1204 115.602 46.9824 115.444 46.9204C115.286 46.8585 115.107 46.8811 114.969 46.9804L115.262 47.386ZM114.166 51.7651L114.304 51.2843L114.166 51.7651ZM115.262 47.386C114.969 46.9804 114.969 46.9805 114.969 46.9806C114.969 46.9806 114.969 46.9808 114.969 46.9809C114.969 46.9811 114.968 46.9813 114.968 46.9816C114.967 46.9822 114.966 46.983 114.964 46.984C114.962 46.9861 114.958 46.9889 114.953 46.9925C114.943 46.9997 114.929 47.0101 114.911 47.0235C114.875 47.0502 114.824 47.0888 114.761 47.138C114.635 47.2362 114.46 47.3771 114.262 47.5494C113.869 47.8904 113.367 48.3695 112.976 48.8951C112.603 49.3961 112.244 50.0534 112.338 50.7207C112.443 51.4664 113.057 51.9679 114.029 52.2458L114.304 51.2843C113.494 51.0528 113.353 50.7523 113.329 50.5814C113.294 50.3321 113.431 49.9583 113.778 49.4919C114.107 49.05 114.547 48.6254 114.917 48.3045C115.1 48.1459 115.261 48.0163 115.376 47.9268C115.433 47.8821 115.479 47.8475 115.51 47.8245C115.525 47.813 115.537 47.8044 115.544 47.7988C115.548 47.796 115.551 47.794 115.553 47.7928C115.553 47.7922 115.554 47.7918 115.554 47.7916C115.554 47.7915 115.554 47.7914 115.554 47.7914C115.554 47.7914 115.554 47.7915 115.554 47.7915C115.554 47.7915 115.554 47.7916 115.262 47.386ZM114.029 52.2458C114.376 52.3449 114.717 52.3438 115.023 52.2048C115.327 52.0674 115.531 51.825 115.667 51.5671C115.927 51.073 115.997 50.4041 116.003 49.8055C116.008 49.1872 115.945 48.5573 115.882 48.088C115.85 47.8519 115.818 47.6534 115.794 47.5133C115.781 47.4432 115.771 47.3875 115.764 47.3489C115.76 47.3297 115.757 47.3146 115.755 47.3042C115.754 47.2989 115.754 47.2949 115.753 47.292C115.753 47.2905 115.752 47.2894 115.752 47.2885C115.752 47.2881 115.752 47.2877 115.752 47.2875C115.752 47.2873 115.752 47.2872 115.752 47.2871C115.752 47.287 115.752 47.2869 115.262 47.386C114.772 47.4851 114.772 47.485 114.772 47.485C114.772 47.485 114.772 47.4849 114.772 47.485C114.772 47.485 114.772 47.4851 114.772 47.4853C114.772 47.4856 114.772 47.4863 114.772 47.4872C114.773 47.4891 114.773 47.4922 114.774 47.4963C114.776 47.5047 114.778 47.5176 114.781 47.5346C114.788 47.5687 114.797 47.6194 114.808 47.6843C114.831 47.8142 114.861 48 114.891 48.2214C114.951 48.667 115.008 49.2446 115.003 49.7961C114.997 50.3673 114.925 50.8307 114.782 51.1014C114.717 51.2259 114.655 51.274 114.611 51.2939C114.57 51.3123 114.483 51.3354 114.304 51.2843L114.029 52.2458Z" fill="black"/>
<path d="M34.249 47.386C42.1529 47.386 51.0593 47.2266 60.5234 47.386M117.999 27.6802C115.809 34.7962 110.335 43.0069 107.598 45.1965C105.522 46.8573 98.1706 47.5733 88.44 47.8222" stroke="black" stroke-linecap="round"/>
<path d="M94.2288 59.7022C93.3138 63.8195 99.7755 62.6096 101.74 60.6449C104.891 57.4942 96.6509 56.1442 94.2288 59.7022Z" stroke="black" stroke-linecap="round"/>
<path d="M3.04834 67.0919C3.92917 66.0078 5.87415 65.484 7.42741 65.6475C8.3569 65.7453 9.63199 66.6483 10.1643 67.0919C11.1097 67.8797 13.6227 65.6475 15.0908 65.6475C16.7466 65.6475 18.4789 67.114 20.0172 66.4148C22.2068 64.651 23.3015 65.6475 23.8489 65.7457M34.2492 65.7457C38.0809 64.651 43.3779 68.2553 45.7443 66.4148C50.2395 62.9185 53.4829 66.1065 57.7867 65.8674C66.5448 62.2038 64.5138 65.7457 68.7344 65.7457M86.2507 65.6475C92.0286 63.7093 91.8269 65.9212 95.0088 65.9212C97.3766 65.9212 99.693 66.2536 102.672 64.651C104.477 63.6802 104.053 62.805 106.544 62.2038C108.565 61.7157 109.922 62.0538 111.978 61.0707C112.826 60.6647 114.276 59.1121 114.715 58.3337C115.914 56.2072 115.862 53.3681 117.999 51.7651" stroke="black" stroke-linecap="round"/>
</svg>
