<svg width="120" height="120" viewBox="0 0 120 120" fill="none" xmlns="http://www.w3.org/2000/svg">
<path d="M26.775 113.207C26.775 78.5224 26.5977 40.8416 26.5977 6.17068C26.6278 2.61185 35.6391 2.9565 35.6391 2.9565C35.6391 2.9565 44.6476 2.5918 44.6807 6.17069L44.7848 113.207C44.8144 116.411 38.9202 117 35.6391 117C32.2558 117 26.7447 116.778 26.775 113.207Z" fill="#F5F5F5"/>
<path d="M26.5978 6.17068C26.628 2.61185 35.6394 2.9565 35.6394 2.9565C35.6394 2.9565 44.6478 2.5918 44.681 6.17069C44.7106 9.37461 38.9204 10.1492 35.6394 10.1491C32.256 10.1491 26.5675 9.74178 26.5978 6.17068Z" fill="#C4C4C4"/>
<path d="M73.38 113.207C73.38 78.5224 73.2026 40.8416 73.2026 6.17068C73.2328 2.61185 82.2441 2.9565 82.2441 2.9565C82.2441 2.9565 91.2526 2.5918 91.2857 6.17069L91.3898 113.207C91.4194 116.411 85.5251 117 82.2441 117C78.8607 117 73.3497 116.778 73.38 113.207Z" fill="#F5F5F5"/>
<path d="M73.2028 6.17068C73.2329 2.61185 82.2443 2.9565 82.2443 2.9565C82.2443 2.9565 91.2528 2.5918 91.2859 6.17069C91.3156 9.37461 85.5254 10.1492 82.2443 10.1491C78.861 10.1491 73.1725 9.74178 73.2028 6.17068Z" fill="#C4C4C4"/>
<path d="M41.375 37.6157V9.76634L44.7851 6.92456V38.7525L41.375 37.6157Z" fill="#C4C4C4"/>
<path d="M87.98 28.5221V9.76634L91.3901 6.92456V27.3853L87.98 28.5221Z" fill="#C4C4C4"/>
<path d="M44.2169 44.436H41.3751C41.3749 70.012 41.3752 106.955 41.375 114.912C41.375 116.731 44.0275 114.533 44.2169 113.775V44.436Z" fill="#C4C4C4"/>
<path d="M90.8222 34.7739H87.98C87.9798 60.3499 87.9805 106.955 87.9803 114.912C87.9803 116.731 90.6328 114.533 90.8222 113.775L90.8222 34.7739Z" fill="#C4C4C4"/>
<path d="M64.1087 35.3394C57.4834 37.7056 48.3279 39.6049 41.1281 37.301L40.2378 43.8648C53.7412 43.8648 69.6028 37.654 82.8644 34.7711C96.8684 31.7267 103.086 37.8325 117.171 37.8325L117.534 34.2027C109.577 33.066 104.525 32.9268 97.9314 30.3537C104.931 29.2109 108.439 29.0878 115.261 27.3825L115.547 24.5435C97.6583 24.5435 81.0362 29.2939 64.1087 35.3394Z" fill="#F5F5F5"/>
<path d="M6.70508 75.1245C13.2983 75.1245 21.811 77.1582 26.5975 81.9448V86.4916C21.811 81.7051 13.2983 79.6714 6.70508 79.6714V75.1245Z" fill="#F5F5F5"/>
<path d="M111.283 75.1245C104.689 75.1245 96.1767 77.1582 91.3901 81.9448V86.4916C96.1767 81.7051 104.689 79.6714 111.283 79.6714V75.1245Z" fill="#F5F5F5"/>
<path d="M5 34.771C10.7507 40.3005 19.2089 48.4115 26.5978 51.2532L26.5975 56.3685C19.7925 56.3685 12.1872 54.0184 5.51285 52.7161V46.8691C8.98945 48.9042 12.789 49.6182 16.6755 50.5899C13.5253 46.1381 8.429 42.582 5 38.7495V34.771Z" fill="#F5F5F5"/>
<path d="M73.2029 64.3257C69.2245 58.0737 50.7285 58.0737 44.7852 58.0737V53.5269C50.7282 53.5269 68.6561 53.527 73.2029 59.2105V64.3257Z" fill="#F5F5F5"/>
<path d="M41.1279 37.8723C48.3277 40.1762 57.4833 38.2769 64.1086 35.9107C81.0361 29.8652 97.6581 25.1147 115.547 25.1147" stroke="black" stroke-linecap="round"/>
<path d="M40.2378 44.4361C53.7412 44.4361 69.6028 38.2253 82.8644 35.3423C96.8684 32.2979 103.086 38.4037 117.171 38.4037" stroke="black" stroke-linecap="round"/>
<path d="M115.26 27.9536C108.439 29.659 104.931 29.7821 97.9312 30.9248C104.525 33.498 109.577 33.6371 117.534 34.7738" stroke="black" stroke-linecap="round" stroke-linejoin="round"/>
<path d="M26.5975 82.5158C21.811 77.7293 13.2983 75.6956 6.70508 75.6956" stroke="black" stroke-linecap="round"/>
<path d="M91.3903 82.5158C96.1768 77.7293 104.69 75.6956 111.283 75.6956" stroke="black" stroke-linecap="round"/>
<path d="M26.5975 87.0627C21.811 82.2762 13.2983 80.2424 6.70508 80.2424" stroke="black" stroke-linecap="round"/>
<path d="M91.3903 87.0627C96.1768 82.2762 104.69 80.2424 111.283 80.2424" stroke="black" stroke-linecap="round"/>
<path d="M26.5978 51.8244C19.2089 48.9828 10.7507 40.8718 5 35.3423" stroke="black" stroke-linecap="round"/>
<path d="M5 39.3208C8.429 43.1533 13.5253 46.7094 16.6755 51.1612C12.789 50.1895 8.98945 49.4755 5.51285 47.4404" stroke="black" stroke-linecap="round" stroke-linejoin="round"/>
<path d="M5.51221 53.2874C12.1865 54.5897 19.7919 56.9398 26.5969 56.9398" stroke="black" stroke-linecap="round"/>
<path d="M44.7852 58.6448C50.7282 58.6448 69.2244 58.6447 73.2029 64.8968" stroke="black" stroke-linecap="round"/>
<path d="M44.7852 54.0979C50.7282 54.0979 68.6561 54.098 73.2029 59.7816" stroke="black" stroke-linecap="round"/>
<path d="M26.5977 6.35618C26.5977 41.0271 26.7753 78.5224 26.7753 113.207C26.745 116.778 32.256 117 35.6393 117C38.9204 117 44.8147 116.411 44.785 113.207V44.436M44.785 6.35618V38.1841M35.6394 2.9565C35.6394 2.9565 26.628 2.61185 26.5978 6.17068C26.5675 9.74178 32.256 10.1491 35.6394 10.1491C38.9204 10.1492 44.7106 9.37461 44.681 6.17069C44.6478 2.5918 35.6394 2.9565 35.6394 2.9565Z" stroke="black" stroke-linecap="round"/>
<path d="M73.2026 6.35618C73.2026 14.9267 73.2135 23.6699 73.2298 32.5005M91.39 6.35618V27.721M73.2298 38.1841C73.2819 63.4615 73.3802 88.7489 73.3802 113.207C73.35 116.778 78.861 117 82.2443 117C85.5254 117 91.4197 116.411 91.39 113.207L91.39 34.5158M82.2443 2.9565C82.2443 2.9565 73.2329 2.61185 73.2028 6.17068C73.1725 9.74178 78.861 10.1491 82.2443 10.1491C85.5254 10.1492 91.3156 9.37461 91.2859 6.17069C91.2528 2.5918 82.2443 2.9565 82.2443 2.9565Z" stroke="black" stroke-linecap="round"/>
</svg>
