<svg width="120" height="120" viewBox="0 0 120 120" fill="none" xmlns="http://www.w3.org/2000/svg">
    <path d="M84.5 10.5C75.4186 4.06718 70 4.5 59 4C52.5 4 33.7242 11.8517 33.7242 28.3379C33.7242 32.9612 28.4581 38.3755 28.4581 38.3755C28.4581 38.3755 24.4463 41.8167 26.4787 44.0898C26.9674 44.6364 31.2882 45.444 31.67 46.1167C32.0174 46.3632 31.0094 49.7551 31.0094 51.2608C31.0094 53.6844 33.5981 53.3474 35.4048 53.7515C37.6707 54.2584 39.8046 55.6805 40.5962 57.4733C40.0946 59.2627 38.2647 58.4508 36.0771 58.4508C33.9235 58.4508 34.3964 59.6434 34.3964 61.4959C34.3964 64.705 43.276 65.2177 45.302 65.2177C51.7643 65.2177 53.0381 78.7516 47.1694 78.7516C36.6079 78.7516 25.1653 83.4671 17.3817 94.015C11.5729 101.887 10 108.304 10 118H107C107 110.004 104.5 101 102.257 94.015C100.589 84.7831 83.2721 79.4285 74.7316 79.4285C71.5372 79.4285 72.0426 76.0119 72.0426 73.6766C72.0426 66.5948 76.1744 58.4947 80.5 55.5C87 51 90 46.1167 91.5 38.3755C92 29.8755 90.5 16 84.5 10.5Z" fill="#C4C4C4"/>
    <path d="M61.6328 74.8892C54.8632 85.5221 48.1583 96.8195 43.4648 104.13H79.0009C73.6369 94.1613 67.6025 84.8575 61.6328 74.8892Z" fill="#F5F5F5"/>
    <path d="M59.5 4L59.5 3.5L59.5 4ZM82.5 9L82.789 8.59199L82.771 8.57923L82.7519 8.56811L82.5 9ZM91 39.5L91.4969 39.5552L91 39.5ZM102.257 94.015L101.765 94.1038L101.771 94.1364L101.781 94.1678L102.257 94.015ZM106.5 118C106.5 118.276 106.724 118.5 107 118.5C107.276 118.5 107.5 118.276 107.5 118H106.5ZM28.4581 38.3755L28.7837 38.755L28.8008 38.7403L28.8166 38.7241L28.4581 38.3755ZM26.4787 44.0898L26.106 44.4231L26.4787 44.0898ZM31.67 46.1166L31.2352 46.3635L31.2901 46.4601L31.3807 46.5244L31.67 46.1166ZM35.4048 53.7515L35.514 53.2635H35.514L35.4048 53.7515ZM40.5962 57.4733L41.0776 57.6083L41.126 57.4355L41.0536 57.2713L40.5962 57.4733ZM17.3817 94.015L17.7841 94.3119L17.3817 94.015ZM9.5 118C9.5 118.276 9.72386 118.5 10 118.5C10.2761 118.5 10.5 118.276 10.5 118H9.5ZM59.5 4.5C70.941 4.49984 76.3465 5.98939 82.2481 9.43189L82.7519 8.56811C76.6535 5.01075 71.059 3.49984 59.5 3.5L59.5 4.5ZM71.5426 73.6766C71.5426 73.9612 71.5349 74.2632 71.5272 74.5822C71.5197 74.8988 71.5122 75.2303 71.5135 75.5624C71.5161 76.2228 71.5528 76.9145 71.7028 77.5441C71.853 78.1749 72.1263 78.7831 72.6318 79.232C73.145 79.6876 73.84 79.9284 74.7316 79.9284V78.9284C74.026 78.9284 73.5863 78.7422 73.2958 78.4842C72.9976 78.2195 72.7983 77.8276 72.6756 77.3124C72.5526 76.7959 72.516 76.1956 72.5135 75.5585C72.5123 75.242 72.5194 74.9234 72.527 74.6061C72.5345 74.2914 72.5426 73.9758 72.5426 73.6766H71.5426ZM101.781 94.1678C104.023 101.15 106.5 110.089 106.5 118H107.5C107.5 109.919 104.977 100.85 102.733 93.8621L101.781 94.1678ZM33.2242 28.3378C33.2242 30.4889 31.9856 32.8904 30.678 34.8088C30.0323 35.7562 29.3856 36.5631 28.9003 37.1331C28.6578 37.4179 28.4562 37.6428 28.3158 37.7959C28.2457 37.8725 28.1909 37.931 28.154 37.97C28.1356 37.9895 28.1216 38.0041 28.1124 38.0137C28.1079 38.0184 28.1045 38.0219 28.1024 38.0242C28.1013 38.0253 28.1005 38.026 28.1001 38.0265C28.0999 38.0267 28.0997 38.0269 28.0997 38.0269C28.0996 38.027 28.0996 38.027 28.0996 38.027C28.0997 38.0269 28.0997 38.0269 28.4581 38.3755C28.8166 38.7241 28.8167 38.724 28.8168 38.7239C28.8168 38.7238 28.817 38.7237 28.8171 38.7236C28.8174 38.7233 28.8177 38.7229 28.8181 38.7225C28.8189 38.7217 28.8201 38.7205 28.8216 38.7189C28.8245 38.7159 28.8287 38.7116 28.834 38.706C28.8448 38.6947 28.8604 38.6784 28.8806 38.6571C28.9208 38.6145 28.9792 38.5522 29.053 38.4717C29.2006 38.3106 29.4104 38.0765 29.6617 37.7814C30.1637 37.1918 30.8335 36.3562 31.5043 35.372C32.8298 33.4274 34.2242 30.8102 34.2242 28.3378H33.2242ZM26.106 44.4231C26.2431 44.5765 26.4514 44.6846 26.6186 44.761C26.8067 44.847 27.0354 44.9322 27.2814 45.0159C27.7729 45.1829 28.3843 45.3601 28.9716 45.5351C29.5682 45.7129 30.1416 45.8889 30.5875 46.0599C30.811 46.1456 30.9873 46.2244 31.1123 46.2947C31.2592 46.3773 31.2602 46.4075 31.2352 46.3635L32.1049 45.8698C31.9844 45.6576 31.7668 45.5154 31.6025 45.423C31.4161 45.3182 31.1884 45.2193 30.9455 45.1262C30.4586 44.9394 29.8497 44.7533 29.2572 44.5767C28.6556 44.3975 28.0713 44.2282 27.6032 44.0691C27.3695 43.9896 27.1774 43.9169 27.0342 43.8515C26.8701 43.7764 26.8365 43.7398 26.8514 43.7565L26.106 44.4231ZM30.5094 51.2608C30.5094 51.9611 30.6991 52.5177 31.0628 52.9413C31.4186 53.3556 31.8975 53.5918 32.3823 53.7412C32.8649 53.8901 33.3973 53.9657 33.8928 54.0287C34.4045 54.0937 34.8733 54.145 35.2957 54.2394L35.514 53.2635C35.033 53.156 34.5007 53.0978 34.0189 53.0366C33.5208 52.9734 33.0673 52.906 32.677 52.7856C32.2887 52.6659 32.0076 52.5066 31.8215 52.2899C31.6434 52.0824 31.5094 51.7723 31.5094 51.2608H30.5094ZM36.0771 57.9508C35.5046 57.9508 35.0325 58.0278 34.6669 58.2269C34.2735 58.4411 34.0549 58.7675 33.9483 59.1416C33.8497 59.4875 33.8457 59.8789 33.8564 60.2529C33.868 60.6557 33.8964 61.0385 33.8964 61.4959H34.8964C34.8964 61.027 34.8658 60.566 34.856 60.2242C34.8453 59.8535 34.8576 59.5995 34.91 59.4157C34.9544 59.26 35.0214 59.1725 35.1451 59.1052C35.2965 59.0227 35.5728 58.9508 36.0771 58.9508V57.9508ZM28.4581 38.3755C28.1326 37.996 28.1325 37.9961 28.1324 37.9962C28.1323 37.9963 28.1321 37.9964 28.132 37.9965C28.1317 37.9967 28.1314 37.997 28.131 37.9973C28.1302 37.998 28.1292 37.9989 28.128 38C28.1255 38.0021 28.122 38.0051 28.1176 38.009C28.1089 38.0166 28.0965 38.0275 28.0808 38.0415C28.0494 38.0695 28.0046 38.1101 27.9488 38.162C27.8375 38.2658 27.6821 38.4155 27.5026 38.6021C27.1455 38.9736 26.6851 39.4994 26.2879 40.1064C25.8941 40.7083 25.5402 41.423 25.4354 42.1684C25.3277 42.9344 25.4859 43.7295 26.106 44.4231L26.8514 43.7565C26.4553 43.3135 26.3528 42.826 26.4257 42.3076C26.5015 41.7684 26.7696 41.1966 27.1247 40.654C27.4764 40.1166 27.8919 39.6401 28.2235 39.2952C28.3884 39.1237 28.5305 38.9869 28.6306 38.8936C28.6806 38.847 28.72 38.8114 28.7464 38.7879C28.7595 38.7761 28.7694 38.7674 28.7757 38.7619C28.7789 38.7591 28.7812 38.7572 28.7825 38.756C28.7832 38.7554 28.7836 38.7551 28.7838 38.7549C28.7839 38.7548 28.7839 38.7548 28.7839 38.7548C28.7839 38.7548 28.7838 38.7549 28.7838 38.7549C28.7838 38.7549 28.7837 38.755 28.4581 38.3755ZM31.3807 46.5244C31.2714 46.4469 31.2435 46.3507 31.2412 46.343C31.2363 46.3268 31.2401 46.3313 31.242 46.3705C31.2456 46.4472 31.2388 46.5726 31.217 46.7524C31.1739 47.1075 31.0843 47.5835 30.9793 48.1206C30.7765 49.1579 30.5094 50.446 30.5094 51.2608H31.5094C31.5094 50.5698 31.7463 49.4092 31.9607 48.3124C32.0643 47.7825 32.1615 47.2702 32.2097 46.8729C32.2336 46.6766 32.2485 46.4848 32.2408 46.3229C32.237 46.2428 32.2268 46.1477 32.1985 46.054C32.1728 45.9688 32.1121 45.8172 31.9594 45.7089L31.3807 46.5244ZM59.5 3.5C54.6349 3.50007 48.0851 5.50244 42.7457 9.58963C37.3919 13.6878 33.2242 19.9088 33.2242 28.3378H34.2242C34.2242 20.2808 38.1944 14.3329 43.3535 10.3837C48.527 6.42354 54.8651 4.50007 59.5 4.5L59.5 3.5ZM82.211 9.40801C86.1861 12.2238 88.5244 17.4458 89.7331 23.1722C90.9381 28.8815 90.9981 34.9896 90.5031 39.4448L91.4969 39.5552C92.0019 35.0104 91.9416 28.7939 90.7115 22.9657C89.485 17.1547 87.0733 11.6268 82.789 8.59199L82.211 9.40801ZM90.5031 39.4448C90.1158 42.9301 89.1417 45.4708 87.5474 47.6895C85.9433 49.922 83.6932 51.8552 80.7 54.1L81.3 54.9C84.3068 52.6449 86.6614 50.6363 88.3595 48.273C90.0676 45.8959 91.0935 43.1865 91.4969 39.5552L90.5031 39.4448ZM80.7 54.1C78.5074 55.7445 76.2248 58.8459 74.4935 62.3973C72.7594 65.9545 71.5426 70.0358 71.5426 73.6766H72.5426C72.5426 70.2356 73.7 66.307 75.3924 62.8355C77.0876 59.3582 79.2838 56.4122 81.3 54.9L80.7 54.1ZM40.1147 57.3384C40.015 57.694 39.8687 57.8632 39.718 57.9589C39.5521 58.0643 39.3134 58.1239 38.9558 58.1332C38.5969 58.1426 38.1819 58.1012 37.6847 58.0521C37.1997 58.0041 36.652 57.9508 36.0771 57.9508V58.9508C36.596 58.9508 37.0974 58.9989 37.5863 59.0472C38.0632 59.0944 38.5472 59.1442 38.9819 59.1329C39.4179 59.1215 39.8675 59.0487 40.2542 58.803C40.656 58.5477 40.9265 58.1473 41.0776 57.6083L40.1147 57.3384ZM35.2957 54.2394C37.4656 54.7248 39.4323 56.0752 40.1388 57.6753L41.0536 57.2713C40.1768 55.2857 37.8758 53.7919 35.514 53.2635L35.2957 54.2394ZM33.8964 61.4959C33.8964 62.5663 34.6442 63.3319 35.5653 63.8642C36.4966 64.4023 37.7296 64.7805 38.9848 65.0491C41.503 65.5881 44.2667 65.7177 45.302 65.7177V64.7177C44.3112 64.7177 41.6222 64.591 39.1941 64.0713C37.9761 63.8106 36.8627 63.4589 36.0657 62.9983C35.2586 62.532 34.8964 62.03 34.8964 61.4959H33.8964ZM47.1694 78.2516C36.4615 78.2516 24.8643 83.0328 16.9794 93.7181L17.7841 94.3119C25.4662 83.9013 36.7543 79.2516 47.1694 79.2516V78.2516ZM45.302 65.7177C46.7197 65.7177 47.8749 66.453 48.7431 67.6293C49.6167 68.813 50.1745 70.4167 50.3632 72.0423C50.5522 73.6711 50.3639 75.2618 49.8109 76.4217C49.2673 77.5619 48.3982 78.2516 47.1694 78.2516V79.2516C48.875 79.2516 50.0473 78.2495 50.7136 76.8521C51.3704 75.4744 51.5601 73.6816 51.3565 71.927C51.1525 70.1691 50.5469 68.3893 49.5476 67.0354C48.5429 65.6741 47.1155 64.7177 45.302 64.7177V65.7177ZM74.7316 79.9284C78.9228 79.9284 85.3183 81.2485 90.8684 83.7166C93.6404 84.9493 96.1782 86.4582 98.1182 88.212C100.059 89.9665 101.374 91.94 101.765 94.1038L102.749 93.9261C102.306 91.474 100.831 89.3162 98.7888 87.4702C96.746 85.6235 94.1081 84.0628 91.2748 82.8029C85.6143 80.2857 79.0809 78.9284 74.7316 78.9284V79.9284ZM16.9794 93.7181C14.0476 97.6912 12.1719 101.315 11.0329 105.182C9.89502 109.046 9.5 113.126 9.5 118H10.5C10.5 113.178 10.8914 109.202 11.9922 105.465C13.0919 101.731 14.907 98.2107 17.7841 94.3119L16.9794 93.7181Z" fill="black"/>
    <path d="M61.5672 98.813C60.6731 98.8129 60.6728 100.142 61.5671 100.142C62.4609 100.142 62.4609 98.8131 61.5672 98.813Z" stroke="black" stroke-linecap="round" stroke-linejoin="round"/>
    <path d="M61.5684 93.9942V82.1997" stroke="black" stroke-linecap="round" stroke-linejoin="round"/>
    <path d="M61.6328 74.8892C54.8632 85.5221 48.1583 96.8195 43.4648 104.13H79.0009C73.6369 94.1613 67.6025 84.8575 61.6328 74.8892Z" stroke="black" stroke-linecap="round" stroke-linejoin="round"/>
</svg>
