<svg width="80" height="81" viewBox="0 0 80 81" fill="none" xmlns="http://www.w3.org/2000/svg">
    <path d="M11.6185 12.9624C14.5528 10.0281 16.3369 7.05471 15.6033 6.32113C14.9607 5.67853 12.5994 6.96782 10.0512 9.26987L7.92596 11.3951C5.62391 13.9433 4.33463 16.3046 4.97723 16.9472C5.7108 17.6808 8.68421 15.8967 11.6185 12.9624Z" fill="#F4F4F4"/>
    <path d="M63.4851 42.2879C66.7914 19.7467 64.1116 14.362 62.358 14.4871C52.2144 13.3601 33.8057 35.9012 31.9273 40.4095C30.4245 44.0161 13.5186 66.2067 5.25342 76.8512C23.2866 74.7224 41.6952 73.8457 63.4851 42.2879Z" fill="#F4F4F4"/>
    <path d="M44.7009 44.9177C44.7009 44.3166 43.574 44.2696 43.574 43.7906C45.0768 43.4149 44.3253 39.658 46.5795 38.531C46.5795 38.531 46.88 38.1553 48.0822 38.1553C49.585 38.1553 52.2148 47.9232 46.2037 50.553C40.3691 53.1056 39.9422 49.1755 40.5684 47.1718C40.5684 47.1718 42.4469 47.1718 42.8226 45.2933C43.1983 45.669 44.3254 46.0447 44.3254 46.0447C44.4506 45.7943 44.7009 45.5188 44.7009 44.9177Z" fill="#FAFAFA"/>
    <ellipse cx="4.84457" cy="6.18828" rx="3.75688" ry="0.93922" transform="rotate(-45 4.84457 6.18828)" fill="#F4F4F4"/>
    <path d="M44.5954 45.9626C44.8483 45.7097 44.6128 45.0642 44.4447 44.8962L40.4892 40.9407C40.5013 41.3343 40.335 42.0686 39.5735 41.8564L43.529 45.8119C43.697 45.98 44.3425 46.2155 44.5954 45.9626Z" fill="#FAFAFA"/>
    <path d="M10.2899 11.6341C9.703 12.221 9.10832 12.5778 8.96161 12.4311L4.71118 8.18066L6.83639 6.05545L11.0868 10.3059C11.2335 10.4526 10.8767 11.0473 10.2899 11.6341Z" fill="#FAFAFA"/>
    <path d="M41.1065 40.324C40.8798 40.8852 40.7369 41.225 40.3089 41.6529C39.881 42.0806 39.5415 42.2234 38.9806 42.4499C37.1302 43.1972 35.2083 42.9281 33.9332 41.6529L8.43066 16.1504L14.8063 9.77475L40.3089 35.2773C41.584 36.5524 41.8537 38.4738 41.1065 40.324Z" fill="#F4F4F4"/>
    <path d="M34.1989 41.9182L32.3394 40.0586C33.0478 39.7044 34.7834 38.6772 36.0585 37.4021C37.3336 36.127 38.3608 34.3914 38.715 33.683L40.5746 35.5425C40.486 36.1624 39.8839 37.8271 38.1837 39.5273C36.4835 41.2275 34.8188 41.8296 34.1989 41.9182Z" fill="#999999"/>
    <path d="M37.6522 34.214C37.2272 35.0641 36.7667 35.6308 36.5896 35.8079C34.9957 34.2139 15.6029 14.8217 13.4779 12.6962C13.903 12.2712 14.2749 11.5451 14.5405 11.1023L37.6522 34.214Z" fill="#FAFAFA"/>
    <path d="M9.22753 14.8215L9.75884 12.165L11.3527 10.5711L10.0245 9.24285L13.2123 7.11763C14.2749 6.05503 16.1345 5.78938 15.3375 7.64894C14.1186 10.4931 10.91 13.6704 9.22753 14.8215Z" fill="#FAFAFA"/>
    <path d="M38.4491 33.4173C38.8893 33.8575 37.8188 35.6415 36.0583 37.4021C34.2977 39.1627 32.5136 40.2331 32.0735 39.793" stroke="black" stroke-linecap="round" stroke-linejoin="round"/>
    <path d="M34.1981 29.1676C34.6382 29.6078 33.5678 31.3918 31.8072 33.1524" stroke="black" stroke-linecap="round" stroke-linejoin="round"/>
    <path d="M31.276 26.2448C31.7161 26.6849 30.6457 28.469 28.8851 30.2296" stroke="black" stroke-linecap="round" stroke-linejoin="round"/>
    <path d="M28.3543 23.3229C28.7945 23.7631 27.724 25.5471 25.9635 27.3077" stroke="black" stroke-linecap="round" stroke-linejoin="round"/>
    <path d="M25.4315 20.401C25.8716 20.8412 24.8012 22.6252 23.0406 24.3858" stroke="black" stroke-linecap="round" stroke-linejoin="round"/>
    <path d="M22.5098 17.4782C22.95 17.9183 21.8796 19.7024 20.119 21.463" stroke="black" stroke-linecap="round" stroke-linejoin="round"/>
    <path d="M19.587 14.5563C20.0271 14.9965 18.9567 16.7805 17.1961 18.5411" stroke="black" stroke-linecap="round" stroke-linejoin="round"/>
    <path d="M16.6654 11.6344C17.1055 12.0746 16.0351 13.8586 14.2745 15.6192" stroke="black" stroke-linecap="round" stroke-linejoin="round"/>
    <path d="M7.92572 11.3951C5.62366 13.9433 4.33438 16.3046 4.97698 16.9472C5.71056 17.6808 8.68396 15.8967 11.6183 12.9624C14.5526 10.0281 16.3366 7.05471 15.603 6.32113C14.9604 5.67853 12.5991 6.96782 10.0509 9.26987" stroke="black" stroke-linecap="round" stroke-linejoin="round"/>
    <ellipse cx="4.84359" cy="6.18828" rx="3.75688" ry="0.93922" transform="rotate(-45 4.84359 6.18828)" stroke="black" stroke-linecap="round" stroke-linejoin="round"/>
    <path d="M40.1924 42.4121L43.6459 45.8656C43.7926 46.0123 44.373 46.2011 44.6145 45.9595C44.8561 45.7179 44.6674 45.1375 44.5206 44.9908L41.0672 41.5373" stroke="black" stroke-linecap="round" stroke-linejoin="round"/>
    <path d="M4.71094 8.18066L8.96136 12.4311C9.10808 12.5778 9.70276 12.221 10.2896 11.6341C10.8765 11.0473 11.2333 10.4526 11.0866 10.3059L6.83615 6.05545" stroke="black" stroke-linecap="round" stroke-linejoin="round"/>
    <path d="M40.3079 35.2773L40.6614 34.9237L40.3079 35.2773ZM33.9322 41.6529L34.2858 41.2994L33.9322 41.6529ZM41.1055 40.324L41.5692 40.5112L41.1055 40.324ZM40.3079 41.6529L40.6614 42.0065L40.3079 41.6529ZM38.9796 42.4499L39.1669 42.9135L39.1669 42.9135L38.9796 42.4499ZM15.1589 9.4212C14.9636 9.22594 14.647 9.22594 14.4518 9.4212C14.2565 9.61646 14.2565 9.93305 14.4518 10.1283L15.1589 9.4212ZM8.78324 15.7968C8.58798 15.6016 8.2714 15.6016 8.07613 15.7968C7.88087 15.9921 7.88087 16.3087 8.07613 16.5039L8.78324 15.7968ZM39.9543 35.6309C39.9123 35.5888 39.9158 35.559 39.9217 35.5951C39.9275 35.6302 39.9302 35.6987 39.9143 35.8074C39.8826 36.0246 39.7882 36.3287 39.6172 36.6965C39.2772 37.4276 38.6708 38.3325 37.8291 39.1742L38.5362 39.8813C39.4551 38.9624 40.1314 37.9622 40.5239 37.1182C40.7191 36.6985 40.8534 36.2976 40.9038 35.9517C40.9291 35.7788 40.9361 35.6012 40.9085 35.4331C40.8811 35.266 40.8135 35.0759 40.6614 34.9237L39.9543 35.6309ZM37.8291 39.1742C36.9874 40.0158 36.0825 40.6222 35.3514 40.9622C34.9837 41.1333 34.6796 41.2277 34.4623 41.2594C34.3536 41.2752 34.2852 41.2726 34.25 41.2668C34.2139 41.2609 34.2437 41.2573 34.2858 41.2994L33.5787 42.0065C33.7308 42.1586 33.921 42.2262 34.088 42.2536C34.2561 42.2812 34.4337 42.2741 34.6066 42.2489C34.9525 42.1985 35.3534 42.0642 35.7731 41.869C36.6171 41.4765 37.6173 40.8002 38.5362 39.8813L37.8291 39.1742ZM40.6419 40.1367C40.419 40.6886 40.3066 40.9472 39.9544 41.2993L40.6614 42.0065C41.1653 41.5028 41.3387 41.0818 41.5692 40.5112L40.6419 40.1367ZM39.9544 41.2993C39.6023 41.6512 39.344 41.7635 38.7924 41.9863L39.1669 42.9135C39.7371 42.6832 40.1578 42.51 40.6614 42.0065L39.9544 41.2993ZM14.4518 10.1283L39.9543 35.6309L40.6614 34.9237L15.1589 9.4212L14.4518 10.1283ZM8.07613 16.5039L33.5787 42.0065L34.2858 41.2994L8.78324 15.7968L8.07613 16.5039ZM38.7924 41.9863C37.0904 42.6736 35.3924 42.406 34.2858 41.2994L33.5787 42.0065C35.0223 43.4501 37.1681 43.7207 39.1669 42.9135L38.7924 41.9863ZM41.5692 40.5112C42.3763 38.5125 42.105 36.3673 40.6614 34.9237L39.9543 35.6309C41.061 36.7376 41.3291 38.4351 40.6419 40.1367L41.5692 40.5112Z" fill="black"/>
    <path d="M62.2896 14.3125C57.1306 15.7386 52.7895 17.7218 48.8278 21.0232C44.6213 24.5286 40.9376 28.4332 37.5627 32.5699M5.16772 76.528C15.8664 65.8293 23.1498 52.3894 31.915 40.0336" stroke="black" stroke-linecap="round"/>
    <path d="M63.3812 41.9641C64.3064 36.1816 64.8366 29.6358 64.8366 23.7725C64.8366 21.938 65.363 11.9001 61.1982 14.6766" stroke="black" stroke-linecap="round"/>
    <path d="M67.3833 39.4172C68.4342 33.9001 71.5543 18.2115 66.6557 13.5851C64.9102 11.9365 62.8466 12.6 61.562 14.3127" stroke="black" stroke-linecap="round"/>
    <path d="M46.5792 38.5312C50.7118 36.2771 51.5393 46.6379 48.082 49.426C45.5365 51.4788 39.6004 53.435 40.4595 47.4217" stroke="black" stroke-linecap="round"/>
    <path d="M67.3833 13.9496C70.4979 12.8372 73.6291 12.2335 78.1374 14.4875" stroke="black" stroke-linecap="round"/>
</svg>
