<svg width="120" height="120" viewBox="0 0 120 120" fill="none" xmlns="http://www.w3.org/2000/svg">
<path d="M32.6819 17.5521C31.58 10.537 34.349 5.58909 42.3974 4.49631C49.1885 3.57423 51.89 7.44536 52.8767 13.6979C53.942 20.4481 51.2959 26.705 44.0753 27.3199C37.481 27.8815 33.7088 24.0898 32.6819 17.5521Z" fill="#F2F2F2"/>
<path d="M44.0753 27.3199C42.5023 27.4539 41.0898 27.3401 39.8369 27.0004C39.1835 35.0053 35.1944 25.6139 30.6277 33.0777C27.6799 36.5542 24.2402 41.9938 23.3877 47.8237C22.4906 53.0194 22.7769 58.503 25.6393 61.0201C29.452 60.6541 28.2824 50.5474 29.2482 49.1774C32.1457 45.0672 31.1645 40.6409 33.1365 41.14C40.4973 43.0028 34.0277 68.5497 33.5675 73.1105C32.6225 79.3938 31.3983 86.5651 31.7927 95.328C32.2992 106.579 36.0847 117.849 40.6113 118.309C44.2956 118.683 41.0398 107.314 41.9788 95.8578C42.6359 87.8409 47.707 79.7564 48.5896 75.7289C50.0269 79.4768 56.9191 85.6139 58.5746 93.135C60.9991 104.15 58.3035 116.611 61.1194 116.34C64.2157 116.043 67.8166 103.63 66.8724 91.7735C66.0826 81.8546 60.9737 72.3373 60.6136 70.5147C59.0406 62.5531 52.7561 47.5144 53.5678 40.4563C54.8799 36.1507 59.7965 46.8841 63.7491 48.4208C66.3375 48.811 76.1056 51.0669 79.6386 46.8958C81.3118 43.5417 66.1194 43.293 65.1892 41.8958C61.5923 36.4928 57.7638 31.7508 55.9491 29.3702C53.9025 27.6506 48.452 31.9368 48.0325 26.2309C46.9105 26.8116 45.5941 27.1906 44.0753 27.3199Z" fill="#F2F2F2"/>
<path d="M43.4993 32.0001C41.7183 32.0189 40.3821 28.1278 39.8365 27.2058C42.4934 28.5137 46.1432 27.3251 47.636 26.5673C48.0004 27.1201 48.4993 29.0001 48.9993 29.5001C49.3885 29.8893 45.7257 31.9766 43.4993 32.0001Z" fill="#999999"/>
<path d="M40.4993 10.4999C39.9361 11.0625 37.9992 16.9999 40.4993 16.9999C42.9994 16.9999 41.0493 11.0507 40.4993 10.4999Z" fill="#999999"/>
<path d="M37.9993 7.49992C38.5493 8.05075 40.2161 13.0001 37.9996 13.0001C35.7831 13.0001 37.4359 8.06247 37.9993 7.49992Z" fill="#999999"/>
<path d="M35.4998 10C35.4998 10 31.9996 20 35.4996 20C38.9996 20.0001 35.4998 10 35.4998 10Z" fill="#999999"/>
<path d="M33.9997 38.0001C31.9997 36.4001 29.4995 40.5 30.9997 42C32.4991 39.5 35.8324 43.8333 36.4995 45.0001L36.5 44.0001C36.4998 43.3333 35.9997 39.6001 33.9997 38.0001Z" fill="#999999"/>
<path d="M53.5 36C54.7 36 56.4993 40.0001 56.4993 41.0001C56.4993 41.0001 54.5 40.0001 53.5 40.0001C52.5 40.0001 53.5 43.5001 53 43.0001C52.5 42.5001 51.5 42 51 40C50.5175 38.07 52 36 53.5 36Z" fill="#999999"/>
<path d="M87.6618 2.18884C79.9814 14.1067 72.3639 26.7638 67.0398 34.9578L106.606 34.5412C100.768 23.5054 94.1743 13.2175 87.6618 2.18884Z" fill="#B3B3B3"/>
<path d="M39.4239 27.8873C38.4757 35.4547 34.7995 25.7439 30.3614 33.0962C27.4805 36.5121 24.1356 41.8692 23.3603 47.6404C22.5333 52.7822 22.8828 58.2219 25.7509 60.7473C29.5265 60.4244 28.2457 50.3919 29.1868 49.0436C32.0102 44.9988 30.9843 40.6002 32.9454 41.1156C40.2654 43.0394 34.1577 68.3001 33.7561 72.8171C32.8945 79.0368 31.7668 86.1339 32.263 94.826C32.9 105.986 36.7882 117.199 41.2816 117.702C44.9387 118.112 41.5745 106.806 42.3681 95.4576C42.9234 87.5162 47.854 79.5537 48.6808 75.57C50.1508 79.3008 57.0574 85.4573 58.7889 92.9313C61.3247 103.878 58.8017 116.203 61.5902 115.965C64.6564 115.702 68.0775 103.433 66.9993 91.6682C66.0973 81.8259 60.9181 72.3366 60.5392 70.5258C58.8842 62.616 52.4732 47.6404 53.1933 40.6511C54.4425 36.396 59.4457 47.0889 63.3829 48.6537C65.9538 49.0676 75.6652 51.4063 79.1178 47.3076C80.7365 43.9998 65.6713 43.5945 64.7324 42.1996C61.1015 36.8053 57.2489 32.0639 55.4213 29.6847C53.3716 27.9584 48.0399 32.278 47.5556 26.6165M41.6874 4.88213C33.7212 5.88154 31.0353 10.7582 32.2119 17.7248C33.3083 24.2172 37.0937 28.0159 43.6247 27.528C50.776 26.9937 53.3244 20.818 52.1873 14.1144C51.134 7.90506 48.4093 4.03885 41.6874 4.88213Z" stroke="black" stroke-linecap="round" stroke-linejoin="round"/>
<path d="M40.5225 22.4036C42.178 20.932 45.8203 18.5406 47.1448 20.7481" stroke="black" stroke-linecap="round"/>
<path d="M20.5005 51C20.0005 52 19.3005 54.3 20.5005 55.5" stroke="black" stroke-linecap="round"/>
<path d="M60.2282 50C60.9948 50.8138 62.9131 52.2629 64.453 51.5495" stroke="black" stroke-linecap="round"/>
<path d="M71.049 94.6267C71.3021 93.5376 71.4465 91.1378 69.9998 90.2507" stroke="black" stroke-linecap="round"/>
<path d="M28.7331 96.961C28.531 98.0606 28.4984 100.465 29.9849 101.283" stroke="black" stroke-linecap="round"/>
<path d="M18.0001 52C17.2455 52.6667 17 54 18.0001 55" stroke="black" stroke-linecap="round"/>
<path d="M60.3058 52.6917C60.6719 53.6297 61.8391 54.3193 63.1224 53.7247" stroke="black" stroke-linecap="round"/>
<path d="M73.2476 93.0714C73.826 92.2472 73.7538 90.8934 72.5481 90.1541" stroke="black" stroke-linecap="round"/>
<path d="M26.6088 98.6166C26.0694 99.4669 26.2045 100.816 27.4433 101.498" stroke="black" stroke-linecap="round"/>
<path d="M87.543 28.3901C86.5561 28.39 86.5559 29.8571 87.5429 29.8571C88.5294 29.8571 88.5294 28.3902 87.543 28.3901Z" stroke="black" stroke-linecap="round" stroke-linejoin="round"/>
<path d="M87.5449 23.0715V10.0537" stroke="black" stroke-linecap="round" stroke-linejoin="round"/>
<path d="M87.6167 1.98486C80.145 13.7206 72.7447 26.1898 67.5645 34.2582H106.786C100.866 23.2559 94.2057 12.9871 87.6167 1.98486Z" stroke="black" stroke-linecap="round" stroke-linejoin="round"/>
</svg>
