<svg width="120" height="120" viewBox="0 0 120 120" fill="none" xmlns="http://www.w3.org/2000/svg">
    <path d="M56.0005 63.5C56.4233 62.0077 57.4889 54.8707 59.2889 54.3564C62.1887 53.5279 64.5677 56.9726 64.4696 59.7198C64.4242 60.9923 63.5219 62.631 61 61.7992C61.2076 63.0966 60.3439 68.2836 61.8338 69.0286C62.5981 69.4107 63.319 69.6651 64 69.8057C66.8882 70.4018 69.0568 68.949 70.7573 66.5C68.1123 66.8779 63.2158 67.0889 65.7122 63.3443C66.5859 62.0338 72.8152 63.1646 71.2734 65.7042C71.1062 65.9795 70.9343 66.2451 70.7573 66.5C69.0568 68.949 66.8882 70.4018 64 69.8057C65.3333 70.5371 69.6 71.2 76 68L76.5 69.6442C72.3785 73.2505 68.5074 74.9632 63.3522 72.6199C60.9865 71.5446 58.6038 70.3141 56.0005 68.6526C55.6708 68.4422 55.3376 68.2248 55.0004 68C52.7633 61.7544 40.9214 56.477 35.5191 60.8203C34.5147 68.8907 36.3552 77.2511 33.7308 84.9859C31.7964 89.2499 28.3375 93.9406 23.3632 93.9406C15.6142 93.9406 8.37618 85.2957 7.07114 78.1041C5.23327 67.9762 2.92137 57.2705 4.32054 46.9079C5.65511 37.0236 5.26022 12.6913 19.5547 14.3021C28.3683 17.5019 37.0004 24.1351 37.0004 34.2055C37.0004 40.1889 34.2071 49.8052 36.7513 55C42.1267 52.8494 54.3289 57.1799 56.0005 63.5Z" fill="#E6E6E6"/>
    <path d="M18.4677 22C12.8041 22 10.9013 30.0603 10.6655 36.5C12.4221 32.3333 16.4419 24.4 18.4677 26C21 28 28.8097 37.5 28.4051 45.5C29.5726 36.9897 29.3528 23.357 18.4677 22Z" fill="#C4C4C4"/>
    <path d="M23.5 82.5C26.1025 80.5461 28.5 71.8686 28.5 68.5C28.5 65.7981 25.9693 62.5554 24.5515 59.5C24.201 61.6667 23.5 67.2 23.5 72C23.5 76.8 16.8333 76.3333 13.5 75.5C13.5 78.6854 19.1144 85.7926 23.5 82.5Z" fill="#C4C4C4"/>
    <path d="M72.0002 45C72.5002 51.5 80.8895 57.8893 83.0002 60L82.5002 60.5001L80.5002 61.5C76.7769 60.9681 68.4953 59.7021 66.0522 56.7161C63.0001 52.5 66.7835 48.782 69.5655 46L70 49C68.9896 51.4369 67.6958 52.5294 69.0071 54.8898C70.4713 57.5254 75.5614 57.7555 78.1672 58.5C71.0397 53.4093 65.7171 40.7715 71.3258 37.0571C77.1519 33.1988 85.9176 32.7741 88.9736 40.0121C91.2655 45.4403 90.5549 54.9456 87.0002 59.5H86.5002C88.3733 54.8724 87.0002 38.0001 80.5002 37.5001C73.9934 36.5001 71.6607 40.5862 72.0002 45Z" fill="#9E9E9E"/>
    <path d="M72.5002 46.5C81.0002 44 84.383 54.4582 84.5002 59.5H85.8133C85.8133 50.1086 82.0002 42.5 72.5002 44.5V46.5Z" fill="#9E9E9E"/>
    <path d="M92.093 62.5442C93.87 65.3666 93.1889 69.3645 94.4362 72.352C95.0506 69.5851 96.72 66.8278 99.8498 64.5963C103.176 62.2251 107.411 60.8876 110.192 63.0367C115.815 67.3813 118.913 73.2704 118 80.5C117.225 86.6391 115.293 92.7574 108.674 94.2283C105.214 94.9972 98.5158 95.5347 95.4173 93.469C87.0042 87.8602 79.2306 78.7415 76.292 68.8236C74.0479 61.2499 88.5362 56.8953 92.093 62.5442Z" fill="#E0E0E0"/>
    <path d="M98.0002 91C85.1179 88.5042 83.1669 72.6667 78.0002 64C78.0002 64 75.8124 67.2186 76.0002 68C78.4002 78 88.0002 87.5 92.5002 91C93.8335 92.1667 98.0002 95.5 106.5 94.5C114.445 93.5653 116.834 88.1667 117 85C116.167 86 114.3 88.2 113.5 89C112.5 90 103.992 92.1609 98.0002 91Z" fill="#C4C4C4"/>
    <path d="M102 85C106 85 109 81.6667 110 80C108.167 81.1667 104 83.5 102 83.5C100 83.5 96.1667 80.5 94.5 79C95.3333 81 98 85 102 85Z" fill="#C4C4C4"/>
    <path d="M103 78L103.5 76.5L105.5 78L103.5 79L103 78Z" fill="#C4C4C4"/>
    <path d="M11.0002 42.5891C9.99991 37.3137 10.6612 22 18.4677 22C30.5002 23.5 29.5005 40 28.0005 48" stroke="black" stroke-linecap="round"/>
    <path d="M26.5 52C19 56 28.5 63.265 28.5 68.5C28.5 71.8686 26.1025 80.5461 23.5 82.5C19.1144 85.7926 13.5 78.6854 13.5 75.5" stroke="black" stroke-linecap="round"/>
    <path d="M86.0367 59.3124C85.9331 59.5683 86.0566 59.8598 86.3126 59.9634C86.5686 60.067 86.8601 59.9435 86.9637 59.6876L86.0367 59.3124ZM80.5002 37.5001L80.4242 37.9943L80.443 37.9971L80.4619 37.9986L80.5002 37.5001ZM72.0002 45L71.5017 45.0383L72.0002 45ZM82.6467 60.3536C82.8419 60.5488 83.1585 60.5488 83.3538 60.3536C83.549 60.1583 83.549 59.8417 83.3538 59.6464L82.6467 60.3536ZM86.606 59.1923C86.4361 59.41 86.4749 59.7242 86.6926 59.8941C86.9103 60.064 87.2245 60.0253 87.3944 59.8076L86.606 59.1923ZM88.9736 40.0121L88.513 40.2066L88.9736 40.0121ZM71.3258 37.0571L71.6018 37.474L71.3258 37.0571ZM82.4021 60.9903C82.6729 61.0445 82.9363 60.8689 82.9905 60.5981C83.0447 60.3273 82.869 60.0639 82.5983 60.0098L82.4021 60.9903ZM84.0003 59.5116C84.0068 59.7877 84.2358 60.0062 84.5118 59.9998C84.7879 59.9934 85.0065 59.7644 85.0001 59.4883L84.0003 59.5116ZM72.3591 46.0203C72.0942 46.0982 71.9426 46.3762 72.0205 46.6411C72.0984 46.906 72.3764 47.0576 72.6413 46.9797L72.3591 46.0203ZM70.9621 48.798C71.0678 48.5429 70.9468 48.2504 70.6917 48.1446C70.4366 48.0389 70.1441 48.1599 70.0383 48.415L70.9621 48.798ZM69.0071 54.8898L69.4442 54.647L69.0071 54.8898ZM78.8628 59.5356C79.1284 59.6115 79.4051 59.4577 79.481 59.1922C79.5568 58.9267 79.4031 58.65 79.1376 58.5741L78.8628 59.5356ZM85.3133 59.5C85.3133 59.7761 85.5372 60 85.8133 60C86.0894 60 86.3133 59.7761 86.3133 59.5H85.3133ZM72.3972 44.0107C72.127 44.0676 71.954 44.3328 72.0109 44.603C72.0678 44.8732 72.333 45.0462 72.6032 44.9893L72.3972 44.0107ZM69.919 46.3536C70.1143 46.1583 70.1143 45.8417 69.919 45.6464C69.7238 45.4512 69.4072 45.4512 69.2119 45.6464L69.919 46.3536ZM66.0522 56.7161L65.6472 57.0093L65.6558 57.0213L65.6652 57.0327L66.0522 56.7161ZM80.4295 61.995C80.7029 62.034 80.9561 61.8441 80.9952 61.5707C81.0342 61.2973 80.8443 61.0441 80.5709 61.005L80.4295 61.995ZM71.5017 45.0383C71.7654 48.4663 74.0914 51.7964 76.5257 54.4818C77.7527 55.8353 79.0279 57.047 80.124 58.0489C81.234 59.0636 82.129 59.8359 82.6467 60.3536L83.3538 59.6464C82.8161 59.1088 81.8709 58.2909 80.7986 57.3108C79.7125 56.3179 78.4633 55.1303 77.2666 53.8102C74.8536 51.1483 72.735 48.0337 72.4987 44.9617L71.5017 45.0383ZM87.3944 59.8076C89.2537 57.4253 90.3372 53.8033 90.6772 50.1298C91.0177 46.4517 90.6217 42.63 89.4342 39.8177L88.513 40.2066C89.6175 42.8225 90.012 46.4675 89.6815 50.0376C89.3506 53.6124 88.3014 57.0202 86.606 59.1923L87.3944 59.8076ZM70.0383 48.415C69.798 48.9947 69.5094 49.522 69.2197 50.0406C68.9351 50.5501 68.6411 51.0655 68.4225 51.582C68.2013 52.1049 68.0446 52.6567 68.0451 53.2554C68.0456 53.8588 68.2058 54.477 68.57 55.1326L69.4442 54.647C69.1528 54.1224 69.0455 53.6697 69.0451 53.2545C69.0448 52.8345 69.1539 52.4199 69.3435 51.9717C69.5359 51.517 69.7978 51.0564 70.0928 50.5282C70.3827 50.0091 70.6972 49.4368 70.9621 48.798L70.0383 48.415ZM68.57 55.1326C68.9986 55.904 69.7309 56.5039 70.5727 56.9824C71.4187 57.4634 72.4158 57.8444 73.4271 58.1589C74.4403 58.474 75.4857 58.7277 76.4322 58.9476C77.3884 59.1698 78.2272 59.354 78.8628 59.5356L79.1376 58.5741C78.4703 58.3834 77.5915 58.1904 76.6585 57.9736C75.7158 57.7545 74.7003 57.5077 73.724 57.204C72.7458 56.8998 71.8247 56.5439 71.0669 56.1131C70.3049 55.6799 69.7478 55.1934 69.4442 54.647L68.57 55.1326ZM69.2119 45.6464C67.8365 47.0219 66.1301 48.7049 65.1748 50.5947C64.6921 51.5496 64.3882 52.5799 64.4225 53.67C64.4571 54.7653 64.832 55.8833 65.6472 57.0093L66.4572 56.4229C65.7463 55.4409 65.4496 54.5131 65.422 53.6385C65.3943 52.7587 65.6379 51.8952 66.0672 51.0458C66.9361 49.3271 68.5125 47.7601 69.919 46.3536L69.2119 45.6464ZM65.6652 57.0327C66.3455 57.8642 67.3999 58.542 68.6062 59.102C69.8204 59.6656 71.2313 60.1292 72.6675 60.5115C75.5399 61.2761 78.5669 61.7289 80.4295 61.995L80.5709 61.005C78.7102 60.7392 75.7348 60.2931 72.9247 59.5452C71.5197 59.1712 70.1694 58.7252 69.0273 58.195C67.8774 57.6612 66.9804 57.061 66.4392 56.3995L65.6652 57.0327ZM85.0001 59.4883C84.9397 56.8931 84.0455 52.9227 82.0619 49.8976C81.0665 48.3797 79.7788 47.0728 78.1563 46.3146C76.5233 45.5514 74.5918 45.3636 72.3591 46.0203L72.6413 46.9797C74.6586 46.3864 76.3375 46.5684 77.733 47.2205C79.139 47.8776 80.2982 49.0316 81.2256 50.446C83.0876 53.2855 83.9434 57.065 84.0003 59.5116L85.0001 59.4883ZM86.3133 59.5C86.3133 54.7553 85.3532 50.3773 83.1178 47.4263C81.994 45.9427 80.5475 44.8206 78.7499 44.2062C76.9549 43.5927 74.8415 43.4961 72.3972 44.0107L72.6032 44.9893C74.9089 44.5039 76.8347 44.6084 78.4265 45.1525C80.0157 45.6956 81.3038 46.6876 82.3207 48.0301C84.3668 50.7312 85.3133 54.8532 85.3133 59.5H86.3133ZM86.9637 59.6876C87.4676 58.4425 87.7336 56.4446 87.7669 54.1879C87.8005 51.9153 87.5987 49.323 87.1313 46.859C86.6651 44.4007 85.9285 42.0378 84.8743 40.2444C83.8244 38.458 82.4006 37.1448 80.5385 37.0015L80.4619 37.9986C81.8498 38.1053 83.0351 39.0886 84.0122 40.7511C84.9852 42.4064 85.6935 44.6446 86.1489 47.0453C86.6031 49.4403 86.7997 51.9651 86.767 54.1731C86.7341 56.3972 86.4693 58.2436 86.0367 59.3124L86.9637 59.6876ZM89.4342 39.8177C87.8248 36.0059 84.6939 34.207 81.2361 33.8758C77.8026 33.5469 74.0421 34.6585 71.0497 36.6403L71.6018 37.474C74.4355 35.5974 77.9709 34.5676 81.1408 34.8712C84.2864 35.1726 87.0664 36.7804 88.513 40.2066L89.4342 39.8177ZM80.5762 37.0059C77.21 36.4885 74.8154 37.2764 73.3176 38.8784C71.8365 40.4625 71.3253 42.7452 71.5017 45.0383L72.4987 44.9617C72.3356 42.841 72.821 40.8737 74.048 39.5613C75.2584 38.2668 77.2836 37.5116 80.4242 37.9943L80.5762 37.0059ZM71.0497 36.6403C69.1807 37.878 68.4474 39.9834 68.4827 42.3501C68.5179 44.7137 69.3144 47.4118 70.5919 49.9949C71.8716 52.5823 73.6501 55.0876 75.6856 57.0652C77.7162 59.0378 80.0358 60.5171 82.4021 60.9903L82.5983 60.0098C80.4885 59.5878 78.3346 58.2444 76.3825 56.3479C74.4353 54.4562 72.7218 52.0458 71.4883 49.5516C70.2526 47.0531 69.5149 44.5039 69.4826 42.3352C69.4503 40.1696 70.1165 38.4577 71.6018 37.474L71.0497 36.6403Z" fill="black"/>
    <path d="M94.5 72.5C93.1656 69.4976 93.8995 65.4135 92.093 62.5442C88.5362 56.8953 74.0479 61.2499 76.292 68.8236C79.2306 78.7415 87.0042 87.8602 95.4173 93.469C98.5158 95.5347 105.214 94.9972 108.674 94.2283C115.293 92.7574 117.225 86.6391 118 80.5C118.913 73.2704 115.815 67.3813 110.192 63.0367C107.411 60.8876 103.176 62.2251 99.8498 64.5963C88.7643 72.5 96 87 103.544 85.1581C108.354 83.9837 112.872 78.362 108.674 73.5639C106.222 70.762 100.589 71.5544 100.589 75.7596C100.589 78.3621 104.906 80.6227 105.021 77.5244C105.069 76.2363 103.701 76.4984 102.805 76.4984" stroke="black" stroke-linecap="round"/>
    <path d="M56.0005 63.5L55.5171 63.6278L55.9839 65.3927L56.4816 63.6363L56.0005 63.5ZM59.2889 54.3564L59.4262 54.8372L59.2889 54.3564ZM64.4696 59.7198L64.9693 59.7376L64.4696 59.7198ZM58.7143 60.6152L58.9935 60.2004L58.4667 59.8459L58.2456 60.4411L58.7143 60.6152ZM55.5363 68.4669C55.4337 68.7233 55.5584 69.0143 55.8148 69.1168C56.0712 69.2194 56.3622 69.0947 56.4647 68.8383L55.5363 68.4669ZM61.4937 61.7202C61.4501 61.4475 61.1937 61.2619 60.921 61.3055C60.6483 61.3491 60.4627 61.6055 60.5063 61.8782L61.4937 61.7202ZM61.8338 69.0286L61.6102 69.4758L61.8338 69.0286ZM71.2734 65.7042L70.846 65.4447V65.4447L71.2734 65.7042ZM65.7122 63.3443L65.2962 63.067L65.7122 63.3443ZM70.828 66.995C71.1014 66.9559 71.2914 66.7027 71.2523 66.4293C71.2133 66.1559 70.96 65.966 70.6866 66.005L70.828 66.995ZM55.0004 68L54.5296 68.1686L54.5854 68.3243L54.723 68.416L55.0004 68ZM63.3522 72.6199L63.1453 73.0751L63.3522 72.6199ZM76.8293 70.0205C77.0371 69.8386 77.0581 69.5227 76.8763 69.3149C76.6945 69.1071 76.3786 69.0861 76.1707 69.2679L76.8293 70.0205ZM19.5547 14.3021L19.7253 13.8321L19.6696 13.8119L19.6106 13.8052L19.5547 14.3021ZM36.7513 55L36.3022 55.2199L36.5063 55.6366L36.937 55.4642L36.7513 55ZM4.32054 46.9079L4.81604 46.9748L4.32054 46.9079ZM33.7308 84.9859L34.1862 85.1925L34.1964 85.17L34.2043 85.1466L33.7308 84.9859ZM7.07114 78.1041L6.57918 78.1934L7.07114 78.1041ZM36.4885 58.1082C36.5483 57.8386 36.3781 57.5716 36.1085 57.5119C35.8389 57.4521 35.5719 57.6223 35.5122 57.8919L36.4885 58.1082ZM35.1642 60.4644C34.9503 60.6391 34.9186 60.9541 35.0933 61.1679C35.268 61.3818 35.583 61.4135 35.7969 61.2388L35.1642 60.4644ZM56.4816 63.6363C56.5934 63.2416 56.7448 62.4876 56.9287 61.6175C57.1159 60.732 57.3428 59.6947 57.6113 58.6906C57.8809 57.6823 58.187 56.7292 58.5276 56.005C58.6981 55.6426 58.8687 55.3559 59.0352 55.1523C59.2054 54.9442 59.3391 54.862 59.4262 54.8372L59.1515 53.8756C58.7886 53.9793 58.4953 54.2327 58.2611 54.5192C58.0231 54.8102 57.8119 55.1771 57.6227 55.5794C57.244 56.3846 56.9198 57.4055 56.6452 58.4323C56.3695 59.4633 56.1382 60.5222 55.9504 61.4107C55.7593 62.3145 55.619 63.0122 55.5194 63.3637L56.4816 63.6363ZM58.2456 60.4411C57.7177 61.8622 57.3122 63.1928 56.9043 64.4997C56.4954 65.8099 56.0829 67.1002 55.5363 68.4669L56.4647 68.8383C57.0271 67.4325 57.4493 66.11 57.8589 64.7976C58.2696 63.4818 58.6665 62.18 59.183 60.7893L58.2456 60.4411ZM60.5063 61.8782C60.5484 62.1413 60.5381 62.6497 60.5088 63.3505C60.4806 64.0232 60.4379 64.831 60.436 65.6199C60.4342 66.4053 60.472 67.2074 60.6154 67.8725C60.7514 68.5032 61.0168 69.1791 61.6102 69.4758L62.0574 68.5813C61.9058 68.5056 61.7206 68.2537 61.5929 67.6618C61.4728 67.1043 61.4342 66.3889 61.436 65.6223C61.4379 64.8591 61.4791 64.0804 61.5079 63.3923C61.5355 62.7323 61.5554 62.1058 61.4937 61.7202L60.5063 61.8782ZM71.7008 65.9637C71.9376 65.5736 72.0468 65.1727 72.0109 64.775C71.9752 64.3786 71.7999 64.0363 71.5568 63.7537C71.0845 63.2047 70.3152 62.8304 69.5406 62.601C68.7531 62.3679 67.8832 62.2617 67.1384 62.3038C66.7662 62.3249 66.4068 62.3839 66.0972 62.4944C65.7945 62.6024 65.4888 62.778 65.2962 63.067L66.1283 63.6217C66.1541 63.583 66.2342 63.5072 66.4333 63.4362C66.6257 63.3676 66.8842 63.3198 67.1948 63.3022C67.8155 63.2672 68.5703 63.3567 69.2567 63.5599C69.9558 63.7669 70.5094 64.0696 70.7987 64.4059C70.9365 64.566 71.0017 64.7184 71.0149 64.8648C71.028 65.0099 70.9946 65.1999 70.846 65.4447L71.7008 65.9637ZM65.2962 63.067C64.6486 64.0384 64.3813 64.8923 64.5962 65.6131C64.8178 66.3564 65.4828 66.7455 66.1647 66.9475C66.8581 67.1529 67.6995 67.2076 68.5112 67.1928C69.3301 67.1779 70.1537 67.0913 70.828 66.995L70.6866 66.005C70.0384 66.0976 69.2581 66.1791 68.493 66.193C67.7207 66.2071 66.998 66.1514 66.4487 65.9887C65.8879 65.8226 65.6316 65.586 65.5546 65.3275C65.4708 65.0465 65.5277 64.5225 66.1283 63.6217L65.2962 63.067ZM54.723 68.416C57.749 70.4336 60.4602 71.8546 63.1453 73.0751L63.5591 72.1647C60.9135 70.9622 58.251 69.5664 55.2777 67.584L54.723 68.416ZM63.1453 73.0751C65.8172 74.2896 68.1939 74.4657 70.4465 73.8452C72.6803 73.2298 74.746 71.8433 76.8293 70.0205L76.1707 69.2679C74.1325 71.0514 72.2019 72.3243 70.1809 72.8811C68.1788 73.4326 66.0423 73.2935 63.5591 72.1647L63.1453 73.0751ZM37.5004 34.2055C37.5004 23.8065 28.5958 17.0526 19.7253 13.8321L19.384 14.7721C28.1409 17.9513 36.5004 24.4636 36.5004 34.2055H37.5004ZM37.2003 54.7801C35.9984 52.326 36.038 48.7592 36.4193 44.9483C36.6088 43.0543 36.8764 41.1455 37.1 39.3088C37.3223 37.4834 37.5004 35.7343 37.5004 34.2055H36.5004C36.5004 35.6684 36.3293 37.3651 36.1073 39.1879C35.8868 40.9995 35.6151 42.9414 35.4243 44.8487C35.0449 48.6405 34.96 52.4793 36.3022 55.2199L37.2003 54.7801ZM19.6106 13.8052C15.8697 13.3837 13.0574 14.669 10.9604 16.9922C8.88699 19.2892 7.52895 22.5801 6.59381 26.1682C5.65654 29.7645 5.13107 33.7128 4.75635 37.3657C4.37924 41.0419 4.15768 44.3773 3.82503 46.841L4.81604 46.9748C5.15068 44.4963 5.38022 41.0835 5.75113 37.4678C6.12441 33.8288 6.64385 29.9414 7.56149 26.4204C8.48125 22.8913 9.78811 19.7834 11.7027 17.6622C13.5937 15.5673 16.0924 14.4151 19.4987 14.799L19.6106 13.8052ZM23.3632 94.4406C26.0209 94.4406 28.2484 93.1844 30.0382 91.4181C31.8248 89.6549 33.204 87.3576 34.1862 85.1925L33.2755 84.7794C32.3233 86.8783 31.0058 89.0582 29.3358 90.7064C27.6689 92.3514 25.6798 93.4406 23.3632 93.4406V94.4406ZM6.57918 78.1934C7.25194 81.9007 9.44194 85.9462 12.4402 89.0657C15.4356 92.1821 19.3039 94.4406 23.3632 94.4406V93.4406C19.6735 93.4406 16.0484 91.3766 13.1612 88.3727C10.2769 85.3719 8.19539 81.4991 7.56311 78.0148L6.57918 78.1934ZM3.82503 46.841C2.41278 57.3006 4.74732 68.0986 6.57918 78.1934L7.56311 78.0148C5.71923 67.8538 3.42997 57.2404 4.81604 46.9748L3.82503 46.841ZM35.5122 57.8919C35.3012 58.8442 35.1422 59.8004 35.0229 60.7585L36.0153 60.882C36.1311 59.9511 36.2851 59.0261 36.4885 58.1082L35.5122 57.8919ZM35.0229 60.7585C34.5156 64.8351 34.726 68.9976 34.7325 73.0298C34.739 77.0857 34.5416 81.04 33.2574 84.8253L34.2043 85.1466C35.5444 81.197 35.739 77.1038 35.7325 73.0282C35.7259 68.9288 35.5182 64.8759 36.0153 60.882L35.0229 60.7585ZM35.7969 61.2388C35.8087 61.2291 35.8205 61.2195 35.8324 61.21L35.2058 60.4306C35.1919 60.4418 35.178 60.4531 35.1642 60.4644L35.7969 61.2388ZM35.8324 61.21C38.3195 59.2104 42.4021 59.3689 46.2619 60.9039C50.1108 62.4346 53.4794 65.2365 54.5296 68.1686L55.4711 67.8314C54.2843 64.5179 50.6134 61.5583 46.6315 59.9747C42.6605 58.3954 38.121 58.0869 35.2058 60.4306L35.8324 61.21ZM36.937 55.4642C38.1768 54.9682 39.8567 54.8316 41.7394 55.0293C43.6142 55.2263 45.6498 55.7507 47.576 56.5364C49.503 57.3226 51.3035 58.3633 52.7171 59.5819C54.1337 60.8031 55.1336 62.1778 55.5171 63.6278L56.4839 63.3722C56.0316 61.6622 54.8793 60.1255 53.37 58.8245C51.8576 57.5207 49.9581 56.4282 47.9537 55.6105C45.9485 54.7925 43.8211 54.2425 41.8439 54.0348C39.8747 53.828 38.0135 53.9565 36.5656 54.5358L36.937 55.4642ZM61.6102 69.4758C63.884 70.6127 65.8611 70.6983 67.5714 69.9697C69.2569 69.2516 70.5998 67.777 71.7008 65.9637L70.846 65.4447C69.7953 67.1753 68.59 68.4487 67.1794 69.0497C65.7936 69.6401 64.1268 69.616 62.0574 68.5813L61.6102 69.4758ZM59.4262 54.8372C60.6276 54.4939 61.7592 55.0152 62.624 56.0229C63.4937 57.0361 64.0142 58.4635 63.9699 59.7019L64.9693 59.7376C65.0232 58.2289 64.4032 56.5603 63.3829 55.3716C62.3578 54.1772 60.85 53.3904 59.1515 53.8756L59.4262 54.8372ZM63.9699 59.7019C63.945 60.399 63.6285 61.112 62.9805 61.39C62.3262 61.6707 61.0959 61.6156 58.9935 60.2004L58.4351 61.03C60.6184 62.4996 62.2371 62.7971 63.3748 62.309C64.5187 61.8182 64.937 60.641 64.9693 59.7376L63.9699 59.7019Z" fill="black"/>
</svg>
