<svg width="120" height="120" viewBox="0 0 120 120" fill="none" xmlns="http://www.w3.org/2000/svg">
    <path d="M56.0132 25.4308C57.5548 22.0809 59.1713 19.4323 62.9548 18.6101C64.6692 18.6101 67.9515 19.5896 65.9427 23.0698C64.5899 25.4134 63.7917 27.1031 61.0836 28.0542C59.2754 28.6892 54.5899 28.5236 56.0132 25.4308Z" fill="#F5F5F5"/>
    <path d="M16.5112 25.4308C14.9696 22.0809 13.3531 19.4323 9.56965 18.6101C7.85523 18.6101 4.57295 19.5896 6.58175 23.0698C7.93449 25.4134 8.73274 27.1031 11.4409 28.0542C13.249 28.6892 17.9345 28.5236 16.5112 25.4308Z" fill="#F5F5F5"/>
    <path d="M29.5 37.5L22 14.5L52.5 13.5L48.5 28L42.5 38V53C41.5 55.5 39.4 60.5 39 60.5H33.5C33.1 60.5 31.6667 55.8333 31 53.5L29.5 37.5Z" fill="#E0E0E0"/>
    <path d="M67.6558 17.5277C67.5118 17.2716 65.4357 19.0861 65.2057 19.0976C64.9464 19.1106 65.3469 17.0496 64.9495 16.9864C64.7387 16.9529 61.2234 18.9005 61.2482 18.8663C61.1607 17.5277 60.8243 17.3459 61.7019 16.4452C62.8028 15.3153 68.1714 14.1041 67.6558 13.8312C65.0172 12.4343 56.1148 14.8383 53.7045 16.4452C50.3887 21.3224 53.129 28.032 50.565 30.1769C48.5367 31.8737 46.5061 33.7366 46.5061 36.1941C46.5061 38.393 45.8952 40.2106 43.6118 41.3459C45.9643 43.8585 44.4645 49.7545 44.3111 52.4807C44.1497 55.3478 42.4661 57.421 40.2701 59.4274C38.9009 60.6783 38.4278 61.8271 38.4278 59.4274C38.4278 56.712 40.4698 55.1147 40.4698 52.3324C40.4698 50.1337 41.5956 44.36 41 42.1909C40.5404 42.2835 40.0446 42.362 39.5099 42.4257C41.6749 39.5029 37.3448 34.8752 44.5073 31.1595C48.0253 29.3344 44.5073 25.376 46.3001 21.4234C47.1588 19.5303 48.7106 18.5561 49.9437 18.048C50.2716 17.1448 50.8549 15.3544 50.565 15.4191C46.7758 16.2968 41.344 16.5032 38.0746 16.5032C33.0739 16.5032 28.0419 16.6108 23.16 15.5L24 17.5C25.2294 18.0167 26.4711 19.1425 27.3272 21.0677C29.1146 25.0872 25.6072 29.1128 29.1146 30.9688C36.2552 34.7475 31.9383 39.4536 34.0968 42.4259C33.2399 42.3218 32.4831 42.1788 31.8157 42C31.2229 44.169 32.0646 50.1337 32.0646 52.3324C32.0646 55.1147 34.0968 56.712 34.0968 59.4274C34.0968 61.8271 33.626 60.6783 32.2633 59.4274C30.0778 57.421 28.4022 55.3478 28.2416 52.4807C28.0888 49.7535 26.9604 43.4263 29.3051 40.9151C27.6023 39.7553 27.1218 38.0749 27.1218 36.0887C27.1218 33.5896 25.0974 31.695 23.0753 29.9696C20.5492 27.814 23.0765 21.5209 20.6763 16.9864C18.2661 15.3796 7.55553 12.2206 4.9169 13.6175C4.40135 13.8904 9.76988 15.1016 10.8708 16.2315C11.7484 17.1322 11.412 17.314 11.3245 18.6526C11.3493 18.6869 7.83398 16.7393 7.6232 16.7727C7.22584 16.8359 7.62631 18.8969 7.36704 18.8839C7.137 18.8724 5.06093 17.058 4.9169 17.314C4.56442 17.9406 6.31945 20.095 5.45816 20.5616C0.539042 14.8985 1.13595 11.761 5.56425 11.761C9.71349 11.761 13.5916 12.6837 17.5256 13.8513C17.6836 13.8982 17.8418 13.9455 18 13.9931C20.7063 11.8848 23.9811 9.56739 28.6845 8.32626C34.2521 6.85705 38.7657 6.51038 44.381 7.78493C49.1756 8.87318 52.2096 10.8725 56.3048 13.5C56.7847 13.36 57.2797 13.2242 57.7825 13.0944C60.7671 12.3236 64.0269 11.761 66.032 11.7611C73.6097 11.7611 69.3397 19.1647 67.1146 20.7753C66.2533 20.3087 68.0083 18.1543 67.6558 17.5277Z" fill="#C4C4C4"/>
    <path d="M77.1774 47.9985C75.5688 45.0674 75.6496 42.4822 77.1767 39.5111C79.5251 34.942 84.6112 35.0281 89.9089 35.0023C95.2803 34.9762 100.056 35.0917 102.841 39.5111C104.642 42.3685 104.111 44.8885 102.841 47.9985C100.749 53.1183 89.9089 51.8645 89.9089 51.8645C89.9089 51.8645 79.6078 52.4267 77.1774 47.9985Z" fill="#F5F5F5"/>
    <path d="M84.7765 94.038C85.9872 95.0066 87.0697 97.6656 89.2339 98.2069H91.4253C93.5895 97.6656 94.672 95.0066 95.8827 94.038C96.5989 93.4651 97.2033 92.0611 96.4902 91.4906C92.065 87.9504 96.0591 77.1504 96.0591 72.365C96.0591 69.6676 95.053 64.5953 91.9657 63.5662H88.6935C85.6061 64.5953 84.6001 69.6676 84.6001 72.365C84.6001 77.1504 88.5942 87.9504 84.169 91.4906C83.4559 92.0611 84.0603 93.4651 84.7765 94.038Z" fill="#E6E6E6"/>
    <path d="M76.206 57.6126C80.0916 59.732 84.438 60.7266 88.655 61.4014L91.3992 61.4014C95.6162 60.7266 99.9626 59.732 103.848 57.6126C105.833 56.53 104.931 54.4551 102.224 54.9062C97.0833 55.7631 96.7334 60.3188 91.3992 60.3188L88.655 60.5C83.3209 60.5 82.971 55.7631 77.8298 54.9062C75.1235 54.4551 74.2213 56.53 76.206 57.6126Z" fill="#F5F5F5"/>
    <path d="M91.3687 63.0911C91.062 59.2564 91.2809 55.0777 93.6125 52H85.001C87.5864 55.555 88.9005 58.7209 88.9005 63.0911C88.9005 73.7901 89.2337 84.4871 89.2337 95.1892C89.2337 96.1579 88.6896 97.0811 88.9005 98.0306C89.2151 99.446 91.0647 99.2627 91.9887 98.0306C91.9272 97.1613 91.4187 96.2086 91.3687 95.1892C90.9064 85.7569 91.3687 70.6188 91.3687 63.0911Z" fill="#F5F5F5"/>
    <path d="M76.2034 82.9275C76.2034 87.0587 72.7508 88.7746 70.2506 87.7989L65.9202 85.0926C63.2139 82.3863 61.6015 75.7844 65.9202 72.6436H68.0855C72.9564 73.7261 76.2034 76.5013 76.2034 82.9275Z" fill="#F5F5F5"/>
    <path d="M103.848 82.5103C103.848 86.6415 107.3 88.3573 109.8 87.3816L114.131 84.6753C116.837 81.969 118.45 75.3672 114.131 72.2263H111.966C107.095 73.3088 103.848 76.0841 103.848 82.5103Z" fill="#F5F5F5"/>
    <path d="M52.0332 103.908C52.9798 102.504 58.1079 96.449 56.3956 94.8496C49.6926 88.5887 42.1624 83.9208 36.0832 76.4953C32.7144 72.3805 23.7259 58.8909 16.1482 59.9735L14.5244 105.473C14.5244 110.063 17.3659 111.084 20.659 113.477C34.5511 117.347 46.7972 111.676 52.0332 103.908Z" fill="#F5F5F5"/>
    <path d="M35.6969 80.8738C34.1561 79.6452 31.9897 77.6615 30.9072 79.2852C30.9072 81.9831 35.7074 89.7585 38.4317 86.126C39.7847 84.322 37.5049 82.3156 35.6969 80.8738Z" fill="#9E9E9E"/>
    <path d="M44.3602 96.1138C43.6972 94.1248 41.034 92.8196 38.8284 92.8196C36.432 92.8196 34.2259 94.8625 35.4098 97.0151C36.413 98.839 37.5917 99.6361 39.6053 98.4136C40.5872 97.8174 45.0781 98.2675 44.3602 96.1138Z" fill="#9E9E9E"/>
    <path d="M39.8723 104.376C38.7642 105.231 38.2488 106.386 37.2431 107.522C36.9268 108.438 37.5936 110.06 39.0705 109.75C40.8474 109.376 43.0484 108.981 44.3809 107.522C44.6052 107.277 45.5726 103.502 44.3809 103.305C42.9866 103.074 40.8609 103.613 39.8723 104.376Z" fill="#9E9E9E"/>
    <path d="M36.1077 101.207C33.9681 99.7259 30.8456 100.045 28.4159 100.508C27.1094 101.721 28.0011 103.677 29.3793 104.983C30.3098 105.865 33.1463 106.411 34.3518 106.04C36.4234 105.402 38.3443 102.756 36.1077 101.207Z" fill="#9E9E9E"/>
    <path d="M33.8677 92.4007C32.0682 94.2002 30.3232 92.1799 28.4127 90.8313C27.3954 89.4071 26.7354 88.5587 26.7354 86.7912C26.7354 85.7972 27.1579 82.8886 27.9785 82.5025C29.8494 81.622 31.486 86.1094 32.0807 87.0864C32.785 88.2434 34.8998 91.3686 33.8677 92.4007Z" fill="#9E9E9E"/>
    <path d="M19.0001 70C19.4001 66 17.5001 61.6667 16.5001 60C14.5001 60.4 12.6667 71.8333 12 77.5L13 88.5C13.3334 90.1667 13.9001 94 13.5001 96C13.1001 98 14.0001 103.5 14.5001 106L17.5001 90L17.0001 87.5C17.5001 83.3333 18.6001 74 19.0001 70Z" fill="#C4C4C4"/>
    <path d="M53.5 96C53.5 94.8 54.5 94.1667 55 94C55.4 94 56.5 95 57 95.5C56.8333 96.3333 56.4 98 56 98C55.5 98 53.5 97.5 53.5 96Z" fill="#C4C4C4"/>
    <path d="M56.0122 25.4308C57.5538 22.0809 59.1703 19.4323 62.9538 18.6101C64.6682 18.6101 67.9505 19.5896 65.9417 23.0698C64.589 25.4134 63.7907 27.1031 61.0826 28.0542C59.2744 28.6892 54.5889 28.5236 56.0122 25.4308Z" stroke="black" stroke-linecap="round"/>
    <path d="M16.5103 25.4308C14.9687 22.0809 13.3522 19.4323 9.56867 18.6101C7.85426 18.6101 4.57197 19.5896 6.58077 23.0698C7.93351 25.4134 8.73176 27.1031 11.4399 28.0542C13.248 28.6892 17.9335 28.5236 16.5103 25.4308Z" stroke="black" stroke-linecap="round"/>
    <path d="M67.6547 17.5276L68.0905 17.2825V17.2825L67.6547 17.5276ZM65.2046 19.0976L65.2296 19.5969L65.2046 19.0976ZM64.9484 16.9864L64.87 17.4802L64.9484 16.9864ZM61.2471 18.8662L61.6521 19.1595C61.7204 19.0651 61.7537 18.9498 61.7461 18.8336L61.2471 18.8662ZM61.7009 16.4451L62.059 16.794L61.7009 16.4451ZM67.1135 20.7752L66.8753 21.2148C67.0444 21.3064 67.2509 21.2929 67.4066 21.1802L67.1135 20.7752ZM67.6547 13.8311L67.4208 14.273L67.6547 13.8311ZM53.8458 16.0291C53.6161 16.1823 53.554 16.4927 53.7072 16.7225C53.8603 16.9522 54.1708 17.0143 54.4005 16.8611L53.8458 16.0291ZM4.91581 17.3139L4.48003 17.0688L4.91581 17.3139ZM7.36596 18.8839L7.34099 19.3833L7.36596 18.8839ZM7.62212 16.7727L7.70058 17.2665L7.62212 16.7727ZM11.3234 18.6525L10.8245 18.6199C10.8169 18.7361 10.8501 18.8514 10.9184 18.9458L11.3234 18.6525ZM10.8697 16.2314L10.5116 16.5803L10.8697 16.2314ZM5.45708 20.5615L5.0796 20.8894C5.23326 21.0663 5.48918 21.1128 5.69522 21.0012L5.45708 20.5615ZM4.91581 13.6174L5.14976 14.0593V14.0593L4.91581 13.6174ZM20.2873 17.4024C20.517 17.5556 20.8275 17.4935 20.9807 17.2637C21.1338 17.034 21.0717 16.7235 20.842 16.5703L20.2873 17.4024ZM20.9249 14.8984L21.0746 14.4214L20.9249 14.8984ZM66.0309 11.761L66.0309 12.261H66.0309V11.761ZM52.9142 14.6829L53.1133 15.1415L52.9142 14.6829ZM68.0905 17.2825C67.9672 17.0633 67.7527 17.0076 67.6227 17.0032C67.5071 16.9994 67.408 17.0295 67.3507 17.0498C67.2278 17.0933 67.0971 17.1664 66.9817 17.2373C66.7415 17.3849 66.4447 17.6008 66.1625 17.8118C65.8697 18.0308 65.5969 18.2411 65.369 18.4079C65.2563 18.4903 65.1666 18.5532 65.1019 18.5942C65.069 18.6151 65.0514 18.6247 65.0458 18.6275C65.0189 18.6409 65.0801 18.6032 65.1796 18.5982L65.2296 19.5969C65.3579 19.5905 65.4622 19.5373 65.491 19.5229C65.5412 19.498 65.5919 19.4677 65.6381 19.4384C65.7315 19.379 65.8429 19.3002 65.9595 19.2149C66.19 19.0462 66.4883 18.8168 66.7613 18.6127C67.0449 18.4006 67.3085 18.2102 67.5053 18.0893C67.6083 18.0259 67.6653 17.9992 67.6844 17.9924C67.6981 17.9876 67.6585 18.005 67.5893 18.0027C67.5056 17.9999 67.3242 17.96 67.2189 17.7728L68.0905 17.2825ZM65.1796 18.5982C65.3596 18.5892 65.4902 18.6841 65.5553 18.7662C65.5832 18.8015 65.5986 18.8326 65.6061 18.8499C65.6141 18.8681 65.6176 18.8809 65.6188 18.8851C65.6199 18.8895 65.6133 18.8591 65.6109 18.7687C65.6063 18.5966 65.6184 18.365 65.628 18.0878C65.6369 17.8308 65.6435 17.5328 65.6166 17.2896C65.6035 17.1713 65.5786 17.0258 65.5202 16.8935C65.4643 16.7672 65.3233 16.5397 65.0269 16.4926L64.87 17.4802C64.6729 17.4489 64.6063 17.2995 64.6056 17.298C64.6023 17.2905 64.6134 17.3162 64.6227 17.3998C64.6405 17.5604 64.6377 17.7887 64.6286 18.0532C64.6201 18.2976 64.6056 18.5827 64.6112 18.7953C64.614 18.8974 64.6217 19.0263 64.6521 19.1412C64.6666 19.1959 64.6977 19.2941 64.7714 19.3872C64.8593 19.4981 65.0172 19.6076 65.2296 19.5969L65.1796 18.5982ZM61.7461 18.8336C61.7229 18.4788 61.683 18.1998 61.653 17.9818C61.6216 17.7531 61.6066 17.6231 61.6115 17.514C61.618 17.3697 61.6532 17.2105 62.059 16.794L61.3427 16.0962C60.8709 16.5805 60.6354 16.9625 60.6126 17.4689C60.6028 17.6852 60.6335 17.9079 60.6623 18.1179C60.6926 18.3386 60.7276 18.5844 60.7482 18.8988L61.7461 18.8336ZM67.3516 20.3356C67.3501 20.3347 67.3572 20.3386 67.366 20.3491C67.3699 20.3539 67.373 20.3585 67.3751 20.3625C67.3772 20.3663 67.378 20.3686 67.378 20.3685C67.3765 20.364 67.3663 20.3243 67.3796 20.2268C67.4073 20.0243 67.5081 19.7491 67.6534 19.4071C67.7865 19.0939 67.9616 18.7157 68.0709 18.3953C68.1269 18.2315 68.1764 18.0537 68.1946 17.8801C68.2122 17.7123 68.2071 17.4897 68.0905 17.2825L67.2189 17.7728C67.1905 17.7222 67.2076 17.704 67.2001 17.7758C67.1931 17.8418 67.1701 17.9388 67.1245 18.0723C67.0309 18.3467 66.8871 18.6537 66.7331 19.0158C66.5915 19.3491 66.437 19.739 66.3889 20.0914C66.3643 20.2712 66.3611 20.4812 66.4298 20.6863C66.504 20.9075 66.6529 21.0944 66.8753 21.2148L67.3516 20.3356ZM62.059 16.794C62.2558 16.592 62.7091 16.3372 63.3639 16.0584C63.995 15.7898 64.7374 15.5292 65.444 15.2905C66.1397 15.0554 66.8145 14.8373 67.2738 14.6634C67.4958 14.5794 67.7093 14.4906 67.8546 14.401C67.8937 14.3769 67.9396 14.3457 67.9838 14.3067C68.0231 14.272 68.0909 14.2055 68.138 14.1046C68.1929 13.9868 68.2196 13.8164 68.1374 13.6442C68.067 13.4966 67.9507 13.422 67.8887 13.3892L67.4208 14.273C67.391 14.2573 67.2954 14.2016 67.2349 14.0747C67.1626 13.9231 67.1882 13.7751 67.2319 13.6815C67.2677 13.6047 67.314 13.5641 67.3221 13.5569C67.3351 13.5454 67.3403 13.5433 67.3296 13.5499C67.2756 13.5832 67.1457 13.6427 66.9197 13.7282C66.483 13.8935 65.8435 14.1 65.1239 14.3431C64.4152 14.5825 63.6413 14.8535 62.9723 15.1383C62.327 15.413 61.6963 15.7333 61.3427 16.0962L62.059 16.794ZM67.8887 13.3892C67.1047 12.9742 65.9652 12.8699 64.7438 12.9248C63.5005 12.9806 62.0863 13.2064 60.6922 13.5242C57.9235 14.1553 55.1282 15.1742 53.8458 16.0291L54.4005 16.8611C55.5284 16.1092 58.1796 15.1226 60.9144 14.4992C62.2721 14.1897 63.6239 13.9761 64.7886 13.9238C65.9752 13.8705 66.8854 13.9896 67.4208 14.273L67.8887 13.3892ZM65.0269 16.4926C64.9252 16.4764 64.8401 16.4946 64.8162 16.4996C64.7776 16.5078 64.742 16.5186 64.714 16.5279C64.657 16.5469 64.5936 16.5724 64.5303 16.5996C64.4018 16.6548 64.238 16.7327 64.0561 16.8225C63.6906 17.0032 63.227 17.2452 62.7752 17.4849C62.3225 17.7249 61.8773 17.965 61.5484 18.1419C61.3834 18.2308 61.2487 18.3031 61.1562 18.3521C61.1094 18.3769 61.0764 18.3942 61.0564 18.4043C61.0449 18.4101 61.0442 18.4103 61.0491 18.4081C61.0509 18.4073 61.0552 18.4053 61.0611 18.4029C61.0653 18.4012 61.079 18.3956 61.0974 18.3898C61.1063 18.3869 61.1245 18.3814 61.1482 18.3766C61.1609 18.374 61.2245 18.3605 61.306 18.3701C61.3525 18.3779 61.4658 18.417 61.5287 18.4535C61.6059 18.5184 61.7157 18.6924 61.7419 18.795C61.7469 18.8757 61.7266 19.0079 61.7088 19.0581C61.6944 19.0896 61.6654 19.1401 61.6521 19.1595L60.8422 18.5729C60.8287 18.5925 60.7997 18.6431 60.7852 18.6747C60.7674 18.725 60.7471 18.8573 60.7521 18.938C60.7783 19.0407 60.8881 19.2147 60.9654 19.2797C61.0284 19.3163 61.1417 19.3554 61.1884 19.3632C61.2701 19.3729 61.3341 19.3593 61.3472 19.3566C61.3713 19.3517 61.3901 19.346 61.3997 19.343C61.4318 19.3328 61.4578 19.3208 61.4608 19.3194C61.4776 19.3118 61.4952 19.303 61.5082 19.2964C61.5371 19.2818 61.5772 19.2608 61.6246 19.2357C61.7204 19.1849 61.858 19.111 62.0223 19.0225C62.3521 18.845 62.7943 18.6067 63.2437 18.3683C63.6939 18.1295 64.1471 17.8931 64.4992 17.719C64.6762 17.6316 64.8214 17.563 64.9254 17.5183C64.9783 17.4955 65.012 17.4827 65.0297 17.4768C65.039 17.4737 65.0351 17.4755 65.0222 17.4782C65.0155 17.4796 65.0006 17.4825 64.9799 17.4843C64.9619 17.4859 64.9216 17.4884 64.87 17.4802L65.0269 16.4926ZM5.3516 17.5591C5.2463 17.7463 5.06492 17.7862 4.98121 17.789C4.91203 17.7913 4.87245 17.7739 4.88617 17.7788C4.90529 17.7855 4.96222 17.8123 5.06525 17.8756C5.26202 17.9965 5.52562 18.187 5.80921 18.399C6.08219 18.6031 6.38053 18.8325 6.61108 19.0012C6.72768 19.0865 6.83901 19.1653 6.93247 19.2247C6.97861 19.254 7.02934 19.2843 7.07953 19.3093C7.10832 19.3236 7.21268 19.3768 7.34099 19.3833L7.39093 18.3845C7.49048 18.3895 7.55166 18.4272 7.5247 18.4138C7.51913 18.411 7.50153 18.4015 7.4686 18.3805C7.40394 18.3395 7.31421 18.2766 7.20158 18.1942C6.97367 18.0274 6.70085 17.8171 6.40805 17.5981C6.12587 17.3871 5.82906 17.1713 5.58887 17.0236C5.47343 16.9527 5.34274 16.8796 5.21985 16.8361C5.16257 16.8158 5.0634 16.7857 4.94787 16.7895C4.81781 16.7939 4.60334 16.8496 4.48003 17.0688L5.3516 17.5591ZM7.34099 19.3833C7.55339 19.3939 7.71127 19.2844 7.79913 19.1735C7.8728 19.0805 7.90394 18.9822 7.91842 18.9276C7.94888 18.8126 7.95659 18.6837 7.95931 18.5817C7.96497 18.369 7.95041 18.0839 7.94196 17.8395C7.93281 17.575 7.93007 17.3467 7.94787 17.1861C7.95715 17.1025 7.96826 17.0768 7.96494 17.0843C7.96427 17.0858 7.89762 17.2352 7.70058 17.2665L7.54367 16.2789C7.24728 16.326 7.10623 16.5536 7.05039 16.6798C6.9919 16.8121 6.96708 16.9577 6.95397 17.0759C6.927 17.3191 6.93367 17.6171 6.94255 17.8741C6.95214 18.1513 6.96424 18.3829 6.95966 18.555C6.95725 18.6454 6.95061 18.6758 6.95179 18.6714C6.9529 18.6672 6.95649 18.6544 6.96439 18.6363C6.97198 18.6189 6.98735 18.5878 7.01526 18.5525C7.08031 18.4704 7.21093 18.3755 7.39093 18.3845L7.34099 19.3833ZM11.8223 18.6851C11.8429 18.3707 11.8779 18.1249 11.9082 17.9042C11.9371 17.6942 11.9677 17.4716 11.958 17.2553C11.9352 16.7488 11.6997 16.3668 11.2278 15.8825L10.5116 16.5803C10.9173 16.9968 10.9525 17.156 10.959 17.3003C10.9639 17.4094 10.9489 17.5394 10.9175 17.7681C10.8876 17.9861 10.8477 18.2651 10.8245 18.6199L11.8223 18.6851ZM5.69522 21.0012C5.91764 20.8807 6.06658 20.6938 6.14071 20.4727C6.20947 20.2676 6.20626 20.0575 6.18169 19.8777C6.13354 19.5254 5.97905 19.1354 5.8374 18.8022C5.68347 18.44 5.53965 18.133 5.446 17.8586C5.40042 17.7251 5.3774 17.6281 5.37047 17.5621C5.36294 17.4904 5.38003 17.5085 5.3516 17.5591L4.48003 17.0688C4.36348 17.276 4.35831 17.4986 4.37593 17.6665C4.39415 17.84 4.44368 18.0178 4.49961 18.1816C4.60898 18.502 4.784 18.8802 4.9171 19.1934C5.06249 19.5354 5.16323 19.8107 5.1909 20.0131C5.20423 20.1106 5.19407 20.1503 5.19258 20.1548C5.19254 20.1549 5.1933 20.1526 5.19541 20.1488C5.19756 20.1448 5.2006 20.1402 5.20454 20.1354C5.21331 20.1249 5.22048 20.121 5.21893 20.1219L5.69522 21.0012ZM11.2278 15.8825C10.8742 15.5196 10.2436 15.1993 9.59828 14.9246C8.92921 14.6399 8.15538 14.3688 7.44662 14.1294C6.72703 13.8863 6.08757 13.6798 5.65081 13.5145C5.42489 13.429 5.29495 13.3695 5.24098 13.3362C5.23027 13.3296 5.23543 13.3317 5.24843 13.3432C5.25655 13.3504 5.30283 13.391 5.33869 13.4679C5.38238 13.5615 5.408 13.7095 5.33569 13.861C5.27515 13.9879 5.17952 14.0436 5.14976 14.0593L4.68187 13.1755C4.61989 13.2084 4.50352 13.2829 4.43313 13.4305C4.35097 13.6027 4.3776 13.7731 4.43257 13.8909C4.47969 13.9918 4.54749 14.0583 4.58677 14.093C4.63093 14.132 4.67687 14.1632 4.71596 14.1873C4.86121 14.2769 5.07471 14.3657 5.29679 14.4498C5.75603 14.6236 6.43085 14.8417 7.12655 15.0768C7.8331 15.3155 8.57559 15.5762 9.20663 15.8448C9.86145 16.1235 10.3147 16.3783 10.5116 16.5803L11.2278 15.8825ZM5.14976 14.0593C5.39325 13.9304 5.77008 13.8354 6.28719 13.7936C6.79697 13.7524 7.40683 13.7657 8.09085 13.8266C9.45859 13.9483 11.0791 14.2563 12.7052 14.6607C14.3293 15.0646 15.9459 15.5614 17.3027 16.0555C18.6723 16.5542 19.7381 17.0363 20.2873 17.4024L20.842 16.5703C20.1861 16.1331 19.023 15.6177 17.6448 15.1158C16.2538 14.6093 14.6035 14.1024 12.9465 13.6903C11.2915 13.2787 9.61669 12.9584 8.1795 12.8305C7.46106 12.7666 6.79107 12.7497 6.2067 12.7968C5.62966 12.8434 5.09804 12.9552 4.68187 13.1755L5.14976 14.0593ZM7.70058 17.2665C7.64889 17.2747 7.6086 17.2722 7.59062 17.2706C7.56997 17.2688 7.55504 17.2659 7.54834 17.2645C7.53547 17.2618 7.53155 17.26 7.54085 17.2631C7.55853 17.269 7.59221 17.2818 7.64519 17.3046C7.74919 17.3493 7.89435 17.4179 8.07132 17.5053C8.42344 17.6794 8.87665 17.9158 9.32685 18.1546C9.77625 18.393 10.2184 18.6313 10.5483 18.8088C10.7126 18.8973 10.8502 18.9712 10.946 19.022C10.9934 19.0471 11.0335 19.0681 11.0624 19.0828C11.0753 19.0893 11.093 19.0981 11.1097 19.1057C11.1128 19.1071 11.1387 19.1191 11.1709 19.1293C11.1804 19.1323 11.1992 19.138 11.2233 19.1429C11.2364 19.1456 11.3004 19.1592 11.3822 19.1495C11.4288 19.1417 11.5421 19.1026 11.6051 19.066C11.6824 19.001 11.7922 18.827 11.8184 18.7243C11.8235 18.6436 11.8031 18.5113 11.7853 18.461C11.7709 18.4294 11.7418 18.3788 11.7284 18.3593L10.9184 18.9458C10.9051 18.9264 10.8761 18.8759 10.8617 18.8444C10.844 18.7942 10.8236 18.662 10.8287 18.5813C10.8548 18.4787 10.9646 18.3047 11.0418 18.2398C11.1048 18.2033 11.218 18.1642 11.2646 18.1564C11.346 18.1468 11.4097 18.1603 11.4224 18.1629C11.446 18.1677 11.4642 18.1733 11.4732 18.1761C11.4916 18.1819 11.5052 18.1875 11.5094 18.1892C11.5153 18.1917 11.5196 18.1936 11.5214 18.1944C11.5263 18.1966 11.5256 18.1964 11.5141 18.1906C11.4942 18.1805 11.4611 18.1632 11.4143 18.1384C11.3218 18.0894 11.1872 18.0171 11.0221 17.9283C10.6933 17.7513 10.2481 17.5113 9.79539 17.2712C9.34351 17.0315 8.87992 16.7895 8.5144 16.6089C8.33255 16.519 8.1687 16.4412 8.0402 16.3859C7.97694 16.3587 7.9135 16.3332 7.85655 16.3142C7.82852 16.3049 7.7929 16.2941 7.75437 16.286C7.73044 16.2809 7.64533 16.2627 7.54367 16.2789L7.70058 17.2665ZM5.83455 20.2336C4.6209 18.8364 3.76205 17.6113 3.21936 16.5668C2.67325 15.5157 2.46751 14.6863 2.50398 14.067C2.5387 13.4774 2.79183 13.0561 3.25491 12.7616C3.74417 12.4506 4.50361 12.261 5.56317 12.261V11.261C4.40857 11.261 3.43278 11.4636 2.71839 11.9178C1.97782 12.3886 1.55886 13.1056 1.5057 14.0082C1.4543 14.8811 1.7449 15.8979 2.33199 17.0279C2.92249 18.1644 3.8337 19.4551 5.0796 20.8894L5.83455 20.2336ZM5.56317 12.261C10.8117 12.261 15.6284 13.7612 20.7753 15.3755L21.0746 14.4214C15.9498 12.814 10.9891 11.261 5.56317 11.261V12.261ZM66.0309 12.261C67.8603 12.261 68.8402 12.7095 69.3338 13.2726C69.8221 13.8296 69.9413 14.6221 69.7574 15.5689C69.5742 16.5127 69.1017 17.5292 68.5287 18.4159C67.9532 19.3066 67.3087 20.0166 66.8203 20.3702L67.4066 21.1802C68.0308 20.7285 68.7545 19.9091 69.3686 18.9586C69.9853 18.0042 70.5239 16.8678 70.7391 15.7595C70.9537 14.6541 70.8587 13.495 70.0858 12.6134C69.3184 11.7381 67.9905 11.261 66.031 11.261L66.0309 12.261ZM20.7753 15.3755C26.4366 17.1512 32.3322 17.0031 38.0736 17.0031V16.0031C32.2802 16.0031 26.5582 16.1413 21.0746 14.4214L20.7753 15.3755ZM38.0736 17.0031C40.103 17.0031 42.9633 16.9241 45.756 16.6552C48.5319 16.388 51.3017 15.9283 53.1133 15.1415L52.715 14.2243C51.06 14.943 48.4285 15.3933 45.6601 15.6598C42.9086 15.9247 40.0819 16.0031 38.0736 16.0031V17.0031ZM53.1133 15.1415C54.7375 14.4362 57.1706 13.7139 59.6126 13.1675C62.0581 12.6204 64.4624 12.2609 66.0309 12.261L66.031 11.261C64.3519 11.2609 61.8628 11.6394 59.3943 12.1917C56.9222 12.7447 54.4208 13.4835 52.715 14.2243L53.1133 15.1415Z" fill="black"/>
    <path d="M50.1331 18.5103C50.3884 18.4051 50.5101 18.1128 50.405 17.8575C50.2998 17.6022 50.0075 17.4805 49.7522 17.5857L50.1331 18.5103ZM46.2991 21.4233L45.8437 21.2168L46.2991 21.4233ZM44.5062 31.1594L44.2759 30.7156L44.5062 31.1594ZM39.5088 42.4256L39.107 42.128C38.9882 42.2884 38.9762 42.504 39.0764 42.6766C39.1765 42.8492 39.3698 42.9457 39.5679 42.9221L39.5088 42.4256ZM50.5639 30.1769L50.8847 30.5604L50.5639 30.1769ZM58.1267 13.6489C58.376 13.5301 58.4818 13.2317 58.3631 12.9824C58.2443 12.7331 57.9459 12.6273 57.6966 12.7461L58.1267 13.6489ZM49.7522 17.5857C48.4526 18.1211 46.774 19.1658 45.8437 21.2168L46.7544 21.6299C47.5415 19.8947 48.9665 18.9909 50.1331 18.5103L49.7522 17.5857ZM44.2759 30.7156C42.43 31.6732 41.2805 32.7126 40.5858 33.8087C39.8891 34.908 39.6779 36.0203 39.6339 37.0689C39.612 37.5895 39.6313 38.0991 39.6534 38.5793C39.6759 39.0664 39.7008 39.5157 39.6958 39.949C39.6859 40.8104 39.5562 41.5217 39.107 42.128L39.9106 42.7232C40.5439 41.8682 40.6849 40.9049 40.6958 39.9605C40.7012 39.4908 40.6741 39.0044 40.6524 38.5332C40.6303 38.055 40.6132 37.5837 40.633 37.1108C40.6724 36.1727 40.857 35.2487 41.4305 34.344C42.006 33.4359 43.0011 32.5035 44.7364 31.6033L44.2759 30.7156ZM45.8437 21.2168C44.8748 23.3528 45.3459 25.5039 45.5535 27.1517C45.6612 28.0071 45.7 28.7063 45.5369 29.2893C45.3843 29.8345 45.0429 30.3177 44.2759 30.7156L44.7364 31.6033C45.7285 31.0886 46.2666 30.3926 46.4999 29.5588C46.7226 28.7628 46.6535 27.8831 46.5456 27.0267C46.3219 25.2509 45.9304 23.4464 46.7544 21.6299L45.8437 21.2168ZM39.5679 42.9221C42.4807 42.575 44.3654 41.7865 45.5147 40.5895C46.6752 39.3809 47.0051 37.8415 47.0051 36.194H46.0051C46.0051 37.7177 45.6997 38.953 44.7934 39.8969C43.876 40.8523 42.2625 41.594 39.4496 41.9291L39.5679 42.9221ZM47.0051 36.194C47.0051 35.1126 47.4495 34.1376 48.1695 33.2059C48.894 32.2684 49.8702 31.4091 50.8847 30.5604L50.2431 29.7933C49.2293 30.6414 48.1761 31.5619 47.3782 32.5944C46.5759 33.6327 46.0051 34.8179 46.0051 36.194H47.0051ZM50.8847 30.5604C51.8617 29.7431 52.1595 28.4289 52.2822 27.0416C52.3447 26.3351 52.3641 25.5677 52.3855 24.7837C52.407 23.9939 52.4307 23.1808 52.4998 22.3573C52.6382 20.7098 52.9564 19.0574 53.7758 17.5591C54.5897 16.0708 55.9159 14.7023 58.1267 13.6489L57.6966 12.7461C55.3068 13.8848 53.8189 15.3962 52.8984 17.0793C51.9834 18.7524 51.647 20.5628 51.5033 22.2736C51.4315 23.1292 51.4073 23.969 51.3859 24.7564C51.3642 25.5497 51.3454 26.2837 51.2861 26.9535C51.1653 28.3187 50.8852 29.2562 50.2431 29.7933L50.8847 30.5604Z" fill="black"/>
    <path d="M18.3994 13.6823C21.1057 11.5739 23.98 9.56733 28.6834 8.3262C34.251 6.85699 38.7646 6.51032 44.38 7.78487C49.1745 8.87312 51.6512 10.5702 55.7464 13.1977" stroke="black" stroke-linecap="round"/>
    <path d="M40.992 43.2825C41.5876 45.4516 40.4687 50.1336 40.4687 52.3323C40.4687 55.1146 38.4268 56.7119 38.4268 59.4273C38.4268 61.827 38.8998 60.6782 40.269 59.4273C42.465 57.4209 44.1486 55.3477 44.31 52.4806C44.4635 49.7535 45.9642 43.8544 43.6083 41.3433" stroke="black" stroke-linecap="round"/>
    <path d="M23.4999 18.096C23.2453 17.989 23.1256 17.6959 23.2326 17.4413C23.3396 17.1867 23.6327 17.0671 23.8873 17.1741L23.4999 18.096ZM27.3261 21.0676L27.783 20.8644L27.3261 21.0676ZM29.1135 30.9687L29.3474 30.5268L29.1135 30.9687ZM34.0957 42.4259L34.5003 42.1321C34.6172 42.293 34.6275 42.508 34.5266 42.6794C34.4258 42.8509 34.2328 42.9462 34.0354 42.9222L34.0957 42.4259ZM23.0742 29.9695L22.7497 30.3498L23.0742 29.9695ZM17.0843 14.1818C16.8398 14.0535 16.7455 13.7513 16.8738 13.5067C17.0021 13.2622 17.3043 13.168 17.5489 13.2962L17.0843 14.1818ZM23.8873 17.1741C25.185 17.7195 26.857 18.7821 27.783 20.8644L26.8692 21.2708C26.083 19.5028 24.6609 18.5839 23.4999 18.096L23.8873 17.1741ZM29.3474 30.5268C31.1886 31.5011 32.334 32.5582 33.0256 33.6712C33.7188 34.7868 33.9287 35.9151 33.9725 36.9791C33.9943 37.5076 33.9751 38.0252 33.953 38.5135C33.9307 39.0086 33.9058 39.4662 33.9108 39.9074C33.9207 40.7856 34.0505 41.5127 34.5003 42.1321L33.6911 42.7197C33.0617 41.8529 32.9217 40.8771 32.9108 39.9188C32.9054 39.4418 32.9324 38.9478 32.9541 38.4683C32.9761 37.982 32.9932 37.5019 32.9734 37.0202C32.934 36.0639 32.7493 35.1213 32.1762 34.1989C31.6014 33.2739 30.6087 32.3257 28.8796 31.4107L29.3474 30.5268ZM27.783 20.8644C28.7466 23.0315 28.2783 25.2129 28.0711 26.8908C27.9636 27.7608 27.9245 28.475 28.0881 29.0717C28.2415 29.631 28.5842 30.1229 29.3474 30.5268L28.8796 31.4107C27.8891 30.8865 27.355 30.1792 27.1237 29.3362C26.9027 28.5304 26.971 27.6391 27.0786 26.7682C27.3014 24.9644 27.693 23.1232 26.8692 21.2708L27.783 20.8644ZM34.0354 42.9222C31.1294 42.569 29.2493 41.7663 28.1035 40.5491C26.9486 39.3222 26.6207 37.7608 26.6207 36.0887H27.6207C27.6207 37.6414 27.9262 38.9017 28.8317 39.8637C29.7464 40.8355 31.3538 41.5889 34.156 41.9295L34.0354 42.9222ZM26.6207 36.0887C26.6207 34.9834 26.1754 33.9889 25.4572 33.0409C24.7345 32.0869 23.761 31.2128 22.7497 30.3498L23.3988 29.5891C24.4096 30.4517 25.4593 31.3875 26.2543 32.437C27.0539 33.4924 27.6207 34.6947 27.6207 36.0887H26.6207ZM22.7497 30.3498C21.7801 29.5225 21.479 28.2298 21.3764 26.8661C21.3243 26.1733 21.3217 25.4271 21.3257 24.6658C21.3298 23.8984 21.3405 23.1152 21.318 22.3216C21.2728 20.7334 21.0942 19.1621 20.49 17.7571C19.8925 16.3676 18.8688 15.1179 17.0843 14.1818L17.5489 13.2962C19.5417 14.3417 20.7229 15.7673 21.4087 17.3621C22.0878 18.9414 22.2712 20.6635 22.3175 22.2932C22.3407 23.1085 22.3297 23.9153 22.3257 24.6711C22.3217 25.4328 22.3248 26.1428 22.3736 26.7911C22.4728 28.1097 22.7541 29.0391 23.3988 29.5891L22.7497 30.3498Z" fill="black"/>
    <path d="M31.5427 43.2825C30.95 45.4516 32.0635 50.1336 32.0635 52.3323C32.0635 55.1146 34.0957 56.7119 34.0957 59.4273C34.0957 61.827 33.6249 60.6782 32.2623 59.4273C30.0767 57.4209 28.4012 55.3477 28.2405 52.4806C28.0878 49.7535 26.5434 43.8544 28.888 41.3433" stroke="black" stroke-linecap="round"/>
    <path d="M77.1765 47.9985C75.5678 45.0674 75.6486 42.4822 77.1758 39.5111C79.5242 34.942 84.6103 35.0281 89.9079 35.0023C95.2794 34.9762 100.055 35.0917 102.84 39.5111C104.641 42.3685 104.11 44.8885 102.84 47.9985C100.748 53.1183 89.9079 51.8645 89.9079 51.8645C89.9079 51.8645 79.6068 52.4267 77.1765 47.9985Z" stroke="black" stroke-linecap="round"/>
    <path d="M94.3985 52.3019C94.5653 52.0818 94.522 51.7682 94.3019 51.6015C94.0818 51.4347 93.7682 51.478 93.6015 51.6981L94.3985 52.3019ZM91.3189 62.8025L91.8189 62.8025V62.7825L91.8173 62.7626L91.3189 62.8025ZM91.9389 97.742L92.3389 98.042L92.4509 97.8928L92.4377 97.7067L91.9389 97.742ZM85.3555 51.4173C85.1931 51.194 84.8804 51.1446 84.6571 51.3071C84.4338 51.4695 84.3844 51.7822 84.5468 52.0055L85.3555 51.4173ZM88.8507 97.742L89.3388 97.6336V97.6336L88.8507 97.742ZM91.3189 94.9006L90.8195 94.9251L91.3189 94.9006ZM93.6015 51.6981C91.1716 54.9055 90.5077 58.9322 90.8205 62.8424L91.8173 62.7626C91.5166 59.0036 92.1652 55.25 94.3985 52.3019L93.6015 51.6981ZM84.5468 52.0055C87.0859 55.4967 88.3507 58.5619 88.3507 62.8025H89.3507C89.3507 58.3027 87.9874 55.0362 85.3555 51.4173L84.5468 52.0055ZM88.6839 94.9006C88.6839 95.3111 88.5696 95.7072 88.4512 96.2151C88.3403 96.6912 88.2306 97.2564 88.3626 97.8505L89.3388 97.6336C89.2599 97.2782 89.3168 96.9071 89.4251 96.442C89.5261 96.0088 89.6839 95.4589 89.6839 94.9006H88.6839ZM88.3626 97.8505C88.4657 98.3143 88.7051 98.6808 89.0491 98.9219C89.3872 99.1588 89.7897 99.2492 90.1848 99.2345C90.9656 99.2055 91.7943 98.7682 92.3389 98.042L91.5389 97.442C91.1595 97.948 90.6014 98.2183 90.1477 98.2352C89.9256 98.2434 89.7489 98.1912 89.6229 98.1029C89.5028 98.0188 89.393 97.8775 89.3388 97.6336L88.3626 97.8505ZM90.8189 62.8025C90.8189 70.2995 90.3565 85.4778 90.8195 94.9251L91.8183 94.8762C91.3568 85.4588 91.8189 70.3609 91.8189 62.8025L90.8189 62.8025ZM90.8195 94.9251C90.8478 95.5026 91.0053 96.0493 91.1453 96.5202C91.2924 97.0147 91.4142 97.4099 91.4402 97.7774L92.4377 97.7067C92.4021 97.2049 92.2389 96.689 92.1038 96.2351C91.9618 95.7574 91.84 95.318 91.8183 94.8762L90.8195 94.9251ZM88.3507 62.8025C88.3507 68.1565 88.4341 73.5095 88.5174 78.8582C88.6007 84.2083 88.6839 89.5541 88.6839 94.9006H89.6839C89.6839 89.5451 89.6005 84.1914 89.5172 78.8426C89.434 73.4926 89.3507 68.1475 89.3507 62.8025H88.3507Z" fill="black"/>
    <path d="M89.2329 98.2069C87.0687 97.6656 85.9862 95.0066 84.7755 94.038C84.0593 93.4651 83.4549 92.0611 84.168 91.4906C88.5932 87.9504 84.5991 77.1504 84.5991 72.365C84.5991 69.6676 85.6052 64.5953 88.6925 63.5662" stroke="black" stroke-linecap="round"/>
    <path d="M91.4243 98.2069C93.5885 97.6656 94.671 95.0066 95.8817 94.038C96.5979 93.4651 97.2023 92.0611 96.4892 91.4906C92.064 87.9504 96.0581 77.1504 96.0581 72.365C96.0581 69.6676 95.0521 64.5953 91.9647 63.5662" stroke="black" stroke-linecap="round"/>
    <path d="M115.754 51.6583C115.754 45.9624 115.449 41.3999 112.895 37.3277C110.341 33.2554 106.011 35.3789 103.846 37.3275C97.7256 42.8361 97.7585 54 91.9385 59.7771C100.638 58.0372 98.4336 39.7505 109.094 37.3275C117.378 37.3275 112.178 64.8328 112.178 72.2262V80.4457C112.178 82.526 111.816 82.2968 110.414 83.6203C109.541 84.4448 108.644 86.278 109.787 87.4219C110.483 88.118 113.47 87.784 113.589 86.299C113.747 84.3235 113.589 83.2101 113.589 81.0728C113.589 71.393 115.754 61.2796 115.754 51.6583Z" fill="#C4C4C4"/>
    <path d="M112.895 37.3277L112.472 37.5933L112.895 37.3277ZM113.589 86.299L114.087 86.3389L113.589 86.299ZM109.787 87.4219L110.141 87.0683L109.787 87.4219ZM110.414 83.6203L110.758 83.9838L110.414 83.6203ZM109.094 37.3275V36.8275H109.038L108.983 36.8399L109.094 37.3275ZM91.9385 59.7771L91.5862 59.4223C91.4296 59.5777 91.3934 59.8175 91.4972 60.0122C91.601 60.207 91.8201 60.3107 92.0365 60.2674L91.9385 59.7771ZM103.846 37.3275L103.512 36.9558V36.9558L103.846 37.3275ZM112.472 37.5933C114.942 41.5323 115.254 45.9616 115.254 51.6583H116.254C116.254 45.9631 115.956 41.2675 113.319 37.062L112.472 37.5933ZM113.089 81.0728C113.089 83.2751 113.247 84.305 113.091 86.2592L114.087 86.3389C114.247 84.342 114.089 83.1451 114.089 81.0728H113.089ZM113.091 86.2592C113.075 86.448 112.972 86.6282 112.744 86.7979C112.511 86.9716 112.178 87.1083 111.8 87.1895C111.424 87.2701 111.037 87.2889 110.715 87.2521C110.37 87.2127 110.193 87.1207 110.141 87.0683L109.434 87.7754C109.729 88.0711 110.187 88.1983 110.602 88.2457C111.04 88.2957 111.537 88.2687 112.01 88.1672C112.48 88.0663 112.959 87.8846 113.342 87.5997C113.729 87.3109 114.043 86.8925 114.087 86.3389L113.091 86.2592ZM110.758 83.9838C111.096 83.6641 111.368 83.4417 111.606 83.2388C111.835 83.0428 112.055 82.8478 112.227 82.6094C112.595 82.0995 112.678 81.4882 112.678 80.4457H111.678C111.678 81.4835 111.58 81.7977 111.416 82.0241C111.323 82.1539 111.189 82.2798 110.957 82.4781C110.732 82.6694 110.433 82.9147 110.071 83.2568L110.758 83.9838ZM112.678 80.4457V72.2262H111.678V80.4457H112.678ZM108.983 36.8399C106.163 37.4808 104.206 39.1744 102.727 41.3299C101.258 43.4709 100.244 46.0952 99.3115 48.6362C98.3691 51.2039 97.5138 53.6739 96.3599 55.6212C95.214 57.555 93.8209 58.8907 91.8404 59.2868L92.0365 60.2674C94.4059 59.7935 95.9996 58.1909 97.2202 56.131C98.4329 54.0844 99.3239 51.505 100.25 48.9807C101.187 46.4297 102.164 43.9192 103.552 41.8956C104.93 39.8865 106.694 38.3857 109.204 37.8151L108.983 36.8399ZM92.2907 60.132C95.2984 57.1465 96.7783 52.7871 98.2511 48.6182C99.7443 44.3914 101.231 40.3536 104.181 37.6991L103.512 36.9558C100.34 39.81 98.7837 44.1084 97.3082 48.2851C95.8123 52.5195 94.3986 56.6306 91.5862 59.4223L92.2907 60.132ZM104.181 37.6991C105.222 36.7618 106.76 35.8085 108.303 35.5636C109.066 35.4425 109.816 35.4965 110.511 35.7951C111.204 36.0925 111.879 36.6485 112.472 37.5933L113.319 37.062C112.634 35.9706 111.811 35.265 110.906 34.8762C110.003 34.4885 109.056 34.4316 108.147 34.576C106.345 34.8619 104.635 35.9446 103.512 36.9558L104.181 37.6991ZM112.678 72.2262C112.678 70.4097 112.999 67.3389 113.359 63.7034C113.717 60.0858 114.109 55.9397 114.242 52.0212C114.375 48.1129 114.251 44.3847 113.555 41.6188C113.208 40.2363 112.707 39.0495 111.986 38.2002C111.25 37.3333 110.29 36.8275 109.094 36.8275V37.8275C109.968 37.8275 110.658 38.1813 111.223 38.8474C111.804 39.5312 112.256 40.551 112.586 41.8626C113.245 44.485 113.375 48.0952 113.243 51.9874C113.111 55.8694 112.722 59.9859 112.363 63.605C112.007 67.2061 111.678 70.346 111.678 72.2262H112.678ZM115.254 51.6583C115.254 56.4369 114.716 61.3429 114.174 66.2892C113.634 71.2251 113.089 76.2009 113.089 81.0728H114.089C114.089 76.2649 114.627 71.3441 115.168 66.3981C115.709 61.4624 116.254 56.5011 116.254 51.6583H115.254ZM110.141 87.0683C109.736 86.6636 109.666 86.1271 109.827 85.5319C109.991 84.9262 110.381 84.34 110.758 83.9838L110.071 83.2568C109.575 83.7251 109.079 84.4677 108.862 85.2707C108.642 86.0843 108.695 87.0363 109.434 87.7754L110.141 87.0683Z" fill="black"/>
    <path d="M64.2958 52.0755C64.2958 46.3796 64.6007 41.8172 67.1546 37.7449C69.7084 33.6726 74.0385 35.7962 76.2036 37.7447C82.3242 43.2533 83.5 55.5 88.1113 60.1944C79.4117 58.4544 81.6162 40.1677 70.9562 37.7447C62.672 37.7447 67.8718 65.25 67.8718 72.6435V80.863C67.8718 82.9432 68.2341 82.714 69.6354 84.0375C70.5084 84.862 71.4063 86.6953 70.2625 87.8391C69.5664 88.5352 66.5797 88.2012 66.4609 86.7163C66.3028 84.7407 66.4609 83.6274 66.4609 81.49C66.4609 71.8103 64.2958 61.6968 64.2958 52.0755Z" fill="#C4C4C4"/>
    <path d="M67.1546 37.7449L67.5782 38.0105L67.1546 37.7449ZM66.4609 86.7163L65.9625 86.7561L66.4609 86.7163ZM70.2625 87.8391L69.9089 87.4855L70.2625 87.8391ZM69.6354 84.0375L69.2921 84.401L69.6354 84.0375ZM70.9562 37.7447V37.2447H71.0123L71.067 37.2572L70.9562 37.7447ZM88.1113 60.1944L88.468 59.844C88.6218 60.0006 88.6555 60.2392 88.5511 60.4323C88.4467 60.6253 88.2285 60.7277 88.0133 60.6847L88.1113 60.1944ZM76.2036 37.7447L76.5381 37.3731V37.3731L76.2036 37.7447ZM67.5782 38.0105C65.1079 41.9496 64.7958 46.3789 64.7958 52.0755H63.7958C63.7958 46.3803 64.0936 41.6848 66.731 37.4793L67.5782 38.0105ZM66.9609 81.49C66.9609 83.6924 66.8029 84.7222 66.9593 86.6764L65.9625 86.7561C65.8027 84.7592 65.9609 83.5623 65.9609 81.49H66.9609ZM66.9593 86.6764C66.9744 86.8652 67.0782 87.0454 67.3059 87.2152C67.5389 87.3888 67.8717 87.5255 68.2501 87.6067C68.6256 87.6873 69.0132 87.7061 69.3348 87.6694C69.6799 87.6299 69.8566 87.5379 69.9089 87.4855L70.616 88.1926C70.3203 88.4883 69.8626 88.6156 69.4482 88.6629C69.0103 88.7129 68.5133 88.686 68.0403 88.5844C67.5701 88.4835 67.0905 88.3018 66.7083 88.017C66.3208 87.7282 66.0068 87.3098 65.9625 86.7561L66.9593 86.6764ZM69.2921 84.401C68.9536 84.0813 68.6819 83.859 68.4441 83.656C68.2145 83.4601 67.9947 83.265 67.8227 83.0266C67.4546 82.5167 67.3718 81.9054 67.3718 80.863H68.3718C68.3718 81.9008 68.4701 82.215 68.6335 82.4414C68.7272 82.5712 68.8608 82.697 69.0932 82.8953C69.3174 83.0866 69.6165 83.3319 69.9787 83.674L69.2921 84.401ZM67.3718 80.863V72.6435H68.3718V80.863H67.3718ZM71.067 37.2572C73.8865 37.898 75.8442 39.5916 77.3228 41.7472C78.7914 43.8882 79.8057 46.5124 80.7383 49.0534C81.6807 51.6212 82.536 54.0911 83.6899 56.0384C84.8358 57.9723 86.2289 59.308 88.2094 59.7041L88.0133 60.6847C85.6439 60.2108 84.0502 58.6082 82.8296 56.5482C81.6169 54.5017 80.7259 51.9222 79.7995 49.398C78.8632 46.8469 77.8862 44.3364 76.4981 42.3128C75.1201 40.3037 73.3558 38.8029 70.8454 38.2323L71.067 37.2572ZM87.7546 60.5447C86.5395 59.3077 85.5723 57.5978 84.7103 55.6864C83.8475 53.7733 83.0689 51.6081 82.2556 49.4513C80.613 45.0953 78.8246 40.7763 75.8691 38.1164L76.5381 37.3731C79.7032 40.2217 81.563 44.7804 83.1913 49.0985C84.0134 51.2787 84.776 53.3996 85.6218 55.2753C86.4685 57.1525 87.3775 58.7338 88.468 59.844L87.7546 60.5447ZM75.8691 38.1164C74.8276 37.1791 73.2896 36.2257 71.7465 35.9808C70.9835 35.8597 70.2339 35.9137 69.5388 36.2123C68.8462 36.5098 68.1707 37.0658 67.5782 38.0105L66.731 37.4793C67.4154 36.3879 68.2389 35.6823 69.1441 35.2935C70.0468 34.9057 70.9939 34.8489 71.9033 34.9932C73.705 35.2791 75.4145 36.3618 76.5381 37.3731L75.8691 38.1164ZM67.3718 72.6435C67.3718 70.8269 67.0509 67.7562 66.6912 64.1207C66.3332 60.5031 65.9405 56.3569 65.8077 52.4385C65.6752 48.5301 65.7989 44.8019 66.4945 42.036C66.8421 40.6535 67.3432 39.4667 68.064 38.6175C68.7999 37.7505 69.7594 37.2447 70.9562 37.2447V38.2447C70.0819 38.2447 69.3918 38.5985 68.8264 39.2646C68.2459 39.9484 67.7941 40.9682 67.4643 42.2799C66.8048 44.9022 66.6752 48.5124 66.8071 52.4046C66.9387 56.2867 67.3282 60.4031 67.6863 64.0222C68.0427 67.6233 68.3718 70.7633 68.3718 72.6435H67.3718ZM64.7958 52.0755C64.7958 56.8541 65.3335 61.7601 65.8754 66.7064C66.4161 71.6424 66.9609 76.6181 66.9609 81.49H65.9609C65.9609 76.6822 65.4231 71.7613 64.8813 66.8153C64.3406 61.8796 63.7958 56.9183 63.7958 52.0755H64.7958ZM69.9089 87.4855C70.3136 87.0808 70.3837 86.5443 70.2226 85.9492C70.0587 85.3434 69.6692 84.7572 69.2921 84.401L69.9787 83.674C70.4746 84.1423 70.9706 84.885 71.1879 85.6879C71.4081 86.5015 71.3551 87.4535 70.616 88.1926L69.9089 87.4855Z" fill="black"/>
    <path d="M70.2493 87.7989C72.7496 88.7746 76.2021 87.0587 76.2021 82.9275C76.2021 76.5013 72.9552 73.7261 68.0843 72.6436" stroke="black" stroke-linecap="round"/>
    <path d="M65.9189 72.6436C61.6002 75.7844 63.2126 82.3863 65.9189 85.0926" stroke="black" stroke-linecap="round"/>
    <path d="M88.6533 61.4014C84.4363 60.7266 80.0899 59.732 76.2043 57.6125C74.2196 56.53 75.1218 54.4551 77.8281 54.9062C82.9692 55.7631 83.3191 60.3188 88.6533 60.3188" stroke="black" stroke-linecap="round"/>
    <path d="M109.799 87.3816C107.299 88.3573 103.847 86.6415 103.847 82.5103C103.847 76.0841 107.094 73.3088 111.965 72.2263" stroke="black" stroke-linecap="round"/>
    <path d="M114.13 72.2263C118.449 75.3672 116.836 81.969 114.13 84.6753" stroke="black" stroke-linecap="round"/>
    <path d="M91.3975 61.4014C95.6145 60.7266 99.9609 59.732 103.846 57.6125C105.831 56.53 104.929 54.4551 102.223 54.9062C97.0816 55.7631 96.7316 60.3188 91.3975 60.3188" stroke="black" stroke-linecap="round"/>
    <path d="M16.1472 59.9735C23.7249 58.8909 32.7134 72.3805 36.0822 76.4953C42.1615 83.9208 49.6916 88.5887 56.3946 94.8496C58.1069 96.449 52.9789 102.504 52.0322 103.908C46.7962 111.676 34.5501 117.347 20.658 113.477C17.3649 111.084 14.5234 110.063 14.5234 105.473" stroke="black" stroke-linecap="round"/>
    <path d="M54.036 94.614C52.4114 95.6965 53.6245 97.8294 54.7152 97.8294" stroke="black" stroke-linecap="round"/>
    <path d="M52.4111 94.0729C48.635 90.0455 42.9243 90.6491 38.7295 86.0396" stroke="black" stroke-linecap="round"/>
    <path d="M35.6959 80.8738C34.1551 79.6452 31.9888 77.6615 30.9062 79.2852C30.9062 81.9831 35.7064 89.7585 38.4308 86.126C39.7837 84.322 37.504 82.3156 35.6959 80.8738Z" stroke="black" stroke-linecap="round"/>
    <path d="M44.3592 96.1138C43.6962 94.1248 41.033 92.8196 38.8274 92.8196C36.431 92.8196 34.2249 94.8625 35.4088 97.0151C36.412 98.839 37.5907 99.6361 39.6043 98.4136C40.5862 97.8174 45.0771 98.2675 44.3592 96.1138Z" stroke="black" stroke-linecap="round"/>
    <path d="M39.8713 104.376C38.7633 105.231 38.2478 106.386 37.2421 107.522C36.9258 108.438 37.5927 110.06 39.0696 109.75C40.8465 109.376 43.0474 108.981 44.3799 107.522C44.6042 107.277 45.5717 103.502 44.3799 103.305C42.9856 103.074 40.8599 103.613 39.8713 104.376Z" stroke="black" stroke-linecap="round"/>
    <path d="M52.9539 98.9441C49.8552 102.681 47.2124 107.324 42.6699 108.687" stroke="black" stroke-linecap="round"/>
    <path d="M36.1067 101.207C33.9671 99.7259 30.8446 100.045 28.415 100.508C27.1085 101.721 28.0002 103.677 29.3784 104.983C30.3088 105.865 33.1453 106.411 34.3508 106.04C36.4224 105.402 38.3434 102.756 36.1067 101.207Z" stroke="black" stroke-linecap="round"/>
    <path d="M33.8667 92.4007C32.0672 94.2002 30.3222 92.1799 28.4117 90.8313C27.3944 89.4071 26.7344 88.5587 26.7344 86.7912C26.7344 85.7972 27.1569 82.8886 27.9775 82.5025C29.8485 81.622 31.485 86.1094 32.0797 87.0864C32.784 88.2434 34.8988 91.3686 33.8667 92.4007Z" stroke="black" stroke-linecap="round"/>
    <path d="M50.5298 98.6221C47.3376 98.9987 45.5098 101.686 37.6865 102.208" stroke="black" stroke-linecap="round"/>
    <path d="M51.3293 96.7793C46.6511 96.7793 49.2673 96.7793 44.9883 96.7793" stroke="black" stroke-linecap="round"/>
    <path d="M50.2467 94.614C47.5404 93.8644 45.7745 92.8014 43.9457 92.2982C41.6422 91.6644 36.3221 90.1984 34.0361 89.6904" stroke="black" stroke-linecap="round"/>
    <path d="M16.1475 59.9731C21.3986 67.1147 17.23 78.8049 17.23 87.0362" stroke="black" stroke-linecap="round"/>
    <path d="M12.3584 77.835C14.2748 80.9779 16.7917 85.3447 17.577 89.0967C17.577 97.3204 15.606 98.4029 14.5234 105.981" stroke="black" stroke-linecap="round"/>
    <path d="M16.1472 59.9731C12.3586 68.0921 11.0018 79.3401 13.1805 88.0553C13.97 91.2132 12.3586 103.274 14.5236 105.98" stroke="black" stroke-linecap="round"/>
</svg>
