<svg width="120" height="120" viewBox="0 0 120 120" fill="none" xmlns="http://www.w3.org/2000/svg">
    <path d="M16.2849 24.1655C19.484 15.208 26.1455 10.3768 33.9614 11.2452C43.1797 12.2695 56.6122 22.4557 51.1135 33.4531C46.741 42.1981 43.1772 50.9797 31.9016 50.9797C15.4762 50.9797 11.7413 36.8876 16.2849 24.1655Z" fill="#F5F5F5"/>
    <path d="M33.982 39.5923C30.0352 40.4694 25.1484 37.2222 25.1484 32.9671C25.1484 26.7223 36.4817 18.8539 40.0552 26.8941C42.2769 31.893 40.6385 38.1131 33.982 39.5923Z" fill="#E0E0E0"/>
    <path d="M20.7791 57.3462C18.4132 59.712 20.7734 48.4534 20.7794 48.4259L25.7009 50.6343C25.7009 53.2336 22.5018 62.0023 22.5018 55.5486C22.5018 50.6012 21.7483 56.3769 20.7791 57.3462Z" fill="#C4C4C4"/>
    <path d="M52.3126 47.6092C50.8755 45.3098 49.2273 42.8037 48.1182 40.1941L49.4413 36.8318C51.6904 37.9564 54.5765 41.0602 56.5444 42.5909C59.4928 44.8841 54.2919 43.9674 53.2114 44.2761C52.5207 44.4734 54.1851 46.5652 54.1851 47.2721C54.1851 48.5076 52.9403 48.6135 52.3126 47.6092Z" fill="#C4C4C4"/>
    <path d="M59.9145 18.9226C57.1467 21.0753 54.04 21.4087 50.8141 22.6676L48.3371 17.9488C49.2798 17.7917 54.4102 14.7478 57.7228 14.7478C58.263 16.6386 52.5647 17.9489 56.2069 17.9489C57.0821 17.9489 63.1325 16.4196 59.9145 18.9226Z" fill="#C4C4C4"/>
    <path d="M39.3546 2.81896C39.3546 6.32356 38.2399 8.00442 38.1562 11.4352H33C33.5521 8.6747 34.6062 4.07866 35.6388 1.49739C35.8472 0.976231 36.9021 4.31725 37.0327 4.39186C38.0348 4.96451 37.9256 3.5798 38.1562 3.11856C39.2383 0.954412 39.3546 0.128004 39.3546 2.81896Z" fill="#C4C4C4"/>
    <path d="M9.16946 18.0987C10.7769 16.4912 16.3057 22.2543 16.8673 22.9671L14.6589 27.446C13.6165 26.6642 9.40635 24.1895 9.05711 22.9672C8.4951 21.0002 12.3555 23.2636 11.6412 21.6564C11.4321 21.186 9.0197 18.2484 9.16946 18.0987Z" fill="#C4C4C4"/>
    <path d="M24.5962 78.7913C28.9107 74.237 34.8665 76.182 36.7428 68.3013C40.6417 59.5289 43.6701 66.6002 49.466 65.7722C52.1985 65.3818 55.318 60.5384 58.6039 59.4431C64.1928 57.5801 68.5935 60.3577 69.6891 66.1092C71.5572 75.9167 77.0309 76.4982 86.5416 77.2693C95.6924 78.0113 95.1473 91.4593 94.5933 97.8294C92.8815 117.515 89.898 109.769 77.4412 111.686C69.5365 112.902 61.1507 124.437 53.8852 114.495C48.9025 107.676 51.1943 97.7075 39.3545 100.339C33.9758 101.534 30.0378 100.023 26.0223 96.294C20.4904 91.1571 19.9718 83.6726 24.5962 78.7913Z" fill="#F5F5F5"/>
    <path d="M58.2753 93.6982C54.947 93.1861 52.2866 94.6022 51.1521 91.4257C48.4312 83.8071 55.3915 73.4674 62.4704 80.2742C65.8953 83.5673 83.4807 96.4587 66.5565 96.4587C63.0538 96.4587 61.6499 94.2173 58.2753 93.6982Z" fill="#E0E0E0"/>
    <path d="M79.8371 33.1538C73.9847 28.2168 72.0857 21.3411 74.8374 14.196C77.3936 7.55858 82.4757 3.94354 89.5741 3.49337C101.433 2.74132 111.525 19.9252 104.891 29.7833C99.3795 37.9738 87.383 39.5195 79.8371 33.1538Z" fill="#E6E6E6"/>
    <path d="M88.5644 27.9106C85.8674 26.7119 83.8151 23.9612 83.1201 20.795C83.1201 16.3694 84.4705 14.1841 89.6505 11.8819C96.3132 8.92072 90.1652 18.0037 94.6313 20.795C97.7966 22.7733 91.3575 29.1519 88.5644 27.9106Z" fill="#C4C4C4"/>
    <path d="M88.5 16.5001C88.9 15.7001 86 16.5001 86 16.5001C86 16.5001 85.0002 17.5 86 18C86.4472 18.2237 88 17.5001 88.5 16.5001Z" fill="white"/>
    <path d="M58.5 80.5001C58.9 79.7001 56 80.5001 56 80.5001C56 80.5001 55.0002 81.5 56 82C56.4472 82.2237 58 81.5001 58.5 80.5001Z" fill="white"/>
    <path d="M31 28.5001C31 28.5001 33.9 27.7001 33.5 28.5001C33 29.5001 31.4472 30.2237 31 30C30.0002 29.5 31 28.5001 31 28.5001Z" fill="white"/>
    <path d="M16.284 24.1655C19.4831 15.208 26.1446 10.3768 33.9604 11.2452C43.1787 12.2695 56.6112 22.4557 51.1125 33.4531C46.74 42.1981 43.1763 50.9797 31.9006 50.9797C15.4753 50.9797 11.7404 36.8876 16.284 24.1655Z" stroke="black" stroke-linecap="round"/>
    <path d="M33.9811 39.5923C30.0343 40.4694 25.1475 37.2222 25.1475 32.9671C25.1475 26.7223 36.4807 18.8539 40.0542 26.8941C42.2759 31.893 40.6375 38.1131 33.9811 39.5923Z" stroke="black" stroke-linecap="round"/>
    <path d="M21.2669 48.533C21.326 48.2632 21.1552 47.9967 20.8855 47.9375C20.6158 47.8784 20.3492 48.0491 20.29 48.3189L21.2669 48.533ZM20.7781 57.3462L20.4245 56.9927L20.7781 57.3462ZM26.2 50.6343C26.2 50.3582 25.9761 50.1343 25.7 50.1343C25.4238 50.1343 25.2 50.3582 25.2 50.6343H26.2ZM48.5774 39.9985C48.4693 39.7444 48.1758 39.6259 47.9216 39.7339C47.6675 39.8419 47.549 40.1355 47.657 40.3896L48.5774 39.9985ZM52.3116 47.6092L52.7356 47.3442L52.3116 47.6092ZM53.2104 44.2761L53.3478 44.7569L53.2104 44.2761ZM56.5434 42.5909L56.2365 42.9855L56.5434 42.5909ZM49.6639 36.3846C49.4169 36.2611 49.1166 36.3612 48.9931 36.6082C48.8696 36.8552 48.9697 37.1555 49.2167 37.279L49.6639 36.3846ZM50.6314 22.2018C50.3741 22.3022 50.247 22.5921 50.3474 22.8493C50.4477 23.1066 50.7377 23.2337 50.9949 23.1334L50.6314 22.2018ZM59.9135 18.9226L59.6065 18.5279L59.9135 18.9226ZM57.7218 14.7478L58.2026 14.6104L58.0989 14.2478H57.7218V14.7478ZM48.2539 17.4556C47.9815 17.501 47.7975 17.7586 47.8429 18.031C47.8883 18.3034 48.1459 18.4874 48.4183 18.442L48.2539 17.4556ZM37.6554 11.423C37.6487 11.6991 37.867 11.9283 38.143 11.9351C38.4191 11.9418 38.6484 11.7235 38.6551 11.4474L37.6554 11.423ZM38.1552 3.11856L38.6025 3.34217L38.1552 3.11856ZM37.0317 4.39186L36.7837 4.82599V4.82599L37.0317 4.39186ZM35.6378 1.49739L35.1735 1.3117V1.3117L35.6378 1.49739ZM32.9391 10.2329C32.8849 10.5037 33.0605 10.7671 33.3313 10.8213C33.6021 10.8754 33.8655 10.6998 33.9197 10.4291L32.9391 10.2329ZM16.4736 23.2766C16.6445 23.4935 16.9589 23.5308 17.1758 23.3599C17.3927 23.189 17.43 22.8746 17.2591 22.6577L16.4736 23.2766ZM9.16848 18.0987L9.52204 18.4522H9.52204L9.16848 18.0987ZM11.6402 21.6564L11.1833 21.8595L11.6402 21.6564ZM9.05613 22.9672L9.53689 22.8298L9.05613 22.9672ZM14.358 27.846C14.5789 28.0117 14.8923 27.967 15.058 27.746C15.2236 27.5251 15.1789 27.2117 14.958 27.046L14.358 27.846ZM20.29 48.3189C20.2856 48.3392 19.6901 51.1792 19.3922 53.7255C19.2452 54.9822 19.1621 56.2317 19.285 57.0304C19.3164 57.2344 19.3648 57.4353 19.4432 57.6093C19.5195 57.7785 19.649 57.9767 19.8738 58.0899C20.1183 58.213 20.3726 58.1854 20.5824 58.097C20.7796 58.0138 20.9624 57.869 21.1316 57.6998L20.4245 56.9927C20.2981 57.1191 20.222 57.1636 20.1939 57.1755C20.1784 57.182 20.2408 57.1551 20.3234 57.1967C20.3864 57.2284 20.384 57.2629 20.3549 57.1984C20.328 57.1388 20.2977 57.0359 20.2734 56.8783C20.1737 56.2306 20.2374 55.1073 20.3854 53.8417C20.5312 52.5953 20.7509 51.2708 20.9352 50.2531C21.1195 49.2352 21.267 48.5326 21.2669 48.533L20.29 48.3189ZM21.1316 57.6998C21.316 57.5154 21.4634 57.2546 21.5829 57.0006C21.7072 56.7362 21.8228 56.4314 21.9289 56.1236C22.1327 55.5323 22.3375 54.8141 22.4782 54.384C22.5569 54.1433 22.6145 53.9936 22.6517 53.9243C22.6595 53.9099 22.6598 53.9117 22.6516 53.9223C22.6473 53.9278 22.6131 53.9732 22.5437 54.0127C22.4599 54.0603 22.3161 54.1011 22.1572 54.0411C22.0228 53.9903 21.9596 53.8965 21.9423 53.8684C21.9106 53.817 21.9174 53.7972 21.9327 53.8824C21.9448 53.95 21.9572 54.053 21.9678 54.2014C21.989 54.4971 22.0008 54.9339 22.0008 55.5486H23.0008C23.0008 54.9265 22.989 54.4615 22.9652 54.1299C22.9534 53.9647 22.9379 53.8227 22.917 53.7062C22.8993 53.6074 22.8681 53.4646 22.7935 53.3436C22.7548 53.2807 22.669 53.1655 22.5107 53.1057C22.328 53.0367 22.1592 53.0809 22.0492 53.1434C21.9537 53.1978 21.8922 53.2695 21.8595 53.3119C21.8229 53.3593 21.7937 53.4085 21.7708 53.451C21.6857 53.6095 21.6037 53.8407 21.5277 54.0733C21.3588 54.5899 21.1936 55.1881 20.9835 55.7978C20.8826 56.0905 20.7803 56.3573 20.6779 56.575C20.5707 56.803 20.4825 56.9347 20.4245 56.9927L21.1316 57.6998ZM22.0008 55.5486C22.0008 56.3672 22.0507 56.9818 22.1515 57.4112C22.2015 57.6242 22.2713 57.8247 22.377 57.9871C22.4855 58.1537 22.6631 58.324 22.9267 58.3634C23.1793 58.4012 23.3906 58.2998 23.5313 58.2004C23.6747 58.0991 23.8007 57.9617 23.9097 57.8195C24.1295 57.5329 24.3474 57.1384 24.5533 56.6981C24.9682 55.8109 25.3769 54.645 25.6821 53.5393C25.9841 52.4451 26.2 51.3553 26.2 50.6343H25.2C25.2 51.213 25.016 52.194 24.7181 53.2733C24.4234 54.3411 24.0324 55.4514 23.6474 56.2745C23.4534 56.6894 23.2714 57.0086 23.1163 57.2108C23.038 57.313 22.9827 57.3636 22.9543 57.3837C22.9231 57.4057 22.972 57.3591 23.0746 57.3744C23.1882 57.3914 23.2284 57.4621 23.2151 57.4415C23.199 57.4168 23.1625 57.3425 23.125 57.1827C23.0508 56.8666 23.0008 56.3435 23.0008 55.5486H22.0008ZM47.657 40.3896C48.7854 43.0447 50.4612 45.5919 51.8876 47.8742L52.7356 47.3442C51.2878 45.0278 49.6671 42.5627 48.5774 39.9985L47.657 40.3896ZM51.8876 47.8742C52.2777 48.4983 52.9199 48.8657 53.5536 48.7756C53.8751 48.7299 54.1704 48.5653 54.3792 48.288C54.585 48.0147 54.6841 47.6636 54.6841 47.2721H53.6841C53.6841 47.4984 53.6276 47.6238 53.5804 47.6865C53.5361 47.7452 53.481 47.7759 53.4129 47.7856C53.2673 47.8062 52.9732 47.7243 52.7356 47.3442L51.8876 47.8742ZM54.6841 47.2721C54.6841 47.0989 54.6359 46.9254 54.5855 46.7822C54.5323 46.6313 54.4607 46.4716 54.3845 46.3148C54.2367 46.011 54.0354 45.6484 53.8821 45.3528C53.7148 45.0302 53.5989 44.7769 53.5561 44.6064C53.5337 44.5168 53.5492 44.5156 53.5372 44.561C53.5129 44.6522 53.4321 44.7328 53.3478 44.7569L53.073 43.7954C52.816 43.8688 52.6361 44.0579 52.5707 44.3041C52.5175 44.5044 52.5497 44.7044 52.5862 44.8497C52.6613 45.1491 52.8319 45.4998 52.9944 45.8132C53.1709 46.1536 53.3425 46.4588 53.4852 46.7522C53.5542 46.894 53.6073 47.0152 53.6424 47.1148C53.6597 47.164 53.6709 47.2029 53.6774 47.2324C53.6842 47.2629 53.6841 47.2748 53.6841 47.2721H54.6841ZM53.3478 44.7569C53.4199 44.7363 53.5665 44.7176 53.8034 44.7088C54.0296 44.7003 54.2987 44.7017 54.596 44.705C55.1762 44.7116 55.8675 44.7266 56.4326 44.6757C56.7141 44.6503 56.998 44.6062 57.2364 44.5217C57.4558 44.444 57.7624 44.2876 57.8871 43.9527C58.0185 43.5996 57.872 43.2646 57.6994 43.0204C57.5195 42.766 57.2333 42.494 56.8504 42.1962L56.2365 42.9855C56.5907 43.261 56.7869 43.462 56.8828 43.5976C56.9859 43.7435 56.9083 43.7155 56.9499 43.6038C56.9847 43.5102 57.0426 43.5295 56.9025 43.5792C56.7813 43.6221 56.5948 43.657 56.3429 43.6797C55.8413 43.7249 55.214 43.7119 54.6073 43.7051C54.3111 43.7017 54.0196 43.7 53.7661 43.7095C53.5233 43.7185 53.271 43.7388 53.073 43.7954L53.3478 44.7569ZM56.8504 42.1962C55.8831 41.4438 54.701 40.3135 53.4292 39.1851C52.184 38.0803 50.8551 36.9802 49.6639 36.3846L49.2167 37.279C50.2746 37.808 51.5133 38.8221 52.7655 39.9331C53.991 41.0204 55.2358 42.2073 56.2365 42.9855L56.8504 42.1962ZM50.9949 23.1334C52.6 22.507 54.1131 22.1325 55.6935 21.6045C57.2436 21.0866 58.7726 20.4433 60.2205 19.3172L59.6065 18.5279C58.2866 19.5545 56.8784 20.1543 55.3767 20.656C53.9053 21.1476 52.2521 21.5693 50.6314 22.2018L50.9949 23.1334ZM60.2205 19.3172C60.6341 18.9955 60.9376 18.71 61.1213 18.4522C61.2876 18.2186 61.4732 17.8303 61.2407 17.4525C61.1388 17.2868 60.9893 17.1896 60.8617 17.132C60.7329 17.0738 60.5932 17.0406 60.4611 17.0203C60.1972 16.9799 59.8838 16.9799 59.5663 16.9979C58.9267 17.0343 58.1645 17.1516 57.5266 17.2555C57.202 17.3084 56.9128 17.3573 56.6734 17.3937C56.4222 17.4319 56.2706 17.4489 56.2059 17.4489V18.4489C56.36 18.4489 56.589 18.418 56.8237 18.3824C57.07 18.3449 57.372 18.2939 57.6874 18.2425C58.3295 18.1379 59.0429 18.0293 59.6231 17.9963C59.9154 17.9797 60.1479 17.984 60.3096 18.0088C60.3902 18.0212 60.4332 18.0357 60.45 18.0433C60.4679 18.0514 60.4268 18.0379 60.389 17.9765C60.2849 17.8073 60.4221 17.7102 60.3068 17.8721C60.2087 18.0097 59.9974 18.2239 59.6065 18.5279L60.2205 19.3172ZM56.2059 17.4489C55.7547 17.4489 55.4884 17.4277 55.3474 17.399C55.2714 17.3835 55.2808 17.375 55.3201 17.4016C55.3822 17.4437 55.4973 17.5675 55.4802 17.759C55.4688 17.8874 55.4013 17.947 55.4237 17.9221C55.4343 17.9104 55.4645 17.8818 55.5276 17.8345C55.6534 17.74 55.834 17.6262 56.0657 17.4813C56.5052 17.2065 57.1019 16.8374 57.5485 16.4048C57.9821 15.9849 58.4176 15.3632 58.2026 14.6104L57.241 14.8851C57.2961 15.0778 57.2219 15.329 56.8528 15.6865C56.4968 16.0314 55.9978 16.3444 55.5355 16.6335C55.3163 16.7705 55.0946 16.9091 54.9272 17.0347C54.8438 17.0974 54.7548 17.1707 54.6811 17.2524C54.6192 17.321 54.5024 17.4656 54.4842 17.6702C54.4603 17.9379 54.6111 18.1291 54.7591 18.2294C54.8843 18.3142 55.0298 18.3548 55.1476 18.3788C55.3942 18.4291 55.7466 18.4489 56.2059 18.4489V17.4489ZM57.7218 14.2478C55.9506 14.2478 53.7531 15.0512 51.9427 15.8301C51.0274 16.2238 50.1845 16.6236 49.5247 16.9285C49.1922 17.0822 48.9095 17.2102 48.6827 17.3043C48.4419 17.4041 48.3079 17.4466 48.2539 17.4556L48.4183 18.442C48.6 18.4117 48.8325 18.3247 49.0657 18.228C49.3128 18.1255 49.6115 17.99 49.9442 17.8362C50.6151 17.5262 51.4386 17.1355 52.3378 16.7487C54.1564 15.9663 56.1804 15.2478 57.7218 15.2478V14.2478ZM38.6551 11.4474C38.6956 9.78734 38.984 8.55384 39.2737 7.26435C39.5642 5.97098 39.8536 4.62955 39.8536 2.81896H38.8536C38.8536 4.51297 38.5857 5.76427 38.298 7.04518C38.0094 8.32996 37.6986 9.65228 37.6554 11.423L38.6551 11.4474ZM39.8536 2.81896C39.8536 2.15362 39.8469 1.6726 39.8159 1.37441C39.8078 1.29738 39.7972 1.22181 39.7819 1.15242C39.7681 1.08984 39.7436 0.998979 39.6932 0.911334C39.6447 0.827013 39.5172 0.655721 39.2729 0.627581C39.0485 0.601722 38.8924 0.719193 38.835 0.76834C38.7172 0.869171 38.6296 1.01871 38.5734 1.11937C38.5056 1.24082 38.4301 1.39346 38.3482 1.56398C38.1805 1.91341 37.9764 2.35826 37.708 2.89496L38.6025 3.34217C38.8751 2.79679 39.0913 2.32679 39.2498 1.99668C39.331 1.82745 39.395 1.69915 39.4465 1.60702C39.4721 1.56118 39.4906 1.53145 39.503 1.51367C39.5183 1.49149 39.5125 1.50468 39.4855 1.52785C39.4692 1.54181 39.3499 1.64306 39.1585 1.62101C38.9473 1.59668 38.849 1.44922 38.8263 1.40983C38.8018 1.36712 38.7997 1.34228 38.8054 1.36788C38.8095 1.38668 38.8154 1.42144 38.8212 1.47797C38.8458 1.71404 38.8536 2.13883 38.8536 2.81896H39.8536ZM37.708 2.89496C37.6143 3.08246 37.5665 3.33047 37.5334 3.4928C37.4929 3.69154 37.4613 3.84498 37.4157 3.96467C37.3661 4.09449 37.3441 4.06358 37.4037 4.03848C37.4796 4.00658 37.4737 4.06855 37.2798 3.95774L36.7837 4.82599C37.0908 5.0015 37.4471 5.10513 37.7915 4.96024C38.1197 4.82215 38.2727 4.52361 38.35 4.32118C38.4311 4.10861 38.4781 3.86519 38.5133 3.69247C38.5559 3.48334 38.5809 3.38529 38.6025 3.34217L37.708 2.89496ZM37.2798 3.95774C37.3422 3.99341 37.3807 4.03398 37.3949 4.04968C37.4126 4.0691 37.424 4.08515 37.429 4.09251C37.439 4.10702 37.4427 4.11486 37.4394 4.1087C37.4337 4.09785 37.4217 4.07268 37.4025 4.02784C37.3651 3.9404 37.3154 3.81403 37.2553 3.65645C37.138 3.34931 36.9832 2.93018 36.8294 2.53844C36.6767 2.14981 36.5115 1.75259 36.3651 1.48163C36.3019 1.36462 36.2048 1.19739 36.0757 1.08784C36.0187 1.03952 35.836 0.899465 35.581 0.954415C35.3132 1.01213 35.2063 1.2299 35.1735 1.3117L36.102 1.68309C36.0953 1.69974 36.0211 1.88254 35.7917 1.93197C35.5751 1.97864 35.4365 1.857 35.4287 1.85031C35.3977 1.824 35.4182 1.83287 35.4853 1.95696C35.5994 2.16819 35.7451 2.51318 35.8986 2.90399C36.0508 3.29169 36.1973 3.68922 36.3211 4.01322C36.3814 4.17121 36.4372 4.31403 36.4833 4.42154C36.5058 4.47419 36.5301 4.52794 36.5543 4.57398C36.566 4.59625 36.583 4.62703 36.6046 4.65853C36.6121 4.66933 36.6717 4.76202 36.7837 4.82599L37.2798 3.95774ZM35.1735 1.3117C34.1194 3.94704 33.486 7.49811 32.9391 10.2329L33.9197 10.4291C34.4769 7.64289 35.0911 4.21028 36.102 1.68309L35.1735 1.3117ZM17.2591 22.6577C16.9507 22.2663 15.3999 20.621 13.7228 19.2731C12.8854 18.5999 11.9843 17.9743 11.1687 17.622C10.4014 17.2905 9.4604 17.0997 8.81493 17.7451L9.52204 18.4522C9.6803 18.294 10.0332 18.2208 10.7721 18.54C11.4629 18.8384 12.2805 19.3967 13.0964 20.0525C14.726 21.3624 16.2203 22.9551 16.4736 23.2766L17.2591 22.6577ZM8.81493 17.7451C8.6725 17.8876 8.66059 18.0574 8.66188 18.1297C8.6633 18.2086 8.68126 18.2735 8.69277 18.3097C8.71687 18.3854 8.75336 18.4581 8.78399 18.5144C8.84877 18.6333 8.94349 18.7795 9.04977 18.9344C9.26515 19.2485 9.56545 19.6526 9.87014 20.0578C10.1781 20.4673 10.4908 20.8784 10.7421 21.2196C10.8675 21.3899 10.9741 21.5382 11.0547 21.6564C11.095 21.7155 11.1268 21.7641 11.1503 21.8023C11.1759 21.844 11.1838 21.8607 11.1833 21.8595L12.0971 21.4534C12.0499 21.3472 11.9637 21.2144 11.8809 21.0929C11.7901 20.9599 11.6752 20.8003 11.5473 20.6267C11.2922 20.2801 10.972 19.8592 10.6694 19.4568C10.3636 19.0501 10.0758 18.6624 9.87444 18.3688C9.77235 18.22 9.70153 18.1083 9.66224 18.0362C9.64083 17.9968 9.64065 17.9906 9.64576 18.0067C9.64777 18.013 9.66067 18.0528 9.66172 18.1118C9.66266 18.1641 9.65511 18.3192 9.52204 18.4522L8.81493 17.7451ZM11.1833 21.8595C11.2607 22.0338 11.2064 22.015 11.2433 21.9172C11.2987 21.7703 11.4251 21.7609 11.3719 21.7703C11.3192 21.7795 11.2159 21.7805 11.0419 21.7617C10.8735 21.7435 10.6907 21.7136 10.4784 21.6822C10.2758 21.6523 10.0513 21.6219 9.83745 21.6123C9.62978 21.603 9.38841 21.6106 9.16677 21.6837C8.9281 21.7623 8.68696 21.9278 8.56912 22.2308C8.46189 22.5064 8.49158 22.8113 8.57537 23.1046L9.53689 22.8298C9.48018 22.6313 9.50757 22.5766 9.50109 22.5933C9.484 22.6372 9.44667 22.6443 9.47971 22.6334C9.52979 22.6169 9.62804 22.6039 9.79277 22.6113C9.95131 22.6184 10.132 22.6419 10.3321 22.6715C10.5226 22.6997 10.7402 22.7349 10.9347 22.7559C11.1236 22.7763 11.3456 22.7903 11.5456 22.7551C11.745 22.7199 12.0515 22.6083 12.179 22.2699C12.2881 21.9805 12.1982 21.6809 12.0971 21.4534L11.1833 21.8595ZM8.57537 23.1046C8.64604 23.3519 8.79814 23.5859 8.96559 23.793C9.13828 24.0065 9.35585 24.2257 9.59678 24.4436C10.0788 24.8795 10.6891 25.3412 11.308 25.7798C11.9287 26.2197 12.57 26.6446 13.1165 27.0055C13.6715 27.372 14.1127 27.6621 14.358 27.846L14.958 27.046C14.682 26.839 14.206 26.5266 13.6675 26.171C13.1205 25.8098 12.4919 25.3931 11.8862 24.9639C11.2785 24.5332 10.7058 24.0982 10.2675 23.7019C10.0484 23.5037 9.87158 23.3229 9.74311 23.1641C9.6094 22.9988 9.55354 22.8881 9.53689 22.8298L8.57537 23.1046Z" fill="black"/>
    <path d="M24.5952 78.7913C28.9097 74.237 34.8655 76.182 36.7418 68.3013C40.6407 59.5289 43.6692 66.6002 49.4651 65.7722C52.1975 65.3818 55.3171 60.5384 58.6029 59.4431C64.1918 57.5801 68.5926 60.3577 69.6881 66.1092C71.5562 75.9167 77.03 76.4982 86.5406 77.2693C95.6914 78.0113 95.1463 91.4593 94.5924 97.8294C92.8806 117.515 89.897 109.769 77.4403 111.686C69.5355 112.902 61.1498 124.437 53.8842 114.495C48.9015 107.676 51.1933 97.7075 39.3536 100.339C33.9749 101.534 30.0368 100.023 26.0213 96.294C20.4894 91.1571 19.9708 83.6726 24.5952 78.7913Z" stroke="black" stroke-linecap="round"/>
    <path d="M58.2743 93.6982C54.946 93.1861 52.2856 94.6022 51.1511 91.4257C48.4302 83.8071 55.3905 73.4674 62.4695 80.2742C65.8943 83.5673 83.4798 96.4587 66.5555 96.4587C63.0529 96.4587 61.6489 94.2173 58.2743 93.6982Z" stroke="black" stroke-linecap="round"/>
    <path d="M79.8361 33.1538C73.9838 28.2168 72.0848 21.3411 74.8364 14.196C77.3926 7.55858 82.4747 3.94354 89.5731 3.49337C101.432 2.74132 111.524 19.9252 104.89 29.7833C99.3785 37.9738 87.382 39.5195 79.8361 33.1538Z" stroke="black" stroke-linecap="round"/>
    <path d="M88.5634 27.9106C85.8664 26.7119 83.8141 23.9612 83.1191 20.795C83.1191 16.3694 84.4695 14.1841 89.6495 11.8819C96.3122 8.92072 90.1642 18.0037 94.6303 20.795C97.7956 22.7733 91.3565 29.1519 88.5634 27.9106Z" stroke="black" stroke-linecap="round"/>
</svg>
