<svg width="122" height="120" viewBox="0 0 122 120" fill="none" xmlns="http://www.w3.org/2000/svg">
    <path d="M102.723 56.9016C102.539 57.5476 111.316 61.8114 120.521 58.1291V71.631C113.157 70.4036 105.792 70.4036 100.882 72.8585C95.4134 97.4682 79.4019 107.227 57.9216 106C45.6336 105.297 26.5 95.5 18.6433 85.7467C8.44967 77.5066 1.45898 73.9996 1.45898 60.584C1.45898 48.6623 11.1319 43.9476 20.4844 34.1939C29.9515 24.3206 41.9776 12.0998 54.2392 12.0998C80.0156 10.8723 102.723 20.6919 102.723 56.9016Z" fill="#E6E6E6"/>
    <path d="M92.9041 62.4251C92.2903 82.0642 76.9473 98.021 56.6944 97.4073C35.7225 96.7719 16.8023 86.4342 16.8023 61.419C15.74 35.2232 35.1581 19.5092 57.9218 20.0782C82.4708 20.6918 93.5741 40.9851 92.9041 62.4251Z" fill="#F5F5F5"/>
    <path d="M17.7106 76.9345C11.5234 67.9023 14.518 45.2522 18.3854 39.9834C15.0449 43.2344 3.78901 52.0959 4.56348 59.6228C5.47877 68.5182 18.2979 78.7922 17.7106 76.9345Z" fill="#F5F5F5"/>
    <path d="M20 58.7762C20.0003 50.1747 20.4919 41.4503 22.9894 42.0271C25.3954 42.5828 25.8061 48.0304 25.9818 58.7762C26.125 67.5375 25.4497 75.4161 22.9888 75.9739C20.4386 76.5519 19.9997 67.4444 20 58.7762Z" fill="#9E9E9E"/>
    <path d="M83.6975 80.8366C78.2442 87.7966 74.4497 90.8582 65.8995 93.1111C50.1012 97.2737 28.1528 89.76 27.5132 78.3817C27.1494 71.9116 29.616 66.0017 29.616 59.6352C29.616 54.19 27.7236 48.8574 27.5134 43.7413C26.7872 26.0647 51.5665 20.6933 65.8995 23.7605C78.4584 26.448 82.3918 32.4857 86.7661 42.7857C92.5753 56.4644 92.8921 69.1017 83.6975 80.8366Z" fill="white"/>
    <path d="M100.372 63.222C97.3003 63.222 94.976 62.8345 92.9664 59.0256L92.4375 69.0756C93.9316 67.7786 94.2268 66.9598 96.0343 66.9598C104.363 66.9598 112.057 66.9598 121.001 67.4888V63.222C114.554 64.4913 107.235 63.222 100.372 63.222Z" fill="#9E9E9E"/>
    <path d="M90.8508 61.6701C87.8453 60.9187 82.6518 59.1 79.7429 56.5931C78.5563 55.5703 77.7498 54.433 77.6272 53.207C77.5199 52.1347 77.2972 51.0625 77.0073 50.0333M73.9245 43.157C74.7144 44.3417 76.1529 47.0007 77.0073 50.0333M77.0073 50.0333C75.8719 50.805 73.0639 51.9707 69.164 52.0522C67.7175 52.0825 66.1208 51.9636 64.4035 51.6201M90 65.5C86.65 68.85 79.4256 75.6343 73.9245 76.4806C72.2593 76.7368 70.649 76.8702 69.164 76.9219M61.7588 76.4806C62.9882 76.7265 65.7435 77.0409 69.164 76.9219M69.164 76.9219C67.5772 77.6563 64.4035 79.4427 64.4035 80.7121M90.5 63.5C88.6528 64.1157 85.8305 65.8688 82.9166 66.4621M77.6272 66.9595C78.8652 67.1364 80.8241 66.8882 82.9166 66.4621M82.9166 66.4621C81.5061 65.9227 78.8966 64.5264 79.7429 63.2569M90.8508 60.6122C89.399 58.7733 87.1503 55.7974 85.4171 53.207M82.9166 48.4464C82.9166 49.2099 83.9928 51.0783 85.4171 53.207M85.4171 53.207C85.4171 52.678 85.4171 51.3027 85.4171 50.0333" stroke="#C4C4C4" stroke-linecap="round" stroke-linejoin="round"/>
    <path d="M92.9037 62.4253C92.2899 82.0644 76.9468 98.0213 56.694 97.4076C35.7221 96.7721 16.8019 86.4344 16.8019 61.4192C15.2118 35.2231 35.1577 19.5094 57.9214 20.0784C82.4704 20.6921 93.5737 40.9853 92.9037 62.4253Z" stroke="black" stroke-linecap="round"/>
    <path d="M18.3854 40.5122L18.7885 40.8081C18.9424 40.5984 18.9099 40.3058 18.7136 40.135C18.5174 39.9643 18.2231 39.9725 18.0367 40.1539L18.3854 40.5122ZM17.7106 76.9344L18.1873 76.7836L18.165 76.713L18.1231 76.6518L17.7106 76.9344ZM4.56348 59.6226L5.06085 59.5715L4.56348 59.6226ZM17.9824 40.2163C16.9549 41.6161 16.0241 44.0667 15.2928 47.0362C14.5572 50.0236 14.0095 53.5946 13.7785 57.2807C13.5475 60.9662 13.6321 64.78 14.1678 68.2501C14.7024 71.7135 15.692 74.8723 17.2981 77.2169L18.1231 76.6518C16.6356 74.4803 15.6793 71.4869 15.1561 68.0976C14.6339 64.715 14.5489 60.9757 14.7765 57.3433C15.0042 53.7115 15.5436 50.1998 16.2638 47.2753C16.9884 44.3331 17.8823 42.0427 18.7885 40.8081L17.9824 40.2163ZM5.06085 59.5715C4.8809 57.8225 5.39697 55.9918 6.36878 54.1519C7.33981 52.3136 8.74799 50.5001 10.3004 48.8013C11.8512 47.1043 13.5329 45.5355 15.0413 44.1836C16.5369 42.8431 17.8897 41.6924 18.7341 40.8705L18.0367 40.1539C17.2109 40.9576 15.904 42.0675 14.3738 43.4389C12.8564 44.7989 11.1462 46.3934 9.56223 48.1267C7.97994 49.8582 6.51057 51.7424 5.48455 53.6849C4.45931 55.6259 3.85882 57.6593 4.0661 59.6738L5.06085 59.5715ZM17.2338 77.0851C17.2416 77.1096 17.2196 77.0603 17.2371 76.9739C17.2621 76.8509 17.3519 76.7322 17.4848 76.6793C17.5793 76.6416 17.6449 76.6583 17.6293 76.6556C17.6238 76.6546 17.5959 76.6482 17.5403 76.6256C17.3064 76.5304 16.8929 76.2795 16.3307 75.8625C15.2251 75.0423 13.6711 73.6749 12.0646 71.9682C10.4587 70.2622 8.8127 68.23 7.5143 66.0829C6.21318 63.9312 5.27922 61.6937 5.06085 59.5715L4.0661 59.6738C4.30538 61.9993 5.31705 64.3818 6.65859 66.6003C8.00285 68.8233 9.69651 70.9114 11.3364 72.6536C12.9757 74.3952 14.5735 75.804 15.7349 76.6656C16.3063 77.0895 16.805 77.406 17.1633 77.5518C17.2558 77.5895 17.356 77.6229 17.4569 77.6406C17.5479 77.6565 17.6983 77.6706 17.8547 77.6083C18.0495 77.5308 18.1781 77.3654 18.2171 77.1729C18.2488 77.0169 18.2163 76.8752 18.1873 76.7836L17.2338 77.0851Z" fill="black"/>
    <path d="M20 58.7762C20.0003 50.1747 20.4919 41.4503 22.9894 42.0271C25.3954 42.5828 25.8061 48.0304 25.9818 58.7762C26.125 67.5375 25.4497 75.4161 22.9888 75.9739C20.4386 76.5519 19.9997 67.4444 20 58.7762Z" stroke="black" stroke-linecap="round"/>
    <path d="M83.6975 80.8366C78.2442 87.7966 74.4497 90.8582 65.8995 93.1111C50.1012 97.2737 28.1528 89.76 27.5132 78.3817C27.1494 71.9116 29.616 66.0017 29.616 59.6352C29.616 54.19 27.7236 48.8574 27.5134 43.7413C26.7872 26.0647 51.5665 20.6933 65.8995 23.7605C78.4584 26.448 82.3918 32.4857 86.7661 42.7857C92.5753 56.4644 92.8921 69.1017 83.6975 80.8366Z" stroke="black" stroke-linecap="round"/>
    <path d="M92.9668 59.0256C94.9764 62.8345 97.3007 63.222 100.372 63.222C107.236 63.222 114.554 64.4913 121.001 63.222" stroke="black" stroke-linecap="round"/>
    <path d="M92.4375 69.0757C93.9316 67.7788 94.2268 66.96 96.0343 66.96C104.363 66.96 112.057 66.96 121.001 67.4889" stroke="black" stroke-linecap="round"/>
    <path d="M120.521 58.1291C111.316 61.8114 102.539 57.5476 102.723 56.9016C102.723 20.6919 80.0156 10.8723 54.2392 12.0998C41.9776 12.0998 29.9515 24.3206 20.4844 34.1939C11.1319 43.9475 1.45898 48.6623 1.45898 60.584C1.45898 73.9997 8.44968 77.5066 18.6433 85.7467C27.5 97 45.6336 105.297 57.9216 106C79.4019 107.227 95.4134 97.4682 100.882 72.8585C105.792 70.4036 113.157 70.4036 120.521 71.631" stroke="black" stroke-linecap="round"/>
</svg>
