<svg width="120" height="120" viewBox="0 0 120 120" fill="none" xmlns="http://www.w3.org/2000/svg">
    <path d="M21.5846 17.7958C14.9456 25.8615 8.33559 45.9322 14.3757 46.4682C20.4157 47.0042 18.6216 31.0086 25.4936 23.991C36.2537 13.003 50.525 5.74285 63.366 12.5875C79.6002 21.241 64.2838 28.9687 56.175 35.9255C45.6106 44.9891 46.9265 65.4841 63.8575 63.6218C70.4511 62.8965 85.1625 53.1052 91.3107 59.1915C94.4904 62.3391 95.9858 65.3763 96.6836 68.7686C96.985 70.2339 97.1376 71.7655 97.2129 73.4009C97.2686 74.6098 97.282 75.8755 97.282 77.2131C97.282 84.5506 93.607 89.2435 86.3247 85.2386C83.1391 83.4866 84.0209 79.153 85.4851 76.9788C87.5612 73.896 93.7486 73.4009 97.2129 73.4009C97.1376 71.7655 96.985 70.2339 96.6836 68.7686C89.1799 68.7686 76.4452 71.3421 77.4194 82.4754C78.9166 88.6153 84.1291 93.501 91.523 92.9588C104.001 91.4148 105.885 67.7219 100.883 60.019C96.9373 54.8353 91.0296 49.3072 84.245 50.24C77.2409 51.203 70.8595 55.8478 63.8575 56.9309C57.8754 57.8562 53.7662 53.4608 55.1293 47.6665C57.4402 37.843 68.5022 36.6658 75.1256 30.4289C86.3238 16.2707 67.3733 3 54.0988 3C41.5756 3 29.5818 8.07982 21.5846 17.7958Z" fill="#F5F5F5"/>
    <path d="M103.337 68.7686C103.459 70.2577 103.485 71.819 103.411 73.4009C106.065 73.8057 108.944 73.862 110.761 77.2131C113.005 81.353 106.082 90.9001 111.536 91.5583C117.006 92.2184 120.389 79.2304 115.96 73.4009C112.946 69.4335 109.249 68.7686 103.337 68.7686Z" fill="#F5F5F5"/>
    <path d="M96.6836 68.7686C89.1799 68.7686 76.4452 71.3421 77.4194 82.4754C78.9166 88.6153 84.1291 93.501 91.523 92.9588C104.001 91.4148 105.885 67.7219 100.883 60.019C96.9373 54.8353 91.0297 49.3072 84.245 50.24C77.2409 51.203 70.8595 55.8478 63.8575 56.9309C57.8754 57.8562 53.7662 53.4608 55.1293 47.6665C57.4402 37.843 68.5022 36.6658 75.1256 30.4289C86.3238 16.2707 67.3733 3 54.0988 3C41.5756 3 29.5818 8.07982 21.5846 17.7958C14.9456 25.8615 8.33559 45.9322 14.3757 46.4682C20.4157 47.0042 18.6216 31.0086 25.4936 23.991C36.2537 13.003 50.525 5.74285 63.366 12.5875C79.6002 21.241 64.2838 28.9687 56.175 35.9255C45.6106 44.9891 46.9265 65.4841 63.8575 63.6218C70.4511 62.8965 85.1625 53.1052 91.3107 59.1915M96.6836 68.7686C95.9858 65.3763 94.4904 62.3391 91.3107 59.1915M96.6836 68.7686C96.985 70.2339 97.1376 71.7655 97.2129 73.4009M91.3107 59.1915C95.8639 63.6987 96.9634 67.9794 97.2129 73.4009M97.2129 73.4009C93.7486 73.4009 87.5612 73.896 85.4851 76.9788C84.0209 79.153 83.1391 83.4866 86.3247 85.2386C93.607 89.2435 97.282 84.5506 97.282 77.2131C97.282 75.8755 97.2686 74.6098 97.2129 73.4009ZM103.411 73.4009C106.065 73.8057 108.944 73.862 110.761 77.2131C113.005 81.353 106.082 90.9001 111.536 91.5583C117.006 92.2184 120.389 79.2304 115.96 73.4009C112.946 69.4335 109.249 68.7686 103.337 68.7686M103.411 73.4009L103.337 68.7686M103.411 73.4009C103.485 71.819 103.459 70.2577 103.337 68.7686" stroke="black" stroke-linecap="round"/>
    <path d="M23.827 58.0313C17.5553 57.8072 11.3522 58.6335 10 65.5662C10 74.4493 19.2196 88.5871 24.0999 96.2155C28.8901 103.703 33.7524 107.422 41.7476 110.921C48.2568 113.77 72.4194 111.244 67.2913 100.129C64.463 93.9983 50.7892 91.7713 44.9679 87.5157C35.701 80.7413 38.5275 58.5565 23.827 58.0313Z" fill="#E6E6E6"/>
    <path d="M21 69C27.9336 76.279 29.1403 87.7459 36 94.7826C41.6393 100.568 49.5476 106.051 58 103.241" stroke="#9E9E9E" stroke-width="2" stroke-linecap="round"/>
    <path d="M9.8682 65.3011C10.107 65.4397 10.413 65.3584 10.5516 65.1196C10.6902 64.8807 10.6089 64.5748 10.3701 64.4362L9.8682 65.3011ZM8.00376 59.0666C8.10546 58.8099 7.97978 58.5193 7.72305 58.4176C7.46631 58.3159 7.17575 58.4416 7.07405 58.6983L8.00376 59.0666ZM14.2891 59.0589C14.3866 59.3173 14.6751 59.4477 14.9334 59.3503C15.1918 59.2528 15.3222 58.9643 15.2248 58.706L14.2891 59.0589ZM15.1742 54.2315C15.3264 54.001 15.2629 53.6909 15.0324 53.5387C14.802 53.3866 14.4918 53.4501 14.3397 53.6805L15.1742 54.2315ZM20.7684 57.6469C20.8116 57.9196 21.0677 58.1057 21.3405 58.0625C21.6132 58.0192 21.7993 57.7631 21.7561 57.4904L20.7684 57.6469ZM22.3938 51.1361C22.469 50.8704 22.3146 50.5941 22.0489 50.5189C21.7831 50.4437 21.5068 50.5982 21.4316 50.8639L22.3938 51.1361ZM26.6487 58.0944C26.6487 58.3705 26.8725 58.5944 27.1487 58.5944C27.4248 58.5944 27.6487 58.3705 27.6487 58.0944H26.6487ZM30.0439 54.456C30.3201 54.456 30.5439 54.2321 30.5439 53.956C30.5439 53.6798 30.3201 53.456 30.0439 53.456V54.456ZM34.4353 65.3386C34.3733 65.6076 34.5411 65.8761 34.8102 65.9381C35.0792 66.0002 35.3477 65.8324 35.4097 65.5633L34.4353 65.3386ZM36.874 62.6666C37.1501 62.6666 37.374 62.4428 37.374 62.1666C37.374 61.8905 37.1501 61.6666 36.874 61.6666V62.6666ZM37.5064 74.5798C37.5505 74.8524 37.8072 75.0377 38.0798 74.9936C38.3524 74.9495 38.5377 74.6928 38.4936 74.4202L37.5064 74.5798ZM42.114 70.0585C42.3901 70.0585 42.614 69.8347 42.614 69.5585C42.614 69.2824 42.3901 69.0585 42.114 69.0585V70.0585ZM45.0062 88.0782C45.0494 88.351 45.3055 88.5371 45.5782 88.4938C45.851 88.4506 46.0371 88.1945 45.9938 87.9218L45.0062 88.0782ZM48.4055 80.4706C48.6762 80.4159 48.8513 80.1522 48.7966 79.8815C48.742 79.6108 48.4782 79.4357 48.2076 79.4904L48.4055 80.4706ZM51.3353 90.3941C51.3255 90.67 51.5413 90.9017 51.8173 90.9114C52.0933 90.9212 52.3249 90.7054 52.3346 90.4294L51.3353 90.3941ZM53.0361 85.9316C53.2826 85.8071 53.3815 85.5064 53.257 85.2599C53.1326 85.0134 52.8319 84.9145 52.5853 85.0389L53.0361 85.9316ZM57.189 92.4869C57.189 92.763 57.4129 92.9869 57.689 92.9869C57.9652 92.9869 58.189 92.763 58.189 92.4869H57.189ZM60.814 88.8029C61.0818 88.7353 61.244 88.4634 61.1764 88.1957C61.1088 87.9279 60.837 87.7657 60.5693 87.8333L60.814 88.8029ZM62.2558 95.0923C62.2558 95.3685 62.4797 95.5923 62.7558 95.5923C63.032 95.5923 63.2558 95.3685 63.2558 95.0923H62.2558ZM66.7968 93.508C67.0729 93.508 67.2968 93.2841 67.2968 93.008C67.2968 92.7318 67.0729 92.508 66.7968 92.508V93.508ZM66.4523 98.3776C66.2522 98.5678 66.2441 98.8843 66.4343 99.0845C66.6246 99.2846 66.9411 99.2927 67.1412 99.1025L66.4523 98.3776ZM71.5147 98.0859C71.581 98.354 71.8521 98.5175 72.1202 98.4511C72.3882 98.3848 72.5517 98.1137 72.4853 97.8456L71.5147 98.0859ZM68.4323 102.392C68.1562 102.392 67.9323 102.616 67.9323 102.892C67.9323 103.168 68.1562 103.392 68.4323 103.392V102.392ZM71.5095 105.617C71.5632 105.888 71.8263 106.064 72.0971 106.01C72.368 105.956 72.5441 105.693 72.4905 105.423L71.5095 105.617ZM64.5615 108.212C64.3247 108.07 64.0176 108.147 63.8754 108.383C63.7332 108.62 63.8098 108.927 64.0465 109.07L64.5615 108.212ZM66.9685 113.548C67.049 113.812 67.3284 113.961 67.5926 113.88C67.8567 113.8 68.0056 113.52 67.9251 113.256L66.9685 113.548ZM58.2844 110.589C58.0573 110.432 57.7459 110.488 57.5888 110.716C57.4317 110.943 57.4885 111.254 57.7156 111.411L58.2844 110.589ZM58.1674 116.637C58.1401 116.912 58.3409 117.157 58.6157 117.184C58.8904 117.211 59.1353 117.01 59.1625 116.736L58.1674 116.637ZM51.3486 111.897C51.2427 111.642 50.9502 111.521 50.6951 111.626C50.4401 111.732 50.3191 112.025 50.425 112.28L51.3486 111.897ZM48.682 117.554C48.4355 117.678 48.3366 117.979 48.461 118.225C48.5855 118.472 48.8862 118.571 49.1327 118.446L48.682 117.554ZM41.6015 110.725C41.6015 110.449 41.3776 110.225 41.1015 110.225C40.8253 110.225 40.6015 110.449 40.6015 110.725H41.6015ZM38.6654 116.212C38.4037 116.301 38.2629 116.584 38.351 116.846C38.4391 117.108 38.7227 117.248 38.9844 117.16L38.6654 116.212ZM34.971 107.668C35.0637 107.408 34.928 107.122 34.6679 107.029C34.4078 106.936 34.1218 107.072 34.029 107.332L34.971 107.668ZM31.0494 111.737C30.8551 111.54 30.5385 111.539 30.3423 111.733C30.1461 111.927 30.1446 112.244 30.3389 112.44L31.0494 111.737ZM29.6333 103.163C29.7827 102.931 29.7157 102.621 29.4835 102.472C29.2513 102.322 28.9419 102.389 28.7924 102.622L29.6333 103.163ZM23.4925 105.105C23.2634 104.951 22.9527 105.011 22.7985 105.24C22.6443 105.469 22.7049 105.78 22.934 105.934L23.4925 105.105ZM24.4184 96.3356C24.6065 96.1335 24.5952 95.8171 24.393 95.629C24.1909 95.4409 23.8745 95.4522 23.6864 95.6544L24.4184 96.3356ZM16.8677 97.4919C16.606 97.4038 16.3224 97.5446 16.2343 97.8063C16.1462 98.068 16.287 98.3516 16.5487 98.4397L16.8677 97.4919ZM19.7499 89.4331C19.9891 89.2951 20.0711 88.9893 19.9331 88.7501C19.7951 88.5109 19.4893 88.4289 19.2501 88.5669L19.7499 89.4331ZM13.486 88.4178C13.2917 88.2216 12.9751 88.22 12.7789 88.4144C12.5827 88.6087 12.5812 88.9252 12.7755 89.1214L13.486 88.4178ZM14.1537 79.721C14.4165 79.6361 14.5607 79.3542 14.4758 79.0915C14.3909 78.8287 14.109 78.6845 13.8463 78.7694L14.1537 79.721ZM7.84078 78.8466C7.62064 78.6799 7.30703 78.7232 7.14032 78.9433C6.9736 79.1635 7.0169 79.4771 7.23704 79.6438L7.84078 78.8466ZM11.1512 72.664C11.4274 72.664 11.6512 72.4402 11.6512 72.164C11.6512 71.8879 11.4274 71.664 11.1512 71.664V72.664ZM5.5 67.4215C5.5 67.1454 5.27614 66.9215 5 66.9215C4.72386 66.9215 4.5 67.1454 4.5 67.4215H5.5ZM10.3701 64.4362C9.6517 64.0193 9.07056 63.7039 8.59269 63.3857C8.11994 63.0708 7.80956 62.7911 7.62069 62.4823C7.26625 61.9029 7.22856 61.0236 8.00376 59.0666L7.07405 58.6983C6.28919 60.6797 6.14184 61.9812 6.76765 63.0042C7.06891 63.4967 7.52112 63.8735 8.03838 64.218C8.55052 64.5591 9.1868 64.9057 9.8682 65.3011L10.3701 64.4362ZM15.2248 58.706C14.6065 57.0672 14.2943 55.5642 15.1742 54.2315L14.3397 53.6805C13.1656 55.4588 13.6636 57.4007 14.2891 59.0589L15.2248 58.706ZM21.7561 57.4904C21.3484 54.9172 21.6925 53.6148 22.3938 51.1361L21.4316 50.8639C20.7201 53.3786 20.3257 54.853 20.7684 57.6469L21.7561 57.4904ZM27.6487 58.0944C27.6487 57.2179 27.7773 56.2791 28.1487 55.5774C28.3309 55.2331 28.5651 54.9579 28.8612 54.7676C29.1547 54.5789 29.5362 54.456 30.0439 54.456V53.456C29.3656 53.456 28.7922 53.6231 28.3205 53.9264C27.8513 54.2279 27.51 54.6465 27.2649 55.1096C26.7816 56.0225 26.6487 57.1529 26.6487 58.0944H27.6487ZM35.4097 65.5633C35.5022 65.1623 35.5637 64.7408 35.625 64.3767C35.6887 63.998 35.7531 63.6746 35.8499 63.4056C35.9456 63.1397 36.0598 62.9662 36.1979 62.8562C36.3289 62.7519 36.5289 62.6666 36.874 62.6666V61.6666C36.3513 61.6666 35.9176 61.801 35.5749 62.074C35.2394 62.3412 35.0402 62.7025 34.909 63.0669C34.7789 63.4282 34.7029 63.8304 34.6388 64.2107C34.5724 64.6055 34.5189 64.9762 34.4353 65.3386L35.4097 65.5633ZM38.4936 74.4202C38.4484 74.1404 38.5015 73.7249 38.6808 73.227C38.8566 72.7387 39.1384 72.2139 39.4974 71.7322C40.2343 70.7432 41.1972 70.0585 42.114 70.0585V69.0585C40.7262 69.0585 39.5036 70.0501 38.6955 71.1347C38.2819 71.6897 37.9513 72.3009 37.7399 72.8882C37.532 73.4658 37.4232 74.0652 37.5064 74.5798L38.4936 74.4202ZM45.9938 87.9218C45.9473 87.6281 45.9615 87.0276 46.0586 86.244C46.1537 85.4765 46.3222 84.5811 46.5574 83.72C46.7938 82.8547 47.0914 82.0472 47.4362 81.4427C47.7968 80.8104 48.1377 80.5247 48.4055 80.4706L48.2076 79.4904C47.4876 79.6358 46.9547 80.2684 46.5675 80.9473C46.1644 81.654 45.8402 82.5507 45.5927 83.4565C45.3441 84.3665 45.1668 85.3092 45.0662 86.121C44.9676 86.9166 44.9361 87.6364 45.0062 88.0782L45.9938 87.9218ZM52.3346 90.4294C52.3554 89.8419 52.329 88.8044 52.4319 87.7957C52.4828 87.2971 52.5627 86.8437 52.6833 86.4942C52.8106 86.1251 52.9473 85.9764 53.0361 85.9316L52.5853 85.0389C52.1372 85.2652 51.8883 85.7323 51.7379 86.1682C51.5808 86.6237 51.4911 87.1647 51.4371 87.6942C51.3302 88.7421 51.3529 89.8966 51.3353 90.3941L52.3346 90.4294ZM63.2558 95.0923C63.2558 95.0994 63.2537 95.0728 63.2948 95.0063C63.3356 94.9402 63.4063 94.8558 63.5155 94.7576C63.7344 94.5608 64.059 94.3521 64.4481 94.16C65.2351 93.7715 66.1676 93.508 66.7968 93.508V92.508C65.9607 92.508 64.8727 92.8352 64.0055 93.2633C63.5676 93.4795 63.1566 93.7355 62.8468 94.0141C62.5604 94.2716 62.2558 94.6421 62.2558 95.0923H63.2558ZM67.1412 99.1025C67.2664 98.9835 67.5986 98.7665 68.079 98.529C68.5447 98.2988 69.1028 98.0724 69.6459 97.9198C70.1998 97.7641 70.689 97.6994 71.038 97.7485C71.2075 97.7723 71.3153 97.8192 71.3812 97.8689C71.439 97.9126 71.4871 97.9745 71.5147 98.0859L72.4853 97.8456C72.405 97.5211 72.2323 97.2585 71.9837 97.0708C71.7432 96.8892 71.4588 96.7978 71.1773 96.7582C70.6244 96.6805 69.9768 96.7881 69.3753 96.9571C68.7629 97.1292 68.1468 97.38 67.6359 97.6325C67.1396 97.8778 66.6926 98.1492 66.4523 98.3776L67.1412 99.1025ZM68.4323 103.392C68.9353 103.392 69.6627 103.668 70.3155 104.131C70.9761 104.6 71.4192 105.161 71.5095 105.617L72.4905 105.423C72.326 104.592 71.631 103.839 70.8944 103.316C70.15 102.787 69.221 102.392 68.4323 102.392V103.392ZM64.0465 109.07C65.2668 109.803 65.8847 110.59 66.2515 111.332C66.6379 112.114 66.7434 112.809 66.9685 113.548L67.9251 113.256C67.7463 112.669 67.5815 111.766 67.148 110.889C66.6949 109.973 65.9433 109.042 64.5615 108.212L64.0465 109.07ZM57.7156 111.411C58.4968 111.952 58.6897 112.733 58.6356 113.686C58.6082 114.168 58.5182 114.668 58.4188 115.174C58.3222 115.665 58.2126 116.18 58.1674 116.637L59.1625 116.736C59.2017 116.34 59.2975 115.888 59.4 115.366C59.4997 114.859 59.6023 114.3 59.6339 113.743C59.6977 112.621 59.4737 111.411 58.2844 110.589L57.7156 111.411ZM50.425 112.28C50.8439 113.289 50.8027 114.413 50.4462 115.395C50.0875 116.384 49.4295 117.176 48.682 117.554L49.1327 118.446C50.1547 117.93 50.9605 116.91 51.3862 115.736C51.8141 114.557 51.8779 113.172 51.3486 111.897L50.425 112.28ZM40.6015 110.725C40.6015 112.021 40.4102 113.328 40.05 114.356C39.6782 115.417 39.179 116.04 38.6654 116.212L38.9844 117.16C39.9607 116.832 40.5997 115.811 40.9937 114.687C41.3993 113.529 41.6015 112.106 41.6015 110.725H40.6015ZM34.029 107.332C33.8298 107.891 33.6151 108.618 33.3938 109.294C33.1659 109.991 32.9227 110.662 32.648 111.192C32.36 111.748 32.095 112.031 31.8818 112.116C31.7536 112.168 31.507 112.199 31.0494 111.737L30.3389 112.44C30.9354 113.043 31.5931 113.309 32.2529 113.045C32.8277 112.815 33.2345 112.234 33.5358 111.652C33.8504 111.046 34.1141 110.309 34.3442 109.605C34.5811 108.881 34.7758 108.215 34.971 107.668L34.029 107.332ZM28.7924 102.622C28.1567 103.609 27.1974 104.522 26.1946 105.031C25.1888 105.542 24.2374 105.606 23.4925 105.105L22.934 105.934C24.0981 106.718 25.4692 106.521 26.6474 105.923C27.8285 105.323 28.9146 104.279 29.6333 103.163L28.7924 102.622ZM23.6864 95.6544C22.7055 96.7082 21.3851 97.3002 20.0957 97.5599C18.7985 97.8211 17.589 97.7347 16.8677 97.4919L16.5487 98.4397C17.4713 98.7502 18.8641 98.8279 20.2931 98.5402C21.7299 98.2509 23.2596 97.5808 24.4184 96.3356L23.6864 95.6544ZM19.2501 88.5669C17.2869 89.6997 14.8455 89.7906 13.486 88.4178L12.7755 89.1214C14.5939 90.9577 17.5958 90.676 19.7499 89.4331L19.2501 88.5669ZM13.8463 78.7694C12.7778 79.1147 11.6404 79.4242 10.5731 79.4958C9.5068 79.5672 8.56801 79.3974 7.84078 78.8466L7.23704 79.6438C8.22955 80.3955 9.44426 80.5736 10.64 80.4935C11.8348 80.4134 13.0681 80.0718 14.1537 79.721L13.8463 78.7694ZM11.1512 71.664C9.61393 71.664 8.18487 71.0962 7.14453 70.2644C6.094 69.4244 5.5 68.3688 5.5 67.4215H4.5C4.5 68.7733 5.32382 70.0889 6.52001 71.0454C7.72639 72.01 9.37294 72.664 11.1512 72.664V71.664ZM58.189 92.4869C58.189 91.5483 58.3448 90.7626 58.73 90.1536C59.1057 89.5595 59.7372 89.0747 60.814 88.8029L60.5693 87.8333C59.2916 88.1558 58.4218 88.7701 57.8848 89.6191C57.3573 90.4531 57.189 91.4547 57.189 92.4869H58.189Z" fill="#9E9E9E"/>
    <path d="M50 95C50 95.5523 49.5523 96 49 96C48.4477 96 48 95.5523 48 95C48 94.4477 48.4477 94 49 94C49.5523 94 50 94.4477 50 95Z" fill="#C4C4C4"/>
    <path d="M55 100C55 100.552 54.5523 101 54 101C53.4477 101 53 100.552 53 100C53 99.4477 53.4477 99 54 99C54.5523 99 55 99.4477 55 100Z" fill="#C4C4C4"/>
    <path d="M63 101C63 101.552 62.5523 102 62 102C61.4477 102 61 101.552 61 101C61 100.448 61.4477 100 62 100C62.5523 100 63 100.448 63 101Z" fill="#C4C4C4"/>
    <path d="M49 107C49 107.552 48.5523 108 48 108C47.4477 108 47 107.552 47 107C47 106.448 47.4477 106 48 106C48.5523 106 49 106.448 49 107Z" fill="#C4C4C4"/>
    <path d="M45 96C45 96.5523 44.5523 97 44 97C43.4477 97 43 96.5523 43 96C43 95.4477 43.4477 95 44 95C44.5523 95 45 95.4477 45 96Z" fill="#C4C4C4"/>
    <path d="M39 101C39 101.552 38.5523 102 38 102C37.4477 102 37 101.552 37 101C37 100.448 37.4477 100 38 100C38.5523 100 39 100.448 39 101Z" fill="#C4C4C4"/>
    <path d="M30 92C30 92.5523 29.5523 93 29 93C28.4477 93 28 92.5523 28 92C28 91.4477 28.4477 91 29 91C29.5523 91 30 91.4477 30 92Z" fill="#C4C4C4"/>
    <path d="M38 87C38 87.5523 37.5523 88 37 88C36.4477 88 36 87.5523 36 87C36 86.4477 36.4477 86 37 86C37.5523 86 38 86.4477 38 87Z" fill="#C4C4C4"/>
    <path d="M35 82C35 82.5523 34.5523 83 34 83C33.4477 83 33 82.5523 33 82C33 81.4477 33.4477 81 34 81C34.5523 81 35 81.4477 35 82Z" fill="#C4C4C4"/>
    <path d="M34 76C34 76.5523 33.5523 77 33 77C32.4477 77 32 76.5523 32 76C32 75.4477 32.4477 75 33 75C33.5523 75 34 75.4477 34 76Z" fill="#C4C4C4"/>
    <path d="M30 72C30 72.5523 29.5523 73 29 73C28.4477 73 28 72.5523 28 72C28 71.4477 28.4477 71 29 71C29.5523 71 30 71.4477 30 72Z" fill="#C4C4C4"/>
    <path d="M29 64C29 64.5523 28.5523 65 28 65C27.4477 65 27 64.5523 27 64C27 63.4477 27.4477 63 28 63C28.5523 63 29 63.4477 29 64Z" fill="#C4C4C4"/>
    <path d="M22 65C22 65.5523 21.5523 66 21 66C20.4477 66 20 65.5523 20 65C20 64.4477 20.4477 64 21 64C21.5523 64 22 64.4477 22 65Z" fill="#C4C4C4"/>
    <path d="M21 72C21 72.5523 20.5523 73 20 73C19.4477 73 19 72.5523 19 72C19 71.4477 19.4477 71 20 71C20.5523 71 21 71.4477 21 72Z" fill="#C4C4C4"/>
    <path d="M24 79C24 79.5523 23.5523 80 23 80C22.4477 80 22 79.5523 22 79C22 78.4477 22.4477 78 23 78C23.5523 78 24 78.4477 24 79Z" fill="#C4C4C4"/>
    <path d="M24 86C24 86.5523 23.5523 87 23 87C22.4477 87 22 86.5523 22 86C22 85.4477 22.4477 85 23 85C23.5523 85 24 85.4477 24 86Z" fill="#C4C4C4"/>
    <path d="M94.5 73.5L94 69H96.5L97 73.5H94.5Z" fill="#C4C4C4"/>
    <path d="M103.5 73.5V69H106V73.5H103.5Z" fill="#C4C4C4"/>
    <path d="M117.5 83C114.3 90.6 111.167 88.1667 110 86C109.333 87.8333 108.7 91.5 111.5 91.5C114.3 91.5 115.833 88.8333 116.5 87.5C117.5 85.5 118 85 117.5 83Z" fill="#C4C4C4"/>
    <path d="M20 34.5C16.5 44.5 13.5 45.5 12.5 37.5C12.5 38 10.5 47 14.5 46.5C18.5 46 20 37.5 20 34.5Z" fill="#C4C4C4"/>
    <path d="M77.5 25.5L61.5 39C66 37 77 31.5 77.5 25.5Z" fill="#C4C4C4"/>
    <path d="M67.5 62.5C75.9 58.9 85 55.894 91 58.5C90.6667 57.8333 88.5 54 81.5 55C75.5 55.8571 57 67 67.5 62.5Z" fill="#C4C4C4"/>
    <path d="M21.5846 17.7958L21.1985 17.478L21.5846 17.7958ZM75.1256 30.4289L75.4684 30.7929L75.495 30.7678L75.5178 30.7391L75.1256 30.4289ZM55.1293 47.6665L55.616 47.781L55.1293 47.6665ZM63.8575 56.9309L63.9339 57.425L63.8575 56.9309ZM84.245 50.24L84.3131 50.7353L84.245 50.24ZM100.883 60.019L101.302 59.7466L101.292 59.731L101.28 59.7162L100.883 60.019ZM91.523 92.9588L91.5596 93.4575L91.5721 93.4566L91.5844 93.4551L91.523 92.9588ZM77.4194 82.4754L76.9213 82.5189L76.9247 82.5568L76.9337 82.5938L77.4194 82.4754ZM96.6836 69.2686C96.9598 69.2686 97.1836 69.0448 97.1836 68.7686C97.1836 68.4925 96.9598 68.2686 96.6836 68.2686V69.2686ZM25.4936 23.991L25.8509 24.3408L25.4936 23.991ZM63.366 12.5875L63.1308 13.0288L63.366 12.5875ZM56.175 35.9255L55.8494 35.5461L56.175 35.9255ZM63.8575 63.6218L63.8028 63.1248L63.8575 63.6218ZM91.3107 59.1915L91.6625 58.8361L91.3107 59.1915ZM85.4851 76.9788L85.8998 77.2581L85.4851 76.9788ZM86.3247 85.2386L86.5657 84.8004L86.3247 85.2386ZM103.486 72.9066C103.213 72.865 102.958 73.0525 102.916 73.3255C102.875 73.5985 103.062 73.8535 103.335 73.8952L103.486 72.9066ZM110.761 77.2131L111.201 76.9748L110.761 77.2131ZM111.536 91.5583L111.476 92.0547L111.536 91.5583ZM115.96 73.4009L116.358 73.0984L115.96 73.4009ZM104.002 68.2686C103.726 68.2686 103.502 68.4925 103.502 68.7686C103.502 69.0448 103.726 69.2686 104.002 69.2686V68.2686ZM14.4199 45.9701C13.8312 45.9179 13.4099 45.64 13.1031 45.1484C12.7813 44.6328 12.58 43.8679 12.5194 42.8661C12.3985 40.8662 12.8485 38.1187 13.7065 35.092C15.4217 29.0422 18.7081 22.0771 21.9706 18.1135L21.1985 17.478C17.8221 21.5801 14.484 28.6833 12.7444 34.8193C11.8751 37.8855 11.3902 40.7602 11.5212 42.9264C11.5866 44.0077 11.8079 44.9618 12.2548 45.6778C12.7167 46.4179 13.4101 46.8845 14.3315 46.9662L14.4199 45.9701ZM21.9706 18.1135C29.8633 8.52469 41.7092 3.5 54.0988 3.5V2.5C41.4421 2.5 29.3004 7.63495 21.1985 17.478L21.9706 18.1135ZM54.0988 3.5C60.6 3.5 68.5283 6.76244 73.4327 11.7555C75.8789 14.2458 77.5433 17.1362 77.9351 20.2329C78.3252 23.3166 77.4619 26.6691 74.7334 30.1187L75.5178 30.7391C78.3884 27.1096 79.3556 23.494 78.9272 20.1074C78.5004 16.7339 76.6972 13.6519 74.1462 11.0548C69.0563 5.87293 60.872 2.5 54.0988 2.5V3.5ZM74.7828 30.0649C73.1698 31.5838 71.2766 32.8037 69.2846 33.9375C67.328 35.0511 65.185 36.1285 63.2553 37.2727C59.3346 39.5973 55.8452 42.4397 54.6426 47.552L55.616 47.781C56.7243 43.0698 59.9214 40.4119 63.7653 38.1328C65.7178 36.9751 67.7267 35.9748 69.7792 34.8066C71.7963 33.6585 73.7697 32.3925 75.4684 30.7929L74.7828 30.0649ZM54.6426 47.552C53.9279 50.5902 54.6404 53.3156 56.3746 55.1609C58.1081 57.0055 60.8042 57.9091 63.9339 57.425L63.7811 56.4367C60.9286 56.878 58.5792 56.0465 57.1033 54.4761C55.6282 52.9065 54.9677 50.5371 55.616 47.781L54.6426 47.552ZM63.9339 57.425C67.5076 56.8722 70.9122 55.4123 74.2455 54.0008C77.6017 52.5796 80.8876 51.2063 84.3131 50.7353L84.1769 49.7446C80.5983 50.2366 77.1915 51.6673 73.8555 53.08C70.4965 54.5024 67.2094 55.9065 63.7811 56.4367L63.9339 57.425ZM84.3131 50.7353C87.544 50.2911 90.5936 51.3796 93.3477 53.2494C96.1039 55.1208 98.5293 57.7525 100.485 60.3218L101.28 59.7162C99.2906 57.1017 96.7895 54.3776 93.9094 52.4221C91.0272 50.4652 87.7307 49.256 84.1769 49.7446L84.3131 50.7353ZM91.4865 92.4602C84.3725 92.9818 79.3536 88.2969 77.9052 82.3569L76.9337 82.5938C78.4796 88.9338 83.8856 94.0202 91.5596 93.4575L91.4865 92.4602ZM77.9175 82.4318C77.683 79.7515 78.2735 77.6159 79.3825 75.9093C80.4961 74.1956 82.1536 72.8824 84.099 71.8926C88.0006 69.9077 92.9715 69.2686 96.6836 69.2686V68.2686C92.8921 68.2686 87.7438 68.9163 83.6456 71.0014C81.5912 72.0466 79.7787 73.4643 78.544 75.3644C77.3048 77.2715 76.6688 79.6326 76.9213 82.5189L77.9175 82.4318ZM100.463 60.2913C101.652 62.122 102.46 64.9569 102.788 68.248C103.115 71.5279 102.961 75.2104 102.268 78.7011C101.574 82.1954 100.346 85.4681 98.5483 87.9505C96.7554 90.426 94.4114 92.0976 91.4616 92.4626L91.5844 93.4551C94.8738 93.048 97.4447 91.179 99.3582 88.5371C101.267 85.9022 102.537 82.4807 103.249 78.8959C103.961 75.3075 104.12 71.526 103.783 68.1488C103.447 64.7827 102.614 61.7675 101.302 59.7466L100.463 60.2913ZM14.3315 46.9662C15.2072 47.0439 15.9611 46.8192 16.6023 46.3466C17.2304 45.8837 17.7261 45.2014 18.1393 44.3977C18.9604 42.8006 19.5295 40.5694 20.1086 38.18C20.6938 35.7652 21.2958 33.1552 22.1771 30.7084C23.0582 28.2623 24.2042 26.0224 25.8509 24.3408L25.1364 23.6412C23.3471 25.4684 22.1403 27.8596 21.2363 30.3696C20.3325 32.8789 19.717 35.5501 19.1367 37.9444C18.5503 40.3641 18.006 42.4699 17.2499 43.9405C16.8746 44.6706 16.4658 45.2049 16.009 45.5416C15.5654 45.8686 15.0542 46.0264 14.4199 45.9701L14.3315 46.9662ZM63.1308 13.0288C67.1549 15.1738 69.1027 17.2022 69.7598 19.0722C70.4035 20.9043 69.8522 22.7251 68.4942 24.5994C67.1315 26.4804 65.0126 28.3325 62.6922 30.1689C60.3974 31.9849 57.8841 33.8004 55.8494 35.5461L56.5006 36.305C58.5203 34.5722 60.9624 32.813 63.3127 30.953C65.6373 29.1134 67.8534 27.1884 69.304 25.1861C70.7595 23.1772 71.5001 21.0087 70.7032 18.7407C69.9196 16.5106 67.6942 14.328 63.6012 12.1463L63.1308 13.0288ZM63.9122 64.1188C65.6353 63.9293 67.8504 63.1557 70.2438 62.2343C72.6635 61.3029 75.2888 60.2105 77.9109 59.3261C80.5322 58.442 83.0979 57.7849 85.3702 57.7138C87.6364 57.643 89.5533 58.1553 90.959 59.5468L91.6625 58.8361C89.994 57.1845 87.7664 56.6384 85.339 56.7143C82.9177 56.79 80.2406 57.485 77.5913 58.3785C74.9429 59.2718 72.2697 60.3829 69.8845 61.3011C67.473 62.2294 65.3766 62.9517 63.8028 63.1248L63.9122 64.1188ZM85.8998 77.2581C86.8254 75.8838 88.7251 75.0247 90.9393 74.5213C93.1273 74.0239 95.4986 73.9009 97.2129 73.9009V72.9009C95.4629 72.9009 93.0084 73.0254 90.7176 73.5462C88.453 74.0611 86.221 74.991 85.0704 76.6995L85.8998 77.2581ZM90.959 59.5468C93.1907 61.756 94.5611 63.8938 95.4081 66.1304C96.257 68.3722 96.5899 70.7389 96.7135 73.4239L97.7124 73.3779C97.5864 70.6414 97.2448 68.1571 96.3433 65.7763C95.4398 63.3904 93.9839 61.1342 91.6625 58.8361L90.959 59.5468ZM96.7135 73.4239C96.7686 74.6213 96.782 75.878 96.782 77.2131H97.782C97.782 75.873 97.7686 74.5983 97.7124 73.3779L96.7135 73.4239ZM86.5657 84.8004C85.1777 84.0371 84.6563 82.7171 84.6612 81.2687C84.6661 79.8032 85.2173 78.2716 85.8998 77.2581L85.0704 76.6995C84.2887 77.8602 83.6669 79.5825 83.6612 81.2653C83.6555 82.9653 84.2861 84.688 86.0838 85.6767L86.5657 84.8004ZM25.8509 24.3408C36.5801 13.3843 50.6072 6.35325 63.1308 13.0288L63.6012 12.1463C50.4429 5.13245 35.9272 12.6218 25.1364 23.6412L25.8509 24.3408ZM55.8494 35.5461C50.4289 40.1965 48.0571 47.767 49.214 53.9626C49.7942 57.07 51.2682 59.86 53.7237 61.7506C56.1836 63.6447 59.5759 64.5957 63.9122 64.1188L63.8028 63.1248C59.6736 63.579 56.5523 62.6665 54.3338 60.9583C52.1108 59.2467 50.7415 56.6956 50.197 53.7791C49.1042 47.9269 51.3567 40.7181 56.5006 36.305L55.8494 35.5461ZM96.782 77.2131C96.782 80.8301 95.8713 83.6546 94.2062 85.1019C92.5987 86.4991 90.1097 86.7495 86.5657 84.8004L86.0838 85.6767C89.822 87.7326 92.8116 87.639 94.8622 85.8566C96.8552 84.1243 97.782 80.9335 97.782 77.2131H96.782ZM103.335 73.8952C106.064 74.3114 108.645 74.3593 110.322 77.4514L111.201 76.9748C109.244 73.3647 106.066 73.3001 103.486 72.9066L103.335 73.8952ZM110.322 77.4514C110.798 78.3309 110.814 79.5592 110.569 81.0262C110.325 82.4852 109.853 84.0435 109.461 85.5667C109.08 87.0464 108.765 88.5265 108.935 89.6933C109.022 90.2934 109.242 90.8492 109.678 91.2789C110.114 91.7088 110.717 91.9631 111.476 92.0547L111.596 91.0619C110.992 90.989 110.618 90.8009 110.38 90.5666C110.142 90.332 109.99 90.0016 109.924 89.5494C109.788 88.6116 110.041 87.3228 110.429 85.8159C110.806 84.3526 111.302 82.7067 111.555 81.1908C111.807 79.6828 111.846 78.1652 111.201 76.9748L110.322 77.4514ZM116.358 73.0984C114.805 71.0537 113.218 69.8265 111.234 69.1255C109.274 68.4329 106.964 68.2686 104.002 68.2686V69.2686C106.952 69.2686 109.114 69.4368 110.901 70.0684C112.665 70.6917 114.101 71.7806 115.562 73.7034L116.358 73.0984ZM111.476 92.0547C113.071 92.2472 114.461 91.4319 115.541 90.1403C116.621 88.8496 117.445 87.0297 117.945 85.0348C118.94 81.0682 118.703 76.1838 116.358 73.0984L115.562 73.7034C117.647 76.4475 117.933 80.9719 116.975 84.7916C116.5 86.69 115.729 88.3576 114.775 89.4986C113.821 90.6388 112.736 91.1995 111.596 91.0619L111.476 92.0547Z" fill="black"/>
    <path d="M23.827 58.0313C17.5553 57.8072 11.3522 58.6335 10 65.5662C10 74.4493 19.2196 88.5871 24.0999 96.2155C28.8901 103.703 33.7524 107.422 41.7476 110.921C48.2568 113.77 72.4194 111.244 67.2913 100.129C64.463 93.9983 50.7892 91.7713 44.9679 87.5157C35.701 80.7413 38.5275 58.5565 23.827 58.0313Z" stroke="black" stroke-linecap="round"/>
</svg>
