<svg width="120" height="120" viewBox="0 0 120 120" fill="none" xmlns="http://www.w3.org/2000/svg">
    <path d="M45.8801 117.452C57.5444 117.452 66.1201 114.812 67.0001 111.292C68.3201 106.012 68.7601 101.612 68.7601 98.972V63.7719C67.2935 54.0919 63.6561 33.8518 57.3201 33.8518C46.7601 37.3718 37.6667 35.3185 34.44 33.8518C28.104 33.8518 24.4667 54.0919 23 63.7719V98.972C23 101.612 23.88 106.892 24.76 111.292C25.3502 114.243 34.2158 117.452 45.8801 117.452Z" fill="#9E9E9E"/>
    <path d="M27.399 111.292C28.1031 112.7 34.7324 114.225 37.9591 114.812C34.4387 103.548 37.0792 59.6651 38.8395 39.1316C33.5591 37.3717 35.3195 38.2514 33.5591 37.3716C21.239 64.6517 26.519 109.532 27.399 111.292Z" fill="white"/>
    <path d="M46.7601 69.9319C31.976 70.6359 24.76 66.7052 23 64.6519V99.852C25.3467 101.905 33.384 105.132 46.7601 105.132C60.1361 105.132 67.0001 101.612 68.7601 99.852V64.6519C67.5868 66.1185 61.5441 69.2279 46.7601 69.9319Z" fill="#F5F5F5"/>
    <path d="M58.2006 32.9717C48.3446 37.8998 37.6672 35.0251 33.5605 32.9717C34.4405 26.8116 34.4405 20.6515 35.3206 15.3717C43.2406 10.9715 52.3339 13.025 56.4406 15.3717C57.3206 18.8916 57.3206 25.9316 58.2006 32.9717Z" fill="#F5F5F5"/>
    <path d="M88.6328 3.88916C81.8632 14.5221 75.1583 25.8195 70.4648 33.1297H106.001C100.637 23.1613 94.6025 13.8575 88.6328 3.88916Z" fill="#E6E6E6"/>
    <ellipse cx="46.081" cy="15.5337" rx="10.5263" ry="2.83401" stroke="black"/>
    <path d="M58.2006 32.9714C58.2006 33.9435 52.6848 36.0221 45.8806 36.0221C39.0764 36.0221 33.5605 33.9435 33.5605 32.9714" stroke="black" stroke-linecap="round" stroke-linejoin="round"/>
    <path d="M68.7601 63.7717C68.7601 67.1738 58.5164 69.9317 45.8801 69.9317C33.2438 69.9317 23 67.1738 23 63.7717" stroke="black" stroke-linecap="round" stroke-linejoin="round"/>
    <path d="M68.7601 98.9714C68.7601 102.374 58.5164 105.131 45.8801 105.131C33.2438 105.131 23 102.374 23 98.9714" stroke="black" stroke-linecap="round" stroke-linejoin="round"/>
    <path d="M34.44 33.8516C28.104 33.8516 24.4667 54.0916 23 63.7717V98.9718C23 101.612 23.88 106.892 24.76 111.292C25.3502 114.243 34.2158 117.452 45.8801 117.452C57.5444 117.452 66.1201 114.812 67.0001 111.292C68.3201 106.012 68.7601 101.612 68.7601 98.9718V63.7717C67.2935 54.0916 63.6561 33.8516 57.3201 33.8516" stroke="black" stroke-linecap="round" stroke-linejoin="round"/>
    <path d="M35.5552 15.8408L33.5605 32.9715" stroke="black" stroke-linecap="round" stroke-linejoin="round"/>
    <path d="M56.6749 15.8408L58.2002 32.9715" stroke="black" stroke-linecap="round" stroke-linejoin="round"/>
    <path d="M45.8799 32.0914V20.6514" stroke="black" stroke-linecap="round" stroke-linejoin="round"/>
    <path d="M40.1016 32.0696L41.0986 20.6731" stroke="black" stroke-linecap="round" stroke-linejoin="round"/>
    <path d="M51.6582 32.0698L50.6611 20.6733" stroke="black" stroke-linecap="round" stroke-linejoin="round"/>
    <path d="M88.5672 27.813C87.6731 27.8129 87.6728 29.1421 88.5671 29.1421C89.4609 29.1421 89.4609 27.8131 88.5672 27.813Z" stroke="black" stroke-linecap="round" stroke-linejoin="round"/>
    <path d="M88.5684 22.9942V11.1997" stroke="black" stroke-linecap="round" stroke-linejoin="round"/>
    <path d="M88.6328 3.88916C81.8632 14.5221 75.1583 25.8195 70.4648 33.1297H106.001C100.637 23.1613 94.6025 13.8575 88.6328 3.88916Z" stroke="black" stroke-linecap="round" stroke-linejoin="round"/>
</svg>
