<svg width="120" height="120" viewBox="0 0 120 120" fill="none" xmlns="http://www.w3.org/2000/svg">
    <path d="M65.9427 82.0034C87.7925 82.0034 103.988 66.2936 103.988 44.3473C102.987 33.599 95.5608 26.737 89.5075 20.2861C82.6418 12.9693 78.8472 4.57617 64.2595 4.57617C51.355 4.57617 46.2645 11.7466 39.0115 19.725C32.9164 26.4297 25.072 34.7012 24.4236 44.3473C23.5736 56.9918 29.2193 67.2165 38.4504 73.8033C39.3522 74.4468 40.2882 75.0555 41.2557 75.6284C48.1971 79.7387 56.7601 82.0034 65.9427 82.0034Z" fill="#E6E6E6"/>
    <path d="M50.2323 72.4654C38.5631 68.962 31.3431 59.1869 26.6675 53.3892C24.9841 57.8777 36.7667 70.7822 36.7667 70.7822C36.7667 70.7822 44.4659 76.9125 53.0376 79.1982C61.4537 81.4425 69.3086 80.8814 79.4078 78.0761C85.9114 76.2695 89.4554 72.9717 93.9956 67.9769C97.5111 64.1093 100.167 59.5609 100.728 56.7556C101.076 55.0158 85.442 70.4454 73.2361 73.0265C64.4443 74.8856 58.839 75.0494 50.2323 72.4654Z" fill="#9E9E9E"/>
    <path d="M49.6704 33.7519C48.7727 31.9565 49.2742 28.7027 51.3527 28.7023C52.9022 28.702 54.1585 30.6099 54.1585 31.5076C54.1585 32.6298 54.1585 33.7519 52.4757 35.9962C50.793 38.2405 50.7925 35.9962 49.6704 33.7519Z" fill="#F5F5F5"/>
    <path d="M67.0635 10.1871C67.0149 11.5892 66.1919 12.7022 64.8192 12.9924C63.2734 13.3193 62.1292 12.1761 61.4528 10.7481C60.8901 9.56001 60.5973 8.37992 61.4528 7.38176C62.451 6.21722 64.0863 6.55832 65.3803 7.38176C66.4582 8.06768 67.1078 8.91024 67.0635 10.1871Z" fill="#F5F5F5"/>
    <path d="M78.8459 22.5306C78.3971 21.184 80.1551 20.8474 81.0902 20.8474C83.3344 20.8474 85.0176 23.0917 85.0176 23.6527C85.0176 24.2138 82.2123 25.897 81.0902 25.3359C79.968 24.7749 79.407 24.2138 78.8459 22.5306Z" fill="#F5F5F5"/>
    <path d="M65.0158 29.2631C64.1181 27.4676 65.4796 21.8558 67.8211 23.0913C69.2969 23.87 69.5039 26.1211 69.5039 27.0188C69.5039 28.1409 69.5039 29.2631 67.8211 31.5073C66.1384 33.7516 66.1379 31.5073 65.0158 29.2631Z" fill="#9E9E9E"/>
    <path d="M75.4795 12.431C75.4795 10.7478 72.1131 10.1868 71.552 10.1868C70.8693 11.3089 69.6891 13.6654 70.4299 14.1142C71.3559 14.6753 73.2352 15.7974 73.7963 15.7974C74.3574 15.7974 75.4795 14.1142 75.4795 12.431Z" fill="#9E9E9E"/>
    <path d="M56.9643 16.9196C57.5254 16.3585 56.9643 14.1142 54.72 13.5532C52.9246 12.0859 50.6055 14.438 49.6704 15.7974C50.2315 16.7326 51.4658 18.8272 51.9147 19.7249C52.4757 20.847 56.4032 17.4806 56.9643 16.9196Z" fill="#9E9E9E"/>
    <path d="M8.15283 100.519C8.15283 100.519 22.2165 99.5143 28.9123 94.3471C38.5767 86.8892 40.1337 65.1716 40.1337 65.1716L41.8169 66.8548C41.8169 66.8548 41.3359 75.5774 39.5719 82.0036C37.8312 88.3452 35.31 91.3874 33.494 97.7078C31.9486 103.086 31.7274 106.26 30.5955 111.74L28.3512 109.496C28.3512 106.129 33.4009 90.4195 31.7177 95.4691C30.0345 100.519 9.83603 102.763 8.7139 102.763L8.15283 100.519Z" fill="#E6E6E6"/>
    <path d="M114.193 100.519C114.193 100.519 100.13 99.5143 93.4338 94.3471C83.7694 86.8892 82.2124 65.1716 82.2124 65.1716L80.5293 66.8548C80.5293 66.8548 81.0102 75.5774 82.7742 82.0036C84.5149 88.3452 87.0361 91.3874 88.8522 97.7078C90.3975 103.086 89.4965 100.088 90.6284 105.568H92.8727C92.8727 102.202 88.9452 90.4196 90.6284 95.4692C92.3116 100.519 112.51 102.763 113.632 102.763L114.193 100.519Z" fill="#E6E6E6"/>
    <path d="M117 93.2249C105.62 84.6899 102.711 76.3637 99.046 62.9272L96.8018 66.8547C100.868 77.1394 104.096 88.7363 116.248 95.755L117 93.2249Z" fill="#E6E6E6"/>
    <path d="M55.2207 70.8554C55.2207 77.3066 55.1408 85.5525 53.5996 92.1025C52.1522 98.2543 50.7352 111.794 44.6226 114.545L45.7447 116.84C55.7787 109.167 56.9882 94.132 57.462 82.2849C60.3324 90.9804 60.3324 90.4193 65.2736 96.8231L65.382 93.2246C59.6147 84.8086 59.6147 76.6628 59.6147 67.4377L55.2207 70.8554Z" fill="#E6E6E6"/>
    <path d="M42.9393 92.6639C46.1211 87.8177 47.8002 78.6372 47.8002 78.6372H49.1111C49.1111 78.6372 48.6752 87.8528 45.7447 92.6639C43.4879 96.3689 41.2556 98.5959 37.8897 100.519L36.2065 99.9578C36.2065 99.9578 40.8118 95.9044 42.9393 92.6639Z" fill="#E6E6E6"/>
    <path d="M71.5528 93.2248C72.0017 90.5317 70.6177 84.2477 69.8696 81.4424H72.1139C73.049 85.1828 74.807 93.2248 74.3582 95.4691L71.5528 93.2248Z" fill="#E6E6E6"/>
    <path d="M98.4846 82.5644C96.2403 82.5644 90.8167 77.7018 88.3854 75.2705L86.1411 76.3926C88.9464 79.011 94.8938 84.2476 96.2403 84.2476L98.4846 82.5644Z" fill="#E6E6E6"/>
    <path d="M38.4494 73.8033C29.2183 67.2165 23.5726 56.9918 24.4226 44.3473C25.071 34.7012 32.9154 26.4297 39.0105 19.725C46.2635 11.7466 51.354 4.57617 64.2585 4.57617C78.8463 4.57617 82.6408 12.9693 89.5065 20.2861C95.5598 26.737 102.986 33.599 103.987 44.3473C103.987 59.4938 96.2728 71.6698 84.3094 77.7609M41.2548 75.6284C45.3387 78.0467 49.9839 79.8261 54.9863 80.8813M60.3311 82.0034C62.1688 82.1936 64.042 82.0034 65.9417 82.0034C71.713 82.0034 77.0898 80.9074 81.8779 78.8899" stroke="black" stroke-linecap="round"/>
    <path d="M2.00342 86.5516C7.53558 86.5516 26.6674 69.0989 26.6674 59.5608" stroke="black" stroke-linecap="round"/>
    <path d="M2.4917 86.5515C8.71391 86.4034 12.931 82.3392 17.6909 78.6371C20.3846 76.542 28.3512 67.0789 28.3512 63.4883" stroke="black" stroke-linecap="round"/>
    <path d="M40.1337 65.7327C40.1337 65.7327 38.5767 87.4502 28.9123 94.9082C22.2165 100.075 8.15283 101.08 8.15283 101.08" stroke="black" stroke-linecap="round"/>
    <path d="M8.71338 103.324C9.83551 103.324 30.0339 101.08 31.7171 96.0299C33.4003 90.9803 28.3507 106.69 28.3507 110.057" stroke="black" stroke-linecap="round" stroke-linejoin="round"/>
    <path d="M30.5947 112.301C31.7266 106.821 31.9479 103.647 33.4932 98.2685C35.3092 91.9481 37.8304 88.9059 39.5711 82.5643C41.3351 76.1381 41.8161 67.4155 41.8161 67.4155" stroke="black" stroke-linecap="round"/>
    <path d="M82.213 65.7327C82.213 65.7327 83.77 87.4502 93.4344 94.9082C100.13 100.075 114.194 101.08 114.194 101.08" stroke="black" stroke-linecap="round"/>
    <path d="M113.632 103.324C112.51 103.324 92.3113 101.08 90.6281 96.0302C88.9449 90.9806 92.8724 102.763 92.8724 106.129" stroke="black" stroke-linecap="round" stroke-linejoin="round"/>
    <path d="M90.6294 106.129C89.4975 100.649 90.3985 103.647 88.8532 98.2685C87.0371 91.9481 84.5159 88.9059 82.7752 82.5643C81.0112 76.1381 80.5303 67.4155 80.5303 67.4155" stroke="black" stroke-linecap="round"/>
    <path d="M99.0454 63.4883C102.71 76.9248 105.62 85.2509 117 93.7859" stroke="black" stroke-linecap="round"/>
    <path d="M96.8018 67.4155C100.868 77.7002 104.096 89.2971 116.248 96.3158" stroke="black" stroke-linecap="round"/>
    <path d="M44.6226 115.107C50.7352 112.356 52.1522 98.8156 53.5996 92.6639C55.1408 86.1139 55.2207 77.868 55.2207 71.4167" stroke="black" stroke-linecap="round"/>
    <path d="M59.6133 67.9988C59.6133 77.2238 59.6133 85.3697 65.3807 93.7857" stroke="black" stroke-linecap="round"/>
    <path d="M45.7427 117.402C55.7767 109.728 56.9861 94.6933 57.46 82.8462C60.3304 91.5416 60.3304 90.9806 65.2716 97.3844" stroke="black" stroke-linecap="round" stroke-linejoin="round"/>
    <path d="M47.8002 79.1982C47.8002 79.1982 46.1211 88.3787 42.9393 93.2249C40.8118 96.4654 36.2065 100.519 36.2065 100.519" stroke="black" stroke-linecap="round"/>
    <path d="M37.8892 101.08C41.255 99.1569 43.4874 96.9299 45.7441 93.2249C48.6746 88.4138 49.1105 79.1982 49.1105 79.1982" stroke="black" stroke-linecap="round"/>
    <path d="M1.98047 75.8316C5.90794 75.8316 10.7847 75.8315 15.1625 75.8315" stroke="black" stroke-linecap="round"/>
    <path d="M22.1787 75.8315C24.984 75.8316 34.4358 75.8315 36.7665 75.8315" stroke="black" stroke-linecap="round"/>
    <path d="M90.6294 75.8315H98.1201" stroke="black" stroke-linecap="round"/>
    <path d="M105.217 75.8315C109.144 75.8314 112.965 75.8315 116.934 75.8315" stroke="black" stroke-linecap="round"/>
    <path d="M69.8696 82.0034C70.6177 84.8088 72.0017 91.0927 71.5528 93.7858" stroke="black" stroke-linecap="round" stroke-linejoin="round"/>
    <path d="M72.1143 82.0034C73.0494 85.7439 74.8074 93.7858 74.3585 96.0301" stroke="black" stroke-linecap="round" stroke-linejoin="round"/>
    <path d="M88.3848 75.8315C90.8161 78.2628 96.2397 83.1254 98.484 83.1254" stroke="black" stroke-linecap="round" stroke-linejoin="round"/>
    <path d="M86.1411 76.9539C88.9464 79.5722 94.8938 84.8088 96.2403 84.8088" stroke="black" stroke-linecap="round" stroke-linejoin="round"/>
</svg>
