<svg width="120" height="120" viewBox="0 0 120 120" fill="none" xmlns="http://www.w3.org/2000/svg">
    <path d="M24.4997 9.44816C33.716 0.666288 57.6098 3.19121 68 8C79.8731 13.4951 95.2695 32.7789 99.682 45.3923C105.517 62.0722 120.803 103.198 92.1219 110.225C63.3304 117.28 47.051 120.421 26.7313 90.9908C9.16482 65.5484 0.657146 32.1668 24.4997 9.44816Z" fill="#C4C4C4"/>
    <path d="M67.8056 51.6059C65.8259 54.9714 66 64.5 59.5 68C70.5 63 67.4887 55.8067 70 53C74.2422 48.2587 88.9247 36.0659 95 45.0001C102.689 56.3075 105 73.7894 105 87.0001C105 110.534 65.8567 117.088 50 107.5C33.2845 97.3931 25.8792 78.2206 18.0002 62.048C10.5708 46.798 16.6297 17.4352 32.5002 9.50001C42.928 4.28608 57.9162 8.24098 67 13.5C75.7303 18.5544 82.2018 25.4542 86 34.0001C88.4634 39.5427 71.0203 46.141 67.8056 51.6059Z" fill="#E0E0E0"/>
    <path d="M62.7289 39.5C66.9996 42.5 64.1717 41.5075 62.7289 48C62.3447 49.7291 62.361 51.7029 61.2784 53.0562C59.4688 55.3181 55.9126 55.5 52.4996 54.5C52.0996 55.6551 55.6662 59.41 57.4996 61.1431C59.3811 59.3733 60.9329 57.5672 61.7862 56.5006C63.0548 54.9148 64.0442 58.3988 62.7289 60.0899C60.5155 62.9357 60.856 60.4173 60.4996 60.8876C59.9506 61.6119 59.3758 62.5227 58.7448 63.5C58.1409 64.7001 60.1822 68 61.2784 69.5C64.0053 66.039 72.0358 62.3052 76.2888 60.8876C81.2984 59.2177 81.3916 70.1899 81.9812 73.4325C82.7443 77.6294 81.5426 93.888 86.2595 95.9845C91.2469 98.201 84.7363 99.2319 82.38 98.5587C80.5578 98.0381 78.3824 92.9927 77.5941 91.4161C76.9313 90.0906 76.3498 88.7904 75.822 87.5C75.5266 88.8458 71.9832 101.133 69.944 101.133C67.7387 101.133 68 87.8897 68 86.7607C65.5514 90.0638 62.1152 92.5969 57.4996 94C42.6025 95.9709 36.7233 86.2849 33.5647 81.0813L33.4996 80.974C31.4188 77.5469 29 70.0631 29 66C29 60.8696 35.5902 58.0578 36.4996 53.0562C29.0856 48.0562 26.0233 35.5 29.4996 29.4165C32.4012 24.3386 43.8129 22.215 48.7336 22.5C65.9996 23.5 59.0692 36.9292 62.7289 39.5Z" fill="white"/>
    <path d="M72 77.5L68 87C67.8334 91.5 68 100.6 70 101C72 101.4 74.5 92.1667 75.5 87.5L72 77.5Z" fill="#C4C4C4"/>
    <path d="M39 67.5C39.1034 67.596 39.2131 67.696 39.3287 67.7995C42.1017 70.1177 49.1218 71.4594 52 70.5C54.4 69.7 57 66.1667 58 64.5L60 68C58.3333 69.6667 54.1 73.1 50.5 73.5C47.0595 73.8823 41.8226 70.0326 39.3287 67.7995C39.2113 67.7014 39.1015 67.6015 39 67.5Z" fill="#C4C4C4"/>
    <path d="M42 53.5C42.4 54.3 51.1667 58.1667 55.5 60L52.5 54.5C48.8333 53.8333 41.6 52.7 42 53.5Z" fill="#C4C4C4"/>
    <path d="M62.5 43.5C62.5 43.1 63.8333 42.6667 64.5 42.5L63 45.5C62.8333 45 62.5 43.9 62.5 43.5Z" fill="#C4C4C4"/>
    <path d="M37 50.5C35.4 50.5 31 44.5 29 41.5C29.5 46.5 36 53 37 53C38 53 39 50.5 37 50.5Z" fill="#C4C4C4"/>
    <path d="M42 45C42.4 45.8 43 44.6667 43.5 44.5L41.5 42C41.5 43 41.6 44.2 42 45Z" fill="#C4C4C4"/>
    <path d="M51.5 91C45.1 91 36.1667 82 32.5 77.5C33.5 85 42 92.5 51.5 94C59.1 95.2 64.6667 91.1667 66.5 89C66.8333 88 67.4 86.2 67 87C66.5 88 59.5 91 51.5 91Z" fill="#C4C4C4"/>
    <path d="M24.4997 9.44816C33.716 0.666288 57.6098 3.19121 68 8C79.8731 13.4951 95.2695 32.7789 99.682 45.3923C105.517 62.0722 120.803 103.198 92.1219 110.225C63.3304 117.28 47.051 120.421 26.7313 90.9908C9.16482 65.5484 0.657146 32.1668 24.4997 9.44816Z" stroke="black" stroke-linecap="round"/>
    <path d="M67.8056 51.6059C65.8259 54.9714 66 64.5 59.5 68C70.5 63 67.4887 55.8067 70 53C74.2422 48.2587 88.9247 36.0659 95 45.0001C102.689 56.3075 105 73.7894 105 87.0001C105 110.534 65.8567 117.088 50 107.5C33.2845 97.3931 25.8792 78.2206 18.0002 62.048C10.5708 46.798 16.6297 17.4352 32.5002 9.50001C42.928 4.28608 57.9162 8.24098 67 13.5C75.7303 18.5544 82.2018 25.4542 86 34.0001C88.4634 39.5427 71.0203 46.141 67.8056 51.6059Z" stroke="black" stroke-linecap="round"/>
    <path d="M56.1133 40C55.1133 43 50.6714 42.5065 50 41.1638" stroke="black" stroke-linecap="round"/>
    <path d="M43.0092 41.0001C41.4993 39.5002 40.5002 42.5001 43.0093 44.0001" stroke="black" stroke-linecap="round"/>
    <path d="M62.7289 39.5L62.4415 39.9092L62.7289 39.5ZM62.7289 48L62.2408 47.8916L62.7289 48ZM61.2784 53.0562L61.6688 53.3685L61.2784 53.0562ZM52.4996 54.5L52.6402 54.0202C52.4488 53.9641 52.2424 54.0271 52.115 54.1805C51.9875 54.334 51.9634 54.5484 52.0537 54.7263L52.4996 54.5ZM48.7336 22.5L48.7047 22.9992L48.7336 22.5ZM29.4996 29.4165L29.0655 29.1684L29.4996 29.4165ZM36.4996 53.0562L36.9915 53.1456C37.027 52.9504 36.9437 52.7526 36.7791 52.6416L36.4996 53.0562ZM33.4996 80.974L33.927 80.7146V80.7146L33.4996 80.974ZM57.4996 94L57.5652 94.4957C57.5922 94.4921 57.6189 94.4863 57.645 94.4784L57.4996 94ZM43.7568 63.0713C43.52 62.9292 43.2129 63.006 43.0708 63.2428C42.9288 63.4796 43.0055 63.7867 43.2423 63.9288L43.7568 63.0713ZM61.7862 56.5006L62.1766 56.8129L61.7862 56.5006ZM62.7289 60.0899L63.1236 60.3969L62.7289 60.0899ZM39.3197 66.6159C39.1075 66.4391 38.7922 66.4678 38.6155 66.6799C38.4387 66.8921 38.4673 67.2074 38.6795 67.3841L39.3197 66.6159ZM61.2784 69.5L61.2784 70C61.4316 70 61.5763 69.9298 61.6711 69.8095L61.2784 69.5ZM76.2888 60.8876L76.4469 61.3619L76.2888 60.8876ZM81.9812 73.4325L82.4731 73.3431L81.9812 73.4325ZM86.2595 95.9845L86.0565 96.4414L86.2595 95.9845ZM82.38 98.5587L82.5174 98.078H82.5174L82.38 98.5587ZM72.0497 74.9422C71.9624 74.6803 71.6793 74.5387 71.4173 74.626C71.1553 74.7133 71.0137 74.9965 71.1011 75.2585L72.0497 74.9422ZM72.6873 77.1038C72.7447 76.8337 72.5722 76.5683 72.3021 76.5109C72.0319 76.4535 71.7665 76.626 71.7091 76.8961L72.6873 77.1038ZM76.3104 87.6072C76.3696 87.3375 76.1989 87.0709 75.9292 87.0117C75.6595 86.9525 75.3929 87.1231 75.3336 87.3928L76.3104 87.6072ZM68.4996 86.7613C68.4996 86.4852 68.2757 86.2613 67.9996 86.2613C67.7234 86.2613 67.4996 86.4852 67.4996 86.7613H68.4996ZM49.9996 71L50.0697 71.4951L49.9996 71ZM49.9996 66L49.8683 65.5176L49.9996 66ZM60.4996 60.8876L60.1011 60.5856L60.4996 60.8876ZM58.962 64.3097C58.8569 64.0544 58.5647 63.9325 58.3093 64.0376C58.0539 64.1427 57.9321 64.4349 58.0372 64.6903L58.962 64.3097ZM62.4415 39.9092C63.5227 40.6687 64.0736 41.1235 64.3291 41.4748C64.4447 41.6338 64.48 41.7465 64.4879 41.8389C64.4965 41.9384 64.478 42.0664 64.4035 42.2641C64.11 43.0434 62.9669 44.6239 62.2408 47.8916L63.217 48.1085C63.9336 44.8836 64.9259 43.7141 65.3394 42.6166C65.4416 42.3451 65.5106 42.0584 65.4842 41.753C65.4573 41.4405 65.3351 41.158 65.1379 40.8867C64.7675 40.3775 64.0704 39.8314 63.0163 39.0909L62.4415 39.9092ZM62.2408 47.8916C62.1407 48.3418 62.0675 48.8045 61.9983 49.2528C61.9282 49.7064 61.8623 50.1441 61.7756 50.5691C61.6018 51.421 61.3551 52.1598 60.8879 52.7438L61.6688 53.3685C62.2842 52.5993 62.5707 51.6745 62.7554 50.769C62.848 50.3152 62.9178 49.8507 62.9865 49.4055C63.0561 48.9552 63.1249 48.5227 63.217 48.1085L62.2408 47.8916ZM60.8879 52.7438C60.0853 53.7471 58.8776 54.3141 57.4249 54.5056C55.9694 54.6975 54.299 54.5062 52.6402 54.0202L52.359 54.9799C54.1131 55.4938 55.9274 55.7116 57.5556 55.497C59.1866 55.2821 60.6618 54.6272 61.6688 53.3685L60.8879 52.7438ZM63.0163 39.0909C62.6801 38.8547 62.437 38.4762 62.2617 37.9218C62.085 37.3628 61.9913 36.6701 61.9245 35.8588C61.7939 34.2719 61.7732 32.2472 61.3206 30.2979C60.8618 28.3215 59.9492 26.3534 57.9984 24.8232C56.0559 23.2994 53.1405 22.2544 48.7626 22.0009L48.7047 22.9992C52.9597 23.2456 55.6528 24.2542 57.3812 25.61C59.1014 26.9594 59.9223 28.6968 60.3465 30.524C60.7771 32.3784 60.7891 34.2555 60.9279 35.9409C60.9958 36.7657 61.096 37.5518 61.3082 38.2232C61.5219 38.8991 61.8628 39.5027 62.4415 39.9092L63.0163 39.0909ZM29.0655 29.1684C27.2342 32.3731 27.1582 37.1872 28.434 41.7766C29.7133 46.3784 32.3864 50.8853 36.22 53.4707L36.7791 52.6416C33.1987 50.227 30.6338 45.9559 29.3975 41.5087C28.1577 37.0491 28.2886 32.5435 29.9337 29.6646L29.0655 29.1684ZM36.0076 52.9667C35.5855 55.2886 33.8449 57.0017 32.0471 58.8845C30.3025 60.7116 28.5 62.7084 28.5 65.5H29.5C29.5 63.1611 30.9926 61.4369 32.7704 59.5751C34.495 57.7689 36.5043 55.8254 36.9915 53.1456L36.0076 52.9667ZM28.5 65.5C28.5 67.6042 29.121 70.6708 29.9899 73.6169C30.8595 76.5654 31.9989 79.4658 33.0722 81.2335L33.927 80.7146C32.9194 79.0551 31.8091 76.25 30.9491 73.334C30.0884 70.4157 29.5 67.4589 29.5 65.5H28.5ZM62.1766 56.8129C62.302 56.6562 62.3865 56.6107 62.4162 56.5999C62.4283 56.5955 62.4203 56.5968 62.4234 56.5984C62.4809 56.6282 62.6328 56.7904 62.7442 57.1981C62.9576 57.9792 62.8679 59.0968 62.3342 59.7829L63.1236 60.3969C63.9052 59.3919 63.9785 57.9219 63.7089 56.9346C63.5787 56.4582 63.3276 55.941 62.884 55.7108C62.6364 55.5823 62.3533 55.5584 62.0736 55.6604C61.8115 55.756 61.5875 55.9485 61.3958 56.1882L62.1766 56.8129ZM61.6711 69.8095C62.9654 68.1668 65.5728 66.4086 68.4474 64.8682C71.3036 63.3378 74.3485 62.0614 76.4469 61.3619L76.1307 60.4132C73.9761 61.1314 70.8792 62.4307 67.9751 63.9868C65.0895 65.533 62.3183 67.3722 60.8856 69.1906L61.6711 69.8095ZM76.4469 61.3619C76.9919 61.1802 77.4342 61.181 77.8024 61.2926C78.1735 61.4052 78.5139 61.6442 78.8288 62.0123C79.4721 62.7643 79.9497 63.9849 80.307 65.4373C80.6608 66.8753 80.8814 68.473 81.0509 69.9274C81.2178 71.3605 81.3381 72.6905 81.4893 73.522L82.4731 73.3431C82.3295 72.5533 82.2171 71.2958 82.0442 69.8117C81.8738 68.3491 81.6475 66.7001 81.278 65.1984C80.9122 63.7112 80.3902 62.2992 79.5887 61.3622C79.1812 60.8859 78.6878 60.5162 78.0927 60.3357C77.4946 60.1543 76.8381 60.1774 76.1307 60.4132L76.4469 61.3619ZM82.5174 98.078C82.2162 97.9919 81.8207 97.6831 81.3595 97.1259C80.9134 96.587 80.4624 95.8863 80.0335 95.1354C79.172 93.627 78.4497 92.0093 78.0413 91.1925L77.1469 91.6397C77.5268 92.3995 78.2864 94.0928 79.1652 95.6314C79.6065 96.404 80.0902 97.1608 80.5892 97.7636C81.073 98.3481 81.6328 98.8652 82.2427 99.0395L82.5174 98.078ZM75.3336 87.3928C75.1922 88.0374 74.2399 91.4235 73.067 94.6505C72.4806 96.2637 71.8467 97.8157 71.2397 98.9575C70.935 99.5308 70.6486 99.9783 70.3916 100.276C70.1104 100.601 69.9619 100.633 69.944 100.633V101.633C70.4359 101.633 70.8443 101.281 71.1483 100.929C71.4766 100.55 71.8039 100.027 72.1227 99.4269C72.7628 98.2229 73.4155 96.6189 74.0068 94.9921C75.1893 91.739 76.1565 88.3085 76.3104 87.6072L75.3336 87.3928ZM69.944 100.633C69.942 100.633 69.9223 100.635 69.8748 100.597C69.821 100.553 69.7475 100.468 69.6636 100.318C69.4947 100.016 69.3366 99.5492 69.1974 98.9357C68.921 97.7173 68.7487 96.0596 68.6439 94.3402C68.4346 90.908 68.4996 87.3371 68.4996 86.7613H67.4996C67.4996 87.3144 67.4341 90.9295 67.6457 94.401C67.7513 96.1334 67.9273 97.857 68.2222 99.1569C68.3687 99.8026 68.5521 100.379 68.791 100.806C69.0178 101.211 69.3844 101.633 69.944 101.633V100.633ZM48.7626 22.0009C46.234 21.8544 42.0926 22.3247 38.218 23.4676C36.2772 24.0401 34.3846 24.7868 32.7848 25.7218C31.1895 26.6542 29.8509 27.7939 29.0655 29.1684L29.9337 29.6646C30.5991 28.5001 31.775 27.4702 33.2894 26.5852C34.799 25.7028 36.611 24.9842 38.5009 24.4268C42.2877 23.3097 46.3125 22.8607 48.7047 22.9992L48.7626 22.0009ZM33.0722 81.2335C34.6399 83.8157 36.9327 87.6473 40.7492 90.5694C44.5864 93.5073 49.9336 95.5053 57.5652 94.4957L57.434 93.5043C50.0656 94.4791 44.9842 92.5524 41.3571 89.7754C37.7092 86.9824 35.5021 83.3088 33.927 80.7146L33.0722 81.2335ZM81.4893 73.522C81.6717 74.5256 81.7396 76.2831 81.8085 78.4479C81.8768 80.5911 81.9458 83.0956 82.1392 85.5357C82.3323 87.9716 82.6514 90.3736 83.2293 92.3095C83.7971 94.2118 84.66 95.8207 86.0565 96.4414L86.4626 95.5276C85.5006 95.1 84.7448 93.8904 84.1875 92.0235C83.6402 90.1901 83.3276 87.872 83.1361 85.4566C82.9449 83.0453 82.8765 80.5673 82.808 78.4161C82.7402 76.2865 82.6722 74.4379 82.4731 73.3431L81.4893 73.522ZM86.0565 96.4414C86.6604 96.7098 87.0598 96.9474 87.3064 97.1474C87.5634 97.3558 87.5917 97.4718 87.5933 97.4839C87.5936 97.4858 87.5933 97.4848 87.5936 97.4826C87.5939 97.4805 87.5942 97.4816 87.5919 97.4865C87.5866 97.4976 87.5682 97.5284 87.5159 97.5741C87.406 97.6702 87.2073 97.7796 86.9097 97.8829C86.3219 98.0869 85.4954 98.2173 84.6604 98.2527C83.8222 98.2882 83.0336 98.2255 82.5174 98.078L82.2427 99.0395C82.9046 99.2286 83.8134 99.2895 84.7028 99.2518C85.5954 99.2139 86.5266 99.0743 87.2375 98.8277C87.5893 98.7056 87.9253 98.5445 88.1741 98.327C88.4303 98.1031 88.6416 97.7707 88.5842 97.3491C88.5317 96.9633 88.2687 96.6404 87.9364 96.3708C87.5936 96.0928 87.1056 95.8133 86.4626 95.5276L86.0565 96.4414ZM78.0413 91.1925C75.3097 85.7293 73.9747 80.7171 72.0497 74.9422L71.1011 75.2585C73.0043 80.9683 74.3734 86.0926 77.1469 91.6397L78.0413 91.1925ZM57.645 94.4784C66.3585 91.8296 70.9602 85.2378 72.6873 77.1038L71.7091 76.8961C70.0389 84.7622 65.6407 91.0026 57.3542 93.5216L57.645 94.4784ZM49.9294 70.505C48.5772 70.6966 46.6691 70.3528 44.6936 69.6248C42.7298 68.9011 40.7681 67.8229 39.3197 66.6159L38.6795 67.3841C40.2311 68.6771 42.2975 69.8076 44.3478 70.5631C46.3864 71.3144 48.4782 71.7206 50.0697 71.4951L49.9294 70.505ZM43.2423 63.9288C43.8537 64.2956 44.4045 64.6727 44.9424 65.0336C45.4742 65.3905 45.9969 65.7339 46.5257 66.0092C47.6038 66.5706 48.7349 66.8624 50.1309 66.4825L49.8683 65.5176C48.7829 65.813 47.914 65.6047 46.9875 65.1223C46.5139 64.8757 46.0332 64.5613 45.4995 64.2032C44.972 63.8492 44.3954 63.4544 43.7568 63.0713L43.2423 63.9288ZM62.3342 59.7829C61.7882 60.4849 61.4411 60.799 61.2391 60.9205C61.1427 60.9786 61.118 60.9688 61.1466 60.9689C61.1912 60.969 61.2338 60.991 61.2546 61.0099C61.2636 61.0182 61.2524 61.0109 61.2274 60.9597C61.1987 60.9008 61.1868 60.8633 61.1479 60.7709C61.1329 60.7352 61.1098 60.6822 61.0792 60.6302C61.0542 60.5875 60.9911 60.4859 60.8729 60.4116C60.7156 60.3128 60.5215 60.2995 60.3506 60.3779C60.2208 60.4374 60.1405 60.5335 60.1011 60.5856L60.8981 61.1896C60.8968 61.1913 60.8876 61.2033 60.8701 61.2194C60.8532 61.2351 60.8193 61.2631 60.7674 61.2869C60.6318 61.3491 60.4691 61.3389 60.3409 61.2584C60.2919 61.2276 60.2609 61.1945 60.245 61.1756C60.2286 61.1561 60.2195 61.141 60.2167 61.1362C60.2124 61.1288 60.2147 61.1315 60.2261 61.1586C60.24 61.1917 60.2845 61.3077 60.3285 61.398C60.3763 61.4959 60.4541 61.6334 60.5812 61.7492C60.72 61.8757 60.9096 61.968 61.143 61.9689C61.3604 61.9697 61.5663 61.8908 61.7547 61.7774C62.1226 61.556 62.5629 61.1178 63.1236 60.3969L62.3342 59.7829ZM60.1011 60.5856C59.5115 61.3635 58.8938 62.3497 58.2349 63.3677C57.5696 64.3958 56.8515 65.4739 56.0408 66.4783C54.4144 68.4932 52.4671 70.1453 49.9294 70.505L50.0697 71.4951C52.9795 71.0827 55.1322 69.1961 56.8189 67.1064C57.6648 66.0585 58.4066 64.943 59.0744 63.9111C59.7488 62.8691 60.3376 61.9291 60.8981 61.1896L60.1011 60.5856ZM50.1309 66.4825C52.8092 65.7536 55.5922 63.6235 57.8421 61.5073L57.157 60.7789C54.927 62.8764 52.2952 64.8571 49.8683 65.5176L50.1309 66.4825ZM57.8421 61.5073C59.7452 59.7173 61.3129 57.8925 62.1766 56.8129L61.3958 56.1882C60.5529 57.2418 59.0171 59.0293 57.157 60.7789L57.8421 61.5073ZM52.0537 54.7263C52.6429 55.8875 53.6037 57.6197 54.574 59.0423C55.0575 59.7511 55.5562 60.4022 56.0227 60.8684C56.2553 61.1008 56.4961 61.3038 56.7379 61.4436C56.9725 61.5791 57.2682 61.6897 57.5835 61.636L57.4156 60.6502C57.4309 60.6476 57.3818 60.6607 57.2382 60.5777C57.1017 60.4989 56.9309 60.3622 56.7296 60.161C56.3284 59.7601 55.8708 59.1688 55.4001 58.4788C54.4621 57.1036 53.523 55.412 52.9455 54.2738L52.0537 54.7263ZM58.0372 64.6903C58.3833 65.5314 58.9398 66.7954 59.4853 67.8541C59.757 68.3812 60.0336 68.8724 60.2859 69.2374C60.4109 69.4183 60.5419 69.5859 60.6746 69.7137C60.7411 69.7778 60.8198 69.8433 60.9095 69.8951C60.9968 69.9456 61.124 70 61.2784 70L61.2783 69C61.3606 69 61.4083 69.0284 61.4097 69.0292C61.4135 69.0314 61.3997 69.0237 61.3683 68.9934C61.305 68.9324 61.2175 68.8266 61.1085 68.6689C60.8929 68.3568 60.6394 67.9105 60.3742 67.396C59.8461 66.3713 59.3017 65.1353 58.962 64.3097L58.0372 64.6903Z" fill="black"/>
</svg>
