<svg width="120" height="120" viewBox="0 0 120 120" fill="none" xmlns="http://www.w3.org/2000/svg">
    <path d="M50.7547 49.3798C50.4009 45.0964 53.913 42.0835 58.8195 41.8908C62.9594 41.7282 65.9908 44.4096 66.3089 48.2277C66.6524 52.3495 63.205 55.7635 58.8195 55.7166C54.8143 55.6737 51.0844 53.3716 50.7547 49.3798Z" fill="#F5F5F5"/>
    <path d="M58.8195 55.7166C56.799 55.6949 54.8486 55.0984 53.3694 54C52.3971 58.5373 48.8939 57.7604 48.4507 62.4136C48.2154 64.8846 44.9045 88.0566 49.0266 87.1406C51.0339 86.6945 52.0838 77.9698 52.0838 82.654C52.0838 89.4941 47.867 109.291 52.691 110.248C56.4426 110.993 57.6679 90.8571 59.3961 85.0963C61.1243 90.8571 62.2765 110.248 65.1568 110.248C68.6134 110.248 67.1847 85.1065 66.8851 82.654C66.8851 78.1835 67.8712 85.6401 70.3415 87.1406C73.7979 89.2402 69.6469 65.9015 68.6134 62.4136C67.8198 59.7351 63.8241 57.4564 63.8241 54C62.5003 55.0867 60.7509 55.7373 58.8195 55.7166Z" fill="#F5F5F5"/>
    <path d="M108.045 13.7991C108.275 11.0568 105.984 9.12785 102.782 9.00449C100.081 8.9004 98.1032 10.6171 97.8956 13.0615C97.6715 15.7004 99.9209 17.8862 102.782 17.8561C105.396 17.8286 107.83 16.3548 108.045 13.7991Z" fill="#C4C4C4"/>
    <path d="M102.782 17.8561C104.009 17.8432 105.195 17.5119 106.132 16.8998C106.766 19.8047 109.259 19.1646 109.548 22.1437C109.702 23.7257 111.862 38.561 109.172 37.9745C107.862 37.6889 107.177 32.1032 107.177 35.1021C107.177 39.4813 109.929 52.156 106.781 52.7687C104.333 53.2452 103.534 40.3539 102.406 36.6657C101.279 40.3539 100.527 52.7687 98.6473 52.7687C96.3919 52.7687 97.3242 36.6722 97.5197 35.1021C97.5197 32.2399 96.8762 37.0139 95.2643 37.9745C93.009 39.3187 95.7176 24.3767 96.3919 22.1437C96.9098 20.4288 99.3919 18.8657 99.3919 16.6528C100.269 17.411 101.46 17.87 102.782 17.8561Z" fill="#C4C4C4"/>
    <path d="M16.6585 13.7991C16.4276 11.0568 18.7193 9.12785 21.9207 9.00449C24.622 8.9004 26.5999 10.6171 26.8075 13.0615C27.0316 15.7004 24.7823 17.8862 21.9207 17.8561C19.3073 17.8286 16.8736 16.3548 16.6585 13.7991Z" fill="#C4C4C4"/>
    <path d="M21.9207 17.8561C20.6631 17.8429 19.4472 17.4947 18.5 16.8523C17.8656 19.7572 15.4443 19.1646 15.1551 22.1437C15.0016 23.7257 12.8413 38.561 15.5309 37.9745C16.8407 37.6889 17.5257 32.1032 17.5257 35.1021C17.5257 39.4813 14.7743 52.156 17.9219 52.7687C20.3698 53.2452 21.1693 40.3539 22.297 36.6657C23.4246 40.3539 24.1764 52.7687 26.0558 52.7687C28.3112 52.7687 27.379 36.6722 27.1835 35.1021C27.1835 32.2399 27.8269 37.0139 29.4388 37.9745C31.6941 39.3187 28.9855 24.3767 28.3112 22.1437C27.7934 20.4288 25.064 19.0652 25.064 16.8523C24.216 17.4906 23.1223 17.8687 21.9207 17.8561Z" fill="#C4C4C4"/>
    <path d="M58.8195 41.8908L58.8391 42.3904L58.8195 41.8908ZM50.7547 49.3798L51.253 49.3386L50.7547 49.3798ZM58.8195 55.7166L58.8141 56.2166L58.8195 55.7166ZM66.3089 48.2277L65.8106 48.2692V48.2692L66.3089 48.2277ZM54.1238 54.6692C54.1817 54.3992 54.0097 54.1334 53.7397 54.0755C53.4697 54.0177 53.2039 54.1897 53.146 54.4597L54.1238 54.6692ZM48.4507 62.4136L47.9529 62.3662L48.4507 62.4136ZM49.0266 87.1406L48.9181 86.6525H48.9181L49.0266 87.1406ZM68.6134 62.4136L69.0928 62.2716L68.6134 62.4136ZM64.5043 53.9884C64.5043 53.7122 64.2804 53.4884 64.0043 53.4884C63.7281 53.4884 63.5043 53.7122 63.5043 53.9884H64.5043ZM70.3415 87.1406L70.6011 86.7133L70.3415 87.1406ZM66.8851 82.654H66.3851C66.3851 82.6743 66.3863 82.6945 66.3888 82.7146L66.8851 82.654ZM52.691 110.248L52.5937 110.739L52.691 110.248ZM59.3961 85.0963L59.875 84.9527C59.8116 84.7412 59.6169 84.5963 59.3961 84.5963C59.1753 84.5963 58.9806 84.7412 58.9172 84.9527L59.3961 85.0963ZM58.7998 41.3912C56.2533 41.4912 54.0289 42.3245 52.4786 43.7309C50.9194 45.1453 50.0663 47.1201 50.2564 49.4209L51.253 49.3386C51.0892 47.3561 51.8153 45.6827 53.1504 44.4716C54.4943 43.2525 56.4792 42.4831 58.8391 42.3904L58.7998 41.3912ZM50.2564 49.4209C50.6155 53.7685 54.6632 56.1721 58.8141 56.2166L58.8248 55.2166C54.9653 55.1753 51.5533 52.9747 51.253 49.3386L50.2564 49.4209ZM58.8141 56.2166C63.4563 56.2663 67.1782 52.6383 66.8072 48.1861L65.8106 48.2692C66.1266 52.0608 62.9538 55.2608 58.8248 55.2166L58.8141 56.2166ZM66.8072 48.1861C66.4656 44.0872 63.1928 41.2187 58.7998 41.3912L58.8391 42.3904C62.7261 42.2378 65.5159 44.732 65.8106 48.2692L66.8072 48.1861ZM53.146 54.4597C52.9193 55.5177 52.5366 56.2083 52.096 56.727C51.6451 57.2577 51.1221 57.6255 50.5504 58.0411C49.9916 58.4473 49.3877 58.8987 48.9049 59.5704C48.4148 60.2524 48.0708 61.1288 47.9529 62.3662L48.9484 62.461C49.0522 61.3718 49.3455 60.6709 49.717 60.1539C50.0959 59.6266 50.5781 59.2573 51.1384 58.85C51.6858 58.4521 52.315 58.0137 52.8581 57.3744C53.4114 56.723 53.8644 55.8798 54.1238 54.6692L53.146 54.4597ZM49.135 87.6287C49.5464 87.5373 49.8719 87.2515 50.1225 86.9427C50.3792 86.6264 50.6048 86.227 50.8034 85.8059C51.2008 84.963 51.5293 83.9458 51.7854 83.1219C51.9157 82.7026 52.0254 82.3395 52.1201 82.0556C52.1672 81.9143 52.2075 81.8021 52.2416 81.7188C52.2813 81.6221 52.2961 81.6064 52.2824 81.6239C52.2819 81.6245 52.2192 81.7119 52.0853 81.7545C52.005 81.78 51.9067 81.7863 51.8059 81.755C51.7101 81.7251 51.6455 81.6717 51.6081 81.6316C51.5718 81.5927 51.5525 81.5575 51.5441 81.5407C51.535 81.5226 51.5312 81.5107 51.5308 81.5093C51.5303 81.5077 51.5346 81.5219 51.5407 81.5608C51.5665 81.7261 51.5838 82.0655 51.5838 82.654H52.5838C52.5838 82.0715 52.5682 81.6588 52.5287 81.4064C52.5185 81.3409 52.5045 81.2716 52.4836 81.206C52.4665 81.1522 52.428 81.0444 52.3391 80.9492C52.2895 80.8961 52.2123 80.8341 52.1032 80.8002C51.9893 80.7647 51.8772 80.7713 51.7827 80.8014C51.6204 80.8529 51.5272 80.9662 51.4943 81.0084C51.4157 81.1091 51.3576 81.2388 51.3164 81.3395C51.2696 81.4535 51.2211 81.5904 51.1714 81.7394C51.0724 82.0362 50.9568 82.4186 50.8305 82.825C50.5732 83.6525 50.2628 84.6075 49.8989 85.3795C49.7167 85.7658 49.531 86.0847 49.346 86.3126C49.155 86.548 49.0086 86.6324 48.9181 86.6525L49.135 87.6287ZM69.0928 62.2716C68.8704 61.521 68.4443 60.8213 67.9628 60.1591C67.4876 59.5056 66.912 58.8294 66.4043 58.1837C65.3538 56.8475 64.5043 55.5306 64.5043 53.9884H63.5043C63.5043 55.9026 64.5625 57.459 65.6182 58.8017C66.1636 59.4954 66.6907 60.11 67.154 60.7473C67.6112 61.3759 67.9596 61.9669 68.134 62.5556L69.0928 62.2716ZM47.9529 62.3662C47.8389 63.5635 46.9477 70.0232 46.6054 76.0188C46.4342 79.0174 46.3968 81.9438 46.6685 84.0742C46.8033 85.1307 47.0202 86.0477 47.3708 86.6838C47.5481 87.0057 47.7783 87.2901 48.083 87.471C48.4011 87.6598 48.7609 87.7119 49.135 87.6287L48.9181 86.6525C48.777 86.6839 48.6796 86.6622 48.5935 86.6111C48.4939 86.552 48.3727 86.4301 48.2466 86.2012C47.9901 85.7358 47.7913 84.9734 47.6605 83.9477C47.401 81.9138 47.4331 79.0645 47.6038 76.0758C47.9452 70.0965 48.8271 63.7348 48.9484 62.461L47.9529 62.3662ZM70.0819 87.568C70.3713 87.7437 70.7181 87.8433 71.0702 87.7185C71.407 87.599 71.6179 87.3186 71.7519 87.0421C72.0163 86.4967 72.1341 85.651 72.1746 84.674C72.2571 82.6833 72.0254 79.8196 71.6575 76.8117C70.9216 70.7952 69.6215 64.0558 69.0928 62.2716L68.134 62.5556C68.6388 64.2593 69.931 70.9331 70.6649 76.9331C71.0319 79.9334 71.2544 82.7287 71.1754 84.6325C71.1352 85.6027 71.0182 86.2632 70.8521 86.6059C70.7709 86.7735 70.7175 86.7825 70.7359 86.776C70.7695 86.7641 70.7437 86.7999 70.6011 86.7133L70.0819 87.568ZM67.3851 82.654C67.3851 82.0944 67.401 81.7545 67.4272 81.5729C67.4429 81.4632 67.4534 81.4845 67.4177 81.5423C67.3962 81.577 67.316 81.6916 67.1474 81.7317C66.9686 81.7742 66.8357 81.6997 66.7867 81.6645C66.7148 81.6131 66.7056 81.5679 66.7487 81.6481C66.7783 81.7032 66.8168 81.787 66.8652 81.9043C66.962 82.1386 67.0772 82.4531 67.2183 82.8325C67.4956 83.5779 67.8601 84.5383 68.3163 85.4098C68.7637 86.2644 69.3409 87.1179 70.0819 87.568L70.6011 86.7133C70.1069 86.4131 69.6346 85.7718 69.2023 84.946C68.7788 84.1371 68.4336 83.2313 68.1556 82.4839C68.019 82.1167 67.8951 81.7781 67.7895 81.5225C67.7367 81.3947 67.6831 81.2743 67.6296 81.1747C67.5896 81.1003 67.5062 80.9498 67.3688 80.8515C67.287 80.7929 67.1235 80.7095 66.9163 80.7588C66.7192 80.8056 66.6127 80.9426 66.5671 81.0165C66.4829 81.1526 66.4534 81.3192 66.4374 81.4305C66.3999 81.691 66.3851 82.096 66.3851 82.654H67.3851ZM52.5937 110.739C53.3253 110.884 53.9242 110.49 54.3744 109.932C54.8234 109.375 55.2084 108.564 55.5492 107.611C56.2341 105.694 56.7988 103.03 57.2948 100.198C57.7916 97.3612 58.2258 94.3155 58.641 91.6379C59.0589 88.943 59.4548 86.6408 59.875 85.24L58.9172 84.9527C58.4733 86.4323 58.068 88.8072 57.6528 91.4847C57.2349 94.1796 56.8044 97.2014 56.3098 100.026C55.8145 102.854 55.2614 105.445 54.6075 107.274C54.2789 108.194 53.9391 108.879 53.5962 109.304C53.2546 109.727 52.9946 109.799 52.7883 109.758L52.5937 110.739ZM58.9172 85.24C59.3373 86.6405 59.7289 88.8973 60.1258 91.5312C60.5188 94.1389 60.9194 97.1327 61.3503 99.9093C61.7825 102.694 62.2543 105.325 62.8035 107.265C63.077 108.231 63.3782 109.058 63.7195 109.653C64.0377 110.208 64.499 110.748 65.1568 110.748V109.748C65.0946 109.748 64.8898 109.683 64.5869 109.155C64.3071 108.667 64.0322 107.934 63.7657 106.992C63.2347 105.117 62.7704 102.539 62.3385 99.756C61.9053 96.9647 61.5138 94.0306 61.1147 91.3822C60.7195 88.7599 60.319 86.4325 59.875 84.9527L58.9172 85.24ZM65.1568 110.748C65.5419 110.748 65.861 110.568 66.1079 110.314C66.3479 110.067 66.5389 109.732 66.6967 109.357C67.0128 108.606 67.2465 107.564 67.4221 106.353C67.7746 103.923 67.9108 100.676 67.9295 97.3737C67.967 90.7699 67.5347 83.8483 67.3814 82.5934L66.3888 82.7146C66.5351 83.9122 66.9669 90.7878 66.9295 97.368C66.9108 100.658 66.7748 103.85 66.4324 106.21C66.2605 107.395 66.0411 108.336 65.7749 108.969C65.6415 109.287 65.5091 109.495 65.3904 109.617C65.2787 109.732 65.2038 109.748 65.1568 109.748V110.748ZM51.5838 82.654C51.5838 84.33 51.3243 86.8192 51.0034 89.6606C50.6841 92.4881 50.3063 95.6458 50.0798 98.6194C49.8538 101.587 49.775 104.409 50.0655 106.562C50.2105 107.636 50.4521 108.582 50.8392 109.305C51.2309 110.036 51.7985 110.581 52.5937 110.739L52.7883 109.758C52.3775 109.676 52.0216 109.394 51.7206 108.832C51.4149 108.262 51.1945 107.451 51.0565 106.428C50.7809 104.386 50.8517 101.652 51.0769 98.6953C51.3016 95.7449 51.6765 92.611 51.9971 89.7728C52.3161 86.9485 52.5838 84.398 52.5838 82.654H51.5838Z" fill="black"/>
    <path d="M102.782 9.00449L102.763 9.50412L102.782 9.00449ZM108.045 13.7991L107.546 13.7572L108.045 13.7991ZM102.782 17.8561L102.788 18.3561L102.782 17.8561ZM97.8956 13.0615L98.3938 13.1038V13.1038L97.8956 13.0615ZM105.677 17.2252C105.618 16.9554 105.789 16.6889 106.059 16.63C106.328 16.5711 106.595 16.742 106.654 17.0118L105.677 17.2252ZM109.548 22.1437L110.046 22.0954L109.548 22.1437ZM109.172 37.9745L109.279 37.486H109.279L109.172 37.9745ZM96.3919 22.1437L95.9133 21.9991L96.3919 22.1437ZM98.8994 16.7497C98.8994 16.4735 99.1232 16.2497 99.3994 16.2497C99.6755 16.2497 99.8994 16.4735 99.8994 16.7497H98.8994ZM95.2643 37.9745L95.0084 37.545L95.2643 37.9745ZM97.5197 35.1021H98.0197C98.0197 35.1227 98.0184 35.1434 98.0158 35.1639L97.5197 35.1021ZM106.781 52.7687L106.877 53.2595L106.781 52.7687ZM102.406 36.6657L101.928 36.5195C101.992 36.3093 102.186 36.1657 102.406 36.1657C102.626 36.1657 102.82 36.3093 102.884 36.5195L102.406 36.6657ZM102.802 8.50486C104.493 8.57005 105.985 9.11365 107.033 10.0462C108.09 10.9871 108.672 12.3069 108.543 13.8411L107.546 13.7572C107.648 12.549 107.2 11.5331 106.368 10.7932C105.527 10.0448 104.273 9.56229 102.763 9.50412L102.802 8.50486ZM108.543 13.8411C108.297 16.7583 105.538 18.3272 102.788 18.3561L102.777 17.3561C105.253 17.3301 107.362 15.9512 107.546 13.7572L108.543 13.8411ZM102.788 18.3561C99.68 18.3887 97.1444 15.9985 97.3974 13.0192L98.3938 13.1038C98.1986 15.4024 100.162 17.3836 102.777 17.3561L102.788 18.3561ZM97.3974 13.0192C97.6295 10.2864 99.8562 8.39136 102.802 8.50486L102.763 9.50412C100.306 9.40943 98.5769 10.9478 98.3938 13.1038L97.3974 13.0192ZM106.654 17.0118C106.795 17.6603 107.032 18.0745 107.299 18.3829C107.576 18.7037 107.899 18.9269 108.276 19.1962C108.641 19.4559 109.056 19.7591 109.39 20.2147C109.732 20.6813 109.966 21.2749 110.046 22.0954L109.05 22.192C108.985 21.5229 108.804 21.1067 108.583 20.8056C108.355 20.4937 108.062 20.2715 107.696 20.0103C107.343 19.7588 106.914 19.4659 106.543 19.0375C106.161 18.5969 105.852 18.0291 105.677 17.2252L106.654 17.0118ZM109.066 38.4631C108.744 38.3928 108.5 38.1763 108.325 37.9648C108.145 37.7464 107.99 37.4762 107.857 37.2001C107.592 36.6473 107.374 35.9845 107.207 35.4576C107.121 35.1868 107.051 34.958 106.99 34.7786C106.96 34.6896 106.935 34.6223 106.915 34.5747C106.889 34.5137 106.888 34.5244 106.914 34.5569C106.921 34.5658 106.989 34.6556 107.126 34.6985C107.208 34.7238 107.307 34.73 107.408 34.699C107.505 34.6695 107.571 34.616 107.612 34.5737C107.681 34.5002 107.702 34.4285 107.703 34.4265C107.707 34.4128 107.706 34.4116 107.703 34.4314C107.689 34.5208 107.677 34.7242 107.677 35.1021H106.677C106.677 34.7303 106.687 34.4522 106.716 34.2742C106.723 34.2271 106.734 34.1724 106.752 34.1178C106.766 34.0749 106.801 33.9747 106.887 33.8845C106.935 33.8338 107.01 33.7749 107.116 33.7427C107.226 33.7091 107.333 33.7155 107.424 33.7437C107.58 33.7923 107.668 33.8988 107.696 33.9342C107.764 34.02 107.81 34.1238 107.838 34.1892C107.871 34.2679 107.904 34.3601 107.937 34.4569C108.002 34.6493 108.079 34.8978 108.16 35.1556C108.328 35.686 108.527 36.2858 108.759 36.767C108.874 37.0078 108.988 37.1974 109.096 37.3275C109.209 37.4643 109.273 37.4848 109.279 37.486L109.066 38.4631ZM95.9133 21.9991C96.0675 21.4885 96.3601 21.0206 96.6786 20.5909C96.9908 20.1695 97.3752 19.7256 97.6996 19.3208C98.3849 18.4656 98.8994 17.6668 98.8994 16.7497H99.8994C99.8994 18.0454 99.169 19.0862 98.48 19.9461C98.1173 20.3988 97.7822 20.7813 97.482 21.1863C97.188 21.583 96.9753 21.9414 96.8706 22.2882L95.9133 21.9991ZM110.046 22.0954C110.119 22.8474 110.702 27.0017 110.925 30.8432C111.037 32.765 111.063 34.6531 110.883 36.0353C110.794 36.7177 110.649 37.3336 110.403 37.7724C110.277 37.9959 110.107 38.2063 109.873 38.3428C109.626 38.4867 109.348 38.5246 109.066 38.4631L109.279 37.486C109.333 37.4978 109.353 37.4885 109.37 37.4787C109.399 37.4616 109.458 37.4118 109.531 37.2827C109.681 37.0163 109.807 36.557 109.891 35.9064C110.058 34.6225 110.038 32.8129 109.927 30.9013C109.705 27.0764 109.131 23.022 109.05 22.192L110.046 22.0954ZM95.5203 38.404C95.3061 38.5317 95.0269 38.6171 94.7336 38.515C94.4535 38.4176 94.2873 38.1916 94.1893 37.9933C93.9982 37.6065 93.9212 37.0302 93.8947 36.4032C93.8401 35.1123 93.9931 33.2659 94.2334 31.3387C94.7139 27.4837 95.5637 23.1566 95.9133 21.9991L96.8706 22.2882C96.5458 23.3638 95.7041 27.6242 95.2257 31.4624C94.9864 33.3818 94.843 35.1585 94.8938 36.3609C94.92 36.9806 94.9961 37.3686 95.0859 37.5503C95.1284 37.6363 95.1346 37.5957 95.0622 37.5706C94.9768 37.5408 94.9407 37.5854 95.0084 37.545L95.5203 38.404ZM97.0197 35.1021C97.0197 34.7435 97.009 34.5383 96.9941 34.4369C96.9839 34.3673 96.9808 34.4159 97.0266 34.4886C97.0537 34.5316 97.1391 34.6472 97.3104 34.6871C97.4903 34.729 97.6262 34.6562 97.6814 34.6175C97.7652 34.5586 97.7881 34.495 97.7598 34.5467C97.7449 34.5738 97.7227 34.6208 97.6919 34.6939C97.6304 34.84 97.5569 35.0369 97.464 35.282C97.2832 35.7589 97.0417 36.3839 96.7379 36.9533C96.4427 37.5065 96.047 38.0902 95.5203 38.404L95.0084 37.545C95.2876 37.3786 95.5768 37.0052 95.8556 36.4826C96.1258 35.9762 96.3474 35.4064 96.5289 34.9275C96.6171 34.6948 96.6997 34.4735 96.7702 34.3059C96.8055 34.2221 96.8433 34.1383 96.8827 34.0664C96.9086 34.0191 96.9799 33.8882 97.1065 33.7992C97.183 33.7455 97.3389 33.6669 97.5374 33.7132C97.7272 33.7575 97.8298 33.8874 97.8727 33.9555C97.95 34.0783 97.973 34.2199 97.9836 34.2918C98.0102 34.4735 98.0197 34.7451 98.0197 35.1021H97.0197ZM106.877 53.2595C106.314 53.3691 105.865 53.0651 105.551 52.6825C105.238 52.3026 104.978 51.7604 104.754 51.1434C104.301 49.9002 103.93 48.181 103.606 46.3668C103.282 44.5482 102.998 42.5938 102.727 40.8828C102.454 39.1542 102.198 37.694 101.928 36.8119L102.884 36.5195C103.178 37.4816 103.445 39.0158 103.715 40.7267C103.988 42.4553 104.269 44.3854 104.591 46.1911C104.914 48.0012 105.273 49.646 105.693 50.8012C105.905 51.3833 106.119 51.7989 106.323 52.0473C106.525 52.2928 106.637 52.2874 106.686 52.2779L106.877 53.2595ZM102.884 36.8119C102.615 37.6937 102.361 39.1252 102.102 40.8137C101.846 42.4755 101.583 44.4035 101.303 46.1784C101.02 47.9615 100.711 49.6557 100.349 50.9099C100.17 51.5332 99.968 52.0798 99.7338 52.4804C99.5215 52.8438 99.1754 53.2687 98.6473 53.2687V52.2687C98.5891 52.2687 98.6776 52.3057 98.8705 51.9758C99.0416 51.683 99.216 51.2308 99.3885 50.6327C99.7315 49.4438 100.033 47.8038 100.315 46.0222C100.598 44.2323 100.852 42.3651 101.113 40.6619C101.371 38.9852 101.634 37.4819 101.928 36.5195L102.884 36.8119ZM98.6473 53.2687C98.3407 53.2687 98.091 53.1269 97.9054 52.9392C97.7269 52.7588 97.5914 52.5221 97.4837 52.271C97.268 51.7678 97.1128 51.082 96.9975 50.3022C96.7655 48.7328 96.6767 46.6432 96.6644 44.5271C96.6399 40.2947 96.9221 35.8546 97.0235 35.0403L98.0158 35.1639C97.9217 35.9197 97.64 40.313 97.6644 44.5213C97.6766 46.6256 97.7653 48.6582 97.9867 50.156C98.0982 50.9098 98.2386 51.4938 98.4029 51.877C98.4852 52.0691 98.5607 52.1797 98.6163 52.2359C98.6647 52.2848 98.672 52.2687 98.6473 52.2687V53.2687ZM107.677 35.1021C107.677 36.1622 107.845 37.7443 108.055 39.5666C108.263 41.3748 108.51 43.401 108.658 45.3091C108.806 47.2108 108.859 49.0346 108.666 50.4338C108.57 51.1315 108.409 51.7625 108.141 52.253C107.868 52.7531 107.46 53.1461 106.877 53.2595L106.686 52.2779C106.89 52.2382 107.084 52.1011 107.263 51.7736C107.447 51.4366 107.587 50.9426 107.676 50.2975C107.853 49.011 107.808 47.2776 107.661 45.3865C107.515 43.502 107.271 41.5001 107.061 39.681C106.854 37.8761 106.677 36.2316 106.677 35.1021H107.677Z" fill="black"/>
    <path d="M21.9207 9.00449L21.94 9.50412L21.9207 9.00449ZM16.6585 13.7991L17.1567 13.7572L16.6585 13.7991ZM21.9207 17.8561L21.9155 18.3561L21.9207 17.8561ZM26.8075 13.0615L26.3093 13.1038V13.1038L26.8075 13.0615ZM19.0263 17.2252C19.0852 16.9554 18.9143 16.6889 18.6445 16.63C18.3747 16.5711 18.1083 16.742 18.0493 17.0118L19.0263 17.2252ZM15.1551 22.1437L14.6575 22.0954L15.1551 22.1437ZM15.5309 37.9745L15.4244 37.486H15.4244L15.5309 37.9745ZM28.3112 22.1437L28.7899 21.9991L28.3112 22.1437ZM25.8038 16.7497C25.8038 16.4735 25.5799 16.2497 25.3038 16.2497C25.0276 16.2497 24.8038 16.4735 24.8038 16.7497H25.8038ZM29.4388 37.9745L29.6948 37.545L29.4388 37.9745ZM27.1835 35.1021H26.6835C26.6835 35.1227 26.6848 35.1434 26.6873 35.1639L27.1835 35.1021ZM17.9219 52.7687L17.8264 53.2595L17.9219 52.7687ZM22.297 36.6657L22.7751 36.5195C22.7108 36.3093 22.5168 36.1657 22.297 36.1657C22.0771 36.1657 21.8831 36.3093 21.8188 36.5195L22.297 36.6657ZM21.9015 8.50486C20.2097 8.57005 18.7178 9.11365 17.6701 10.0462C16.613 10.9871 16.0311 12.3069 16.1602 13.8411L17.1567 13.7572C17.055 12.549 17.5036 11.5331 18.3349 10.7932C19.1757 10.0448 20.4303 9.56229 21.94 9.50412L21.9015 8.50486ZM16.1602 13.8411C16.4058 16.7583 19.1649 18.3272 21.9155 18.3561L21.926 17.3561C19.4498 17.3301 17.3414 15.9512 17.1567 13.7572L16.1602 13.8411ZM21.9155 18.3561C25.0232 18.3887 27.5588 15.9985 27.3057 13.0192L26.3093 13.1038C26.5045 15.4024 24.5413 17.3836 21.926 17.3561L21.9155 18.3561ZM27.3057 13.0192C27.0737 10.2864 24.8469 8.39136 21.9015 8.50486L21.94 9.50412C24.3972 9.40943 26.1262 10.9478 26.3093 13.1038L27.3057 13.0192ZM18.0493 17.0118C17.9077 17.6603 17.6713 18.0745 17.4043 18.3829C17.1266 18.7037 16.8042 18.9269 16.4267 19.1962C16.0626 19.4559 15.6468 19.7591 15.3131 20.2147C14.9714 20.6813 14.7371 21.2749 14.6575 22.0954L15.6528 22.192C15.7177 21.5229 15.8993 21.1067 16.1198 20.8056C16.3483 20.4937 16.6412 20.2715 17.0073 20.0103C17.3601 19.7588 17.7894 19.4659 18.1603 19.0375C18.5418 18.5969 18.8507 18.0291 19.0263 17.2252L18.0493 17.0118ZM15.6374 38.4631C15.9595 38.3928 16.203 38.1763 16.378 37.9648C16.5585 37.7464 16.7132 37.4762 16.8458 37.2001C17.1114 36.6473 17.3292 35.9845 17.4961 35.4576C17.5819 35.1868 17.6524 34.958 17.7133 34.7786C17.7436 34.6896 17.7683 34.6223 17.7882 34.5747C17.8137 34.5137 17.8153 34.5244 17.7894 34.5569C17.7824 34.5658 17.7142 34.6556 17.5767 34.6985C17.4953 34.7238 17.3966 34.73 17.2953 34.699C17.1985 34.6695 17.1318 34.616 17.0916 34.5737C17.0217 34.5002 17.0008 34.4285 17.0002 34.4265C16.9957 34.4128 16.9968 34.4116 16.9999 34.4314C17.0142 34.5208 17.0257 34.7242 17.0257 35.1021H18.0257C18.0257 34.7303 18.0158 34.4522 17.9875 34.2742C17.98 34.2271 17.9691 34.1724 17.9513 34.1178C17.9374 34.0749 17.902 33.9747 17.8161 33.8845C17.7679 33.8338 17.6929 33.7749 17.5875 33.7427C17.4776 33.7091 17.3699 33.7155 17.2793 33.7437C17.1233 33.7923 17.0352 33.8988 17.007 33.9342C16.9387 34.02 16.8928 34.1238 16.8655 34.1892C16.8326 34.2679 16.7994 34.3601 16.7665 34.4569C16.7011 34.6493 16.6245 34.8978 16.5428 35.1556C16.3748 35.686 16.1757 36.2858 15.9445 36.767C15.8287 37.0078 15.715 37.1974 15.6074 37.3275C15.4941 37.4643 15.4298 37.4848 15.4244 37.486L15.6374 38.4631ZM28.7899 21.9991C28.6357 21.4885 28.343 21.0206 28.0245 20.5909C27.7123 20.1695 27.3279 19.7256 27.0035 19.3208C26.3182 18.4656 25.8038 17.6668 25.8038 16.7497H24.8038C24.8038 18.0454 25.5341 19.0862 26.2231 19.9461C26.5858 20.3988 26.9209 20.7813 27.2211 21.1863C27.5151 21.583 27.7278 21.9414 27.8326 22.2882L28.7899 21.9991ZM14.6575 22.0954C14.5845 22.8474 14.0012 27.0017 13.7777 30.8432C13.6658 32.765 13.6404 34.6531 13.8201 36.0353C13.9088 36.7177 14.0539 37.3336 14.3003 37.7724C14.4258 37.9959 14.5957 38.2063 14.8301 38.3428C15.077 38.4867 15.3552 38.5246 15.6374 38.4631L15.4244 37.486C15.3704 37.4978 15.3502 37.4885 15.3334 37.4787C15.304 37.4616 15.2447 37.4118 15.1722 37.2827C15.0225 37.0163 14.8963 36.557 14.8117 35.9064C14.6448 34.6225 14.6647 32.8129 14.776 30.9013C14.9986 27.0764 15.5722 23.022 15.6528 22.192L14.6575 22.0954ZM29.1828 38.404C29.397 38.5317 29.6763 38.6171 29.9695 38.515C30.2496 38.4176 30.4158 38.1916 30.5138 37.9933C30.7049 37.6065 30.7819 37.0302 30.8084 36.4032C30.863 35.1123 30.71 33.2659 30.4698 31.3387C29.9892 27.4837 29.1394 23.1566 28.7899 21.9991L27.8326 22.2882C28.1574 23.3638 28.999 27.6242 29.4775 31.4624C29.7167 33.3818 29.8602 35.1585 29.8093 36.3609C29.7831 36.9806 29.707 37.3686 29.6172 37.5503C29.5748 37.6363 29.5685 37.5957 29.6409 37.5706C29.7264 37.5408 29.7625 37.5854 29.6948 37.545L29.1828 38.404ZM27.6835 35.1021C27.6835 34.7435 27.6941 34.5383 27.709 34.4369C27.7192 34.3673 27.7223 34.4159 27.6765 34.4886C27.6494 34.5316 27.564 34.6472 27.3927 34.6871C27.2128 34.729 27.0769 34.6562 27.0218 34.6175C26.9379 34.5586 26.915 34.495 26.9434 34.5467C26.9582 34.5738 26.9805 34.6208 27.0112 34.6939C27.0727 34.84 27.1462 35.0369 27.2392 35.282C27.42 35.7589 27.6614 36.3839 27.9652 36.9533C28.2604 37.5065 28.6561 38.0902 29.1828 38.404L29.6948 37.545C29.4155 37.3786 29.1264 37.0052 28.8475 36.4826C28.5774 35.9762 28.3558 35.4064 28.1742 34.9275C28.086 34.6948 28.0035 34.4735 27.9329 34.3059C27.8976 34.2221 27.8598 34.1383 27.8204 34.0664C27.7945 34.0191 27.7232 33.8882 27.5966 33.7992C27.5201 33.7455 27.3643 33.6669 27.1658 33.7132C26.9759 33.7575 26.8733 33.8874 26.8304 33.9555C26.7531 34.0783 26.7301 34.2199 26.7196 34.2918C26.6929 34.4735 26.6835 34.7451 26.6835 35.1021H27.6835ZM17.8264 53.2595C18.3896 53.3691 18.8379 53.0651 19.1526 52.6825C19.465 52.3026 19.7247 51.7604 19.9494 51.1434C20.4023 49.9002 20.773 48.181 21.0968 46.3668C21.4213 44.5482 21.7054 42.5938 21.9757 40.8828C22.2489 39.1542 22.5054 37.694 22.7751 36.8119L21.8188 36.5195C21.5247 37.4816 21.2584 39.0158 20.988 40.7267C20.7148 42.4553 20.4346 44.3854 20.1123 46.1911C19.7893 48.0012 19.4306 49.646 19.0098 50.8012C18.7978 51.3833 18.5846 51.7989 18.3803 52.0473C18.1783 52.2928 18.0662 52.2874 18.0174 52.2779L17.8264 53.2595ZM21.8188 36.8119C22.0884 37.6937 22.3422 39.1252 22.6015 40.8137C22.8567 42.4755 23.1199 44.4035 23.4006 46.1784C23.6826 47.9615 23.992 49.6557 24.3538 50.9099C24.5336 51.5332 24.7352 52.0798 24.9693 52.4804C25.1817 52.8438 25.5277 53.2687 26.0558 53.2687V52.2687C26.1141 52.2687 26.0255 52.3057 25.8326 51.9758C25.6615 51.683 25.4871 51.2308 25.3146 50.6327C24.9716 49.4438 24.6701 47.8038 24.3883 46.0222C24.1052 44.2323 23.8515 42.3651 23.5899 40.6619C23.3324 38.9852 23.0693 37.4819 22.7751 36.5195L21.8188 36.8119ZM26.0558 53.2687C26.3624 53.2687 26.6121 53.1269 26.7977 52.9392C26.9762 52.7588 27.1117 52.5221 27.2194 52.271C27.4351 51.7678 27.5904 51.082 27.7056 50.3022C27.9376 48.7328 28.0265 46.6432 28.0387 44.5271C28.0632 40.2947 27.781 35.8546 27.6796 35.0403L26.6873 35.1639C26.7814 35.9197 27.0631 40.313 27.0387 44.5213C27.0266 46.6256 26.9378 48.6582 26.7164 50.156C26.6049 50.9098 26.4645 51.4938 26.3003 51.877C26.2179 52.0691 26.1424 52.1797 26.0869 52.2359C26.0385 52.2848 26.0311 52.2687 26.0558 52.2687V53.2687ZM17.0257 35.1021C17.0257 36.1622 16.858 37.7443 16.6482 39.5666C16.4401 41.3748 16.1931 43.401 16.0449 45.3091C15.8973 47.2108 15.8443 49.0346 16.0368 50.4338C16.1327 51.1315 16.2944 51.7625 16.5624 52.253C16.8355 52.7531 17.2436 53.1461 17.8264 53.2595L18.0174 52.2779C17.8133 52.2382 17.6188 52.1011 17.44 51.7736C17.2559 51.4366 17.1161 50.9426 17.0274 50.2975C16.8505 49.011 16.8952 47.2776 17.0419 45.3865C17.1882 43.502 17.4323 41.5001 17.6417 39.681C17.8494 37.8761 18.0257 36.2316 18.0257 35.1021H17.0257Z" fill="black"/>
    <path d="M72.0693 91.4332C88.1994 90.8572 131.405 70.1185 112.198 47.0986" stroke="black" stroke-linecap="round"/>
    <path d="M46.7221 91.4333C22.694 91.4333 -14.9179 68.3903 12.734 42.467" stroke="black" stroke-linecap="round"/>
    <path d="M34.0483 32.6735C43.8416 26.913 84.1667 26.3372 91.0796 32.6738" stroke="black" stroke-linecap="round"/>
</svg>
