<svg width="80" height="81" viewBox="0 0 80 81" fill="none" xmlns="http://www.w3.org/2000/svg">
    <path d="M75.9169 36.3216C66.2957 39.0051 59.832 40.1384 55.9821 38.0441C56.0488 35.2361 59.2176 34.2164 59.6001 31.5325C59.9254 29.2502 56.7326 26.7911 55.2188 25.2739C59.0754 25.8532 63.3123 24.7851 66.8849 23.5481C70.3244 22.3571 73.1675 20.13 77.6357 11.862L76.9576 10.902C75.2835 14.2579 72.1362 19.0965 68.0117 21.2817C70.0739 15.996 71.407 10.9673 71.407 6.03413L70.0739 5.66113C70.0739 13.9291 67.0618 20.9211 64.5747 22.5415C62.0876 24.1619 53.5762 23.6511 49.6684 20.9211C48.4155 20.2932 44.7028 20.2376 43.1928 19.9423C44.6399 16.6852 44.6399 9.93851 44.6399 6.69479L43.3084 5.93117C42.8837 10.7841 43.3734 15.263 41.5466 19.9423C38.756 20.3419 37.4999 19.0555 35.2788 21.2817C34.3981 22.1645 33.0328 24.1463 32.7862 25.5057C32.6427 26.2972 33.0741 28.6888 32.7862 29.4463C28.0796 26.1163 20.7605 30.9235 15.2988 29.0987C13.5469 28.5134 11.2133 27.8625 10.5837 25.9693C10.043 23.1919 9.6586 20.2116 9.6586 17.3797L7.80855 12.2927C7.80855 17.3935 8.17434 21.5168 9.2861 26.4198C9.29037 26.4386 4.20181 24.1612 2.48949 24.2642V25.5057C9.72252 25.687 13.273 33.6491 21.6118 30.4651C24.3042 29.4371 28.8029 29.6792 31.6295 30.1417C31.6295 33.6863 26.0799 35.2881 26.4236 39.0776C27.111 41.4891 27.1036 43.1071 27.4148 44.934C18.5784 45.7474 13.5321 52.5605 9.19636 59.5805C6.06592 60.7331 4.58012 60.5077 1.33325 60.5077L3.18309 62.1304C5.10819 62.4979 7.30739 62.5382 9.08043 61.5509C10.263 60.8924 9.6586 70.7713 15.6716 76.5021L19.1406 77.6611C13.7781 75.8695 10.1637 63.7722 10.8156 59.1169C13.7107 54.1597 22.1339 43.3664 28.4858 47.3455C30.6395 48.6946 34.8389 49.0572 36.0473 51.4795C36.6591 56.5655 37.0784 69.7379 40.1861 76.7339L41.3427 75.575C40.5684 70.8217 33.444 50.772 43.4243 50.772C49.6855 50.772 49.7793 50.2267 51.858 45.2784C52.7464 43.1634 54.6338 41.7597 55.2189 39.4137C61.7319 41.9244 72.3252 38.9439 78.6666 37.3548L75.9169 36.3216Z" fill="#F4F4F4"/>
    <path d="M44.3726 37.7253C43.4903 40.3722 38.0443 43.0207 36.0988 39.9308C33.9713 36.5518 36.6944 31.2495 39.6875 29.4889C45.4305 26.1106 45.4593 34.4653 44.3726 37.7253Z" fill="#E6E6E6"/>
    <path d="M43.9998 49.6612C45.7776 49.5501 49.5332 48.7279 50.3332 46.3279C51.1332 43.9279 46.4443 47.5501 43.9998 49.6612Z" fill="#FAFAFA"/>
    <path d="M56.6665 32.9945L54.6665 27.6611C55.3332 27.6611 56.7998 27.9945 57.3332 29.3278C57.8665 30.6611 57.1109 32.3278 56.6665 32.9945Z" fill="#FAFAFA"/>
    <path d="M41.6665 41.9945C39.7998 43.0611 36.8887 42.4389 35.6665 41.9945C35.9998 42.6611 36.9998 43.9945 38.3332 43.9945C39.9998 43.9945 43.9998 40.6611 41.6665 41.9945Z" fill="#FAFAFA"/>
    <path d="M41.6665 30.6609C41.9332 30.1275 39.9998 30.6609 39.9998 30.6609C39.9998 30.6609 39.3333 31.3275 39.9998 31.6608C40.298 31.8099 41.3332 31.3275 41.6665 30.6609Z" fill="#F4F4F4"/>
    <path d="M75.9169 36.3216C66.2957 39.0051 59.832 40.1384 55.9821 38.0441C56.0488 35.2361 59.2176 34.2164 59.6001 31.5325C59.9254 29.2502 56.7326 26.7911 55.2188 25.2739C59.0754 25.8532 63.3123 24.7851 66.8849 23.5481C70.3244 22.3571 73.1675 20.13 77.6357 11.862M43.3084 5.93117C42.8837 10.7841 43.3734 15.263 41.5465 19.9423C38.756 20.3419 37.4999 19.0555 35.2788 21.2817C34.3981 22.1645 33.0328 24.1463 32.7862 25.5057C32.6427 26.2972 33.0741 28.6888 32.7862 29.4463C28.0796 26.1163 20.7605 30.9235 15.2988 29.0987C13.5469 28.5134 11.2133 27.8625 10.5837 25.9693C10.043 23.1919 9.6586 20.2116 9.6586 17.3797M44.6399 6.69479C44.6399 9.93851 44.6399 16.6852 43.1928 19.9423C44.7028 20.2376 48.4155 20.2932 49.6684 20.9211C53.5762 23.6511 62.0876 24.1619 64.5747 22.5415C67.0618 20.9211 70.0739 13.9291 70.0739 5.66113M71.407 6.03413C71.407 10.9673 70.0739 15.996 68.0117 21.2817C72.1362 19.0965 75.2835 14.2579 76.9576 10.902M19.1406 77.6611C13.7781 75.8695 10.1637 63.7722 10.8156 59.1169C13.7107 54.1597 22.1339 43.3664 28.4858 47.3455C30.6395 48.6946 34.8389 49.0572 36.0473 51.4795C36.6591 56.5655 37.0784 69.7379 40.1861 76.7339M1.33325 60.5077C4.58012 60.5077 6.06592 60.7331 9.19636 59.5805C13.5321 52.5605 18.5784 45.7474 27.4148 44.934C27.1036 43.1071 27.111 41.4891 26.4236 39.0776C26.0799 35.2881 31.6295 33.6863 31.6295 30.1417C28.8029 29.6792 24.3042 29.4371 21.6118 30.4651C13.273 33.6491 9.72251 25.687 2.48949 25.5057M3.18309 62.1304C5.10819 62.4979 7.30739 62.5382 9.08042 61.5509C10.263 60.8924 9.6586 70.7714 15.6716 76.5021M7.80855 12.2927C7.80855 17.3935 8.17434 21.5168 9.2861 26.4198C9.29037 26.4386 4.20181 24.1612 2.48949 24.2642M78.6666 37.3548C72.3252 38.9439 61.7319 41.9244 55.2189 39.4137C54.6338 41.7597 52.7464 43.1634 51.858 45.2784C49.7792 50.2267 49.6855 50.772 43.4243 50.772C33.444 50.772 40.5684 70.8217 41.3427 75.575" stroke="black" stroke-linecap="round" stroke-linejoin="round"/>
    <path d="M44.3726 37.7253C43.4903 40.3722 38.0443 43.0207 36.0988 39.9308C33.9713 36.5518 36.6944 31.2495 39.6875 29.4889C45.4305 26.1106 45.4593 34.4653 44.3726 37.7253Z" stroke="black" stroke-linecap="round"/>
</svg>
