<svg width="120" height="120" viewBox="0 0 120 120" fill="none" xmlns="http://www.w3.org/2000/svg">
<path d="M113.875 52.9907C99.4436 57.0159 89.7481 58.716 83.9733 55.5744C84.0733 51.3625 88.8265 49.8329 89.4002 45.8071C89.8882 42.3836 85.099 38.695 82.8284 36.4191C88.6133 37.2881 94.9686 35.686 100.327 33.8304C105.487 32.044 109.751 28.7032 116.454 16.3013L115.437 14.8613C112.925 19.8952 108.204 27.1531 102.018 30.4309C105.111 22.5024 107.111 14.9593 107.111 7.55949L105.111 7C105.111 19.4019 100.593 29.89 96.8621 32.3206C93.1315 34.7511 80.3644 33.9849 74.5027 29.89C72.6234 28.9482 67.0543 28.8647 64.7893 28.4217C66.9599 23.5362 66.9599 13.4161 66.9599 8.55054V8.55049L64.9628 7.40506C64.3257 14.6845 65.0602 21.4027 62.3199 28.4217C58.1342 29.0211 56.25 27.0915 52.9183 30.4309C51.5973 31.755 49.5494 34.7277 49.1795 36.7669C48.9641 37.9541 49.6113 41.5415 49.1795 42.6778C42.1195 37.6828 31.1409 44.8935 22.9483 42.1563C20.3205 41.2784 16.8201 40.3021 15.8756 37.4622C15.0646 33.2962 14.488 28.8257 14.488 24.5779L11.7129 16.9474C11.7129 24.5986 12.2616 30.7835 13.9293 38.138C13.9357 38.1663 6.30284 34.7501 3.73436 34.9046V36.7669C14.5839 37.0387 19.9097 48.982 32.4177 44.206C36.4564 42.6639 43.2045 43.0271 47.4443 43.7209C47.4443 49.0378 39.12 51.4404 39.6355 57.1247C40.6666 60.7419 40.6555 63.1689 41.1223 65.9093C27.8677 67.1294 20.2982 77.3491 13.7947 87.8791C9.099 89.608 6.87031 89.2699 2 89.2699L4.77476 91.7039C7.6624 92.2552 10.9612 92.3156 13.6208 90.8346C15.3946 89.8469 14.488 104.665 23.5075 113.262L28.7111 115C20.6673 112.313 15.2457 94.1665 16.2234 87.1836C20.5661 79.7478 33.201 63.5579 42.7289 69.5266C45.9593 71.5503 52.2585 72.0941 54.0711 75.7275C54.9888 83.3566 55.6177 103.115 60.2793 113.609L62.0142 111.871C60.8528 104.741 50.1661 74.6663 65.1365 74.6663C74.5283 74.6663 74.669 73.8484 77.7871 66.4259C79.1198 63.2535 81.9508 61.1478 82.8285 57.6288C92.5979 61.395 108.488 56.9241 118 54.5406L113.875 52.9907Z" fill="#F5F5F5"/>
<path d="M66.5591 55.0955C65.2356 59.0658 57.0666 63.0387 54.1483 58.4038C50.957 53.3352 55.0418 45.3818 59.5313 42.7409C68.1458 37.6735 68.189 50.2056 66.5591 55.0955Z" fill="#C4C4C4"/>
<path d="M66 73.0001C68.6667 72.8335 74.3 71.6001 75.5 68.0001C76.7 64.4001 69.6667 69.8335 66 73.0001Z" fill="#E0E0E0"/>
<path d="M85 48L82 40C83 40 85.2 40.5 86 42.5C86.8 44.5 85.6667 47 85 48Z" fill="#E0E0E0"/>
<path d="M62.5 61.5C59.7 63.1 55.3333 62.1667 53.5 61.5C54 62.5 55.5 64.5 57.5 64.5C60 64.5 66 59.5 62.5 61.5Z" fill="#E0E0E0"/>
<path d="M62.5 44.5001C62.9 43.7001 60 44.5001 60 44.5001C60 44.5001 59.0002 45.5 60 46C60.4472 46.2237 62 45.5001 62.5 44.5001Z" fill="#F5F5F5"/>
<path d="M113.875 52.9907C99.4436 57.0159 89.7481 58.716 83.9733 55.5744C84.0733 51.3625 88.8265 49.8329 89.4002 45.8071C89.8882 42.3836 85.099 38.695 82.8284 36.4191C88.6133 37.2881 94.9686 35.686 100.328 33.8304C105.487 32.044 109.751 28.7032 116.454 16.3013M64.9628 7.40506C64.3257 14.6845 65.0602 21.4027 62.3199 28.4217C58.1342 29.0211 56.25 27.0915 52.9183 30.4309C51.5973 31.755 49.5494 34.7277 49.1795 36.7669C48.9641 37.9541 49.6113 41.5415 49.1795 42.6778C42.1195 37.6828 31.1409 44.8935 22.9483 42.1563C20.3205 41.2784 16.8201 40.3021 15.8756 37.4622C15.0646 33.2962 14.488 28.8257 14.488 24.5779M66.9599 8.55049C66.9599 13.4161 66.9599 23.5361 64.7893 28.4217C67.0543 28.8647 72.6234 28.9482 74.5027 29.89C80.3644 33.9849 93.1315 34.7511 96.8621 32.3206C100.593 29.89 105.111 19.4019 105.111 7M107.111 7.55949C107.111 14.9593 105.111 22.5024 102.018 30.4309C108.204 27.1531 112.925 19.8952 115.437 14.8613M28.7111 115C20.6673 112.313 15.2457 94.1665 16.2234 87.1836C20.5661 79.7478 33.201 63.5579 42.7289 69.5266C45.9593 71.5503 52.2585 72.0941 54.0711 75.7275C54.9888 83.3566 55.6177 103.115 60.2793 113.609M2 89.2699C6.87031 89.2699 9.099 89.608 13.7947 87.8791C20.2982 77.3491 27.8677 67.1294 41.1223 65.9093C40.6555 63.1689 40.6666 60.7419 39.6355 57.1247C39.12 51.4404 47.4443 49.0378 47.4443 43.7209C43.2045 43.0271 36.4564 42.6639 32.4177 44.206C19.9097 48.982 14.5839 37.0387 3.73436 36.7669M4.77476 91.7039C7.6624 92.2552 10.9612 92.3156 13.6208 90.8346C15.3946 89.8469 14.488 104.665 23.5075 113.262M11.7129 16.9474C11.7129 24.5986 12.2616 30.7835 13.9293 38.138C13.9357 38.1663 6.30284 34.7501 3.73436 34.9046M118 54.5406C108.488 56.9241 92.5979 61.395 82.8285 57.6288C81.9508 61.1478 79.1197 63.2534 77.7871 66.4259C74.669 73.8484 74.5283 74.6663 65.1365 74.6663C50.1661 74.6663 60.8528 104.741 62.0142 111.871" stroke="black" stroke-linecap="round" stroke-linejoin="round"/>
<path d="M66.5591 55.0955C65.2356 59.0658 57.0666 63.0387 54.1483 58.4038C50.957 53.3352 55.0418 45.3818 59.5313 42.7409C68.1458 37.6735 68.189 50.2056 66.5591 55.0955Z" stroke="black" stroke-linecap="round"/>
</svg>
