<svg width="120" height="120" viewBox="0 0 120 120" fill="none" xmlns="http://www.w3.org/2000/svg">
<path d="M31.8569 69.2179C31.1027 70.1098 29.0839 70.7513 29.0839 72.0286C29.0839 75.2821 31.2779 73.469 31.2779 81.7577C31.2779 84.4342 29.0839 86.9382 28.1087 92.1972C29.0839 97.2991 28.9368 101.242 24.7566 104.552C13.6494 104.552 18.6254 96.5569 14.3953 91.6007C8.17932 83.312 8.77688 76.9376 11.8051 70.8789C7.6615 63.6262 9.26163 55.0875 11.288 51.7112C8.95902 46.2766 5.73827 29.0282 15.432 23.7365C21.8345 20.2414 28.9276 22.1007 34.0816 24.7726C34.8768 25.3864 38.226 25.9819 43.4064 27.3629C47.943 28.5721 47.0988 33.1163 51.695 31.1649L77.8953 25.5307C96.7662 19.5922 119.042 20.1101 109.717 42.3861C111.79 47.5668 113.344 57.9277 109.717 66.2164C111.271 70.3608 116.453 88.4922 102.983 94.1908C101.876 96.1633 97.9448 99.9541 96.2482 100.926C91.2376 103.794 89.5136 99.3714 80.1875 104.034C72.4181 106.106 72.417 101.749 70.3446 101.749C69.3088 104.144 72.4305 109.936 65.7512 111.916C65.2596 112.062 64.4785 117.229 64.3895 117.968C64.3158 118.58 62.0288 113.679 61.7549 112.684C60.8588 109.429 54.5749 109.923 54.2655 104.144C53.9402 98.0682 58.4514 93.6727 65.7506 93.6727C65.7506 93.6727 69.3538 93.8 70.3446 92.1972C71.447 90.414 69 87 69 87C69 87 79.5 86.5 90 86.5C91.5 85.5 93.2904 85.2314 94.5 83.5C96.4011 80.7788 94.5 75 94.5 75L90 73C90 73 93.008 72.598 94.5 71.5C98.2834 68.7157 92.7951 62.693 93 58C93.1872 53.711 95.5 50.5 95.5 48.5C91.5 42.2354 91.0665 36.1697 91.0665 36.1697C88.4763 39.278 84.3319 44.509 78.1458 42.2852C73.4537 45.4946 66.2011 46.4239 61.3246 42.1616C55.7884 46.6506 44.7859 46.0705 39.2619 42.3161C35.9092 43.287 33.6554 46.2995 26.7708 42.2354C27.63 43.062 29.4366 45.0975 30.1504 46.4239C32.4459 50.6894 34.0816 54.4777 34.0816 59.4818C34.0816 63.1513 34.1778 66.4735 31.8569 69.2179Z" fill="#C4C4C4"/>
<path d="M65 2L60.5 4C60 4.33333 59.2414 6.23831 62 10C67.5 17.5 61.6667 18.1667 61 19.5C63.1667 20.3333 61.5 20 57.5 20C47.8253 20 44.8333 24.5 44.5 27.5C45.5 28.5 45.3 26.6 46.5 29C47.7 31.4 49.3333 31.6667 50 31.5L52.5 33H56C57 33 70 38.5 74.5 33C78.1 28.6 76.6667 22.8333 75.5 20.5C75.3333 19.1667 74 15.6 70 12C66 8.4 65 3.83333 65 2Z" fill="#E0E0E0"/>
<path d="M42.889 95.2269C39.1246 95.3697 32.4589 94.1729 28.9014 92.1482C29.9375 88.3639 29.4194 82.5402 45.9969 85.384C45.1686 84.3807 34.1221 85.0782 33.0457 82.5402C30.9587 77.6192 27.9427 69.1267 41.1493 68.6024C32.1924 68.1939 34.5999 66.2995 34.5999 63.1081C34.0818 60.1009 34.5807 57.3404 34.8774 54.8193C34.301 52.0426 30.997 50.629 32.528 47.5667C34.301 44.4584 40.2781 45.4945 43.4071 45.4945C47.723 45.4945 53.6148 45.338 57.8423 45.4945C61.0587 45.6136 62.9659 49.6389 66.2011 49.6389C68.2207 49.6389 70.4096 47.9562 72.001 46.7631C76.0439 44.4584 82.7785 42.3863 89.5131 42.3862C93.8572 42.6148 95.0902 46.1499 95.2116 50.1569C95.3161 53.6028 95.7692 58.1224 90.5492 58.2413C90.5492 58.6405 91.9278 58.6745 92.9946 58.7703C96.7658 59.1091 96.7658 69.1099 94.9055 70.3607C93.4209 72.5867 88.4457 72.6125 89.9916 73.3852C91.0107 73.8946 94.8461 74.3246 94.9055 75.8109C95.041 79.1976 95.7614 83.5128 92.9946 84.8957C85.3927 88.6952 77.0789 85.3354 69.2745 86.6356C68.1239 86.8273 69.9002 87.9708 70.2148 88.3639C72.6307 91.3827 67.7315 95.2407 66.2011 93.6728C62.9354 90.3272 59.2472 89.1583 60.5954 82.9431C61.307 79.6623 69.4227 77.9386 72.001 78.2321C76.5143 78.7458 81.4497 79.8627 85.8269 78.2321C86.6234 77.9354 77.065 77.2111 75.1154 77.0634L74.9961 77.0543C71.5051 76.7894 65.5872 75.2197 65.5872 71.9148C65.5872 67.7705 74.6338 67.4649 80.1879 67.0434C81.224 66.9648 85.8269 65.3754 88.9947 64.8429C83.2962 65.6983 74.904 67.2524 71.3811 67.2524C67.8582 67.2524 67.1894 63.8994 72.001 61.0359C72.9324 60.3799 74.2159 59.2921 75.7034 58.0987C71.7429 60.7883 66.8719 63.63 65.1334 61.4336C61.5382 56.8915 56.8761 49.6389 51.3075 50.4309C52.7315 51.193 60.7489 53.0696 60.5349 58.7703C60.3446 63.8388 54.3662 61.4336 51.3075 61.0359C48.5871 60.6821 45.6826 59.3261 39.2623 58.4272C40.405 58.7617 44.0917 60.5831 45.9969 61.4336C48.5871 62.59 58.6609 63.4684 58.6609 64.8429C59.9841 69.3246 56.2199 69.3246 53.7676 69.3246C55.4013 70.4103 59.9841 69.3246 57.8423 76.5274C55.6245 78.5996 44.443 75.0231 40.4162 76.5274C44.9611 77.6432 58.0044 77.8918 57.8423 82.5402C57.6918 86.8564 59.4274 90.6416 56.8761 93.1547C54.1713 95.8191 46.894 95.0749 42.889 95.2269Z" fill="#F5F5F5"/>
<path d="M11.9997 32.5001C11.8331 29.0001 14.0997 22.5001 24.4997 24.5001C15 27.5 16 29 11.9997 32.5001Z" fill="#E6E6E6"/>
<path d="M13.0002 54C11.1666 55.5 9.39981 59.1 13.0002 67.5C11.9997 62 11.9997 61 13.0002 54Z" fill="#E6E6E6"/>
<path d="M13.0002 74.5C11.6668 76.3333 10 80.7 14 87.5C13.0002 83 12.5 81.5 13.0002 74.5Z" fill="#E6E6E6"/>
<path d="M109 28.5C107.4 23.3 100.5 23.8334 96 24.5C102.5 24.5 104 27.5001 106.5 30.5001C108.5 32.9001 108 35.5 108.5 39.5C109.167 37.5 110.6 33.7 109 28.5Z" fill="#E6E6E6"/>
<path d="M97.5 43.5001C95.5 42.3001 94.3333 37.6667 94 35.5001C93.1667 36.0001 91.7 37.7001 92.5 40.5001C93.5 44.0001 96 44.0001 97.5 43.5001Z" fill="#E6E6E6"/>
<path d="M108.542 46.1189L108.5 46.0001C108.5 56.5001 107.325 52.5001 108.825 62.0001C111.197 53.6995 109.703 49.435 108.542 46.1189Z" fill="#E6E6E6"/>
<path d="M108.5 70.5001C110.167 75.8334 111.8 83.9001 105 89.5001C108.5 79.5001 107 83.0001 108.5 70.5001Z" fill="#E6E6E6"/>
<path d="M53.9357 26.5393C52.3585 27.1548 51.4828 28.0166 50.4238 28.5461" stroke="black" stroke-linecap="round"/>
<path d="M49.9219 34.5664C56.5484 29.5462 64.9178 38.6324 73 33.9532C78.2569 30.9097 79.1136 19.5154 71.4949 19.5154" stroke="black" stroke-linecap="round"/>
<path d="M51.695 31.1649C47.0988 33.1163 47.943 28.5721 43.4064 27.3629C38.226 25.9819 34.8768 25.3864 34.0816 24.7726C28.9276 22.1007 21.8345 20.2414 15.432 23.7365C5.73827 29.0282 8.95902 46.2766 11.288 51.7112C9.26162 55.0875 7.6615 63.6262 11.8051 70.8789C8.77688 76.9376 8.17932 83.312 14.3953 91.6007C18.6254 96.5569 13.6494 104.552 24.7566 104.552C28.9368 101.242 29.0839 97.2991 28.1087 92.1972C29.0839 86.9382 31.2779 84.4342 31.2779 81.7577C31.2779 73.469 29.0839 75.2821 29.0839 72.0286C29.0839 70.7513 31.1027 70.1098 31.8569 69.2179C34.1778 66.4735 34.0816 63.1513 34.0816 59.4818C34.0816 54.4777 32.4459 50.6894 30.1504 46.4239C29.4366 45.0975 27.63 43.062 26.7708 42.2354C33.6554 46.2995 35.9092 43.287 39.2619 42.3161C44.7859 46.0705 55.7884 46.6506 61.3246 42.1616C66.2011 46.4239 73.4537 45.4946 78.1458 42.2852C84.3319 44.509 88.4763 39.278 91.0665 36.1697C90.8777 37.9465 91.4 41.9 93 43.5" stroke="black" stroke-linecap="round" stroke-linejoin="round"/>
<path d="M77.8948 25.5307C96.7657 19.5922 119.042 20.1101 109.717 42.3861C111.789 47.5668 113.343 57.9277 109.717 66.2164C111.271 70.3608 116.453 88.4922 102.982 94.1908C101.875 96.1633 97.9443 99.9541 96.2477 100.926C91.2371 103.794 89.5131 99.3714 80.187 104.034C72.4176 106.106 72.4166 101.749 70.3441 101.749C69.3083 104.144 72.43 109.936 65.7507 111.916C65.2591 112.062 64.478 117.229 64.389 117.968C64.3153 118.58 62.0283 113.679 61.7544 112.684C60.8583 109.429 54.5744 109.923 54.265 104.144C53.9397 98.0682 58.4509 93.6727 65.7501 93.6727" stroke="black" stroke-linecap="round" stroke-linejoin="round"/>
<path d="M45.9974 85.384C29.4199 82.5402 29.9379 88.3639 28.9019 92.1481C32.4593 94.1729 39.1251 95.3697 42.8895 95.2269C46.8945 95.0749 54.1718 95.8191 56.8766 93.1547C59.4279 90.6416 57.6923 86.8564 57.8428 82.5402C58.0048 77.8918 44.9616 77.6432 40.4167 76.5274C44.4435 75.0231 55.625 78.5996 57.8428 76.5274C59.9846 69.3246 55.4017 70.4103 53.7681 69.3246C56.2204 69.3246 59.9846 69.3246 58.6614 64.8429C58.6614 63.4684 48.5876 62.59 45.9974 61.4336C44.0922 60.5831 40.4055 58.7617 39.2628 58.4272C45.6831 59.3261 48.5876 60.6821 51.308 61.0359C54.3667 61.4336 60.3451 63.8388 60.5354 58.7703C60.7494 53.0696 52.732 51.193 51.308 50.4309C56.8766 49.6389 61.5387 56.8915 65.1339 61.4336C67.5478 64.4833 76.0006 57.82 79.6703 55.3374C82.3864 53.4999 86.9081 50.7406 85.8274 52.2905C80.7064 53.2652 74.7835 59.0764 72.0015 61.0359C67.1899 63.8994 67.8587 67.2524 71.3816 67.2524C74.9045 67.2524 83.2967 65.6983 88.9952 64.8429C85.8274 65.3754 81.2245 66.9648 80.1884 67.0434C74.6343 67.4649 65.5877 67.7705 65.5877 71.9148C65.5877 75.2197 71.5056 76.7894 74.9966 77.0543C76.6324 77.1785 86.6417 77.9287 85.8274 78.2321C81.4502 79.8627 76.5148 78.7458 72.0015 78.2321C69.4232 77.9386 61.3075 79.6623 60.5959 82.9431C59.2477 89.1583 62.9359 90.3272 66.2015 93.6728C67.732 95.2406 72.6312 91.3827 70.2153 88.3639C69.9007 87.9708 68.1244 86.8273 69.275 86.6356C77.0794 85.3354 85.3931 88.6952 92.9951 84.8957C95.7619 83.5128 95.0415 79.1976 94.906 75.8109C94.8465 74.3246 91.0112 73.8946 89.9921 73.3852C88.4461 72.6125 93.4214 72.5867 94.906 70.3607C96.7663 69.1099 96.7662 59.1091 92.9951 58.7703C91.9283 58.6745 90.5497 58.6405 90.5497 58.2413C95.7697 58.1224 95.3166 53.6028 95.2121 50.1569C95.0907 46.1499 93.8576 42.6148 89.5136 42.3862C82.779 42.3863 76.0444 44.4584 72.0015 46.7631C70.4101 47.9562 68.2212 49.6389 66.2015 49.6389C62.9664 49.6389 61.0592 45.6136 57.8428 45.4945C53.6153 45.338 47.7235 45.4945 43.4075 45.4945C40.2786 45.4945 34.3015 44.4584 32.5285 47.5667C30.9975 50.629 34.3015 52.0426 34.8778 54.8193C34.5811 57.3404 34.0823 60.1009 34.6004 63.1081C34.6004 66.7344 31.4921 68.6861 45.4793 68.6861C27.3477 67.441 30.7563 77.1406 33.0462 82.5402C34.1226 85.0782 45.1691 84.3807 45.9974 85.384Z" stroke="black" stroke-linecap="round" stroke-linejoin="round"/>
<path d="M44.4434 26.8449C48.4139 17.3134 56.3503 21.1795 64.1291 19.5923" stroke="black" stroke-linecap="round"/>
<path d="M60.1816 19.5924C62.4694 17.915 64.1287 18.1706 64.1287 15.448C64.1287 11.7532 60.1816 8.45634 60.1816 4.05103" stroke="black" stroke-linecap="round"/>
<path d="M65.168 1.97876C65.168 10.2807 74.7312 13.3792 75.5258 20.6284" stroke="black" stroke-linecap="round"/>
</svg>
