<svg width="120" height="120" viewBox="0 0 120 120" fill="none" xmlns="http://www.w3.org/2000/svg">
<path d="M77.5 31.0001C75.5 27.0001 72.1667 29.3334 71 31.0001L73.5 69.5C73.8333 70.5 74.7 72.5 75.5 72.5C76.3 72.5 78.1667 70.5 79 69.5C79.6667 66.1667 81.3 58.7 82.5 55.5C84 51.5 82 42.5 81 41C80 39.5 80 36.0001 77.5 31.0001Z" fill="#9E9E9E"/>
<path d="M69.5006 72.5365C72.3323 71.0771 75.7459 69.6868 76.5031 65.9793C78.5875 55.7736 84.6458 34.871 70.2814 30.7505C57.3065 26.0447 38.4531 21.4019 24.6063 25.7065C12.8142 29.3723 8.01664 45.8791 3.28158 56.1832C1.49951 65.9793 6.41681 73.5835 8.11555 77.2802C13.5786 89.1683 6.56744 91.3057 6.56744 104.63C6.56744 112.85 40.3181 93.3558 43.2059 90.6971C50.827 83.6806 60.1482 77.3567 69.5006 72.5365Z" fill="#E0E0E0"/>
<path d="M116.804 39.0813C116.462 40.9863 114.191 42.9482 112.461 44.0763C104.506 49.2637 100.924 57.6938 93.2416 62.7348C90.725 64.3861 81.3032 71.1907 78.0878 68.7076C76.921 67.8065 81.7883 56.4048 81.8455 54.542C83.9722 44.0763 78.0878 35.4812 77.9646 32.1835C91.7127 32.9011 119.717 22.8349 116.804 39.0813Z" fill="#E0E0E0"/>
<path d="M57.4994 30.0001C41.892 26.3414 29.4995 26.6003 22.9993 31.0001C18.5386 34.0195 12.9993 38.5002 13.4993 41.0002C13.9993 43.5002 33.5254 35.58 46.4994 36.5001C55.0561 37.1069 62.4995 39 66.4995 39.5C69.6995 39.9 75.9315 38.8646 74.4993 36.0002C71.9995 31.0001 61.6515 30.9734 57.4994 30.0001Z" fill="#F5F5F5"/>
<path d="M88.2583 37.7443C86.2583 37.7443 86.2584 42.2443 84.7584 41.2443C82.7272 39.8902 80.5677 35.3652 83.2584 34.7443C89.7588 33.2443 108.758 30.7444 110.758 32.7443C111.819 33.805 112.258 34.7443 110.758 34.7443C109.258 34.7443 90.2583 37.7443 88.2583 37.7443Z" fill="#F5F5F5"/>
<path d="M69.501 72.5365C72.3327 71.0771 75.7463 69.6868 76.5035 65.9793C78.5878 55.7736 84.6461 34.871 70.2817 30.7505C57.3069 26.0447 38.4534 21.4019 24.6067 25.7065C12.8146 29.3723 8.01698 45.8791 3.28191 56.1832C1 65 6.41715 73.5835 8.11588 77.2802C13.5789 89.1683 6.56777 91.3057 6.56777 104.63C6.56777 112.85 40.3184 93.3558 43.2063 90.6971C50.8274 83.6806 60.1485 77.3567 69.501 72.5365Z" stroke="black" stroke-linecap="round"/>
<path d="M116.804 39.0813C116.462 40.9863 114.191 42.9482 112.461 44.0763C104.506 49.2637 100.924 57.6938 93.2416 62.7348C90.725 64.3861 81.3032 71.1907 78.0878 68.7076C76.921 67.8065 81.7883 56.4048 81.8455 54.542C83.9722 44.0763 78.0878 35.4812 77.9646 32.1835C91.7127 32.9011 119.717 22.8349 116.804 39.0813Z" stroke="black" stroke-linecap="round" stroke-linejoin="round"/>
<path d="M71.0723 30.837C71.4797 29.2174 73.0183 28.6583 74.6845 28.773C76.3905 28.8904 77.6633 30.1632 77.7807 31.8691" stroke="black" stroke-linecap="round"/>
<path d="M74.6843 69.5396C72.9024 72.0187 75.1735 72.9167 76.7114 71.7982C77.5862 71.162 79.5935 69.8045 78.2966 68.5076" stroke="black" stroke-linecap="round"/>
</svg>
