<svg width="120" height="120" viewBox="0 0 120 120" fill="none" xmlns="http://www.w3.org/2000/svg">
    <path d="M107.172 54.2114C107.172 46.7138 107.724 39.4869 104.901 32.4312C100.939 22.5257 99.2262 11.0141 95.5 1H18C21.8422 9.71877 28.6456 34.8795 30.4367 44.3725C35.1308 69.2513 22.4171 93.5855 27.5 119H101C103.234 101.124 107.172 72.2894 107.172 54.2114Z" fill="#E6E6E6"/>
    <path d="M41 1C42.982 8.43239 44.8626 15.7395 47.9693 22.7295C49.7501 26.7363 55.505 30.4178 59.5282 31.3118C63.4441 32.182 70.2473 35.0073 71.0871 39.4862L85.5 30.5C86.5126 24.9308 91.2384 3.15894 88 1H41Z" fill="#9E9E9E"/>
    <path d="M76.5 72.5C68.4117 75.7353 58.8066 80.8792 49.8735 79.255C44.9655 78.3626 37.0001 73.4831 40.8983 65.8678C43.9662 62.4165 47.0157 65.4207 50.4174 66.2002C55.6165 67.3917 60.4924 66.2519 65.5001 65L69.9999 64C72.4239 63.5548 73.6614 63.0321 75.4999 61.5L85.502 59.8843C87.9734 60.2962 90.5 60.965 90.5 64C90.5 68.1362 87.0938 68.7478 84 70L76.5 72.5Z" fill="#F5F5F5"/>
    <path fill-rule="evenodd" clip-rule="evenodd" d="M75.5903 59.5C74.9537 57.968 74.021 56.7708 73.0579 55.5346C71.2873 53.262 69.4142 50.8577 69.0903 46C69.0903 44.2169 69.6322 43.1811 70.1519 42.1877C70.6305 41.2727 71.2217 41 71.0903 39C71.0903 34 52 30.5 48.6072 24.3162C49.2263 27.5664 50.4874 34.7632 45.5799 34.9119C41.4105 35.0383 40.0849 42.0581 39.4151 45.6054C39.3478 45.9617 39.2871 46.2831 39.2308 46.5588C37.2384 56.3214 48.5491 63.4257 57.5903 61.5C60.1178 60.9617 62.0951 59.1265 63.7732 57.569C64.9493 56.4774 65.9784 55.5223 66.9469 55.2456C68.5989 54.7736 69.9292 56.1952 71.2217 57.5763C72.6053 59.0548 73.9455 60.4869 75.5903 59.5Z" fill="white"/>
    <path d="M39.9005 71.0352C39.3881 75.2805 42.7573 84.1425 47.2993 85.5051C48.8198 81.3238 52.7719 83.8993 54.3707 86.5326C56.506 90.0495 55.9005 91.2657 54.3707 94.6313C57.9983 94.6313 61 115.608 61 120H85.3203C85.3203 118.452 85.8196 112.882 86.3503 106.96C86.9832 99.898 87.661 92.3363 87.5903 90.5C87.5374 89.1245 87.0944 88.0055 86.663 86.9158C86.0213 85.2951 85.4052 83.7391 86.1364 81.5C86.723 80.092 87.3609 78.7925 87.9773 77.537C90.0096 73.3969 91.8073 69.7347 90.7599 64.2358C89.5 67.5 87.1327 68.6079 83.7129 69.6137L75.892 72.7784C69.7185 75.5665 62.5242 80.1364 51.5903 79.5C43 79 39.9005 71.0352 39.9005 71.0352Z" fill="white"/>
    <path d="M54.3707 86.5326C52.7719 83.8993 48.8198 81.3238 47.2993 85.5051C46.0994 88.8049 47.0273 94.6313 47.0273 94.6313C47.0273 94.6313 49.5903 108.5 50.5903 119.5H55.0903C54.0903 116 52.9915 97.6654 54.3707 94.6313C55.9005 91.2657 56.506 90.0495 54.3707 86.5326Z" fill="white"/>
    <path d="M73.0005 1C73.5005 7 82.4886 27.1154 85.5643 31.0699C87.2899 33.2885 90.0005 35.9543 90.0005 39L90.6662 48C83.5005 60.5 83.9991 66.2602 83.5001 71C82.9514 76.2132 83.0004 83.5 86.0005 90C86.0005 90 81.5005 87 77.0005 90.5C78.5005 79.5 75.5649 61.8838 75.5005 59.5C73.6934 55.1515 69.5005 53.5 69.0005 46C69.0005 42.5744 71.5108 42 71.5108 39.0932C73.0005 31.5 65.0005 12 58.5005 1H73.0005Z" fill="#E6E6E6"/>
    <path d="M65.5005 57C65.691 58 64.7721 71.5986 64.0005 77L74.0005 73C70.0151 73 68.6361 56.5 68.5005 55.5C68.3649 54.5 65.31 56 65.5005 57Z" fill="#E6E6E6"/>
    <path d="M46.0007 45.5C45.0005 55.5 46.571 79.7466 49.5005 90C50.0005 85.5 52.0006 87.5 52.0006 87.5C52.0006 82.7923 50.3303 72.3852 49.6625 67.7111C48.8547 62.0562 48.5005 52.7035 48.5005 47C48.5005 47 47.0005 49.5 46.0007 45.5Z" fill="#E6E6E6"/>
    <path d="M77.9995 51C75.2514 49.8723 72.4463 47.6975 72.4463 45.8019C72.4463 42.4894 75.6292 38.5518 79.85 37.3103C84.0117 36.0862 88.2816 35.7699 90.5477 40.302C90.9669 41.1404 91.8741 44.5285 90.9995 47C89.2275 52.0074 82.9136 53.0164 77.9995 51Z" fill="white"/>
    <path d="M78.0005 51C75.2524 49.8723 72.4473 47.6975 72.4473 45.8019C72.4473 42.4894 75.6301 38.5518 79.851 37.3103C84.0127 36.0862 88.2826 35.7699 90.5487 40.302C90.9679 41.1404 91.8751 44.5285 91.0005 47C89.2285 52.0074 82.9146 53.0164 78.0005 51Z" stroke="black" stroke-linecap="round"/>
    <path d="M73 1.5C73.5 7.5 82.4882 27.1154 85.5639 31.0699C87.2895 33.2885 90 35.9543 90 39" stroke="black" stroke-linecap="round"/>
    <path d="M90.6657 48C83.5 60.5 83.9986 66.2602 83.4997 71C82.9509 76.2132 82.9999 83.5 86 90" stroke="black" stroke-linecap="round"/>
    <path d="M71.0871 39.4862C70.2473 35.0073 63.4441 32.182 59.5282 31.3118C55.505 30.4178 49.7501 26.7363 47.9693 22.7295C44.8626 15.7395 42.982 8.93239 41 1.5" stroke="black" stroke-linecap="round"/>
    <path d="M71.5104 39.0932L71.0197 38.997L71.0104 39.0447V39.0932H71.5104ZM69 46H68.5V46.0166L68.5011 46.0333L69 46ZM75.5 59.5L75.9998 59.4865L75.9973 59.3938L75.9617 59.3081L75.5 59.5ZM76.5046 90.4324C76.4673 90.7061 76.6588 90.9581 76.9324 90.9954C77.2061 91.0327 77.4581 90.8412 77.4954 90.5676L76.5046 90.4324ZM58.9305 1.24564C58.79 1.0079 58.4834 0.929055 58.2456 1.06954C58.0079 1.21002 57.9291 1.51663 58.0695 1.75436L58.9305 1.24564ZM71.0104 39.0932C71.0104 40.3755 70.4747 41.1278 69.84 42.0734C69.1969 43.0318 68.5 44.1349 68.5 46H69.5C69.5 44.4395 70.0583 43.5426 70.6704 42.6307C71.2909 41.7061 72.0104 40.7178 72.0104 39.0932H71.0104ZM68.5011 46.0333C68.7584 49.8926 69.9729 52.267 71.3513 54.2201C72.0156 55.1614 72.7671 56.0675 73.3907 56.9086C74.0345 57.7769 74.6088 58.6583 75.0383 59.6919L75.9617 59.3081C75.4877 58.1675 74.8602 57.2117 74.194 56.313C73.5075 55.387 72.8407 54.5962 72.1684 53.6435C70.8735 51.8088 69.7416 49.6074 69.4989 45.9667L68.5011 46.0333ZM75.0002 59.5135C75.0171 60.1402 75.218 61.7264 75.4761 63.8625C75.7368 66.02 76.0622 68.7834 76.3387 71.8144C76.8928 77.8874 77.2463 84.9928 76.5046 90.4324L77.4954 90.5676C78.2537 85.0072 77.8894 77.8045 77.3346 71.7235C77.0567 68.6775 76.7299 65.9023 76.4689 63.7426C76.2053 61.5615 76.0151 60.0517 75.9998 59.4865L75.0002 59.5135ZM58.0695 1.75436C61.3043 7.2286 64.9165 14.7017 67.5326 21.7482C68.8405 25.2712 69.8955 28.6773 70.5309 31.6667C71.1691 34.6693 71.3723 37.2 71.0197 38.997L72.001 39.1895C72.3933 37.1899 72.1551 34.4981 71.5091 31.4588C70.8603 28.4064 69.7884 24.9513 68.47 21.4001C65.8335 14.2983 62.1957 6.7714 58.9305 1.24564L58.0695 1.75436Z" fill="black"/>
    <path d="M85.5 30.5C86.5126 24.9308 91.2384 3.65894 88 1.5" stroke="black" stroke-linecap="round"/>
    <path d="M65.5 57C66.5508 62.5167 64.7716 71.5986 64 77" stroke="black" stroke-linecap="round"/>
    <path d="M68.5 55.5C68.801 57.7201 70.0146 72.5 74 72.5" stroke="black" stroke-linecap="round"/>
    <path d="M65.4997 65C60.3343 66.2914 54.7197 67.7003 49.5 65.8678M47 78.5C45.0003 78.1364 36.9997 73.4831 40.898 65.8678C42.5837 63.9714 44.2639 64.024 46 64.5857M76.4997 72.5C68.9002 75.5398 59.9617 80.2644 51.4997 79.4772" stroke="black" stroke-linecap="round"/>
    <path d="M84 70C87.0938 68.7478 90.5 68.1362 90.5 64C90.5 60.965 87.9734 60.2962 85.502 59.8843" stroke="black" stroke-linecap="round"/>
    <path d="M70 64C72.4239 63.5548 73.6615 63.0321 75.5 61.5" stroke="black" stroke-linecap="round"/>
    <path d="M91.1608 64.1423C91.1091 63.871 90.8473 63.693 90.5761 63.7447C90.3048 63.7963 90.1268 64.0581 90.1784 64.3294L91.1608 64.1423ZM86.046 81.5L85.5845 81.3077L85.5769 81.326L85.5707 81.3448L86.046 81.5ZM87.5 90.5L87.0004 90.5192L87.5 90.5ZM85 118.5C85 118.776 85.2239 119 85.5 119C85.7761 119 86 118.776 86 118.5H85ZM87.0004 90.5192C87.0315 91.3293 86.9258 93.2573 86.7436 95.7863C86.5624 98.3011 86.3086 101.375 86.0504 104.452C85.536 110.585 85 116.776 85 118.5H86C86 116.831 86.529 110.71 87.0469 104.535C87.305 101.459 87.5593 98.3796 87.741 95.8581C87.9216 93.3507 88.0334 91.3588 87.9996 90.4808L87.0004 90.5192ZM85.5707 81.3448C84.9103 83.3675 85.2766 84.8872 85.7961 86.2944C86.3191 87.7113 86.9386 88.9124 87.0004 90.5192L87.9996 90.4808C87.9298 88.6663 87.211 87.2397 86.7342 85.9481C86.2539 84.6468 85.9591 83.3772 86.5213 81.6552L85.5707 81.3448ZM90.1784 64.3294C90.8402 67.8033 90.3337 70.5119 89.3477 73.1089C88.8513 74.4162 88.2341 75.6938 87.5751 77.0375C86.9188 78.3758 86.2219 79.778 85.5845 81.3077L86.5076 81.6923C87.1308 80.1966 87.8127 78.824 88.4729 77.4778C89.1305 76.1369 89.7675 74.8204 90.2826 73.4638C91.3194 70.7329 91.8641 67.8348 91.1608 64.1423L90.1784 64.3294Z" fill="black"/>
    <path d="M39.8102 71.0352C39.2978 75.2805 41.7955 82.9993 46.3375 84.3619" stroke="black" stroke-linecap="round"/>
    <path d="M45.9997 45.5C44.9995 55.5 46.57 79.7466 49.4995 90" stroke="black" stroke-linecap="round"/>
    <path d="M48.5 47C48.5 52.7035 48.8542 62.0562 49.662 67.7111C50.3297 72.3852 52.0001 82.7923 52.0001 87.5" stroke="black" stroke-linecap="round"/>
    <path d="M70 118.5C69.5 113.5 67.1376 101.149 67 97C66.8855 93.5459 65.1354 91.495 63 88.5" stroke="black" stroke-linecap="round"/>
    <path d="M47.209 85.5051L47.6789 85.676L47.209 85.5051ZM54.2803 86.5326L53.8529 86.7921L54.2803 86.5326ZM53.8724 96.1423L53.4172 95.9354L53.8724 96.1423ZM54.5192 118.637C54.5951 118.903 54.8718 119.057 55.1374 118.981C55.4029 118.905 55.5566 118.628 55.4808 118.363L54.5192 118.637ZM46.9369 94.6313L46.4432 94.7099L46.4432 94.7104L46.9369 94.6313ZM49.5021 118.545C49.5271 118.82 49.7703 119.023 50.0453 118.998C50.3203 118.973 50.5229 118.73 50.4979 118.455L49.5021 118.545ZM52.0929 83.5779C51.8598 83.4299 51.5508 83.4989 51.4028 83.732C51.2548 83.9651 51.3239 84.2741 51.557 84.4221L52.0929 83.5779ZM48.4523 84.3505C48.6458 84.1535 48.6431 83.837 48.4462 83.6434C48.2492 83.4498 47.9327 83.4526 47.7391 83.6495L48.4523 84.3505ZM53.4172 95.9354C53.212 96.3869 53.0778 97.0287 52.9875 97.7702C52.8959 98.523 52.8449 99.4221 52.8262 100.414C52.7888 102.399 52.88 104.786 53.0452 107.181C53.3743 111.951 54.0031 116.831 54.5192 118.637L55.4808 118.363C54.9969 116.669 54.3723 111.887 54.0428 107.112C53.8787 104.734 53.7893 102.378 53.826 100.433C53.8444 99.4602 53.8941 98.5979 53.9802 97.891C54.0676 97.1727 54.188 96.6563 54.3276 96.3492L53.4172 95.9354ZM46.9369 94.6313C47.4307 94.5526 47.4307 94.5527 47.4307 94.5527C47.4307 94.5527 47.4307 94.5527 47.4307 94.5526C47.4307 94.5526 47.4307 94.5524 47.4306 94.5521C47.4305 94.5516 47.4304 94.5507 47.4302 94.5495C47.4298 94.5471 47.4292 94.5433 47.4284 94.5381C47.4268 94.5277 47.4244 94.512 47.4213 94.4911C47.415 94.4492 47.4059 94.3867 47.3947 94.3057C47.3721 94.1435 47.3411 93.9071 47.3075 93.6126C47.2402 93.0233 47.1629 92.2039 47.1225 91.2837C47.0409 89.4228 47.115 87.2267 47.6789 85.676L46.7391 85.3343C46.1031 87.0833 46.0412 89.4503 46.1235 91.3275C46.1651 92.2764 46.2447 93.1198 46.3139 93.726C46.3486 94.0294 46.3806 94.2739 46.4042 94.4433C46.4159 94.5279 46.4256 94.5939 46.4323 94.639C46.4357 94.6615 46.4383 94.6789 46.4402 94.6908C46.4411 94.6967 46.4418 94.7013 46.4423 94.7045C46.4426 94.7061 46.4428 94.7074 46.4429 94.7083C46.443 94.7087 46.443 94.7091 46.4431 94.7093C46.4431 94.7095 46.4431 94.7096 46.4431 94.7097C46.4431 94.7098 46.4432 94.7099 46.9369 94.6313ZM53.8529 86.7921C54.8654 88.4597 55.1185 89.9099 54.9541 91.337C54.7865 92.7914 54.1839 94.2487 53.4172 95.9354L54.3276 96.3492C55.0906 94.6705 55.7597 93.0813 55.9475 91.4515C56.1384 89.7943 55.8305 88.1224 54.7077 86.2731L53.8529 86.7921ZM46.9369 94.6313C46.4432 94.7104 46.4432 94.7104 46.4433 94.7105C46.4433 94.7106 46.4433 94.7107 46.4433 94.7109C46.4434 94.7113 46.4435 94.7119 46.4436 94.7126C46.4438 94.7142 46.4442 94.7165 46.4447 94.7195C46.4457 94.7257 46.4472 94.7349 46.4491 94.7472C46.453 94.7717 46.4588 94.8084 46.4665 94.8567C46.4818 94.9533 46.5044 95.0966 46.5335 95.2829C46.5918 95.6556 46.6762 96.2005 46.7806 96.8888C46.9894 98.2656 47.2782 100.216 47.5983 102.51C48.2386 107.099 49.0031 113.057 49.5021 118.545L50.4979 118.455C49.9969 112.943 49.2299 106.967 48.5887 102.372C48.268 100.073 47.9785 98.1188 47.7693 96.7389C47.6646 96.0489 47.58 95.5025 47.5215 95.1285C47.4923 94.9414 47.4696 94.7975 47.4542 94.7002C47.4465 94.6516 47.4406 94.6147 47.4366 94.5898C47.4347 94.5774 47.4332 94.568 47.4322 94.5617C47.4317 94.5586 47.4313 94.5562 47.431 94.5546C47.4309 94.5538 47.4308 94.5532 47.4307 94.5528C47.4307 94.5525 47.4307 94.5524 47.4307 94.5523C47.4306 94.5522 47.4306 94.5521 46.9369 94.6313ZM51.557 84.4221C52.4633 84.9975 53.3065 85.892 53.8529 86.7921L54.7077 86.2731C54.0884 85.253 53.14 84.2426 52.0929 83.5779L51.557 84.4221ZM47.6789 85.676C47.9018 85.0631 48.1703 84.6374 48.4523 84.3505L47.7391 83.6495C47.3333 84.0624 46.998 84.6223 46.7391 85.3343L47.6789 85.676Z" fill="black"/>
    <path d="M55.0957 94.3594C58 97 61 114.108 61 118.5" stroke="black" stroke-linecap="round"/>
    <path d="M57.4995 61.5L57.6037 61.989L57.4995 61.5ZM66.8561 55.2456L66.7187 54.7648H66.7187L66.8561 55.2456ZM75.7568 59.9287C75.9935 59.7867 76.0703 59.4795 75.9283 59.2428C75.7862 59.006 75.4791 58.9292 75.2423 59.0713L75.7568 59.9287ZM49.0076 24.2226C48.9559 23.9513 48.6941 23.7733 48.4228 23.825C48.1516 23.8767 47.9735 24.1385 48.0252 24.4097L49.0076 24.2226ZM45.489 34.9119L45.4739 34.4122H45.4739L45.489 34.9119ZM39.14 46.5588L38.6501 46.4589L39.14 46.5588ZM49.1585 60.4368C48.8967 60.3489 48.6133 60.49 48.5255 60.7518C48.4377 61.0136 48.5787 61.297 48.8405 61.3849L49.1585 60.4368ZM45.5991 59.9341C45.8388 60.0711 46.1443 59.9879 46.2814 59.7482C46.4184 59.5084 46.3352 59.203 46.0955 59.0659L45.5991 59.9341ZM66.9934 55.7263C67.6512 55.5384 68.2641 55.7231 68.9167 56.177C69.5854 56.642 70.22 57.3361 70.9027 58.0641C71.5592 58.7643 72.272 59.5095 73.0444 59.9399C73.4403 60.1605 73.8728 60.3114 74.3405 60.3249C74.8129 60.3387 75.2861 60.2112 75.7568 59.9287L75.2423 59.0713C74.9176 59.266 74.6311 59.333 74.3695 59.3254C74.1032 59.3176 73.8275 59.2315 73.5312 59.0663C72.9192 58.7253 72.3112 58.1043 71.6321 57.3801C70.9792 56.6838 70.2632 55.8953 69.4877 55.356C68.6961 54.8055 67.7712 54.4641 66.7187 54.7648L66.9934 55.7263ZM48.0252 24.4097C48.3364 26.0436 48.7902 28.5863 48.5777 30.7277C48.4715 31.7975 48.2036 32.7079 47.7201 33.3498C47.2551 33.9673 46.5592 34.3793 45.4739 34.4122L45.5042 35.4117C46.8726 35.3702 47.8595 34.8269 48.5189 33.9515C49.1598 33.1006 49.4582 31.9808 49.5728 30.8265C49.8018 28.5198 49.3154 25.839 49.0076 24.2226L48.0252 24.4097ZM45.4739 34.4122C44.1541 34.4521 43.101 35.098 42.2734 36.0345C41.4533 36.9625 40.8348 38.1953 40.3565 39.4804C39.402 42.045 38.9512 44.9834 38.6501 46.4589L39.6299 46.6588C39.9452 45.1137 40.3748 42.2981 41.2937 39.8292C41.7521 38.5975 42.3184 37.4937 43.0227 36.6967C43.7193 35.9084 44.5299 35.4412 45.5042 35.4117L45.4739 34.4122ZM57.6037 61.989C59.894 61.5012 61.731 60.0217 63.244 58.6519C64.0186 57.9507 64.6851 57.2998 65.3283 56.7605C65.9715 56.2212 66.5134 55.8635 66.9934 55.7263L66.7187 54.7648C66.0235 54.9634 65.3456 55.441 64.6858 55.9943C64.0259 56.5475 63.3062 57.2467 62.5729 57.9106C61.0699 59.2713 59.4038 60.5832 57.3954 61.011L57.6037 61.989ZM48.8405 61.3849C51.6619 62.3312 54.7357 62.5999 57.6037 61.989L57.3954 61.011C54.7242 61.5799 51.8329 61.3337 49.1585 60.4368L48.8405 61.3849ZM38.6501 46.4589C37.4553 52.3133 40.8353 57.2103 45.5991 59.9341L46.0955 59.0659C41.5755 56.4816 38.5482 51.9591 39.6299 46.6588L38.6501 46.4589Z" fill="black"/>
    <path d="M95.5 1.5C99.2262 11.5141 100.939 22.5257 104.901 32.4312C107.724 39.4869 107.172 46.7138 107.172 54.2114C107.172 72.2894 103.734 100.624 101.5 118.5" stroke="black" stroke-linecap="round"/>
    <path d="M18.5 1.5C22.3422 10.2188 28.6456 34.8795 30.4367 44.3725C35.1308 69.2513 22.4171 93.0855 27.5 118.5" stroke="black" stroke-linecap="round"/>
</svg>
