<svg width="80" height="80" viewBox="0 0 80 80" fill="none" xmlns="http://www.w3.org/2000/svg">
    <rect x="10.5693" y="16.082" width="6.34286" height="16.9143" rx="3.17143" transform="rotate(-45 10.5693 16.082)" fill="white"/>
    <path d="M12.8119 18.3246C11.5734 17.0861 11.5734 15.078 12.8119 13.8395C14.0504 12.601 16.0584 12.601 17.297 13.8395L21.1336 17.6761C21.1336 17.6761 19.3692 18.435 18.4979 19.2618C17.5237 20.1863 16.6485 22.1612 16.6485 22.1612L12.8119 18.3246Z" fill="#999999"/>
    <ellipse cx="14.8472" cy="14.2892" rx="0.818562" ry="0.745574" transform="rotate(-45 14.8472 14.2892)" fill="white"/>
    <path d="M12.1555 16.0898L22.4625 26.397C21.8018 26.397 21.14 26.0837 20.7447 25.7363C20.5944 25.6041 12.9152 17.9398 12.8162 17.8077C12.1231 16.8827 12.1555 16.0898 12.1555 16.0898Z" fill="#FAFAFA"/>
    <rect x="10.5693" y="16.083" width="6.34286" height="16.9143" rx="3.17143" transform="rotate(-45 10.5693 16.083)" stroke="black" stroke-linecap="round" stroke-linejoin="round"/>
    <path d="M16.6618 22.1481C16.6618 22.1481 17.6248 20.1845 18.6297 19.2619C19.4504 18.5083 21.0534 17.7565 21.0534 17.7565" stroke="black" stroke-linecap="round" stroke-linejoin="round"/>
    <rect x="40.1846" y="20.3584" width="3.96429" height="10.5714" rx="1.98214" transform="rotate(-45 40.1846 20.3584)" fill="white"/>
    <path d="M41.5862 21.76C40.8121 20.9859 40.8121 19.7309 41.5862 18.9568C42.3602 18.1827 43.6153 18.1827 44.3893 18.9568L46.7872 21.3547C46.7872 21.3547 45.6845 21.829 45.1399 22.3458C44.5311 22.9236 43.9841 24.1579 43.9841 24.1579L41.5862 21.76Z" fill="#999999"/>
    <rect x="40.1846" y="20.3584" width="3.96428" height="10.5714" rx="1.98214" transform="rotate(-45 40.1846 20.3584)" stroke="black" stroke-linecap="round" stroke-linejoin="round"/>
    <path d="M43.9926 24.1498C43.9926 24.1498 44.5945 22.9226 45.2225 22.3459C45.7355 21.8749 46.7374 21.405 46.7374 21.405" stroke="black" stroke-linecap="round" stroke-linejoin="round"/>
    <rect x="10.5693" y="37.416" width="6.34286" height="16.9143" rx="3.17143" transform="rotate(-45 10.5693 37.416)" fill="white"/>
    <path d="M12.8119 39.6586C11.5734 38.42 11.5734 36.412 12.8119 35.1735C14.0504 33.935 16.0584 33.935 17.297 35.1735L21.1336 39.0101C21.1336 39.0101 19.3692 39.769 18.4979 40.5958C17.5237 41.5203 16.6485 43.4952 16.6485 43.4952L12.8119 39.6586Z" fill="#999999"/>
    <ellipse cx="14.8472" cy="35.6232" rx="0.818562" ry="0.745574" transform="rotate(-45 14.8472 35.6232)" fill="white"/>
    <path d="M12.1555 37.4238L22.4625 47.731C21.8018 47.731 21.14 47.4177 20.7447 47.0703C20.5944 46.9381 12.9152 39.2738 12.8162 39.1417C12.1231 38.2167 12.1555 37.4238 12.1555 37.4238Z" fill="#FAFAFA"/>
    <rect x="10.5693" y="37.417" width="6.34286" height="16.9143" rx="3.17143" transform="rotate(-45 10.5693 37.417)" stroke="black" stroke-linecap="round" stroke-linejoin="round"/>
    <path d="M16.6618 43.4821C16.6618 43.4821 17.6248 41.5185 18.6297 40.5958C19.4504 39.8422 21.0534 39.0904 21.0534 39.0904" stroke="black" stroke-linecap="round" stroke-linejoin="round"/>
    <rect x="10.5693" y="58.749" width="6.34286" height="16.9143" rx="3.17143" transform="rotate(-45 10.5693 58.749)" fill="white"/>
    <path d="M12.8119 60.9916C11.5734 59.753 11.5734 57.745 12.8119 56.5065C14.0504 55.268 16.0584 55.268 17.297 56.5065L21.1336 60.3431C21.1336 60.3431 19.3692 61.102 18.4979 61.9288C17.5237 62.8533 16.6485 64.8282 16.6485 64.8282L12.8119 60.9916Z" fill="#999999"/>
    <ellipse cx="14.8472" cy="56.9562" rx="0.818562" ry="0.745574" transform="rotate(-45 14.8472 56.9562)" fill="white"/>
    <path d="M12.1555 58.7568L22.4625 69.064C21.8018 69.064 21.14 68.7507 20.7447 68.4033C20.5944 68.2711 12.9152 60.6068 12.8162 60.4747C12.1231 59.5497 12.1555 58.7568 12.1555 58.7568Z" fill="#FAFAFA"/>
    <rect x="10.5693" y="58.75" width="6.34286" height="16.9143" rx="3.17143" transform="rotate(-45 10.5693 58.75)" stroke="black" stroke-linecap="round" stroke-linejoin="round"/>
    <path d="M16.6618 64.8151C16.6618 64.8151 17.6248 62.8515 18.6297 61.9289C19.4504 61.1753 21.0534 60.4235 21.0534 60.4235" stroke="black" stroke-linecap="round" stroke-linejoin="round"/>
    <path d="M54.3037 21.0664C54.3037 23.5473 55.3332 23.9677 55.9883 23.8741C55.9883 25.5586 57.1114 28.0855 57.6729 28.9278C58.0467 29.4885 60.2933 31.0803 61.6036 31.7354C63.2727 32.57 64.0743 32.5216 65.2535 32.5216C67.668 32.5216 67.668 32.0723 69.1841 31.4547C69.8393 30.9867 71.0933 30.1632 71.9918 29.4893C72.8902 28.8155 73.7699 25.3715 73.9571 23.8741C73.5828 23.9677 73.2271 24.0425 74.7994 23.5933C76.3717 23.1441 76.3904 21.16 76.2032 20.2242C76.3904 19.6626 76.4278 18.4834 75.0802 18.2588C73.7325 18.0342 73.6763 19.8498 73.6763 20.7857C73.1148 19.569 71.0933 16.9112 68.6226 16.0127C65.5342 14.8897 65.5342 11.8013 65.2535 11.8013C64.9727 11.8013 65.2535 15.732 65.2535 16.0127C65.2535 16.2935 62.4458 10.959 62.1651 10.959C61.9405 10.959 62.4458 14.3281 62.7266 16.0127C61.6036 15.4512 60.7613 14.6089 60.1997 13.7666C59.4866 14.0474 56.8306 19.6626 55.9883 22.4703V19.9434C55.9883 19.3819 55.8198 18.2588 55.146 18.2588C54.3037 18.2588 54.3037 18.8203 54.3037 21.0664Z" fill="#F2F2F2"/>
    <path d="M73.957 21.628C72.5532 19.1011 70.588 17.7224 69.4649 16.855C68.519 16.1244 66.0958 15.2757 65.2535 12.0821C64.6919 13.8719 65.2535 13.7666 65.2535 16.0127L62.1651 11.2398C61.8843 13.4859 62.1651 14.6089 62.7266 16.2935C60.1997 14.8897 60.6395 13.4525 60.1997 13.7666C58.6875 14.8468 56.2487 23.8741 55.9781 22.751C55.7074 21.628 56.8305 18.5396 55.1464 18.4946C53.4623 18.4497 55.1464 11.2398 55.9781 9.83595C56.8097 8.43214 58.6361 7.37338 60.1997 7.02832C62.1713 6.59324 64.5947 6.4668 65.5342 6.4668C67.2188 6.46678 70.3077 7.30909 71.7113 8.15137C73.1148 8.99366 74.3325 10.943 74.9348 13.2051C75.4467 15.1274 75.0803 18.5396 75.0803 18.5396C74.527 18.5396 73.571 18.2588 73.957 21.628Z" fill="#E6E6E6"/>
    <path d="M54.5844 26.401C55.2582 26.401 55.0523 24.7164 54.8652 23.8741L55.9781 24.1548L56.269 25.8394C55.9781 27.2432 53.7421 26.401 54.5844 26.401Z" fill="#E6E6E6"/>
    <path d="M75.6416 26.401C74.5186 25.8394 74.7057 25.1843 74.7993 24.1548H73.957L73.6763 25.8394C74.1325 26.6817 75.0802 26.8219 75.6416 26.401Z" fill="#E6E6E6"/>
    <path d="M55.9885 19.6631C55.8013 22.2835 55.9885 27.9737 58.2346 29.7705C61.0422 32.0166 62.1652 32.2974 63.0075 32.2974C63.2883 32.2974 64.1306 32.8589 64.9728 32.8589C65.6805 32.8589 66.2875 32.2974 66.8833 32.2974C67.7805 32.2974 68.8487 32.0166 71.6563 29.7705C73.9024 27.9737 74.0896 22.2835 73.9024 19.6631" stroke="black" stroke-linecap="round" stroke-linejoin="round"/>
    <path d="M54.8642 23.8741C55.0514 24.7164 55.2573 26.401 54.5834 26.401C53.7411 26.401 55.9771 27.2432 56.268 25.8394M74.7983 24.1548C74.7047 25.1843 74.5176 25.8394 75.6406 26.401C75.0792 26.8219 74.1315 26.6817 73.6753 25.8394M69.4639 16.855C70.587 17.7224 72.5522 19.1011 73.956 21.628C73.57 18.2588 74.526 18.5396 75.0793 18.5396C75.0793 18.5396 75.4457 15.1274 74.9338 13.2051C74.3315 10.943 73.1139 8.99366 71.7103 8.15137C70.3067 7.30909 67.2178 6.46678 65.5333 6.4668C64.5938 6.4668 62.1703 6.59324 60.1988 7.02832C58.6352 7.37338 56.8087 8.43214 55.9771 9.83595C55.1454 11.2398 53.4613 18.4497 55.1454 18.4946C56.8295 18.5396 55.7065 21.628 55.9771 22.751C56.2477 23.8741 58.6866 14.8468 60.1988 13.7666C60.6385 13.4525 60.1988 14.8897 62.7256 16.2935C62.1641 14.6089 61.8833 13.4859 62.1641 11.2398L65.2525 16.0127C65.2525 13.7666 64.691 13.8719 65.2525 12.0821C66.0948 15.2757 68.5181 16.1244 69.4639 16.855Z" stroke="black" stroke-linecap="round" stroke-linejoin="round"/>
    <path d="M73.957 19.6631C73.957 19.0428 74.4598 18.54 75.0801 18.54V18.54C75.7003 18.54 76.2031 19.0428 76.2031 19.6631V21.9092C76.2031 23.1497 75.1975 24.1553 73.957 24.1553V24.1553V19.6631Z" stroke="black" stroke-linecap="round" stroke-linejoin="round"/>
    <path d="M55.9883 19.3823C55.9883 18.9171 55.6112 18.54 55.146 18.54V18.54C54.6808 18.54 54.3037 18.9171 54.3037 19.3823V22.4707C54.3037 23.4011 55.0579 24.1553 55.9883 24.1553V24.1553V19.3823Z" stroke="black" stroke-linecap="round" stroke-linejoin="round"/>
    <path d="M63.3633 26.3203C63.3633 26.3203 63.4202 27.1219 65.2069 27.1219C66.9936 27.1219 67.0496 26.3203 67.0496 26.3203" stroke="black" stroke-linecap="round" stroke-linejoin="round"/>
    <path d="M62.2012 21.1104V21.984M68.2129 21.1104V21.984" stroke="black" stroke-linecap="round" stroke-linejoin="round"/>
    <path d="M57.3359 21.5737C57.3359 20.2127 58.4392 19.1094 59.8002 19.1094H61.6485C63.2363 19.1094 64.5235 20.3966 64.5235 21.9844V21.9844C64.5235 23.5722 63.2363 24.8594 61.6485 24.8594H60.6217C58.807 24.8594 57.3359 23.3883 57.3359 21.5737V21.5737Z" stroke="black" stroke-linecap="round" stroke-linejoin="round"/>
    <path d="M65.7812 21.9844C65.7812 20.3966 67.0684 19.1094 68.6563 19.1094H70.5045C71.8655 19.1094 72.9688 20.2127 72.9688 21.5737V21.5737C72.9688 23.3883 71.4977 24.8594 69.683 24.8594H68.6563C67.0684 24.8594 65.7812 23.5722 65.7812 21.9844V21.9844Z" stroke="black" stroke-linecap="round" stroke-linejoin="round"/>
    <path d="M64.5234 20.7264C64.7331 20.5467 65.2781 20.2951 65.7813 20.7264" stroke="black" stroke-linecap="round"/>
    <g opacity="0.3">
        <path d="M55.428 52.0359C52.8671 54.7525 54.7367 60.2576 54.7367 60.2576L55.8363 61.9646L73.7153 61.7849L74.4496 60.2576C74.1731 58.5683 76.4933 54.7006 76.4933 54.2825C76.4933 53.8645 73.728 53.0284 74.0046 52.889C74.2811 52.7497 76.2168 49.8233 76.9081 49.1266C77.5994 48.4298 69.4419 49.8233 69.3036 50.102C69.1654 50.3807 70.2715 47.7331 70.6863 46.7576C71.1011 45.7822 59.6419 49.7236 59.3488 49.8233C57.9925 50.2849 56.8246 50.5544 55.428 52.0359Z" fill="#999999"/>
        <path d="M55.7461 60.8482C55.7461 57.8427 58.1826 55.4062 61.1881 55.4062H67.7339C70.7394 55.4062 73.1758 57.8427 73.1758 60.8482V65.7383C73.1758 70.5514 69.2741 74.4532 64.461 74.4532C59.6479 74.4532 55.7461 70.5514 55.7461 65.7383V60.8482Z" fill="#F2F2F2"/>
        <path d="M73.1768 61.6055C73.1768 60.9604 73.6997 60.4375 74.3447 60.4375C74.9898 60.4375 75.5127 60.9604 75.5127 61.6055V63.6719C75.5127 64.962 74.4669 66.0078 73.1768 66.0078V61.6055Z" fill="#F2F2F2"/>
        <path d="M55.7461 61.6055C55.7461 60.9604 55.2232 60.4375 54.5781 60.4375C53.9331 60.4375 53.4101 60.9604 53.4101 61.6055V63.6719C53.4101 64.962 54.456 66.0078 55.7461 66.0078V61.6055Z" fill="#F2F2F2"/>
        <path d="M55.7461 60.8482C55.7461 57.8427 58.1826 55.4062 61.1881 55.4062H67.7339C70.7394 55.4062 73.1758 57.8427 73.1758 60.8482V65.7383C73.1758 70.5514 69.2741 74.4532 64.461 74.4532V74.4532C59.6479 74.4532 55.7461 70.5514 55.7461 65.7383V60.8482Z" stroke="black" stroke-linecap="round" stroke-linejoin="round"/>
        <path d="M73.1768 61.6055C73.1768 60.9604 73.6997 60.4375 74.3447 60.4375V60.4375C74.9898 60.4375 75.5127 60.9604 75.5127 61.6055V63.6719C75.5127 64.962 74.4669 66.0078 73.1768 66.0078V66.0078V61.6055Z" stroke="black" stroke-linecap="round" stroke-linejoin="round"/>
        <path d="M55.7461 61.6055C55.7461 60.9604 55.2232 60.4375 54.5781 60.4375V60.4375C53.9331 60.4375 53.4101 60.9604 53.4101 61.6055V63.6719C53.4101 64.962 54.456 66.0078 55.7461 66.0078V66.0078V61.6055Z" stroke="black" stroke-linecap="round" stroke-linejoin="round"/>
        <path d="M54.7371 60.2575C54.5989 59.9788 52.8675 54.7525 55.4284 52.0359C56.825 50.5544 57.993 50.2849 59.3492 49.8233C59.6423 49.7236 71.1015 45.7822 70.6867 46.7576C70.2719 47.7331 69.1658 50.3807 69.3041 50.102C69.4423 49.8233 77.5998 48.4298 76.9085 49.1266C76.2172 49.8233 74.2815 52.7497 74.005 52.889C73.7285 53.0284 76.4937 53.8645 76.4937 54.2825C76.4937 54.7006 74.1735 58.5683 74.4501 60.2575" stroke="black" stroke-linecap="round" stroke-linejoin="round"/>
        <path d="M62.0674 67.6416C62.0674 67.6416 62.6859 68.4432 64.4725 68.4432C66.2592 68.4432 66.8767 67.6416 66.8767 67.6416" stroke="black" stroke-linecap="round" stroke-linejoin="round"/>
        <path d="M61.4668 62.4316V63.9346M67.4785 62.4316V63.9346" stroke="black" stroke-linecap="round" stroke-linejoin="round"/>
    </g>
    <path d="M28.7432 30.9927C29.8003 30.0761 35.4869 25.4951 39.3146 25.4951" stroke="black" stroke-linecap="round"/>
    <path d="M39.3145 24.4385C42.6125 25.1805 40.5271 25.7902 39.3145 26.9759" stroke="black" stroke-linecap="round"/>
    <ellipse cx="18.8765" cy="41" rx="16.2095" ry="37" stroke="black" stroke-linecap="round" stroke-linejoin="round" stroke-dasharray="5 5"/>
</svg>
