<svg width="80" height="80" viewBox="0 0 80 80" fill="none" xmlns="http://www.w3.org/2000/svg">
    <path d="M40.147 12.6929L36.155 13.8336C35.2044 14.2139 37.5804 12.4078 38.7213 12.1226C44.476 10.6842 56.022 7.08439 60.68 6.13379L60.68 6.1338C61.5355 6.98934 62.1059 7.55969 62.1059 7.84487C60.68 8.13005 48.037 11.5522 41.5729 13.8337L40.147 12.6929Z" fill="#F2F2F2"/>
    <path d="M72.9428 40.6407C69.5206 42.0095 52.3147 25.5261 45.2802 23.5298C46.1928 31.2867 48.7024 46.9146 53.2653 51.7627L77.2205 43.7776C76.0797 42.9221 74.6538 42.0666 72.9428 40.6407Z" fill="#F2F2F2"/>
    <path d="M26.4223 45.4736C22.068 52.3129 17.7552 59.5797 14.7363 64.2817H37.5938C34.1436 57.8698 30.2621 51.8855 26.4223 45.4736Z" fill="#FAFAFA"/>
    <path d="M37.7696 12.3897C44.5362 9.95377 53.0371 6.62068 60.2143 5.90296C62.74 5.65039 65.5174 19.1284 65.8631 20.8933C67.1602 27.515 70.6079 40.9109 77.3322 43.9674C74.0773 44.521 61.0057 49.7754 53.2807 51.7618C48.6773 46.647 47.4852 36.2992 46.3522 29.8383C45.832 26.8718 43.3298 12.6805 38.966 12.1956C37.7261 12.0579 36.7517 12.9653 36.1328 13.903L40.1893 12.7052" stroke="black" stroke-width="0.48" stroke-linecap="round" stroke-linejoin="round"/>
    <path d="M53.502 15.685C55.6043 14.8718 57.5922 14.2936 59.7375 13.6807" stroke="black" stroke-width="0.48" stroke-linecap="round" stroke-linejoin="round"/>
    <path d="M54.6172 25.2601C56.7455 24.8041 59.0744 24.3361 61.0755 23.4785" stroke="black" stroke-width="0.48" stroke-linecap="round" stroke-linejoin="round"/>
    <path d="M57.5107 35.5054C58.2328 34.6195 64.174 33.0557 65.0825 33.0557" stroke="black" stroke-width="0.48" stroke-linecap="round" stroke-linejoin="round"/>
    <path d="M60.8525 44.4132C63.7903 42.8981 65.7676 42.4324 68.7968 41.2207" stroke="black" stroke-width="0.48" stroke-linecap="round" stroke-linejoin="round"/>
    <path d="M26.3787 60.8613C25.8036 60.8613 25.8034 61.7162 26.3786 61.7162C26.9535 61.7163 26.9535 60.8614 26.3787 60.8613Z" stroke="black" stroke-width="0.48" stroke-linecap="round" stroke-linejoin="round"/>
    <path d="M26.3799 57.7612V50.1748" stroke="black" stroke-width="0.48" stroke-linecap="round" stroke-linejoin="round"/>
    <path d="M26.4213 45.4736C22.067 52.3129 17.7543 59.5797 14.7354 64.2817H37.5928C34.1426 57.8698 30.2612 51.8855 26.4213 45.4736Z" stroke="black" stroke-width="0.48" stroke-linecap="round" stroke-linejoin="round"/>
    <path d="M8.0211 65.1629C7.66776 66.9296 4.48774 69.1468 3.42773 70.9134C4.84108 70.5601 8.29235 69.2134 9.43444 69.1467C13.1443 69.9795 18.226 73.9395 24.9816 73.9963C31.9056 74.0545 37.1179 73.4563 41.7869 68.3429C45.5371 64.2358 47.0973 60.4494 46.5351 54.9161C45.8849 48.5168 43.1466 43.5004 37.7017 40.0759C29.7554 35.0784 20.3694 36.4218 12.9682 42.196C8.62062 45.588 6.90958 49.0876 6.25442 54.5628C5.7334 58.917 7.51657 62.0503 8.0211 65.1629Z" stroke="black" stroke-width="0.48" stroke-linecap="round" stroke-linejoin="round"/>
</svg>
