<svg width="80" height="80" viewBox="0 0 80 80" fill="none" xmlns="http://www.w3.org/2000/svg">
    <path d="M17.9306 22.8108H21.9046C23.5802 22.8108 24.9933 20.6144 25.8786 19.198C26.6295 17.6963 28.0462 15.8892 28.0462 14.1402C28.0462 12.8211 30.2139 11.9725 31.2977 11.25C35.2718 14.8627 37.9306 17.507 39.2458 19.198C40.2539 20.4942 46.8525 22.8108 48.6389 22.8108C53.0407 22.8108 50.7508 24.4504 55.5031 24.9784C54.4193 26.7848 53.2586 28.6795 52.9742 29.675C52.6412 30.8405 54.2998 33.3376 53.6967 34.3715C53.2317 35.1687 50.9768 37.5147 50.5116 38.1129C49.8264 38.9939 45.6798 41.5633 45.6033 42.2137C48.0302 41.597 48.5236 41.7592 51.2816 41.597C51.6429 42.6808 52.2516 45.2097 52.6129 47.3774C52.6129 48.9198 50.5116 47.536 50.5116 49.1837C50.5116 50.4841 52.2516 52.1454 52.2516 53.519C52.2516 55.5531 54.864 53.519 55.8644 54.2416C55.9995 54.3496 54.7806 56.0479 54.4193 58.2156C52.3182 58.9381 50.8065 60.3832 49.7227 61.467C48.763 61.467 39.3197 59.4321 38.5232 59.2994C37.8142 59.1812 35.2718 62.3702 34.9105 62.9121C34.1879 63.996 34.9105 66.5659 34.5492 66.8862C32.7428 66.5659 31.7666 66.5574 30.2139 67.2474C29.1301 66.5249 26.2399 65.2879 25.1561 64.6871C24.85 64.1361 21.1821 63.996 19.737 64.6871C15.4017 62.5509 13.2341 62.1896 12.1502 59.2994C12.6437 56.3387 14.3721 49.6486 16.1243 47.3774C15.763 45.9323 15.763 44.1259 15.4017 42.3195C14.8109 40.3994 11.2319 36.2944 9.9826 34.7328C8.11035 32.3925 5.48055 30.3975 2.39585 30.3975C1.50067 30.3975 3.49415 29.2317 3.84094 28.2299C4.02203 27.7067 1.69139 27.8934 2.03455 27.5073C2.84071 26.6004 3.01877 24.9346 4.20218 24.9784C5.49762 25.0264 7.73946 25.3443 8.89874 25.701C10.113 26.0746 12.4717 26.8472 13.5953 26.7848C14.7408 26.7211 13.044 22.0882 13.5953 20.6431C13.5953 20.2818 14.6791 19.9206 15.7629 20.2818C16.1242 21.0044 16.7981 22.8108 17.9306 22.8108Z" fill="#F2F2F2"/>
    <path d="M64.1737 63.996C64.4627 63.996 64.2941 62.0692 64.1737 61.1058C64.7517 61.1058 65.6188 63.0326 65.98 63.996V67.2474C65.98 67.5364 64.7758 70.9806 64.1737 72.6665C63.692 72.4257 62.6563 71.8717 62.3673 71.5827C62.0783 71.2937 62.2469 70.4989 62.3673 70.1376L60.5609 66.1636L62.7286 63.996H64.1737Z" fill="#F2F2F2"/>
    <path d="M17.9306 22.8108H21.9046C23.5802 22.8108 24.9933 20.6144 25.8786 19.198C26.6295 17.6963 28.0462 15.8892 28.0462 14.1402C28.0462 12.8211 30.2139 11.9725 31.2977 11.25C35.2718 14.8627 37.9306 17.507 39.2458 19.198C40.2539 20.4942 46.8525 22.8108 48.6389 22.8108C53.0407 22.8108 50.7508 24.4504 55.5031 24.9784C54.4193 26.7848 53.2586 28.6795 52.9742 29.675C52.6412 30.8405 54.2998 33.3376 53.6967 34.3715C53.2317 35.1687 50.9768 37.5147 50.5116 38.1129C49.8264 38.9939 45.6798 41.5633 45.6033 42.2137C48.0302 41.597 48.5236 41.7592 51.2816 41.597C51.6429 42.6808 52.2516 45.2097 52.6129 47.3774C52.6129 48.9198 50.5116 47.536 50.5116 49.1837C50.5116 50.4841 52.2516 52.1454 52.2516 53.519C52.2516 55.5531 54.864 53.519 55.8644 54.2416C55.9995 54.3497 54.7806 56.0479 54.4193 58.2156C52.3182 58.9381 50.8065 60.3832 49.7227 61.4671C48.763 61.4671 39.3197 59.4321 38.5232 59.2994C37.8142 59.1812 35.2718 62.3702 34.9105 62.9121C34.1879 63.996 34.9105 66.5659 34.5492 66.8862C32.7428 66.5659 31.7666 66.5574 30.2139 67.2474C29.1301 66.5249 26.2399 65.2879 25.1561 64.6871C24.85 64.1361 21.1821 63.996 19.737 64.6871C15.4017 62.5509 13.2341 62.1896 12.1502 59.2994C12.6437 56.3387 14.3721 49.6486 16.1243 47.3774C15.763 45.9323 15.763 44.1259 15.4017 42.3195C14.8109 40.3994 11.2319 36.2944 9.9826 34.7328C8.11035 32.3925 5.48055 30.3975 2.39585 30.3975C1.50067 30.3975 3.49415 29.2317 3.84094 28.2299C4.02203 27.7067 1.69139 27.8934 2.03455 27.5073C2.84071 26.6004 3.01877 24.9346 4.20218 24.9784C5.49762 25.0264 7.73946 25.3443 8.89874 25.701C10.113 26.0746 12.4717 26.8472 13.5953 26.7848C14.7408 26.7211 13.044 22.0882 13.5953 20.6431C13.5953 20.2818 14.6791 19.9206 15.7629 20.2818C16.1242 21.0044 16.7981 22.8108 17.9306 22.8108Z" stroke="black" stroke-linecap="round" stroke-linejoin="round"/>
    <path d="M64.1737 63.996C64.4627 63.996 64.2941 62.0692 64.1737 61.1058C64.7517 61.1058 65.6188 63.0326 65.98 63.996V67.2474C65.98 67.5364 64.7758 70.9806 64.1737 72.6665C63.692 72.4257 62.6563 71.8717 62.3673 71.5827C62.0783 71.2937 62.2469 70.4989 62.3673 70.1376L60.5609 66.1636L62.7286 63.996H64.1737Z" stroke="black" stroke-linecap="round" stroke-linejoin="round"/>
    <path d="M59.804 38.4912C67.7521 37.2615 71.0032 29.6748 69.8845 23.5331" stroke="black" stroke-linecap="round"/>
    <path d="M59.0814 36.9004C56.9135 39.7906 58.7999 40.6258 60.888 39.7906" stroke="black" stroke-linecap="round"/>
    <rect x="61.5352" y="11.3398" width="6.87452" height="18.3321" rx="3.43726" transform="rotate(-45 61.5352 11.3398)" fill="white"/>
    <path d="M63.9657 13.7704C62.6233 12.428 62.6233 10.2517 63.9657 8.90933C65.308 7.567 67.4844 7.567 68.8267 8.90933L72.9849 13.0676C72.9849 13.0676 71.0727 13.89 70.1283 14.7862C69.0725 15.7882 68.1239 17.9286 68.1239 17.9286L63.9657 13.7704Z" fill="#999999"/>
    <ellipse cx="66.1714" cy="9.39621" rx="0.887175" ry="0.808069" transform="rotate(-45 66.1714 9.39621)" fill="white"/>
    <path d="M63.2542 11.3486L74.4252 22.5197C73.7091 22.5197 72.9918 22.1802 72.5633 21.8036C72.4004 21.6604 64.0776 13.3537 63.9703 13.2105C63.219 12.2079 63.2542 11.3486 63.2542 11.3486Z" fill="#FAFAFA"/>
    <rect x="61.5352" y="11.3398" width="6.87452" height="18.3321" rx="3.43726" transform="rotate(-45 61.5352 11.3398)" stroke="black" stroke-linecap="round" stroke-linejoin="round"/>
    <path d="M68.1389 17.9134C68.1389 17.9134 69.1827 15.7852 70.2718 14.7852C71.1613 13.9684 72.8987 13.1536 72.8987 13.1536" stroke="black" stroke-linecap="round" stroke-linejoin="round"/>
</svg>
