<svg width="80" height="80" viewBox="0 0 80 80" fill="none" xmlns="http://www.w3.org/2000/svg">
    <path d="M4.66701 61.7668L21.5268 77.8628C21.6423 56.6758 21.5268 14.7526 21.5268 14.7526L4.66699 2.66699L4.66701 61.7668Z" fill="#F2F2F2"/>
    <path d="M57.334 61.7668L74.1938 77.8628C74.3093 56.6758 74.1938 14.7526 74.1938 14.7526L57.334 2.66699L57.334 61.7668Z" fill="#F2F2F2"/>
    <path d="M70.749 28.8427L22.0186 34.33L21.6494 22.9896L23.8644 22.6238L54.8747 20.0631L57.0897 19.6973L70.749 28.8427Z" fill="#F4F4F4"/>
    <path d="M70.749 60.3032L22.0186 65.7904V54L62.6273 55.5475L70.749 60.3032Z" fill="#F4F4F4"/>
    <path d="M54.8742 27.7456V17.5026L34.2302 19.6976V30.1405L54.8742 27.7456Z" fill="#E6E6E6"/>
    <path fill-rule="evenodd" clip-rule="evenodd" d="M34.2302 19.6976L54.8742 17.5026L44.906 10.918L23.8633 12.3812L34.2302 19.6976Z" fill="#F4F4F4"/>
    <path d="M34.2302 30.1405V19.6976L23.8633 12.3812V22.6242L34.2302 30.1405Z" fill="#9E9E9E"/>
    <path fill-rule="evenodd" clip-rule="evenodd" d="M62.2579 45.3054L41.614 47.5003L31.2471 40.184L52.2898 38.7207L62.2579 45.3054Z" fill="#F4F4F4"/>
    <path d="M62.2579 55.5483V45.3054L41.614 47.5003V57.9432L62.2579 55.5483Z" fill="#E6E6E6"/>
    <path d="M41.614 57.9432V47.5003L31.2471 40.184V47.5003L39.5512 56.4476L41.614 57.9432Z" fill="#9E9E9E"/>
    <path d="M39.3696 57.1073V51.2593L27.5732 52.5125V58.4745L39.3696 57.1073Z" fill="#E6E6E6"/>
    <path fill-rule="evenodd" clip-rule="evenodd" d="M27.5732 52.5125L39.3696 51.2593L33.6736 47.5L21.6494 48.3354L27.5732 52.5125Z" fill="#F4F4F4"/>
    <path d="M27.5732 58.4745V52.5125L21.6494 48.3354V54.1833L27.5732 58.4745Z" fill="#9E9E9E"/>
    <path d="M4.66701 61.7668L21.5268 77.8628C21.6423 56.6758 21.5268 14.7526 21.5268 14.7526L4.66699 2.66699L4.66701 61.7668Z" stroke="black" stroke-linecap="round" stroke-linejoin="round"/>
    <path d="M57.0889 61.7668L73.9487 77.8628C74.0642 56.6758 73.9487 14.7526 73.9487 14.7526L57.0889 2.66699L57.0889 19.6977M57.0889 30.6723L57.0889 41.6468" stroke="black" stroke-linecap="round" stroke-linejoin="round"/>
    <path d="M54.8742 17.5026V27.7456L34.2302 30.1405M54.8742 17.5026L34.2302 19.6976M54.8742 17.5026L44.906 10.918L23.8633 12.3812M34.2302 30.1405V19.6976M34.2302 30.1405L23.8633 22.6242V12.3812M34.2302 19.6976L23.8633 12.3812" stroke="black" stroke-linecap="round" stroke-linejoin="round"/>
    <path d="M62.2579 45.3054V55.5483L41.614 57.9432M62.2579 45.3054L41.614 47.5003M62.2579 45.3054L52.2898 38.7207L31.2471 40.184M41.614 57.9432V47.5003M41.614 57.9432L39.5512 56.4476M41.614 47.5003L31.2471 40.184M31.2471 40.184V47.5003" stroke="black" stroke-linecap="round" stroke-linejoin="round"/>
    <path d="M39.3696 51.2593V57.1073L27.5732 58.4745M39.3696 51.2593L27.5732 52.5125M39.3696 51.2593L33.6736 47.5L21.6494 48.3354M27.5732 58.4745V52.5125M27.5732 58.4745L21.6494 54.1833V48.3354M27.5732 52.5125L21.6494 48.3354" stroke="black" stroke-linecap="round" stroke-linejoin="round"/>
    <path d="M22.0186 34.33L70.749 28.8427L57.0897 19.6973L54.8747 20.0631M23.8644 22.6238L21.6494 22.9896" stroke="black" stroke-linecap="round" stroke-linejoin="round"/>
    <path d="M22.0186 65.7908L70.749 60.3035L62.6273 55.5479" stroke="black" stroke-linecap="round" stroke-linejoin="round"/>
</svg>
