<svg width="80" height="80" viewBox="0 0 80 80" fill="none" xmlns="http://www.w3.org/2000/svg">
    <path d="M52.5524 65.6034C52.5524 65.6034 39.5928 66.7665 28.9835 62.068C19.7966 57.9995 8.7141 47.4552 4.47168 41.4993V33.3138L31.0003 30.6673L52.5524 22.334V30.0007L22.3337 43.334C17.667 46.6673 27.3337 52.6673 33.2258 55.233C40.1457 58.2462 52.5524 57.5899 52.5524 57.5899V65.6034Z" fill="#F2F2F2"/>
    <path d="M21.4269 21.5079L2.37988 28.4404L6.89409 40.8431L25.9411 33.9106L21.4269 21.5079Z" fill="#F4F4F4" stroke="black" stroke-linecap="round" stroke-linejoin="round"/>
    <path d="M25.6634 33.1477L25.9411 33.9106L6.89409 40.8431L2.37988 28.4404L4.50866 27.6656L14.648 37.157L25.6634 33.1477Z" fill="#FAFAFA"/>
    <path d="M27.4082 24.8483L23.2002 26.3799L26.1022 34.353L32.3035 32.0959L30.8525 28.1094L29.5698 27.3415L26.6906 28.3894L25.9175 26.2655L28.3538 25.3788L27.4082 24.8483Z" fill="#FAFAFA"/>
    <circle cx="11.2032" cy="40.2783" r="2.82828" transform="rotate(-20 11.2032 40.2783)" fill="#999999"/>
    <circle cx="28.0352" cy="34.1513" r="2.82828" transform="rotate(-20 28.0352 34.1513)" fill="#999999"/>
    <path d="M63.4119 31.0003L61 31.667V19.3337L63.4119 18.667V23.3337L66.7846 22.667V18.0003L69.3333 17.667V29.667L66.7846 30.4804V25.667L63.6667 26.3337L63.4119 31.0003Z" fill="#999999"/>
    <path d="M52.0807 66.0006C52.0807 66.0006 39.1212 66.7665 28.5118 62.068C19.3249 57.9995 8.24242 47.4552 4 41.4993M52.5522 30.334L22.3333 43.0006C17.6667 47.0006 28.5118 53.334 32.7541 55.233C39.6429 58.3167 52.0807 57.5899 52.0807 57.5899M52.3333 22.334L32 30.334" stroke="black" stroke-linecap="round"/>
    <path d="M25.5379 32.8027L23.2002 26.3799L27.1277 24.9504L28.0455 25.5424L25.7717 26.37L26.5902 28.6189L29.8975 27.4151L30.8153 28.0071L32.3035 32.0959L30.6498 32.6978" stroke="black" stroke-linecap="round" stroke-linejoin="round"/>
    <path d="M29.6441 27.5462L27.8159 25.7034L25.7373 26.46L26.5434 28.6747L29.6441 27.5462Z" stroke="black" stroke-linecap="round" stroke-linejoin="round"/>
    <circle cx="11.2032" cy="40.2783" r="2.82828" transform="rotate(-20 11.2032 40.2783)" stroke="black"/>
    <circle cx="28.0352" cy="34.1513" r="2.82828" transform="rotate(-20 28.0352 34.1513)" stroke="black"/>
    <ellipse cx="11.2031" cy="40.2778" rx="1.41414" ry="1.41414" transform="rotate(-20 11.2031 40.2778)" fill="black"/>
    <circle cx="28.0352" cy="34.1518" r="1.41414" transform="rotate(-20 28.0352 34.1518)" fill="black"/>
    <path d="M13.5384 38.4248L25.0552 34.233C25.0552 34.233 24.9653 33.2971 25.3962 32.4137L21.4269 21.5079L2.37988 28.4404L6.89409 40.8431L8.22295 40.3594" stroke="black" stroke-linecap="round" stroke-linejoin="round"/>
    <g opacity="0.3">
        <path d="M63.2401 51.4761V58.3337M63.2401 51.4761L69.5286 49.6223M63.2401 51.4761L61.5764 50.4412M63.2401 58.3337L61.5764 57.3337M63.2401 58.3337L57.626 60.3337M69.5286 49.6223V56.667L74.3028 54.8767M69.5286 49.6223L67.8202 48.667L61.5764 50.4412M57.626 60.3337L56.2197 59.3337M57.626 60.3337V67.0003M74.3028 54.8767V61.2911L69.5286 63.3337V68.667L63.2401 71.0003M74.3028 54.8767L73.0746 54.0578L69.5286 55.3337M57.626 67.0003L56.2197 66.0677V59.3337M57.626 67.0003L63.2401 65.1484V71.0003M63.2401 71.0003L61.5764 69.3584V65.6972M61.5764 57.3337V50.4412M61.5764 57.3337L56.2197 59.3337" stroke="black" stroke-linecap="round" stroke-linejoin="round"/>
        <path d="M74.669 56.3783C74.6341 56.3783 75.4879 56.0371 75.4879 56.0371" stroke="black" stroke-linecap="round" stroke-linejoin="round"/>
        <path d="M74.669 59.7113C74.6341 59.7113 75.4879 59.3701 75.4879 59.3701" stroke="black" stroke-linecap="round" stroke-linejoin="round"/>
        <path d="M75.8294 55.334C75.385 55.334 75.385 56.6673 75.8294 56.6673C76.2739 56.6673 76.2739 55.334 75.8294 55.334Z" stroke="black" stroke-linecap="round" stroke-linejoin="round"/>
        <path d="M75.8294 58.667C75.385 58.667 75.385 60.0003 75.8294 60.0003C76.2739 60.0003 76.2739 58.667 75.8294 58.667Z" stroke="black" stroke-linecap="round" stroke-linejoin="round"/>
        <rect width="2.75" height="7.33333" rx="1.375" transform="matrix(-0.707107 -0.707107 -0.707107 0.707107 69.8867 59.3926)" fill="white"/>
        <path d="M68.9144 60.3648C69.4514 59.8279 69.4514 58.9573 68.9144 58.4203C68.3775 57.8833 67.5069 57.8833 66.9699 58.4203L65.3065 60.0837C65.3065 60.0837 66.0714 60.4127 66.4492 60.7712C66.8716 61.172 67.251 62.0283 67.251 62.0283L68.9144 60.3648Z" fill="#999999"/>
        <rect width="2.75" height="7.33334" rx="1.375" transform="matrix(-0.707107 -0.707107 -0.707107 0.707107 69.8867 59.3926)" stroke="black" stroke-linecap="round" stroke-linejoin="round"/>
        <path d="M67.2452 62.0224C67.2452 62.0224 66.8277 61.1711 66.392 60.771C66.0362 60.4443 65.3412 60.1184 65.3412 60.1184" stroke="black" stroke-linecap="round" stroke-linejoin="round"/>
    </g>
    <rect x="34.667" y="52.0566" width="1.02143" height="25.5357" rx="0.510713" transform="rotate(-45 34.667 52.0566)" fill="black"/>
    <rect x="35.3906" y="70.1133" width="1.02143" height="25.5357" rx="0.510713" transform="rotate(-135 35.3906 70.1133)" fill="black"/>
    <path d="M57.756 16.7113L56.1562 14.6955M57.756 16.7113L72.3073 13.8595M57.756 16.7113L57.77 35.2031M56.1562 14.6955V33.8514L57.77 35.2031M56.1562 14.6955L70.2986 12.1758L72.3073 13.8595M57.77 35.2031L72.3073 31.8435C72.3073 31.8435 72.3073 19.8892 72.3073 13.8595" stroke="black" stroke-linecap="round" stroke-linejoin="round"/>
    <path d="M63.5479 31.0828L60.9336 31.698V19.0876L63.5479 18.5719V23.3936L66.7598 22.7785V18.0554L69.1869 17.5498V29.8526L66.7598 30.4677V25.5466L63.5479 26.1617V31.0828Z" stroke="black" stroke-linecap="round" stroke-linejoin="round"/>
    <path d="M72.6221 27.1254C72.5898 27.1254 73.3776 26.8105 73.3776 26.8105" stroke="black" stroke-linecap="round" stroke-linejoin="round"/>
    <path d="M72.6221 20.3597C72.5898 20.3597 73.3776 20.0449 73.3776 20.0449" stroke="black" stroke-linecap="round" stroke-linejoin="round"/>
    <path d="M73.6933 26.1621C73.2832 26.1621 73.2832 27.3924 73.6933 27.3924C74.1034 27.3924 74.1034 26.1621 73.6933 26.1621Z" stroke="black" stroke-linecap="round" stroke-linejoin="round"/>
    <path d="M73.6933 19.3955C73.2832 19.3955 73.2832 20.6258 73.6933 20.6258C74.1034 20.6258 74.1034 19.3955 73.6933 19.3955Z" stroke="black" stroke-linecap="round" stroke-linejoin="round"/>
</svg>
