<svg width="936" height="450" viewBox="0 0 936 450" fill="none" xmlns="http://www.w3.org/2000/svg">
    <path d="M748.5 214.5C748.1 214.1 740.667 206.667 737.5 203C737.5 203.5 742 221 742.5 234C742.5 246.999 736.501 264.996 735.5 267.999L735.5 268C734.7 270.4 717.5 298 709 311.5C702.666 299.167 689.6 274.1 688 272.5C686 270.5 681.5 262 679.5 241C677.853 223.712 683 214 686.5 210.5L687 202L636.5 230C630.5 232.167 618.3 236.5 617.5 236.5C616.5 236.5 620.5 232 610 242.5C599.5 253 598 284.5 598 285.5C598 286.5 592 324 590 328.5C590.5 333.5 590.5 334 592.5 340.5C591.5 348.5 593 350.5 594.5 351.5C595.5 353 604.5 372.5 613 373C619.8 373.4 627.167 366.167 630 363C631.167 372 633.4 391.4 633 393C632.5 395 626.5 411 625.5 411C624.5 411 645 417.5 672.5 414C694.5 411.2 751 410.833 776.5 411C775.833 408.833 774.1 403.4 772.5 399C770.9 394.6 770.833 390.167 771 388.5C773.333 365 778.1 318 778.5 318C778.9 318 782.667 326.333 784.5 330.5L787.5 342C790.667 344.5 797.1 349.5 797.5 349.5C798 349.5 803 352.5 815.5 354C827.9 352 835.5 335 838.5 328.5C838 327.5 838.5 327 838 325.5C838 314.5 819.5 272 818 267C816.8 263 812.5 263.667 810.5 264.5L813 265.5C814 267 814.5 268 815 269.5C813 273.1 799.5 281 793 284.5L792 282.5L793.5 279L775 236.5L749.5 218C749.333 217 748.9 214.9 748.5 214.5Z" fill="#CCEAD9"/>
    <path d="M715 411.5L704.5 412.5C705.618 411.009 707.113 355.258 707.851 321.912C707.889 320.213 707.924 318.572 707.958 317C707.972 316.32 707.986 315.653 708 315L712.443 314.317L723 308C725.167 305.5 730.8 299.3 736 294.5C741.2 289.7 748.167 278.167 751 273L756 279L740 301C735.667 305.667 724.2 316.2 723 317C722.279 317.481 718.634 319.911 714.537 321.232L715 411.5Z" fill="#99D5B3"/>
    <path d="M774.5 321.5L778 312C778.667 317.167 778 329 776.5 336C774.959 343.191 771 376.5 770 392.5L767.5 357.5C765.167 362.833 749.2 373.8 748 369C746.8 364.2 764.167 344.5 767.5 336L774.5 321.5Z" fill="#99D5B3"/>
    <path d="M788 317C787.2 318.6 783 300.667 781 291.5L779.5 318L783.5 329.5C783.5 330.667 784 334.2 786 339C788 343.8 794.167 348.333 797 350V344.5L790.5 337L791 333V318L789.5 321.5C789.333 319.333 788.8 315.4 788 317Z" fill="#99D5B3"/>
    <path d="M793 284.5L787 288L791.5 278L792.5 279L791.5 282L793 284.5Z" fill="#99D5B3"/>
    <path d="M814.5 269.5C813.833 268.333 812.4 265.9 812 265.5C810 265.5 810.5 265 810.5 264C814.1 262.8 816.667 265.5 817.5 267L814.5 269.5Z" fill="#99D5B3"/>
    <path d="M836.5 328.5C836.974 331.504 824 349 822 348.5C822 347.3 811.667 301.667 806.5 279L816.5 271C824.5 290 835 319 836.5 328.5Z" fill="#99D5B3"/>
    <path d="M759.5 264L750 267L747.5 262L755.5 257.5L750 225.5L758.5 228L759.5 252V264Z" fill="#99D5B3"/>
    <path d="M744.5 266.5L738 261L739 258.5L744.5 263.5L747 262.5L748.5 265.5L744.5 266.5Z" fill="#99D5B3"/>
    <path d="M676.5 267L670 264L672 262L675.5 263.5L682.5 258.5L683.5 262.5L676.5 267Z" fill="#99D5B3"/>
    <path d="M681 212H676.5C677.3 210.8 683.5 205.833 686.5 203.5L685 210.5C685 211.333 681.5 213.5 679.5 222.5C677.743 230.407 678.667 249 681 258.5C681 259.571 679.72 259.605 679.5 259C675.5 248 676.5 242 675.5 232C674.7 224 678.833 215.333 681 212Z" fill="#99D5B3"/>
    <path d="M681 293C679.8 291.8 669.5 280.5 664.5 275C667.5 275 674 283 675.5 283C677 283 679.5 287 688.5 297.5C695.7 305.9 703.833 313 707 315.5C707 316.667 706.5 318.9 704.5 318.5C702.5 318.5 682.5 294.5 681 293Z" fill="#99D5B3"/>
    <path d="M633 242C631.8 242.8 623.167 241 619 240L637 234.5C636.167 236.667 634.2 241.2 633 242Z" fill="#99D5B3"/>
    <path d="M617 235.5H619C618.216 236.167 614.23 240.869 619 248.5C624 256.5 640.101 252.675 641.5 261C648.418 280.126 650.412 307.594 650.765 334.096C656.537 354.561 665.882 374.479 681 386.5C683.5 411.5 653.548 406.555 652 415C637 414 636 413.5 626 411.5C623.782 404.32 632.5 402.5 632 393.5C633.25 385.73 630.903 382.318 630 374.5C629.617 371.183 629.255 367.696 628.913 364.096C624.385 369.051 615.474 372.997 611.5 372.5C608.3 372.1 607.5 369.667 607.5 368.5C608.667 369.333 611.3 370.9 612.5 370.5C613.7 370.1 615 359 615.5 353.5C618.328 353.5 623.373 352.123 627.767 350.697C625.055 315.648 624 276.5 624 276.5C622.667 271.667 619.4 260.9 617 256.5C614.6 252.1 616 240.667 617 235.5Z" fill="#99D5B3"/>
    <path d="M594.5 339.5C595.3 331.9 601.167 328 604 327C604.667 328.833 605.6 332.4 604 332C602 331.5 594.971 337 594.5 339.5Z" fill="#99D5B3"/>
    <path d="M598 339.5C598.8 336.3 601.333 336.5 602.5 337L609 352C605.667 351.667 598.8 350.7 598 349.5C597 348 597 343.5 598 339.5Z" fill="#99D5B3"/>
    <path d="M713.5 245.5C702.7 245.5 686.667 243.167 680 242C679 243.5 684.5 263 685 265.5C685.4 267.5 689.833 276.333 692 280.5L709 311.5C714.5 302.667 727 282.5 733 272.5C740.5 260 743 238.5 741.5 240.5C740 242.5 727 245.5 713.5 245.5Z" fill="#F4F4F4"/>
    <path d="M792 282C792 281.6 792.667 280.167 793 279.5L794.5 280.5L812 266.5L811 264.5L813 265.5C813.5 266.5 814 267.5 815.5 269.5C813.9 272.3 799.833 280.667 793 284.5C792.667 283.833 792 282.4 792 282Z" fill="#F4F4F4"/>
    <path d="M602.5 338.5C601.5 340 601.5 344.5 601.5 345C605.5 350.5 612 353 617 353C621 353 630.333 350 634.5 348.5C634.5 348 634.244 346.3 634.5 343.5C634.756 340.7 633.38 340.333 632.5 340.5C633 342 633 341.5 632.5 343C631.69 345.43 622.833 347.167 619 348C619 348.5 618.5 348.553 618 348.5C610.4 347.7 605.667 342.833 604 340.5L605 335.5C604.5 336 603.3 337.3 602.5 338.5Z" fill="#F4F4F4"/>
    <path d="M686.556 179.603L682.688 176.288C682.688 172.973 679.373 155.844 684.898 123.798C690.424 91.7508 712.525 88.9881 720.813 89.5407C729.101 90.0932 732.628 96.4344 736.496 105.827C740.833 116.36 740.791 127.223 744.019 139.821C746.5 149.5 746.48 165.632 744.5 172C744.684 172.737 742.13 174.628 740.13 177.128C738.63 184.128 737.395 202.5 737.895 205C738.395 207.5 738 210 741.5 220C741.5 224.075 742.142 227.642 742.383 231.589C743.626 231.176 747.603 232.082 750 232.5C752.167 232.833 757.099 233 757.499 233C757.899 233 764.333 235.333 767.499 236.5L770.999 237.5C771.666 237.5 772.899 237.2 772.499 236C771.999 234.5 763.999 230.5 763.499 230.5C762.999 230.5 753.499 225.5 749.999 225C746.499 224.5 741.917 221.5 741.999 218.5C742.053 216.536 750 218.428 754.266 219.444L754.499 219.5L769.499 224.5C768.666 223.5 766.499 221.3 764.499 220.5C761.999 219.5 755.499 216 754.499 213C753.499 210 755.499 209 758.499 210.5C760.899 211.7 772.166 217 777.499 219.5C779.333 220.333 783.299 221.9 784.499 221.5C785.999 221 789.999 225 790.499 225C790.999 225 794.499 226.5 795.499 229.5C796.499 232.5 800.499 240 800.499 241C800.499 242 804.499 250 804.999 252.5C805.499 255 810.999 266.5 811.499 266.5C811.999 266.5 794.745 280.5 793.999 280.5L790.499 275C786.333 272.333 777.499 266.9 775.499 266.5C773.499 266.1 771.999 261.667 771.499 259.5C769.999 257.833 766.699 254.5 765.499 254.5C764.299 254.5 761.999 252.833 760.999 252L751.499 250.5L746.999 247C747.166 246 748.299 244.1 751.499 244.5C754.699 244.9 762.499 246 765.999 246.5L764.499 244.5L756.999 240C755.666 240 752.199 239.6 748.999 238C745.923 236.462 743.439 234.628 742.455 233.181C742.523 235.558 742.406 238.105 741.895 241C735.395 245 721.395 244 711.395 245C698.395 244 686.895 243.5 679.895 241.5C679.395 234.5 680.448 230.947 679.895 228L681.895 219L686.556 210L687.896 203L686.556 179.603Z" fill="#F9CB99"/>
    <path d="M604.999 333.5C604.666 335.5 603.9 339.3 603.5 340.5C604.3 344.1 613.333 347.833 618 349C618 348.5 619 348 619 348C619 348 630 346 633 343L632.5 336C633.667 334.333 636.7 331.6 637.5 330C638.5 328 642.5 316.5 643 315C643.5 313.5 647.5 298 647.5 297.5V293C647.5 291 644.666 286 643 284L640.5 283C640.667 281.833 639.5 279.5 638 276.5C634 273.5 633 277 632.5 278.5C632 280 636.5 288.5 637 289C637.5 289.5 637 295 636.5 295.5C636 296 636 299 635.5 300C635 301 633 300.5 632.5 300C632 299.5 631.5 289.5 632 289C632.5 288.5 631 282 631.5 280.5C632 279 631 268 627.5 268.5C624 269 623.5 278.5 624 280.5C624.275 281.598 624.166 293.167 623.5 299C622.833 299.5 620.9 300.3 620.5 299.5C620 298.5 620 291.5 621 288.5C622 285.5 623 278.5 622.5 274.5C621.5 271 617 272 616.5 275C616.1 277.4 612.667 289.667 611 295.5C609.833 300 609 301.5 608 302.5C609 296 606.5 287.5 604.999 287.5C603.499 287.5 601.499 299.5 599.999 301.5C598.5 303.499 598.5 308.496 598.5 308.999V309C598.5 309.5 601.499 320 601.499 322C601.499 323.6 603.833 330.333 604.999 333.5Z" fill="#F9CB99"/>
    <path d="M714.183 151.424C711.187 147.145 716.236 132.507 719.402 125.061C719.493 124.787 719.595 124.548 719.708 124.35C720.26 124.35 733.521 119.377 740.152 123.245C745.456 126.339 739.046 127.113 735.179 127.113C731.311 126.56 722.913 126.671 720.26 131.533C719.743 131.533 718.717 131.312 718.749 130.428C718.62 135.593 719.227 142.483 719.708 146.451L722.63 149.628L721.918 153.082C720.629 154.371 717.277 155.844 714.183 151.424Z" fill="#E0AC69"/>
    <path d="M726.338 140.926C725.012 140.926 721.734 137.611 720.26 135.953C723.699 137.279 733.112 136.874 737.389 136.506C734.258 137.979 727.664 140.926 726.338 140.926Z" fill="#E0AC69"/>
    <path d="M695.949 140.926C697.975 139.637 702.027 136.948 702.027 136.506C702.027 136.064 700.185 132.27 699.264 130.428L689.571 127.197C689.997 135.057 689.319 133.191 689.319 133.191L684.899 135.953L690.424 137.611C689.536 151.288 688.305 178.463 690.201 181.569C690.928 182.104 691.14 182.243 690.424 181.813C690.345 181.766 690.271 181.684 690.201 181.569C689.749 181.237 689.75 181.596 689 181C687.233 179.595 684.262 176.728 682.688 174.63C682.504 154.739 684.125 113.189 692.081 106.117C702.027 97.2762 698.16 90.6458 719.708 89.5408C709.21 95.6186 688.435 110.868 689.319 123.245C689.376 124.047 689.426 124.787 689.469 125.47C693.712 124.937 699.339 124.664 702.027 126.008C706.447 128.218 707 139.268 705.342 140.926C703.685 142.584 705.342 148.661 704.237 148.661C703.353 148.661 702.395 143.505 702.027 140.926H695.949Z" fill="#E0AC69"/>
    <path d="M707.552 147.004C706.668 148.33 707.921 151.608 708.657 153.082C705.563 152.198 705.158 150.872 705.342 150.319L707.552 147.004Z" fill="#E0AC69"/>
    <path d="M712.525 158.054C711.641 158.054 709.578 156.949 708.657 156.397C709.541 156.397 714.919 155.66 717.498 155.292C716.209 156.213 713.409 158.054 712.525 158.054Z" fill="#E0AC69"/>
    <path d="M693.186 167.447C693.186 165.679 695.765 160.449 697.054 158.054C697.054 156.397 698.159 154.739 695.949 156.949C691.494 161.404 693.186 169.658 693.186 167.447Z" fill="#E0AC69"/>
    <path d="M687.109 180.156C687.199 180.246 687.595 180.658 688.203 181.291C688.45 181.512 688.717 181.733 689.001 181.954C695.388 186.921 710.553 191.759 712.525 191.759C714.735 191.759 729.653 185.128 740.152 177.393C735.289 185.349 735.547 199.494 736.284 205.572L724.602 209L727.996 191.759C726.707 196.363 723.686 205.904 721.918 207.23C720.15 208.556 706.079 198.205 699.264 192.864C696.511 189.979 691.74 184.984 689.061 182.187C688.743 181.855 688.455 181.554 688.203 181.291C687.778 180.912 687.41 180.532 687.109 180.156Z" fill="#E0AC69"/>
    <path d="M713.396 234L725.396 207.23C726.501 205.94 729.164 206.348 727.396 209C725.627 211.652 722.422 226.343 723.896 231.5L713.396 234Z" fill="#E0AC69"/>
    <path d="M710.315 232.646C707.663 233.53 706.263 227.121 705.895 223.806C706.816 225.095 708.989 227.784 710.315 228.226C711.641 228.668 714.919 225.463 716.393 223.806C715.472 226.384 712.967 231.762 710.315 232.646Z" fill="#E0AC69"/>
    <path d="M719.473 170.998C715.505 173.954 710.11 173.155 707.383 172.228C708.967 173.078 712.496 176 713.396 176C714.448 176 716.711 174.498 719.473 170.998Z" fill="#E0AC69"/>
    <path d="M712.525 190C719.85 186.123 733.5 177.496 735.5 176C737.5 174.504 743.667 168.71 745.5 166.5L745 170C743.667 172.036 739.9 176.887 735.5 180C730 183.892 715.05 191 712.525 190Z" fill="#E0AC69"/>
    <path d="M733 169C732.5 167.5 737 165.4 737 165C737 164.5 738.5 163.5 739 163.5C739.4 163.5 743.833 160.167 746 158.5V160L739.5 164.5V166.5C739.5 167 739 168.5 737 169.5C735 170.5 734.814 171 733 169Z" fill="#E0AC69"/>
    <path d="M718.5 239C724.5 238.5 736.9 237.3 738.5 236.5C740.1 235.7 740.167 236.833 740 237.5C737.167 238.667 729.1 240.9 719.5 240.5C717 240.396 714.833 239.333 718.5 239Z" fill="#E0AC69"/>
    <path d="M681 235.5C681.313 235.657 682.514 236.058 684.169 236.521C687.801 237.536 693.62 238.843 697.054 238.5C702.054 238 703 237.5 703.5 238.5C704 239.5 704 240.5 702.5 240.5C701 240.5 697.193 241 694.5 241C692.459 241 687.41 240.306 684.075 238.603C682.508 237.802 681.32 236.779 681 235.5Z" fill="#E0AC69"/>
    <path d="M687.109 180.156C687.199 180.246 687.595 180.658 688.203 181.291C688.45 181.512 688.717 181.733 689.001 181.954C688.815 181.259 689.25 181.498 689 181L686.5 179.5C687.906 185.167 688.987 198.9 686.5 210.5C682.5 217 682 217.5 681 221C680 224.5 679 238.5 680 241.5C681.5 242 682 242.5 684 242.5C683.978 241.765 684.005 240.381 684.075 238.603C682.508 237.802 681.32 236.779 681 235.5C681.313 235.657 682.514 236.058 684.169 236.521C684.584 228.234 689.006 215.433 690.424 214.5C692.158 213.358 691.254 190.948 689.061 182.187C688.743 181.855 688.455 181.554 688.203 181.291C687.778 180.912 687.41 180.532 687.109 180.156Z" fill="#E0AC69"/>
    <path d="M793 272.5C792.5 273 791 273.6 789 272C787 270.4 779.833 266.667 776.5 265C774.833 263.5 772 260.3 774 259.5C776.5 258.5 792 270 793 272.5Z" fill="#E0AC69"/>
    <path d="M794.5 272C795.333 272.333 797 273.3 797 274.5C797 275.7 796.333 277 796 277.5L794.5 272Z" fill="#E0AC69"/>
    <path d="M780 230C780.8 231.2 783 232.264 784 232.646C783.833 231.162 782.8 227.756 780 226C777.2 224.244 770.5 221.935 767.5 221H766C767.333 221.537 770.1 222.85 770.5 223.806C771 225 779.5 227.5 780 230Z" fill="#E0AC69"/>
    <path d="M795 234.5C794.5 232.667 793.3 228.8 792.5 228C791.5 227 786 223 784 223C782 223 793 228.5 795 234.5Z" fill="#E0AC69"/>
    <path d="M772 237.5L775 239C776 239.5 779 241 777.5 239C776.3 237.4 774 236.667 773 236.5L772 237.5Z" fill="#E0AC69"/>
    <path d="M772 249.5C773.333 249.667 775.4 249.4 773 247C770.6 244.6 764 240.667 761 239H758C758 239.667 758.2 241 759 241C759.8 241 764 244.333 766 246L772 249.5Z" fill="#E0AC69"/>
    <path d="M758 251.5C759 251.5 761.1 251.2 761.5 250C762 248.5 761.5 250 763 251.5C764.2 252.7 767.167 254.333 768.5 255C768.833 255.667 769.4 257 769 257C768.6 257 763.833 254 761.5 252.5L758 251.5Z" fill="#E0AC69"/>
    <path d="M761.5 229.5C763 229 765 228.583 767 229.5C769 230.417 774.5 233.5 776 235L777.5 239C774.333 237.5 764.3 231.5 761.5 229.5Z" fill="#E0AC69"/>
    <path d="M641.5 284C643.5 285.5 647.5 290.5 648 294C647.5 298 646.167 305.333 645 308.5L638 328.5C638 328.5 632.5 336.5 629 338.5C629.091 340.784 629 345 629 345C626.167 346.333 622.7 348 619.5 348C618.5 348 617.167 348.167 618 348.5C613.334 346.833 606.201 345.2 607 344C607.8 342.8 609.5 341 610 338.5C608.5 334 603.2 322.9 604 322.5C605 322 600 309.5 611.5 313C615 314.5 614.5 316 619.5 314.5C624.5 313 624.5 314.5 626.5 315.5C628.5 316.5 630.5 315.5 633.5 315.5C634.914 315.5 638.5 318 640.5 316C642.1 314.4 644.333 311 644 310C645.667 304 648.5 294 645.5 291.5C642.939 289.366 642.5 286.167 641.5 284Z" fill="#E0AC69"/>
    <path d="M606 315C604.5 312.5 603.5 308 604.5 304.5C605.3 301.7 605.333 297.333 606 295.5C606.5 294.333 607.6 292.4 608 294C608.4 295.6 608.333 300.667 608.5 303C607.166 305.667 605.2 311.8 606 315Z" fill="#E0AC69"/>
    <path d="M621 299.5H623.5C623.334 301.167 622.8 304.5 622 304.5C621.2 304.5 621 301.167 621 299.5Z" fill="#E0AC69"/>
    <path d="M632.5 300C633 300 634 301 635.5 300.5C637 300 635 306.5 634.5 306C634.1 305.6 633 301.833 632.5 300Z" fill="#E0AC69"/>
    <path d="M626 286.5C626.834 285.5 629 284 631 286C633.5 288.5 629.707 271.707 629 271C628 270 628 269.5 626.5 271C625.3 272.2 625.667 281.833 626 286.5Z" fill="#E0AC69"/>
    <path d="M640.5 291L643.5 290L638.5 278C637.334 276.333 635.917 276 635.5 278.5C635.083 281 638.5 288.833 640.5 291Z" fill="#E0AC69"/>
    <path d="M615.5 286.5C617.167 285.667 620.6 284.5 621 286.5C621.5 289 622.633 277.265 622 276C621.5 275 622 274 621 273.5C619.659 272.829 618.5 275 618 276C617.6 276.8 616.167 283.333 615.5 286.5Z" fill="#E0AC69"/>
    <path d="M612.5 311C612.667 311.667 613.6 313 616 313C619 313 620 312.5 621 312.5C623.5 312.5 625.5 313 628 314H633.5C634 314 640 316 640 314.5C640 313 638.5 313 638 313C637.5 313 635 312.5 633.5 312.5C632 312.5 632 313.5 629 312.5C626 311.5 626.5 311 624.5 311C622.5 311 617.501 312 615.5 311.5C613.5 311 613.5 310.5 612.5 311Z" fill="#E0AC69"/>
    <path d="M685.451 135.953L691.529 133.191C690.644 134.075 691.897 136.137 692.634 137.058L685.451 135.953Z" fill="white"/>
    <path d="M697.054 137.058C697.938 135.29 697.422 133.743 697.054 133.191C697.938 133.191 700.737 135.032 702.027 135.953C700.001 137.058 699.816 135.953 697.054 137.058Z" fill="white"/>
    <path d="M725.785 130.981L720.813 134.296H726.89C726.006 134.296 725.785 132.086 725.785 130.981Z" fill="white"/>
    <path d="M731.311 134.296L732.416 130.428L736.836 132.086L731.311 134.296Z" fill="white"/>
    <path d="M713.895 169C712.295 169 703.228 167 698.895 166C700.495 165.6 708.895 165.833 712.895 166C714.395 165.667 717.595 165 718.395 165H721.395C722.395 165 727.395 163 727.395 163.5C727.395 164 715.895 169 713.895 169Z" fill="white"/>
    <path d="M693.739 137.058C691.529 137.058 691.344 134.111 691.529 132.638C692.634 132.638 697.606 131.533 697.606 133.191C697.606 134.848 696.501 137.058 693.739 137.058Z" fill="#CCEAD9"/>
    <path d="M728.548 134.296C726.78 134.296 725.97 132.085 725.785 130.98C727.627 130.06 731.421 128.66 731.863 130.428C732.416 132.638 730.758 134.296 728.548 134.296Z" fill="#CCEAD9"/>
    <path d="M700.13 165.128C706.13 161.128 713.548 161.356 713.548 162.093C719.737 159.44 725.741 162.628 729.13 162.628L722.63 164.628L714.13 165.628C704.921 166.733 705.63 165.628 700.13 165.128Z" fill="#FACCDA"/>
    <path d="M712.499 173C706.899 172.6 700.166 167.919 697.499 165.628C700.999 165.256 707.499 169.5 714.13 169C719.435 168.6 724.92 165.167 726.999 163.5L729.999 162.628C726.499 166.252 718.099 173.4 712.499 173Z" fill="#FACCDA"/>
    <path d="M721.14 124.5L719.14 123C720.798 123 730.507 116.984 736.762 121.61C730.684 121.61 724.455 122.658 721.14 124.5Z" fill="#333333"/>
    <path d="M686.689 124.435C697.739 120.898 702.078 123.916 702.631 125.942C700.398 125.377 693.881 124.146 686.689 125.942C686.478 126.362 685.928 126.405 685.518 126.235C682.183 143.43 682.578 162.773 682.831 175.147L682.835 175.367L686.511 179.325L687.412 202.155L677.814 211.133C675.604 219.421 670.902 226.601 667.587 229.917C654.006 238.188 639.118 233.575 635.434 228.602C634.321 228.602 629.145 222.069 631.895 223.243C640.896 227.086 641.709 223.794 644.028 218.188C658.047 163.577 652.481 101.978 687.374 77.6521C705.041 66.6684 717.508 69.3933 718.152 74.189C734.955 63.1804 745.651 80.0324 752.48 97.0512C757.121 108.619 762.106 127.423 764.6 147C767.894 172.85 768.332 200.282 772.6 216.5C767.6 216.5 753.876 207.348 754.1 210.5C754.668 218.494 769.341 222.24 770.245 224.5C761.245 222.5 758.245 219.5 749.245 219C748.245 216 748.745 215 747.245 214C743.314 209.171 740.709 206.11 737.5 202.5C737.5 194.943 739.5 183 740.101 177C742.864 172.58 743.464 172.762 744.101 171.5C745.904 165.129 746.124 153.211 745.39 148.256C743.5 140.5 743.588 142.294 739.721 114.667C732.206 91.2402 723.473 87.6944 720.157 89.352C699.344 88.1794 689.954 104.843 685.808 124.789C686.039 124.669 686.33 124.55 686.689 124.435Z" fill="#333333"/>
    <path d="M737.5 160.5C738.3 160.5 743.167 155.5 745.5 153C746 153.207 746 156 745.5 157C745.1 157.8 740.333 160.333 738 161.5C737.833 162.167 737.5 163.6 737.5 164C737.5 164.5 733.5 167.5 733 167.5C732.5 167.5 731 166 731.5 165C732 164 736.5 160.5 737.5 160.5Z" fill="#999999"/>
    <path d="M684.198 136.061C687.121 134.6 690.357 132.061 693.738 132.061C697.195 132.061 699.542 133.733 701.739 136.369" stroke="black" stroke-linecap="round" stroke-linejoin="round"/>
    <path d="M697.123 132.984C697.123 134.59 697.221 135.451 696.2 136.677" stroke="black" stroke-linecap="round" stroke-linejoin="round"/>
    <path d="M690.968 132.676C690.685 134.702 690.938 136.046 692.815 136.985" stroke="black" stroke-linecap="round" stroke-linejoin="round"/>
    <path d="M702.047 132.369C699.735 130.669 697.61 129.373 694.661 129.291C692.308 129.226 689.42 129.607 687.583 131.138" stroke="black" stroke-linecap="round" stroke-linejoin="round"/>
    <path d="M694.18 134.278C694.489 133.969 694.184 133.737 694.005 133.743M694.18 134.278C693.802 133.9 693.865 133.748 694.005 133.743M694.18 134.278L694.005 133.743" stroke="black" stroke-linecap="round" stroke-linejoin="round"/>
    <path d="M728.437 132.068C728.746 131.759 728.441 131.527 728.262 131.533M728.437 132.068C728.059 131.69 728.122 131.538 728.262 131.533M728.437 132.068L728.262 131.533" stroke="black" stroke-linecap="round" stroke-linejoin="round"/>
    <path d="M719.587 134.215C722.881 132.502 724.858 130.28 728.819 129.907C730.376 129.76 731.571 129.714 732.82 130.061C734.383 130.495 735.375 131.579 736.82 132.061" stroke="black" stroke-linecap="round" stroke-linejoin="round"/>
    <path d="M725.127 130.83C725.433 132.219 725.127 133.375 726.679 134.142" stroke="black" stroke-linecap="round" stroke-linejoin="round"/>
    <path d="M731.589 130.215C731.564 131.475 732.05 132.608 730.363 133.743" stroke="black" stroke-linecap="round" stroke-linejoin="round"/>
    <path d="M719.895 131.138C722.237 129.416 724.771 127.766 727.588 126.983C730.058 126.297 732.214 127.137 734.666 127.137" stroke="black" stroke-linecap="round" stroke-linejoin="round"/>
    <path d="M718.972 123.444C720.895 125.198 722.765 123.799 724.819 122.829C726.257 122.15 728.187 121.704 729.743 121.359C733.09 120.615 736.516 120.984 739.59 122.521" stroke="black" stroke-linecap="round" stroke-linejoin="round"/>
    <path d="M718.664 123.137C722.432 121.253 725.702 120.41 729.743 119.512C733.68 118.637 736.509 121.25 739.898 122.521" stroke="black" stroke-linecap="round" stroke-linejoin="round"/>
    <path d="M685.055 126.008C688.292 124.929 690.948 124.675 694.353 124.675C695.797 124.675 697.572 125.019 698.969 125.359C699.685 125.533 703.692 126.656 701.705 124.385C699.912 122.336 695.567 122.829 693.122 122.829C689.728 122.829 688.002 123.219 685.055 124.903" stroke="black" stroke-linecap="round" stroke-linejoin="round"/>
    <path d="M703.585 129.291C706.047 132.64 706.686 137.246 704.816 140.985" stroke="black" stroke-linecap="round" stroke-linejoin="round"/>
    <path d="M718.049 126.214C715.168 133.375 712.865 139.514 714.401 147.188" stroke="black" stroke-linecap="round" stroke-linejoin="round"/>
    <path d="M710.971 155.756C712.29 155.756 713.183 155.727 714.356 155.141" stroke="black" stroke-linecap="round" stroke-linejoin="round"/>
    <path d="M719.895 153.91C723.813 151.831 721.861 150.042 720.203 147.14" stroke="black" stroke-linecap="round" stroke-linejoin="round"/>
    <path d="M702.97 148.678C701.107 150.598 700.059 153.685 702.97 155.141" stroke="black" stroke-linecap="round" stroke-linejoin="round"/>
    <path d="M696.659 165.237C702.201 165.237 708.52 166.445 714.031 165.894C715.174 165.78 716.314 165.305 717.434 165.057C718.725 164.77 720.127 164.903 721.434 164.612C723.847 164.076 726.927 163.252 729.258 162.475" stroke="black" stroke-linecap="round" stroke-linejoin="round"/>
    <path d="M712.682 161.922C709.835 161.467 706.58 161.926 703.893 162.971C701.781 163.793 699.021 165.238 696.659 165.238" stroke="black" stroke-linecap="round" stroke-linejoin="round"/>
    <path d="M712.817 162.219C715.617 161.012 718.699 160.466 721.742 161.227C724.296 161.866 726.485 162.526 729.127 162.526" stroke="black" stroke-linecap="round" stroke-linejoin="round"/>
    <path d="M682.293 175.183C685.66 179.457 694.919 186.12 699.961 188.068C704.404 189.785 709.795 191.86 714.596 190.769C722.435 188.988 730.458 184.4 736.821 179.452C738.868 177.859 742.747 173.459 744.176 171.315" stroke="black" stroke-linecap="round" stroke-linejoin="round"/>
    <path d="M668.611 118.521C662.137 157.178 663.602 187.852 662.137 200.504C660.672 213.156 657.396 221.68 645.789 224.98C634.181 228.28 629.018 219.972 631.241 223.784C634.663 229.65 642.058 234.228 648.809 234.228H648.933C656.105 234.228 664.182 234.229 669.12 227.92C673.679 222.093 675.77 216.527 677.456 209.407C679.11 202.426 680.697 192.308 681.319 185.162C682.034 176.938 682.352 169.498 682.352 161.227C682.352 146.973 682.688 132.332 686.421 118.521C688.351 111.379 692.89 103.475 697.875 98.0905C703.99 91.4869 711.415 89.2215 719.865 89.4227C720.816 89.4452 724.015 88.8689 728.05 92.2265C734.539 99.2789 737.749 108.263 739.744 117.444C740.881 122.672 741.03 127.975 741.984 133.223C742.986 138.736 745.145 144.67 745.437 150.217C746.437 169.207 741.977 182.385 737.676 200.07" stroke="black" stroke-linecap="round" stroke-linejoin="round"/>
    <path d="M637.835 225.433C641.809 224.466 644.172 217.814 645.245 213.984C657.424 170.487 649.158 70.1016 712.501 70.1016C714.86 70.1016 717.027 71.6741 717.891 74.028C751.888 53.3189 763.351 137.061 765.046 155.704C767.109 178.391 768.291 205.617 772 217" stroke="black" stroke-linecap="round" stroke-linejoin="round"/>
    <path d="M728.001 191.521C724.952 198 723.113 205.291 720.534 212.008C718.037 218.512 715.933 224.926 712.461 231.002" stroke="black" stroke-linecap="round" stroke-linejoin="round"/>
    <path d="M698.601 191.941C698.891 204.703 704.539 216.593 707.001 228.902" stroke="black" stroke-linecap="round" stroke-linejoin="round"/>
    <path d="M685.907 179.603C686.496 183.289 686.84 188.428 686.84 192.151C686.84 198.353 687.32 203.894 686 210" stroke="black" stroke-linecap="round" stroke-linejoin="round"/>
    <path d="M677.586 210.422C680.945 207.783 683.932 204.911 686.893 201.869" stroke="black" stroke-linecap="round" stroke-linejoin="round"/>
    <path d="M739.756 176.841C737.932 193.767 736.499 200 739 211.5" stroke="black" stroke-linecap="round" stroke-linejoin="round"/>
    <path d="M719.604 170.628C715.604 173.628 710.846 173.375 707.104 172.128" stroke="black" stroke-linecap="round" stroke-linejoin="round"/>
    <path d="M717 235.5C717 239.5 730.499 235.5 739.499 234.5" stroke="black" stroke-linecap="round" stroke-linejoin="round"/>
    <path d="M703.595 235.264C701 239.5 686.5 236.5 680.5 234" stroke="black" stroke-linecap="round" stroke-linejoin="round"/>
    <path d="M617.5 236.5C614.488 240.718 615.09 248.287 615.835 252.982C616.87 259.5 620.5 264 623.5 275.5" stroke="black" stroke-linecap="round" stroke-linejoin="round"/>
    <path d="M738.499 208C743.499 226 744.499 248.5 734.499 268.5C724.499 288.5 711.186 305.53 708.499 311.5C703.856 321.818 709.845 401.809 705 411.5" stroke="black" stroke-linecap="round"/>
    <path d="M685.999 210.5C672 228.5 683.451 265.078 685.999 269.5C691.026 278.225 704.79 302.317 708 311.5C709.888 316.904 704.5 403.5 704.5 412" stroke="black" stroke-linecap="round"/>
    <path d="M780.5 291.5C780.5 297.527 777.863 317.661 774.675 322.798C772.008 327.095 769.648 331.291 768 336" stroke="black" stroke-linecap="round"/>
    <path d="M778.5 310.5C778 324 774 356 772 372C771 380 770.5 384.544 770.5 390C770.5 396.107 774.999 404.498 775.999 410.5" stroke="black" stroke-linecap="round"/>
    <path d="M629.5 363C629.5 371 631.172 380 632.005 387.5C633.323 399.361 628 401.5 625 410.5" stroke="black" stroke-linecap="round"/>
    <path d="M617.42 236.217C622.666 234.434 631.062 231.969 636 229.5" stroke="black" stroke-linecap="round"/>
    <path d="M745.692 152.366C744.176 154.125 742.578 155.777 740.722 157.169C739.383 158.173 738.207 159.446 736.832 160.363" stroke="black" stroke-linecap="round"/>
    <path d="M736.399 160.795C738.289 162.024 737.45 163.748 735.967 164.901C735.317 165.407 732.893 167.988 732.077 167.615C731.573 167.384 731.013 166.296 730.924 165.766C730.823 165.157 732.288 164.275 732.713 163.929C734.046 162.846 735.055 161.792 736.616 161.011" stroke="black" stroke-linecap="round"/>
    <path d="M730.996 165.55C730.782 163.801 732.085 163.436 733.206 162.356C734.019 161.571 735.068 160.765 736.183 160.579" stroke="black" stroke-linecap="round"/>
    <path d="M737.696 161.876C739.154 160.695 740.764 159.777 742.234 158.634C743.35 157.766 745.019 156.98 745.476 155.608" stroke="black" stroke-linecap="round"/>
    <path d="M697 165.5C701.5 166.5 707.192 168.355 711.964 168.886C716.208 169.357 723.637 165.742 727 163.5" stroke="black" stroke-linecap="round"/>
    <path d="M794.5 234C792.227 230.515 787.5 226.24 784 223.5C777.5 219.5 775.828 219.148 770.299 216.384C768.729 215.599 754.82 208.379 754.168 210.335C752.985 213.884 756.268 215.855 758.573 217.532C762.058 220.066 766.192 221.165 769.5 224" stroke="black" stroke-linecap="round"/>
    <path d="M780 230.5C775.757 226.257 771.248 224.81 765.553 223.084C762.57 222.18 759.5 221 756 220C752.5 219 751.45 219.112 749 218.5C747.733 218.183 743.5 217 741.999 218C740.612 221.251 745.53 224.062 747.5 224.5C755.5 227 753.5 226 763 230.5C766.639 232.944 769 234.5 774 237" stroke="black" stroke-linecap="round"/>
    <path d="M805 253.5C806.363 257.761 808.58 262.37 811 266" stroke="black" stroke-linecap="round"/>
    <path d="M810.223 264.053C809.976 263.929 809.676 264.029 809.552 264.276C809.429 264.523 809.529 264.824 809.776 264.947L810.223 264.053ZM812.5 265.5L812.832 265.874C812.956 265.763 813.017 265.599 812.995 265.434C812.973 265.27 812.872 265.127 812.723 265.053L812.5 265.5ZM791.751 281.894C791.542 282.074 791.517 282.39 791.697 282.599C791.877 282.809 792.192 282.833 792.402 282.654L791.751 281.894ZM809.776 264.947C810.31 265.214 810.713 265.348 811.091 265.474C811.463 265.598 811.81 265.714 812.276 265.947L812.723 265.053C812.189 264.786 811.786 264.652 811.408 264.526C811.036 264.402 810.689 264.286 810.223 264.053L809.776 264.947ZM812.167 265.126C810.238 266.841 806.136 270.175 802.007 273.516C797.887 276.849 793.743 280.187 791.751 281.894L792.402 282.654C794.379 280.959 798.506 277.634 802.636 274.294C806.755 270.96 810.88 267.608 812.832 265.874L812.167 265.126Z" fill="black"/>
    <path d="M790.5 318C787.945 321.548 783.337 338.534 790.149 336" stroke="black" stroke-linecap="round"/>
    <path d="M837.999 328C835.963 336.824 824.896 354 814 354C810.203 354 806.287 352.131 802.499 351.5C797.293 350.343 788.345 345.15 786.5 340C782.789 329.641 783.999 323.5 790.5 312.5" stroke="black" stroke-linecap="round"/>
    <path d="M784.5 332.5C783.5 329.5 781.413 322.662 778.5 318" stroke="black" stroke-linecap="round"/>
    <path d="M738 203C742 206.5 744.47 212.549 747.5 214.5" stroke="black" stroke-linecap="round"/>
    <path d="M625.944 285.631C627.933 284.573 628.787 284.135 630.238 285.848" stroke="black" stroke-linecap="round"/>
    <path d="M622.5 301.5C623.5 296.5 623.804 290.89 623.82 286.618C623.836 282.346 623.644 278.684 624.129 274.238C623.549 270.005 627.728 265.842 629.617 270.937C631.134 275.028 631.162 279.63 631.877 283.631C632.958 289.674 631 295 632.5 302" stroke="black" stroke-linecap="round"/>
    <path d="M641.071 290.628C647 288.5 644.544 294.627 643.802 298.376C643.035 302.252 642.548 306.456 640.58 309.885" stroke="black" stroke-linecap="round"/>
    <path d="M810 264.237C813.5 263.737 816.5 263.737 817.5 267.237C821.76 279.556 836.5 307.5 838 328" stroke="black" stroke-linecap="round"/>
    <path d="M787 288C791.5 303 791.5 326 790 331.5C788.5 337 797 344.5 797 344.5" stroke="black" stroke-linecap="round"/>
    <path d="M771 260C772.415 263.413 773.548 265.496 777.03 267.238C779.144 268.294 781.202 269.591 783.242 270.797C785.533 272.151 787.59 273.311 789.658 274.991C791.552 276.53 791.96 278.652 793.5 280.5" stroke="black" stroke-linecap="round"/>
    <path d="M770.91 259.688C767.872 255.31 764.845 254.987 760.709 252C759.992 251.483 753.5 251 750.5 250C747.858 248.199 745.755 246.856 747 245.61C747.5 244.386 753.131 244.028 754.565 244.386C756.557 244.884 758.26 245 760.709 245.61C763.157 246.221 765 245.61 770.91 249" stroke="black" stroke-linecap="round"/>
    <path d="M774 239C768.503 236.252 763.553 235.608 757.852 233.391C755.731 232.566 752.367 232.348 750.099 232.348C749.024 232.348 742.609 230.825 742.21 231.623C740.965 234.112 746.059 237.061 747.651 237.857C749.996 239.03 752.385 239.927 755 240C758.156 240.088 760.196 242.598 763 244C764.5 244.75 765 246 767 247" stroke="black" stroke-linecap="round"/>
    <path d="M777 219.5C778.082 220.02 780.073 220.826 781.238 221.152C782.227 221.429 783.294 221.327 784.276 221.698C785.83 222.285 789.007 224.295 790.5 225C794.397 226.841 794.985 229.214 796.5 233C797.253 234.884 797.979 236.438 799.018 238.197C799.889 239.67 800.238 241.52 800.989 243.063C802.691 246.563 803.933 250.03 805.048 253.746" stroke="black" stroke-linecap="round"/>
    <path d="M817 267.5C811.92 272.729 803.748 278.285 797.44 281.948C795.486 283.082 793.593 284.308 791.588 285.366C790.731 285.818 789.9 286.401 789.072 286.909C788.643 287.172 787.315 288.222 787.315 287.503" stroke="black" stroke-linecap="round"/>
    <path d="M787.046 287.656C787.916 285.383 790.327 280.131 791.5 278" stroke="black" stroke-linecap="round"/>
    <path d="M792.499 284.5C792 284 792 283.5 791.499 282.5C790.999 281.5 791.999 280.5 792.475 279.488" stroke="black" stroke-linecap="round"/>
    <path d="M812.559 265.455C812.729 266.108 813.07 266.656 813.419 267.229C813.658 267.622 813.853 268.04 814.096 268.43C814.322 268.792 814.466 269.233 814.691 269.571" stroke="black" stroke-linecap="round"/>
    <path d="M750.833 232.354C749.831 230.266 749.503 227.439 749.503 225.115" stroke="black" stroke-linecap="round"/>
    <path d="M748.617 218.171C748.168 217.077 745.5 200 746.499 191" stroke="black" stroke-linecap="round"/>
    <path d="M620.666 239.803C623.995 238.693 631.5 237 636 234.5" stroke="black" stroke-linecap="round"/>
    <path d="M679.5 241.5C685 244.166 703.17 244.806 709.78 244.988C714.167 245.108 739.296 245.407 742 240" stroke="black" stroke-linecap="round"/>
    <path d="M682 259C680.395 260.276 678.153 261.644 676.45 262.717C675.937 263.04 675.631 263.288 675.167 263.093C672.334 261.905 668 258.5 665.544 257.85C664.673 250.784 663.959 244.012 664.504 236.923C664.625 235.353 664.5 233 665 231.5" stroke="black" stroke-linecap="round"/>
    <path d="M739.009 258.248C740.697 259.887 742.43 261.982 744.451 263.226C746 263 754.5 260 755.5 257.5C755.127 255.345 754.5 253.182 754.5 251" stroke="black" stroke-linecap="round" stroke-linejoin="round"/>
    <path d="M753.5 244C753 242.5 753 241.5 752.547 240.131" stroke="black" stroke-linecap="round"/>
    <path d="M712.928 363.102C712.079 362.3 712 361.719 713.127 361C713.685 361 714.8 361.719 714 362.719C713.807 362.959 713.5 363.219 712.928 363.102Z" stroke="black" stroke-linecap="round" stroke-linejoin="round"/>
    <path d="M714.641 330.102C713.793 329.3 713.713 328.719 714.841 328C715.399 328 716.513 328.719 715.713 329.719C715.521 329.959 715.213 330.219 714.641 330.102Z" stroke="black" stroke-linecap="round" stroke-linejoin="round"/>
    <path d="M712.928 391.102C712.079 390.3 712 389.719 713.127 389C713.685 389 714.8 389.719 714 390.719C713.807 390.959 713.5 391.219 712.928 391.102Z" stroke="black" stroke-linecap="round" stroke-linejoin="round"/>
    <path d="M672.313 261.633C669.291 263.965 663.177 268.416 663.177 272.86C663.177 273.452 667.444 276.001 667.978 276.454C674.367 281.878 680.594 287.539 686.272 293.709C689.95 297.706 702.405 316.274 707.5 315" stroke="black" stroke-linecap="round"/>
    <path d="M747.57 262.628C748.713 265.202 750.333 268.024 752.104 270.238C754.074 272.7 735.685 294.192 733.788 296.187C729.463 300.733 723.5 308 720.891 309.415C717.5 312 712.798 315.28 708.747 315.786" stroke="black" stroke-linecap="round"/>
    <path d="M605.5 315C605.608 311.365 606.708 306.993 608.263 303.605C609.691 300.495 610.188 297.2 611.442 294.039C612.734 290.783 613.443 287.506 614.433 284.169C615.312 281.208 615.131 278.027 616.593 275.28C617.82 272.974 620.32 269.914 621.789 273.877C622.769 276.519 622.413 280.233 622.142 282.993C621.878 285.685 620.064 291.133 620 294.039C619.945 296.512 619.994 298.677 621 301" stroke="black" stroke-linecap="round"/>
    <path d="M635.39 299.857C634.478 301.243 633.39 300.575 632.5 299.857" stroke="black" stroke-linecap="round"/>
    <path d="M620.5 299.155C620.875 299.622 622.389 299.366 622.979 298.946" stroke="black" stroke-linecap="round"/>
    <path d="M608 303.772C608.444 299.699 608.182 295.547 607.142 291.561C606.73 289.982 604.838 285.39 603.66 289.172C602.965 291.4 601.934 293.79 601.518 296.093C600.993 299 599.49 301.073 598.742 303.772C598.125 305.997 598.259 307.591 598.809 309.8C599.321 311.853 599.82 314.011 600.188 316.089C601.191 321.758 601.518 325.5 603.983 331.331C605 333 605.5 336.5 609.5 338.5" stroke="black" stroke-linecap="round"/>
    <path d="M641 283.5C643 283 646 288.5 647.5 293C648.5 295 645.943 303.185 645 308C644.38 311.162 640.847 320.321 640 323.5C638.509 328.523 637.672 329.472 634.5 333.5C633.017 335.382 630.999 338 628 339" stroke="black" stroke-linecap="round"/>
    <path d="M643.863 290.634C644.008 290.869 644.317 290.941 644.551 290.795C644.786 290.65 644.858 290.341 644.712 290.107L643.863 290.634ZM641.5 285L641.056 285.23L641.5 285ZM638.941 278.532L638.472 278.705L638.472 278.705L638.941 278.532ZM635.032 275.181L635.015 274.682C635.003 274.682 634.992 274.683 634.98 274.684L635.032 275.181ZM632.5 279.5L632.004 279.562C632.008 279.595 632.015 279.627 632.026 279.658L632.5 279.5ZM634.5 285L634.031 285.174L634.5 285ZM635.647 298.417H636.147C636.147 298.411 636.147 298.405 636.146 298.4L635.647 298.417ZM634.532 302.5C634.532 302.776 634.756 303 635.032 303C635.308 303 635.532 302.776 635.532 302.5H634.532ZM644.712 290.107C643.67 288.428 642.711 286.252 641.944 284.77L641.056 285.23C641.776 286.621 642.795 288.916 643.863 290.634L644.712 290.107ZM641.944 284.77C641.736 284.369 641.195 283.019 640.649 281.613C640.109 280.223 639.582 278.824 639.409 278.358L638.472 278.705C638.646 279.177 639.175 280.58 639.716 281.975C640.251 283.352 640.816 284.768 641.056 285.23L641.944 284.77ZM639.409 278.358C639.095 277.509 638.464 276.594 637.705 275.895C636.956 275.205 635.997 274.649 635.015 274.682L635.049 275.681C635.647 275.661 636.359 276.014 637.027 276.63C637.685 277.236 638.219 278.022 638.472 278.705L639.409 278.358ZM634.98 274.684C634.1 274.777 633.449 275.143 632.986 275.655C632.533 276.157 632.282 276.773 632.143 277.342C632.004 277.912 631.97 278.465 631.969 278.869C631.969 279.073 631.977 279.243 631.986 279.363C631.99 279.423 631.994 279.471 631.998 279.505C631.999 279.521 632.001 279.535 632.002 279.545C632.002 279.549 632.003 279.553 632.003 279.556C632.003 279.558 632.003 279.559 632.004 279.56C632.004 279.56 632.004 279.561 632.004 279.561C632.004 279.561 632.004 279.562 632.004 279.562C632.004 279.562 632.004 279.562 632.5 279.5C632.996 279.438 632.996 279.438 632.996 279.438C632.996 279.438 632.996 279.438 632.996 279.439C632.996 279.439 632.996 279.439 632.996 279.439C632.996 279.439 632.996 279.438 632.996 279.438C632.996 279.437 632.996 279.435 632.996 279.433C632.995 279.427 632.994 279.418 632.993 279.405C632.99 279.381 632.987 279.342 632.983 279.292C632.976 279.192 632.969 279.047 632.969 278.871C632.97 278.515 633 278.048 633.115 277.579C633.23 277.108 633.423 276.664 633.728 276.326C634.024 275.999 634.447 275.746 635.084 275.679L634.98 274.684ZM632.026 279.658C632.529 281.168 633.477 283.681 634.031 285.174L634.968 284.826C634.409 283.318 633.47 280.832 632.974 279.342L632.026 279.658ZM634.031 285.174C634.216 285.673 634.477 286.205 634.75 286.738C635.026 287.281 635.315 287.825 635.575 288.383C636.102 289.51 636.457 290.573 636.346 291.516L637.339 291.632C637.485 290.39 637.016 289.104 636.481 287.959C636.211 287.381 635.908 286.809 635.64 286.284C635.368 285.75 635.131 285.265 634.968 284.826L634.031 285.174ZM636.346 291.516C636.222 292.576 635.918 293.858 635.641 295.114C635.371 296.335 635.118 297.567 635.147 298.433L636.146 298.4C636.123 297.686 636.339 296.589 636.617 295.33C636.887 294.106 637.207 292.757 637.339 291.632L636.346 291.516ZM635.147 298.417C635.147 299.209 635.01 299.674 634.857 300.224C634.698 300.799 634.532 301.436 634.532 302.5H635.532C635.532 301.564 635.673 301.025 635.821 300.491C635.976 299.931 636.147 299.355 636.147 298.417H635.147Z" fill="black"/>
    <path d="M601.147 325.93C596.734 329.208 593.244 335.977 592.249 341.449C591.593 345.059 591.162 349.541 593.999 351.5" stroke="black" stroke-linecap="round"/>
    <path d="M616.999 236C608.499 240 602.391 253.957 599.999 262.5C597.319 272.074 599.115 281.5 595.999 295C594.384 302 594.999 302 592.499 314C591.961 318.311 591.126 322.629 590.182 326.876C589.078 331.845 590.538 336.079 592.003 340.749" stroke="black" stroke-linecap="round"/>
    <path d="M604.499 335.5C600.499 337.5 602.999 340.5 604.999 343C607 345.5 614.499 348.5 617.999 348.5" stroke="black" stroke-linecap="round"/>
    <path d="M618.5 348C621.5 348 626.198 346.651 628.5 345.5C630.801 344.349 636.5 341.5 632.5 340.5" stroke="black" stroke-linecap="round"/>
    <path d="M618.5 348C618 348.5 617 352 617 352.5" stroke="black" stroke-linecap="round"/>
    <path d="M634 341.5C634.292 343.326 634.436 346.255 634 348" stroke="black" stroke-linecap="round"/>
    <path d="M602.5 337.5C601 340 601 341.5 601 344" stroke="black" stroke-linecap="round"/>
    <path d="M602.499 337C599.956 337.5 599.125 339 599.956 342.325C600.499 344.5 602.715 347.165 604.499 349C606.806 351.373 611.229 352.895 615 353C621.223 353.173 625.657 351.278 631.5 349.5C633 349.043 637 347 637 345.5C637 343.5 635 343.5 634 343" stroke="black" stroke-linecap="round"/>
    <path d="M632.5 336C632.001 337 632.499 342 632.5 343" stroke="black" stroke-linecap="round"/>
    <path d="M637 345.5C636.5 351.5 635.603 358.422 631.499 361.5C627.999 365 624.999 368 621.499 370C618.499 372 613.721 373.435 609.499 372C606.721 370.611 602.709 365.709 600.5 363.5C599.322 362.322 596.5 357.5 594.5 353C593.282 350.258 593 335 604.5 334.5" stroke="black" stroke-linecap="round"/>
    <path d="M604.5 332.5C605 335 604 337 603.5 340" stroke="black" stroke-linecap="round"/>
    <path d="M611.74 311.427C614.194 314.387 615.808 312.774 618.991 312.688C621.838 312.611 623.749 312.198 626.488 313.319C628.737 314.239 630.527 313.634 632.864 313.634C635.113 313.634 637.454 315.934 639.485 314.58" stroke="black" stroke-linecap="round"/>
    <path d="M615 287C616 286 618.5 285 620 286" stroke="black" stroke-linecap="round"/>
    <path d="M772 236C772 237 772 237 771 237.5" stroke="black" stroke-linecap="round"/>
    <path d="M515 106.444C515.48 112.944 524 114.944 524 114.944L615 67.9444C615 67.9444 613.5 62.4444 608.5 61.4444C603.534 60.4512 524.078 61.4311 523.011 61.4443C522.978 61.4447 522.983 61.4444 522.95 61.4446C518.576 61.4713 515.034 65.0086 515 69.3811C515 69.4231 515 69.4479 514.999 69.4899C514.979 70.8017 514.53 100.09 515 106.444Z" fill="#999999"/>
    <path d="M617 73.4444C617 69.0262 613.418 65.4444 609 65.4444H527C522.582 65.4444 519 69.0261 519 73.4444V107.444C519 111.863 522.582 115.444 527 115.444H583L592 124.444L590.5 115.444H609C613.418 115.444 617 111.863 617 107.444V73.4444Z" fill="#FAFAFA"/>
    <circle r="4" transform="matrix(-1 0 0 1 587 91)" fill="#999999"/>
    <circle r="4" transform="matrix(-1 0 0 1 567 91)" fill="#999999"/>
    <circle r="4" transform="matrix(-1 0 0 1 547 91)" fill="#999999"/>
    <circle r="4" transform="matrix(-1 0 0 1 587 91)" stroke="black"/>
    <circle r="4" transform="matrix(-1 0 0 1 567 91)" stroke="black"/>
    <circle r="4" transform="matrix(-1 0 0 1 547 91)" stroke="black"/>
    <path d="M617 73.4444C617 69.0262 613.418 65.4444 609 65.4444H527C522.582 65.4444 519 69.0261 519 73.4444V107.444C519 111.863 522.582 115.444 527 115.444H583L592 124.444L590.5 115.444H609C613.418 115.444 617 111.863 617 107.444V73.4444Z" stroke="black" stroke-linecap="round" stroke-linejoin="round"/>
    <path d="M527 65.4444L523 61.4444" stroke="black" stroke-linecap="round" stroke-linejoin="round"/>
    <path d="M524 114.944C524 114.944 515.48 112.944 515 106.444C514.53 100.09 514.979 70.8017 514.999 69.4899C515 69.4479 515 69.4231 515 69.3811C515.034 65.0086 518.576 61.4713 522.95 61.4446C522.983 61.4444 522.978 61.4447 523.011 61.4443C524.078 61.4311 603.534 60.4512 608.5 61.4444C613.5 62.4444 615 67.9444 615 67.9444" stroke="black" stroke-linecap="round" stroke-linejoin="round"/>
    <path d="M519 74.4444L515 70.4444" stroke="black" stroke-linecap="round" stroke-linejoin="round"/>
    <path d="M330 169.444C330.48 175.944 339 177.944 339 177.944L353.5 178.944L353 183.444L357 187L358.5 178.944L430 130.944C430 130.944 428.5 125.444 423.5 124.444C418.534 123.451 339.078 124.431 338.011 124.444C337.978 124.445 337.983 124.444 337.95 124.445C333.576 124.471 330.034 128.009 330 132.381C330 132.423 330 132.448 329.999 132.49C329.979 133.802 329.53 163.09 330 169.444Z" fill="#FAFAFA"/>
    <path d="M432 136.444C432 132.026 428.418 128.444 424 128.444H342C337.582 128.444 334 132.026 334 136.444V170.444C334 174.863 337.582 178.444 342 178.444H358L357 187.444L365.5 178.444H424C428.418 178.444 432 174.863 432 170.444V136.444Z" fill="white"/>
    <circle r="4" transform="matrix(-1 0 0 1 400 154)" fill="#F2F2F2"/>
    <circle r="4" transform="matrix(-1 0 0 1 380 154)" fill="#F2F2F2"/>
    <circle r="4" transform="matrix(-1 0 0 1 360 154)" fill="#F2F2F2"/>
    <path d="M432 136.444C432 132.026 428.418 128.444 424 128.444H342C337.582 128.444 334 132.026 334 136.444V170.444C334 174.863 337.582 178.444 342 178.444H358L357 187.444L365.5 178.444H424C428.418 178.444 432 174.863 432 170.444V136.444Z" stroke="black" stroke-linecap="round" stroke-linejoin="round"/>
    <path d="M357 187.444L353 183.444" stroke="black" stroke-linecap="round" stroke-linejoin="round"/>
    <path d="M342 128.444L338 124.444" stroke="black" stroke-linecap="round" stroke-linejoin="round"/>
    <path d="M339 177.944C339 177.944 330.48 175.944 330 169.444C329.53 163.09 329.979 133.802 329.999 132.49C330 132.448 330 132.423 330 132.381C330.034 128.009 333.576 124.471 337.95 124.445C337.983 124.444 337.978 124.445 338.011 124.444C339.078 124.431 418.534 123.451 423.5 124.444C428.5 125.444 430 130.944 430 130.944M353.5 178.944L353 183.444" stroke="black" stroke-linecap="round" stroke-linejoin="round"/>
    <path d="M334 137.444L330 133.444" stroke="black" stroke-linecap="round" stroke-linejoin="round"/>
    <circle r="4" transform="matrix(-1 0 0 1 400 154)" stroke="black"/>
    <circle r="4" transform="matrix(-1 0 0 1 380 154)" stroke="black"/>
    <circle r="4" transform="matrix(-1 0 0 1 360 154)" stroke="black"/>
    <path d="M259.369 195.54C261.369 197.94 265.202 198.54 266.869 198.54C267.202 199.706 267.369 204.34 265.369 213.54C262.869 225.04 249.869 242.04 245.869 247.04C242.669 251.04 232.869 257.373 228.369 260.04C227.536 258.873 225.769 256.34 225.369 255.54C224.869 254.54 216.815 249.47 209.869 240.54C202.869 231.54 196.869 214.04 197.369 206.54C197.839 199.484 199.869 200.04 200.369 197.04C200.869 194.04 192.369 201.04 191.369 202.04C190.369 203.04 172.369 213.54 171.369 213.54C170.369 213.54 157.369 224.04 150.869 228.04C145.669 231.24 144.036 233.373 143.869 234.04C139.369 235.873 128.669 242.84 121.869 256.04C115.069 269.24 113.702 293.873 113.869 304.54C113.869 310.373 111.869 321.04 112.369 324.04C110.869 326.04 111.869 350.04 107.869 357.54C113 372.5 113.869 380.04 138.869 380.04C140.5 382.5 141.5 399.5 139.5 410C139.5 410 230.5 401 304.869 410.54C305.434 404.513 304.869 395.04 304.869 395.04C305.276 386.206 305.846 367.84 304.869 365.04C303.892 362.24 303.795 351.54 303.869 346.54C304.702 351.373 306.269 361.24 305.869 362.04C305.469 362.84 307.036 380.706 307.869 389.54C307.202 391.04 305.969 394.24 306.369 395.04C306.869 396.04 316.369 398.04 329.369 396.54C342.369 395.04 347.369 390.54 346.869 390.04C346.369 389.54 347.369 388.54 347.369 386.54C347.369 384.54 350.869 384.04 347.369 381.04C344.569 378.64 345.202 351.706 345.869 338.54C346.202 327.206 346.969 301.54 347.369 289.54C347.869 274.54 338.869 260.04 337.869 258.54C337.069 257.34 329.869 248.04 326.369 243.54C326.536 243.706 326.669 243.14 325.869 239.54C324.869 235.04 312.869 226.04 311.369 225.54C309.869 225.04 282.369 209.54 279.369 208.04C276.969 206.84 274.702 203.206 273.869 201.54C273.869 201.873 273.769 201.74 273.369 198.54C272.969 195.34 266.202 193.206 262.869 192.54C260.869 192.54 257.369 193.14 259.369 195.54Z" fill="#F2F2F2"/>
    <path d="M306.869 298.04C303.269 304.84 303.369 290.54 303.869 282.54C300.536 305.206 295.169 345.74 302.369 328.54C309.569 311.34 316.035 280.706 318.369 267.54C316.035 274.873 310.469 291.24 306.869 298.04Z" fill="#999999"/>
    <path d="M290.869 363.04C288.069 367.44 284.369 348.54 282.869 338.54C280.869 344.54 286.369 387.54 292.869 398.54C299.369 409.54 303.869 400.04 304.369 401.54C304.868 403.04 303.869 390.54 304.369 388.54C304.868 386.54 305.869 370.54 304.369 363.54C303.169 357.94 303.536 349.54 303.869 346.04L302.369 332.54L300.369 344.04C298.369 348.54 293.669 358.64 290.869 363.04Z" fill="#999999"/>
    <path d="M321.869 385.54C323.069 385.94 332.369 382.706 336.869 381.04C321.369 382.54 314.369 381.04 313.369 381.04C312.369 381.04 314.869 359.54 317.369 356.54C319.369 354.14 312.369 331.04 305.869 331.04C307.702 337.873 309.869 350.54 309.869 353.54V386.54C309.869 387.74 311.535 388.373 312.369 388.54C315.035 387.373 320.669 385.14 321.869 385.54Z" fill="#999999"/>
    <path d="M319.869 391.54C315.869 392.34 310.535 391.206 308.369 390.54C308.702 391.373 310.169 393.24 313.369 394.04C317.369 395.04 325.869 393.04 328.369 392.54C330.369 392.14 333.202 388.706 334.369 387.04C331.202 388.206 323.869 390.74 319.869 391.54Z" fill="#999999"/>
    <path d="M161.5 368C165 366.5 166 364.5 169.5 362C170.5 361.167 173.5 358.1 177.5 352.5C182.5 345.5 185 331.5 186 324C187 316.5 193 294.5 194.5 288C195.7 282.8 203 266.833 206.5 259.5C208.333 258.5 212.2 256.4 213 256C213.8 255.6 217 251.833 218.5 250C219.833 250.333 222.3 251.2 221.5 252C220.7 252.8 224.833 264.026 227 269.54C223.5 266.526 216.3 260.3 215.5 259.5C214.5 258.5 210.5 264 208.5 265C206.5 266 196.869 293 195.5 295.5C194.131 298 190.5 319 190 324C189.353 330.468 187 342.5 184.5 348C182 353.5 174 364.635 172.5 364.416C179.729 366.653 191.532 351.203 196.869 341.54C192.035 356.206 180.6 386.7 171 391.5C165.066 389.126 158.505 381.744 159.245 374.059C158.952 374.811 158.686 375.365 158.5 375.5C157.81 376 155 380.5 151 383.5C147.8 385.9 141.333 382.5 138.5 380.5H143.5C146 379.333 151.2 377 152 377C152.8 377 155.333 373.333 156.5 371.5L160.873 369C161.064 368.665 161.273 368.332 161.5 368Z" fill="#999999"/>
    <path d="M144.869 265.54C145.869 280.873 147.4 298.2 147 309L142 317.5C139 304.5 141.702 281.373 144.869 265.54Z" fill="#999999"/>
    <path d="M267.869 226.54C257.069 250.54 237.702 265.206 229.368 269.54C259.368 275.539 274.868 228.227 283.368 225.04C291.868 221.852 322 235.5 321.5 232.5C321 229.5 310.868 224.04 303.869 221.54C299.868 219.54 281.868 211.54 273.368 202.04C274.368 206.54 273.369 211.039 267.869 226.54Z" fill="#999999"/>
    <path d="M336.869 249.5C345.269 260.7 347.368 288.706 346.868 296.04C346.868 291.04 340.368 277.04 333.368 269.54C326.368 262.04 315.368 287.54 315.368 285.54C315.368 283.54 318.339 267.24 319.368 266.04C321.5 260 324 243.5 324 234C324.334 234.833 328.469 238.3 336.869 249.5Z" fill="#999999"/>
    <path d="M133.999 324C123.599 332.8 118.332 351.333 116.999 359.5C112.599 340.3 128.499 323.5 136.999 317.5C138.416 316.5 140 316 140.999 317.5C133.999 327 129.999 340 128.999 338.54C127.999 337.079 128.999 329.413 133.999 324Z" fill="#999999"/>
    <path d="M140 377C142.401 377.4 151.667 373.5 156 371.5C154.5 376 144.611 377.876 143.5 378C139 378.5 136.501 378 134 377.5L133.999 377.5C131.058 376.912 128.447 372.341 128 371C127.5 369.5 127 364 127.5 360.5C127.9 357.7 128.666 357.667 128.999 358C129.166 359.833 129.7 364.4 130.5 368C131.5 372.5 136.999 376.5 140 377Z" fill="#999999"/>
    <path d="M197.368 122.039C196.535 122.039 196.168 120.539 201.368 114.539C202.368 109.039 202.368 104.039 202.368 103.539C202.368 103.039 204.368 95.0394 214.368 92.5394C224.368 90.0394 236.369 88.5394 251.868 94.5394C264.369 100.039 259 113 260.5 117C262 121 262.868 124.039 263.368 124.539C263.768 124.939 264.202 126.706 264.368 127.539C266.035 126.873 269.468 125.439 269.868 125.039C270.368 124.539 273.868 122.539 274.868 126.539C275.868 130.539 276.868 141.039 271.868 148.039C267.869 153.039 266.868 152.039 265.368 151.539C264.869 153.039 264.868 162.539 264.368 163.539C263.968 164.339 262.202 169.206 261.368 171.539C260.202 178.873 259 193.5 259.368 195.039C259.862 197.102 263.368 197.539 266.368 198.539C267.369 201.039 265.368 212.873 263.368 219.539C260 225.5 250.868 233.639 240.868 236.039C238.354 236.643 235.941 237.077 233.636 237.342C233.756 238.649 232.376 241.685 232.05 242C230.5 243.5 225.95 244.025 225 244.5C224 245 222.5 244.5 222.05 243.5C221.76 242.855 223.05 241.5 224.05 240C224.85 238.8 227.05 238.5 228.05 238.5V237.655C225 238 223.5 238 221.55 237L220 241.5C221 244 219.15 246.9 217.55 250.5C215.95 254.1 209.883 257.333 207.05 258.5C207.05 259.167 205.75 262.6 200.55 271C194.05 281.5 187.55 316 185.55 327.5C183.55 339 181 351.5 167 364C155.8 374 143.833 377 139.5 377C138.833 377.333 136.95 375.8 134.55 371C131.55 365 134.05 337.5 134.55 334.5C135.05 331.5 143.55 315.5 144.05 313.5C144.55 311.5 168.55 279.5 169.55 277.5C170.35 275.9 184.217 258.167 191.05 249.5L193.55 240C194.717 237.333 197.05 231.8 197.05 231C197.05 230.2 199.545 223.667 200.792 220.5C199.152 218.004 198.056 215.597 197.868 213.539C197.368 208.039 194.868 203.539 199.868 198.539C204.868 193.539 201.869 175.539 201.369 174.539C200.869 173.539 194.869 167.539 195.869 157.039C195.869 151.039 196.035 147.539 195.369 148.039C194.535 147.373 192.669 145.539 191.869 143.539C190.869 141.039 188.637 134.084 189.369 126.039C189.869 120.539 192.368 120.539 194.368 122.539C196.802 124.973 197.535 123.039 197.368 122.039Z" fill="#A47750"/>
    <path d="M301.869 410.539C302.669 409.739 305.535 400.539 306.869 396.039C316.369 398.039 332.869 397.039 343.869 393.539C343.069 397.939 336.202 407.706 332.869 412.039C322.202 411.873 310 415.5 301.869 410.539Z" fill="#A47750"/>
    <path d="M243.369 126.54C238.869 127.54 236.036 130.206 234.869 132.04C234.869 132.84 238.869 132.706 240.869 132.54C243.036 131.873 246.369 130.54 247.869 130.54C248.576 130.54 254.369 132.54 254.369 133.54C254.369 135.04 251.869 136.04 248.369 137.04C244.869 137.04 239.869 136.04 237.369 135.04C238.036 135.706 239.269 137.34 238.869 138.54C238.369 140.04 247.869 140.54 245.369 142.04C243.369 143.24 238.203 141.54 235.869 140.54C236.369 142.54 234.969 141.94 243.369 147.54C251.769 153.14 258.869 151.873 261.369 150.54L265.869 143.04C265.036 142.04 263.369 139.74 263.369 138.54C263.369 137.34 264.369 135.706 264.869 135.04L263.369 128.04C262.703 127.54 262.369 126.54 261.369 125.04C261.369 123.54 259.369 119.54 258.369 118.04C257.369 116.54 258.869 107.54 257.869 102.54C256.869 97.5397 248.369 94.5396 249.369 95.5396C250.369 96.5396 249.869 112.54 249.369 116.04C248.969 118.84 250.869 121.873 251.869 123.04L256.869 125.04H252.869C250.369 125.04 247.869 125.54 243.369 126.54Z" fill="#8D5524"/>
    <path d="M274.369 134.54C273.869 136.04 271.869 137.54 270.869 138.54C271.369 142.04 268.703 143.706 267.369 144.54C267.869 143.873 268.469 142.44 266.869 142.04C265.269 141.64 266.536 140.873 267.369 140.54C267.203 139.873 266.769 138.44 266.369 138.04C265.869 137.54 265.369 133.04 269.869 128.54C274.369 124.04 274.869 133.04 274.369 134.54Z" fill="#8D5524"/>
    <path d="M254.369 158.54C255.169 157.74 258.536 156.04 259.869 155.04C259.869 155.04 261.744 154.29 262.369 155.04C264.869 158.04 262.169 164.74 261.369 167.54C260.369 171.04 252.369 179.04 248.369 182.04C244.681 184.806 243.609 188.173 241.369 190.04L241.253 190.136C238.342 192.563 237.272 193.455 229.869 193.54C227.633 193.565 227.869 192.54 227.869 191.04C227.869 189.54 227.869 187.54 230.369 187.54C232.369 187.54 234.369 191.04 236.369 190.54C237.869 189.04 238.869 185.54 238.869 182.54C238.869 179.54 232.369 178.54 228.869 179.04C225.369 179.54 220.369 175.04 222.869 175.54C225.369 176.04 229.869 175.54 230.369 175.04C230.869 174.54 237.369 179.04 238.869 173.54C240.069 169.14 244.369 166.706 246.369 166.04H250.869C251.869 164.04 253.569 159.34 254.369 158.54Z" fill="#8D5524"/>
    <path d="M218.369 155.04C217.169 154.24 218.869 153.04 219.869 152.54L222.869 153.54C223.036 154.04 224.369 155.04 225.869 156.04C227.661 157.235 230.702 156.373 231.869 156.04L235.369 153.04C235.536 152.373 235.269 151.54 232.869 153.54C229.869 156.04 228.869 155.04 226.869 154.54C223.87 153.79 223.426 151.692 223.411 150.538C223.328 150.389 223.308 150.223 223.369 150.04C223.561 149.462 223.402 149.815 223.411 150.538C223.875 151.367 226.315 151.681 227.869 151.54L228.869 148.54V133.54C229.202 133.373 230.269 133.14 231.869 133.54C233.469 133.94 233.869 139.373 233.869 142.04C233.702 143.873 233.469 147.74 233.869 148.54C234.369 149.54 236.369 147.54 237.369 147.54C238.369 147.54 238.869 148.54 240.369 150.04C241.869 151.54 242.869 153.54 243.369 155.04C243.869 156.539 242.37 158.039 240.871 159.538L240.869 159.54C239.369 161.04 237.369 158.04 234.869 157.54C232.369 157.04 231.869 158.04 230.869 158.04C229.869 158.04 231.869 158.54 230.369 161.04C229.169 163.04 227.869 161.873 227.369 161.04C227.536 160.04 227.769 158.04 227.369 158.04C226.869 158.04 223.869 157.54 221.869 158.04C219.869 158.54 219.869 156.04 218.369 155.04Z" fill="#8D5524"/>
    <path d="M214.869 129.54C214.375 128.88 213.293 127.569 212.883 127.54C212.847 127.54 212.842 127.54 212.869 127.54C212.873 127.54 212.878 127.54 212.883 127.54C213.493 127.549 222.951 127.704 224.369 130.54C225.869 133.54 222.869 142.04 221.869 142.04C220.869 142.04 219.869 140.04 220.369 139.54C220.869 139.04 209.869 143.04 207.369 140.54C204.869 138.04 213.87 139.04 214.369 138.54C214.869 138.04 211.869 137.54 212.869 137.04C213.669 136.64 214.536 131.873 214.869 129.54Z" fill="#8D5524"/>
    <path d="M211.369 120.54C210.969 120.14 207.202 122.373 205.369 123.54C197.369 127.04 198.869 125.04 198.369 122.54C197.969 120.54 201.536 116.373 203.369 114.54C203.536 112.206 203.969 106.54 204.369 102.54C204.869 97.5397 214.369 93.5397 211.369 95.5396C208.369 97.5396 211.869 121.04 211.369 120.54Z" fill="#8D5524"/>
    <path d="M200.369 159.04C199.169 157.04 200.203 155.54 200.869 155.04C201.499 154.24 203.465 155.373 204.369 156.04C204.702 158.206 205.369 162.94 205.369 164.54C205.369 166.54 207.369 172.04 206.869 173.04C206.369 174.04 205.869 173.04 204.369 173.54C202.869 174.04 201.869 161.54 200.369 159.04Z" fill="#8D5524"/>
    <path d="M217.869 199.54C215.47 198.34 206.369 187.54 204.369 179.04C206.369 180.04 210.036 182.873 211.369 185.04C213.203 187.04 216.569 191.24 217.369 192.04C217.896 192.566 220.628 193.369 223.614 194.012C225.545 193.802 228.539 194.158 231 194.508C231.005 194.509 231.01 194.509 231.015 194.51C231.699 194.607 232.341 194.704 232.907 194.787C236.734 193.989 242.202 191.54 242.869 191.04C244.869 189.54 247.369 185.54 247.869 184.54C248.369 183.54 256.369 176.54 257.369 175.54C258.369 174.54 261.369 169.756 261.369 172.04C261.369 174.54 260.203 185.28 258.869 191.04C259.036 190.04 258.769 187.74 256.369 186.54C253.369 185.04 250.869 204.04 248.369 206.54C245.869 209.04 258.869 215.54 255.369 214.54C252.165 213.624 241.42 218.993 240.392 219.525C240.384 219.531 240.377 219.536 240.369 219.54C240.285 219.582 240.297 219.574 240.392 219.525C241.336 218.776 244.694 199.89 245.281 197.301C244.493 198.721 238.605 202.922 235 195.04C234.658 195.04 233.899 194.933 232.907 194.787C232.856 194.798 232.805 194.808 232.755 194.818C233.671 195.015 234.5 195.263 234.5 195.5C234.5 195.996 230.5 196 229.5 196C228.7 196 224.746 194.757 222.869 194.136C222.508 194.222 222.212 194.341 222 194.5C220 196 218.5 196.5 217.869 199.54Z" fill="#8D5524"/>
    <path d="M193.869 127.54C191.069 122.74 191.036 127.206 191.369 130.04C190.369 132.54 191.369 136.54 192.369 138.04C193.369 139.54 192.869 137.04 192.869 136.54V135.04C193.202 134.04 193.869 131.94 193.869 131.54C193.869 131.039 196.202 131.54 193.869 127.54Z" fill="#8D5524"/>
    <path d="M233.603 204.814C233.726 205.083 233.819 205.33 233.869 205.54C233.369 207.54 231.869 210.04 230.369 209.54C228.869 209.04 227.869 206.54 228.869 206.54C229.869 206.54 230.869 205.04 230.869 204.04C230.869 203.296 230.725 201.454 230.437 200.662C229.056 201.743 225.692 202.33 224 202.5C223.5 202.013 222.7 201.432 223.5 203C224.5 204.96 219.5 211.54 219 212.5C218.6 213.268 217 212.82 215.5 212.5C214.333 212.333 214.5 211.5 215 210.5C217.5 209.5 220 200 220.5 199.54C220.9 199.171 222 197.526 222.5 198C224.333 197.68 228.5 197.032 230.5 197C233 196.96 233 198 233.5 198C233.9 198 235.667 203.026 236.5 205.54C236.167 205.526 235.3 205.508 234.5 205.54C234.232 205.55 233.927 205.264 233.603 204.814Z" fill="#8D5524"/>
    <path d="M208.5 213C207 211 203 210.5 202.369 211.54C202.869 213.54 206 215 206.5 215C207 215 207.5 213.5 208.5 213Z" fill="#8D5524"/>
    <path d="M248.369 218.04C240.788 221.54 240.369 223.54 239.869 223.54C243.869 223.54 251.369 219.04 251.869 218.54C252.369 218.04 256.369 216.04 256.369 215.54C256.369 215.04 255.95 214.54 248.369 218.04Z" fill="#8D5524"/>
    <path d="M202.4 193.614C202.39 193.589 202.379 193.564 202.369 193.54C202.381 193.563 202.391 193.588 202.4 193.614C203.238 195.644 204.659 199.854 203.869 201.04L203.869 201.04C202.869 202.54 200.869 205.54 200.369 205.54C199.869 205.54 197.869 211 202.369 217.5C203.5 218.5 201.5 219.5 201 219.5C200.5 219.5 200 219 199 217C198 212.5 195.869 204.04 198.869 199.54C200.401 197.242 202.754 194.666 202.4 193.614Z" fill="#8D5524"/>
    <path d="M320.5 412C322.9 410.8 326.869 401.04 328.369 397.04C332.869 396.04 333.369 396.04 341.869 394.54C341.069 397.74 335 407.167 332 411.5C328.631 410.96 324 411.5 320.5 412Z" fill="#8D5524"/>
    <path d="M206.417 256.082C209.747 250.875 215 242.05 215 239.5C215 236.7 216.667 233.667 218 233L221 231C223.746 231.333 229.465 232.2 230.369 233C231.274 233.8 231.079 237.667 230.869 239.5C228.913 240.833 224.7 243.4 223.5 243C222 242.5 226.869 239.5 227.869 239.5C228.669 239.5 228.5 236.333 228.5 234.5L222 235.5L219 240C219.167 242.167 218.8 247.4 216 251C213.379 254.37 208.509 256.542 205.983 257.353C205.826 257.758 205.657 258.155 205.5 258.5L206 260C203.667 263.333 198.1 272.4 194.5 282C190 294 184 320 184 324C184 328 181.5 343 177 350C172.5 357 160.5 371.5 143 374.5C141 374.5 141 373.5 141 371.001V371C142.667 368.5 146.1 362.8 146.5 360C147 356.5 158 319.5 165 306.5C172 293.5 184 266 198 255C198.5 255 203 257 205.5 255C206.722 254.022 206.762 254.862 206.417 256.082Z" fill="#8D5524"/>
    <path d="M218.5 225C218.1 225.4 221 226.5 222.5 227H223.5V225.5L229.5 225L231.5 224L232.5 226L231 230C231.667 230.167 233.1 230.5 233.5 230.5C234 230.5 235.5 225.5 236 225C236.4 224.6 233.5 221.833 232 220.5C229.5 220.667 224.2 221.2 223 222C221.5 223 219 224.5 218.5 225Z" fill="#8D5524"/>
    <path d="M213.5 222.5C213.9 222.9 215 223.667 215.5 224C216 224 216.5 226 216 226.5C215.5 227 214 227.5 213.5 227C213 226.5 212 226 212 225.5C212 225 206 223 205 222.5C204 222 204.5 220 205 219.5C205.5 219 207 218.5 208 218.5C208.8 218.5 210.333 219.5 211 220L213.5 222.5Z" fill="#8D5524"/>
    <path d="M220 218.5C219 218.5 217.5 218 217.5 217.5C216.7 216.7 217.5 215.167 218 214.5L226.5 212.5C228.333 212.18 232.2 211.532 233 211.5C234 211.46 234.5 212.5 235 214C235.4 215.2 234.413 216.657 233.869 217.235L233 216.5H231C229 217.013 224.9 218.04 224.5 218.04C224 218.04 221 218.5 220 218.5Z" fill="#8D5524"/>
    <path d="M135 364C134.6 366 138.167 369.5 140 371C141.2 363 143.833 360.333 145 360V348C141.834 352.5 135.4 362 135 364Z" fill="#8D5524"/>
    <path d="M247.369 130.539C242.369 130.039 239.369 134.539 238.869 134.539C239.369 134.539 242.869 137.039 247.369 137.039C250.969 137.039 253.536 134.706 254.369 133.539C253.702 132.706 251.369 130.939 247.369 130.539Z" fill="white"/>
    <path d="M215.369 129.539C217.369 129.539 221.202 132.873 222.869 134.539C221.369 135.373 217.569 136.939 214.369 136.539C211.169 136.139 208.036 133.373 206.869 132.039C208.869 131.206 213.369 129.539 215.369 129.539Z" fill="white"/>
    <path d="M228.369 163.539C224.369 162.039 217.202 163.539 212.369 165.039C214.369 166.04 221.369 168.04 221.369 168.04C221.369 168.04 224.202 168.873 225.869 168.54C226.369 169.04 230.869 169.54 230.869 169.54C230.869 169.54 234.496 168.54 235.369 168.54C240.369 168.54 246.369 165.539 246.369 165.539C246.369 165.539 236.369 164.039 233.869 163.039C231.369 162.039 230.299 164.263 228.369 163.539Z" fill="#8D5524"/>
    <path d="M212.369 131.539C212.369 130.039 214.369 129.04 215.369 130.039C217.369 130.039 217.853 131.373 218.369 132.039C218.203 133.039 217.369 135.039 215.369 135.039C212.869 135.039 212.369 133.601 212.369 131.539Z" fill="#E0AC69"/>
    <path d="M250.369 131.04C249.969 129.44 246.202 130.373 244.369 131.04C244.036 131.873 243.569 133.839 244.369 135.039C245.369 136.539 247.869 136.039 248.869 136.039C249.869 136.039 250.869 133.04 250.369 131.04Z" fill="#E0AC69"/>
    <path d="M258.869 126.539C258.632 126.362 258.351 126.171 258.031 125.971C256.101 125.039 252.575 125.039 250.869 125.039C248.808 125.039 242.869 127.039 240.869 127.539C238.869 128.039 234.965 126.943 236.869 125.039C239.369 122.539 243.869 122.539 246.869 122.539H246.869C251.116 122.539 255.648 124.483 258.031 125.971C258.364 126.131 258.649 126.319 258.869 126.539Z" fill="#333333"/>
    <path d="M214.369 121.539C208.492 120.635 204.702 123.039 203.369 125.039L216.369 126.539L224.869 128.039C225.036 127.873 225.269 127.339 224.869 126.539C224.369 125.539 220.869 122.54 214.369 121.539Z" fill="#333333"/>
    <path d="M267.869 125.039C267.469 124.639 265.369 126.206 264.369 127.039C263.036 124.206 260.269 118.539 259.869 118.539C259.369 118.539 260.869 113.539 259.869 104.039C258.869 94.5394 250.869 94.5394 246.869 92.5394C242.869 90.5394 228.869 89.0394 217.369 91.5394C205.869 94.0394 203.369 101.039 202.369 103.039C201.369 105.039 204.869 111.539 200.369 116.539C196.769 120.539 196.869 121.873 197.369 122.039L195.869 121.539C195.536 119.706 194.869 115.939 194.869 115.539C194.869 115.039 195.369 110.04 195.869 109.04C196.369 108.04 196.369 98.0396 197.869 91.5394C198.369 86.0394 204.869 82.0394 205.369 81.5394C205.869 81.0394 214.869 76.0396 215.369 76.0396C215.869 76.0396 222.369 69.0395 237.369 71.5395C252.369 74.0395 260.869 85.5394 262.869 87.5395C269.369 92.5394 270.369 105.539 270.869 107.039C271.369 108.539 269.369 119.039 269.369 121.539C269.369 124.039 268.369 125.539 267.869 125.039Z" fill="#333333"/>
    <path fill-rule="evenodd" clip-rule="evenodd" d="M196.367 122.04C195.567 121.64 195.367 123.206 195.367 124.04L198.367 128.54C198.201 129.373 197.967 131.54 198.367 133.54C198.867 136.04 201.367 141.54 204.367 143.04C207.367 144.54 218.367 144.54 221.367 143.04C223.767 141.84 224.701 138.873 224.867 137.54C225.034 135.873 226.263 131.763 229.367 132.54C232.74 133.383 232.913 134.582 233.484 138.534L233.484 138.535C233.591 139.269 233.71 140.099 233.867 141.04C234.701 146.04 241.867 147.04 247.367 147.54C252.867 148.04 256.367 147.54 259.367 143.54C261.767 140.34 262.367 135.54 262.367 133.54L265.867 130.04C266.534 129.206 267.967 127.44 268.367 127.04C268.767 126.64 267.867 125.54 267.367 125.04C266.543 126.139 265.567 126.785 264.523 127.476C263.668 128.043 262.768 128.639 261.867 129.54C256.365 127.247 242.033 127.898 239.307 128.021C239.06 128.033 238.909 128.04 238.867 128.04C238.617 128.04 235.367 128.165 232.117 128.29C228.867 128.415 225.617 128.54 225.367 128.54C224.867 128.54 215.867 126.54 214.867 126.04C214.067 125.64 207.534 125.54 204.367 125.54C202.867 125.373 199.767 125.04 199.367 125.04C199.128 125.04 198.659 124.466 198.125 123.813C197.545 123.103 196.888 122.3 196.367 122.04ZM258.779 131.84C253.021 128.001 240.021 127.666 234.697 131.581C233.381 134.323 234.265 140.146 236.394 142.579C238.618 145.121 241.998 145.286 245.797 145.471C246.371 145.499 246.954 145.527 247.544 145.564C248.151 145.603 248.769 145.663 249.38 145.723C251.757 145.954 254.025 146.176 255.154 145.047C257.827 142.373 261.289 135.606 258.779 131.84ZM224.907 132.648C224.444 135.204 223.953 137.906 222.624 140.155C221.362 142.291 217.644 143.04 215.367 143.04C212.198 143.04 207.877 142.604 204.785 141.745C201.617 140.865 199.645 129.854 202.367 128.04C206.578 127.282 226.007 126.596 224.955 132.387C224.939 132.474 224.923 132.561 224.907 132.648Z" fill="black"/>
    <path d="M218.551 249C219.051 246 221.051 243.5 220.051 241C221.396 239.924 221.325 237.965 222.051 237.5C222.674 237.101 222.431 237.538 227.051 238C227.699 237.865 228.051 238.5 228.051 238.5C223.551 238.5 221.276 243.772 222.051 244.5C223.027 245.417 231.001 243 232.501 242L233.101 239.626C233.304 238.443 233.507 237.251 233.714 237.199C240.001 237.5 258.693 229.401 262.869 220.54C259.369 235.54 236.369 256.54 228.369 260.04C225.869 254.04 226.051 254.5 218.551 249Z" fill="white"/>
    <path d="M260.369 196.54C260.869 196.54 265.369 195.04 265.869 198.04C264.369 197.54 262.869 197.54 260.369 196.54Z" fill="white"/>
    <path d="M238.26 134.807C240.021 133.927 241.09 132.454 242.848 131.575C245.123 130.437 248.447 130.221 250.876 130.961C252.367 131.415 253.967 132.778 255.151 133.764" stroke="black" stroke-linecap="round" stroke-linejoin="round"/>
    <path d="M244.745 131.048C244.365 132.093 244.09 133.636 244.587 134.688C244.739 135.01 244.773 135.201 245.101 135.4C245.345 135.549 245.619 135.651 245.853 135.813C246.264 136.099 247.151 136.202 247.656 136.192C249.013 136.162 250.138 135.077 250.601 133.879C251.003 132.838 250.986 131.448 250.126 130.732" stroke="black" stroke-linecap="round" stroke-linejoin="round"/>
    <path d="M247.436 133.106C246.834 133.768 247.997 133.187 247.277 132.947" stroke="black" stroke-linecap="round" stroke-linejoin="round"/>
    <path d="M207.171 131.936C209.771 130.636 212.241 128.89 215.328 129.576C218.397 130.258 220.331 132.725 222.838 134.396" stroke="black" stroke-linecap="round" stroke-linejoin="round"/>
    <path d="M213.775 129.605C212.905 130.501 212.601 131.626 212.897 132.842C213.198 134.078 214.054 134.767 215.199 135.014C216.376 135.269 217.51 134.899 218.206 133.849C218.717 133.078 218.818 132.392 218.552 131.505" stroke="black" stroke-linecap="round" stroke-linejoin="round"/>
    <path d="M215.846 131.936C215.18 132.905 216.549 132.157 215.846 131.806" stroke="black" stroke-linecap="round" stroke-linejoin="round"/>
    <path d="M202.052 125.005C207.631 125.898 213.016 125.634 218.695 126.598C221.237 127.03 222.543 127.796 225.052 128.339C228.321 129.046 231.717 128.429 235.052 128.339C237.379 128.276 242.661 127.396 247.552 127.505C253.472 127.638 256.832 128.079 262.586 129.476" stroke="black" stroke-linecap="round" stroke-linejoin="round"/>
    <path d="M198.756 126.239C198.54 127.807 198.73 129.493 198.303 131.029C197.942 132.327 201.167 140.677 202.252 141.545C205.892 144.458 213.028 144.228 217.4 144.106C219.241 144.055 221.867 143.38 223.219 142.027C225.36 139.887 224.937 134.965 226.981 133.389C228.392 132.301 231.403 132.381 232.484 133.878C234.491 136.657 233.354 141.531 235.67 143.847C236.958 145.135 239.77 146.634 241.605 146.818C245.246 147.182 248.801 147.84 252.48 147.595C260.826 147.595 262.457 135.968 262.457 129.605" stroke="black" stroke-linecap="round" stroke-linejoin="round"/>
    <path d="M258.962 131.806C253.203 127.967 240.204 127.632 234.879 131.547C233.564 134.289 234.448 140.112 236.577 142.545C239.136 145.47 243.228 145.247 247.726 145.53C250.699 145.717 253.917 146.432 255.336 145.012C258.009 142.339 261.472 135.571 258.962 131.806Z" stroke="black" stroke-linecap="round" stroke-linejoin="round"/>
    <path d="M222.809 140.121C224.184 137.794 224.661 134.984 225.14 132.353C226.192 126.562 206.763 127.247 202.552 128.005C199.83 129.82 201.802 140.831 204.971 141.711C208.062 142.57 212.383 143.005 215.552 143.005C217.829 143.005 221.547 142.257 222.809 140.121Z" stroke="black" stroke-linecap="round" stroke-linejoin="round"/>
    <path d="M198.367 129.346C197.97 128.567 197.539 127.802 197.101 127.044C196.755 126.445 196.599 125.759 196.166 125.203C195.907 124.869 195.404 123.938 195.404 123.527C195.404 122.993 195.84 122.225 196.008 121.707C196.242 120.984 198.432 123.517 198.691 123.915C199.448 125.079 200.698 125.259 201.993 125.074" stroke="black" stroke-linecap="round" stroke-linejoin="round"/>
    <path d="M262.457 129.346C264.078 128.106 265.462 126.557 267.118 125.361C268.208 124.574 268.139 126.199 268.139 127.016C268.139 128.466 263.261 132.298 262.457 133.505" stroke="black" stroke-linecap="round" stroke-linejoin="round"/>
    <path d="M245.467 126.21C243.32 126.639 241.525 127.922 239.274 127.922C236.306 127.922 236.31 124.579 238.893 123.649C242.159 122.241 245.932 121.849 249.438 122.455C252.824 123.041 256.587 123.994 259.091 126.498C257.137 125.521 254.5 124.815 252.293 124.815C249.996 124.815 247.707 125.762 245.467 126.21Z" stroke="black" stroke-linecap="round" stroke-linejoin="round"/>
    <path d="M203.158 124.685C205.047 123.596 207.476 121.514 209.603 121.031C213.772 120.084 222.232 122.976 224.902 125.98C225.536 126.692 226.104 128.005 224.902 128.005" stroke="black" stroke-linecap="round" stroke-linejoin="round"/>
    <path d="M205.552 125.203C207.815 125.158 211.327 125.687 213.552 126.005" stroke="black" stroke-linecap="round" stroke-linejoin="round"/>
    <path d="M219.989 153.558C219.837 152.606 219.719 150.602 221.284 151.558C223.855 153.129 225.456 156.505 229.052 156.505C232.552 156.505 234.723 153.561 236.821 152.162C237.21 151.903 238.131 152.034 237.72 152.651C237.373 153.172 237.036 153.436 236.433 153.586C236.171 153.652 235.034 153.942 235.656 153.493C236.19 153.107 236.766 152.849 237.339 152.522" stroke="black" stroke-linecap="round" stroke-linejoin="round"/>
    <path d="M219.989 153.428C220.653 153.654 221.478 154.076 222.19 154.076C222.764 154.076 223.328 154.023 223.873 154.205" stroke="black" stroke-linecap="round" stroke-linejoin="round"/>
    <path d="M220.766 152.004C221.622 152.295 222.332 152.759 223.097 153.227C223.506 153.477 220.054 153.193 220.011 152.896C219.963 152.557 220.932 151.397 220.766 152.392" stroke="black" stroke-linecap="round" stroke-linejoin="round"/>
    <path d="M224.78 141.905C224.957 143.397 224.558 144.744 223.485 145.789C222.314 146.929 220.435 147.418 219.213 149.156C218.355 150.374 217.398 151.348 217.688 152.651C217.949 153.827 219.05 154.852 220.248 154.852" stroke="black" stroke-linecap="round" stroke-linejoin="round"/>
    <path d="M235.008 155.5C236.489 155.529 238.755 156.207 239.9 154.723C241.129 153.129 240.837 150.713 239.799 149.156" stroke="black" stroke-linecap="round" stroke-linejoin="round"/>
    <path d="M212.04 164.742C216.098 164.742 220.24 162.534 224.638 162.534C226.199 162.534 227.611 163.083 229.055 163.574C230.384 163.121 231.643 162.416 233.081 162.765C237.421 163.821 242.058 165.652 246.589 165.652" stroke="black" stroke-linecap="round" stroke-linejoin="round"/>
    <path d="M212.039 164.872C213.659 165.158 215.132 166.029 216.585 166.756C219.241 168.084 222.423 167.858 225.287 168.379C226.645 168.626 227.903 169.418 229.321 169.418C230.757 169.418 231.856 169.174 233.21 168.798C234.519 168.434 235.771 168.379 237.136 168.379C240.115 168.379 243.324 167.438 245.809 165.782" stroke="black" stroke-linecap="round" stroke-linejoin="round"/>
    <path d="M219.833 173.575C221.975 176.662 226.987 175.003 230.086 175.003C233.323 175.003 236.958 177.375 239.055 173.704" stroke="black" stroke-linecap="round" stroke-linejoin="round"/>
    <path d="M259.684 154.776C258.92 156.01 258.235 156.439 256.936 156.907C255.901 157.279 255.076 158.043 254.596 159.003C253.466 161.263 252.047 163.399 251.074 165.735" stroke="black" stroke-linecap="round" stroke-linejoin="round"/>
    <path d="M274.033 134.43C274.374 132.101 274.998 129.657 273.551 127.577C271.409 124.497 265.183 134.776 266.725 138.202C267.364 139.622 267.973 141.103 266.471 142.272C265.059 143.37 265.09 144.912 265.053 146.595C264.926 152.472 265.904 160.628 263.793 166.217C261.158 173.193 253.638 178.898 248.552 183.983C245.752 186.783 244.701 190.409 241.052 192.005C233.052 195.505 227.552 195.005 219.052 192.505C214.459 191.155 213.716 186.88 210.24 183.983C204.344 179.07 198.768 171.984 196.963 164.362C195.519 158.264 196.526 150.717 196.526 144.433C196.526 142.889 196.549 141.445 196.132 139.944C195.709 138.421 194.375 137.262 196.175 136.198C198.079 135.073 196.744 128.062 196.21 126.396" stroke="black" stroke-linecap="round" stroke-linejoin="round"/>
    <path d="M194.95 123.087C194.228 122.104 192.835 120.041 191.327 121.214C190.31 122.006 189.773 124.326 189.594 125.529C188.767 131.114 189.816 137.715 191.721 143.007C192.154 144.209 193.262 145.231 193.848 146.402C194.171 147.049 194.286 147.642 194.95 148.048C195.81 148.573 196.189 147.998 196.368 147.19" stroke="black" stroke-linecap="round" stroke-linejoin="round"/>
    <path d="M191.327 129.546C191.053 128.535 190.777 125.766 192.43 125.766C193.922 125.766 194.486 127.757 194.863 128.995C195.391 130.731 194.211 131.588 193.296 132.855C192.343 134.174 192.572 135.329 193.06 136.793" stroke="black" stroke-linecap="round" stroke-linejoin="round"/>
    <path d="M268.046 127.026C269.044 125.721 270.325 124.436 271.985 124.068C277.008 122.951 275.904 134.404 275.608 136.548C275.213 139.414 270.934 155.635 265.526 151.129" stroke="black" stroke-linecap="round" stroke-linejoin="round"/>
    <path d="M269.307 134.587C269.354 136.944 272.645 139.7 270.725 142.114C270.023 142.997 268.975 143.578 268.047 144.197" stroke="black" stroke-linecap="round" stroke-linejoin="round"/>
    <path d="M197.45 121.635C197.53 117.564 201.298 116.723 201.992 113.428C202.969 108.788 201.331 102.246 204.853 98.6231C211.834 91.4421 220.746 90.0941 230.296 90.0941C239.219 90.0941 257.247 92.7058 259.692 102.485C260.761 106.762 260.21 111.618 260.21 116.003C260.21 119.838 263.612 123.215 264.233 126.946" stroke="black" stroke-linecap="round" stroke-linejoin="round"/>
    <path d="M196.002 121.152C195.665 118.713 194.841 115.914 195.394 113.428C197.783 102.676 194.349 88.0051 205.979 81.4042C214.66 76.4768 221.208 70.5708 232.218 71.0246C240.357 71.3601 247.295 74.9958 251.842 78.0963C260.159 83.767 268.052 90.048 269.866 100.474C270.887 106.35 270.728 113.16 269.463 118.98C269.025 120.996 269.725 124.679 267.774 125.98" stroke="black" stroke-linecap="round" stroke-linejoin="round"/>
    <path d="M201.838 174.763C202.705 180.398 203.66 193.532 200.552 198.505" stroke="black" stroke-linecap="round" stroke-linejoin="round"/>
    <path d="M201.052 196.505C200.144 197.693 198.9 198.908 198.42 200.243C196.806 204.724 196.993 211.145 198.752 215.667C199.382 217.288 200.021 218.948 200.679 220.627M229.045 269.16C229.045 271.743 228.883 263.995 228.883 261.411C228.883 257.574 223.204 253.48 218.494 249.627" stroke="black" stroke-linecap="round" stroke-linejoin="round"/>
    <path d="M192.052 202.005C191.367 205.605 190.323 209.211 190.985 212.92C192.158 219.485 194.022 225.735 196.53 231.627M228.883 269.968C222.776 265.896 217.292 261.26 212.494 256.116" stroke="black" stroke-linecap="round" stroke-linejoin="round"/>
    <path d="M191.551 202.092C193.707 199.274 197.343 196.505 201.052 196.505" stroke="black" stroke-linecap="round" stroke-linejoin="round"/>
    <path d="M260.073 195.305C260.83 195.124 262.669 194.093 263.467 194.182C267.097 194.585 266.772 201.186 266.699 203.87C266.146 224.325 247.83 250.616 229.052 260.005" stroke="black" stroke-linecap="round" stroke-linejoin="round"/>
    <path d="M260.073 194.82C260.657 194.253 262.663 192.11 263.552 192.505C267.052 193.505 273.972 195.074 273.972 200.314C273.972 206.784 272.483 213.137 270.416 219.223C263.553 239.432 248.342 260.076 228.883 269.806" stroke="black" stroke-linecap="round" stroke-linejoin="round"/>
    <path d="M201.248 198.537C200.359 199.216 199.628 199.508 198.662 199.991" stroke="black" stroke-linecap="round" stroke-linejoin="round"/>
    <path d="M261.128 170.948C261.128 178.601 259.553 185.505 259.552 195.005C260.552 197.005 264.167 197.872 266.215 198.214" stroke="black" stroke-linecap="round" stroke-linejoin="round"/>
    <path d="M260.552 196.159C262.35 195.872 264.569 195.946 266.052 197.005" stroke="black" stroke-linecap="round" stroke-linejoin="round"/>
    <path d="M198.339 214.051C199.114 216.087 200.084 218.133 201.226 220.127M227.428 238.131C225.39 238.131 223.907 238.142 221.993 237.627M263.552 219.505C257.876 229.439 245.637 235.893 233.993 237.627" stroke="black" stroke-linecap="round" stroke-linejoin="round"/>
    <path d="M191.79 201.761C186.181 205.16 175.471 210.838 169.494 213.627C160.286 217.924 160.035 218.855 150.994 223.627C148.406 224.993 143.494 226.127 143.494 230.127" stroke="black" stroke-linecap="round" stroke-linejoin="round"/>
    <path d="M143.493 230.127C142.78 232.71 141.984 239.454 142.619 241.994C147.993 276.667 141.493 284.667 141.993 317.667" stroke="black" stroke-linecap="round" stroke-linejoin="round"/>
    <path d="M241.793 218.998C246.225 217.616 250.872 215.211 255.438 214.45" stroke="black" stroke-linecap="round" stroke-linejoin="round"/>
    <path d="M203.387 209.396C205.819 210.06 208.074 210.782 210.227 211.627" stroke="black" stroke-linecap="round" stroke-linejoin="round"/>
    <path d="M295.36 329.163C296.181 329.984 300.998 337.163 301.396 333.178C303.086 316.286 301.913 299.155 303.951 282.166" stroke="black" stroke-linecap="round" stroke-linejoin="round"/>
    <path d="M274.052 201.505C276.994 205.627 280.149 205.81 285.494 209.127C299.994 216.627 304.494 215.627 323.494 228.627C324.422 241.421 321.206 260.272 318.353 270.543C315.553 284.397 313.097 297.876 307.994 311.083C305.444 317.684 303.228 324.713 301.93 331.69" stroke="black" stroke-linecap="round" stroke-linejoin="round"/>
    <path d="M302.052 331.505C303.178 337.907 305.017 348.289 305.495 354.739C306.254 364.986 305.495 379.505 308.052 389.505" stroke="black" stroke-linecap="round" stroke-linejoin="round"/>
    <path d="M310.015 386.267C311.435 389.343 312.355 387.864 314.872 387.025C322.246 384.567 329.563 385.349 336.798 381.214" stroke="black" stroke-linecap="round" stroke-linejoin="round"/>
    <path d="M307.488 389.299C316.014 394.171 326.657 390.156 334.777 386.773" stroke="black" stroke-linecap="round" stroke-linejoin="round"/>
    <path d="M323.493 229.627C330.09 238.254 340.993 242.127 344.993 265.127C345.9 270.343 348.009 285.37 347.411 290.757C347.411 299.505 346.906 306.929 346.906 316.249C346.906 334.237 343.552 358.505 347.158 380.404C347.957 382 348.743 383.201 347.916 384.952C347.012 386.868 346.551 387.877 346.906 390.005" stroke="black" stroke-linecap="round" stroke-linejoin="round"/>
    <path d="M283.232 337.754C283.232 348.126 284.249 358.005 286.264 368.187C287.549 374.683 290.307 381.101 290.307 387.783" stroke="black" stroke-linecap="round" stroke-linejoin="round"/>
    <path d="M300.414 345.334C298.457 355.464 296.343 365.769 295.894 376.104C295.697 380.639 296.807 385.972 295.36 390.31" stroke="black" stroke-linecap="round" stroke-linejoin="round"/>
    <path d="M298.595 345.005C296.942 348.158 295.808 351.295 294.552 354.607" stroke="black" stroke-linecap="round" stroke-linejoin="round"/>
    <path d="M303.951 345.84C303.951 350.915 303.779 355.961 304.457 361C305.014 365.143 305.925 369.517 305.973 373.69C306.055 380.934 303.951 394.005 305.052 401.005" stroke="black" stroke-linecap="round" stroke-linejoin="round"/>
    <path d="M307.488 388.794C307.185 390.686 306.534 392.907 306.534 394.83C306.534 399.119 343.552 398.505 347.052 390.005" stroke="black" stroke-linecap="round" stroke-linejoin="round"/>
    <path d="M344.379 392.837C341.668 399.127 337.68 406.737 333.261 412.04" stroke="black" stroke-linecap="round" stroke-linejoin="round"/>
    <path d="M307.052 396.005C306.589 398.576 304.052 406.505 302.052 410.505" stroke="black" stroke-linecap="round" stroke-linejoin="round"/>
    <path d="M196.818 341.797C193.088 353.102 187.843 364.217 182.893 375.037C180.555 380.147 177.472 384.989 174.583 389.805" stroke="black" stroke-linecap="round" stroke-linejoin="round"/>
    <path d="M220.039 241.929C219.854 251.204 214.079 255.719 206.281 259.618" stroke="black" stroke-linecap="round" stroke-linejoin="round"/>
    <path d="M138.397 381.474C138.397 388.446 139.993 401.627 138.397 409.627" stroke="black" stroke-linecap="round" stroke-linejoin="round"/>
    <path d="M190.493 249.667C193.009 244.076 192.364 242.667 193.998 239.035C196.073 234.425 197.703 229.087 199.184 224.24C201.047 218.144 206.952 215.507 210.733 210.708C212.581 208.292 214.081 205.778 215.753 203.269C217.313 200.93 218.166 198.188 219.606 195.83C220.864 193.773 224.993 194.127 226.493 194.127C228.993 194.299 231.823 193.956 233.973 194.127C236.473 197.31 237.65 201.332 238.3 205.238C237.409 206.129 234.874 205.807 233.973 204.971C232.393 203.503 231.549 202.011 230.861 199.987C228.606 201.645 226.362 202.613 223.641 202.613C223.576 205.86 220.744 209.502 218.993 212.127" stroke="black" stroke-linecap="round" stroke-linejoin="round"/>
    <path d="M219.922 241.556C220.744 240.439 220.93 239.485 221.453 238.275C221.689 237.73 221.69 236.143 222.329 236.087C224.165 235.925 225.921 234.936 227.798 234.993C228.293 235.008 228.017 236.728 228.017 237.181C228.017 238.202 228.29 238.904 227.093 238.931C224.255 238.995 221.993 242.627 221.993 244.127C222.493 244.627 223.264 244.969 224.493 244.627C225.437 244.365 226.41 244.174 227.361 243.963C228.659 243.675 232.057 243.241 232.734 241.994C233.586 240.424 233.341 238.233 233.815 236.524C234.276 234.865 234.362 232.565 234.362 230.836" stroke="black" stroke-linecap="round" stroke-linejoin="round"/>
    <path d="M222.548 226.679C224.088 227.779 226.763 229.08 228.674 229.292C230.437 229.488 232.442 230.269 234.143 230.836" stroke="black" stroke-linecap="round" stroke-linejoin="round"/>
    <path d="M223.642 225.585C225.641 225.865 227.405 225.356 229.33 224.929C230.139 224.749 230.677 224.054 231.518 224.054C232.374 224.054 232.493 225.093 232.612 225.804C231.86 227.068 231.299 227.85 231.299 229.304" stroke="black" stroke-linecap="round" stroke-linejoin="round"/>
    <path d="M219.266 212.239C223.923 211.417 228.629 209.949 233.269 209.176C235.947 210.515 236.311 212.117 236.769 214.865C236.539 216.141 235.493 217.127 234.993 218.627" stroke="black" stroke-linecap="round" stroke-linejoin="round"/>
    <path d="M224.298 218.146C226.038 217.868 227.836 217.603 229.549 217.223C230.881 216.927 232.529 215.573 233.269 217.052C235.992 219.696 238.301 222.488 238.301 226.46C237.329 228.092 236.493 229.627 235.894 231.492C235.493 232.127 235.216 232.068 234.581 232.586" stroke="black" stroke-linecap="round" stroke-linejoin="round"/>
    <path d="M140.113 370.325C140.523 366.381 143.082 362.728 144.629 359.12" stroke="black" stroke-linecap="round" stroke-linejoin="round"/>
    <path d="M142.993 228.627C115.284 247.985 114.552 269.941 114.552 304.005C113.052 310.005 111.92 325.61 111.92 330.062C110.645 337.712 110.882 345.891 109 353.42C109 364.103 112.015 376.422 124.64 378.526C130.741 379.603 136.142 380.492 142.329 380.492C145.511 379.391 149.493 378.297 152.268 376.298C154.126 374.961 155.439 373.676 156.909 371.911" stroke="black" stroke-linecap="round" stroke-linejoin="round"/>
    <path d="M207.265 259.618C197.212 273.859 192.93 291.821 188.811 308.753C186.878 316.702 184.086 343.325 176.993 352.627C174.993 355.627 169.993 361.627 166.493 364.627C160.493 369.127 156.622 371.698 150.519 374.004C146.951 375.352 141.993 376.847 139.444 376.847C137.493 375.627 134.493 372.63 133.493 368.627C131.994 362.627 132.993 348.127 133.493 341.627C133.644 334.818 137.385 326.655 140.44 320.546C146.685 308.055 155.38 296.096 164.079 285.223C173.175 273.853 181.885 261.586 190.558 249.79" stroke="black" stroke-linecap="round" stroke-linejoin="round"/>
    <path d="M141.411 317.098C138.456 320.581 136.139 324.42 133.544 328.137C132.193 330.071 131.413 332.091 130.707 334.318C129.78 337.241 128.573 340.048 128.124 343.109C127.548 347.033 127.544 350.991 127.544 354.945" stroke="black" stroke-linecap="round" stroke-linejoin="round"/>
    <path d="M137.17 318.24C133.216 321.479 127.143 325.033 124.69 329.75C122.788 333.406 120.438 336.785 118.572 340.517C116.909 343.842 115.962 347.719 115.962 351.438C115.962 355.123 116.132 359.314 117.43 362.776" stroke="black" stroke-linecap="round" stroke-linejoin="round"/>
    <path d="M223.847 225.928C223.574 226.207 223.501 226.5 223.61 226.875" stroke="black" stroke-linecap="round"/>
</svg>
