<svg width="408" height="240" viewBox="0 0 408 240" fill="none" xmlns="http://www.w3.org/2000/svg">
<path d="M358.619 155.111C359.254 157.016 359.254 159.132 359.254 159.132C359.254 159.834 355.843 161.46 351.635 161.46C347.427 161.46 344.016 159.834 344.016 159.132C344.016 159.132 344.016 157.016 344.65 155.111C346.344 155.323 350.111 156.381 351.635 156.381C353.158 156.381 356.926 155.323 358.619 155.111Z" fill="#FAFAFA"/>
<path d="M341.476 160.825V169.997C341.476 171.945 346.024 173.524 351.635 173.524C357.245 173.524 361.794 171.945 361.794 169.997V160.825C360.524 162.095 355.724 163.365 351.635 163.365C347.545 163.365 342.534 161.884 341.476 160.825Z" fill="#F4F4F4"/>
<path d="M344.016 150.667V154.335C344.016 155.114 347.427 156.381 351.635 156.381C355.843 156.381 359.254 155.114 359.254 154.335V150.667H344.016Z" fill="#F4F4F4"/>
<path d="M351.635 163.365C357.245 163.365 361.794 161.944 361.794 160.19C361.792 159.556 360.518 158.921 359.248 158.921C359.248 159.556 357.726 161.46 351.635 161.46C345.544 161.46 344.014 159.556 344.01 158.921C341.978 158.921 341.474 159.767 341.476 160.19C341.476 161.944 346.024 163.365 351.635 163.365Z" fill="#F2F2F2"/>
<path d="M351.64 204.635C357.25 204.635 361.799 203.214 361.799 201.46V176.647C361.799 172.355 357.984 173.524 357.984 173.524C357.984 173.524 354.282 174.212 351.635 174.159C349.801 174.122 347.19 174.159 345.286 173.524C343.381 172.889 341.284 175.306 341.496 176.647V201.46C341.496 203.214 346.029 204.635 351.64 204.635Z" fill="#F29733"/>
<path d="M343.381 178.603C343.381 176.699 343.381 175.429 344.651 174.794L347.19 175.429C347.402 184.106 347.19 200.191 347.19 202.096C344.651 202.096 344.016 201.461 343.381 200.826L343.381 200.826V178.603Z" fill="white"/>
<path d="M346.556 148.127H356.714L354.274 126.159C354.217 125.653 353.789 125.27 353.28 125.27H349.99C349.481 125.27 349.053 125.653 348.997 126.159L346.556 148.127Z" fill="white"/>
<path d="M351.635 198.921C357.245 198.921 361.794 197.499 361.794 195.746V177.968C361.794 179.722 357.245 181.143 351.635 181.143C346.024 181.143 341.476 179.722 341.476 177.968V195.746C341.476 197.499 346.024 198.921 351.635 198.921Z" fill="#F4F4F4"/>
<path d="M358.619 155.111C359.254 157.016 359.254 159.132 359.254 159.132C359.254 159.834 355.843 161.46 351.635 161.46C347.427 161.46 344.016 159.834 344.016 159.132C344.016 159.132 344.016 157.016 344.651 155.111" stroke="black" stroke-linecap="round" stroke-linejoin="round"/>
<path d="M341.477 160.825V169.997C341.477 171.945 346.025 174.159 351.635 174.159C357.246 174.159 361.794 171.945 361.794 169.997V160.825" stroke="black" stroke-linecap="round" stroke-linejoin="round"/>
<path d="M344.016 150.667V154.335C344.016 155.114 347.427 156.381 351.635 156.381C355.843 156.381 359.254 155.114 359.254 154.335V150.667" stroke="black" stroke-linecap="round" stroke-linejoin="round"/>
<path d="M359.249 158.921C360.519 158.921 361.792 159.556 361.794 160.19C361.794 161.944 357.246 164 351.635 164C346.025 164 341.477 161.944 341.477 160.19C341.475 159.767 341.979 158.921 344.011 158.921" stroke="black" stroke-linecap="round" stroke-linejoin="round"/>
<path d="M362.294 195.746C362.294 195.47 362.07 195.246 361.794 195.246C361.518 195.246 361.294 195.47 361.294 195.746H362.294ZM341.996 195.746C341.996 195.47 341.772 195.246 341.496 195.246C341.22 195.246 340.996 195.47 340.996 195.746H341.996ZM362.294 177.968C362.294 177.692 362.07 177.468 361.794 177.468C361.518 177.468 361.294 177.692 361.294 177.968H362.294ZM341.996 177.968C341.996 177.692 341.772 177.468 341.496 177.468C341.22 177.468 340.996 177.692 340.996 177.968H341.996ZM341.496 176.647H341.996V176.647L341.496 176.647ZM357.984 173.524L358.076 174.015L358.104 174.01L358.131 174.002L357.984 173.524ZM351.635 174.159L351.645 173.659L351.635 174.159ZM361.294 195.746C361.294 195.951 361.16 196.239 360.698 196.58C360.247 196.913 359.561 197.235 358.669 197.514C356.891 198.069 354.404 198.421 351.635 198.421V199.421C354.477 199.421 357.069 199.061 358.968 198.468C359.914 198.172 360.716 197.81 361.293 197.384C361.859 196.965 362.294 196.417 362.294 195.746H361.294ZM351.635 198.421C348.882 198.421 346.403 197.953 344.625 197.337C343.734 197.028 343.039 196.689 342.577 196.368C342.346 196.206 342.19 196.061 342.097 195.94C342.001 195.817 341.996 195.754 341.996 195.746H340.996C340.996 196.055 341.133 196.329 341.307 196.554C341.483 196.78 341.724 196.992 342.005 197.188C342.568 197.58 343.356 197.956 344.298 198.282C346.187 198.936 348.777 199.421 351.635 199.421V198.421ZM361.294 177.968C361.294 178.173 361.16 178.461 360.698 178.802C360.247 179.135 359.561 179.457 358.669 179.736C356.891 180.291 354.404 180.643 351.635 180.643V181.643C354.477 181.643 357.069 181.284 358.968 180.69C359.914 180.394 360.716 180.032 361.293 179.606C361.859 179.187 362.294 178.64 362.294 177.968H361.294ZM351.635 180.643C348.866 180.643 346.384 180.291 344.611 179.736C343.722 179.457 343.039 179.136 342.589 178.802C342.13 178.462 341.996 178.174 341.996 177.968H340.996C340.996 178.639 341.428 179.186 341.994 179.606C342.568 180.032 343.368 180.394 344.312 180.69C346.206 181.284 348.794 181.643 351.635 181.643V180.643ZM361.299 201.46C361.299 201.666 361.165 201.953 360.704 202.294C360.252 202.628 359.566 202.949 358.674 203.228C356.896 203.784 354.409 204.135 351.64 204.135V205.135C354.482 205.135 357.074 204.776 358.973 204.182C359.919 203.887 360.721 203.524 361.298 203.098C361.865 202.68 362.299 202.132 362.299 201.46H361.299ZM351.64 204.135C348.871 204.135 346.388 203.784 344.614 203.228C343.724 202.949 343.04 202.628 342.59 202.294C342.13 201.954 341.996 201.666 341.996 201.46H340.996C340.996 202.131 341.429 202.679 341.995 203.098C342.57 203.524 343.37 203.887 344.315 204.182C346.21 204.776 348.799 205.135 351.64 205.135V204.135ZM341.996 201.46V176.647H340.996V201.46H341.996ZM341.996 176.647C341.996 176.456 342.076 176.152 342.27 175.794C342.459 175.444 342.739 175.078 343.09 174.763C343.792 174.133 344.733 173.742 345.8 174.009L346.042 173.039C344.569 172.67 343.298 173.232 342.422 174.018C341.984 174.411 341.634 174.869 341.391 175.318C341.152 175.758 340.996 176.229 340.996 176.647L341.996 176.647ZM357.984 173.524C358.131 174.002 358.13 174.002 358.13 174.002C358.13 174.002 358.13 174.002 358.13 174.002C358.13 174.002 358.13 174.002 358.129 174.002C358.129 174.002 358.129 174.002 358.13 174.002C358.13 174.002 358.131 174.002 358.134 174.001C358.138 174 358.146 173.998 358.157 173.995C358.179 173.989 358.213 173.98 358.258 173.97C358.349 173.949 358.481 173.924 358.639 173.905C358.962 173.867 359.371 173.859 359.768 173.961C360.156 174.06 360.522 174.261 360.798 174.642C361.077 175.027 361.299 175.646 361.299 176.647H362.299C362.299 175.502 362.044 174.658 361.608 174.055C361.168 173.448 360.581 173.137 360.016 172.992C359.458 172.849 358.914 172.865 358.521 172.912C358.323 172.935 358.156 172.968 358.038 172.994C357.979 173.008 357.931 173.02 357.897 173.029C357.88 173.033 357.867 173.037 357.857 173.04C357.852 173.042 357.848 173.043 357.845 173.044C357.843 173.044 357.842 173.045 357.84 173.045C357.84 173.045 357.839 173.045 357.839 173.045C357.839 173.046 357.838 173.046 357.838 173.046C357.838 173.046 357.838 173.046 357.984 173.524ZM361.299 176.647V201.46H362.299V176.647H361.299ZM345.8 174.009C348.4 174.659 349.792 174.622 351.625 174.659L351.645 173.659C349.81 173.622 348.521 173.658 346.042 173.039L345.8 174.009ZM351.625 174.659C352.987 174.686 354.605 174.523 355.868 174.357C356.502 174.274 357.053 174.188 357.445 174.124C357.642 174.092 357.799 174.065 357.907 174.046C357.961 174.036 358.003 174.029 358.031 174.024C358.045 174.021 358.056 174.019 358.064 174.018C358.068 174.017 358.07 174.016 358.072 174.016C358.073 174.016 358.074 174.016 358.075 174.016C358.075 174.016 358.075 174.016 358.075 174.016C358.075 174.015 358.076 174.015 358.076 174.015C358.076 174.015 358.076 174.015 357.984 173.524C357.893 173.032 357.893 173.032 357.893 173.032C357.893 173.032 357.893 173.032 357.893 173.032C357.893 173.032 357.893 173.032 357.892 173.032C357.892 173.032 357.892 173.033 357.891 173.033C357.889 173.033 357.887 173.033 357.883 173.034C357.877 173.035 357.866 173.037 357.853 173.04C357.826 173.044 357.786 173.052 357.733 173.061C357.629 173.079 357.476 173.106 357.284 173.137C356.899 173.2 356.359 173.284 355.737 173.366C354.488 173.53 352.93 173.685 351.645 173.659L351.625 174.659Z" fill="black"/>
<path d="M359.633 150.667V151.167C359.694 151.167 359.755 151.156 359.812 151.134L359.633 150.667ZM359.633 144.318L359.812 143.85C359.755 143.829 359.694 143.818 359.633 143.818V144.318ZM343.637 144.318V143.818C343.576 143.818 343.516 143.829 343.459 143.85L343.637 144.318ZM343.637 150.667L343.459 151.134C343.516 151.156 343.576 151.167 343.637 151.167V150.667ZM362.564 147.492C362.564 147.924 362.337 148.392 361.807 148.873C361.276 149.354 360.48 149.809 359.455 150.199L359.812 151.134C360.904 150.718 361.823 150.207 362.478 149.614C363.133 149.02 363.564 148.304 363.564 147.492H362.564ZM359.455 144.785C360.48 145.175 361.276 145.63 361.807 146.111C362.337 146.593 362.564 147.06 362.564 147.492H363.564C363.564 146.681 363.133 145.964 362.478 145.37C361.823 144.777 360.904 144.267 359.812 143.85L359.455 144.785ZM359.633 143.818H343.637V144.818H359.633V143.818ZM340.707 147.492C340.707 147.06 340.933 146.593 341.464 146.111C341.995 145.63 342.79 145.175 343.815 144.785L343.459 143.85C342.366 144.267 341.447 144.777 340.792 145.37C340.137 145.964 339.707 146.681 339.707 147.492H340.707ZM343.815 150.199C342.79 149.809 341.995 149.354 341.464 148.873C340.933 148.392 340.707 147.924 340.707 147.492H339.707C339.707 148.304 340.137 149.02 340.792 149.614C341.447 150.207 342.366 150.718 343.459 151.134L343.815 150.199ZM343.637 151.167H359.633V150.167H343.637V151.167Z" fill="black"/>
<path fill-rule="evenodd" clip-rule="evenodd" d="M359.633 150.667C361.75 149.86 363.064 148.736 363.064 147.492C363.064 146.248 361.75 145.124 359.633 144.318H343.637C341.52 145.124 340.207 146.248 340.207 147.492C340.207 148.736 341.52 149.86 343.637 150.667H359.633Z" fill="#FAFAFA"/>
<path d="M359.633 150.667V151.167C359.694 151.167 359.755 151.156 359.812 151.134L359.633 150.667ZM359.633 144.318L359.812 143.85C359.755 143.829 359.694 143.818 359.633 143.818V144.318ZM343.637 144.318V143.818C343.576 143.818 343.516 143.829 343.459 143.85L343.637 144.318ZM343.637 150.667L343.459 151.134C343.516 151.156 343.576 151.167 343.637 151.167V150.667ZM362.564 147.492C362.564 147.924 362.337 148.392 361.807 148.873C361.276 149.354 360.48 149.809 359.455 150.199L359.812 151.134C360.904 150.718 361.823 150.207 362.478 149.614C363.133 149.02 363.564 148.304 363.564 147.492H362.564ZM359.455 144.785C360.48 145.175 361.276 145.63 361.807 146.111C362.337 146.593 362.564 147.06 362.564 147.492H363.564C363.564 146.681 363.133 145.964 362.478 145.37C361.823 144.777 360.904 144.267 359.812 143.85L359.455 144.785ZM359.633 143.818H343.637V144.818H359.633V143.818ZM340.707 147.492C340.707 147.06 340.933 146.593 341.464 146.111C341.995 145.63 342.79 145.175 343.815 144.785L343.459 143.85C342.366 144.267 341.447 144.777 340.792 145.37C340.137 145.964 339.707 146.681 339.707 147.492H340.707ZM343.815 150.199C342.79 149.809 341.995 149.354 341.464 148.873C340.933 148.392 340.707 147.924 340.707 147.492H339.707C339.707 148.304 340.137 149.02 340.792 149.614C341.447 150.207 342.366 150.718 343.459 151.134L343.815 150.199ZM343.637 151.167H359.633V150.167H343.637V151.167Z" fill="black"/>
<path d="M348.987 126.421L346.556 145.548C346.556 146.928 348.83 148.048 351.635 148.048C354.44 148.048 356.714 146.928 356.714 145.548L354.286 126.417C354.223 125.767 353.676 125.27 353.022 125.27H350.252C349.596 125.27 349.049 125.769 348.987 126.421Z" fill="white" stroke="black" stroke-linecap="round" stroke-linejoin="round"/>
<path d="M347.826 165.905V170.984" stroke="black" stroke-linecap="round" stroke-linejoin="round"/>
<path d="M344.016 164.635V169.714" stroke="black" stroke-linecap="round" stroke-linejoin="round"/>
<path d="M351.635 165.905V170.984" stroke="black" stroke-linecap="round" stroke-linejoin="round"/>
<path d="M355.445 165.905V170.984" stroke="black" stroke-linecap="round" stroke-linejoin="round"/>
<path d="M359.254 164.635V169.714" stroke="black" stroke-linecap="round" stroke-linejoin="round"/>
<ellipse cx="351.635" cy="125.905" rx="2.53968" ry="1.11111" fill="#FAFAFA" stroke="black" stroke-linecap="round" stroke-linejoin="round"/>
<path d="M98.5341 20.1688C103.493 15.2097 106.508 10.1846 105.268 8.94486C104.182 7.85885 100.192 10.0378 95.8853 13.9283L92.2937 17.5199C88.4031 21.8264 86.2242 25.8171 87.3102 26.9031C88.55 28.1429 93.5751 25.1278 98.5341 20.1688Z" fill="#F4F4F4"/>
<ellipse cx="87.0861" cy="8.72023" rx="6.34921" ry="1.5873" transform="rotate(-45 87.0861 8.72023)" fill="#F4F4F4"/>
<path d="M153.307 74.9415C154.299 73.9496 154.453 72.4957 154.205 72.2477L148.369 66.4113C147.92 67.4588 146.573 69.6438 144.777 70.0029L150.613 75.8394C150.861 76.0873 152.315 75.9333 153.307 74.9415Z" fill="#FAFAFA"/>
<path d="M96.2894 17.9238C95.2976 18.9156 94.2926 19.5187 94.0446 19.2707L86.8613 12.0874L90.453 8.49575L97.6363 15.6791C97.8842 15.927 97.2812 16.932 96.2894 17.9238Z" fill="#FAFAFA"/>
<path d="M148.37 66.41C147.987 67.3586 147.745 67.9328 147.022 68.656C146.299 69.3788 145.725 69.62 144.777 70.0029C141.65 71.2657 138.402 70.811 136.247 68.656L93.147 25.5562L103.922 14.7812L147.022 57.881C149.177 60.036 149.633 63.2832 148.37 66.41Z" fill="#F4F4F4"/>
<path d="M136.695 69.105L133.553 65.9623C134.75 65.3637 137.683 63.6277 139.838 61.4727C141.993 59.3177 143.729 56.3845 144.328 55.1873L147.47 58.33C147.321 59.3776 146.303 62.191 143.43 65.0644C140.556 67.9377 137.743 68.9553 136.695 69.105Z" fill="#00B3CC"/>
<path d="M142.532 56.085C141.814 57.5217 141.036 58.4795 140.736 58.7788C138.043 56.0849 105.268 23.3116 101.677 19.7195C102.395 19.0012 103.024 17.7741 103.473 17.0258L142.532 56.085Z" fill="#FAFAFA"/>
<path d="M94.4937 23.3114L95.3916 18.8218L98.0854 16.1281L95.8406 13.8833L101.228 10.2916C103.024 8.49579 106.167 8.04683 104.82 11.1895C102.76 15.9962 97.3371 21.3659 94.4937 23.3114Z" fill="#FAFAFA"/>
<path d="M143.879 54.7383C144.623 55.4822 142.814 58.4973 139.838 61.4727C136.863 64.4481 133.848 66.2572 133.104 65.5133" stroke="black" stroke-linecap="round" stroke-linejoin="round"/>
<path d="M136.696 47.555C137.439 48.2989 135.63 51.314 132.655 54.2894" stroke="black" stroke-linecap="round" stroke-linejoin="round"/>
<path d="M131.757 42.6165C132.501 43.3604 130.692 46.3755 127.716 49.3509" stroke="black" stroke-linecap="round" stroke-linejoin="round"/>
<path d="M126.819 37.6779C127.562 38.4218 125.753 41.4369 122.778 44.4123" stroke="black" stroke-linecap="round" stroke-linejoin="round"/>
<path d="M121.88 32.7395C122.624 33.4833 120.815 36.4984 117.84 39.4738" stroke="black" stroke-linecap="round" stroke-linejoin="round"/>
<path d="M116.942 27.801C117.686 28.5449 115.876 31.5599 112.901 34.5353" stroke="black" stroke-linecap="round" stroke-linejoin="round"/>
<path d="M112.003 22.8624C112.747 23.6063 110.938 26.6213 107.963 29.5967" stroke="black" stroke-linecap="round" stroke-linejoin="round"/>
<path d="M107.064 17.9239C107.808 18.6678 105.999 21.6828 103.024 24.6583" stroke="black" stroke-linecap="round" stroke-linejoin="round"/>
<path d="M92.2937 17.5199C88.4031 21.8264 86.2242 25.8171 87.3102 26.9031C88.55 28.1429 93.5751 25.1278 98.5341 20.1688C103.493 15.2097 106.508 10.1846 105.268 8.94486C104.182 7.85885 100.192 10.0378 95.8853 13.9283" stroke="black" stroke-linecap="round" stroke-linejoin="round"/>
<ellipse cx="87.0861" cy="8.72023" rx="6.34921" ry="1.5873" transform="rotate(-45 87.0861 8.72023)" stroke="black" stroke-linecap="round" stroke-linejoin="round"/>
<path d="M144.777 70.0029L150.613 75.8394C150.861 76.0873 152.315 75.9333 153.307 74.9415C154.299 73.9496 154.453 72.4957 154.205 72.2477L148.369 66.4113" stroke="black" stroke-linecap="round" stroke-linejoin="round"/>
<path d="M86.8613 12.0874L94.0446 19.2707C94.2926 19.5187 95.2976 18.9156 96.2894 17.9238C97.2812 16.932 97.8842 15.927 97.6363 15.6791L90.453 8.49575" stroke="black" stroke-linecap="round" stroke-linejoin="round"/>
<path d="M147.022 57.881L147.375 57.5275L147.022 57.881ZM136.247 68.656L136.6 68.3024L136.247 68.656ZM148.37 66.41L148.833 66.5972L148.37 66.41ZM147.022 68.656L147.375 69.0096L147.022 68.656ZM144.777 70.0029L144.964 70.4665L144.964 70.4665L144.777 70.0029ZM104.275 14.4276C104.08 14.2324 103.764 14.2324 103.568 14.4276C103.373 14.6229 103.373 14.9395 103.568 15.1347L104.275 14.4276ZM93.5005 25.2026C93.3053 25.0073 92.9887 25.0073 92.7934 25.2026C92.5982 25.3979 92.5982 25.7144 92.7934 25.9097L93.5005 25.2026ZM146.668 58.2346C146.664 58.2305 146.692 58.256 146.71 58.3622C146.727 58.4675 146.728 58.6209 146.698 58.8267C146.638 59.2382 146.465 59.7855 146.167 60.425C145.575 61.6995 144.526 63.2617 143.077 64.7108L143.784 65.4179C145.31 63.8916 146.429 62.2341 147.074 60.8467C147.396 60.1553 147.609 59.5111 147.688 58.971C147.727 58.7009 147.736 58.4384 147.696 58.2002C147.658 57.963 147.565 57.7176 147.375 57.5275L146.668 58.2346ZM143.077 64.7108C141.627 66.1599 140.065 67.2088 138.791 67.8015C138.151 68.0989 137.604 68.2722 137.192 68.3323C136.987 68.3623 136.833 68.3612 136.728 68.3439C136.622 68.3264 136.596 68.2983 136.6 68.3024L135.893 69.0095C136.083 69.1996 136.329 69.2917 136.566 69.3307C136.804 69.3698 137.067 69.3612 137.337 69.3218C137.877 69.243 138.521 69.0298 139.212 68.7083C140.6 68.063 142.257 66.9442 143.784 65.4179L143.077 64.7108ZM147.906 66.2228C147.527 67.162 147.316 67.6549 146.668 68.3024L147.375 69.0096C148.175 68.2106 148.447 67.5552 148.833 66.5972L147.906 66.2228ZM146.668 68.3024C146.021 68.9494 145.528 69.1602 144.59 69.5392L144.964 70.4665C145.921 70.0799 146.576 69.8081 147.375 69.0096L146.668 68.3024ZM103.568 15.1347L146.668 58.2346L147.375 57.5275L104.275 14.4276L103.568 15.1347ZM92.7934 25.9097L135.893 69.0095L136.6 68.3024L93.5005 25.2026L92.7934 25.9097ZM144.59 69.5392C141.611 70.7422 138.587 70.2889 136.6 68.3024L135.893 69.0095C138.217 71.3331 141.689 71.7893 144.964 70.4665L144.59 69.5392ZM148.833 66.5972C150.156 63.3219 149.699 59.8509 147.375 57.5275L146.668 58.2346C148.655 60.2212 149.109 63.2445 147.906 66.2228L148.833 66.5972Z" fill="black"/>
<path d="M60.3177 181.73C70.891 181.73 75.5607 177.898 76.1901 176.016V141.571C76.1901 139.062 73.0157 135.381 71.1552 134.044V128.397C71.1552 123.952 65.3966 124.515 65.3966 123.952C66.0315 121.413 65.3966 118.873 65.3966 118.873C65.3966 117.603 65.3966 113.159 64.7617 112.524C64.1268 108.079 63.4918 106.175 62.222 104.905C61.5871 104.27 60.9522 103 57.1426 104.905C55.2379 108.079 55.2379 110.619 54.603 112.524L53.968 120.143C53.968 120.143 54.603 123.952 53.3331 123.952C50.6394 123.952 48.2537 126.492 48.2537 126.492V128.397C48.8887 129.667 48.2537 132.841 48.2537 134.044C44.7293 136.051 43.8094 138.556 43.1745 141.571C42.9647 152.861 42.671 175.012 43.1745 176.016C43.8038 177.27 47.1012 181.73 60.3177 181.73Z" fill="white"/>
<path d="M8.25391 156.334L10.7936 153.794C11.0052 152.312 12.8253 149.222 18.4126 148.715C20.3174 148.541 22.2222 146.175 24.1269 146.175C26.6666 144.27 31.7852 141.06 37.4603 147.445C42.5396 153.159 41.2698 166.492 35.5555 169.667C32.4158 171.411 27.7248 171.572 25.3968 170.937H20.3174C17.7777 171.148 13.3333 169.667 10.7936 166.492C9.7446 165.181 8.98192 163.971 8.5664 163.754C8.46092 163.825 8.35642 163.891 8.25391 163.953C8.3103 163.727 8.41544 163.675 8.5664 163.754C10.6385 162.364 13.0872 159.234 8.25391 156.334Z" fill="white"/>
<path d="M26.6669 158.873C26.6669 151.762 21.5875 149.138 19.0479 148.714L26.6669 144.905C30.8997 144.905 38.7304 148.714 38.7304 156.333C38.7304 166.492 32.1695 169.455 29.2066 170.302H19.6828C22.0108 169.455 26.6669 165.984 26.6669 158.873Z" fill="#E0E0E0"/>
<path d="M13.3334 166.492L8.25401 163.952L8.88893 155.698C9.94713 154.852 12.1905 153.159 12.6985 153.159C13.3334 153.159 20.9524 151.889 20.3175 159.508C19.8096 165.603 15.4498 166.704 13.3334 166.492Z" fill="#E6E6E6"/>
<path d="M63.4923 130.937L59.0479 129.032C61.0796 129.032 64.1272 127.762 65.3971 127.127L69.2066 129.032C69.8415 131.572 69.8415 132.841 69.8415 135.381C72.8891 135.889 73.651 141.942 73.651 144.905C74.7092 154.852 74.286 172.206 73.651 176.651C71.1113 178.175 68.36 178.556 67.3018 178.556V152.524V146.81C67.3018 140.714 64.7621 137.921 63.4923 137.286V130.937Z" fill="#E0E0E0"/>
<path d="M50.7936 152.524C66.0317 154.556 74.0741 150.831 76.1905 148.714V170.937C66.5395 177.54 55.238 175.804 50.7936 174.111L50.7936 173.474C50.7935 168.946 50.7933 156.145 50.7936 152.524Z" fill="#9E9E9E"/>
<path d="M76.1907 141.73C76.1907 144.886 68.7998 147.445 59.6827 147.445C50.5657 147.445 43.1748 144.886 43.1748 141.73" stroke="black" stroke-linecap="round" stroke-linejoin="round"/>
<path d="M71.1115 133.476C71.1115 135.661 65.9948 137.579 59.683 137.579C53.3711 137.579 48.2544 135.661 48.2544 133.476" stroke="black" stroke-linecap="round" stroke-linejoin="round"/>
<ellipse cx="59.683" cy="127.274" rx="11.4286" ry="3.95604" stroke="black" stroke-linecap="round" stroke-linejoin="round"/>
<path d="M76.1908 147.444C76.1908 150.6 68.7999 153.159 59.6828 153.159C56.4101 153.159 53.3598 152.829 50.7939 152.26V174.483C53.3598 175.051 56.4101 175.381 59.6828 175.381C68.7999 175.381 76.1908 172.823 76.1908 169.667" stroke="black" stroke-linecap="round" stroke-linejoin="round"/>
<path d="M48.2544 133.476L48.2544 127.127" stroke="black" stroke-linecap="round" stroke-linejoin="round"/>
<path d="M71.1113 133.476L71.1113 127.127" stroke="black" stroke-linecap="round" stroke-linejoin="round"/>
<path d="M48.2542 134.111C45.0796 134.746 43.1749 139.191 43.1748 141.73V175.381C43.1748 178.537 50.5657 181.73 59.6827 181.73C68.7998 181.73 76.1907 178.537 76.1907 175.381V142.365C76.1906 139.825 74.2859 134.746 71.1113 134.111" stroke="black" stroke-linecap="round" stroke-linejoin="round"/>
<rect x="53.8335" y="114.929" width="11.6984" height="11.6984" fill="#C4C4C4" stroke="black" stroke-linecap="round" stroke-linejoin="round"/>
<path fill-rule="evenodd" clip-rule="evenodd" d="M65.0866 113.159C63.9678 113.848 61.966 114.307 59.6827 114.307C57.3994 114.307 55.3976 113.848 54.2788 113.159C53.6794 113.528 53.3335 113.963 53.3335 114.429C53.3335 115.764 56.1761 116.846 59.6827 116.846C63.1893 116.846 66.0319 115.764 66.0319 114.429C66.0319 113.963 65.686 113.528 65.0866 113.159Z" fill="#C4C4C4"/>
<path d="M65.0866 113.159L65.3487 112.733C65.188 112.634 64.9852 112.634 64.8244 112.733L65.0866 113.159ZM54.2788 113.159L54.541 112.733C54.3802 112.634 54.1774 112.634 54.0167 112.733L54.2788 113.159ZM64.8244 112.733C63.8172 113.353 61.9213 113.807 59.6827 113.807V114.807C62.0107 114.807 64.1184 114.342 65.3487 113.585L64.8244 112.733ZM59.6827 113.807C57.4441 113.807 55.5483 113.353 54.541 112.733L54.0167 113.585C55.247 114.342 57.3547 114.807 59.6827 114.807V113.807ZM53.8335 114.429C53.8335 114.229 53.9883 113.925 54.541 113.585L54.0167 112.733C53.3706 113.131 52.8335 113.697 52.8335 114.429H53.8335ZM59.6827 116.346C57.9742 116.346 56.45 116.082 55.3711 115.671C54.8299 115.465 54.4264 115.232 54.167 114.998C53.9075 114.764 53.8335 114.571 53.8335 114.429H52.8335C52.8335 114.954 53.1149 115.396 53.4979 115.741C53.8811 116.086 54.4074 116.374 55.0152 116.605C56.2342 117.07 57.8846 117.346 59.6827 117.346V116.346ZM65.5319 114.429C65.5319 114.571 65.4579 114.764 65.1984 114.998C64.939 115.232 64.5355 115.465 63.9943 115.671C62.9154 116.082 61.3912 116.346 59.6827 116.346V117.346C61.4808 117.346 63.1312 117.07 64.3502 116.605C64.958 116.374 65.4843 116.086 65.8675 115.741C66.2505 115.396 66.5319 114.954 66.5319 114.429H65.5319ZM64.8244 113.585C65.3771 113.925 65.5319 114.229 65.5319 114.429H66.5319C66.5319 113.697 65.9948 113.131 65.3487 112.733L64.8244 113.585Z" fill="black"/>
<path fill-rule="evenodd" clip-rule="evenodd" d="M65.0866 119.508C63.9678 120.197 61.966 120.656 59.6827 120.656C57.3994 120.656 55.3976 120.197 54.2788 119.508C53.6794 119.877 53.3335 120.312 53.3335 120.778C53.3335 122.113 56.1761 123.195 59.6827 123.195C63.1893 123.195 66.0319 122.113 66.0319 120.778C66.0319 120.312 65.686 119.877 65.0866 119.508Z" fill="#C4C4C4"/>
<path d="M65.0866 119.508L65.3487 119.082C65.188 118.983 64.9852 118.983 64.8244 119.082L65.0866 119.508ZM54.2788 119.508L54.541 119.082C54.3802 118.983 54.1774 118.983 54.0167 119.082L54.2788 119.508ZM64.8244 119.082C63.8172 119.702 61.9213 120.156 59.6827 120.156V121.156C62.0107 121.156 64.1184 120.691 65.3487 119.934L64.8244 119.082ZM59.6827 120.156C57.4441 120.156 55.5483 119.702 54.541 119.082L54.0167 119.934C55.247 120.691 57.3547 121.156 59.6827 121.156V120.156ZM53.8335 120.778C53.8335 120.578 53.9883 120.274 54.541 119.934L54.0167 119.082C53.3706 119.48 52.8335 120.046 52.8335 120.778H53.8335ZM59.6827 122.695C57.9742 122.695 56.45 122.431 55.3711 122.02C54.8299 121.814 54.4264 121.581 54.167 121.347C53.9075 121.114 53.8335 120.92 53.8335 120.778H52.8335C52.8335 121.303 53.1149 121.746 53.4979 122.091C53.8811 122.435 54.4074 122.723 55.0152 122.955C56.2342 123.419 57.8846 123.695 59.6827 123.695V122.695ZM65.5319 120.778C65.5319 120.92 65.4579 121.114 65.1984 121.347C64.939 121.581 64.5355 121.814 63.9943 122.02C62.9154 122.431 61.3912 122.695 59.6827 122.695V123.695C61.4808 123.695 63.1312 123.419 64.3502 122.955C64.958 122.723 65.4843 122.435 65.8675 122.091C66.2505 121.746 66.5319 121.303 66.5319 120.778H65.5319ZM64.8244 119.934C65.3771 120.274 65.5319 120.578 65.5319 120.778H66.5319C66.5319 120.046 65.9948 119.48 65.3487 119.082L64.8244 119.934Z" fill="black"/>
<path fill-rule="evenodd" clip-rule="evenodd" d="M65.0866 124.587C63.9678 125.276 61.966 125.735 59.6827 125.735C57.3994 125.735 55.3976 125.276 54.2788 124.587C53.6794 124.956 53.3335 125.391 53.3335 125.857C53.3335 127.192 56.1761 128.275 59.6827 128.275C63.1893 128.275 66.0319 127.192 66.0319 125.857C66.0319 125.391 65.686 124.956 65.0866 124.587Z" fill="#C4C4C4"/>
<path d="M65.0866 124.587L65.3487 124.162C65.188 124.063 64.9852 124.063 64.8244 124.162L65.0866 124.587ZM54.2788 124.587L54.541 124.162C54.3802 124.063 54.1774 124.063 54.0167 124.162L54.2788 124.587ZM64.8244 124.162C63.8172 124.782 61.9213 125.235 59.6827 125.235V126.235C62.0107 126.235 64.1184 125.771 65.3487 125.013L64.8244 124.162ZM59.6827 125.235C57.4441 125.235 55.5483 124.782 54.541 124.162L54.0167 125.013C55.247 125.771 57.3547 126.235 59.6827 126.235V125.235ZM53.8335 125.857C53.8335 125.658 53.9883 125.353 54.541 125.013L54.0167 124.162C53.3706 124.559 52.8335 125.125 52.8335 125.857H53.8335ZM59.6827 127.775C57.9742 127.775 56.45 127.51 55.3711 127.099C54.8299 126.893 54.4264 126.66 54.167 126.427C53.9075 126.193 53.8335 126 53.8335 125.857H52.8335C52.8335 126.382 53.1149 126.825 53.4979 127.17C53.8811 127.515 54.4074 127.803 55.0152 128.034C56.2342 128.498 57.8846 128.775 59.6827 128.775V127.775ZM65.5319 125.857C65.5319 126 65.4579 126.193 65.1984 126.427C64.939 126.66 64.5355 126.893 63.9943 127.099C62.9154 127.51 61.3912 127.775 59.6827 127.775V128.775C61.4808 128.775 63.1312 128.498 64.3502 128.034C64.958 127.803 65.4843 127.515 65.8675 127.17C66.2505 126.825 66.5319 126.382 66.5319 125.857H65.5319ZM64.8244 125.013C65.3771 125.353 65.5319 125.658 65.5319 125.857H66.5319C66.5319 125.125 65.9948 124.559 65.3487 124.162L64.8244 125.013Z" fill="black"/>
<path d="M61.9404 104.995C61.9404 105.396 60.9297 105.72 59.6829 105.72C58.4361 105.72 57.4254 105.396 57.4254 104.995C57.4254 104.595 58.4361 104.27 59.6829 104.27C60.9297 104.27 61.9404 104.595 61.9404 104.995Z" fill="#F4F4F4"/>
<path d="M61.9404 104.995C61.9404 105.396 60.9297 105.72 59.6829 105.72C58.4361 105.72 57.4254 105.396 57.4254 104.995M61.9404 104.995C61.9404 104.595 60.9297 104.27 59.6829 104.27C58.4361 104.27 57.4254 104.595 57.4254 104.995M61.9404 104.995C62.881 105.207 64.7622 109.095 64.7622 113.159M57.4254 104.995C56.4848 105.207 54.6035 109.095 54.6035 113.159" stroke="black" stroke-linecap="round" stroke-linejoin="round"/>
<path d="M9.93262 154.429C11.4289 151.028 14.3808 148.714 17.7777 148.714C22.6869 148.714 26.6666 153.547 26.6666 159.508C26.6666 165.469 22.6869 170.302 17.7777 170.302C14.6641 170.302 11.9243 168.358 10.3367 165.415" stroke="black" stroke-linecap="round" stroke-linejoin="round"/>
<ellipse cx="8.21684" cy="160.143" rx="3.13726" ry="3.80952" fill="#C4C4C4" stroke="black" stroke-linecap="round" stroke-linejoin="round"/>
<path d="M22.2227 146.573C24.1714 144.732 26.6209 143.635 29.2815 143.635C35.6346 143.635 40.7848 149.889 40.7848 157.603C40.7848 165.318 35.6346 171.572 29.2815 171.572C27.5686 171.572 25.9432 171.117 24.4826 170.302" stroke="black" stroke-linecap="round" stroke-linejoin="round"/>
<path d="M7.61914 156.333L12.307 153.111C13.0097 152.733 13.7865 152.524 14.6033 152.524C17.7592 152.524 20.3176 155.651 20.3176 159.508C20.3176 162.545 18.6618 164.989 16.1616 166.001C15.4867 166.275 14.8447 166.444 13.9683 166.492C11.5301 166.627 8.25406 163.953 8.25406 163.953" stroke="black" stroke-linecap="round" stroke-linejoin="round"/>
<path d="M17.7778 148.714L26.0318 144.905C34.9207 144.905 38.6929 150.59 38.6929 157.603C38.6929 164.616 34.0109 170.301 28.2354 170.301H17.7778" stroke="black" stroke-linecap="round" stroke-linejoin="round"/>
<path d="M28.5718 158.873L36.8257 158.238" stroke="black" stroke-linecap="round" stroke-linejoin="round"/>
<path d="M28.5718 162.683H35.5559" stroke="black" stroke-linecap="round" stroke-linejoin="round"/>
<path d="M27.9365 155.698L36.1905 154.429" stroke="black" stroke-linecap="round" stroke-linejoin="round"/>
<path d="M27.3018 152.524L33.651 150.619" stroke="black" stroke-linecap="round" stroke-linejoin="round"/>
<path d="M27.3018 166.492H33.016" stroke="black" stroke-linecap="round" stroke-linejoin="round"/>
<path d="M24.1274 149.349C26.0322 148.714 27.937 148.079 29.8417 147.444" stroke="black" stroke-linecap="round" stroke-linejoin="round"/>
<path d="M360 17C359.545 17.1111 358.727 17.4667 359.091 18" stroke="white"/>
<path d="M377 51C377.863 52.2281 383.294 57.8421 382 63" stroke="white" stroke-linecap="round" stroke-linejoin="round"/>
<path d="M393 45C392.5 47 393 53.8 393 56" stroke="white" stroke-linecap="round" stroke-linejoin="round"/>
<path d="M366 66C366.556 60.8077 372.593 55.1154 375 53C377.5 50.5 377.911 49.0833 384 48C388.871 47.1333 399.649 42.6667 405 40.5" stroke="white" stroke-linecap="round" stroke-linejoin="round"/>
<path d="M374 53C371.778 51.9438 367.111 50.9155 361 52.5" stroke="white" stroke-linecap="round" stroke-linejoin="round"/>
<path d="M382 48C379.667 46 372.769 42.4547 369 43" stroke="white" stroke-linecap="round" stroke-linejoin="round"/>
<path d="M398 42.9999C395.653 40.8742 389.792 35.4203 386 35.9999" stroke="white" stroke-linecap="round" stroke-linejoin="round"/>
<path d="M369 38C353.4 40 347 28.5 347 23.5C346.5 22 350.833 19.1667 353.5 18L353.5 20C352 20.6667 349.3 22.3 350.5 23.5C352 25 358 27 369 26.5C377.8 26.1 383.334 23.3333 385 22L383.5 18C384.834 18.1667 388 19 388 21C388 23.5 388.5 35.5 369 38Z" fill="#F4F4F4"/>
<path d="M354.58 16.8889L354 18V19.5C353.167 19.8333 351.3 20.9 350.5 22.5C349.5 24.5 359.22 27 368.5 26.5C377.78 26 385.5 22.5 384.5 22C383.7 21.6 383.167 18.7963 383 17.4444L381.84 16.8889L380.1 15.2222L378.36 14.6667L377.2 13.5556L375.822 11.3333H374.3L373.72 10.2222L371.4 8.55556L368.5 8H365.6H362.7L360.96 9.11111L359.22 10.7778L358.06 11.3333L356.9 13L355.16 13.5556L354.58 15.2222V16.8889Z" fill="#EFF4CE"/>
<path d="M376.321 58.4599C375.21 55.8724 377.942 55.6568 379.101 55.8724C380.49 53.2849 382.488 53.9317 383.27 54.5786C389.523 59.7534 383.269 64.2818 381.88 64.9286C380.49 65.5755 377.711 61.6943 376.321 58.4599Z" fill="#EFF4CE"/>
<path d="M395.807 53.6182C396.796 48.0224 393.747 48.0224 392.099 48.7219C392.099 48.0224 389.626 45.2244 388.39 48.7219C387.402 51.5198 388.39 55.6167 390.245 57.1156C391.687 58.2814 394.818 59.2141 395.807 53.6182Z" fill="#EFF4CE"/>
<path d="M368.53 59.2033C369.089 58.6502 370 58.0575 370 59.338C370 61.0704 366.267 68 364.667 68C363.067 68 362 65.1127 362 63.3803C362 61.6479 364.133 57.0281 366.8 58.183C368.096 58.7443 368.473 59.0499 368.53 59.2033Z" fill="#EFF4CE"/>
<path d="M359.398 53.5136C364.26 54.6759 369.343 53.5135 371 52.5449C368.238 50.6077 366.58 49.6391 362.713 50.1234C360.698 50.3757 355.531 52.589 359.398 53.5136Z" fill="#EFF4CE"/>
<path d="M367.185 43.9685C368.045 44.911 374.167 47.503 379 46.9139C379 46.3248 378.463 42.2013 374.167 40.434C369.871 38.6668 366.111 42.7903 367.185 43.9685Z" fill="#EFF4CE"/>
<path d="M384.16 36.6344C384.984 37.4975 390.343 41.4895 394.979 40.9501C394.979 40.4106 395.495 35.0159 391.373 33.3975C387.251 31.7791 383.13 35.5555 384.16 36.6344Z" fill="#EFF4CE"/>
<path d="M375 22.0001C375.222 21.0908 375.933 19.4539 377 20.1814" stroke="black" stroke-linecap="round"/>
<path d="M369 21.0001C369.5 20.4045 370.8 19.4514 372 20.4045" stroke="black" stroke-linecap="round"/>
<path d="M374 15.0001C374.845 15.0001 376.408 15.4001 375.901 17.0001" stroke="black" stroke-linecap="round"/>
<path d="M368 13.0001C367.25 12.2455 365.6 11.189 365 13.0001" stroke="black" stroke-linecap="round"/>
<path d="M347 23.0001C347 33.1949 357.257 38.2458 367.287 37.9915C377.531 37.7317 388 32.8941 388 21.0001" stroke="black" stroke-linecap="round" stroke-linejoin="round"/>
<path d="M351.432 23.9377C348.724 22.6423 351.808 20.5191 353.689 19.6195L354.818 18.0001C351.432 19.0797 345.226 21.7786 347.483 23.9377C350.304 26.6367 358.203 28.7958 371.181 27.7162C380.209 26.9652 384.723 24.4775 387.544 21.7786C389.405 19.9982 385.099 18.18 383.03 18.0001L383.594 19.6195C383.782 20.1593 384.271 21.3468 384.723 21.7786C385.287 22.3184 380.773 25.0173 371.181 26.0969C361.589 27.1764 354.818 25.5571 351.432 23.9377Z" stroke="black" stroke-linecap="round" stroke-linejoin="round"/>
<path d="M354 18.0001L354.58 16.889V15.2223L355.16 13.5557L356.9 13.0001L358.06 11.3335L359.22 10.7779L360.96 9.11123L362.7 8.00012H365.6H368.5L371.4 8.55568L373.72 10.2223L374.3 11.3335H375.822L377.2 13.5557L378.36 14.6668L380.1 15.2223L381.84 16.889L383 17.4446" stroke="black" stroke-linecap="round" stroke-linejoin="round"/>
<path d="M359 17.0001C358.545 17.1112 357.727 17.4668 358.091 18.0001" stroke="black" stroke-linecap="round" stroke-linejoin="round"/>
<path d="M376 51.0001C376.863 52.2282 383.119 59.8422 381.824 65.0001" stroke="black" stroke-linecap="round" stroke-linejoin="round"/>
<path d="M376.321 58.46C375.21 55.8725 377.942 55.6569 379.101 55.8725C380.49 53.285 382.488 53.9318 383.27 54.5787C389.523 59.7535 383.269 64.2819 381.88 64.9288C380.49 65.5756 377.711 61.6944 376.321 58.46Z" stroke="black" stroke-linecap="round" stroke-linejoin="round"/>
<path d="M392.091 45.0001C391.636 47.1668 391.727 55.4001 392.091 58.0001" stroke="black" stroke-linecap="round" stroke-linejoin="round"/>
<path d="M395.807 53.6184C396.796 48.0225 393.747 48.0225 392.099 48.722C392.099 48.0225 389.626 45.2245 388.39 48.722C387.402 51.52 388.39 55.6168 390.244 57.1157C391.687 58.2816 394.818 59.2142 395.807 53.6184Z" stroke="black" stroke-linecap="round" stroke-linejoin="round"/>
<path d="M374 53.0001C371.593 55.1155 364.556 62.8078 364 68.0001" stroke="black" stroke-linecap="round" stroke-linejoin="round"/>
<path d="M368.4 59.3381C368.933 58.7606 370 57.9522 370 59.3381C370 61.0705 366.267 68.0001 364.667 68.0001C363.067 68.0001 362 65.1128 362 63.3804C362 61.648 364.133 57.0282 366.8 58.1831C368.933 59.1071 368.578 59.3381 368.4 59.3381Z" stroke="black" stroke-linecap="round" stroke-linejoin="round"/>
<path d="M405 40.0001C399.649 42.1668 387.729 46.7168 382.857 47.5835C376.768 48.6668 376.214 51.3751 374 53.0001" stroke="black" stroke-linecap="round" stroke-linejoin="round"/>
<path d="M373 53C370.778 51.9439 364.111 51.4157 358 53.0001" stroke="black" stroke-linecap="round" stroke-linejoin="round"/>
<path d="M359.398 53.5137C364.26 54.676 369.343 53.5136 371 52.545C368.238 50.6078 366.58 49.6393 362.713 50.1235C360.698 50.3758 355.531 52.5891 359.398 53.5137Z" stroke="black" stroke-linecap="round" stroke-linejoin="round"/>
<path d="M381 48.0001C378.667 46.0002 370.769 42.5119 367 43.0573" stroke="black" stroke-linecap="round" stroke-linejoin="round"/>
<path d="M397 43.0001C394.653 40.8744 387.792 35.4637 384 36.0433" stroke="black" stroke-linecap="round" stroke-linejoin="round"/>
<path d="M367.185 43.9686C368.045 44.9111 374.167 47.5031 379 46.914C379 46.3249 378.463 42.2014 374.167 40.4342C369.871 38.6669 366.111 42.7905 367.185 43.9686Z" stroke="black" stroke-linecap="round" stroke-linejoin="round"/>
<path d="M384.16 36.6345C384.984 37.4977 390.343 41.4897 394.979 40.9502C394.979 40.4107 395.495 35.016 391.373 33.3976C387.251 31.7792 383.13 35.5556 384.16 36.6345Z" stroke="black" stroke-linecap="round" stroke-linejoin="round"/>
<path d="M229.959 240L175.333 239.208C181.667 232.083 180.875 220.208 165.834 205.167C149.209 182.208 160.292 160.042 160.292 152.917C160.292 145.792 167.417 143.417 170.584 142.625C172.167 139.458 178.5 133.125 186.417 129.958C189.584 121.092 199.875 117.819 204.625 117.292C197.764 99.875 188.792 65.3678 198.292 64.25C211.75 62.6665 212.355 83.0632 214.125 84.8334C215.708 86.4165 218.611 98.8195 219.667 105.417C224.153 117.292 231.542 134.708 233.125 142.625C248.167 148.167 244.209 171.125 245 174.292C245.792 177.458 235.867 198.68 229.959 207.542C225.208 214.667 227.584 232.083 229.959 240Z" fill="white"/>
<path d="M229.102 239.208H219.113C223.109 231.217 217.448 219.785 214.119 215.068C219.113 213.404 222.443 212.571 229.102 208.409C225.772 221.062 227.715 234.214 229.102 239.208Z" fill="#E0E0E0"/>
<path d="M197.47 215.901C192.143 215.901 178.047 215.068 174.163 215.068C182.82 225.723 178.88 235.601 175.828 239.208C182.487 239.208 194.973 239.042 191.644 238.376C187.481 237.544 204.13 215.901 197.47 215.901Z" fill="#E0E0E0"/>
<path d="M170.001 174.28C168.199 168.481 169.723 163.459 168.336 159.297L181.655 173.448L183.319 185.101L191.644 186.766L196.638 184.269V174.28L202.465 185.101C203.852 184.824 207.126 184.269 209.124 184.269C211.122 184.269 211.621 182.049 211.621 180.939C211.899 174.558 213.286 162.127 213.286 163.459C213.286 163.525 213.33 163.583 213.412 163.633L208.292 146.81C212.673 149.03 221.637 153.47 222.443 153.47C222.766 153.47 223.481 155.011 224.222 157.133L223.275 152.637C224.385 152.637 226.771 152.804 227.437 153.47C228.27 154.302 232.432 167.621 232.432 168.453C232.432 169.119 228.547 168.731 226.605 168.453L226.465 167.791C226.408 168.6 226.195 169.145 225.772 169.286C225.171 169.486 224.102 169.314 222.834 168.962C222.71 169.067 222.58 169.175 222.443 169.286C219.199 171.894 211.621 184.269 211.621 184.269C210.234 188.431 206.96 196.256 204.962 194.258C204.13 191.761 199.968 193.426 196.638 194.258C193.974 194.924 188.869 191.761 186.649 190.096C183.319 188.431 176.494 184.935 175.828 184.269C174.995 183.437 171.221 178.207 170.001 174.28Z" fill="#E0E0E0"/>
<path d="M200.8 165.956C204.386 165.956 209.402 163.181 211.621 160.961C211.621 166.788 211.288 178.942 209.957 180.939C208.292 183.437 203.297 181.772 202.465 180.939C201.632 180.107 196.638 165.956 200.8 165.956Z" fill="#E0E0E0"/>
<path d="M184.152 172.615C186.506 170.261 191.921 169.563 194.141 167.621C194.696 172.615 194.64 182.105 193.308 183.437C191.976 184.768 188.314 183.992 185.817 183.437C183.874 179.83 183.319 173.448 184.152 172.615Z" fill="#E0E0E0"/>
<path d="M234.097 175.945C230.767 176.611 218.281 193.426 212.454 201.75C211.344 203.137 210.456 206.411 215.784 208.409C222.443 210.906 229.102 203.415 230.767 201.75C232.432 200.085 241.588 175.945 240.756 175.112C239.924 174.28 238.259 175.112 234.097 175.945Z" fill="#E0E0E0"/>
<path d="M227.437 140.983L215.784 137.654C217.448 134.324 209.124 122.67 208.292 121.838C207.459 121.006 215.784 125.168 215.784 126C215.784 126.666 223.553 133.769 227.437 140.983Z" fill="#E0E0E0"/>
<path d="M216.616 137.654C214.296 130.694 210.789 121.838 203.297 117.676C196.911 117.676 186.649 123.644 186.649 130.995" stroke="black" stroke-linecap="round"/>
<path d="M233.263 142.648C229.594 129.442 223.274 111.017 219.945 105.19C219.112 98.5303 216.615 91.0386 213.931 85.2502C213.285 77.72 210.515 71.6766 204.673 65.8345C201.728 62.8895 194.258 63.0952 194.258 68.1489C194.258 86.3402 199.423 102.692 204.129 117.676" stroke="black" stroke-linecap="round"/>
<path d="M168.799 158.413C170.833 162.626 176.66 169.286 179.99 171.783C183.369 174.317 181.804 180.027 183.319 183.437C185.176 187.615 195.806 188.573 195.806 182.714C195.806 180.107 197.47 171.783 195.806 164.291" stroke="black" stroke-linecap="round"/>
<path d="M213.286 172.615C214.119 174.28 215.239 175.176 216.151 175.48" stroke="black" stroke-linecap="round"/>
<path d="M214.119 215.068C224.479 211.365 229.382 210.581 237.426 196.601C245.198 178.95 247.142 160.136 241.588 150.14C236.244 140.52 217.441 137.654 207.459 137.654C200.8 138.486 205.795 149.136 219.113 151.805C226.057 153.196 223.545 161.602 226.605 168.453C216.053 170.759 211.573 185.542 206.988 196.601" stroke="black" stroke-linecap="round"/>
<path d="M176.659 215.068C183.667 216.168 186.267 216.226 193.327 216.226" stroke="black" stroke-linecap="round"/>
<path d="M229.102 207.577C227.844 214.179 225.773 232.549 229.102 239.208" stroke="black" stroke-linecap="round"/>
<path d="M170.833 141.919C184.152 126 188.564 129.929 200.045 137.583C203.297 139.751 207.908 148.475 210.789 153.47C214.576 160.035 213.127 170.996 212.71 178.086C212.331 184.52 210.645 185.101 204.13 185.101C197.47 184.269 196.573 168.515 196.573 165.87C191.644 156.799 173.281 133.697 163.013 146.84C157.184 154.302 154.654 175.945 157.515 187.599C161.775 204.952 174.032 211.345 176.66 219.23C179.445 226.541 180.4 230.052 176.66 238.376" stroke="black" stroke-linecap="round"/>
<path d="M263.985 109.656C263.205 109.656 262.555 109.059 262.49 108.281L261.247 93.4201C261.179 92.6159 261.768 91.8939 262.583 91.7847C269.814 90.8163 275.63 89.178 279.649 86.4336C283.703 83.6646 285.905 79.7823 285.905 74.4423C285.905 66.6714 279.906 61.0093 271.977 61.0093C268.689 61.0093 265.902 61.7357 263.372 63.2104C260.849 64.6808 258.608 66.8795 256.383 69.7842C255.891 70.4262 255.006 70.602 254.338 70.1932L247.039 65.7295C246.306 65.2812 246.109 64.3268 246.6 63.6603C252.746 55.3266 260.932 50.5001 272.576 50.5001C286.5 50.5001 298.333 60.2928 298.333 74.4423C298.333 81.1866 295.813 86.7199 291.486 90.9358C287.15 95.1601 280.979 98.0806 273.665 99.5349C272.549 99.7568 271.687 100.686 271.603 101.839L271.134 108.266C271.077 109.05 270.424 109.656 269.638 109.656H263.985ZM273.44 120.547C273.502 124.116 270.568 127.053 266.937 127.083C263.276 127.114 260.26 124.145 260.322 120.547C260.383 117.006 263.335 114.2 266.937 114.231C270.508 114.261 273.379 117.036 273.44 120.547Z" fill="#F2F2F2" stroke="black"/>
</svg>
