<svg width="450" height="450" viewBox="0 0 450 450" fill="none" xmlns="http://www.w3.org/2000/svg">
<path d="M235 401L235.5 352L12 220.5L11 269L235 401Z" fill="black"/>
<path d="M235.5 352L235 401L440.5 278.5V228.5L235.5 352Z" fill="black"/>
<path d="M235 392V346L8.5 214.5V260L235 392Z" fill="#BFAACB"/>
<path d="M235 346V392L442 269V224L235 346Z" fill="#9E7FB2"/>
<path d="M9 214.873L217.986 92.483L441.982 224.11L235.305 346.499L9 214.873Z" fill="#DFD4E5"/>
<path d="M235.305 391.499L441.982 269.11L441.982 224.11M235.305 391.499L9 259.873L9 214.873M235.305 391.499V346.499M235.305 346.499L441.982 224.11M235.305 346.499L9 214.873M9 214.873L217.986 92.483L441.982 224.11" stroke="black" stroke-linecap="round" stroke-linejoin="round"/>
<ellipse cx="232.5" cy="249.5" rx="32.5" ry="8.5" fill="black"/>
<ellipse cx="202.5" cy="181.5" rx="37.5" ry="8.5" fill="black"/>
<ellipse cx="372.5" cy="239.5" rx="28.5" ry="8.5" fill="black"/>
<ellipse cx="133.5" cy="250.5" rx="26.5" ry="8.5" fill="black"/>
<ellipse cx="73.5" cy="217" rx="18.5" ry="6" fill="black"/>
<ellipse cx="287" cy="161.5" rx="17" ry="6.5" fill="black"/>
<path d="M302.75 231.738L299 233.636C290.5 237.5 294.5 240.398 299 241.226L303.5 242.5C303.5 242.5 313.062 244.294 316.811 244.136C320.561 243.978 320.374 243.662 323.811 244.136C327.248 244.611 331.663 246.172 339.31 243.377C348.31 240.088 349.622 231.264 342.123 226.994C333.743 222.224 325.561 224.242 321.811 225.665C318.811 226.171 316.624 227.56 313.812 227.69C305.562 228.069 303.062 230.631 302.75 231.738Z" fill="black"/>
<path d="M247.703 69.4999V47.9374H315.297V69.4999C309.932 93.8749 299.042 143.187 298.398 145.437C297.755 147.687 295.448 148.875 294.375 149.187V159.5C293.839 161.062 290.352 164.187 280.695 164.187C271.039 164.187 268.625 161.062 268.625 159.5V149.187C266.694 148.437 265.138 146.375 264.602 145.437L247.703 69.4999Z" fill="white"/>
<path d="M306.445 78.8749C303.227 83.5624 296.628 99.8749 295.984 127.625L306.445 78.8749Z" fill="#CCF0F5"/>
<path d="M257.359 78.8749C260.578 83.5624 267.177 99.8749 267.82 127.625L257.359 78.8749Z" fill="#CCF0F5"/>
<path d="M313.687 74.1874H248.508L247.703 69.4999H315.297L313.687 74.1874Z" fill="#CCF0F5"/>
<path d="M273.453 162.001V150.125C279.891 151.062 284.719 151.062 289.419 150.125L289.547 162.312C289.547 162.312 284.287 164.3 281.5 164.187C277.982 164.045 273.937 163.321 273.453 162.001Z" fill="#FAFAFA"/>
<path d="M280.695 62.9374C260.095 62.9374 250.654 54.1874 248.508 49.8124V69.4999H314.492V48.8749C311.81 53.5624 301.295 62.9374 280.695 62.9374Z" fill="#CCF0F5"/>
<path d="M283.109 147.312C274.097 147.312 269.698 144.187 268.625 142.625H295.984C295.448 144.187 292.122 147.312 283.109 147.312Z" fill="#CCF0F5"/>
<path d="M294.174 159.339C294.174 162.06 288.5 164.265 281.5 164.265C274.5 164.265 268.826 162.06 268.826 159.339" stroke="black" stroke-linecap="round" stroke-linejoin="round"/>
<path d="M247.703 69.6891L264.602 145.547" stroke="black" stroke-linecap="round"/>
<path d="M298.398 145.547C298.398 148.267 290.833 150.473 281.5 150.473C272.167 150.473 264.602 148.267 264.602 145.547" stroke="black" stroke-linecap="round" stroke-linejoin="round"/>
<rect x="247.703" y="48.0153" width="67.5938" height="21.6737" stroke="black" stroke-linecap="round" stroke-linejoin="round"/>
<path d="M315.297 69.6891L298.398 145.547" stroke="black" stroke-linecap="round"/>
<path d="M294.174 159.339V149.488" stroke="black" stroke-linecap="round"/>
<path d="M268.826 159.339V149.488" stroke="black" stroke-linecap="round"/>
<path d="M252.129 64.3517V54.5" stroke="black" stroke-linecap="round"/>
<path d="M258.969 64.3517V54.5" stroke="black" stroke-linecap="round"/>
<path d="M265.406 64.3517V54.5" stroke="black" stroke-linecap="round"/>
<path d="M271.844 64.3517V54.5" stroke="black" stroke-linecap="round"/>
<path d="M278.281 64.3517V54.5" stroke="black" stroke-linecap="round"/>
<path d="M284.719 64.3517V54.5" stroke="black" stroke-linecap="round"/>
<path d="M291.156 64.3517V54.5" stroke="black" stroke-linecap="round"/>
<path d="M297.594 64.3517V54.5" stroke="black" stroke-linecap="round"/>
<path d="M304.031 64.3517V54.5" stroke="black" stroke-linecap="round"/>
<path d="M310.469 64.3517V54.5" stroke="black" stroke-linecap="round"/>
<path d="M153.746 86.5243C152.996 85.7623 150.936 86.2068 150 86.5243C152.185 84.302 156.821 80.1983 157.491 79.8575C159.364 78.9049 164.982 77 196.82 77C228.658 77 233.685 77.2342 236.149 78.9049C238.958 80.8097 233.964 83.9845 233.34 86.5243V174.148C233.34 184.624 215.548 185.577 215.548 185.577C215.548 185.577 189.329 186.529 178.092 185.577C165.919 184.545 161.237 180.5 161.237 174.148V96.0487C161.237 95.0963 154.682 87.4767 153.746 86.5243Z" fill="white"/>
<path d="M164.938 168.595C164.938 146.473 164.937 130.791 164.938 127.43C172.498 127.43 217.864 127.43 229.625 127.43V168.595C229.625 177.836 220.214 177.993 213.663 178.676C203.375 179.75 190.14 179.516 180.059 178.676C169.138 177.766 164.937 175.062 164.938 168.595Z" fill="#CCF0F5"/>
<path d="M229.625 113.187V131.937C229.625 131.937 222.155 136.102 214.625 136.625C201.868 137.512 193.301 130.616 182.75 129.125C171.387 127.519 164.938 131.937 164.938 131.937V113.187C164.938 113.187 171.387 108.769 182.75 110.375C193.301 111.866 202.438 110.375 214.625 108.5C222.085 107.353 229.625 113.187 229.625 113.187Z" fill="#CCEAD9"/>
<circle cx="177.125" cy="159.125" r="1.875" fill="white"/>
<circle cx="192.125" cy="151.625" r="1.875" fill="white"/>
<circle cx="216.5" cy="161" r="1.875" fill="white"/>
<circle cx="171.5" cy="140.375" r="1.875" fill="white"/>
<circle cx="214.625" cy="147.875" r="3.75" fill="#CCEAD9"/>
<circle cx="197.75" cy="166.625" r="3.75" fill="#CCEAD9"/>
<circle cx="184.625" cy="140.375" r="3.75" fill="#CCEAD9"/>
<path d="M218.375 173.188V84.125H223.062C223.375 112.875 223.812 167.188 223.062 169.438C222.312 171.688 219.625 172.875 218.375 173.188Z" fill="#F4F4F4"/>
<path d="M165.875 84.1249L162.125 94.4374C159.625 92.2499 152.75 86.3749 152.75 84.1249C157.438 85.0626 162.125 83.4999 165.875 84.1249Z" fill="#F2F2F2"/>
<path d="M153.688 86.0001C152.938 85.2501 150.875 85.6876 149.938 86.0001C152.125 83.8126 156.767 79.7732 157.438 79.4377C159.313 78.5001 164.938 76.6251 196.813 76.6251C228.688 76.6251 233.721 76.8556 236.188 78.5001C239 80.3751 234 83.5001 233.375 86.0001V172.719C233.375 183.031 225.875 183.969 222.125 184.906C218.375 185.844 206.451 186.313 197.281 186.313C188.112 186.313 178.063 186.313 172.438 184.906C168.688 183.969 161.188 183.5 161.188 172.719V95.3752C161.188 94.4377 154.625 86.9376 153.688 86.0001Z" stroke="black" stroke-linecap="round" stroke-linejoin="round"/>
<path d="M153.688 84.1251C153.688 84.1251 159.858 80.7948 164 81.3126C179 83.1876 223.062 82.2501 234.312 80.3751" stroke="black" stroke-linecap="round" stroke-linejoin="round"/>
<path d="M164.938 113.188V169.027C164.938 175.063 168.309 178.434 179.511 179.367C189.851 180.229 208.062 179.75 213.979 179.367C221.288 178.895 229.625 178.506 229.625 169.027V113.188M164.938 113.188V131.936C164.938 131.936 174.171 127.589 184.337 129.169C193.775 130.636 201.439 137.42 212.852 136.548C219.587 136.033 229.625 131.936 229.625 131.936V113.188M164.938 113.188C164.938 113.188 174.171 109.141 184.337 110.721M229.625 113.188C229.625 113.188 219.587 117.585 212.852 118.1C201.439 118.972 193.775 112.188 184.337 110.721M229.625 113.188C227.125 111.525 220.25 108.5 212.75 108.5C203.375 108.5 205.611 112.004 184.337 110.721" stroke="black" stroke-linecap="round" stroke-linejoin="round"/>
<circle cx="171.5" cy="140.375" r="3.25" stroke="black"/>
<circle cx="192.125" cy="151.625" r="3.25" stroke="black"/>
<circle cx="177.125" cy="159.125" r="3.25" stroke="black"/>
<circle cx="216.5" cy="161" r="3.25" stroke="black"/>
<path d="M189.75 140.375C189.75 143.206 187.455 145.5 184.625 145.5C181.795 145.5 179.5 143.206 179.5 140.375C179.5 137.545 181.795 135.25 184.625 135.25C187.455 135.25 189.75 137.545 189.75 140.375Z" stroke="black"/>
<circle cx="197.75" cy="166.625" r="5.125" stroke="black"/>
<circle cx="214.625" cy="147.875" r="5.125" stroke="black"/>
<path d="M127 256.25C138.805 256.25 147.484 253.438 148.375 249.688C149.711 244.062 150.156 239.375 150.156 236.562V199.062C148.672 188.75 144.991 167.188 138.578 167.188C127.891 170.938 118.688 168.75 115.422 167.188C109.009 167.188 105.328 188.75 103.844 199.062V236.562C103.844 239.375 104.734 245 105.625 249.688C106.222 252.831 115.195 256.25 127 256.25Z" fill="#9E7FB2"/>
<path d="M108.297 249.687C109.009 251.187 115.719 252.812 118.984 253.437C115.421 241.438 118.094 194.687 119.875 172.812C114.531 170.938 116.313 171.875 114.531 170.937C102.062 200 107.406 247.812 108.297 249.687Z" fill="white"/>
<path d="M127.891 205.625C112.928 206.375 105.625 202.188 103.844 200V237.5C106.219 239.688 114.353 243.125 127.891 243.125C141.428 243.125 148.375 239.375 150.156 237.5V200C148.969 201.562 142.853 204.875 127.891 205.625Z" fill="#F4F4F4"/>
<path d="M139.469 166.25C129.494 171.5 118.688 168.438 114.531 166.25C115.422 159.688 115.422 153.125 116.313 147.5C124.328 142.812 133.531 145 137.688 147.5C138.578 151.25 138.578 158.75 139.469 166.25Z" fill="#F4F4F4"/>
<ellipse cx="127.203" cy="147.673" rx="10.6534" ry="3.01917" stroke="black"/>
<path d="M139.469 166.25C139.469 167.286 133.886 169.5 127 169.5C120.114 169.5 114.531 167.286 114.531 166.25" stroke="black" stroke-linecap="round" stroke-linejoin="round"/>
<path d="M150.156 199.062C150.156 202.687 139.789 205.625 127 205.625C114.211 205.625 103.844 202.687 103.844 199.062" stroke="black" stroke-linecap="round" stroke-linejoin="round"/>
<path d="M150.156 236.562C150.156 240.187 139.789 243.125 127 243.125C114.211 243.125 103.844 240.187 103.844 236.562" stroke="black" stroke-linecap="round" stroke-linejoin="round"/>
<path d="M115.422 167.188C109.009 167.188 105.328 188.75 103.844 199.062V236.562C103.844 239.375 104.734 245 105.625 249.688C106.222 252.831 115.195 256.25 127 256.25C138.805 256.25 147.484 253.438 148.375 249.688C149.711 244.062 150.156 239.375 150.156 236.562V199.062C148.672 188.75 144.991 167.188 138.578 167.188" stroke="black" stroke-linecap="round" stroke-linejoin="round"/>
<path d="M116.55 148L114.531 166.25" stroke="black" stroke-linecap="round" stroke-linejoin="round"/>
<path d="M137.925 148L139.469 166.25" stroke="black" stroke-linecap="round" stroke-linejoin="round"/>
<path d="M127 165.312V153.125" stroke="black" stroke-linecap="round" stroke-linejoin="round"/>
<path d="M121.152 165.289L122.161 153.148" stroke="black" stroke-linecap="round" stroke-linejoin="round"/>
<path d="M132.848 165.29L131.839 153.148" stroke="black" stroke-linecap="round" stroke-linejoin="round"/>
<path d="M231.875 251C202.812 253.5 190 235 190.625 223.812C189.687 221 198 215 204.5 213.5L203.5 216.5C200.688 217.75 194.938 221.562 197.188 223.812C200 226.625 211.25 230.375 231.875 229.437C248.375 228.687 258.375 223.5 261.5 221L259.063 217.25L258.5 213.5C261 213.812 267.5 215.375 267.5 219.125C267.5 223.812 266.5 248.022 231.875 251Z" fill="#F4F4F4"/>
<path d="M204.837 211.417L203.75 213.5V216.312C202.187 216.937 198.687 218.937 197.187 221.937C195.312 225.687 213.537 230.375 230.937 229.437C248.337 228.5 263.375 221.437 261.5 220.5C260 219.75 258.437 214.993 258.125 212.458L255.95 211.417L252.687 208.292L249.425 207.25L247.25 205.167L244.667 201H241.812L240.725 198.917L236.375 195.792L230.937 194.75H225.5H220.062L216.8 196.833L213.537 199.958L211.362 201L209.187 204.125L205.925 205.167L204.837 208.292V211.417Z" fill="#CFDF6D"/>
<path d="M245.602 289.362C243.517 284.511 248.642 284.106 250.813 284.511C253.419 279.659 257.164 280.872 258.63 282.085C270.355 291.788 258.63 300.278 256.024 301.491C253.418 302.704 248.207 295.427 245.602 289.362Z" fill="#EFF4CE"/>
<path d="M282.137 280.284C283.992 269.792 278.275 269.792 275.184 271.103C275.184 269.792 270.549 264.546 268.232 271.103C266.377 276.35 268.231 284.031 271.708 286.842C274.412 289.028 280.283 290.776 282.137 280.284Z" fill="#EFF4CE"/>
<path d="M230.994 290.756C232.042 289.719 233.75 288.608 233.75 291.009C233.75 294.257 226.75 307.25 223.75 307.25C220.75 307.25 218.75 301.836 218.75 298.588C218.75 295.34 222.75 286.678 227.75 288.843C230.179 289.896 230.887 290.468 230.994 290.756Z" fill="#EFF4CE"/>
<path d="M213.872 280.088C222.987 282.267 232.517 280.088 235.625 278.272C230.445 274.639 227.338 272.823 220.087 273.731C216.309 274.204 206.621 278.354 213.872 280.088Z" fill="#EFF4CE"/>
<path d="M228.472 262.191C230.083 263.958 241.562 268.818 250.625 267.713C250.625 266.609 249.618 258.877 241.562 255.564C233.507 252.25 226.458 259.982 228.472 262.191Z" fill="#EFF4CE"/>
<path d="M260.3 248.439C261.845 250.058 271.892 257.543 280.586 256.531C280.586 255.52 281.552 245.405 273.824 242.37C266.096 239.336 258.368 246.416 260.3 248.439Z" fill="#EFF4CE"/>
<path d="M243.125 221C243.542 219.295 244.875 216.226 246.875 217.59" stroke="black" stroke-linecap="round"/>
<path d="M231.875 219.125C232.813 218.008 235.25 216.221 237.5 218.008" stroke="black" stroke-linecap="round"/>
<path d="M241.25 207.875C242.834 207.875 245.765 208.625 244.814 211.625" stroke="black" stroke-linecap="round"/>
<path d="M230 204.125C228.594 202.71 225.5 200.729 224.375 204.125" stroke="black" stroke-linecap="round"/>
<path d="M190.625 222.875C190.625 241.99 209.858 251.461 228.664 250.984C247.871 250.497 267.5 241.426 267.5 219.125" stroke="black" stroke-linecap="round" stroke-linejoin="round"/>
<path d="M198.935 224.633C193.857 222.204 199.641 218.223 203.167 216.536L205.283 213.5C198.935 215.524 187.298 220.585 191.53 224.633C196.82 229.694 211.631 233.742 235.964 231.718C252.892 230.31 261.355 225.645 266.645 220.585C270.135 217.246 262.061 213.837 258.181 213.5L259.239 216.536C259.592 217.548 260.509 219.775 261.355 220.585C262.413 221.597 253.95 226.657 235.964 228.681C217.979 230.706 205.283 227.669 198.935 224.633Z" stroke="black" stroke-linecap="round" stroke-linejoin="round"/>
<path d="M203.75 213.5L204.837 211.417V208.292L205.925 205.167L209.188 204.125L211.362 201L213.537 199.958L216.8 196.833L220.062 194.75H225.5H230.938L236.375 195.792L240.725 198.917L241.812 201H244.667L247.25 205.167L249.425 207.25L252.688 208.292L255.95 211.417L259 213.5" stroke="black" stroke-linecap="round" stroke-linejoin="round"/>
<path d="M213.125 211.625C212.272 211.833 210.738 212.5 211.42 213.5" stroke="black" stroke-linecap="round" stroke-linejoin="round"/>
<path d="M245 275.375C246.618 277.678 258.348 291.954 255.921 301.625" stroke="black" stroke-linecap="round" stroke-linejoin="round"/>
<path d="M245.602 289.362C243.518 284.511 248.642 284.107 250.813 284.511C253.419 279.659 257.164 280.872 258.63 282.085C270.356 291.788 258.63 300.278 256.025 301.491C253.419 302.704 248.208 295.427 245.602 289.362Z" stroke="black" stroke-linecap="round" stroke-linejoin="round"/>
<path d="M275.17 264.125C274.318 268.188 274.488 283.625 275.17 288.5" stroke="black" stroke-linecap="round" stroke-linejoin="round"/>
<path d="M282.138 280.284C283.992 269.792 278.275 269.792 275.185 271.104C275.185 269.792 270.55 264.546 268.232 271.104C266.378 276.35 268.232 284.031 271.708 286.842C274.412 289.028 280.284 290.777 282.138 280.284Z" stroke="black" stroke-linecap="round" stroke-linejoin="round"/>
<path d="M241.25 279.125C236.736 283.091 223.542 297.514 222.5 307.25" stroke="black" stroke-linecap="round" stroke-linejoin="round"/>
<path d="M233.75 291.009C233.75 288.41 230.75 289.71 230.75 291.009C230.75 289.5 229.5 288.5 227.5 288.5C222.051 288.5 218.75 295.34 218.75 298.588C218.75 301.836 220.75 307.25 223.75 307.25C226.75 307.25 233.75 294.257 233.75 291.009Z" stroke="black" stroke-linecap="round" stroke-linejoin="round"/>
<path d="M299.375 254.75C289.342 258.813 266.991 267.344 257.857 268.969C246.44 271 245.402 276.078 241.25 279.125" stroke="black" stroke-linecap="round" stroke-linejoin="round"/>
<path d="M240.5 279.5C235 276 222.708 276.154 211.25 279.125" stroke="black" stroke-linecap="round" stroke-linejoin="round"/>
<path d="M213.872 280.088C222.987 282.267 232.517 280.088 235.625 278.272C230.446 274.639 227.338 272.823 220.087 273.731C216.31 274.205 206.621 278.354 213.872 280.088Z" stroke="black" stroke-linecap="round" stroke-linejoin="round"/>
<path d="M254.375 269.75C250 266 235.192 259.46 228.125 260.482" stroke="black" stroke-linecap="round" stroke-linejoin="round"/>
<path d="M284.375 260.375C279.974 256.389 267.109 246.244 260 247.331" stroke="black" stroke-linecap="round" stroke-linejoin="round"/>
<path d="M228.473 262.191C230.084 263.958 241.563 268.818 250.625 267.714C250.625 266.609 249.619 258.877 241.563 255.564C233.507 252.25 226.459 259.982 228.473 262.191Z" stroke="black" stroke-linecap="round" stroke-linejoin="round"/>
<path d="M260.3 248.44C261.846 250.058 271.893 257.543 280.586 256.531C280.586 255.52 281.553 245.405 273.824 242.37C266.096 239.336 258.368 246.417 260.3 248.44Z" stroke="black" stroke-linecap="round" stroke-linejoin="round"/>
<path d="M79.3125 147.938C80.25 150.75 80.25 153.875 80.25 153.875C80.25 154.911 75.2132 157.5 69 157.5C62.7868 157.5 57.75 154.911 57.75 153.875C57.75 153.875 57.7501 150.75 58.6874 147.938C61.1874 148.25 66.75 149.5 69 149.5C71.25 149.5 76.8125 148.25 79.3125 147.938Z" fill="#FAFAFA"/>
<path d="M54 156.375V169.917C54 172.793 60.7157 176 69 176C77.2843 176 84 172.793 84 169.917V156.375C82.125 158.25 75.0381 160.125 69 160.125C62.9619 160.125 55.5625 157.938 54 156.375Z" fill="#F4F4F4"/>
<path d="M57.75 141.375V146.792C57.75 147.942 62.7868 150 69 150C75.2132 150 80.25 147.942 80.25 146.792V141.375H57.75Z" fill="#F4F4F4"/>
<path d="M69 161C77.2843 161 84 158.026 84 155.438C83.9973 154.5 82.1168 153.562 80.2418 153.562C80.2418 154.5 77.9934 157.5 69 157.5C60.0066 157.5 57.7473 154.5 57.7418 153.562C54.7418 153.562 53.9973 154.812 54 155.438C54 158.026 60.7157 161 69 161Z" fill="#F2F2F2"/>
<path d="M69.0075 221.062C77.2918 221.062 84.0075 218.964 84.0075 216.375V179.737C84.0075 173.4 78.5 175 78.5 175C78.5 175 72.9168 176.079 69.0075 176C66.2993 175.945 62.3126 175.938 59.5 175C56.6874 174.062 53.7167 177.757 54.029 179.737V216.375C54.029 218.964 60.7233 221.062 69.0075 221.062Z" fill="#F5B166"/>
<path d="M56.8125 182.625C56.8125 179.813 56.8125 177.938 58.6875 177L62.4375 177.937C62.75 190.75 62.4375 214.5 62.4375 217.313C58.6877 217.313 57.7501 216.375 56.8126 215.438L56.8125 215.437V182.625Z" fill="white"/>
<path d="M61.5 137.625H76.5L72.8488 104.765C72.7926 104.258 72.3645 103.875 71.855 103.875H66.145C65.6355 103.875 65.2074 104.258 65.1512 104.765L61.5 137.625Z" fill="white"/>
<path d="M69 212.625C77.2843 212.625 84 210.526 84 207.938V181.688C84 184.276 77.2843 186.375 69 186.375C60.7157 186.375 54 184.276 54 181.688V207.938C54 210.526 60.7157 212.625 69 212.625Z" fill="#F4F4F4"/>
<path d="M79.3125 147.938C80.25 150.75 80.25 153.875 80.25 153.875C80.25 154.911 75.2132 157.312 69 157.312C62.7868 157.312 57.75 154.911 57.75 153.875C57.75 153.875 57.7501 150.75 58.6874 147.938" stroke="black" stroke-linecap="round" stroke-linejoin="round"/>
<path d="M54 155.5V169.917C54 172.793 60.7157 176.062 69 176.062C77.2843 176.062 84 172.793 84 169.917V155.5" stroke="black" stroke-linecap="round" stroke-linejoin="round"/>
<path d="M57.75 141.375V146.792C57.75 147.942 62.7868 149.812 69 149.812C75.2132 149.812 80.25 147.942 80.25 146.792V141.375" stroke="black" stroke-linecap="round" stroke-linejoin="round"/>
<path d="M80.2418 153.562C82.1168 153.562 83.9973 154.5 84 155.438C84 158.026 77.2843 161.062 69 161.062C60.7157 161.062 54 158.026 54 155.438C53.9973 154.812 54.7418 153.562 57.7418 153.562" stroke="black" stroke-linecap="round" stroke-linejoin="round"/>
<path d="M84.5002 207.937C84.5002 207.661 84.2764 207.437 84.0002 207.437C83.7241 207.437 83.5002 207.661 83.5002 207.937H84.5002ZM54.5293 207.937C54.5293 207.661 54.3054 207.437 54.0293 207.437C53.7532 207.437 53.5293 207.661 53.5293 207.937H54.5293ZM84.5002 181.687C84.5002 181.411 84.2764 181.187 84.0002 181.187C83.7241 181.187 83.5002 181.411 83.5002 181.687H84.5002ZM54.5293 181.687C54.5293 181.411 54.3054 181.187 54.0293 181.187C53.7532 181.187 53.5293 181.411 53.5293 181.687H54.5293ZM54.0293 179.737H54.5293V179.737L54.0293 179.737ZM78.3751 175.125L78.4665 175.617L78.4944 175.612L78.5216 175.603L78.3751 175.125ZM69.0001 176.063L69.0102 175.563L69.0001 176.063ZM83.5002 207.937C83.5002 208.352 83.2307 208.838 82.5243 209.36C81.8277 209.875 80.7878 210.359 79.4577 210.775C76.8036 211.604 73.1062 212.125 69.0002 212.125V213.125C73.1786 213.125 76.9812 212.596 79.756 211.729C81.1404 211.297 82.2971 210.771 83.1186 210.164C83.9303 209.565 84.5002 208.818 84.5002 207.937H83.5002ZM69.0002 212.125C64.9106 212.125 61.2234 211.43 58.5718 210.512C57.2435 210.052 56.1951 209.543 55.4895 209.051C55.1363 208.805 54.8856 208.574 54.7277 208.371C54.568 208.165 54.5293 208.022 54.5293 207.937H53.5293C53.5293 208.322 53.6996 208.677 53.9378 208.984C54.178 209.293 54.5144 209.59 54.9176 209.871C55.7246 210.434 56.8656 210.979 58.2446 211.457C61.0073 212.414 64.8056 213.125 69.0002 213.125V212.125ZM83.5002 181.687C83.5002 182.102 83.2307 182.588 82.5243 183.11C81.8277 183.625 80.7878 184.109 79.4577 184.525C76.8036 185.354 73.1062 185.875 69.0002 185.875V186.875C73.1786 186.875 76.9812 186.346 79.756 185.479C81.1404 185.047 82.2971 184.521 83.1186 183.914C83.9303 183.315 84.5002 182.568 84.5002 181.687H83.5002ZM69.0002 185.875C64.8943 185.875 61.2043 185.354 58.5577 184.525C57.2314 184.109 56.1952 183.625 55.5013 183.11C54.7981 182.589 54.5293 182.102 54.5293 181.687H53.5293C53.5293 182.567 54.0964 183.314 54.9057 183.914C55.7245 184.521 56.8778 185.046 58.2587 185.479C61.0264 186.346 64.8219 186.875 69.0002 186.875V185.875ZM83.5078 216.375C83.5078 216.789 83.2383 217.276 82.5319 217.798C81.8353 218.312 80.7954 218.797 79.4653 219.212C76.8112 220.042 73.1138 220.563 69.0078 220.563V221.563C73.1861 221.563 76.9888 221.034 79.7636 220.167C81.148 219.734 82.3047 219.209 83.1262 218.602C83.9378 218.002 84.5078 217.256 84.5078 216.375H83.5078ZM69.0078 220.563C64.9019 220.563 61.21 220.042 58.5614 219.213C57.2341 218.797 56.1969 218.313 55.5023 217.798C54.7983 217.277 54.5293 216.79 54.5293 216.375H53.5293C53.5293 217.255 54.0971 218.002 54.9071 218.602C55.7266 219.209 56.8807 219.734 58.2626 220.167C61.0321 221.034 64.8295 221.563 69.0078 221.563V220.563ZM54.5293 216.375V179.737H53.5293V216.375H54.5293ZM54.5293 179.737C54.5293 179.401 54.665 178.913 54.9624 178.364C55.255 177.823 55.6846 177.261 56.2237 176.777C57.3012 175.81 58.7699 175.192 60.4415 175.61L60.6841 174.64C58.6056 174.12 56.8075 174.909 55.5557 176.033C54.9301 176.594 54.4294 177.248 54.083 177.887C53.7413 178.518 53.5292 179.174 53.5293 179.737L54.5293 179.737ZM78.3751 175.125C78.5216 175.603 78.5214 175.603 78.5212 175.603C78.5211 175.603 78.5209 175.603 78.5209 175.603C78.5207 175.604 78.5206 175.604 78.5207 175.604C78.5207 175.604 78.521 175.603 78.5217 175.603C78.5231 175.603 78.5258 175.602 78.5297 175.601C78.5376 175.599 78.5506 175.595 78.5682 175.59C78.6035 175.581 78.6574 175.567 78.7274 175.551C78.8675 175.519 79.0702 175.48 79.3142 175.451C79.8069 175.393 80.4439 175.379 81.0674 175.539C81.6831 175.697 82.2767 176.02 82.7227 176.636C83.172 177.257 83.5078 178.225 83.5078 179.737H84.5078C84.5078 178.081 84.1396 176.888 83.5327 176.05C82.9226 175.207 82.108 174.773 81.3156 174.57C80.5309 174.369 79.7598 174.391 79.1963 174.458C78.9122 174.492 78.6749 174.538 78.507 174.576C78.4229 174.595 78.3558 174.612 78.3086 174.624C78.285 174.631 78.2663 174.636 78.2529 174.64C78.2461 174.642 78.2407 174.643 78.2367 174.645C78.2347 174.645 78.233 174.646 78.2317 174.646C78.231 174.646 78.2304 174.647 78.2299 174.647C78.2297 174.647 78.2294 174.647 78.2293 174.647C78.229 174.647 78.2287 174.647 78.3751 175.125ZM83.5078 179.737V216.375H84.5078V179.737H83.5078ZM60.4415 175.61C64.2526 176.563 66.2834 176.508 68.9901 176.563L69.0102 175.563C66.3005 175.508 64.3732 175.562 60.6841 174.64L60.4415 175.61ZM68.9901 176.563C70.9832 176.603 73.357 176.364 75.2189 176.119C76.1527 175.996 76.9634 175.871 77.5409 175.776C77.8298 175.729 78.0605 175.689 78.2193 175.661C78.2987 175.647 78.3601 175.636 78.4019 175.629C78.4228 175.625 78.4388 175.622 78.4496 175.62C78.455 175.619 78.4592 175.618 78.462 175.618C78.4634 175.617 78.4645 175.617 78.4653 175.617C78.4656 175.617 78.4659 175.617 78.4661 175.617C78.4663 175.617 78.4664 175.617 78.4664 175.617C78.4665 175.617 78.4665 175.617 78.3751 175.125C78.2837 174.634 78.2838 174.634 78.2838 174.634C78.2837 174.634 78.2837 174.634 78.2836 174.634C78.2835 174.634 78.2833 174.634 78.283 174.634C78.2825 174.634 78.2816 174.634 78.2803 174.634C78.2779 174.635 78.2741 174.635 78.2691 174.636C78.259 174.638 78.2438 174.641 78.2237 174.645C78.1835 174.652 78.1237 174.663 78.046 174.676C77.8907 174.704 77.6638 174.743 77.3791 174.789C76.8096 174.883 76.0096 175.006 75.0883 175.128C73.24 175.371 70.9263 175.601 69.0102 175.563L68.9901 176.563Z" fill="black"/>
<path d="M80.81 141.375V141.875C80.8709 141.875 80.9312 141.864 80.9881 141.842L80.81 141.375ZM80.81 132L80.9881 131.533C80.9312 131.511 80.8709 131.5 80.81 131.5V132ZM57.19 132V131.5C57.1291 131.5 57.0688 131.511 57.0119 131.533L57.19 132ZM57.19 141.375L57.0119 141.842C57.0688 141.864 57.1291 141.875 57.19 141.875V141.375ZM85.375 136.688C85.375 137.416 84.9923 138.166 84.1789 138.903C83.3654 139.64 82.1609 140.325 80.632 140.908L80.9881 141.842C82.5848 141.234 83.9128 140.493 84.8504 139.644C85.7881 138.794 86.375 137.795 86.375 136.688H85.375ZM80.632 132.467C82.1609 133.05 83.3654 133.735 84.1789 134.472C84.9923 135.209 85.375 135.959 85.375 136.688H86.375C86.375 135.58 85.7881 134.581 84.8504 133.731C83.9128 132.882 82.5848 132.141 80.9881 131.533L80.632 132.467ZM80.81 131.5H57.19V132.5H80.81V131.5ZM52.625 136.688C52.625 135.959 53.0077 135.209 53.8211 134.472C54.6346 133.735 55.8391 133.05 57.368 132.467L57.0119 131.533C55.4152 132.141 54.0872 132.882 53.1496 133.731C52.2119 134.581 51.625 135.58 51.625 136.688H52.625ZM57.368 140.908C55.8391 140.325 54.6346 139.64 53.8211 138.903C53.0077 138.166 52.625 137.416 52.625 136.688H51.625C51.625 137.795 52.2119 138.794 53.1496 139.644C54.0872 140.493 55.4152 141.234 57.0119 141.842L57.368 140.908ZM57.19 141.875H80.81V140.875H57.19V141.875Z" fill="black"/>
<path fill-rule="evenodd" clip-rule="evenodd" d="M80.81 141.375C83.9357 140.184 85.875 138.524 85.875 136.688C85.875 134.851 83.9357 133.191 80.81 132H57.19C54.0643 133.191 52.125 134.851 52.125 136.688C52.125 138.524 54.0643 140.184 57.19 141.375H80.81Z" fill="#FAFAFA"/>
<path d="M80.81 141.375V141.875C80.8709 141.875 80.9312 141.864 80.9881 141.842L80.81 141.375ZM80.81 132L80.9881 131.533C80.9312 131.511 80.8709 131.5 80.81 131.5V132ZM57.19 132V131.5C57.1291 131.5 57.0688 131.511 57.0119 131.533L57.19 132ZM57.19 141.375L57.0119 141.842C57.0688 141.864 57.1291 141.875 57.19 141.875V141.375ZM85.375 136.688C85.375 137.416 84.9923 138.166 84.1789 138.903C83.3654 139.64 82.1609 140.325 80.632 140.908L80.9881 141.842C82.5848 141.234 83.9128 140.493 84.8504 139.644C85.7881 138.794 86.375 137.795 86.375 136.688H85.375ZM80.632 132.467C82.1609 133.05 83.3654 133.735 84.1789 134.472C84.9923 135.209 85.375 135.959 85.375 136.688H86.375C86.375 135.58 85.7881 134.581 84.8504 133.731C83.9128 132.882 82.5848 132.141 80.9881 131.533L80.632 132.467ZM80.81 131.5H57.19V132.5H80.81V131.5ZM52.625 136.688C52.625 135.959 53.0077 135.209 53.8211 134.472C54.6346 133.735 55.8391 133.05 57.368 132.467L57.0119 131.533C55.4152 132.141 54.0872 132.882 53.1496 133.731C52.2119 134.581 51.625 135.58 51.625 136.688H52.625ZM57.368 140.908C55.8391 140.325 54.6346 139.64 53.8211 138.903C53.0077 138.166 52.625 137.416 52.625 136.688H51.625C51.625 137.795 52.2119 138.794 53.1496 139.644C54.0872 140.493 55.4152 141.234 57.0119 141.842L57.368 140.908ZM57.19 141.875H80.81V140.875H57.19V141.875Z" fill="black"/>
<path d="M65.0906 105.575L61.5 133.816C61.5 135.855 64.8579 137.508 69 137.508C73.1421 137.508 76.5 135.855 76.5 133.816L72.914 105.569C72.821 104.608 72.0133 103.875 71.0477 103.875H66.9574C65.9897 103.875 65.181 104.611 65.0906 105.575Z" fill="#F4F4F4" stroke="black" stroke-linecap="round" stroke-linejoin="round"/>
<path d="M63.375 163.875V171.375" stroke="black" stroke-linecap="round" stroke-linejoin="round"/>
<path d="M57.75 162V169.5" stroke="black" stroke-linecap="round" stroke-linejoin="round"/>
<path d="M69 163.875V171.375" stroke="black" stroke-linecap="round" stroke-linejoin="round"/>
<path d="M74.625 163.875V171.375" stroke="black" stroke-linecap="round" stroke-linejoin="round"/>
<path d="M80.25 162V169.5" stroke="black" stroke-linecap="round" stroke-linejoin="round"/>
<ellipse cx="69" cy="104.812" rx="3.75" ry="1.64062" fill="#FAFAFA" stroke="black" stroke-linecap="round" stroke-linejoin="round"/>
<path d="M368.062 245.25C383.675 245.25 390.57 239.591 391.499 236.812V185.953C391.499 182.248 388 176 384.065 174.839V166.5C384.065 159.938 375 160.768 375 159.938C375 156.171 374.624 152.5 374.624 152.5C374.624 150.625 375.562 144 374.624 143.063C373.687 136.5 372.749 133.688 370.874 131.813C369.937 130.875 366 130 363.374 131.812C360.562 136.5 360.562 140.25 359.624 143.063L358.687 154.313C358.687 154.313 359.624 159.938 357.749 159.938C353.772 159.938 350.249 163.688 350.249 163.688V166.5V174.839C345.045 177.802 343.687 181.5 342.749 185.952C342.44 202.623 342.006 235.331 342.749 236.812C343.679 238.665 348.547 245.25 368.062 245.25Z" fill="white"/>
<path d="M291.188 207.75L294.938 204C295.25 201.813 297.75 196.75 306 196C308.812 195.744 311 193 314 192C317.75 189.187 325.933 185.198 334.312 194.625C341.812 203.062 340.5 220.5 331.5 227C323.852 232.523 319.438 229.437 316 228.5H309C305.25 228.812 298.688 227.438 294.938 222.75C293.389 220.814 292.262 219.028 291.649 218.707C291.493 218.811 291.339 218.909 291.188 219C291.271 218.667 291.426 218.59 291.649 218.707C294.708 216.654 298.324 212.032 291.188 207.75Z" fill="white"/>
<path d="M318.375 211.5C318.375 201 310.875 197.125 307.125 196.5L318.375 190.875C324.625 190.875 336.188 196.5 336.188 207.75C336.188 222.75 326.5 227.125 322.125 228.375H308.062C311.5 227.125 318.375 222 318.375 211.5Z" fill="#FAFAFA"/>
<path d="M298.688 222.75L291.188 219L292.125 206.812C293.688 205.562 297.254 203.625 297.75 203.062C298.688 202 307.5 200.5 309 212.437C310 220.396 301.812 223.062 298.688 222.75Z" fill="#F2F2F2"/>
<path d="M372.75 170.25L365.5 166.5C368.5 166.5 373.688 165.562 375.563 164.625L381.188 167.438C382.125 171.187 382.125 173.062 382.125 176.812V176.812C386.625 177.562 387.75 186.5 387.75 190.875C389.313 205.562 388.688 231.188 387.75 237.75C384 240 379.938 240.562 378.375 240.562V202.125V193.688C378.375 184.688 374.625 180.562 372.75 179.625V170.25Z" fill="#FAFAFA"/>
<path d="M354 202.125C376.5 205.125 388.375 199.625 391.5 196.5V229.313C377.25 239.063 360.563 236.5 354 234L354 233.06C354 226.373 354 207.472 354 202.125Z" fill="#F5B166"/>
<path d="M391.5 186.188C391.5 190.847 380.587 194.625 367.125 194.625C353.663 194.625 342.75 190.847 342.75 186.188" stroke="black" stroke-linecap="round" stroke-linejoin="round"/>
<path d="M384 174C384 177.226 376.445 180.058 367.125 180.058C357.805 180.058 350.25 177.226 350.25 174" stroke="black" stroke-linecap="round" stroke-linejoin="round"/>
<ellipse cx="367.125" cy="164.841" rx="16.875" ry="5.84135" stroke="black" stroke-linecap="round" stroke-linejoin="round"/>
<path d="M391.5 194.625C391.5 199.285 380.587 203.062 367.125 203.062C362.293 203.062 357.789 202.576 354 201.736V234.549C357.789 235.388 362.293 235.875 367.125 235.875C380.587 235.875 391.5 232.097 391.5 227.438" stroke="black" stroke-linecap="round" stroke-linejoin="round"/>
<path d="M350.25 174L350.25 164.625" stroke="black" stroke-linecap="round" stroke-linejoin="round"/>
<path d="M384 174L384 164.625" stroke="black" stroke-linecap="round" stroke-linejoin="round"/>
<path d="M350.25 174.938C345.563 175.875 342.75 182.438 342.75 186.188V235.875C342.75 240.535 353.663 245.25 367.125 245.25C380.587 245.25 391.5 240.535 391.5 235.875V187.125C391.5 183.375 388.688 175.875 384 174.938" stroke="black" stroke-linecap="round" stroke-linejoin="round"/>
<rect x="359" y="146" width="16" height="17" fill="#E6E6E6" stroke="black" stroke-linecap="round" stroke-linejoin="round"/>
<path fill-rule="evenodd" clip-rule="evenodd" d="M375.104 144C373.452 145.017 370.496 145.695 367.125 145.695C363.754 145.695 360.798 145.017 359.146 144C358.261 144.545 357.75 145.187 357.75 145.875C357.75 147.847 361.947 149.445 367.125 149.445C372.303 149.445 376.5 147.847 376.5 145.875C376.5 145.187 375.989 144.545 375.104 144Z" fill="#E6E6E6"/>
<path d="M375.104 144L375.366 143.574C375.206 143.475 375.003 143.475 374.842 143.574L375.104 144ZM359.146 144L359.408 143.574C359.247 143.475 359.044 143.475 358.884 143.574L359.146 144ZM374.842 143.574C373.302 144.523 370.452 145.195 367.125 145.195V146.195C370.541 146.195 373.603 145.512 375.366 144.426L374.842 143.574ZM367.125 145.195C363.798 145.195 360.948 144.523 359.408 143.574L358.884 144.426C360.647 145.512 363.709 146.195 367.125 146.195V145.195ZM358.25 145.875C358.25 145.453 358.57 144.942 359.408 144.426L358.884 143.574C357.952 144.148 357.25 144.921 357.25 145.875H358.25ZM367.125 148.945C364.581 148.945 362.3 148.551 360.674 147.932C359.859 147.622 359.234 147.264 358.821 146.893C358.409 146.521 358.25 146.177 358.25 145.875H357.25C357.25 146.559 357.616 147.153 358.152 147.636C358.689 148.119 359.436 148.531 360.318 148.867C362.085 149.539 364.491 149.945 367.125 149.945V148.945ZM376 145.875C376 146.177 375.841 146.521 375.429 146.893C375.016 147.264 374.391 147.622 373.576 147.932C371.95 148.551 369.669 148.945 367.125 148.945V149.945C369.759 149.945 372.165 149.539 373.932 148.867C374.814 148.531 375.561 148.119 376.098 147.636C376.634 147.153 377 146.559 377 145.875H376ZM374.842 144.426C375.68 144.942 376 145.453 376 145.875H377C377 144.921 376.298 144.148 375.366 143.574L374.842 144.426Z" fill="black"/>
<path fill-rule="evenodd" clip-rule="evenodd" d="M375.104 153.375C373.452 154.392 370.496 155.07 367.125 155.07C363.754 155.07 360.798 154.392 359.146 153.375C358.261 153.92 357.75 154.562 357.75 155.25C357.75 157.222 361.947 158.82 367.125 158.82C372.303 158.82 376.5 157.222 376.5 155.25C376.5 154.562 375.989 153.92 375.104 153.375Z" fill="#E6E6E6"/>
<path d="M375.104 153.375L375.366 152.949C375.206 152.85 375.003 152.85 374.842 152.949L375.104 153.375ZM359.146 153.375L359.408 152.949C359.247 152.85 359.044 152.85 358.884 152.949L359.146 153.375ZM374.842 152.949C373.302 153.898 370.452 154.57 367.125 154.57V155.57C370.541 155.57 373.603 154.887 375.366 153.801L374.842 152.949ZM367.125 154.57C363.798 154.57 360.948 153.898 359.408 152.949L358.884 153.801C360.647 154.887 363.709 155.57 367.125 155.57V154.57ZM358.25 155.25C358.25 154.828 358.57 154.317 359.408 153.801L358.884 152.949C357.952 153.523 357.25 154.296 357.25 155.25H358.25ZM367.125 158.32C364.581 158.32 362.3 157.926 360.674 157.307C359.859 156.997 359.234 156.639 358.821 156.268C358.409 155.896 358.25 155.552 358.25 155.25H357.25C357.25 155.934 357.616 156.528 358.152 157.011C358.689 157.494 359.436 157.906 360.318 158.242C362.085 158.914 364.491 159.32 367.125 159.32V158.32ZM376 155.25C376 155.552 375.841 155.896 375.429 156.268C375.016 156.639 374.391 156.997 373.576 157.307C371.95 157.926 369.669 158.32 367.125 158.32V159.32C369.759 159.32 372.165 158.914 373.932 158.242C374.814 157.906 375.561 157.494 376.098 157.011C376.634 156.528 377 155.934 377 155.25H376ZM374.842 153.801C375.68 154.317 376 154.828 376 155.25H377C377 154.296 376.298 153.523 375.366 152.949L374.842 153.801Z" fill="black"/>
<path fill-rule="evenodd" clip-rule="evenodd" d="M375.104 160.875C373.452 161.892 370.496 162.57 367.125 162.57C363.754 162.57 360.798 161.892 359.146 160.875C358.261 161.42 357.75 162.062 357.75 162.75C357.75 164.722 361.947 166.32 367.125 166.32C372.303 166.32 376.5 164.722 376.5 162.75C376.5 162.062 375.989 161.42 375.104 160.875Z" fill="#E6E6E6"/>
<path d="M375.104 160.875L375.366 160.449C375.206 160.35 375.003 160.35 374.842 160.449L375.104 160.875ZM359.146 160.875L359.408 160.449C359.247 160.35 359.044 160.35 358.884 160.449L359.146 160.875ZM374.842 160.449C373.302 161.398 370.452 162.07 367.125 162.07V163.07C370.541 163.07 373.603 162.387 375.366 161.301L374.842 160.449ZM367.125 162.07C363.798 162.07 360.948 161.398 359.408 160.449L358.884 161.301C360.647 162.387 363.709 163.07 367.125 163.07V162.07ZM358.25 162.75C358.25 162.328 358.57 161.817 359.408 161.301L358.884 160.449C357.952 161.023 357.25 161.796 357.25 162.75H358.25ZM367.125 165.82C364.581 165.82 362.3 165.426 360.674 164.807C359.859 164.497 359.234 164.139 358.821 163.768C358.409 163.396 358.25 163.052 358.25 162.75H357.25C357.25 163.434 357.616 164.028 358.152 164.511C358.689 164.994 359.436 165.406 360.318 165.742C362.085 166.414 364.491 166.82 367.125 166.82V165.82ZM376 162.75C376 163.052 375.841 163.396 375.429 163.768C375.016 164.139 374.391 164.497 373.576 164.807C371.95 165.426 369.669 165.82 367.125 165.82V166.82C369.759 166.82 372.165 166.414 373.932 165.742C374.814 165.406 375.561 164.994 376.098 164.511C376.634 164.028 377 163.434 377 162.75H376ZM374.842 161.301C375.68 161.817 376 162.328 376 162.75H377C377 161.796 376.298 161.023 375.366 160.449L374.842 161.301Z" fill="black"/>
<path d="M370.458 131.946C370.458 132.537 368.966 133.017 367.125 133.017C365.284 133.017 363.792 132.537 363.792 131.946M370.458 131.946C370.458 131.354 368.966 130.875 367.125 130.875C365.284 130.875 363.792 131.354 363.792 131.946M370.458 131.946C371.847 132.258 374.625 138 374.625 144M363.792 131.946C362.403 132.258 359.625 138 359.625 144" stroke="black" stroke-linecap="round" stroke-linejoin="round"/>
<path d="M293.666 204.938C295.875 199.916 300.234 196.5 305.25 196.5C312.499 196.5 318.375 203.635 318.375 212.438C318.375 221.24 312.499 228.375 305.25 228.375C300.652 228.375 296.607 225.505 294.263 221.159" stroke="black" stroke-linecap="round" stroke-linejoin="round"/>
<ellipse cx="291.132" cy="213.375" rx="4.63235" ry="5.625" fill="#E6E6E6" stroke="black" stroke-linecap="round" stroke-linejoin="round"/>
<path d="M311.812 193.339C314.69 190.619 318.307 189 322.235 189C331.616 189 339.221 198.234 339.221 209.625C339.221 221.016 331.616 230.25 322.235 230.25C319.706 230.25 317.306 229.579 315.149 228.375" stroke="black" stroke-linecap="round" stroke-linejoin="round"/>
<path d="M290.25 207.75L297.172 202.991C298.21 202.434 299.356 202.125 300.562 202.125C305.222 202.125 309 206.742 309 212.437C309 216.922 306.555 220.53 302.863 222.025C301.867 222.429 300.919 222.678 299.625 222.75C296.025 222.95 291.188 219 291.188 219" stroke="black" stroke-linecap="round" stroke-linejoin="round"/>
<path d="M305.25 196.5L317.438 190.875C330.562 190.875 336.132 199.269 336.132 209.625C336.132 219.98 329.219 228.375 320.691 228.375H305.25" stroke="black" stroke-linecap="round" stroke-linejoin="round"/>
<path d="M321.188 211.5L333.375 210.562" stroke="black" stroke-linecap="round" stroke-linejoin="round"/>
<path d="M321.188 217.125H331.5" stroke="black" stroke-linecap="round" stroke-linejoin="round"/>
<path d="M320.25 206.812L332.438 204.938" stroke="black" stroke-linecap="round" stroke-linejoin="round"/>
<path d="M319.312 202.125L328.688 199.312" stroke="black" stroke-linecap="round" stroke-linejoin="round"/>
<path d="M319.312 222.75H327.75" stroke="black" stroke-linecap="round" stroke-linejoin="round"/>
<path d="M314.625 197.438C317.438 196.5 320.25 195.562 323.062 194.625" stroke="black" stroke-linecap="round" stroke-linejoin="round"/>
</svg>
