<svg width="450" height="450" viewBox="0 0 450 450" fill="none" xmlns="http://www.w3.org/2000/svg">
<path d="M6 346V343.5L96.5 394.5L132 387H134.5L171.5 373.5V372L193 359.5V362L174 373.5L175 375L134.5 390.5L132 389L96.5 397.5L6 346Z" fill="black"/>
<path d="M273 359.5C271.8 359.5 270 358 269 356.5C269 356.5 298.459 350.5 300 350.5C301.541 350.5 302.5 351 303 352.5C300 357 299 359.083 296.5 359.5C293.5 360 274.2 359.5 273 359.5Z" fill="black"/>
<path d="M316 377.5C314.8 377.5 313 376 312 374.5C312 374.5 341.459 368.5 343 368.5C344.541 368.5 345.5 369 346 370.5C343 375 342 377.083 339.5 377.5C336.5 378 317.2 377.5 316 377.5Z" fill="black"/>
<path d="M359 399.5C357.8 399.5 356 398 355 396.5C355 396.5 384.459 390.5 386 390.5C387.541 390.5 388.5 391 389 392.5C386 397 385 399.083 382.5 399.5C379.5 400 360.2 399.5 359 399.5Z" fill="black"/>
<path d="M257.5 97H212.5L193 116.5" stroke="black" stroke-linecap="round" stroke-linejoin="round"/>
<path d="M309.5 60L318.5 51" stroke="black" stroke-linecap="round" stroke-linejoin="round"/>
<path d="M277.5 73L286.5 64" stroke="black" stroke-linecap="round" stroke-linejoin="round"/>
<path d="M342.5 136L351.5 127" stroke="black" stroke-linecap="round" stroke-linejoin="round"/>
<path d="M319 141C344.129 141 364.5 120.629 364.5 95.5C364.5 81.9781 358.602 69.8339 349.237 61.5L319 91.5V50C293.871 50 273.5 70.371 273.5 95.5C273.5 120.629 293.871 141 319 141Z" stroke="black" stroke-linecap="round" stroke-linejoin="round"/>
<path d="M309 151C334.129 151 354.5 130.629 354.5 105.5C354.5 91.9781 348.602 79.8339 339.237 71.5L309 101.5V60C283.871 60 263.5 80.371 263.5 105.5C263.5 130.629 283.871 151 309 151Z" fill="#CCF0F5" stroke="black" stroke-linecap="round" stroke-linejoin="round"/>
<path d="M273.561 217.336L268 222.5L294.5 356L299.902 350.984C300.921 350.038 301.5 348.71 301.5 347.32V221C301.5 218.239 299.261 216 296.5 216H276.963C275.701 216 274.486 216.477 273.561 217.336Z" fill="#CCEAD9" stroke="black" stroke-linecap="round" stroke-linejoin="round"/>
<rect x="266.5" y="221" width="30" height="136" rx="5" fill="#33AB66" stroke="black" stroke-linecap="round" stroke-linejoin="round"/>
<path d="M293.5 221L297.5 216.5" stroke="black" stroke-linecap="round" stroke-linejoin="round"/>
<path d="M296.5 229L301.5 223" stroke="black" stroke-linecap="round" stroke-linejoin="round"/>
<path d="M359.561 257.336L354 262.5L380.5 396L385.902 390.984C386.921 390.038 387.5 388.71 387.5 387.32V261C387.5 258.239 385.261 256 382.5 256H362.963C361.701 256 360.486 256.477 359.561 257.336Z" fill="#CCEAD9" stroke="black" stroke-linecap="round" stroke-linejoin="round"/>
<rect x="352.5" y="261" width="30" height="136" rx="5" fill="#99D5B3" stroke="black" stroke-linecap="round" stroke-linejoin="round"/>
<path d="M379.5 261L383.5 256.5" stroke="black" stroke-linecap="round" stroke-linejoin="round"/>
<path d="M382.5 269L387.5 263" stroke="black" stroke-linecap="round" stroke-linejoin="round"/>
<path d="M316.536 296.964L311 302.5L337.5 374L342.902 368.984C343.921 368.038 344.5 366.71 344.5 365.32V300.5C344.5 297.739 342.261 295.5 339.5 295.5H320.071C318.745 295.5 317.473 296.027 316.536 296.964Z" fill="#CCEAD9" stroke="black" stroke-linecap="round" stroke-linejoin="round"/>
<rect x="309.5" y="301" width="30" height="74" rx="5" fill="#66C08C" stroke="black" stroke-linecap="round" stroke-linejoin="round"/>
<path d="M336 301L340.5 296" stroke="black" stroke-linecap="round" stroke-linejoin="round"/>
<path d="M339.5 307L344.5 301" stroke="black" stroke-linecap="round" stroke-linejoin="round"/>
<path d="M259.5 274H224.5L208 257.5" stroke="black" stroke-linecap="round" stroke-linejoin="round"/>
<path d="M132 362.659L96.5004 371.159V395.159L104.5 393.244L132 386.659V362.659Z" fill="#E0E0E0"/>
<path d="M168.682 349.159L170 350.159L170.957 372.659L193.5 359.159L193 338.159C185.667 341.826 170.536 349.159 168.682 349.159Z" fill="#E0E0E0"/>
<path d="M69.0004 272.006C67.299 271.223 65.6282 270.455 64.0004 269.707L63.8789 312.659C64.4194 313.826 66.3004 316.159 69.5004 316.159C72.4433 316.159 86.3252 311.367 94.5 308.393C95.214 308.133 95.8845 307.887 96.5004 307.659C97.5 307 97.5004 307.559 97.5004 305.159V292.659V285.168C88.433 280.969 78.2636 276.269 69.0004 272.006Z" fill="#E0E0E0"/>
<path d="M194.5 256.159L117 280.659C117 280.659 113.5 281.659 111.501 280.659C109.21 279.514 63.0005 258.659 40.0004 248.659C39.4209 248.466 38.7071 248.094 38.6763 247.659V257.159C38.6763 257.717 38.6763 257.964 38.8191 258.159C38.9324 258.315 39.1357 258.438 39.5004 258.659C39.9823 258.78 44.5896 260.839 51.4309 263.954C51.7777 264.112 52.1303 264.273 52.4883 264.436C52.4922 264.438 52.4961 264.439 52.5 264.441C53.7684 265.019 55.1056 265.63 56.5008 266.268C58.8535 267.345 61.3708 268.499 64.0004 269.707C65.6282 270.455 67.299 271.223 69.0004 272.006C78.2636 276.269 88.433 280.969 97.5004 285.168C102.644 287.55 107.432 289.771 111.5 291.659C114 292.159 115.456 291.426 117.5 290.659C121.451 289.177 121.499 289.16 126.805 287.203L127 287.132C128.823 286.553 130.839 285.923 133 285.256C134.129 284.907 135.299 284.548 136.501 284.18C136.68 284.125 136.859 284.07 137.04 284.015C144.655 281.688 153.533 279.034 162 276.514C163.176 276.164 164.345 275.817 165.5 275.473C181.135 270.824 194.5 266.871 194.5 266.659V256.159Z" fill="#E0E0E0"/>
<path d="M90.0008 170.49L56.0008 192.326C56.4008 192.069 73.8339 188.441 82.0004 186.659L94.3001 177.659C92.5085 175.395 91.0935 172.935 90.0008 170.49Z" fill="#E0E0E0"/>
<path d="M92.5004 228.659L66.1401 236.521C69.757 235.795 71.2174 237.527 71.5004 238.659C72.0401 238.659 82.4061 235.928 92.5004 233.23V228.659Z" fill="#E0E0E0"/>
<path d="M11.5 273.867C16.6705 275.807 19.5708 279.663 20 285.168C20.2776 288.728 19.9142 293.049 17.5 293.963C19.3724 293.556 20.8065 293.228 22 292.953C24.3927 292.402 25.5 292.159 28.5 291.659C35 282.159 24.8333 270.024 20 269.707C18.9407 270.231 17.4441 270.97 16 271.68C13.812 272.756 13.6979 272.812 11.5 273.867Z" fill="#E0E0E0"/>
<path d="M115 325.659C99.1593 326.028 94.8257 320.205 94.5 316.548V328.659V331.159C94.5 333.993 98.7 339.859 115.5 340.659C132.3 341.459 136.501 333.659 136.501 329.659V327.159V316.159C136.501 319.159 132.201 325.259 115 325.659Z" fill="#E0E0E0"/>
<path d="M155.001 185.159L96.0004 199.659L95.0008 201.159V203.159L96.0008 203.659C114.668 199.326 153.001 190.259 157.001 188.659V187.659L156.001 185.21L155.001 185.159Z" fill="#E0E0E0"/>
<path d="M117 147.659L88.1165 137.699C89.1199 138.369 90.7089 147.235 96.0004 149.159C100.4 150.759 111.834 148.826 117 147.659Z" fill="#E0E0E0"/>
<path d="M145.001 137.659C143.801 136.859 131.167 125.659 124.5 120.159C121.829 120.395 117.521 120.92 113 121.744C108.596 122.546 103.99 123.633 100.5 125.014C100.357 125.07 100.216 125.128 100.077 125.185C99.0108 125.703 98.0298 126.895 100.5 128.659C104 131.159 116 144.659 117.5 145.159C119 145.659 137.001 148.159 145.001 137.659Z" fill="#E0E0E0"/>
<path d="M87.0004 153.659V159.659C98.5004 165.159 126.4 172.659 146 158.659L145.5 153.159C136.617 158.588 113.234 166.659 88.0004 154.165C87.6673 154 87.334 153.831 87.0004 153.659Z" fill="#E0E0E0"/>
<path d="M58.5004 77.6595C62.5004 62.0595 75.5004 62.4928 81.5004 64.6595C76.8339 55.9928 67.4008 38.5595 67.0008 38.1595L65.0008 36.1595C55.5008 34.6595 45.0004 44.1595 43.5004 47.1595C42.3004 49.5595 42.3338 50.8261 42.5004 51.1595L58.5004 77.6595Z" fill="#E0E0E0"/>
<path d="M56.0008 192.326L56.5008 231.159C50.6675 229.159 38.9008 225.159 38.5008 225.159C38.0008 225.159 36.5008 225.659 37.5008 226.659C38.3008 227.459 49.5005 230.993 55.0004 232.659C55.8007 233.06 73.3339 227.826 82.0004 225.159V186.659C73.8339 188.441 56.4008 192.069 56.0008 192.326Z" fill="#E0E0E0"/>
<path d="M145 338.159C136.2 336.326 138 331.159 140 329.659L136.501 332.159L135.794 336.258L134 346.659C134.333 348.993 136.7 353.759 143.5 354.159C150.3 354.559 153 350.993 153.5 349.159L155.5 339.159L156 336.659C155.333 335.493 153.9 333.159 153.5 333.159C155.45 335.889 153.8 339.993 145 338.159Z" fill="#E0E0E0"/>
<path d="M135 363.659L134 387.659L171 373.659L170.957 372.659L170 350.159L135 363.659Z" fill="#E0E0E0"/>
<path d="M117 349.159C115.001 347.659 30 305.159 30 304.159V307.659L132 362.659L135 363.659C129.667 359.326 118.6 350.359 117 349.159Z" fill="#E0E0E0"/>
<path d="M134 387.659L135 363.659L132 362.659V386.659L134 387.659Z" fill="#E0E0E0"/>
<path d="M55.0004 232.659L54.0004 234.159V237.659L56.0008 238.659C58.0007 238.048 62.2004 237.192 63.0004 238.659C63.4626 239.507 63.7245 239.246 63.8633 238.659C63.9647 238.231 64.0004 237.629 64.0004 237.159L55.0004 232.659Z" fill="#E0E0E0"/>
<path d="M36.0004 299.159L54.0004 294.659C54.5452 294.432 55.2385 293.951 55.9589 293.159C56.5314 292.531 57.121 291.706 57.6669 290.659L37.1759 294.659C36.1395 297.064 34.2922 298.44 31 298.659L36.0004 299.159Z" fill="#E0E0E0"/>
<path d="M57.6669 290.659C58.1094 289.811 58.5232 288.816 58.8758 287.659L38.0012 291.717C37.8093 292.823 37.5436 293.806 37.1759 294.659L57.6669 290.659Z" fill="#E0E0E0"/>
<path d="M59.4823 285.168C59.6289 284.388 59.7489 283.552 59.8364 282.659C59.928 281.724 59.9839 280.725 59.9973 279.659L38.4945 283.659C38.481 285.682 38.4394 287.519 38.3098 289.159L59.4823 285.168Z" fill="#E0E0E0"/>
<path d="M59.9973 279.659C59.9993 279.494 60.0004 279.328 60.0004 279.159C60.0004 278.262 59.9818 277.431 59.9471 276.659L38.5008 280.659C38.5008 281.7 38.5008 282.701 38.4945 283.659L59.9973 279.659Z" fill="#E0E0E0"/>
<path fill-rule="evenodd" clip-rule="evenodd" d="M37.3738 273.817L37.3735 273.816C37.3588 273.774 37.344 273.732 37.329 273.69C37.3441 273.732 37.359 273.775 37.3738 273.817Z" fill="#E0E0E0"/>
<path d="M59.6351 273.159C58.9806 268.582 57.5991 267.224 56.7688 266.501C56.7327 266.47 56.6977 266.44 56.6639 266.411C56.606 266.361 56.5515 266.314 56.5008 266.268L36.2258 271.159C36.6444 271.961 37.0149 272.804 37.329 273.69C37.344 273.732 37.3588 273.774 37.3735 273.816L37.3738 273.817L37.3908 273.866L37.3911 273.867C37.7637 274.95 38.0522 276.094 38.2415 277.296L59.6351 273.159Z" fill="#E0E0E0"/>
<path d="M39.5004 258.659C39.1357 258.438 38.9324 258.315 38.8191 258.159L38.5008 258.253L36.0004 257.159C32.1493 258.504 24.9442 260.32 21.9613 261.052C22.4384 261.01 22.9506 261.042 23.5 261.159C28.1879 262.164 33.3246 265.635 36.2065 271.123C36.213 271.135 36.2194 271.147 36.2258 271.159L56.5008 266.268C55.1056 265.63 53.7684 265.019 52.5 264.441L52.4883 264.436L51.4309 263.954C49.7977 263.21 48.2919 262.527 46.9391 261.916C45.1827 261.122 43.6842 260.45 42.5 259.926C40.7757 259.163 39.7179 258.714 39.5004 258.659Z" fill="#E0E0E0"/>
<path d="M59.6351 273.159L38.2415 277.296C38.4108 278.371 38.5008 279.493 38.5008 280.659L59.9471 276.659C59.887 275.32 59.7785 274.163 59.6351 273.159Z" fill="#E0E0E0"/>
<path d="M58.8758 287.659C59.1074 286.9 59.3127 286.071 59.4823 285.168L38.3098 289.159C38.2377 290.074 38.1382 290.927 38.0012 291.717L58.8758 287.659Z" fill="#E0E0E0"/>
<path d="M96.5004 395.159L93.0701 393.194C93.0467 394.516 94.4 396.959 100 396.159C105.6 395.359 105.333 393.883 104.5 393.244L96.5004 395.159Z" fill="#E0E0E0"/>
<path d="M17.9623 350.159V352.159C18.1415 352.368 19.2 352.724 22 352.473L17.9623 350.159Z" fill="#E0E0E0"/>
<path d="M87.0004 159.659V153.659C87.334 153.831 87.6673 154 88.0004 154.165M87.0004 159.659C98.5004 165.159 126.4 172.659 146 158.659M87.0004 159.659C87.3142 162.64 88.2381 166.546 90.0008 170.49M87.0004 159.659L35.5004 179.159C35.1671 179.348 34.5004 180.012 34.5004 181.159C34.5004 182.307 35.5004 232.637 36.0004 257.159M146 158.659L145.5 153.159M146 158.659C146 170.49 141.111 176.172 132.015 182.593M145.5 153.159C145.5 147.659 145.567 145.159 145.001 137.659M145.5 153.159C136.617 158.588 113.234 166.659 88.0004 154.165M145.001 137.659C143.801 136.859 131.167 125.659 124.5 120.159C121.829 120.395 117.521 120.92 113 121.744M145.001 137.659C137.001 148.159 119 145.659 117.5 145.159C116 144.659 104 131.159 100.5 128.659C98.0298 126.895 99.0108 125.703 100.077 125.185M88.0004 137.659V154.165M88.0004 137.659C88.305 136.685 88.9478 135.248 89.9729 133.659M88.0004 137.659C88.0383 137.659 88.077 137.673 88.1165 137.699M88.0004 137.659L88.1165 137.699M100.5 125.014C103.99 123.633 108.596 122.546 113 121.744M100.5 125.014C100.357 125.07 100.216 125.128 100.077 125.185M100.5 125.014C100.363 125.059 100.219 125.116 100.077 125.185M113 121.744L81.5004 64.6595M81.5004 64.6595C75.5004 62.4928 62.5004 62.0595 58.5004 77.6595M81.5004 64.6595C76.8339 55.9928 67.4008 38.5595 67.0008 38.1595M58.5004 77.6595C72 101.659 81.0004 121.159 89.9729 133.659M58.5004 77.6595L42.5004 51.1595C42.3338 50.8261 42.3004 49.5595 43.5004 47.1595C45.0004 44.1595 55.5008 34.6595 65.0008 36.1595M89.9729 133.659C91.7529 130.902 94.6854 127.69 99.0004 125.659C99.344 125.498 99.7036 125.34 100.077 125.185M65.0008 36.1595C66.0008 37.1595 66.5008 37.6595 67.0008 38.1595M65.0008 36.1595L67.0008 38.1595M96.0004 199.659V194.159C96.2077 194.056 98.8612 193.367 103.001 192.326M96.0004 199.659L155.001 185.159M96.0004 199.659L95.0008 201.159V203.159L96.0008 203.659M155.001 185.159L152.501 180.159C146.883 181.526 139.54 183.317 132.015 185.159M155.001 185.159L156.001 185.21L157.001 187.659M109.001 190.828C106.782 191.379 104.758 191.884 103.001 192.326M109.001 190.828C107.641 190.646 105.039 189.983 103.692 188.659M109.001 190.828C115.597 189.188 123.912 187.144 132.015 185.159M103.001 192.326L101.501 190.828V186.659C101.668 186.159 102.201 185.659 103.001 187.659C103.148 188.028 103.388 188.361 103.692 188.659M103.692 188.659V185.21M103.692 185.21C107.133 186.818 111.205 187.752 116 187.659C122.557 187.533 127.828 185.549 132.015 182.593M103.692 185.21C99.7939 183.389 96.7071 180.701 94.3001 177.659M132.015 185.159C131.599 184.615 131.017 183.34 132.015 182.593M96.0008 203.659C114.668 199.326 153.001 190.259 157.001 188.659M96.0008 203.659C98.8008 205.659 107.001 206.326 110.751 206.409M157.001 188.659C157.001 188.159 157.001 188.159 157.001 187.659M157.001 188.659C156.602 189.192 155.875 189.874 154.908 190.659M157.001 188.659V187.659M133.501 206.159C129.168 204.159 118.501 201.959 110.501 209.159M133.501 206.159C134.001 208.159 134.001 208.659 134.001 211.159M133.501 206.159V204.409M110.501 209.159L110.751 206.409M110.501 209.159V211.159M110.501 214.159C114.334 211.326 124.401 206.759 134.001 211.159M110.501 214.159L111.501 216.159M110.501 214.159V211.159M134.001 211.159C134.001 212.659 134.001 212.659 134.001 214.159M111.501 216.159C114.834 213.326 127.001 210.159 134.001 214.159M111.501 216.159L112.001 218.659M134.001 214.159C134.001 215.159 133.906 215.159 134.001 216.159M112.001 218.659C114.168 216.159 121.601 212.159 134.001 216.159M112.001 218.659L112.215 220.159M134.001 216.159C135.477 231.659 134.001 216.659 135.5 233.159M114.501 236.159C117.334 233.326 125.701 228.959 136.501 234.159M114.501 236.159L114.358 235.159M114.501 236.159L115.501 240.494M136.501 234.159L136.001 240.659C136.001 241.659 136.001 241.659 136.001 242.159C129.201 239.359 120.501 241.326 117 242.659H116L115.501 240.494M136.501 234.159C136.431 233.627 135.564 233.628 135.5 233.159M117.001 241.659C120.168 239.993 128.201 237.459 135.001 240.659M133.501 204.409V202.659C124.701 196.259 111.001 203.659 111.001 203.659L110.751 206.409M133.501 204.409C139.198 201.144 150.062 194.6 154.908 190.659M137.001 203.159L139.501 207.659M139.501 207.659V208.659L142.001 212.659L143.5 212.36M139.501 207.659C139.763 207.502 140.04 207.335 140.332 207.159M154.908 190.659C156.5 192.659 156.501 192.659 158 194.659M158 194.659C158 195.159 157.698 194.99 157.5 195.159C154.847 197.434 145.6 203.98 140.332 207.159M158 194.659L161.001 199.159C160.781 199.933 161.001 200.284 160.501 200.659C160.379 200.751 160.211 200.875 160.001 201.029M145.001 211.802C144.829 211.925 144.662 212.045 144.501 212.159L143.5 212.36M145.001 211.802C149.449 208.624 157.546 202.828 160.001 201.029M145.001 211.802L145.567 212.659M160.001 201.029C160.301 201.434 160.638 201.89 161.001 202.379M145.567 212.659L152.501 223.159C152.834 223.326 153.701 223.559 154.501 223.159C155.301 222.759 163.501 216.993 167.501 214.159C167.834 213.588 168.401 212.317 168.001 211.802C167.649 211.35 163.657 205.966 161.001 202.379M145.567 212.659C147.878 211.973 154.201 208.955 161.001 202.379M139.001 204.409C144.001 201.659 154.501 195.559 156.501 193.159M112.001 205.659C112.001 205.659 122.027 200.059 132.015 203.659M118.001 242.659L118.501 245.159L119.501 245.659C122.168 244.159 128.601 241.959 133.001 245.159C133.501 244.659 133.501 244.659 134.001 244.159L133.813 241.659M120.501 245.659C122.677 246.493 128.027 247.559 132.015 245.159M104.501 206.159V208.659C105.001 209.659 106.901 211.559 110.501 211.159M103.692 208.659V213.659C104.602 215.159 107.337 217.959 111.001 217.159M106.001 216.159V218.659M106.001 218.659C106.811 219.493 109.187 220.959 112.215 220.159M106.001 218.659C105.899 221.623 105.771 226.404 105.78 229.659M112.215 220.159L114.358 235.159M106.001 233.159C106.501 233.159 110.215 236.159 114.358 235.159M106.001 233.159V238.659C107.334 240.049 111.101 242.362 115.501 240.494M106.001 233.159C105.846 233.159 105.786 231.713 105.78 229.659M90.0008 170.49L56.0008 192.326M90.0008 170.49C91.0935 172.935 92.5085 175.395 94.3001 177.659M56.0008 192.326L56.5008 231.159C50.6675 229.159 38.9008 225.159 38.5008 225.159C38.0008 225.159 36.5008 225.659 37.5008 226.659C38.3008 227.459 49.5005 230.993 55.0004 232.659M56.0008 192.326C56.4008 192.069 73.8339 188.441 82.0004 186.659M55.0004 232.659L54.0004 234.159V237.659L56.0008 238.659M55.0004 232.659L64.0004 237.159M55.0004 232.659C55.8007 233.06 73.3339 227.826 82.0004 225.159M56.0008 238.659C58.0007 238.048 62.2004 237.192 63.0004 238.659C63.4626 239.507 63.7245 239.246 63.8633 238.659M56.0008 238.659C55.6008 239.859 56.1675 241.826 56.5008 242.659M64.0004 237.159C64.0004 237.629 63.9647 238.231 63.8633 238.659M64.0004 237.159C64.7855 236.858 65.4969 236.651 66.1401 236.521M64.0004 237.159L66.1401 236.521M82.0004 186.659L94.3001 177.659M82.0004 186.659V225.159M82.0004 225.159L92.5004 228.659M92.5004 228.659V233.23M92.5004 228.659L66.1401 236.521M36.0004 257.159L38.5008 258.253M36.0004 257.159C32.1493 258.504 24.9442 260.32 21.9613 261.052M71.5004 238.659C72.0401 238.659 82.4061 235.928 92.5004 233.23M71.5004 238.659C67.5004 239.459 64.7423 238.993 63.8633 238.659M71.5004 238.659C71.2174 237.527 69.757 235.795 66.1401 236.521M105.78 229.659C102.172 230.635 97.3676 231.929 92.5004 233.23M135.5 233.159L194.5 256.159M194.5 256.159L117 280.659C117 280.659 113.5 281.659 111.501 280.659C109.21 279.514 63.0005 258.659 40.0004 248.659C39.4209 248.466 38.7071 248.094 38.6763 247.659M194.5 256.159C194.5 259.493 194.5 266.259 194.5 266.659M194.5 256.159V266.659M56.5008 242.659C52.0007 243.659 42.4004 245.859 40.0004 246.659C38.9911 246.996 38.6539 247.344 38.6763 247.659M56.5008 242.659L64.0004 243.659M38.6763 247.659V257.159M38.6763 257.159C38.6763 258.159 38.6763 258.159 39.5004 258.659M38.6763 257.159C38.6763 257.717 38.6763 257.964 38.8191 258.159M39.5004 258.659C39.1357 258.438 38.9324 258.315 38.8191 258.159M39.5004 258.659C39.8673 258.751 42.625 259.966 46.9391 261.916M39.5004 258.659C39.9823 258.78 44.5896 260.839 51.4309 263.954M39.5004 258.659C39.7179 258.714 40.7757 259.163 42.5 259.926M194.5 266.659C194.5 266.871 181.135 270.824 165.5 275.473M71.0004 244.659H71.7504M71.0004 244.659L71.1254 243.659M71.0004 244.659C72.1671 245.326 71.0004 246.659 71.0004 248.659C68.2004 250.259 65.1671 249.326 64.0004 248.659L63.8633 244.159M77.0004 251.659L72.5004 244.659H71.7504M77.0004 251.659L105.78 260.159C106.687 259.826 108.601 259.059 109.001 258.659C109.4 258.259 108.834 257.826 108.5 257.659L82.0004 249.659M77.0004 251.659L82.0004 249.659M82.0004 249.659L77.0004 241.659M77.0004 241.659L71.5004 240.659L71.1254 243.659M77.0004 241.659C75.5004 242.659 72.3504 244.659 71.7504 244.659M64.0004 243.659L63.8633 238.659M64.0004 243.659C64.9308 243.993 67.6583 244.459 71.1254 243.659M136.501 284.18C144.234 281.813 153.332 279.094 162 276.514M136.501 284.18C132.999 285.251 129.776 286.251 127 287.132M136.501 284.18C136.907 284.056 139.711 283.981 143.5 283.442M136.501 284.18C135.299 284.548 134.129 284.907 133 285.256M136.501 284.18C136.68 284.125 136.859 284.07 137.04 284.015M162 276.514C163.176 276.164 164.345 275.817 165.5 275.473M162 276.514C156.66 280.878 149.03 282.655 143.5 283.442M162 276.514C153.533 279.034 144.655 281.688 137.04 284.015M165.5 275.473C164.728 278.984 159.117 284.974 143.5 286.786M127 287.132C133.453 287.49 138.909 287.318 143.5 286.786M127 287.132L126.805 287.203M127 287.132C128.823 286.553 130.839 285.923 133 285.256M127 287.132C126.935 287.156 126.87 287.18 126.805 287.203M64.0004 269.707C61.3708 268.499 58.8535 267.345 56.5008 266.268M64.0004 269.707C65.6282 270.455 67.299 271.223 69.0004 272.006M64.0004 269.707L63.8789 312.659M36.0004 299.159L54.0004 294.659M36.0004 299.159L31 298.659M36.0004 299.159V302.159M54.0004 294.659C56.0004 293.826 60.0004 289.559 60.0004 279.159M54.0004 294.659C54.5452 294.432 55.2385 293.951 55.9589 293.159M60.0004 279.159C60.0004 279.328 59.9993 279.494 59.9973 279.659M60.0004 279.159C60.0004 278.262 59.9818 277.431 59.9471 276.659M60.0004 279.159C60.0004 269.595 57.8858 267.474 56.7688 266.501M56.5008 266.268L36.2258 271.159M56.5008 266.268C55.1056 265.63 53.7684 265.019 52.5 264.441M56.5008 266.268C56.5515 266.314 56.606 266.361 56.6639 266.411C56.6977 266.44 56.7327 266.47 56.7688 266.501M56.5008 266.268C55.1014 265.628 53.7602 265.016 52.4883 264.436M69.0004 272.006L69.5004 312.659M69.0004 272.006C78.2636 276.269 88.433 280.969 97.5004 285.168M63.8789 312.659L63.8633 318.159L36.0004 305.159V302.159M63.8789 312.659C64.4194 313.826 66.3004 316.159 69.5004 316.159C72.4433 316.159 86.3252 311.367 94.5 308.393M97.5004 305.159C97.5004 307.559 97.5 307 96.5004 307.659C95.8845 307.887 95.214 308.133 94.5 308.393M97.5004 305.159C97.5004 303.592 97.5004 297.957 97.5004 292.659M97.5004 305.159V292.659M97.5004 285.168C102.644 287.55 107.432 289.771 111.5 291.659C114 292.159 115.456 291.426 117.5 290.659C121.451 289.177 121.499 289.16 126.805 287.203M97.5004 285.168C97.5004 287.132 97.5004 289.848 97.5004 292.659M97.5004 285.168V292.659M66.0004 318.659L75.0004 323.659M71.7504 317.159L80.7504 322.159M77.5004 315.659L86.5004 320.659M82.5004 313.659L91.5004 318.659M87.5004 312.159L93.5004 315.659M92.0004 310.659L95.5004 312.659M11.5 273.867C16.6705 275.807 19.5708 279.663 20 285.168C20.2776 288.728 19.9142 293.049 17.5 293.963M11.5 273.867C10.3577 274.782 9.13423 276.87 8.5 279.159C6.93178 284.82 8.40039 289.559 14.0004 293.159C15.4857 294.114 16.6286 294.293 17.5 293.963M11.5 273.867C13.6979 272.812 13.812 272.756 16 271.68M17.5 293.963C19.3724 293.556 20.8065 293.228 22 292.953M16 271.68C17.4441 270.97 18.9407 270.231 20 269.707C24.8333 270.024 35 282.159 28.5 291.659C25.5 292.159 24.3927 292.402 22 292.953M16 271.68C16.1349 268.436 17.2968 262.762 20.7061 261.356M38.5008 280.659C38.5008 291.659 38.5 298.159 31 298.659M38.5008 280.659L59.9471 276.659M38.5008 280.659C38.5008 281.7 38.5008 282.701 38.4945 283.659M38.5008 280.659C38.5008 278.187 38.0968 275.917 37.3908 273.866M38.5008 280.659C38.5008 279.493 38.4108 278.371 38.2415 277.296M31 298.659C25 299.059 22.5 295.022 22 292.953M31 298.659C34.2922 298.44 36.1395 297.064 37.1759 294.659M20.7061 261.356C20.8871 261.313 21.3295 261.207 21.9613 261.052M20.7061 261.356C21.0947 261.196 21.5125 261.091 21.9613 261.052M36.0004 302.159C34.0003 302.493 30 303.359 30 304.159M30 304.159C30 305.159 115.001 347.659 117 349.159C118.6 350.359 129.667 359.326 135 363.659M30 304.159V307.659M135 363.659L134 387.659M135 363.659L170 350.159M135 363.659L132 362.659M134 387.659L171 373.659L170.957 372.659M134 387.659L132 386.659M170 350.159L168.682 349.159M170 350.159L170.957 372.659M30 307.659L132 362.659M30 307.659L4.5 320.659M132 362.659L96.5004 371.159M132 362.659V386.659M96.5004 371.159L4.5 320.659M96.5004 371.159V395.159M4.5 320.659L4 342.159L17.9623 350.159M96.5004 395.159L93.0701 393.194M96.5004 395.159L104.5 393.244M132 386.659L104.5 393.244M93.0701 393.194C93.0467 394.516 94.4 396.959 100 396.159C105.6 395.359 105.333 393.883 104.5 393.244M93.0701 393.194L22 352.473M17.9623 350.159V352.159C18.1415 352.368 19.2 352.724 22 352.473M17.9623 350.159L22 352.473M94.5 308.393L98.5 310.659M98.5 310.659C110 305.159 124.5 307.159 127 308.393C128.14 308.955 131.771 310.514 133.399 312.659M98.5 310.659C97.7935 311.366 96.6876 312.672 96.3817 313.659M96.3817 313.659C96.2547 314.07 96.4134 314.339 96.5004 314.659C97 316.5 96.5 324.341 120 323C129.136 322.479 135.343 315.222 133.399 312.659M96.3817 313.659L94.5 315.659M94.5 315.659V316.548M94.5 315.659C94.4736 315.936 94.472 316.234 94.5 316.548M136.501 316.159C136.501 319.159 132.201 325.259 115 325.659C99.1593 326.028 94.8257 320.205 94.5 316.548M136.501 316.159C136.208 315.659 135.178 314.259 133.399 312.659M136.501 316.159V327.159M94.5 328.659V331.159C94.5 333.993 98.7 339.859 115.5 340.659C132.3 341.459 136.501 333.659 136.501 329.659V327.159M94.5 328.659C93.1667 330.358 92.1885 334.096 95.5004 336.258C102 340.5 108.551 343.364 123 342.159C125.139 341.981 132.294 340.758 135.794 336.258M94.5 328.659V316.548M135.794 336.258L136.501 332.159M135.794 336.258L134 346.659M140 329.659C138 331.159 136.2 336.326 145 338.159C153.8 339.993 155.45 335.889 153.5 333.159M140 329.659C142 328.159 151 329.659 153.5 333.159M140 329.659L136.501 332.159M140 329.659L136.501 327.159M153.5 333.159C153.9 333.159 155.333 335.493 156 336.659L155.5 339.159M136.501 332.159L134 346.659M134 346.659C134.333 348.993 136.7 353.759 143.5 354.159C150.3 354.559 153 350.993 153.5 349.159L155.5 339.159M155.5 339.159L168.682 349.159M168.682 349.159C170.536 349.159 185.667 341.826 193 338.159M193 338.159L97.5004 292.659M193 338.159L193.5 359.159L170.957 372.659M38.2415 277.296L59.6351 273.159M38.2415 277.296C38.0522 276.094 37.7637 274.95 37.3911 273.867M59.6351 273.159C58.9806 268.582 57.5991 267.224 56.7688 266.501M59.6351 273.159C59.7785 274.163 59.887 275.32 59.9471 276.659M38.4945 283.659L59.9973 279.659M38.4945 283.659C38.481 285.682 38.4394 287.519 38.3098 289.159M59.9973 279.659C59.9839 280.725 59.928 281.724 59.8364 282.659M37.3911 273.867L58.5 269.707M37.3911 273.867L37.3908 273.866M36.2258 271.159C36.6444 271.961 37.0149 272.804 37.329 273.69M36.2258 271.159C36.2194 271.147 36.213 271.135 36.2065 271.123M38.8191 286.659L59.8364 282.659M59.8364 282.659C59.7489 283.552 59.6289 284.388 59.4823 285.168M38.3098 289.159L59.4823 285.168M38.3098 289.159C38.2377 290.074 38.1382 290.927 38.0012 291.717M59.4823 285.168C59.3127 286.071 59.1074 286.9 58.8758 287.659M38.0012 291.717L58.8758 287.659M38.0012 291.717C37.8093 292.823 37.5436 293.806 37.1759 294.659M58.8758 287.659C58.5232 288.816 58.1094 289.811 57.6669 290.659M37.1759 294.659L57.6669 290.659M57.6669 290.659C57.121 291.706 56.5314 292.531 55.9589 293.159M35 268.659L52.5 264.441M52.5 264.441L52.4883 264.436M52.5 264.441C52.4961 264.439 52.4922 264.438 52.4883 264.436M32.5 266.153L46.9391 261.916M46.9391 261.916C48.2919 262.527 49.7977 263.21 51.4309 263.954M46.9391 261.916C45.1827 261.122 43.6842 260.45 42.5 259.926M29.386 263.659L42.5 259.926M26 261.916L38.5008 258.253M38.8191 258.159L38.5008 258.253M35.4678 297.159L55.9589 293.159M112.215 212.426V207.784M114.358 211.802V207.159M116.5 211.017V206.374M118.501 209.802V205.159M120.501 209.105V204.462M122.5 208.89V204.247M124.5 208.852V204.21M126.5 208.982V204.339M128.5 209.273V204.63M130.752 209.802V205.159M132.5 210.382V205.74M140.332 207.159L143.5 212.36M142.001 206.147L145.169 211.347M143.819 205.182L146.987 210.382M145.369 204.073L148.538 209.273M146.841 203.159L150 208.226M148.538 202.093L151.489 207.159M149.95 201.081L152.902 206.147M151.549 199.933L154.501 204.999M153.413 198.593L156.365 203.659M155.189 197.313L158.141 202.379M156.549 196.328L159.5 201.081M105 209.802C105 210.574 105 213.555 105 214.659M107 210.749C107 211.521 107 215.055 107 216.159M109.001 211.347C109.001 212.119 109.001 215.555 109.001 216.659M143.5 283.442V286.786M142 283.6V286.944M140.5 283.727V287.071M138.919 283.951V286.786M145 283.251V286.595M146.5 283.024V286.368M148 282.635V285.979M149.5 282.283V285.627M151 282.094V285.438M152.5 281.684V285.028M154 280.906V284.25M155.5 280.671V284.015M156.884 280.098V283.442M158.554 279.291V282.635M160.198 278.34V281.684M161.5 276.91V280.254M163.197 276.514V279.291M137.04 284.015V286.85M135 285.028V286.786M133 285.256V287.014M131 285.876V287.29M138 338.159C139.667 339.826 144.9 342.659 152.5 340.659M88.1165 137.699L117 147.659C111.834 148.826 100.4 150.759 96.0004 149.159C90.7089 147.235 89.1199 138.369 88.1165 137.699ZM37.3738 273.817L37.3735 273.816C37.3588 273.774 37.344 273.732 37.329 273.69M37.3738 273.817C37.359 273.775 37.3441 273.732 37.329 273.69M37.3738 273.817L37.3908 273.866M37.3738 273.817C37.3795 273.834 37.3851 273.85 37.3908 273.866M37.329 273.69C37.0101 272.791 36.633 271.935 36.2065 271.123M21.9613 261.052C22.4384 261.01 22.9506 261.042 23.5 261.159C28.1879 262.164 33.3246 265.635 36.2065 271.123M51.4309 263.954L52.4883 264.436M51.4309 263.954C51.7777 264.112 52.1303 264.273 52.4883 264.436M115.501 249.659C114.001 249.659 110.9 249.859 110.5 250.659C110 251.659 110.476 253.659 115.501 253.659C119.501 253.659 121 253.159 122 252.159C122.5 250.659 121.101 249.659 115.501 249.659ZM107.5 251.659C107.667 252.993 110.285 255.159 115.5 255.159C120.001 255.159 122.212 254.803 123.5 254.159C125 253.409 128.787 249.659 120.501 248.659C113.872 247.859 110.072 248.993 109.001 249.659C108.388 249.993 107.23 250.859 107.5 251.659Z" stroke="black" stroke-linecap="round" stroke-linejoin="round"/>
<rect width="31.1255" height="83.0014" rx="15.5628" transform="matrix(0.707116 -0.707097 0.707116 0.707097 362.297 35.3037)" fill="white"/>
<path d="M373.301 46.307C367.224 40.2296 367.224 30.3762 373.301 24.2988C379.379 18.2214 389.233 18.2214 395.31 24.2988L414.137 43.1251C414.137 43.1251 405.479 46.8488 401.203 50.9062C396.423 55.4426 392.128 65.1334 392.128 65.1334L373.301 46.307Z" fill="#F5B166"/>
<ellipse rx="4.01701" ry="3.65883" transform="matrix(0.70714 -0.707074 0.70714 0.707074 383.287 26.5054)" fill="white"/>
<path d="M370.079 35.3445L420.656 85.9226C417.414 85.9226 414.166 84.3853 412.226 82.6805C411.489 82.032 373.807 44.4226 373.321 43.7742C369.92 39.2351 370.079 35.3445 370.079 35.3445Z" fill="#FAFAFA"/>
<rect width="31.1257" height="83.0019" rx="15.5629" transform="matrix(0.707104 -0.707109 0.707104 0.707109 362.297 35.3051)" stroke="black" stroke-linecap="round" stroke-linejoin="round"/>
<path d="M392.195 65.0695C392.195 65.0695 396.921 55.4341 401.852 50.9066C405.88 47.2086 413.746 43.5195 413.746 43.5195" stroke="black" stroke-linecap="round" stroke-linejoin="round"/>
<path d="M420.822 169.352C432.594 158.121 430.003 147.345 430.003 147.345L426.498 133.969L376.723 162.06L383.032 172.761C392.615 181.903 409.049 180.584 420.822 169.352Z" fill="#F2F2F2"/>
<ellipse rx="28.6963" ry="23.3574" transform="matrix(0.723545 -0.690277 0.723545 0.690277 401.109 146.108)" fill="white"/>
<path d="M383.334 133.667L417.967 158.868" stroke="#F2F2F2" stroke-width="1.33333" stroke-linecap="round" stroke-linejoin="round"/>
<path d="M420.222 128.333C411.635 120.21 396.222 120.778 385.111 131.84L419.334 156.778C426.569 147.176 427.73 135.435 420.222 128.333Z" fill="#FAFAFA"/>
<path d="M417.965 159.971C418.255 159.745 418.308 159.326 418.082 159.035C417.856 158.745 417.437 158.692 417.146 158.918L417.965 159.971ZM382.363 163.444L381.906 163.93L381.943 163.964L381.984 163.993L382.363 163.444ZM382.875 136.316C383.111 136.033 383.072 135.613 382.79 135.377C382.507 135.141 382.086 135.179 381.851 135.462L382.875 136.316ZM417.146 158.918C405.291 168.138 392.728 169.788 382.742 162.896L381.984 163.993C392.605 171.323 405.819 169.417 417.965 159.971L417.146 158.918ZM382.82 162.959C379.077 159.435 377.158 155.121 377.123 150.541C377.088 145.953 378.943 141.031 382.875 136.316L381.851 135.462C377.761 140.367 375.752 145.585 375.79 150.551C375.828 155.524 377.92 160.177 381.906 163.93L382.82 162.959Z" fill="#FAFAFA"/>
<path d="M421.544 126.213C429.745 134.037 429.448 147.377 421.544 157.955C421.126 158.514 420.682 160.489 420.222 161.032C419.813 161.514 419.392 160.565 418.951 161.032C418.536 161.47 418.106 161.902 417.662 162.325C406.137 173.32 389.19 174.979 379.809 166.029C370.429 157.08 372.167 140.912 383.692 129.917C395.216 118.922 412.164 117.264 421.544 126.213Z" stroke="black"/>
<path d="M419.436 127.829L419.089 128.189L419.436 127.829ZM384.764 130.858C384.565 131.05 384.559 131.366 384.751 131.565C384.942 131.764 385.259 131.77 385.458 131.579L384.764 130.858ZM419.428 156.036C419.264 156.258 419.311 156.571 419.533 156.735C419.755 156.9 420.068 156.853 420.232 156.631L419.428 156.036ZM385.458 131.579C395.784 121.636 410.838 120.245 419.089 128.189L419.782 127.469C411.02 119.032 395.339 120.676 384.764 130.858L385.458 131.579ZM419.089 128.189C426.301 135.133 426.485 146.504 419.428 156.036L420.232 156.631C427.51 146.8 427.443 134.845 419.782 127.469L419.089 128.189Z" fill="black"/>
<path d="M417.453 160.092C417.654 159.903 417.664 159.587 417.475 159.386C417.285 159.185 416.969 159.175 416.768 159.364L417.453 160.092ZM381.899 163.985L381.556 164.349L381.899 163.985ZM382.746 135.32C382.923 135.108 382.894 134.793 382.682 134.616C382.47 134.439 382.155 134.468 381.978 134.68L382.746 135.32ZM416.768 159.364C411.622 164.209 405.041 167.228 398.712 168.05C392.378 168.872 386.352 167.491 382.241 163.621L381.556 164.349C385.946 168.482 392.304 169.89 398.84 169.041C405.38 168.192 412.155 165.081 417.453 160.092L416.768 159.364ZM382.241 163.621C374.754 156.571 374.848 144.793 382.746 135.32L381.978 134.68C373.834 144.449 373.586 156.845 381.556 164.349L382.241 163.621Z" fill="black"/>
<line x1="383.002" y1="132.371" x2="418.777" y2="158.302" stroke="black" stroke-linecap="round" stroke-linejoin="round"/>
<path d="M376.666 162.111L383.031 172.761C392.614 181.902 409.048 180.583 420.821 169.352C432.593 158.12 430.002 147.345 430.002 147.345L426.888 135.444" stroke="black" stroke-linecap="round" stroke-linejoin="round"/>
</svg>