<svg width="120" height="120" viewBox="0 0 120 120" fill="none" xmlns="http://www.w3.org/2000/svg">
<path d="M87.5366 9C81.3749 18.7646 75.272 29.1395 71 35.8526H103.345C98.4629 26.6983 92.9703 18.1543 87.5366 9Z" fill="#E0E0E0"/>
<path d="M40.1916 4.3801C40.3994 2.00513 43.9619 2.3168 43.9619 2.3168L43.5463 7.06674C43.5463 7.06674 40.0206 6.33541 40.1916 4.3801Z" fill="#F5F5F5"/>
<path d="M43.858 3.50429L43.6502 5.87926C48.2682 6.28328 49.2289 7.43731 48.9648 12.4715C48.0781 22.6061 46.9877 35.7023 46.1436 45.3509L48.3942 46.3795L51.5501 10.3074C51.8198 5.27133 48.3339 3.89588 43.858 3.50429Z" fill="#F5F5F5"/>
<path d="M20.2968 4.37778C20.089 2.00281 16.5266 2.31448 16.5266 2.31448L16.9421 7.06442C16.9421 7.06442 20.4679 6.33309 20.2968 4.37778Z" fill="#F5F5F5"/>
<path d="M16.8382 5.87694L16.6305 3.50197C12.1066 3.89775 8.58391 5.29315 8.85862 10.4078L11.7905 45.9469L14.1743 44.7549L11.4328 12.4771C11.1715 7.4427 12.1485 6.28724 16.8382 5.87694Z" fill="#F5F5F5"/>
<path d="M44.8948 45.0015C48.3158 45.0015 49 48.2737 49 49.8659C49 60.7779 42.4054 86.0012 29.1578 86.0015C15.9102 86.0017 10 55.7664 10 49.8659C10 48.2738 10.6842 45.0015 14.1052 45.0015C16.8421 45.0015 18.6934 46.1858 18.8947 49.8659C18.8947 55.4252 25.0526 57.6581 29.842 57.5099C34.81 57.3562 39.8012 55.4252 40.1053 49.8659C40.3066 46.1858 42.1579 45.0015 44.8948 45.0015Z" fill="#C4C4C4"/>
<path d="M18 59.593C18 63.9589 21.988 81.0016 29.9997 81.0015C38.0115 81.0013 42 67.6671 42 59.593C42 55.6129 37.8119 61.7485 29.9997 61.7485C22.1876 61.7485 18.0002 55.0228 18 59.593Z" fill="white"/>
<path d="M88.8847 77.0001L84.6649 77C84.6649 93.9591 82.5738 114.738 60.822 114.738C39.4535 114.486 31.4121 98.0856 31.6169 85.7856L28 86C27.9989 98.5387 37.0423 118 60.822 118C81.9197 118 90.0903 99.8429 88.8847 77.0001Z" fill="#F5F5F5"/>
<path d="M89 75.3158C89 74.8948 85 74.8947 85 75.3157L85 77H89L89 75.3158Z" fill="#C4C4C4"/>
<ellipse cx="87" cy="62.5" rx="13" ry="12.5" fill="#C4C4C4"/>
<ellipse cx="87" cy="62.5" rx="11" ry="10.5" fill="#9E9E9E"/>
<circle cx="87" cy="62" r="4" fill="#F5F5F5"/>
<path d="M87.7823 30.7563C86.9685 30.7563 86.9683 31.9661 87.7823 31.9661C88.5958 31.9662 88.5958 30.7564 87.7823 30.7563Z" stroke="black" stroke-linecap="round" stroke-linejoin="round"/>
<path d="M87.7827 26.3699V15.6345" stroke="black" stroke-linecap="round" stroke-linejoin="round"/>
<path d="M87.8413 8.98047C81.6796 18.6586 75.5767 28.9417 71.3047 35.5954H103.65C98.7676 26.5222 93.275 18.0538 87.8413 8.98047Z" stroke="black" stroke-linecap="round" stroke-linejoin="round"/>
<path d="M43.9619 2.31558L44.46 2.35916C44.484 2.08407 44.2805 1.84155 44.0054 1.81748L43.9619 2.31558ZM43.5463 7.06552L43.4448 7.5551C43.5846 7.5841 43.7301 7.55194 43.8447 7.46672C43.9593 7.3815 44.032 7.25135 44.0444 7.1091L43.5463 7.06552ZM43.6938 5.37994C43.4187 5.35587 43.1762 5.55937 43.1521 5.83446C43.128 6.10955 43.3315 6.35207 43.6066 6.37613L43.6938 5.37994ZM48.9648 12.4703L49.4629 12.5139L49.4636 12.5052L49.4641 12.4965L48.9648 12.4703ZM45.6455 45.3061C45.6214 45.5812 45.8249 45.8237 46.1 45.8478C46.3751 45.8719 46.6176 45.6684 46.6417 45.3933L45.6455 45.3061ZM43.9016 3.00497C43.6265 2.9809 43.3839 3.1844 43.3599 3.45949C43.3358 3.73458 43.5393 3.9771 43.8144 4.00116L43.9016 3.00497ZM51.5501 10.3062L52.0482 10.3498L52.0489 10.3413L52.0494 10.3329L51.5501 10.3062ZM47.8961 46.3347C47.872 46.6098 48.0755 46.8524 48.3506 46.8764C48.6257 46.9005 48.8682 46.697 48.8923 46.4219L47.8961 46.3347ZM43.9619 2.31558C44.0054 1.81748 44.0053 1.81747 44.0051 1.81745C44.005 1.81744 44.0048 1.81743 44.0046 1.81741C44.0043 1.81738 44.0039 1.81735 44.0035 1.81732C44.0026 1.81724 44.0015 1.81715 44.0002 1.81704C43.9976 1.81683 43.9942 1.81655 43.9899 1.81622C43.9813 1.81556 43.9694 1.8147 43.9543 1.81372C43.9242 1.81176 43.8816 1.80934 43.8282 1.80722C43.7215 1.80298 43.5709 1.7999 43.3903 1.80413C43.0316 1.81252 42.5422 1.84997 42.0385 1.9703C41.0549 2.20525 39.8264 2.81695 39.6935 4.3353L40.6897 4.42245C40.7647 3.56583 41.4212 3.14589 42.2708 2.94293C42.6837 2.84431 43.0979 2.81124 43.4137 2.80385C43.5703 2.80019 43.6996 2.8029 43.7886 2.80643C43.833 2.8082 43.8671 2.81016 43.8893 2.8116C43.9004 2.81233 43.9085 2.81292 43.9134 2.8133C43.9159 2.81348 43.9175 2.81362 43.9183 2.81368C43.9188 2.81372 43.919 2.81374 43.9189 2.81374C43.9189 2.81373 43.9189 2.81373 43.9188 2.81372C43.9187 2.81372 43.9186 2.81371 43.9186 2.8137C43.9184 2.81369 43.9183 2.81368 43.9619 2.31558ZM39.6935 4.3353C39.6359 4.99434 39.8968 5.53754 40.2705 5.95642C40.6365 6.36665 41.1239 6.67548 41.5824 6.90323C42.0455 7.13329 42.5091 7.29522 42.8534 7.39931C43.0265 7.45164 43.1718 7.49005 43.2748 7.51559C43.3264 7.52837 43.3675 7.53797 43.3964 7.5445C43.4108 7.54777 43.4222 7.55028 43.4304 7.55204C43.4344 7.55292 43.4377 7.55361 43.4401 7.55412C43.4413 7.55438 43.4423 7.55459 43.4431 7.55475C43.4435 7.55483 43.4438 7.5549 43.4441 7.55496C43.4442 7.55499 43.4444 7.55502 43.4445 7.55504C43.4446 7.55507 43.4448 7.5551 43.5463 7.06552C43.6479 6.57594 43.648 6.57597 43.6481 6.57599C43.6481 6.57599 43.6482 6.57601 43.6482 6.57602C43.6483 6.57603 43.6483 6.57603 43.6483 6.57603C43.6482 6.57601 43.6479 6.57595 43.6474 6.57585C43.6464 6.57564 43.6446 6.57525 43.642 6.57469C43.6368 6.57356 43.6284 6.57172 43.6171 6.56916C43.5944 6.56403 43.56 6.556 43.5154 6.54497C43.4263 6.52288 43.2975 6.48887 43.1428 6.44209C42.8314 6.34795 42.4242 6.20484 42.0273 6.00765C41.6257 5.80815 41.2637 5.56753 41.0167 5.2907C40.7775 5.02252 40.6619 4.74106 40.6897 4.42245L39.6935 4.3353ZM43.4638 2.272L43.0482 7.02194L44.0444 7.1091L44.46 2.35916L43.4638 2.272ZM43.6066 6.37613C45.9257 6.57903 47.112 6.96529 47.7498 7.75258C48.068 8.14544 48.2841 8.68039 48.4009 9.44844C48.5183 10.2205 48.5309 11.1966 48.4655 12.4441L49.4641 12.4965C49.5307 11.2269 49.5223 10.1709 49.3895 9.29808C49.2562 8.42126 48.9929 7.69853 48.5268 7.12311C47.5957 5.97383 45.9927 5.58107 43.6938 5.37994L43.6066 6.37613ZM48.4667 12.4267C48.0233 17.4947 47.529 23.303 47.04 29.0499C46.5511 34.797 46.0675 40.4826 45.6455 45.3061L46.6417 45.3933C47.0638 40.5683 47.5475 34.8814 48.0364 29.1346C48.5254 23.3875 49.0196 17.5804 49.4629 12.5139L48.4667 12.4267ZM43.8144 4.00116C46.0336 4.19532 47.907 4.62892 49.1884 5.56647C50.4254 6.47159 51.1783 7.89828 51.0508 10.2794L52.0494 10.3329C52.1915 7.67802 51.3363 5.89894 49.7789 4.75942C48.2657 3.65232 46.1583 3.20241 43.9016 3.00497L43.8144 4.00116ZM51.052 10.2626L47.8961 46.3347L48.8923 46.4219L52.0482 10.3498L51.052 10.2626Z" fill="black"/>
<path d="M16.5266 2.3135L16.483 1.8154C16.2079 1.83947 16.0045 2.08199 16.0285 2.35708L16.5266 2.3135ZM16.9422 7.06344L16.4441 7.10702C16.4565 7.24927 16.5292 7.37942 16.6438 7.46464C16.7584 7.54986 16.9039 7.58202 17.0437 7.55302L16.9422 7.06344ZM16.8819 6.37405C17.157 6.34999 17.3605 6.10747 17.3364 5.83238C17.3123 5.55729 17.0698 5.35379 16.7947 5.37786L16.8819 6.37405ZM11.4329 12.4762L10.9335 12.5021L10.934 12.5103L10.9347 12.5185L11.4329 12.4762ZM13.6761 44.7962C13.6995 45.0714 13.9415 45.2755 14.2166 45.2521C14.4918 45.2288 14.6959 44.9868 14.6725 44.7116L13.6761 44.7962ZM16.6741 3.99908C16.9492 3.97502 17.1527 3.7325 17.1286 3.45741C17.1045 3.18232 16.862 2.97882 16.5869 3.00289L16.6741 3.99908ZM8.85867 10.4069L8.35939 10.4337L8.35978 10.4408L8.36037 10.448L8.85867 10.4069ZM11.2922 45.987C11.3149 46.2622 11.5564 46.4669 11.8316 46.4442C12.1068 46.4215 12.3115 46.18 12.2888 45.9048L11.2922 45.987ZM16.5266 2.3135C16.5702 2.8116 16.57 2.81161 16.5699 2.81162C16.5699 2.81163 16.5698 2.81164 16.5697 2.81164C16.5696 2.81165 16.5695 2.81166 16.5695 2.81166C16.5695 2.81166 16.5697 2.81164 16.5701 2.81161C16.571 2.81154 16.5726 2.81141 16.5751 2.81122C16.58 2.81084 16.5881 2.81025 16.5992 2.80952C16.6214 2.80808 16.6555 2.80612 16.6999 2.80435C16.7889 2.80082 16.9182 2.79811 17.0748 2.80178C17.3905 2.80916 17.8048 2.84223 18.2176 2.94085C19.0673 3.14381 19.7238 3.56375 19.7988 4.42038L20.795 4.33322C20.6621 2.81487 19.4335 2.20317 18.45 1.96822C17.9463 1.84789 17.4569 1.81044 17.0982 1.80205C16.9176 1.79782 16.767 1.80091 16.6603 1.80514C16.6068 1.80726 16.5642 1.80968 16.5342 1.81164C16.5191 1.81262 16.5072 1.81348 16.4986 1.81414C16.4943 1.81447 16.4909 1.81475 16.4883 1.81496C16.487 1.81507 16.4859 1.81516 16.485 1.81524C16.4846 1.81527 16.4842 1.81531 16.4839 1.81533C16.4837 1.81535 16.4835 1.81537 16.4834 1.81537C16.4832 1.81539 16.483 1.8154 16.5266 2.3135ZM19.7988 4.42038C19.8266 4.73898 19.711 5.02044 19.4718 5.28862C19.2248 5.56545 18.8628 5.80607 18.4612 6.00557C18.0643 6.20276 17.6571 6.34587 17.3457 6.44001C17.191 6.48679 17.0622 6.5208 16.973 6.54289C16.9285 6.55392 16.8941 6.56195 16.8714 6.56708C16.8601 6.56965 16.8517 6.57148 16.8465 6.57261C16.8439 6.57317 16.8421 6.57356 16.8411 6.57377C16.8406 6.57387 16.8403 6.57393 16.8402 6.57395C16.8402 6.57396 16.8402 6.57395 16.8403 6.57394C16.8403 6.57393 16.8404 6.57391 16.8404 6.57391C16.8405 6.57389 16.8406 6.57386 16.9422 7.06344C17.0437 7.55302 17.0439 7.55299 17.044 7.55296C17.0441 7.55294 17.0443 7.55291 17.0444 7.55288C17.0447 7.55282 17.045 7.55275 17.0454 7.55267C17.0462 7.55251 17.0472 7.5523 17.0484 7.55204C17.0508 7.55153 17.054 7.55084 17.0581 7.54996C17.0662 7.5482 17.0776 7.54569 17.0921 7.54242C17.121 7.53589 17.1621 7.52629 17.2137 7.51351C17.3167 7.48797 17.462 7.44956 17.6351 7.39723C17.9794 7.29314 18.443 7.13121 18.9061 6.90115C19.3646 6.6734 19.852 6.36457 20.218 5.95435C20.5917 5.53546 20.8526 4.99227 20.795 4.33322L19.7988 4.42038ZM16.0285 2.35708L16.4441 7.10702L17.4403 7.01986L17.0247 2.26992L16.0285 2.35708ZM16.7947 5.37786C14.4609 5.58204 12.8374 5.97646 11.8928 7.12429C10.9573 8.26115 10.8037 10.0013 10.9335 12.5021L11.9322 12.4502C11.8007 9.91653 12.005 8.56177 12.665 7.75972C13.316 6.96864 14.526 6.58017 16.8819 6.37405L16.7947 5.37786ZM10.9347 12.5185L13.6761 44.7962L14.6725 44.7116L11.9311 12.4338L10.9347 12.5185ZM16.5869 3.00289C14.306 3.20244 12.177 3.65845 10.649 4.78145C9.07709 5.93679 8.21474 7.7405 8.35939 10.4337L9.35795 10.38C9.22789 7.95853 9.98955 6.5072 11.2413 5.58722C12.537 4.6349 14.4311 4.19532 16.6741 3.99908L16.5869 3.00289ZM8.36037 10.448L11.2922 45.987L12.2888 45.9048L9.35698 10.3658L8.36037 10.448Z" fill="black"/>
<path d="M40.1053 49.8647L40.6046 49.892L40.1053 49.8647ZM18.8947 49.8647H19.3947V49.851L19.3939 49.8374L18.8947 49.8647ZM29.842 57.5087L29.8575 58.0085L29.842 57.5087ZM49.5 49.8647C49.5 49.0154 49.3204 47.7017 48.6612 46.5818C47.9834 45.4304 46.8027 44.5002 44.8948 44.5002V45.5002C46.4078 45.5002 47.2797 46.2062 47.7994 47.089C48.3375 48.0032 48.5 49.1218 48.5 49.8647H49.5ZM44.8948 44.5002C43.463 44.5002 42.1716 44.8091 41.2125 45.6828C40.2504 46.5591 39.7108 47.9227 39.6061 49.8373L40.6046 49.892C40.7011 48.1265 41.1878 47.0579 41.8859 46.4221C42.587 45.7835 43.5897 45.5002 44.8948 45.5002V44.5002ZM10.5 49.8647C10.5 49.1218 10.6625 48.0033 11.2006 47.0891C11.7203 46.2063 12.5922 45.5003 14.1052 45.5003V44.5003C12.1973 44.5003 11.0166 45.4304 10.3388 46.5818C9.6796 47.7018 9.5 49.0154 9.5 49.8647H10.5ZM14.1052 45.5003C15.4103 45.5003 16.413 45.7835 17.1141 46.4221C17.8122 47.0579 18.2989 48.1265 18.3954 49.892L19.3939 49.8374C19.2892 47.9228 18.7496 46.5592 17.7875 45.6828C16.8283 44.8092 15.537 44.5003 14.1052 44.5003V45.5003ZM18.3947 49.8647C18.3947 52.8663 20.0711 54.9601 22.3223 56.26C24.5579 57.5509 27.3914 58.0848 29.8575 58.0085L29.8265 57.009C27.5032 57.0808 24.863 56.5724 22.8223 55.394C20.7972 54.2246 19.3947 52.4223 19.3947 49.8647H18.3947ZM29.1578 85.5002C26.055 85.5003 23.3294 83.7333 20.9611 80.8655C18.5938 77.999 16.6364 74.0926 15.0788 69.9686C11.9604 61.7123 10.5 52.7392 10.5 49.8647H9.5C9.5 52.8906 10.9947 61.9854 14.1433 70.3219C15.7192 74.4942 17.7233 78.5154 20.19 81.5023C22.6558 84.488 25.6368 86.5003 29.1578 86.5002L29.1578 85.5002ZM39.6061 49.8373C39.4635 52.4438 38.2357 54.1737 36.4568 55.2903C34.6533 56.4223 32.2623 56.9336 29.8265 57.009L29.8575 58.0085C32.3897 57.9301 34.9782 57.399 36.9884 56.1373C39.0231 54.8601 40.443 52.8448 40.6046 49.892L39.6061 49.8373ZM29.1578 86.5002C32.6434 86.5002 35.6606 84.8373 38.2043 82.2382C40.7441 79.643 42.8401 76.0886 44.5059 72.2222C47.836 64.4931 49.5 55.3921 49.5 49.8647H48.5C48.5 55.2491 46.8666 64.2159 43.5875 71.8265C41.9488 75.63 39.9122 79.0634 37.4896 81.5387C35.071 84.0101 32.296 85.5002 29.1578 85.5002L29.1578 86.5002Z" fill="black"/>
<path d="M18 59.5918L17.5 59.5918V59.5918H18ZM29.9997 80.5002C28.1902 80.5003 26.5633 79.541 25.1163 77.9346C23.6687 76.3274 22.4453 74.118 21.4571 71.7413C19.4771 66.9792 18.5 61.693 18.5 59.5918H17.5C17.5 61.8565 18.5169 67.2746 20.5338 72.1253C21.544 74.555 22.8198 76.8791 24.3733 78.6038C25.9274 80.3293 27.8034 81.5003 29.9998 81.5002L29.9997 80.5002ZM29.9998 81.5002C34.3184 81.5001 37.4428 77.9129 39.4585 73.5328C41.4899 69.1187 42.5 63.6945 42.5 59.5918H41.5C41.5 63.5632 40.5159 68.8432 38.5501 73.1147C36.5686 77.4203 33.6929 80.5002 29.9997 80.5002L29.9998 81.5002ZM42.5 59.5918C42.5 59.073 42.436 58.617 42.2318 58.2816C42.1227 58.1023 41.9732 57.9572 41.7816 57.8635C41.5942 57.7719 41.3962 57.7441 41.2085 57.7497C40.8503 57.7605 40.4557 57.897 40.0648 58.0657C39.6636 58.2388 39.2024 58.4755 38.7015 58.732C36.6795 59.7676 33.7745 61.2473 29.9997 61.2473L29.9997 62.2473C34.0372 62.2473 37.1323 60.6592 39.1574 59.622C39.6682 59.3604 40.0967 59.141 40.461 58.9838C40.8356 58.8222 41.0821 58.754 41.2386 58.7493C41.3082 58.7472 41.336 58.7588 41.3424 58.762C41.3447 58.7631 41.3571 58.7679 41.3777 58.8017C41.4331 58.8927 41.5 59.1156 41.5 59.5918H42.5ZM18.5 59.5918C18.5 59.039 18.5667 58.7438 18.6403 58.6001C18.6719 58.5383 18.6962 58.5218 18.7028 58.5178C18.7094 58.5136 18.7308 58.5017 18.7882 58.5004C18.9268 58.4971 19.1601 58.5553 19.5331 58.7219C19.8936 58.8829 20.3197 59.1142 20.8299 59.3941C22.8484 60.5015 25.9511 62.2473 29.9997 62.2473L29.9997 61.2473C26.2362 61.2473 23.3392 59.6302 21.3109 58.5173C20.8093 58.2422 20.3458 57.9897 19.9409 57.8089C19.5485 57.6336 19.1408 57.4918 18.7646 57.5006C18.5648 57.5054 18.3604 57.5526 18.1733 57.6694C17.986 57.7863 17.8483 57.9527 17.7502 58.1444C17.5642 58.5076 17.5 59.002 17.5 59.5918L18.5 59.5918Z" fill="black"/>
<path d="M31.6169 85.7859C31.4121 98.0859 39.4535 114.486 60.822 114.738C82.5738 114.738 84.6649 93.9594 84.6649 77.0002C86.4733 77.0002 87.9501 77.0003 88.8847 77.0004C90.0903 99.8432 81.9197 118 60.822 118C37.0423 118 27.9989 98.3246 28 85.7858" stroke="black" stroke-linecap="round" stroke-linejoin="round"/>
<path d="M89 75.316C89 74.895 85 74.895 85 75.316L85 77.0002H89L89 75.316Z" stroke="black" stroke-linecap="round"/>
<circle cx="87" cy="62" r="4" stroke="black"/>
<ellipse cx="87" cy="62.5" rx="11" ry="10.5" stroke="black"/>
<ellipse cx="87" cy="62.5" rx="13" ry="12.5" stroke="black"/>
</svg>
