<svg width="120" height="120" viewBox="0 0 120 120" fill="none" xmlns="http://www.w3.org/2000/svg">
<path fill-rule="evenodd" clip-rule="evenodd" d="M87.4357 46.2256H75.6539V55.0619H66.8179V66.8436H75.6539V75.6799H87.4357V66.8436H96.2722V55.0619H87.4357V46.2256Z" fill="#C4C4C4"/>
<path d="M50.0489 21.1654C49.6821 22.6225 47.6034 23.4421 46.8391 23.4421H111.952V27.5403C90.2475 27.2367 46.2888 26.7206 44.0877 27.0849C41.7952 30.7277 44.0877 48.9416 44.0877 53.9504C44.0877 58.2702 94.9858 105.405 89.9419 108.592C85.9067 111.142 65.0277 109.655 44.0877 108.592L43.1708 104.494L39.5025 100.851C38.1269 100.396 35.8342 99.4851 34 99.4851C34.9172 93.1102 40.7253 40.8971 42.2537 15.2459C42.4066 14.3352 43.2625 12.4227 45.4635 12.0585C47.6645 11.6942 49.1318 13.1209 49.5904 13.8799C49.7296 15.6775 50.3002 19.0372 50.1232 20.7226L50.5074 18.4333L115.62 18.4333C116.537 19.344 115.62 21.1654 114.703 21.6208L50.0489 21.1654Z" fill="#F5F5F5"/>
<path d="M17.5366 13C11.3749 22.7646 5.27201 33.1395 1 39.8526H33.3452C28.4629 30.6983 22.9703 22.1543 17.5366 13Z" fill="#E0E0E0"/>
<path d="M43 24C43 41.3251 45.9994 96.1786 44.0743 108.785C63.4321 110.17 94.1027 110.624 111.79 108.785C114.582 93.6691 111.667 35.167 111.667 24" stroke="black" stroke-linecap="round" stroke-linejoin="round"/>
<path d="M48.7906 23C70.5104 23 91.2286 23 113.075 23C119.866 23 119.413 10.2235 113.075 10.1315C92.7034 9.83567 50.4103 10.1314 48.7906 10.1315C46.0744 10.1316 42.4527 10.1314 42 15.0126" stroke="black" stroke-linecap="round" stroke-linejoin="round"/>
<path d="M43 19.4059V15.0494C43.4163 12.7176 45.3333 12 47.2 12C48.1333 12 50 12.7842 50 14.1782C50 15.5723 50 17.6634 50 20.7129M50 20.7129C50 23.7624 44.8667 23.7624 44.8667 20.7129H50Z" stroke="black" stroke-linecap="round" stroke-linejoin="round"/>
<path d="M44 108C43.5233 105.658 41.3817 100.493 39.05 99.9474C37.7 99.6316 35.45 99 35 99" stroke="black" stroke-linecap="round" stroke-linejoin="round"/>
<path d="M35 99C36.3881 83.5837 42.8349 34.2704 41.9095 15" stroke="black" stroke-linecap="round" stroke-linejoin="round"/>
<path d="M43 19C43 28.6289 41.0402 90.7504 40 99" stroke="black" stroke-linecap="round" stroke-linejoin="round"/>
<path d="M75.7594 46.1541V45.6541C75.4832 45.6541 75.2594 45.8779 75.2594 46.1541H75.7594ZM87.5508 46.1541H88.0508C88.0508 45.8779 87.827 45.6541 87.5508 45.6541V46.1541ZM75.7594 54.9976V55.4976C76.0355 55.4976 76.2594 55.2738 76.2594 54.9976H75.7594ZM66.916 54.9976V54.4976C66.6399 54.4976 66.416 54.7215 66.416 54.9976H66.916ZM66.916 66.7891H66.416C66.416 67.0652 66.6399 67.2891 66.916 67.2891V66.7891ZM75.7594 66.7891H76.2594C76.2594 66.513 76.0355 66.2891 75.7594 66.2891V66.7891ZM75.7594 75.6327H75.2594C75.2594 75.9088 75.4832 76.1327 75.7594 76.1327V75.6327ZM87.5508 75.6327V76.1327C87.827 76.1327 88.0508 75.9088 88.0508 75.6327H87.5508ZM87.5508 66.7891V66.2891C87.2747 66.2891 87.0508 66.513 87.0508 66.7891H87.5508ZM96.3946 66.7891V67.2891C96.6708 67.2891 96.8946 67.0652 96.8946 66.7891H96.3946ZM96.3946 54.9976H96.8946C96.8946 54.7215 96.6708 54.4976 96.3946 54.4976V54.9976ZM87.5508 54.9976H87.0508C87.0508 55.2738 87.2747 55.4976 87.5508 55.4976V54.9976ZM75.7594 46.6541H87.5508V45.6541H75.7594V46.6541ZM76.2594 54.9976V46.1541H75.2594V54.9976H76.2594ZM66.916 55.4976H75.7594V54.4976H66.916V55.4976ZM67.416 66.7891V54.9976H66.416V66.7891H67.416ZM75.7594 66.2891H66.916V67.2891H75.7594V66.2891ZM76.2594 75.6327V66.7891H75.2594V75.6327H76.2594ZM87.5508 75.1327H75.7594V76.1327H87.5508V75.1327ZM87.0508 66.7891V75.6327H88.0508V66.7891H87.0508ZM96.3946 66.2891H87.5508V67.2891H96.3946V66.2891ZM95.8946 54.9976V66.7891H96.8946V54.9976H95.8946ZM87.5508 55.4976H96.3946V54.4976H87.5508V55.4976ZM87.0508 46.1541V54.9976H88.0508V46.1541H87.0508Z" fill="black"/>
<path d="M17.7828 34.7563C16.969 34.7563 16.9688 35.9661 17.7827 35.9661C18.5963 35.9662 18.5963 34.7564 17.7828 34.7563Z" stroke="black" stroke-linecap="round" stroke-linejoin="round"/>
<path d="M17.7832 30.3699V19.6345" stroke="black" stroke-linecap="round" stroke-linejoin="round"/>
<path d="M17.8413 12.9805C11.6796 22.6586 5.5767 32.9417 1.30469 39.5954H33.6499C28.7676 30.5222 23.275 22.0538 17.8413 12.9805Z" stroke="black" stroke-linecap="round" stroke-linejoin="round"/>
</svg>
