<svg width="120" height="120" viewBox="0 0 120 120" fill="none" xmlns="http://www.w3.org/2000/svg">
<path d="M35.8413 30.2302C29.6796 39.9948 23.5767 50.3697 19.3047 57.0828H51.6499C46.7676 47.9285 41.275 39.3845 35.8413 30.2302Z" fill="#E0E0E0"/>
<path d="M109.928 75.1482C111.092 77.3232 116.705 90.956 117.87 94.1672V114.575H1.9751V94.1672C3.72225 90.4123 7.79899 77.9062 8.96372 74.6438L66.7562 75.1482V52.9524H82.1828V75.1482H109.928Z" fill="#F5F5F5"/>
<path d="M66.5449 75.1484L68.0583 92.2998V94.3176H85.7141L82.1829 75.1484H66.5449Z" fill="#C4C4C4"/>
<path d="M85.3906 46.7776C87.8195 41.5765 90.0889 36.3244 90.7601 35.0178C91.4313 33.7111 93.867 30.9762 96.8018 32.4045C99.7366 33.8327 98.8149 36.9778 98.1437 38.2844C97.4725 39.5911 93.8454 48.0672 92.774 50.0442C90.9959 53.3253 88.3249 53.3106 86.7327 52.6574C85.1405 52.0042 83.8651 50.0442 85.3906 46.7776Z" fill="white"/>
<path d="M88.2363 40.8456C90.6653 35.6445 90.0888 36.3243 90.76 35.0176C91.4313 33.711 93.8669 30.9761 96.8017 32.4043C99.7365 33.8326 98.8149 36.9777 98.1436 38.2843C97.4724 39.591 96.3699 42.3998 95.2985 44.3768L88.2363 40.8456Z" fill="#9E9E9E"/>
<path d="M89.2453 2.003C97.3165 5.02972 109.928 -1.52823 116.99 9.06532C119.008 11.0831 117.831 16.9684 116.99 19.6588C115.645 24.1989 112.753 33.5816 111.946 34.7923C110.937 36.3057 110.432 42.1068 103.874 45.3857C94.7942 49.9258 95.8031 43.8724 95.8031 43.368C95.8031 42.8635 99.3343 39.8368 103.37 36.3057C106.901 25.2078 105.388 23.6944 103.37 19.6588C101.352 15.6232 95.2987 18.1454 94.2898 18.6499C93.2809 19.1543 89.2453 23.19 88.2364 25.7122C90.7586 29.7478 89.0771 31.4293 87.2275 31.2612C87.2275 35.2968 87.7319 41.8546 86.2186 44.3769C79.1563 44.3769 80.1651 32.7745 79.6607 29.7478C76.8358 28.1336 76.1296 24.0307 76.1295 22.1811C75.7932 22.0129 74.9189 21.4748 74.1117 20.6677C73.1028 19.6588 74.1117 15.1187 74.1117 13.6054C74.1117 12.092 72.5983 10.0742 74.6162 8.05642C76.634 6.03861 79.1563 2.003 79.6607 2.003C80.1652 2.003 81.6785 1.49846 83.1919 2.003C84.149 2.3221 86.8836 1.11738 89.2453 2.003Z" fill="#E0E0E0"/>
<path d="M117.87 94.5925C116.705 91.3813 110.881 77.2441 109.716 75.0691H8.96372C7.79899 78.3315 3.72225 90.8376 1.9751 94.5925M117.87 94.5925H1.9751M117.87 94.5925C117.87 99.9396 117.87 110.65 117.87 115C103.892 115 12.458 115 1.9751 115V94.5925M4.30464 97.3625H114.958" stroke="black" stroke-linecap="round" stroke-linejoin="round"/>
<path d="M6.7749 90.2456H16.523" stroke="black" stroke-linecap="round" stroke-linejoin="round"/>
<path d="M103.863 90.2456H113.611" stroke="black" stroke-linecap="round" stroke-linejoin="round"/>
<path d="M88.625 90.2456H98.3731" stroke="black" stroke-linecap="round" stroke-linejoin="round"/>
<path d="M69.5718 57.0015H79.3199" stroke="black" stroke-linecap="round" stroke-linejoin="round"/>
<path d="M22.5542 90.2456H32.3023" stroke="black" stroke-linecap="round" stroke-linejoin="round"/>
<path d="M38.8018 90.2456H48.5499" stroke="black" stroke-linecap="round" stroke-linejoin="round"/>
<path d="M55.0483 90.2456H64.7965" stroke="black" stroke-linecap="round" stroke-linejoin="round"/>
<path d="M97.29 75.6057C98.9147 81.5102 102.164 93.7698 102.164 93.8559" stroke="black" stroke-linecap="round" stroke-linejoin="round"/>
<path d="M82.1265 75.0691C83.2096 81.5103 85.7138 94.2314 85.7138 94.3176" stroke="black" stroke-linecap="round" stroke-linejoin="round"/>
<path d="M66.5449 75.0009C66.5449 73.7135 66.5449 57.5013 66.5449 53.0015H82.1829V75.0009M81.6785 75.5009V92.5004M81.6785 92.5004L82.1829 94.5004M81.6785 92.5004H74.6161H68.5627" stroke="black" stroke-linecap="round" stroke-linejoin="round"/>
<path d="M66.4214 75.0691C66.4214 78.2897 68.0461 93.7699 68.0461 93.8561" stroke="black" stroke-linecap="round" stroke-linejoin="round"/>
<path d="M18.2222 93.8562C19.8469 87.9517 23.0962 75.6921 23.0962 75.606" stroke="black" stroke-linecap="round" stroke-linejoin="round"/>
<path d="M35.5522 93.8562C36.6354 87.415 38.8016 75.1553 38.8016 75.0692" stroke="black" stroke-linecap="round" stroke-linejoin="round"/>
<path d="M51.7988 93.8562C51.7988 91.7091 53.4235 75.6921 53.4235 75.606" stroke="black" stroke-linecap="round" stroke-linejoin="round"/>
<path d="M85.3906 46.7776C87.8195 41.5765 90.0889 36.3244 90.7601 35.0178C91.4313 33.7111 93.867 30.9762 96.8018 32.4045C99.7366 33.8327 98.8149 36.9778 98.1437 38.2844C97.4725 39.5911 93.8454 48.0672 92.774 50.0442C90.9959 53.3253 88.3249 53.3106 86.7327 52.6574C85.1405 52.0042 83.8651 50.0442 85.3906 46.7776Z" stroke="black" stroke-linecap="round" stroke-linejoin="round"/>
<path d="M88.7407 41.002C89.291 42.2019 93.6935 44.0019 94.7941 44.0019" stroke="black" stroke-linecap="round" stroke-linejoin="round"/>
<path d="M89.756 2.00293C84.0503 5.18623 80.6101 21.8667 80.2639 24.9227C78.9983 33.8359 79.1514 44.577 86.4757 44.1435C87.9802 44.0545 87.2144 33.1277 87.2144 31.5095C87.2144 23.9232 88.2156 25.537 92.9201 19.8294C95.0193 17.2826 98.1849 15.957 102.412 18.5561C107.142 21.464 105.576 27.1642 105.006 30.8802C104.066 33.7768 103.406 37.109 100.574 38.8899C99.007 39.8754 97.9503 40.4836 96.7166 41.8626C93.5289 45.4261 97.1406 48.1873 100.944 46.4868C104.623 44.8414 107.34 44.0524 109.767 40.913C110.694 39.7136 111.393 36.6534 111.905 35.1093C112.798 32.4125 113.17 31.5095 114.436 28.106C115.069 23.6494 120.131 17.9194 116.967 9.00619" stroke="black" stroke-linecap="round" stroke-linejoin="round"/>
<path d="M79.6603 2.00293C78.0037 4.48974 76.9858 6.06152 74.8033 8.02725C72.4641 10.1341 74.8773 12.1373 73.6069 19.0025C73.6069 20.0025 74.0105 22.0024 75.6247 22.0024" stroke="black" stroke-linecap="round" stroke-linejoin="round"/>
<path d="M87.7319 31.0021C89.6503 31.0021 91.6148 30.0021 88.1618 26.0022" stroke="black" stroke-linecap="round" stroke-linejoin="round"/>
<path d="M83.1918 2.00293C79.336 9.71701 71.0849 21.0024 79.6858 30.0022" stroke="black" stroke-linecap="round" stroke-linejoin="round"/>
<path d="M35.7828 51.7563C34.969 51.7563 34.9688 52.9661 35.7827 52.9661C36.5963 52.9662 36.5963 51.7564 35.7828 51.7563Z" stroke="black" stroke-linecap="round" stroke-linejoin="round"/>
<path d="M35.7832 47.3699V36.6345" stroke="black" stroke-linecap="round" stroke-linejoin="round"/>
<path d="M35.8413 29.9805C29.6796 39.6586 23.5767 49.9417 19.3047 56.5954H51.6499C46.7676 47.5222 41.275 39.0538 35.8413 29.9805Z" stroke="black" stroke-linecap="round" stroke-linejoin="round"/>
</svg>
