<svg width="48" height="49" viewBox="0 0 48 49" fill="none" xmlns="http://www.w3.org/2000/svg">
<path d="M16.0766 2.29548C16.1597 1.34549 17.5847 1.47016 17.5847 1.47016L17.4184 3.37014C17.4184 3.37014 16.0081 3.0776 16.0766 2.29548Z" fill="#F5F5F5"/>
<path d="M17.5431 1.94515L17.46 2.89514C19.3072 3.05675 19.6914 3.51836 19.5858 5.53204C19.2312 9.58587 18.795 14.8244 18.4573 18.6838L19.3576 19.0953L20.6199 4.6664C20.7278 2.65197 19.3335 2.10179 17.5431 1.94515Z" fill="#F5F5F5"/>
<path d="M8.11882 2.29465C8.03571 1.34466 6.61072 1.46933 6.61072 1.46933L6.77695 3.36931C6.77695 3.36931 8.18725 3.07677 8.11882 2.29465Z" fill="#F5F5F5"/>
<path d="M6.73539 2.89431L6.65228 1.94432C4.84275 2.10264 3.43366 2.6608 3.54355 4.70667L4.71628 18.9223L5.66981 18.4455L4.57322 5.53439C4.46868 3.52062 4.85949 3.05843 6.73539 2.89431Z" fill="#F5F5F5"/>
<path d="M17.9579 18.544C19.3263 18.544 19.6 19.8529 19.6 20.4898C19.6 24.8546 16.9621 34.9439 11.6631 34.944C6.36409 34.9441 4 22.85 4 20.4898C4 19.8529 4.27368 18.544 5.6421 18.544C6.73683 18.544 7.47736 19.0178 7.55788 20.4898C7.55788 22.7135 10.021 23.6067 11.9368 23.5474C13.924 23.4859 15.9205 22.7135 16.0421 20.4898C16.1226 19.0178 16.8632 18.544 17.9579 18.544Z" fill="#C4C4C4"/>
<path d="M7.2002 24.3806C7.2002 26.127 8.79538 32.9441 12.0001 32.944C15.2048 32.9439 16.8002 27.6103 16.8002 24.3806C16.8002 22.7886 15.125 25.2428 12.0001 25.2428C8.87523 25.2428 7.20026 22.5525 7.2002 24.3806Z" fill="white"/>
<path d="M35.5541 31.3435L33.8661 31.3434C33.8661 38.1271 33.0297 46.4387 24.329 46.4387C15.7816 46.3377 12.565 39.7777 12.6469 34.8577L11.2002 34.9434C11.1998 39.9589 14.8171 47.7434 24.329 47.7434C32.7681 47.7434 36.0363 40.4806 35.5541 31.3435Z" fill="#F5F5F5"/>
<path d="M35.6 30.6698C35.6 30.5013 34 30.5013 34 30.6697L34 31.3434H35.6L35.6 30.6698Z" fill="#C4C4C4"/>
<circle cx="34.7999" cy="25.1435" r="5.4" fill="#C4C4C4"/>
<ellipse cx="34.8002" cy="25.1435" rx="3.6" ry="3.6" fill="#9E9E9E"/>
<ellipse cx="34.8002" cy="25.3435" rx="1.6" ry="1.6" fill="#F5F5F5"/>
<path d="M17.5846 1.46966L18.0827 1.51324C18.1068 1.23815 17.9033 0.995633 17.6282 0.971566L17.5846 1.46966ZM17.4184 3.36964L17.3169 3.85922C17.4567 3.88822 17.6022 3.85606 17.7168 3.77084C17.8314 3.68562 17.9041 3.55547 17.9165 3.41322L17.4184 3.36964ZM17.4591 2.64915C17.1832 2.63734 16.95 2.85142 16.9382 3.12731C16.9264 3.4032 17.1405 3.63643 17.4164 3.64823L17.4591 2.64915ZM17.5017 18.4999C17.4776 18.7749 17.6811 19.0175 17.9562 19.0415C18.2313 19.0656 18.4738 18.8621 18.4979 18.587L17.5017 18.4999ZM17.6043 1.24533C17.3292 1.22127 17.0867 1.42476 17.0626 1.69985C17.0385 1.97494 17.242 2.21746 17.5171 2.24153L17.6043 1.24533ZM20.6199 4.6659L21.118 4.70948L21.1188 4.70107L21.1192 4.69264L20.6199 4.6659ZM18.8595 19.0512C18.8354 19.3263 19.0389 19.5688 19.314 19.5929C19.5891 19.6169 19.8316 19.4134 19.8557 19.1383L18.8595 19.0512ZM17.5846 1.46966C17.6282 0.971566 17.6281 0.971551 17.6279 0.971536C17.6278 0.971531 17.6276 0.971515 17.6275 0.971504C17.6273 0.971481 17.627 0.971457 17.6267 0.971431C17.626 0.971379 17.6253 0.971321 17.6246 0.971256C17.623 0.971126 17.6211 0.970972 17.6188 0.970798C17.6142 0.970449 17.6083 0.970021 17.6011 0.969553C17.5867 0.968616 17.5672 0.967511 17.5431 0.966556C17.4951 0.964649 17.4285 0.963305 17.349 0.965164C17.1926 0.968822 16.9743 0.985118 16.7456 1.03976C16.312 1.14334 15.649 1.44555 15.5785 2.2514L16.5747 2.33856C16.5873 2.19443 16.6783 2.08398 16.9779 2.01239C17.1158 1.97945 17.259 1.96754 17.3724 1.96489C17.4278 1.96359 17.4732 1.96457 17.5034 1.96577C17.5185 1.96637 17.5296 1.96701 17.5361 1.96744C17.5394 1.96765 17.5415 1.96781 17.5423 1.96787C17.5428 1.9679 17.5429 1.96791 17.5427 1.9679C17.5426 1.96789 17.5424 1.96787 17.5421 1.96785C17.542 1.96784 17.5418 1.96783 17.5417 1.96781C17.5416 1.9678 17.5414 1.96779 17.5414 1.96779C17.5412 1.96777 17.5411 1.96776 17.5846 1.46966ZM15.5785 2.2514C15.5465 2.61715 15.6944 2.91295 15.8843 3.12572C16.0664 3.32983 16.2989 3.47382 16.4994 3.5734C16.7045 3.67528 16.9068 3.7457 17.0544 3.79032C17.1292 3.81292 17.1923 3.8296 17.2377 3.84085C17.2604 3.84649 17.2788 3.8508 17.2923 3.85383C17.299 3.85535 17.3044 3.85656 17.3086 3.85745C17.3106 3.8579 17.3124 3.85827 17.3137 3.85856C17.3144 3.85871 17.3151 3.85884 17.3156 3.85895C17.3158 3.859 17.3161 3.85905 17.3163 3.8591C17.3164 3.85912 17.3165 3.85915 17.3166 3.85916C17.3167 3.85919 17.3169 3.85922 17.4184 3.36964C17.52 2.88006 17.5201 2.88009 17.5202 2.88011C17.5203 2.88012 17.5204 2.88014 17.5204 2.88016C17.5206 2.88018 17.5207 2.88021 17.5208 2.88022C17.5209 2.88026 17.521 2.88028 17.5211 2.88029C17.5211 2.88029 17.5208 2.88023 17.5202 2.8801C17.519 2.87984 17.5166 2.87931 17.513 2.87849C17.5057 2.87686 17.494 2.87412 17.4783 2.87023C17.4468 2.86243 17.4002 2.85015 17.3438 2.8331C17.2291 2.79843 17.0832 2.74683 16.9443 2.67782C16.8007 2.60649 16.6935 2.53071 16.6305 2.45999C16.5751 2.39793 16.5724 2.36387 16.5747 2.33856L15.5785 2.2514ZM17.0866 1.42609L16.9203 3.32606L17.9165 3.41322L18.0827 1.51324L17.0866 1.42609ZM17.4164 3.64823C17.9457 3.67089 18.2802 3.78169 18.4665 3.93385C18.6195 4.05876 18.7396 4.26638 18.7017 4.69985L19.6979 4.78701C19.7574 4.10637 19.5665 3.54102 19.099 3.15929C18.6649 2.80479 18.0697 2.67528 17.4591 2.64915L17.4164 3.64823ZM18.7017 4.69985C18.5244 6.72699 18.3088 9.21233 18.0953 11.6731C17.8818 14.134 17.6705 16.5704 17.5017 18.4999L18.4979 18.587C18.6668 16.6571 18.8781 14.2203 19.0916 11.7595C19.305 9.29864 19.5206 6.8137 19.6979 4.78701L18.7017 4.69985ZM17.5171 2.24153C18.3683 2.316 19.0418 2.52745 19.4832 2.89308C19.8971 3.23582 20.1675 3.76406 20.1207 4.63917L21.1192 4.69264C21.1802 3.55332 20.8162 2.69864 20.1211 2.12291C19.4535 1.57007 18.5434 1.3275 17.6043 1.24533L17.5171 2.24153ZM20.1218 4.62233L18.8595 19.0512L19.8557 19.1383L21.118 4.70948L20.1218 4.62233Z" fill="black"/>
<path d="M6.61049 1.46881L6.56691 0.970717C6.29182 0.994784 6.08832 1.2373 6.11239 1.51239L6.61049 1.46881ZM6.77672 3.36879L6.27862 3.41237C6.29106 3.55462 6.36374 3.68477 6.47832 3.76999C6.5929 3.85521 6.73845 3.88737 6.87827 3.85837L6.77672 3.36879ZM6.86049 3.56272C7.12993 3.50225 7.29934 3.2348 7.23886 2.96536C7.17839 2.69592 6.91095 2.52652 6.64151 2.58699L6.86049 3.56272ZM5.09971 4.70616L4.60045 4.73379L4.60076 4.73861L5.09971 4.70616ZM5.50082 18.5759C5.51874 18.8515 5.75666 19.0603 6.03222 19.0424C6.30778 19.0245 6.51664 18.7866 6.49871 18.511L5.50082 18.5759ZM6.6781 2.24156C6.95319 2.21749 7.15668 1.97497 7.13262 1.69988C7.10855 1.42479 6.86603 1.2213 6.59094 1.24536L6.6781 2.24156ZM3.54331 4.70616L3.04398 4.73298L3.04445 4.73991L3.54331 4.70616ZM4.00097 18.8772C4.01961 19.1527 4.25807 19.361 4.53358 19.3423C4.80909 19.3237 5.01733 19.0852 4.99869 18.8097L4.00097 18.8772ZM6.61049 1.46881C6.65407 1.96691 6.65391 1.96693 6.65376 1.96694C6.65372 1.96694 6.65357 1.96695 6.65348 1.96696C6.65331 1.96698 6.65315 1.96699 6.65302 1.967C6.65275 1.96702 6.65257 1.96704 6.65246 1.96705C6.65226 1.96707 6.65237 1.96706 6.6528 1.96702C6.65366 1.96696 6.65575 1.9668 6.65901 1.96659C6.66554 1.96616 6.67666 1.96552 6.69172 1.96492C6.72196 1.96372 6.76732 1.96274 6.82275 1.96404C6.93616 1.96669 7.07931 1.97861 7.2172 2.01154C7.51686 2.08313 7.60788 2.19358 7.62049 2.33771L8.61668 2.25055C8.54618 1.4447 7.88315 1.14249 7.44954 1.03891C7.2208 0.984269 7.00251 0.967973 6.84614 0.964315C6.76667 0.962456 6.70005 0.9638 6.65204 0.965706C6.62797 0.966662 6.6084 0.967766 6.59401 0.968703C6.58681 0.969172 6.5809 0.9696 6.57636 0.969948C6.57409 0.970122 6.57216 0.970277 6.57058 0.970406C6.56979 0.970471 6.56909 0.97053 6.56848 0.970582C6.56817 0.970608 6.56789 0.970632 6.56763 0.970654C6.5675 0.970666 6.56732 0.970681 6.56725 0.970687C6.56708 0.970702 6.56691 0.970717 6.61049 1.46881ZM7.62049 2.33771C7.6227 2.36302 7.62005 2.39708 7.56469 2.45914C7.5016 2.52986 7.39443 2.60564 7.25086 2.67697C7.11193 2.74598 6.96601 2.79758 6.85132 2.83225C6.79494 2.8493 6.74835 2.86158 6.71687 2.86938C6.70118 2.87327 6.6894 2.87601 6.68219 2.87764C6.67859 2.87846 6.67614 2.87899 6.67494 2.87925C6.67434 2.87938 6.67405 2.87944 6.67408 2.87944C6.6741 2.87943 6.6742 2.87941 6.67438 2.87938C6.67447 2.87936 6.67458 2.87933 6.67471 2.87931C6.67477 2.87929 6.67489 2.87927 6.67492 2.87926C6.67504 2.87924 6.67516 2.87921 6.77672 3.36879C6.87827 3.85837 6.8784 3.85834 6.87854 3.85831C6.8786 3.8583 6.87874 3.85827 6.87885 3.85825C6.87907 3.8582 6.87931 3.85815 6.87957 3.8581C6.88009 3.85799 6.8807 3.85786 6.88139 3.85771C6.88278 3.85742 6.88451 3.85705 6.88658 3.8566C6.89071 3.85571 6.89617 3.8545 6.90289 3.85298C6.9163 3.84995 6.93475 3.84564 6.95749 3.84C7.00287 3.82875 7.06592 3.81207 7.14069 3.78947C7.28829 3.74485 7.49067 3.67443 7.69576 3.57255C7.89621 3.47297 8.12879 3.32898 8.31088 3.12487C8.5007 2.91211 8.64868 2.6163 8.61668 2.25055L7.62049 2.33771ZM6.11239 1.51239L6.27862 3.41237L7.27481 3.32521L7.10859 1.42524L6.11239 1.51239ZM6.64151 2.58699C6.46597 2.62639 6.32558 2.63686 6.07981 2.67851C5.86901 2.71422 5.60902 2.77088 5.36755 2.90458C5.11084 3.04673 4.89192 3.26618 4.7538 3.59123C4.62157 3.90241 4.57544 4.28159 4.60047 4.73379L5.59894 4.67852C5.57883 4.31508 5.62262 4.10359 5.67416 3.98232C5.7198 3.87491 5.77848 3.82011 5.85196 3.77942C5.9407 3.73029 6.0635 3.69552 6.24686 3.66446C6.39525 3.63931 6.66038 3.60763 6.86049 3.56272L6.64151 2.58699ZM4.60076 4.73861L5.50082 18.5759L6.49871 18.511L5.59865 4.6737L4.60076 4.73861ZM6.59094 1.24536C5.64234 1.32835 4.72338 1.57309 4.04977 2.13225C3.34858 2.71433 2.98204 3.57878 3.04403 4.73297L4.04259 4.67934C3.9947 3.78766 4.269 3.24992 4.6885 2.90169C5.13559 2.53056 5.81717 2.31688 6.6781 2.24156L6.59094 1.24536ZM3.04445 4.73991L4.00097 18.8772L4.99869 18.8097L4.04217 4.67241L3.04445 4.73991Z" fill="black"/>
<path d="M16.0421 20.4893L16.5414 20.5166L16.0421 20.4893ZM7.55788 20.4893H8.05788V20.4756L8.05713 20.462L7.55788 20.4893ZM11.9368 23.5469L11.9523 24.0467L11.9368 23.5469ZM20.1 20.4893C20.1 20.1177 20.023 19.5337 19.723 19.0239C19.4045 18.4828 18.8396 18.0435 17.9579 18.0435V19.0435C18.4447 19.0435 18.7008 19.2587 18.8612 19.5312C19.0401 19.8352 19.1 20.224 19.1 20.4893H20.1ZM17.9579 18.0435C17.3472 18.0435 16.7441 18.1748 16.283 18.5947C15.8189 19.0174 15.5872 19.6514 15.5429 20.462L16.5414 20.5166C16.5776 19.8552 16.7564 19.5162 16.9564 19.334C17.1594 19.1491 17.4739 19.0435 17.9579 19.0435V18.0435ZM4.5 20.4893C4.5 20.2241 4.55988 19.8352 4.73879 19.5312C4.89921 19.2587 5.15533 19.0435 5.6421 19.0435V18.0435C4.76045 18.0435 4.19552 18.4828 3.877 19.024C3.57697 19.5337 3.5 20.1177 3.5 20.4893H4.5ZM5.6421 19.0435C6.12609 19.0435 6.44062 19.1491 6.64362 19.334C6.84364 19.5162 7.02244 19.8552 7.05862 20.5166L8.05713 20.462C8.01279 19.6514 7.78107 19.0174 7.31701 18.5948C6.85593 18.1748 6.25284 18.0435 5.6421 18.0435V19.0435ZM7.05788 20.4893C7.05788 21.8232 7.81061 22.7481 8.7789 23.3072C9.7316 23.8573 10.923 24.0785 11.9523 24.0467L11.9213 23.0471C11.0348 23.0746 10.0368 22.8788 9.27894 22.4412C8.53671 22.0126 8.05788 21.3791 8.05788 20.4893H7.05788ZM11.6631 34.4435C10.5475 34.4435 9.53386 33.8103 8.61576 32.6986C7.69866 31.5881 6.92975 30.06 6.31217 28.4248C5.07391 25.1464 4.5 21.5937 4.5 20.4893H3.5C3.5 21.7451 4.10813 25.4195 5.37668 28.7782C6.0125 30.4616 6.82818 32.1045 7.8447 33.3354C8.86021 34.565 10.1292 35.4435 11.6631 35.4435L11.6631 34.4435ZM15.5429 20.462C15.4915 21.4007 15.0581 22.007 14.4232 22.4055C13.7639 22.8193 12.8667 23.0179 11.9213 23.0471L11.9523 24.0467C12.9941 24.0144 14.0888 23.7961 14.9549 23.2524C15.8455 22.6934 16.4711 21.8016 16.5414 20.5166L15.5429 20.462ZM11.6631 35.4435C13.1616 35.4435 14.4411 34.7265 15.4961 33.6485C16.5472 32.5745 17.4034 31.1164 18.0779 29.551C19.4252 26.4238 20.1 22.7432 20.1 20.4893H19.1C19.1 22.6002 18.4558 26.1466 17.1595 29.1553C16.5121 30.6579 15.7153 31.9949 14.7814 32.9491C13.8515 33.8993 12.8142 34.4435 11.6631 34.4435L11.6631 35.4435Z" fill="black"/>
<path d="M7.19971 24.3801L6.69971 24.3801V24.3801H7.19971ZM11.9996 32.4435C11.3918 32.4435 10.8158 32.1234 10.2691 31.5165C9.72187 30.9089 9.24822 30.0595 8.85957 29.1248C8.07858 27.2464 7.69971 25.1716 7.69971 24.3801H6.69971C6.69971 25.3351 7.11843 27.5419 7.93621 29.5087C8.34694 30.4965 8.87297 31.4606 9.52612 32.1857C10.1799 32.9116 11.005 33.4435 11.9996 33.4435L11.9996 32.4435ZM11.9996 33.4435C13.9147 33.4435 15.239 31.8563 16.0556 30.0819C16.8879 28.2736 17.2997 26.0606 17.2997 24.3801H16.2997C16.2997 25.9293 15.9139 27.998 15.1472 29.6639C14.3649 31.3637 13.2892 32.4435 11.9996 32.4435L11.9996 33.4435ZM17.2997 24.3801C17.2997 24.1598 17.275 23.9075 17.1487 23.7001C17.0784 23.5847 16.9775 23.4845 16.8441 23.4193C16.7148 23.3561 16.5846 23.3401 16.4741 23.3434C16.2703 23.3496 16.068 23.4246 15.9067 23.4942C15.7352 23.5683 15.5409 23.6681 15.3436 23.7692C14.5356 24.183 13.4307 24.7423 11.9996 24.7423L11.9996 25.7423C13.6934 25.7423 14.9885 25.0746 15.7994 24.6593C16.0068 24.553 16.1683 24.4705 16.303 24.4124C16.3688 24.384 16.4191 24.3655 16.4571 24.3543C16.4965 24.3427 16.5097 24.3428 16.5042 24.343C16.4966 24.3432 16.4567 24.343 16.4049 24.3177C16.349 24.2904 16.3129 24.2502 16.2946 24.2201C16.2721 24.1832 16.2997 24.2024 16.2997 24.3801H17.2997ZM7.69971 24.3801C7.69971 24.1701 7.72716 24.1118 7.72287 24.1202C7.71556 24.1344 7.69126 24.1728 7.63965 24.205C7.58819 24.2371 7.54181 24.243 7.52208 24.2435C7.5062 24.2439 7.54724 24.2421 7.6906 24.3061C7.82147 24.3646 7.98073 24.4507 8.18735 24.5641C8.99181 25.0054 10.2946 25.7423 11.9996 25.7423L11.9996 24.7423C10.5797 24.7423 9.48262 24.1341 8.66837 23.6873C8.47031 23.5787 8.27371 23.4713 8.09843 23.393C7.93565 23.3203 7.72023 23.2385 7.49849 23.2438C7.37583 23.2467 7.23916 23.2762 7.11017 23.3567C6.98104 23.4373 6.89195 23.5488 6.83274 23.6645C6.72463 23.8756 6.69972 24.1331 6.69971 24.3801L7.69971 24.3801Z" fill="black"/>
<path d="M12.6467 34.8578C12.5648 39.7778 15.7814 46.3378 24.3288 46.4387C33.0295 46.4387 33.866 38.1272 33.866 31.3435C34.5893 31.3435 35.326 31.3435 35.6998 31.3435C36.1821 40.4806 32.7679 48.2434 24.3288 48.2434C14.8169 48.2434 10.7994 39.8732 10.7998 34.8578" stroke="black" stroke-linecap="round" stroke-linejoin="round"/>
<path d="M35.6 30.6698C35.6 30.5014 34 30.5014 34 30.6698L34 31.3435H35.6L35.6 30.6698Z" stroke="black" stroke-linecap="round"/>
<ellipse cx="34.7997" cy="25.3435" rx="1.6" ry="1.6" stroke="black"/>
<ellipse cx="34.7997" cy="25.1435" rx="3.6" ry="3.6" stroke="black"/>
<ellipse cx="34.7999" cy="25.1435" rx="5.4" ry="5.4" stroke="black"/>
<rect x="27.5996" y="3.49725" width="0.783253" height="19.5813" rx="0.391627" transform="rotate(-45 27.5996 3.49725)" fill="black"/>
<rect x="28.1533" y="17.3434" width="0.783254" height="19.5813" rx="0.391627" transform="rotate(-135 28.1533 17.3434)" fill="black"/>
</svg>
