<svg width="120" height="120" viewBox="0 0 120 120" fill="none" xmlns="http://www.w3.org/2000/svg">
<path d="M95.2896 94.4107C117.363 73.352 112.505 53.1478 112.505 53.1478L105.933 28.0674L12.604 80.7376L24.4344 100.802C42.4014 117.943 73.216 115.469 95.2896 94.4107Z" fill="#F2F2F2"/>
<ellipse rx="53.8055" ry="43.7952" transform="matrix(0.723545 -0.690277 0.723545 0.690277 58.3275 50.8279)" fill="white"/>
<path d="M24.9995 27.5005L89.9364 74.7521" stroke="#F2F2F2" stroke-width="2" stroke-linecap="round" stroke-linejoin="round"/>
<path d="M94.1663 17.5C78.0649 2.26867 49.1663 3.33321 28.333 24.0756L92.4997 70.8332C106.066 52.8298 108.242 30.8151 94.1663 17.5Z" fill="#FAFAFA"/>
<path d="M89.7798 76.6225C90.2157 76.2835 90.2943 75.6552 89.9552 75.2192C89.6161 74.7833 88.9879 74.7047 88.5519 75.0438L89.7798 76.6225ZM23.1797 83.3332L22.4942 84.0612L22.5494 84.1132L22.6117 84.1562L23.1797 83.3332ZM23.9476 32.3069C24.3013 31.8827 24.2441 31.2521 23.8199 30.8984C23.3957 30.5448 22.7652 30.6019 22.4115 31.0261L23.9476 32.3069ZM88.5519 75.0438C66.2698 92.374 42.592 95.5155 23.7478 82.5101L22.6117 84.1562C42.4064 97.8175 67.0611 94.2923 89.7798 76.6225L88.5519 75.0438ZM23.8652 82.6051C16.8017 75.9545 13.1718 67.8016 13.1054 59.1405C13.039 50.4677 16.5463 41.1843 23.9476 32.3069L22.4115 31.0261C14.7729 40.1882 11.0347 49.9162 11.1055 59.1558C11.1764 68.4072 15.0666 77.0679 22.4942 84.0612L23.8652 82.6051Z" fill="#FAFAFA"/>
<path d="M96.6465 13.5248C112.022 28.1937 111.466 53.2063 96.6465 73.0402C95.8625 74.0894 95.0304 77.7922 94.1668 78.8101C93.4007 79.7132 92.6116 77.935 91.7832 78.8101C91.0052 79.6319 90.1998 80.4407 89.3671 81.235C67.7582 101.85 35.9822 104.96 18.3935 88.1797C0.804837 71.3997 4.06391 41.0848 25.6729 20.4694C47.2818 -0.145966 79.0578 -3.25519 96.6465 13.5248Z" stroke="black"/>
<path d="M92.6924 16.5539L92.3456 16.9141L92.6924 16.5539ZM27.9867 22.5495C27.7878 22.741 27.7818 23.0575 27.9733 23.2565C28.1648 23.4554 28.4814 23.4614 28.6803 23.2698L27.9867 22.5495ZM93.0302 69.7023C92.8659 69.9243 92.9127 70.2374 93.1346 70.4017C93.3565 70.566 93.6696 70.5193 93.834 70.2973L93.0302 69.7023ZM28.6803 23.2698C48.1505 4.52282 76.6519 1.80344 92.3456 16.9141L93.0392 16.1938C76.834 0.590514 47.7064 3.56223 27.9867 22.5495L28.6803 23.2698ZM92.3456 16.9141C106.064 30.1232 106.358 51.7001 93.0302 69.7023L93.834 70.2973C107.383 51.9958 107.206 29.8347 93.0392 16.1938L92.3456 16.9141Z" fill="black"/>
<path d="M88.6764 76.7297C88.8775 76.5404 88.887 76.224 88.6977 76.0229C88.5084 75.8219 88.192 75.8124 87.9909 76.0016L88.6764 76.7297ZM22.3111 84.3464L21.9683 84.7104L22.3111 84.3464ZM23.5643 30.3202C23.7412 30.1081 23.7126 29.7928 23.5005 29.616C23.2884 29.4391 22.9731 29.4677 22.7963 29.6798L23.5643 30.3202ZM87.9909 76.0016C78.2757 85.1488 65.852 90.8491 53.8918 92.4019C41.9279 93.9551 30.4839 91.3546 22.6538 83.9823L21.9683 84.7104C30.0774 92.3453 41.8535 94.9731 54.0205 93.3935C66.1912 91.8135 78.8093 86.0199 88.6764 76.7297L87.9909 76.0016ZM22.6538 83.9823C8.4035 70.5652 8.64758 48.2119 23.5643 30.3202L22.7963 29.6798C7.63311 47.8671 7.23614 70.8396 21.9683 84.7104L22.6538 83.9823Z" fill="black"/>
<line x1="23.7696" y1="25.1679" x2="91.5553" y2="74.3015" stroke="black" stroke-linecap="round" stroke-linejoin="round"/>
<path d="M12.5 80.8335L24.4346 100.802C42.4016 117.942 73.2161 115.469 95.2898 94.4098C117.363 73.3511 112.506 53.1475 112.506 53.1475L106.667 30.8335" stroke="black" stroke-linecap="round" stroke-linejoin="round"/>
</svg>
