<svg width="100" height="100" viewBox="0 0 100 100" fill="none" xmlns="http://www.w3.org/2000/svg">
<path d="M70.2616 71.8758C67.2965 67.9223 65.814 63.0459 65.814 45.6839C65.814 28.322 67.7907 26.4107 70.7558 20.9746" stroke="black" stroke-width="0.8" stroke-linecap="round" stroke-linejoin="round"/>
<path d="M35.625 57.1875H32.1875C32.6042 61.4583 33.375 70.4375 33.125 72.1875C32.875 73.9375 35.7292 81.25 37.1875 84.6875C38.3333 84.0625 40.8125 82.5625 41.5625 81.5625C42.5 80.3125 41.25 78.125 39.375 77.8125C37.5 77.5 38.125 76.25 37.5 75.625C37 75.125 36.25 69.7917 35.9375 67.1875C36.4583 67.0833 37.4375 66.4375 37.1875 64.6875C36.9375 62.9375 36.0417 62.0833 35.625 61.875V57.1875Z" fill="white"/>
<path d="M16.3955 40.8721C16.7909 40.8721 26.1145 40.8721 30.7269 40.8721" stroke="#999999" stroke-width="0.8" stroke-linecap="round" stroke-linejoin="round"/>
<path d="M16.3955 45.3193C16.7909 45.3193 26.1145 45.3193 30.7269 45.3193" stroke="#999999" stroke-width="0.8" stroke-linecap="round" stroke-linejoin="round"/>
<path d="M16.3955 49.2734C16.7909 49.2734 26.1145 49.2734 30.7269 49.2734" stroke="#999999" stroke-width="0.8" stroke-linecap="round" stroke-linejoin="round"/>
<path d="M16.3955 53.2266C16.7909 53.2266 26.1145 53.2266 30.7269 53.2266" stroke="#999999" stroke-width="0.8" stroke-linecap="round" stroke-linejoin="round"/>
<path d="M14.375 61.2446L15.8173 57.1875H32.5V59.0625L17.2596 63.75L14.375 61.2446Z" fill="#999999"/>
<path d="M36.657 79.782C33.8895 78.5959 32.8293 65.1575 32.4998 59.0625L17.4998 63.75C17.6645 69.3508 17.779 82.4506 17.3837 87.1948C16.9884 91.9389 20.843 94.1134 22.8197 94.6076L37.1511 85.7122C38.6335 84.2296 39.6218 81.0526 36.657 79.782Z" fill="#E6E6E6"/>
<ellipse cx="24.7961" cy="67.9221" rx="2.47093" ry="2.47093" fill="white"/>
<path d="M34.0625 67.1875L33.75 61.875C34.0625 62.1875 35 63.4375 35 64.6875C35 65.6875 34.375 66.7708 34.0625 67.1875Z" fill="#E6E6E6"/>
<ellipse cx="82.6161" cy="46.6715" rx="9.88372" ry="38.5465" fill="#E6E6E6" stroke="black" stroke-width="0.8" stroke-linecap="round" stroke-linejoin="round"/>
<path d="M87.5 47.5C87.5 67.8655 84.7253 83.125 79.375 83.125C76.4149 74.0625 68.125 67.8655 68.125 47.5C68.125 27.1345 73.6806 17.8125 79.0625 10.625C84.4128 10.625 87.5 27.1345 87.5 47.5Z" fill="#999999"/>
<path d="M9.14729 56.0608C8.23752 56.0608 7.5 51.9614 7.5 47.4126C7.5 42.8637 8.23752 37.7759 9.14729 37.7759H14.4186L15.3125 36.2934H35.1746C42.524 36.2934 54.1331 32.5591 60.264 28.8806C70.1477 22.9504 74.9755 16.0317 79.1571 10.5957C79.1571 10.5957 72.4971 19.8254 72.5 47.4126C72.5027 72.3949 77.9598 81.107 78.9903 82.5295C79.0461 82.6023 79.1016 82.6747 79.1571 82.7469C79.1571 82.7469 79.0978 82.6778 78.9903 82.5295C74.8466 77.1144 70.0166 69.8193 60.264 63.9678C54.1331 60.2892 42.524 57.0492 35.1746 57.0492H15.3125L14.4186 56.0608H9.14729Z" fill="white"/>
<path d="M8.74984 54.3744C7.49984 52.8744 7.8125 50.6244 7.5 47.8119C15.625 48.1244 61.25 44.0619 72.8124 46.2494C71.8749 50.6244 73.7499 61.5619 73.7499 66.5619C69.6874 63.1244 56.5624 58.1244 49.6874 56.5619C43.6849 55.1977 14.0624 54.3744 8.74984 54.3744Z" fill="#F4F4F4"/>
<path d="M72.8125 39.375C70.3125 42.5 8.75 46.5625 7.8125 46.5625V41.25C14.7917 41.25 31.5 40.875 42.5 39.375C53.5 37.875 68.125 31.25 74.0625 28.125C73.4375 31.25 72.8125 36.25 72.8125 39.375Z" fill="#F4F4F4"/>
<path d="M33.1976 46.6719C33.1976 52.1305 34.0826 57.0498 35.1744 57.0498H15.4069C14.3152 57.0498 13.4302 52.1305 13.4302 46.6719C13.4302 41.2132 14.3152 36.2939 15.4069 36.2939H35.1744C34.0826 36.2939 33.1976 41.2132 33.1976 46.6719Z" fill="#E6E6E6"/>
<path d="M16.5403 57.1875C13.4376 49.6875 15.0002 38.4375 16.5403 36.25L22.4779 36.25C20.9377 43.75 20.9377 50 22.4779 57.1875H16.5403Z" fill="#FAFAFA"/>
<path d="M84.2128 47.66C84.2128 52.5728 83.1916 56.5553 81.9319 56.5553C80.6722 56.5553 79.651 52.5728 79.651 47.66C79.651 42.7472 80.6722 38.7646 81.9319 38.7646C83.1916 38.7646 84.2128 42.7472 84.2128 47.66Z" fill="#FAFAFA"/>
<path d="M81.9319 56.5553C83.1916 56.5553 84.2128 52.5728 84.2128 47.66C84.2128 42.7472 83.1916 38.7646 81.9319 38.7646M81.9319 56.5553C80.6722 56.5553 79.651 52.5728 79.651 47.66C79.651 42.7472 80.6722 38.7646 81.9319 38.7646M81.9319 56.5553H73.2266C73.2266 56.5553 72.8125 54.3751 72.8125 47.8126C72.8125 41.2501 73.2266 38.7646 73.2266 38.7646H81.9319" stroke="black" stroke-width="0.8" stroke-linecap="round" stroke-linejoin="round"/>
<path d="M81.9318 56.5553C83.1915 56.5553 84.2127 52.5728 84.2127 47.66C84.2127 42.7472 83.1915 38.7646 81.9318 38.7646M81.9318 56.5553C80.6722 56.5553 79.651 52.5728 79.651 47.66C79.651 42.7472 80.6722 38.7646 81.9318 38.7646M81.9318 56.5553H73.2266M81.9318 38.7646H73.2266" stroke="black" stroke-width="0.8" stroke-linecap="round" stroke-linejoin="round"/>
<path d="M70.2616 71.8758C67.2965 67.9223 65.814 63.0459 65.814 45.6839C65.814 28.322 67.7907 26.4107 70.7558 20.9746" stroke="black" stroke-width="0.8" stroke-linecap="round" stroke-linejoin="round"/>
<path d="M33.1976 46.6719C33.1976 52.1305 34.0826 57.0498 35.1744 57.0498H15.4069C14.3152 57.0498 13.4302 52.1305 13.4302 46.6719C13.4302 41.2132 14.3152 36.2939 15.4069 36.2939H35.1744C34.0826 36.2939 33.1976 41.2132 33.1976 46.6719Z" stroke="black" stroke-width="0.8" stroke-linecap="round" stroke-linejoin="round"/>
<path d="M14.4186 37.7759H9.14729C8.23752 37.7759 7.5 42.8637 7.5 47.4126C7.5 51.9614 8.23752 56.0608 9.14729 56.0608H14.4186M35.1746 57.0492C42.524 57.0492 54.1331 60.2892 60.264 63.9678C70.1477 69.898 74.9755 77.3108 79.1571 82.7469M35.1746 36.2934C42.524 36.2934 54.1331 32.5591 60.264 28.8806C70.1477 22.9504 74.9755 16.0317 79.1571 10.5957" stroke="black" stroke-width="0.8" stroke-linecap="round" stroke-linejoin="round"/>
<path d="M16.3955 40.2471C16.7909 40.2471 26.1145 40.2471 30.7269 40.2471" stroke="black" stroke-width="0.8" stroke-linecap="round" stroke-linejoin="round"/>
<path d="M16.3955 44.6943C16.7909 44.6943 26.1145 44.6943 30.7269 44.6943" stroke="black" stroke-width="0.8" stroke-linecap="round" stroke-linejoin="round"/>
<path d="M16.3955 48.6484C16.7909 48.6484 26.1145 48.6484 30.7269 48.6484" stroke="black" stroke-width="0.8" stroke-linecap="round" stroke-linejoin="round"/>
<path d="M16.3955 52.6016C16.7909 52.6016 26.1145 52.6016 30.7269 52.6016" stroke="black" stroke-width="0.8" stroke-linecap="round" stroke-linejoin="round"/>
<path d="M14.375 61.2446L15.8173 57.1875H32.5V59.0625L17.2596 63.75L14.375 61.2446Z" stroke="black" stroke-width="0.8" stroke-linecap="round" stroke-linejoin="round"/>
<path d="M37.1511 85.7122C38.6335 84.2296 39.6218 81.0526 36.657 79.782C33.8895 78.5959 32.8293 65.1575 32.4998 59.0625L17.4998 63.75C17.6645 69.3508 17.779 82.4506 17.3837 87.1948C16.9884 91.939 20.843 94.1134 22.8197 94.6076L37.1511 85.7122ZM37.1511 85.7122L41.1044 82.2529" stroke="black" stroke-width="0.8" stroke-linecap="round" stroke-linejoin="round"/>
<ellipse cx="24.7961" cy="67.9221" rx="2.47093" ry="2.47093" stroke="black" stroke-width="0.8" stroke-linecap="round" stroke-linejoin="round"/>
<path d="M32.5 59.0625H35.6683V57.1875" stroke="black" stroke-width="0.8" stroke-linecap="round" stroke-linejoin="round"/>
<path d="M35.9375 67.5C36.5625 72.8125 36.875 76.5625 38.6339 77.311C41.244 78.4219 42.5874 79.782 41.1048 82.2529" stroke="black" stroke-width="0.8" stroke-linecap="round" stroke-linejoin="round"/>
<path d="M33.75 61.875L34.0625 67.1875M33.75 61.875C34.0625 62.1875 35 63.4375 35 64.6875C35 65.6875 34.375 66.7708 34.0625 67.1875M33.75 61.875H35.625C35.9375 62.1875 36.875 63.4375 36.875 64.6875C36.875 65.6875 36.25 66.7708 35.9375 67.1875H34.0625" stroke="black" stroke-width="0.8" stroke-linecap="round" stroke-linejoin="round"/>
<path d="M35.625 61.875V59.0625" stroke="black" stroke-width="0.8"/>
<ellipse cx="82.6161" cy="46.6715" rx="9.88372" ry="38.5465" stroke="black" stroke-width="0.8" stroke-linecap="round" stroke-linejoin="round"/>
</svg>
