<svg width="152" height="83" viewBox="0 0 152 83" fill="none" xmlns="http://www.w3.org/2000/svg">
<circle cx="67.6801" cy="32.6802" r="32" fill="#F5F5F5"/>
<circle cx="67.52" cy="33.48" r="23.52" fill="#E0E0E0"/>
<path fill-rule="evenodd" clip-rule="evenodd" d="M85.5481 48.6646C81.5161 51.9095 76.3912 53.8515 70.8128 53.8515C57.8231 53.8515 47.2928 43.3213 47.2928 30.3315C47.2928 24.2378 49.6102 18.6853 53.4119 14.5073C48.0551 18.8184 44.6272 25.429 44.6272 32.8403C44.6272 45.8301 55.1575 56.3603 68.1472 56.3603C75.0432 56.3603 81.246 53.3926 85.5481 48.6646Z" fill="#9E9E9E"/>
<path d="M85.713 58.4398C85.713 58.4398 88.6107 56.2121 90.273 54.5198C91.7757 52.99 93.713 50.2798 93.713 50.2798L113.844 70.6224C116.07 72.872 116.061 76.4976 113.823 78.7356C111.564 80.9946 107.897 80.9799 105.656 78.703L85.713 58.4398Z" fill="#9E9E9E"/>
<path fill-rule="evenodd" clip-rule="evenodd" d="M114.751 77.8574C112.502 79.3581 109.432 79.1042 107.463 77.1034L87.6945 57.0174C88.6035 56.2647 89.6836 55.331 90.48 54.5202C90.6741 54.3226 90.8754 54.1054 91.0788 53.8768C91.4367 53.5513 91.7787 53.2269 92.08 52.9202C92.752 52.236 93.511 51.3157 94.1448 50.5073L114.051 70.6228C116.005 72.5972 116.236 75.6315 114.751 77.8574Z" fill="#E0E0E0"/>
<circle cx="68" cy="33" r="31.5" stroke="black"/>
<circle cx="68" cy="33" r="23.5" stroke="black"/>
<line x1="59.7471" y1="24.04" x2="77.142" y2="41.4349" stroke="black" stroke-linecap="round"/>
<line x1="0.5" y1="-0.5" x2="25.1" y2="-0.5" transform="matrix(-0.707107 0.707107 0.707107 0.707107 77.28 24.04)" stroke="black" stroke-linecap="round"/>
<path d="M93.8977 51.049L113.615 70.9741C115.648 73.0282 115.639 76.3386 113.596 78.382C111.533 80.4446 108.185 80.4313 106.139 78.3523L86.5895 58.4885C86.6024 58.4784 86.6155 58.468 86.6288 58.4575C86.9285 58.2206 87.3454 57.8871 87.8147 57.5002C88.7496 56.7295 89.9063 55.7359 90.7567 54.8702C91.5297 54.0832 92.4045 53.0039 93.0789 52.1321C93.4079 51.7069 93.6922 51.3272 93.8977 51.049Z" stroke="black"/>
<path d="M98.16 55.1602C98.16 55.1602 97.52 57.0002 95.12 59.5602C92.72 62.1202 90.48 62.6802 90.48 62.6802" stroke="black"/>
</svg>
