<svg width="150" height="150" viewBox="0 0 150 150" fill="none" xmlns="http://www.w3.org/2000/svg">
<path d="M106.667 28.8109C109.121 33.7531 110.735 39.968 109.35 45.4026C109.35 45.4026 89.0851 52.543 74.9999 52.4999C60.9525 52.457 40.8 45.2526 40.8 45.2526C39.5367 38.9356 38.0998 33.2526 43.1999 25.7526C51.2997 16.4526 55.2 14.2026 66.0001 12.7026C65.1732 11.6501 63.9 8.69897 63.9 7.4526C63.9 6.49047 64.6828 8.42316 68.8251 10.7692C72.6583 12.9402 76.8854 14.6935 81.1834 15.6692C85.6259 16.6778 90.0106 17.3984 94.3501 18.8526C99.884 20.3744 104.054 23.5499 106.667 28.8109Z" fill="black"/>
<path d="M45.5998 41.3999C45.5998 34.7725 50.9724 29.3999 57.5998 29.3999H91.7998C98.4272 29.3999 103.8 34.7725 103.8 41.3999V63.8999C103.8 79.9714 90.7713 92.9999 74.6998 92.9999C58.6283 92.9999 45.5998 79.9714 45.5998 63.8999V41.3999Z" fill="#E0AC69"/>
<path d="M60.5998 101.7L62.0998 88.4999C71.0998 91.1999 76.4998 90.5999 87.2998 89.3999C87.2998 99.2399 89.8998 103.3 91.1998 104.1C89.2998 105.7 83.2798 108.96 74.3998 109.2C65.5198 109.44 59.6998 105.9 57.8998 104.1L58.7998 103.2L60.5998 101.7Z" fill="#E0AC69"/>
<path d="M103.8 50.6999C103.8 48.546 105.546 46.7999 107.7 46.7999C109.854 46.7999 111.6 48.546 111.6 50.6999V57.5999C111.6 61.9077 108.108 65.3999 103.8 65.3999V50.6999Z" fill="#E0AC69"/>
<path d="M45.5998 50.0999C45.5998 47.946 43.8537 46.1999 41.6998 46.1999C39.5459 46.1999 37.7998 47.946 37.7998 50.0999V56.9999C37.7998 61.3077 41.292 64.7999 45.5998 64.7999V50.0999Z" fill="#E0AC69"/>
<path d="M86.3996 56.9301C86.3996 59.2383 81.2957 58.7585 74.9996 58.7585C68.7036 58.7585 63.5996 59.2383 63.5996 56.9301C63.5996 54.6219 68.7036 50.3999 74.9996 50.3999C81.2957 50.3999 86.3996 54.6219 86.3996 56.9301Z" fill="#FACCDA" fill-opacity="0.4"/>
<path d="M22.8001 134.341C22.8001 130.179 22.5453 119.404 36.1403 113.709C42.0463 111.235 48.9752 107.032 57.8998 105C69.2998 110.801 78.8998 113.709 91.1998 105C104.7 109.301 119.7 113.709 125.7 123.401C129.229 130.552 127.44 144.225 127.5 145.601H22.8002L22.8001 134.341Z" fill="#CCF0F5"/>
<path d="M45.6001 39.4C45.6001 33.8772 50.0772 29.4 55.6001 29.4H93.8001C99.3229 29.4 103.8 33.8772 103.8 39.4V63.9C103.8 79.9715 90.7716 93 74.7001 93V93C58.6286 93 45.6001 79.9715 45.6001 63.9V39.4Z" stroke="black" stroke-width="2" stroke-linecap="round" stroke-linejoin="round"/>
<path d="M61.8001 90.6001C60.8053 100.984 61.4455 102.444 57.1578 103.999C53.1782 105.442 40.8466 110.234 34.9406 112.708C21.3456 118.403 21.6004 129.178 21.6004 133.34C21.6005 137.502 21.6005 145.2 21.6005 145.2" stroke="black" stroke-width="2" stroke-linecap="round" stroke-linejoin="round"/>
<path d="M87.6003 90.6001C88.5951 100.984 87.9549 102.444 92.2426 103.999C96.2222 105.442 108.554 110.234 114.46 112.708C128.055 118.403 127.8 129.178 127.8 133.34C127.8 137.502 127.8 145.2 127.8 145.2" stroke="black" stroke-width="2" stroke-linecap="round" stroke-linejoin="round"/>
<path d="M103.8 50.1001C103.8 47.9462 105.546 46.2001 107.7 46.2001V46.2001C109.854 46.2001 111.6 47.9462 111.6 50.1001V57.0001C111.6 61.3079 108.108 64.8001 103.8 64.8001V64.8001V50.1001Z" stroke="black" stroke-width="2" stroke-linecap="round" stroke-linejoin="round"/>
<path d="M45.6001 50.1001C45.6001 47.9462 43.854 46.2001 41.7001 46.2001V46.2001C39.5462 46.2001 37.8001 47.9462 37.8001 50.1001V57.0001C37.8001 61.3079 41.2923 64.8001 45.6001 64.8001V64.8001V50.1001Z" stroke="black" stroke-width="2" stroke-linecap="round" stroke-linejoin="round"/>
<path d="M58.8003 104.4C58.8003 104.4 62.9669 109.2 75.0036 109.2C87.0403 109.2 91.2003 104.4 91.2003 104.4" stroke="black" stroke-width="2" stroke-linecap="round" stroke-linejoin="round"/>
<path d="M52.2002 106.8C52.2002 106.8 57.9871 115.8 74.7048 115.8C91.4225 115.8 97.2002 106.8 97.2002 106.8" stroke="black" stroke-width="2" stroke-linecap="round" stroke-linejoin="round"/>
<path d="M109.35 45.4501C110.735 40.0155 109.121 33.8006 106.667 28.8584C104.054 23.5974 99.2839 20.2719 93.75 18.75M94.3501 18.9001C90.0106 17.4459 85.6259 16.7253 81.1834 15.7167C76.8854 14.7409 72.6583 12.9877 68.8251 10.8167C64.6828 8.47064 63.9 6.53795 63.9 7.50008C63.9 8.74646 65.1731 11.6976 66.0001 12.7501M66 12.9C55.1999 14.4 51.2997 16.5 43.1999 25.8C38.0998 33.3 39.5366 38.9831 40.8 45.3001" stroke="black" stroke-width="2" stroke-linecap="round" stroke-linejoin="round"/>
<path d="M74.3999 109.5V115.5" stroke="black" stroke-width="2" stroke-linecap="round"/>
<path d="M87.6001 106.8L90.6001 111.996" stroke="black" stroke-width="2" stroke-linecap="round"/>
<path d="M61.2002 106.8L58.2002 111.996" stroke="black" stroke-width="2" stroke-linecap="round"/>
<path d="M81.7236 108.9L83.2765 114.696" stroke="black" stroke-width="2" stroke-linecap="round"/>
<path d="M67.0767 108.9L65.5238 114.696" stroke="black" stroke-width="2" stroke-linecap="round"/>
<path d="M114 27.3L117.6 23.4L120.9 26.4L124.5 22.2M109.8 22.2L114 15.9L119.4 18L123 11.4" stroke="black" stroke-width="2" stroke-linecap="round" stroke-linejoin="round"/>
<path d="M66.7075 72.9346C66.7075 72.9346 68.7727 70.2581 74.7386 70.2581C80.7046 70.2581 82.7665 72.9346 82.7665 72.9346" stroke="black" stroke-width="2" stroke-linecap="round" stroke-linejoin="round"/>
<path d="M66.9001 56.4L61.7002 57.8793M83.6002 56.4L88.8001 57.8793" stroke="black" stroke-width="2" stroke-linecap="round" stroke-linejoin="round"/>
</svg>
