<svg width="936" height="450" viewBox="0 0 936 450" fill="none" xmlns="http://www.w3.org/2000/svg">
    <path d="M34.0967 117.585L203.097 8.26056C206.319 6.18989 210.088 5 214.115 5C225.995 5 235.626 15.3567 235.626 28.1324V154.309C235.626 175.795 253.009 193.213 274.452 193.213H485.371C596.077 193.213 666.907 295.732 673.728 315.184C677.425 325.728 688.312 331.414 699.597 330.815L724.097 315C721.927 319.348 718.923 322.922 715.446 325.414L545.597 434.859C531.405 443.37 510.931 438.372 505.68 423.447C498.853 404.041 427.955 301.766 317.143 301.766H106.024C84.5603 301.766 67.1608 284.389 67.1608 262.954L67.1609 137.077C67.1609 124.332 54.0967 106 34.0967 117.585Z" fill="white"/>
    <path d="M54.5965 116.5L24.0964 137C23.5964 133.333 24.7965 124.8 33.5965 118C42.3965 111.2 51.2631 114.167 54.5965 116.5Z" fill="#999999"/>
    <path d="M556.097 423.5L698.597 331.5C690.108 330.465 673.597 327 671.097 309.5C660.597 289 621.064 243.077 590.597 225.5C577.597 233.5 427.597 331 422.597 334C473.052 369.957 492.097 400 503.597 419C510.597 436 520.246 438.487 527.597 439C544.797 440.2 553.764 429.167 556.097 423.5Z" fill="#F4F4F4"/>
    <path d="M555.65 423.5L699.123 331C674.597 328 674.097 315 670.597 309C613.763 344.667 501.636 414.375 502.597 416.5C512.097 437.5 517.623 436 527.15 439C544.35 440.2 553.316 429.167 555.65 423.5Z" fill="#F2F2F2"/>
    <path d="M555.623 424L699.096 331.5C686.596 329.5 684.096 327.5 681.096 325.5C624.263 361.167 511.097 431.8 513.097 433C516.097 434.8 517.597 436.5 527.123 439.5C544.323 440.7 553.29 429.667 555.623 424Z" fill="#FAFAFA"/>
    <path d="M236.097 30.5L67.0967 141C67.0964 149 67.5968 251.5 67.5968 268.5C67.5968 287 89.5967 302 106.597 302C106.597 302 309.097 296.5 355.097 305.5C366.097 298 521.097 197 521.097 197C517.284 195.84 508.987 194.17 496.097 193.5C432.097 193 274.353 193 268.097 193C253.097 191 237.097 174 236.097 160V30.5Z" fill="#F4F4F4"/>
    <path d="M268.097 193C253.097 191 244.097 181 238.097 168C212.946 183.502 88.5967 257 68.0967 270.5C70.5968 288 89.5965 302 106.597 302H109.597L276.097 193H268.097Z" fill="#F2F2F2"/>
    <path d="M72.0967 282C77.0967 290 81.5967 294 91.5967 299L261.597 191C253.097 188.5 248.597 184 243.597 178C218.446 193.502 92.5967 268.5 72.0967 282Z" fill="#FAFAFA"/>
    <path d="M54.8457 116.215L24.0967 137.077C24.0967 124.332 33.7369 114 45.6288 114C57.5206 114 67.1609 124.332 67.1609 137.077L67.1608 262.954C67.1608 284.389 84.5603 301.766 106.024 301.766H317.143C427.955 301.766 498.853 404.041 505.68 423.447C510.931 438.372 531.405 443.37 545.597 434.859M34.0967 117.585L203.097 8.26056C206.319 6.18989 210.088 5 214.115 5C225.995 5 235.626 15.3567 235.626 28.1324V154.309C235.626 175.795 253.009 193.213 274.452 193.213H485.371C596.077 193.213 666.907 295.732 673.728 315.184C677.425 325.728 688.312 331.414 699.597 330.815M547.091 433.896C550.719 431.389 553.853 427.928 556.097 423.447L699.597 330.815M547.091 433.896C546.602 434.234 546.103 434.555 545.597 434.859M547.091 433.896L545.597 434.859M547.091 433.896L715.446 325.414C718.923 322.922 721.927 319.532 724.097 315.184M699.597 330.815L724.097 315" stroke="black" stroke-linecap="round" stroke-linejoin="round"/>
    <path d="M897.821 308.352C909.594 297.121 907.003 286.345 907.003 286.345L903.498 272.969L853.722 301.06L860.032 311.761C869.614 320.903 886.049 319.584 897.821 308.352Z" fill="#F2F2F2"/>
    <ellipse rx="28.6963" ry="23.3574" transform="matrix(0.723545 -0.690277 0.723545 0.690277 878.108 285.108)" fill="white"/>
    <path d="M860.334 272.667L894.967 297.868" stroke="#F2F2F2" stroke-width="1.33333" stroke-linecap="round" stroke-linejoin="round"/>
    <path d="M897.222 267.333C888.635 259.21 873.222 259.778 862.111 270.84L896.334 295.778C903.569 286.176 904.73 274.435 897.222 267.333Z" fill="#FAFAFA"/>
    <path d="M894.965 298.971C895.255 298.745 895.308 298.326 895.082 298.035C894.856 297.745 894.437 297.692 894.146 297.918L894.965 298.971ZM859.363 302.444L858.906 302.93L858.943 302.964L858.984 302.993L859.363 302.444ZM859.875 275.316C860.111 275.033 860.072 274.613 859.79 274.377C859.507 274.141 859.086 274.179 858.851 274.462L859.875 275.316ZM894.146 297.918C882.291 307.138 869.728 308.788 859.742 301.896L858.984 302.993C869.605 310.323 882.819 308.417 894.965 298.971L894.146 297.918ZM859.82 301.959C856.077 298.435 854.158 294.121 854.123 289.541C854.088 284.953 855.943 280.031 859.875 275.316L858.851 274.462C854.761 279.367 852.752 284.585 852.79 289.551C852.828 294.524 854.92 299.177 858.906 302.93L859.82 301.959Z" fill="#FAFAFA"/>
    <path d="M898.544 265.213C906.745 273.037 906.448 286.377 898.544 296.955C898.126 297.514 897.683 299.489 897.222 300.032C896.813 300.514 896.393 299.565 895.951 300.032C895.536 300.47 895.106 300.902 894.662 301.325C883.137 312.32 866.19 313.979 856.81 305.029C847.429 296.08 849.167 279.912 860.692 268.917C872.217 257.922 889.164 256.264 898.544 265.213Z" stroke="black"/>
    <path d="M896.436 266.829L896.089 267.189L896.436 266.829ZM861.764 269.858C861.565 270.05 861.559 270.366 861.751 270.565C861.942 270.764 862.259 270.77 862.458 270.579L861.764 269.858ZM896.428 295.036C896.264 295.258 896.311 295.571 896.533 295.735C896.755 295.9 897.068 295.853 897.232 295.631L896.428 295.036ZM862.458 270.579C872.784 260.636 887.838 259.245 896.089 267.189L896.782 266.469C888.02 258.032 872.339 259.676 861.764 269.858L862.458 270.579ZM896.089 267.189C903.301 274.133 903.485 285.504 896.428 295.036L897.232 295.631C904.51 285.8 904.443 273.845 896.782 266.469L896.089 267.189Z" fill="black"/>
    <path d="M894.454 299.092C894.655 298.903 894.664 298.587 894.475 298.386C894.286 298.185 893.969 298.175 893.768 298.364L894.454 299.092ZM858.899 302.985L858.556 303.349L858.899 302.985ZM859.747 274.32C859.923 274.108 859.895 273.793 859.683 273.616C859.471 273.439 859.155 273.468 858.978 273.68L859.747 274.32ZM893.768 298.364C888.622 303.209 882.042 306.228 875.712 307.05C869.379 307.872 863.353 306.491 859.242 302.621L858.556 303.349C862.946 307.482 869.304 308.89 875.841 308.041C882.381 307.192 889.156 304.081 894.454 299.092L893.768 298.364ZM859.242 302.621C851.754 295.571 851.848 283.793 859.747 274.32L858.978 273.68C850.834 283.449 850.587 295.845 858.556 303.349L859.242 302.621Z" fill="black"/>
    <line x1="860.003" y1="271.371" x2="895.777" y2="297.302" stroke="black" stroke-linecap="round" stroke-linejoin="round"/>
    <path d="M853.666 301.111L860.032 311.761C869.614 320.902 886.048 319.583 897.821 308.352C909.594 297.12 907.003 286.345 907.003 286.345L903.889 274.444" stroke="black" stroke-linecap="round" stroke-linejoin="round"/>
    <path d="M419.062 235.25C434.675 235.25 441.57 229.591 442.499 226.813V175.953C442.499 172.248 439 166 435.065 164.839V156.5C435.065 149.938 426 150.768 426 149.938C426 146.171 425.624 142.5 425.624 142.5C425.624 140.625 426.562 134 425.624 133.063C424.687 126.5 423.749 123.688 421.874 121.813C420.937 120.875 417 120 414.374 121.812C411.562 126.5 411.562 130.25 410.624 133.063L409.687 144.313C409.687 144.313 410.624 149.938 408.749 149.938C404.772 149.938 401.249 153.688 401.249 153.688V156.5V164.839C396.045 167.802 394.687 171.5 393.749 175.952C393.44 192.623 393.006 225.331 393.749 226.813C394.679 228.665 399.547 235.25 419.062 235.25Z" fill="white"/>
    <path d="M342.188 197.75L345.938 194C346.25 191.813 348.75 186.75 357 186C359.812 185.744 362 183 365 182C368.75 179.187 376.933 175.198 385.312 184.625C392.812 193.062 391.5 210.5 382.5 217C374.852 222.523 370.438 219.437 367 218.5H360C356.25 218.812 349.688 217.438 345.938 212.75C344.389 210.814 343.262 209.028 342.649 208.707C342.493 208.811 342.339 208.909 342.188 209C342.271 208.667 342.426 208.59 342.649 208.707C345.708 206.654 349.324 202.032 342.188 197.75Z" fill="white"/>
    <path d="M369.375 201.5C369.375 191 361.875 187.125 358.125 186.5L369.375 180.875C375.625 180.875 387.188 186.5 387.188 197.75C387.188 212.75 377.5 217.125 373.125 218.375H359.062C362.5 217.125 369.375 212 369.375 201.5Z" fill="#FAFAFA"/>
    <path d="M349.688 212.75L342.188 209L343.125 196.813C344.688 195.563 348.254 193.625 348.75 193.063C349.688 192 358.5 190.5 360 202.438C361 210.396 352.812 213.063 349.688 212.75Z" fill="#F2F2F2"/>
    <path d="M423.75 160.25L416.5 156.5C419.5 156.5 424.688 155.562 426.563 154.625L432.188 157.438C433.125 161.187 433.125 163.062 433.125 166.812V166.812C437.625 167.562 438.75 176.5 438.75 180.875C440.313 195.562 439.688 221.188 438.75 227.75C435 230 430.938 230.562 429.375 230.562V192.125V183.688C429.375 174.688 425.625 170.562 423.75 169.625V160.25Z" fill="#FAFAFA"/>
    <path d="M405 192.125C427.5 195.125 439.375 189.625 442.5 186.5V219.313C428.25 229.063 411.563 226.5 405 224L405 223.06C405 216.373 405 197.472 405 192.125Z" fill="#999999"/>
    <path d="M442.5 176.188C442.5 180.847 431.587 184.625 418.125 184.625C404.663 184.625 393.75 180.847 393.75 176.188" stroke="black" stroke-linecap="round" stroke-linejoin="round"/>
    <path d="M435 164C435 167.226 427.445 170.058 418.125 170.058C408.805 170.058 401.25 167.226 401.25 164" stroke="black" stroke-linecap="round" stroke-linejoin="round"/>
    <ellipse cx="418.125" cy="154.841" rx="16.875" ry="5.84135" stroke="black" stroke-linecap="round" stroke-linejoin="round"/>
    <path d="M442.5 184.625C442.5 189.285 431.587 193.062 418.125 193.062C413.293 193.062 408.789 192.576 405 191.736V224.549C408.789 225.388 413.293 225.875 418.125 225.875C431.587 225.875 442.5 222.097 442.5 217.438" stroke="black" stroke-linecap="round" stroke-linejoin="round"/>
    <path d="M401.25 164L401.25 154.625" stroke="black" stroke-linecap="round" stroke-linejoin="round"/>
    <path d="M435 164L435 154.625" stroke="black" stroke-linecap="round" stroke-linejoin="round"/>
    <path d="M401.25 164.938C396.563 165.875 393.75 172.438 393.75 176.188V225.875C393.75 230.535 404.663 235.25 418.125 235.25C431.587 235.25 442.5 230.535 442.5 225.875V177.125C442.5 173.375 439.688 165.875 435 164.938" stroke="black" stroke-linecap="round" stroke-linejoin="round"/>
    <rect x="410" y="136" width="16" height="17" fill="#E6E6E6" stroke="black" stroke-linecap="round" stroke-linejoin="round"/>
    <path fill-rule="evenodd" clip-rule="evenodd" d="M426.104 134C424.452 135.017 421.496 135.695 418.125 135.695C414.754 135.695 411.798 135.017 410.146 134C409.261 134.545 408.75 135.187 408.75 135.875C408.75 137.847 412.947 139.445 418.125 139.445C423.303 139.445 427.5 137.847 427.5 135.875C427.5 135.187 426.989 134.545 426.104 134Z" fill="#E6E6E6"/>
    <path d="M426.104 134L426.366 133.574C426.206 133.475 426.003 133.475 425.842 133.574L426.104 134ZM410.146 134L410.408 133.574C410.247 133.475 410.044 133.475 409.884 133.574L410.146 134ZM425.842 133.574C424.302 134.523 421.452 135.195 418.125 135.195V136.195C421.541 136.195 424.603 135.512 426.366 134.426L425.842 133.574ZM418.125 135.195C414.798 135.195 411.948 134.523 410.408 133.574L409.884 134.426C411.647 135.512 414.709 136.195 418.125 136.195V135.195ZM409.25 135.875C409.25 135.453 409.57 134.942 410.408 134.426L409.884 133.574C408.952 134.148 408.25 134.921 408.25 135.875H409.25ZM418.125 138.945C415.581 138.945 413.3 138.551 411.674 137.932C410.859 137.622 410.234 137.264 409.821 136.893C409.409 136.521 409.25 136.177 409.25 135.875H408.25C408.25 136.559 408.616 137.153 409.152 137.636C409.689 138.119 410.436 138.531 411.318 138.867C413.085 139.539 415.491 139.945 418.125 139.945V138.945ZM427 135.875C427 136.177 426.841 136.521 426.429 136.893C426.016 137.264 425.391 137.622 424.576 137.932C422.95 138.551 420.669 138.945 418.125 138.945V139.945C420.759 139.945 423.165 139.539 424.932 138.867C425.814 138.531 426.561 138.119 427.098 137.636C427.634 137.153 428 136.559 428 135.875H427ZM425.842 134.426C426.68 134.942 427 135.453 427 135.875H428C428 134.921 427.298 134.148 426.366 133.574L425.842 134.426Z" fill="black"/>
    <path fill-rule="evenodd" clip-rule="evenodd" d="M426.104 143.375C424.452 144.392 421.496 145.07 418.125 145.07C414.754 145.07 411.798 144.392 410.146 143.375C409.261 143.92 408.75 144.562 408.75 145.25C408.75 147.222 412.947 148.82 418.125 148.82C423.303 148.82 427.5 147.222 427.5 145.25C427.5 144.562 426.989 143.92 426.104 143.375Z" fill="#E6E6E6"/>
    <path d="M426.104 143.375L426.366 142.949C426.206 142.85 426.003 142.85 425.842 142.949L426.104 143.375ZM410.146 143.375L410.408 142.949C410.247 142.85 410.044 142.85 409.884 142.949L410.146 143.375ZM425.842 142.949C424.302 143.898 421.452 144.57 418.125 144.57V145.57C421.541 145.57 424.603 144.887 426.366 143.801L425.842 142.949ZM418.125 144.57C414.798 144.57 411.948 143.898 410.408 142.949L409.884 143.801C411.647 144.887 414.709 145.57 418.125 145.57V144.57ZM409.25 145.25C409.25 144.828 409.57 144.317 410.408 143.801L409.884 142.949C408.952 143.523 408.25 144.296 408.25 145.25H409.25ZM418.125 148.32C415.581 148.32 413.3 147.926 411.674 147.307C410.859 146.997 410.234 146.639 409.821 146.268C409.409 145.896 409.25 145.552 409.25 145.25H408.25C408.25 145.934 408.616 146.528 409.152 147.011C409.689 147.494 410.436 147.906 411.318 148.242C413.085 148.914 415.491 149.32 418.125 149.32V148.32ZM427 145.25C427 145.552 426.841 145.896 426.429 146.268C426.016 146.639 425.391 146.997 424.576 147.307C422.95 147.926 420.669 148.32 418.125 148.32V149.32C420.759 149.32 423.165 148.914 424.932 148.242C425.814 147.906 426.561 147.494 427.098 147.011C427.634 146.528 428 145.934 428 145.25H427ZM425.842 143.801C426.68 144.317 427 144.828 427 145.25H428C428 144.296 427.298 143.523 426.366 142.949L425.842 143.801Z" fill="black"/>
    <path fill-rule="evenodd" clip-rule="evenodd" d="M426.104 150.875C424.452 151.892 421.496 152.57 418.125 152.57C414.754 152.57 411.798 151.892 410.146 150.875C409.261 151.42 408.75 152.062 408.75 152.75C408.75 154.722 412.947 156.32 418.125 156.32C423.303 156.32 427.5 154.722 427.5 152.75C427.5 152.062 426.989 151.42 426.104 150.875Z" fill="#E6E6E6"/>
    <path d="M426.104 150.875L426.366 150.449C426.205 150.35 426.003 150.35 425.842 150.449L426.104 150.875ZM410.146 150.875L410.408 150.449C410.247 150.35 410.045 150.35 409.884 150.449L410.146 150.875ZM425.842 150.449C424.301 151.398 421.452 152.07 418.125 152.07V153.07C421.541 153.07 424.603 152.386 426.366 151.301L425.842 150.449ZM418.125 152.07C414.798 152.07 411.949 151.398 410.408 150.449L409.884 151.301C411.647 152.386 414.709 153.07 418.125 153.07V152.07ZM409.25 152.75C409.25 152.328 409.57 151.817 410.408 151.301L409.884 150.449C408.952 151.023 408.25 151.796 408.25 152.75H409.25ZM418.125 155.82C415.581 155.82 413.3 155.426 411.674 154.807C410.859 154.497 410.234 154.139 409.821 153.768C409.409 153.396 409.25 153.052 409.25 152.75H408.25C408.25 153.434 408.616 154.028 409.152 154.511C409.689 154.994 410.436 155.406 411.318 155.742C413.085 156.414 415.491 156.82 418.125 156.82V155.82ZM427 152.75C427 153.052 426.841 153.396 426.429 153.768C426.016 154.139 425.391 154.497 424.576 154.807C422.95 155.426 420.669 155.82 418.125 155.82V156.82C420.759 156.82 423.165 156.414 424.932 155.742C425.814 155.406 426.561 154.994 427.098 154.511C427.634 154.028 428 153.434 428 152.75H427ZM425.842 151.301C426.68 151.817 427 152.328 427 152.75H428C428 151.796 427.298 151.023 426.366 150.449L425.842 151.301Z" fill="black"/>
    <path d="M421.458 121.946C421.458 122.537 419.966 123.017 418.125 123.017C416.284 123.017 414.792 122.537 414.792 121.946M421.458 121.946C421.458 121.354 419.966 120.875 418.125 120.875C416.284 120.875 414.792 121.354 414.792 121.946M421.458 121.946C422.847 122.258 425.625 128 425.625 134M414.792 121.946C413.403 122.258 410.625 128 410.625 134" stroke="black" stroke-linecap="round" stroke-linejoin="round"/>
    <path d="M344.666 194.938C346.875 189.916 351.234 186.5 356.25 186.5C363.498 186.5 369.375 193.635 369.375 202.438C369.375 211.24 363.498 218.375 356.25 218.375C351.652 218.375 347.607 215.505 345.263 211.159" stroke="black" stroke-linecap="round" stroke-linejoin="round"/>
    <ellipse cx="342.132" cy="203.375" rx="4.63235" ry="5.625" fill="#E6E6E6" stroke="black" stroke-linecap="round" stroke-linejoin="round"/>
    <path d="M362.812 183.339C365.69 180.619 369.307 179 373.235 179C382.616 179 390.221 188.234 390.221 199.625C390.221 211.016 382.616 220.25 373.235 220.25C370.706 220.25 368.306 219.579 366.149 218.375" stroke="black" stroke-linecap="round" stroke-linejoin="round"/>
    <path d="M341.25 197.75L348.172 192.991C349.21 192.434 350.356 192.125 351.562 192.125C356.222 192.125 360 196.742 360 202.437C360 206.922 357.555 210.53 353.863 212.025C352.867 212.429 351.919 212.678 350.625 212.75C347.025 212.95 342.188 209 342.188 209" stroke="black" stroke-linecap="round" stroke-linejoin="round"/>
    <path d="M356.25 186.5L368.438 180.875C381.562 180.875 387.132 189.269 387.132 199.625C387.132 209.98 380.219 218.375 371.691 218.375H356.25" stroke="black" stroke-linecap="round" stroke-linejoin="round"/>
    <path d="M372.188 201.5L384.375 200.562" stroke="black" stroke-linecap="round" stroke-linejoin="round"/>
    <path d="M372.188 207.125H382.5" stroke="black" stroke-linecap="round" stroke-linejoin="round"/>
    <path d="M371.25 196.812L383.438 194.938" stroke="black" stroke-linecap="round" stroke-linejoin="round"/>
    <path d="M370.312 192.125L379.688 189.312" stroke="black" stroke-linecap="round" stroke-linejoin="round"/>
    <path d="M370.312 212.75H378.75" stroke="black" stroke-linecap="round" stroke-linejoin="round"/>
    <path d="M365.625 187.438C368.438 186.5 371.25 185.562 374.062 184.625" stroke="black" stroke-linecap="round" stroke-linejoin="round"/>
    <path d="M572.063 323.375V304.625C574 299 583.5 297.375 588.5 298L599.5 299.5L609.563 302.75V319.625C602.813 327.875 594.875 326.812 591.75 325.25L572.063 323.375Z" fill="#999999"/>
    <path d="M553.312 322.437L572.063 323.375C572.375 317.437 572.063 305.375 572.063 304.625C572.063 303.687 574.5 299.707 577.688 299C574.875 299 567.375 302.75 563.625 303.687C564.375 299.937 553.812 252.813 548.5 230C546.937 230.938 543 233.25 540 235.5C537 237.75 538 238.5 537.375 240.875C539.5 250.5 552.375 300.875 553.312 304.625C551.062 306.125 550.5 311.5 550.5 314L553.312 315.875V322.437Z" fill="#FAFAFA"/>
    <path d="M564 304C564 299.5 553.937 252.438 548.625 229.625C553.312 228.375 563.625 225.688 567.375 224.938C571.125 224.188 572.687 227.75 573 229.625C576.906 253.062 587.062 296.187 587.062 298.063C584.25 297.125 571.5 299.5 564 304Z" fill="#F4F4F4"/>
    <path d="M535.5 219.312L539.25 236.187L548.625 229.625L566.437 224.937L564.562 215.562C563.625 210.875 563.5 210.875 559.5 210.875C556.688 210.875 552.886 210.229 549.563 210.875C544.209 211.915 538.532 215.562 537.375 215.562C535.501 215.562 534.562 218.375 535.5 219.312Z" fill="white"/>
    <path d="M546.75 231.5L539.25 236.187C538 230.25 535 219 535 217.5C535 216 539.813 213.625 542 213L546.75 231.5Z" fill="#FAFAFA"/>
    <path d="M539.25 236.187L534.92 218.001C534.709 217.116 535.12 216.204 535.933 215.796C538.561 214.479 544.42 211.7 548.625 210.875C553.019 210.013 559.378 210.459 562.193 210.724C563.051 210.805 563.739 211.445 563.908 212.291L566.438 224.937" stroke="black" stroke-linecap="round" stroke-linejoin="round"/>
    <path d="M548.625 229.625L567.375 224.938C568.937 224.313 572.25 224.563 573 230.563C573.75 236.563 582.688 278.063 587.062 298.062" stroke="black"/>
    <path d="M572 323C566.687 321.125 553.5 316.25 550.5 314C550.5 311.188 551.125 306.812 553.313 304.625M553.313 304.625C556.125 305.25 562.125 306.125 563.625 304.625C565.125 303.125 554.25 254 548.625 229.625L539.25 236.188C538.313 237.125 536.813 237.875 538.313 244.625C539.813 251.375 548.938 287.438 553.313 304.625Z" stroke="black" stroke-linecap="round" stroke-linejoin="round"/>
    <path d="M591.75 307.437C591.75 315.875 591.75 319.625 591.75 325.25M591.75 307.437L572.062 304.625M591.75 307.437C593.85 304.638 598.563 300.479 603.938 300.736M591.75 325.25C601.5 328.25 607.688 322.75 609.563 319.625C609.563 314 609.563 311.188 609.563 302.75C607.662 301.42 605.762 300.824 603.938 300.736M591.75 325.25L572.062 323.375V304.625M572.062 304.625C572.688 302.125 576.375 297.313 586.125 298.063C595.875 298.813 602.063 300.158 603.938 300.736" stroke="black" stroke-linecap="round" stroke-linejoin="round"/>
    <path d="M572.062 323.375L553.312 322.437V315.5M572.062 304.625H563.625C566.438 302.75 573.938 297.125 586.125 298.062" stroke="black" stroke-linecap="round" stroke-linejoin="round"/>
    <rect x="762" y="369.969" width="24" height="64" rx="12" transform="rotate(-45 762 369.969)" fill="white"/>
    <path d="M770.485 378.454C765.799 373.767 765.799 366.169 770.485 361.483C775.172 356.797 782.77 356.797 787.456 361.483L801.973 376C801.973 376 795.297 378.871 792 382C788.314 385.498 785.002 392.971 785.002 392.971L770.485 378.454Z" fill="#999999"/>
    <ellipse cx="778.185" cy="363.185" rx="3.09726" ry="2.82109" transform="rotate(-45 778.185 363.185)" fill="white"/>
    <path d="M768 370L807 409C804.5 409 801.996 407.814 800.5 406.5C799.931 406 770.875 377 770.5 376.5C767.877 373 768 370 768 370Z" fill="#FAFAFA"/>
    <rect x="762" y="369.97" width="24" height="64" rx="12" transform="rotate(-45 762 369.97)" stroke="black" stroke-linecap="round" stroke-linejoin="round"/>
    <path d="M785.054 392.921C785.054 392.921 788.698 385.491 792.5 382C795.606 379.149 801.671 376.304 801.671 376.304" stroke="black" stroke-linecap="round" stroke-linejoin="round"/>
    <rect width="24" height="64" rx="12" transform="matrix(-0.707107 -0.707107 -0.707107 0.707107 773 251.969)" fill="white"/>
    <path d="M764.515 260.454C769.201 255.767 769.201 248.169 764.515 243.483C759.828 238.797 752.23 238.797 747.544 243.483L733.027 258C733.027 258 739.703 260.871 743 264C746.686 267.498 749.998 274.971 749.998 274.971L764.515 260.454Z" fill="#999999"/>
    <ellipse rx="3.09726" ry="2.82109" transform="matrix(-0.707107 -0.707107 -0.707107 0.707107 756.815 245.185)" fill="white"/>
    <path d="M767 252L728 291C730.5 291 733.004 289.814 734.5 288.5C735.069 288 764.125 259 764.5 258.5C767.123 255 767 252 767 252Z" fill="#FAFAFA"/>
    <rect width="24" height="64" rx="12" transform="matrix(-0.707107 -0.707107 -0.707107 0.707107 773 251.97)" stroke="black" stroke-linecap="round" stroke-linejoin="round"/>
    <path d="M749.946 274.921C749.946 274.921 746.302 267.491 742.5 264C739.394 261.149 733.329 258.304 733.329 258.304" stroke="black" stroke-linecap="round" stroke-linejoin="round"/>
    <rect x="290.137" y="263.348" width="24" height="64" rx="12" transform="rotate(-75 290.137 263.348)" fill="white"/>
    <path d="M301.728 266.454C295.327 264.739 291.528 258.159 293.243 251.757C294.958 245.355 301.539 241.556 307.94 243.272L327.771 248.585C327.771 248.585 323.425 254.41 322.134 258.768C320.691 263.64 321.559 271.768 321.559 271.768L301.728 266.454Z" fill="#999999"/>
    <ellipse cx="300.762" cy="249.381" rx="3.09726" ry="2.82109" transform="rotate(-75 300.762 249.381)" fill="white"/>
    <path d="M295.35 260.375L348.624 274.651C346.459 275.901 343.698 276.126 341.745 275.735C341.002 275.587 301.339 265 300.765 264.755C296.743 263.035 295.35 260.375 295.35 260.375Z" fill="#FAFAFA"/>
    <rect x="290.138" y="263.35" width="24" height="64" rx="12" transform="rotate(-75 290.138 263.35)" stroke="black" stroke-linecap="round" stroke-linejoin="round"/>
    <path d="M321.579 271.699C321.579 271.699 321.02 263.442 322.567 258.518C323.831 254.496 327.662 248.999 327.662 248.999" stroke="black" stroke-linecap="round" stroke-linejoin="round"/>
    <path d="M199 280.25C211.426 280.25 220.562 277.438 221.5 273.688C222.906 268.062 223.375 263.375 223.375 260.562V223.062C221.812 212.75 217.938 191.188 211.188 191.188C199.938 194.938 190.25 192.75 186.812 191.188C180.062 191.188 176.188 212.75 174.625 223.062V260.562C174.625 263.375 175.562 269 176.5 273.688C177.129 276.831 186.574 280.25 199 280.25Z" fill="#999999"/>
    <path d="M179.312 273.687C180.062 275.187 187.125 276.812 190.562 277.437C186.812 265.438 189.625 218.687 191.5 196.812C185.875 194.938 187.75 195.875 185.875 194.937C172.75 224 178.375 271.812 179.312 273.687Z" fill="white"/>
    <path d="M199.938 229.625C184.188 230.375 176.5 226.188 174.625 224V261.5C177.125 263.688 185.688 267.125 199.938 267.125C214.188 267.125 221.5 263.375 223.375 261.5V224C222.125 225.562 215.688 228.875 199.938 229.625Z" fill="#F4F4F4"/>
    <path d="M212.125 190.25C201.625 195.5 190.25 192.438 185.875 190.25C186.813 183.688 186.813 177.125 187.75 171.5C196.188 166.812 205.875 169 210.25 171.5C211.188 175.25 211.188 182.75 212.125 190.25Z" fill="#F4F4F4"/>
    <ellipse cx="199.214" cy="171.673" rx="11.2141" ry="3.01917" stroke="black"/>
    <path d="M212.125 190.25C212.125 191.286 206.249 193.5 199 193.5C191.751 193.5 185.875 191.286 185.875 190.25" stroke="black" stroke-linecap="round" stroke-linejoin="round"/>
    <path d="M223.375 223.062C223.375 226.687 212.462 229.625 199 229.625C185.538 229.625 174.625 226.687 174.625 223.062" stroke="black" stroke-linecap="round" stroke-linejoin="round"/>
    <path d="M223.375 260.562C223.375 264.187 212.462 267.125 199 267.125C185.538 267.125 174.625 264.187 174.625 260.562" stroke="black" stroke-linecap="round" stroke-linejoin="round"/>
    <path d="M186.812 191.188C180.063 191.188 176.187 212.75 174.625 223.062V260.562C174.625 263.375 175.562 269 176.5 273.688C177.129 276.831 186.574 280.25 199 280.25C211.426 280.25 220.562 277.438 221.5 273.688C222.906 268.062 223.375 263.375 223.375 260.562V223.062C221.813 212.75 217.937 191.188 211.188 191.188" stroke="black" stroke-linecap="round" stroke-linejoin="round"/>
    <path d="M188 172L185.875 190.25" stroke="black" stroke-linecap="round" stroke-linejoin="round"/>
    <path d="M210.5 172L212.125 190.25" stroke="black" stroke-linecap="round" stroke-linejoin="round"/>
    <path d="M199 189.312V177.125" stroke="black" stroke-linecap="round" stroke-linejoin="round"/>
    <path d="M192.844 189.289L193.906 177.148" stroke="black" stroke-linecap="round" stroke-linejoin="round"/>
    <path d="M205.156 189.29L204.094 177.148" stroke="black" stroke-linecap="round" stroke-linejoin="round"/>
    <path d="M288.312 151.938C289.25 154.75 289.25 157.875 289.25 157.875C289.25 158.911 284.213 161.5 278 161.5C271.787 161.5 266.75 158.911 266.75 157.875C266.75 157.875 266.75 154.75 267.687 151.938C270.187 152.25 275.75 153.5 278 153.5C280.25 153.5 285.812 152.25 288.312 151.938Z" fill="#FAFAFA"/>
    <path d="M263 160.375V173.917C263 176.793 269.716 180 278 180C286.284 180 293 176.793 293 173.917V160.375C291.125 162.25 284.038 164.125 278 164.125C271.962 164.125 264.562 161.938 263 160.375Z" fill="#F4F4F4"/>
    <path d="M266.75 145.375V150.792C266.75 151.942 271.787 154 278 154C284.213 154 289.25 151.942 289.25 150.792V145.375H266.75Z" fill="#F4F4F4"/>
    <path d="M278 165C286.284 165 293 162.026 293 159.438C292.997 158.5 291.117 157.562 289.242 157.562C289.242 158.5 286.993 161.5 278 161.5C269.007 161.5 266.747 158.5 266.742 157.562C263.742 157.562 262.997 158.812 263 159.438C263 162.026 269.716 165 278 165Z" fill="#F2F2F2"/>
    <path d="M278.008 225.062C286.292 225.062 293.008 222.964 293.008 220.375V183.737C293.008 177.4 287.5 179 287.5 179C287.5 179 281.917 180.079 278.008 180C275.299 179.945 271.313 179.938 268.5 179C265.688 178.062 262.717 181.757 263.029 183.737V220.375C263.029 222.964 269.723 225.062 278.008 225.062Z" fill="#999999"/>
    <path d="M265.812 186.625C265.812 183.813 265.812 181.938 267.688 181L271.438 181.937C271.75 194.75 271.438 218.5 271.438 221.313C267.688 221.313 266.75 220.375 265.813 219.438L265.812 219.437V186.625Z" fill="white"/>
    <path d="M270.5 141.625H285.5L281.849 108.765C281.793 108.258 281.365 107.875 280.855 107.875H275.145C274.635 107.875 274.207 108.258 274.151 108.765L270.5 141.625Z" fill="white"/>
    <path d="M278 216.625C286.284 216.625 293 214.526 293 211.938V185.688C293 188.276 286.284 190.375 278 190.375C269.716 190.375 263 188.276 263 185.688V211.938C263 214.526 269.716 216.625 278 216.625Z" fill="#F4F4F4"/>
    <path d="M288.312 151.938C289.25 154.75 289.25 157.875 289.25 157.875C289.25 158.911 284.213 161.312 278 161.312C271.787 161.312 266.75 158.911 266.75 157.875C266.75 157.875 266.75 154.75 267.687 151.938" stroke="black" stroke-linecap="round" stroke-linejoin="round"/>
    <path d="M263 159.5V173.917C263 176.793 269.716 180.062 278 180.062C286.284 180.062 293 176.793 293 173.917V159.5" stroke="black" stroke-linecap="round" stroke-linejoin="round"/>
    <path d="M266.75 145.375V150.792C266.75 151.942 271.787 153.812 278 153.812C284.213 153.812 289.25 151.942 289.25 150.792V145.375" stroke="black" stroke-linecap="round" stroke-linejoin="round"/>
    <path d="M289.242 157.562C291.117 157.562 292.997 158.5 293 159.438C293 162.026 286.284 165.062 278 165.062C269.716 165.062 263 162.026 263 159.438C262.997 158.812 263.742 157.562 266.742 157.562" stroke="black" stroke-linecap="round" stroke-linejoin="round"/>
    <path d="M293.5 211.937C293.5 211.661 293.276 211.437 293 211.437C292.724 211.437 292.5 211.661 292.5 211.937H293.5ZM263.529 211.937C263.529 211.661 263.305 211.437 263.029 211.437C262.753 211.437 262.529 211.661 262.529 211.937H263.529ZM293.5 185.687C293.5 185.411 293.276 185.187 293 185.187C292.724 185.187 292.5 185.411 292.5 185.687H293.5ZM263.529 185.687C263.529 185.411 263.305 185.187 263.029 185.187C262.753 185.187 262.529 185.411 262.529 185.687H263.529ZM263.029 183.737H263.529V183.737L263.029 183.737ZM287.375 179.125L287.466 179.617L287.494 179.612L287.521 179.603L287.375 179.125ZM278 180.063L278.01 179.563L278 180.063ZM292.5 211.937C292.5 212.352 292.231 212.838 291.524 213.36C290.828 213.875 289.788 214.359 288.458 214.775C285.803 215.604 282.106 216.125 278 216.125V217.125C282.178 217.125 285.981 216.596 288.756 215.729C290.14 215.297 291.297 214.771 292.118 214.164C292.93 213.565 293.5 212.818 293.5 211.937H292.5ZM278 216.125C273.91 216.125 270.223 215.43 267.572 214.512C266.243 214.052 265.195 213.543 264.489 213.051C264.136 212.805 263.885 212.574 263.728 212.371C263.568 212.165 263.529 212.022 263.529 211.937H262.529C262.529 212.322 262.699 212.677 262.938 212.984C263.178 213.293 263.514 213.59 263.917 213.871C264.724 214.434 265.865 214.979 267.244 215.457C270.007 216.414 273.805 217.125 278 217.125V216.125ZM292.5 185.687C292.5 186.102 292.231 186.588 291.524 187.11C290.828 187.625 289.788 188.109 288.458 188.525C285.803 189.354 282.106 189.875 278 189.875V190.875C282.178 190.875 285.981 190.346 288.756 189.479C290.14 189.047 291.297 188.521 292.118 187.914C292.93 187.315 293.5 186.568 293.5 185.687H292.5ZM278 189.875C273.894 189.875 270.204 189.354 267.558 188.525C266.231 188.109 265.195 187.625 264.501 187.11C263.798 186.589 263.529 186.102 263.529 185.687H262.529C262.529 186.567 263.096 187.314 263.906 187.914C264.724 188.521 265.878 189.046 267.259 189.479C270.026 190.346 273.822 190.875 278 190.875V189.875ZM292.508 220.375C292.508 220.789 292.238 221.276 291.532 221.798C290.835 222.312 289.795 222.797 288.465 223.212C285.811 224.042 282.114 224.563 278.008 224.563V225.563C282.186 225.563 285.989 225.034 288.763 224.167C290.148 223.734 291.305 223.209 292.126 222.602C292.938 222.002 293.508 221.256 293.508 220.375H292.508ZM278.008 224.563C273.902 224.563 270.21 224.042 267.561 223.213C266.234 222.797 265.197 222.313 264.502 221.798C263.798 221.277 263.529 220.79 263.529 220.375H262.529C262.529 221.255 263.097 222.002 263.907 222.602C264.726 223.209 265.881 223.734 267.262 224.167C270.032 225.034 273.829 225.563 278.008 225.563V224.563ZM263.529 220.375V183.737H262.529V220.375H263.529ZM263.529 183.737C263.529 183.401 263.665 182.913 263.962 182.364C264.255 181.823 264.685 181.261 265.224 180.777C266.301 179.81 267.77 179.192 269.441 179.61L269.684 178.64C267.605 178.12 265.807 178.909 264.556 180.033C263.93 180.594 263.429 181.248 263.083 181.887C262.741 182.518 262.529 183.174 262.529 183.737L263.529 183.737ZM287.375 179.125C287.521 179.603 287.521 179.603 287.521 179.603C287.521 179.603 287.521 179.603 287.521 179.603C287.521 179.604 287.521 179.604 287.521 179.604C287.521 179.604 287.521 179.603 287.522 179.603C287.523 179.603 287.526 179.602 287.53 179.601C287.537 179.599 287.55 179.595 287.568 179.59C287.603 179.581 287.657 179.567 287.727 179.551C287.867 179.519 288.07 179.48 288.314 179.451C288.807 179.393 289.444 179.379 290.067 179.539C290.683 179.697 291.277 180.02 291.723 180.636C292.172 181.257 292.508 182.225 292.508 183.737H293.508C293.508 182.081 293.139 180.888 292.533 180.05C291.922 179.207 291.108 178.773 290.315 178.57C289.531 178.369 288.76 178.391 288.196 178.458C287.912 178.492 287.675 178.538 287.507 178.576C287.423 178.595 287.356 178.612 287.308 178.624C287.285 178.631 287.266 178.636 287.253 178.64C287.246 178.642 287.241 178.643 287.237 178.645C287.235 178.645 287.233 178.646 287.232 178.646C287.231 178.646 287.23 178.647 287.23 178.647C287.23 178.647 287.229 178.647 287.229 178.647C287.229 178.647 287.229 178.647 287.375 179.125ZM292.508 183.737V220.375H293.508V183.737H292.508ZM269.441 179.61C273.252 180.563 275.283 180.508 277.99 180.563L278.01 179.563C275.3 179.508 273.373 179.562 269.684 178.64L269.441 179.61ZM277.99 180.563C279.983 180.603 282.357 180.364 284.219 180.119C285.153 179.996 285.963 179.871 286.541 179.776C286.83 179.729 287.06 179.689 287.219 179.661C287.299 179.647 287.36 179.636 287.402 179.629C287.423 179.625 287.439 179.622 287.449 179.62C287.455 179.619 287.459 179.618 287.462 179.618C287.463 179.617 287.464 179.617 287.465 179.617C287.466 179.617 287.466 179.617 287.466 179.617C287.466 179.617 287.466 179.617 287.466 179.617C287.466 179.617 287.466 179.617 287.375 179.125C287.284 178.634 287.284 178.634 287.284 178.634C287.284 178.634 287.284 178.634 287.284 178.634C287.283 178.634 287.283 178.634 287.283 178.634C287.282 178.634 287.281 178.634 287.28 178.634C287.278 178.635 287.274 178.635 287.269 178.636C287.259 178.638 287.244 178.641 287.224 178.645C287.183 178.652 287.124 178.663 287.046 178.676C286.891 178.704 286.664 178.743 286.379 178.789C285.81 178.883 285.009 179.006 284.088 179.128C282.24 179.371 279.926 179.601 278.01 179.563L277.99 180.563Z" fill="black"/>
    <path d="M289.81 145.375V145.875C289.871 145.875 289.931 145.864 289.988 145.842L289.81 145.375ZM289.81 136L289.988 135.533C289.931 135.511 289.871 135.5 289.81 135.5V136ZM266.19 136V135.5C266.129 135.5 266.069 135.511 266.012 135.533L266.19 136ZM266.19 145.375L266.012 145.842C266.069 145.864 266.129 145.875 266.19 145.875V145.375ZM294.375 140.688C294.375 141.416 293.992 142.166 293.179 142.903C292.365 143.64 291.161 144.325 289.632 144.908L289.988 145.842C291.585 145.234 292.913 144.493 293.85 143.644C294.788 142.794 295.375 141.795 295.375 140.688H294.375ZM289.632 136.467C291.161 137.05 292.365 137.735 293.179 138.472C293.992 139.209 294.375 139.959 294.375 140.688H295.375C295.375 139.58 294.788 138.581 293.85 137.731C292.913 136.882 291.585 136.141 289.988 135.533L289.632 136.467ZM289.81 135.5H266.19V136.5H289.81V135.5ZM261.625 140.688C261.625 139.959 262.008 139.209 262.821 138.472C263.635 137.735 264.839 137.05 266.368 136.467L266.012 135.533C264.415 136.141 263.087 136.882 262.15 137.731C261.212 138.581 260.625 139.58 260.625 140.688H261.625ZM266.368 144.908C264.839 144.325 263.635 143.64 262.821 142.903C262.008 142.166 261.625 141.416 261.625 140.688H260.625C260.625 141.795 261.212 142.794 262.15 143.644C263.087 144.493 264.415 145.234 266.012 145.842L266.368 144.908ZM266.19 145.875H289.81V144.875H266.19V145.875Z" fill="black"/>
    <path fill-rule="evenodd" clip-rule="evenodd" d="M289.81 145.375C292.936 144.184 294.875 142.524 294.875 140.688C294.875 138.851 292.936 137.191 289.81 136H266.19C263.064 137.191 261.125 138.851 261.125 140.688C261.125 142.524 263.064 144.184 266.19 145.375H289.81Z" fill="#FAFAFA"/>
    <path d="M289.81 145.375V145.875C289.871 145.875 289.931 145.864 289.988 145.842L289.81 145.375ZM289.81 136L289.988 135.533C289.931 135.511 289.871 135.5 289.81 135.5V136ZM266.19 136V135.5C266.129 135.5 266.069 135.511 266.012 135.533L266.19 136ZM266.19 145.375L266.012 145.842C266.069 145.864 266.129 145.875 266.19 145.875V145.375ZM294.375 140.688C294.375 141.416 293.992 142.166 293.179 142.903C292.365 143.64 291.161 144.325 289.632 144.908L289.988 145.842C291.585 145.234 292.913 144.493 293.85 143.644C294.788 142.794 295.375 141.795 295.375 140.688H294.375ZM289.632 136.467C291.161 137.05 292.365 137.735 293.179 138.472C293.992 139.209 294.375 139.959 294.375 140.688H295.375C295.375 139.58 294.788 138.581 293.85 137.731C292.913 136.882 291.585 136.141 289.988 135.533L289.632 136.467ZM289.81 135.5H266.19V136.5H289.81V135.5ZM261.625 140.688C261.625 139.959 262.008 139.209 262.821 138.472C263.635 137.735 264.839 137.05 266.368 136.467L266.012 135.533C264.415 136.141 263.087 136.882 262.15 137.731C261.212 138.581 260.625 139.58 260.625 140.688H261.625ZM266.368 144.908C264.839 144.325 263.635 143.64 262.821 142.903C262.008 142.166 261.625 141.416 261.625 140.688H260.625C260.625 141.795 261.212 142.794 262.15 143.644C263.087 144.493 264.415 145.234 266.012 145.842L266.368 144.908ZM266.19 145.875H289.81V144.875H266.19V145.875Z" fill="black"/>
    <path d="M274.091 109.575L270.5 137.816C270.5 139.855 273.858 141.508 278 141.508C282.142 141.508 285.5 139.855 285.5 137.816L281.914 109.569C281.821 108.608 281.013 107.875 280.048 107.875H275.957C274.99 107.875 274.181 108.611 274.091 109.575Z" fill="#F4F4F4" stroke="black" stroke-linecap="round" stroke-linejoin="round"/>
    <path d="M272.375 167.875V175.375" stroke="black" stroke-linecap="round" stroke-linejoin="round"/>
    <path d="M266.75 166V173.5" stroke="black" stroke-linecap="round" stroke-linejoin="round"/>
    <path d="M278 167.875V175.375" stroke="black" stroke-linecap="round" stroke-linejoin="round"/>
    <path d="M283.625 167.875V175.375" stroke="black" stroke-linecap="round" stroke-linejoin="round"/>
    <path d="M289.25 166V173.5" stroke="black" stroke-linecap="round" stroke-linejoin="round"/>
    <ellipse cx="278" cy="108.812" rx="3.75" ry="1.64062" fill="#FAFAFA" stroke="black" stroke-linecap="round" stroke-linejoin="round"/>
</svg>
