<svg width="162" height="160" viewBox="0 0 162 160" fill="none" xmlns="http://www.w3.org/2000/svg">
<path d="M120.652 52.8649H1V132.169H120.652V52.8649Z" fill="#F5F5F5" stroke="black" stroke-linecap="round" stroke-linejoin="round"/>
<path d="M119.956 126.681V131.473H1.6958V53.5606H14.9132L51.5629 126.681H119.956Z" fill="#E0E0E0"/>
<path d="M156.384 102.155L149.501 88.3874H135.5V102.155H156.384Z" fill="white" stroke="black" stroke-linecap="round" stroke-linejoin="round"/>
<path d="M136 100L144 89H149.5L151.5 93.5L144.5 101.5H136V100Z" fill="#F5F5F5"/>
<path d="M146.206 83.4735H120.652V132.169H161V107.197L156.965 102.203H135.447V88.4679H150.241L146.206 83.4735Z" fill="#E0E0E0" stroke="black" stroke-linecap="round" stroke-linejoin="round"/>
<path d="M123 84H121V131.656H160.5V126.5H128.5L123 84Z" fill="#9E9E9E"/>
<circle cx="26.0434" cy="134.952" r="12.5217" fill="#9E9E9E" stroke="black"/>
<path d="M17 135C17 130.029 21.0294 126 26 126" stroke="black" stroke-linecap="round" stroke-linejoin="round"/>
<circle cx="141.521" cy="134.952" r="12.5217" fill="#9E9E9E" stroke="black"/>
<path d="M133 135C133 130.029 137.029 126 142 126" stroke="black" stroke-linecap="round" stroke-linejoin="round"/>
<circle cx="26.0435" cy="134.952" r="5.5652" fill="black"/>
<circle cx="141.521" cy="134.952" r="5.5652" fill="black"/>
<path d="M44.1304 127.995L116.478 127.995" stroke="black" stroke-linecap="round" stroke-linejoin="round"/>
<rect width="23.2188" height="61.9168" rx="11.6094" transform="matrix(0.699118 -0.715007 0.699118 0.715007 32.5654 76.008)" fill="white"/>
<path d="M40.6818 84.3085C36.1992 79.7241 36.1992 72.2913 40.6818 67.7069V67.7069C45.1643 63.1225 52.4319 63.1225 56.9144 67.7069L70.8002 81.9083C70.8002 81.9083 64.4146 84.7172 61.261 87.7779C57.7352 91.1998 54.5676 98.5099 54.5676 98.5099L40.6818 84.3085Z" fill="#9E9E9E"/>
<ellipse rx="2.99644" ry="2.72926" transform="matrix(0.699118 -0.715007 0.699118 0.715007 48.0466 69.3718)" fill="white"/>
<path d="M38.3048 76.0387L75.6087 114.191C73.2174 114.191 70.8221 113.031 69.3914 111.745C68.8473 111.256 41.0545 82.8865 40.6961 82.3973C38.1874 78.9734 38.3048 76.0387 38.3048 76.0387Z" fill="#E0E0E0"/>
<rect width="23.2188" height="61.9168" rx="11.6094" transform="matrix(0.699118 -0.715007 0.699118 0.715007 32.5654 76.0096)" stroke="black" stroke-linecap="round" stroke-linejoin="round"/>
<path d="M54.6173 98.4613C54.6173 98.4613 58.1027 91.1931 61.7396 87.7779C64.7101 84.9884 70.5118 82.2056 70.5118 82.2056" stroke="black" stroke-linecap="round" stroke-linejoin="round"/>
<mask id="path-20-inside-1_424_658" fill="white">
<path fill-rule="evenodd" clip-rule="evenodd" d="M123.243 5.75734L119 9.99998L131.257 22.2574L118.757 34.7574L123 39L135.5 26.5L148.104 39.1041L152.347 34.8615L139.743 22.2574L152.104 9.89584L147.862 5.6532L135.5 18.0147L123.243 5.75734Z"/>
</mask>
<path fill-rule="evenodd" clip-rule="evenodd" d="M123.243 5.75734L119 9.99998L131.257 22.2574L118.757 34.7574L123 39L135.5 26.5L148.104 39.1041L152.347 34.8615L139.743 22.2574L152.104 9.89584L147.862 5.6532L135.5 18.0147L123.243 5.75734Z" fill="white"/>
<path d="M119 9.99998L118.293 9.29288L117.586 9.99998L118.293 10.7071L119 9.99998ZM123.243 5.75734L123.95 5.05024L123.243 4.34313L122.536 5.05024L123.243 5.75734ZM131.257 22.2574L131.964 22.9645L132.672 22.2574L131.964 21.5503L131.257 22.2574ZM118.757 34.7574L118.05 34.0503L117.343 34.7574L118.05 35.4645L118.757 34.7574ZM123 39L122.293 39.7071L123 40.4142L123.707 39.7071L123 39ZM135.5 26.5L136.207 25.7929L135.5 25.0858L134.793 25.7929L135.5 26.5ZM148.104 39.1041L147.397 39.8112L148.104 40.5184L148.811 39.8112L148.104 39.1041ZM152.347 34.8615L153.054 35.5686L153.761 34.8615L153.054 34.1544L152.347 34.8615ZM139.743 22.2574L139.036 21.5503L138.328 22.2574L139.036 22.9645L139.743 22.2574ZM152.104 9.89584L152.811 10.6029L153.518 9.89584L152.811 9.18874L152.104 9.89584ZM147.862 5.6532L148.569 4.94609L147.862 4.23899L147.154 4.94609L147.862 5.6532ZM135.5 18.0147L134.793 18.7218L135.5 19.4289L136.207 18.7218L135.5 18.0147ZM119.707 10.7071L123.95 6.46445L122.536 5.05024L118.293 9.29288L119.707 10.7071ZM131.964 21.5503L119.707 9.29288L118.293 10.7071L130.55 22.9645L131.964 21.5503ZM119.464 35.4645L131.964 22.9645L130.55 21.5503L118.05 34.0503L119.464 35.4645ZM123.707 38.2929L119.464 34.0503L118.05 35.4645L122.293 39.7071L123.707 38.2929ZM134.793 25.7929L122.293 38.2929L123.707 39.7071L136.207 27.2071L134.793 25.7929ZM148.811 38.397L136.207 25.7929L134.793 27.2071L147.397 39.8112L148.811 38.397ZM151.64 34.1544L147.397 38.397L148.811 39.8112L153.054 35.5686L151.64 34.1544ZM139.036 22.9645L151.64 35.5686L153.054 34.1544L140.45 21.5503L139.036 22.9645ZM151.397 9.18874L139.036 21.5503L140.45 22.9645L152.811 10.6029L151.397 9.18874ZM147.154 6.36031L151.397 10.6029L152.811 9.18874L148.569 4.94609L147.154 6.36031ZM136.207 18.7218L148.569 6.36031L147.154 4.94609L134.793 17.3076L136.207 18.7218ZM122.536 6.46445L134.793 18.7218L136.207 17.3076L123.95 5.05024L122.536 6.46445Z" fill="black" mask="url(#path-20-inside-1_424_658)"/>
</svg>
