<svg width="120" height="120" viewBox="0 0 120 120" fill="none" xmlns="http://www.w3.org/2000/svg">
<path d="M84.1668 51.667L110.869 67.0837V97.917L84.1668 113.334L57.4644 97.917V67.0837L84.1668 51.667Z" fill="#F4F4F4" stroke="#F2F2F2" stroke-linecap="round" stroke-linejoin="round"/>
<path d="M29.9998 115L55.8335 100.834" stroke="#F2F2F2" stroke-linecap="round" stroke-linejoin="round"/>
<path d="M108.334 69.167L85.0003 55.8337" stroke="#F2F2F2" stroke-linecap="round" stroke-linejoin="round"/>
<path d="M80.0002 20.8335L56.6669 7.50016" stroke="#F2F2F2" stroke-linecap="round" stroke-linejoin="round"/>
<path d="M61.5765 97.6035L61.7581 70.7299" stroke="#F2F2F2" stroke-linecap="round" stroke-linejoin="round"/>
<path d="M33.2433 49.2705L33.4249 22.3969" stroke="#F2F2F2" stroke-linecap="round" stroke-linejoin="round"/>
<path d="M110 99.167L86.6669 112.5" stroke="#F2F2F2" stroke-linecap="round" stroke-linejoin="round"/>
<path d="M55.8336 3.3335L82.536 18.7502V49.5835L55.8336 65.0002L29.1311 49.5835V18.7502L55.8336 3.3335Z" fill="#F4F4F4" stroke="#F2F2F2" stroke-linecap="round" stroke-linejoin="round"/>
<path d="M31.6611 112.795L31.6611 84.167" stroke="#F2F2F2" stroke-linecap="round" stroke-linejoin="round"/>
<path d="M30.0833 115L6.74992 101.667" stroke="#F2F2F2" stroke-linecap="round" stroke-linejoin="round"/>
<path d="M84.1667 50L112.313 66.25V98.75L84.1667 115L56.0209 98.75V66.25L84.1667 50Z" stroke="black" stroke-linecap="round" stroke-linejoin="round"/>
<path d="M29.9997 113.333L55.8334 99.1666" stroke="black" stroke-linecap="round" stroke-linejoin="round"/>
<path d="M30.0004 112.794L30.3183 83.333" stroke="black" stroke-linecap="round" stroke-linejoin="round"/>
<path d="M108.333 67.5L85.0002 54.1667" stroke="black" stroke-linecap="round" stroke-linejoin="round"/>
<path d="M30.0891 113.333L6.75578 99.9997" stroke="black" stroke-linecap="round" stroke-linejoin="round"/>
<path d="M80.0002 19.1665L56.6669 5.83317" stroke="black" stroke-linecap="round" stroke-linejoin="round"/>
<path d="M59.9098 95.9365L60.0914 69.063" stroke="black" stroke-linecap="round" stroke-linejoin="round"/>
<path d="M31.5764 47.6035L31.758 20.7299" stroke="black" stroke-linecap="round" stroke-linejoin="round"/>
<path d="M108.333 97.5L85.0002 110.833" stroke="black" stroke-linecap="round" stroke-linejoin="round"/>
<path d="M55.8335 1.6665L83.9793 17.9165V50.4165L55.8335 66.6665L27.6877 50.4165V17.9165L55.8335 1.6665Z" stroke="black" stroke-linecap="round" stroke-linejoin="round"/>
</svg>
