<svg width="150" height="150" viewBox="0 0 150 150" fill="none" xmlns="http://www.w3.org/2000/svg">
    <path d="M21.6004 136.53C21.6004 132.368 21.3456 121.593 34.9406 115.898C40.8466 113.424 53.1782 108.632 57.1578 107.189C61.4455 105.634 70.8001 109.39 92.2424 107.189C96.222 108.632 108.554 113.424 114.46 115.898C128.055 121.593 127.8 132.368 127.8 136.53L127.8 148.39H21.9001L21.6004 136.53Z" fill="white"/>
    <path d="M60.6003 104.096L62.1003 90.8956C71.1003 93.5956 76.5003 92.9956 87.3003 91.7956C87.3003 101.636 89.9003 105.696 91.2003 106.496C89.3003 108.096 87.3003 118.768 75.0003 119.1C65.1003 119.368 59.7003 108.296 57.9003 106.496L58.8003 105.596L60.6003 104.096Z" fill="#F5F5F5"/>
    <path d="M103.8 52.4956C103.8 50.3417 105.546 48.5956 107.7 48.5956C109.854 48.5956 111.6 50.3417 111.6 52.4956V59.3956C111.6 63.7034 108.108 67.1956 103.8 67.1956V52.4956Z" fill="#F5F5F5"/>
    <path d="M45.6003 52.4956C45.6003 50.3417 43.8542 48.5956 41.7003 48.5956C39.5464 48.5956 37.8003 50.3417 37.8003 52.4956V59.3956C37.8003 63.7034 41.2925 67.1956 45.6003 67.1956V52.4956Z" fill="#F5F5F5"/>
    <path d="M83.1003 31.7999C92.4003 37.7999 92.7003 46.7999 103.8 50.0999C103.8 50.9184 103.8 57.98 103.8 66.294C103.8 82.3654 90.7718 95.3999 74.7003 95.3999C58.6288 95.3999 45.6003 82.3703 45.6003 66.2988C45.6003 59.9606 45.6003 53.9933 45.6003 50.0999C51.6003 50.0999 66.6003 44.6999 83.1003 31.7999Z" fill="#F5F5F5"/>
    <path d="M46.2002 142.8H58.8002" stroke="#E6E6E6" stroke-width="3" stroke-linecap="round" stroke-linejoin="round"/>
    <path d="M45.4458 50.3469C60.7458 47.3469 69.1458 41.6469 83.5458 31.7469C87.4459 34.7469 88.0458 35.6469 94.3458 43.7469C96.0137 45.8912 100.646 49.7469 104.846 50.0469C106.646 47.9469 109.046 48.2469 110.546 49.7469C112.646 51.8469 111.746 56.9469 111.746 60.5469C111.146 64.1469 108.746 66.5469 103.946 67.4469C102.146 86.9469 88.0458 91.4469 88.0458 92.3469C88.0458 93.0669 88.6458 103.747 89.8458 104.947C95.2458 107.547 107.546 111.847 110.546 113.347C110.246 112.747 107.396 109.447 106.046 105.847C105.146 104.047 101.846 94.7469 103.946 89.0469C105.96 83.5811 114.446 74.9469 117.446 66.5469C119.872 59.7546 121.5 46.1999 111 18.5999C108.489 12 100.046 15.2469 99.4458 14.0469C78.1738 -11.0927 43.9458 11.3469 35.8456 17.6469C13.3457 37.4469 22.3456 80.6469 30.1456 86.6469C37.9456 92.6469 34.6456 104.647 35.8456 115.147C37.0456 125.647 57.7456 133.147 52.6456 127.147C47.5456 121.147 55.6458 106.747 57.1458 106.447C61.9458 104.347 61.3458 99.2469 61.9458 92.6469C52.9458 88.1469 45.4458 76.1469 45.4458 67.1469C39.746 67.1469 38.2457 60.8469 38.2457 60.8469V51.2469C38.2457 49.4469 39.7458 47.9469 41.5457 47.9469C43.3931 47.9469 45.3259 49.7469 45.4458 50.3469Z" fill="#E6E6E6"/>
    <path d="M58.8003 108.6C58.8003 108.6 62.6636 121.2 74.7003 121.2C86.737 121.2 91.2003 108.6 91.2003 108.6" stroke="#E6E6E6" stroke-width="3" stroke-linecap="round" stroke-linejoin="round"/>
    <path d="M83.2456 31.7469C92.5456 37.747 92.8456 46.747 103.946 50.047C103.946 50.8654 103.946 57.927 103.946 66.241C103.946 82.3125 90.9171 95.347 74.8456 95.347V95.347C58.7741 95.347 45.7456 82.3174 45.7456 66.2459C45.7456 59.9076 45.7456 53.9403 45.7456 50.047C51.7456 50.047 66.7456 44.647 83.2456 31.7469Z" stroke="black" stroke-width="2" stroke-linecap="round" stroke-linejoin="round"/>
    <path d="M61.9456 92.947C60.9508 103.331 61.591 104.791 57.3033 106.346M35.0861 115.055C21.4911 120.749 21.7459 131.525 21.7459 135.687C21.746 139.849 21.746 147.547 21.746 147.547" stroke="black" stroke-width="2" stroke-linecap="round" stroke-linejoin="round"/>
    <path d="M87.7458 92.947C88.7406 103.331 88.1004 104.791 92.3881 106.346C96.3677 107.789 108.699 112.581 114.605 115.055C128.2 120.749 127.946 131.525 127.945 135.687C127.945 139.849 127.945 147.547 127.945 147.547" stroke="black" stroke-width="2" stroke-linecap="round" stroke-linejoin="round"/>
    <path d="M103.946 52.447C103.946 50.2931 105.692 48.547 107.846 48.547V48.547C110 48.547 111.746 50.2931 111.746 52.447V59.347C111.746 63.6548 108.254 67.147 103.946 67.147V67.147V52.447Z" stroke="black" stroke-width="2" stroke-linecap="round" stroke-linejoin="round"/>
    <path d="M45.7456 52.447C45.7456 50.2931 43.9995 48.547 41.8456 48.547V48.547C39.6917 48.547 37.9456 50.2931 37.9456 52.447V59.347C37.9456 63.6548 41.4378 67.147 45.7456 67.147V67.147V52.447Z" stroke="black" stroke-width="2" stroke-linecap="round" stroke-linejoin="round"/>
    <path d="M58.8003 106.8C58.8003 106.8 62.6636 119.4 74.7003 119.4C86.737 119.4 91.2003 106.8 91.2003 106.8" stroke="black" stroke-width="2" stroke-linecap="round" stroke-linejoin="round"/>
    <path d="M46.3457 140.947H58.9457" stroke="black" stroke-width="2" stroke-linecap="round" stroke-linejoin="round"/>
    <path d="M45.4458 50.3469C60.7458 47.3469 69.1458 41.6469 83.5458 31.7469C87.4459 34.7469 88.0458 35.6469 94.3458 43.7469C96.0137 45.8912 100.646 49.7469 104.846 50.0469C106.646 47.9469 109.046 48.2469 110.546 49.7469C112.646 51.8469 111.746 56.9469 111.746 60.5469C111.146 64.1469 108.746 66.5469 103.946 67.4469C102.146 86.9469 88.0458 91.4469 88.0458 92.3469C88.0458 93.0669 88.6458 103.747 89.8458 104.947C95.2458 107.547 107.546 111.847 110.546 113.347C110.246 112.747 107.396 109.447 106.046 105.847C105.146 104.047 101.846 94.7469 103.946 89.0469C105.96 83.5811 114.446 74.9469 117.446 66.5469C119.872 59.7546 121.5 46.1999 111 18.5999C108.489 12 100.046 15.2469 99.4458 14.0469C78.1738 -11.0927 43.9458 11.3469 35.8456 17.6469C13.3457 37.4469 22.3456 80.6469 30.1456 86.6469C37.9456 92.6469 34.6456 104.647 35.8456 115.147C37.0456 125.647 57.7456 133.147 52.6456 127.147C47.5456 121.147 55.6458 106.747 57.1458 106.447C61.9458 104.347 61.3458 99.2469 61.9458 92.6469C52.9458 88.1469 45.4458 76.1469 45.4458 67.1469C39.746 67.1469 38.2457 60.8469 38.2457 60.8469V51.2469C38.2457 49.4469 39.7458 47.9469 41.5457 47.9469C43.3931 47.9469 45.3259 49.7469 45.4458 50.3469Z" stroke="black" stroke-width="2" stroke-linecap="round" stroke-linejoin="round"/>
    <path d="M66.853 72.6051C66.853 72.6051 68.9182 75.2816 74.8842 75.2816C80.8501 75.2816 82.912 72.6051 82.912 72.6051" stroke="black" stroke-width="2" stroke-linecap="round" stroke-linejoin="round"/>
    <path d="M64.8457 55.2078V60.2262M84.9194 55.2078V60.2262" stroke="black" stroke-width="2" stroke-linecap="round" stroke-linejoin="round"/>
</svg>
