<svg width="80" height="80" viewBox="0 0 80 80" fill="none" xmlns="http://www.w3.org/2000/svg">
    <path d="M41.3333 68.6663H40V3.33301L41 3.99967L41.3333 68.6663Z" fill="#E6E6E6"/>
    <path d="M45 72.6663C45 70.7997 44.1111 69.1108 43.6667 68.6663C44 68.5552 44.8667 68.733 45.6667 68.9997C46.4667 69.2663 46.6667 71.5552 46.6667 72.6663H45Z" fill="#E6E6E6"/>
    <path d="M48 75.9997C48 74.6663 47.5556 73.333 47.3333 72.9997C48 72.9997 49.3333 73.333 49.6667 73.6663C49.9333 73.933 49.7778 75.333 49.6667 75.9997H48Z" fill="#E6E6E6"/>
    <path d="M5.25489 56.9445C3.58611 55.5378 2 52.4014 2 52.4014H23.1414C23.1414 52.4014 21.5553 55.5378 19.8865 56.9445C15.5176 60.6273 9.62379 60.6273 5.25489 56.9445Z" fill="#F2F2F2"/>
    <path d="M15.333 59C16.3997 58.2 15.7775 54.4445 15.333 52.6667C15.9999 52.6667 22.3333 52.3333 23 52.6667C22 57.3334 13.9997 60 15.333 59Z" fill="#E6E6E6"/>
    <path d="M74.2559 56.9445C75.9246 55.5378 77.5107 52.4014 77.5107 52.4014H56.3693C56.3693 52.4014 57.9554 55.5378 59.6242 56.9445C63.9931 60.6273 69.887 60.6273 74.2559 56.9445Z" fill="#F2F2F2"/>
    <path d="M70 59C71.0667 58.2 70.4445 54.4445 70 52.6667C70.6669 52.6667 77.0003 52.3333 77.667 52.6667C76.667 57.3334 68.6667 60 70 59Z" fill="#E6E6E6"/>
    <path d="M41.0584 68.6769H38.6172V4.79968C38.6172 4.12558 39.1637 3.5791 39.8378 3.5791C40.5119 3.5791 41.0584 4.12558 41.0584 4.79969V68.6769Z" stroke="black" stroke-linecap="round" stroke-linejoin="round"/>
    <path d="M46.7551 72.6768V72.7454H32.9219V72.6768C32.9219 70.4676 34.7127 68.6768 36.9219 68.6768H42.7551C44.9643 68.6768 46.7551 70.4676 46.7551 72.6768Z" stroke="black" stroke-linecap="round" stroke-linejoin="round"/>
    <path d="M33.0621 72.7451C33.0621 72.7451 29.4891 72.7983 29.6739 74.3239C29.8233 75.5569 29.6846 76 30.5876 76C35.2461 76 44.0068 76 49.0894 76C49.9924 76 49.8537 75.5569 50.0031 74.3239C50.188 72.7983 46.6148 72.7451 46.6148 72.7451" stroke="black" stroke-linecap="round"/>
    <path d="M38.452 11.7168C26.4113 11.7168 18.9993 25.0007 6.66602 21.6673C19.9993 28.334 23.9702 13.7511 38.452 13.1894" stroke="black" stroke-linecap="round" stroke-linejoin="round"/>
    <path d="M41.3332 11.7168C53.3738 11.7168 60.7858 25.0007 73.1191 21.6673C59.7858 28.334 55.815 13.7511 41.3332 13.1894" stroke="black" stroke-linecap="round" stroke-linejoin="round"/>
    <ellipse cx="12.5784" cy="24.7356" rx="0.813722" ry="0.813722" stroke="black"/>
    <path d="M12.5791 25.5498V51.9958" stroke="black" stroke-linecap="round"/>
    <path d="M12.5791 25.5498L21.4695 51.8791" stroke="black" stroke-linecap="round"/>
    <path d="M12.5186 25.6289L3.62816 51.9582" stroke="black" stroke-linecap="round"/>
    <path d="M5.25489 56.9455C3.58611 55.5388 2 52.4023 2 52.4023H23.1414C23.1414 52.4023 21.5553 55.5388 19.8865 56.9455C15.5176 60.6283 9.62379 60.6283 5.25489 56.9455Z" stroke="black" stroke-linecap="round" stroke-linejoin="round"/>
    <ellipse rx="0.813721" ry="0.813722" transform="matrix(-1 0 0 1 66.9324 24.7356)" stroke="black"/>
    <path d="M66.9326 25.5498V51.9958" stroke="black" stroke-linecap="round"/>
    <path d="M66.9326 25.5498L58.0422 51.8791" stroke="black" stroke-linecap="round"/>
    <path d="M66.9932 25.6289L75.8836 51.9582" stroke="black" stroke-linecap="round"/>
    <path d="M74.2559 56.9455C75.9246 55.5388 77.5107 52.4023 77.5107 52.4023H56.3693C56.3693 52.4023 57.9554 55.5388 59.6242 56.9455C63.9931 60.6283 69.887 60.6283 74.2559 56.9455Z" stroke="black" stroke-linecap="round" stroke-linejoin="round"/>
</svg>
