<svg width="120" height="120" viewBox="0 0 120 120" fill="none" xmlns="http://www.w3.org/2000/svg">
<g opacity="0.3">
<path d="M60.2205 19.0387L54.2326 20.7497C52.8067 21.3201 56.3705 18.6109 58.082 18.1831C66.7141 16.0256 84.0331 10.6259 91.02 9.19995C92.3033 10.4833 93.1588 11.3388 93.1588 11.7666C91.02 12.1943 72.0555 17.3276 62.3593 20.7498L60.2205 19.0387Z" fill="#E5E5E5"/>
<path d="M109.414 60.9602C104.281 63.0135 78.472 38.2884 67.9203 35.294C69.2892 46.9294 73.0536 70.3712 79.8979 77.6433L115.831 65.6657C114.12 64.3824 111.981 63.0991 109.414 60.9602Z" fill="#E5E5E5"/>
</g>
<path d="M39.6324 68.21C33.101 78.4689 26.6319 89.369 22.1035 96.422H56.3897C51.2144 86.8043 45.3922 77.8277 39.6324 68.21Z" fill="#E0E0E0"/>
<path opacity="0.3" d="M56.6564 18.5851C66.8062 14.9311 79.5576 9.93151 90.3235 8.85493C94.112 8.47608 98.278 28.693 98.7966 31.3404C100.742 41.2731 105.914 61.3668 116 65.9515C111.118 66.7821 91.5105 74.6636 79.923 77.6433C73.0179 69.971 71.2297 54.4492 69.5303 44.758C68.75 40.3081 64.9966 19.0212 58.451 18.2939C56.5911 18.0873 55.1295 19.4484 54.2012 20.855L60.2858 19.0584" stroke="black" stroke-linecap="round" stroke-linejoin="round"/>
<path opacity="0.3" d="M80.2559 23.5274C83.4093 22.3077 86.3913 21.4404 89.6092 20.521" stroke="black" stroke-linecap="round" stroke-linejoin="round"/>
<path opacity="0.3" d="M81.9268 37.8911C85.1192 37.2071 88.6125 36.5052 91.6142 35.2188" stroke="black" stroke-linecap="round" stroke-linejoin="round"/>
<path opacity="0.3" d="M86.2695 53.2578C87.3526 51.929 96.2644 49.5833 97.6272 49.5833" stroke="black" stroke-linecap="round" stroke-linejoin="round"/>
<path opacity="0.3" d="M91.2803 66.6198C95.687 64.3471 98.6529 63.6485 103.197 61.8311" stroke="black" stroke-linecap="round" stroke-linejoin="round"/>
<path d="M39.5699 91.2927C38.7073 91.2926 38.707 92.5751 39.5699 92.5751C40.4323 92.5751 40.4322 91.2928 39.5699 91.2927Z" stroke="black" stroke-linecap="round" stroke-linejoin="round"/>
<path d="M39.5703 86.643V75.2634" stroke="black" stroke-linecap="round" stroke-linejoin="round"/>
<path d="M39.6334 68.21C33.1019 78.4689 26.6329 89.369 22.1045 96.422H56.3906C51.2154 86.8043 45.3932 77.8277 39.6334 68.21Z" stroke="black" stroke-linecap="round" stroke-linejoin="round"/>
<path d="M12.0336 97.7446C11.5036 100.395 6.73357 103.72 5.14355 106.37C7.26357 105.84 12.4405 103.82 14.1536 103.72C19.7184 104.97 27.341 110.91 37.4743 110.995C47.8604 111.082 55.6788 110.185 62.6823 102.515C68.3076 96.354 70.648 90.6743 69.8047 82.3744C68.8294 72.7754 64.7219 65.2508 56.5544 60.1142C44.6351 52.6179 30.556 54.633 19.4543 63.2943C12.9329 68.3822 10.3663 73.6317 9.38358 81.8445C8.60205 88.3758 11.2768 93.0757 12.0336 97.7446Z" stroke="black" stroke-linecap="round" stroke-linejoin="round"/>
<rect x="76" y="30.0835" width="1.53214" height="38.3035" rx="0.76607" transform="rotate(-45 76 30.0835)" fill="black"/>
<rect x="77.085" y="57.1682" width="1.53214" height="38.3035" rx="0.76607" transform="rotate(-135 77.085 57.1682)" fill="black"/>
</svg>
