<svg width="120" height="120" viewBox="0 0 120 120" fill="none" xmlns="http://www.w3.org/2000/svg">
<path d="M7.5 98.4375V36.25C7.5 30.7272 11.9771 26.25 17.5 26.25H94.6875L112.5 43.125V110.625H18.75L7.5 98.4375Z" fill="white"/>
<path fill-rule="evenodd" clip-rule="evenodd" d="M72.3748 67.5H58.8748V77.6255H48.75V91.1255H58.8748V101.25H72.3748V91.1255H82.5V77.6255H72.3748V67.5Z" fill="#9E9E9E"/>
<path d="M17.8125 109.688L7.5 98.4375V34.6875L18.75 45L17.8125 109.688Z" fill="#E6E6E6"/>
<path d="M18.75 52.5H112.5V56.25L18.75 72.1875V52.5Z" fill="#E0E0E0"/>
<path d="M52.5 56.25V52.5H78.75V56.25H52.5Z" fill="#E0E0E0"/>
<path d="M60 61.875V56.25H69.375V61.875H60Z" fill="#E0E0E0"/>
<path d="M18.7499 45L8.43744 35.625C7.68744 31.875 11.8749 28.125 14.0624 27.1875C18.7499 31.875 17.8124 30.9375 26.2499 38.4375C22.4999 38.4375 19.6874 42.8125 18.7499 45Z" fill="#E0E0E0"/>
<path d="M19.25 110.25V52.0605H113V110.25H19.25Z" stroke="black" stroke-linecap="round" stroke-linejoin="round"/>
<path d="M8 40.8103V99L19.25 110.25" stroke="black" stroke-linecap="round" stroke-linejoin="round"/>
<path d="M53.1941 55.2933V52.0605H79.0562V55.2933H53.1941Z" stroke="black" stroke-linecap="round" stroke-linejoin="round"/>
<path d="M61.2759 61.7587V55.2932H70.9742V61.7587H61.2759Z" stroke="black" stroke-linecap="round" stroke-linejoin="round"/>
<path d="M59.6594 68.2241V67.7241C59.3833 67.7241 59.1594 67.948 59.1594 68.2241H59.6594ZM72.5904 68.2241H73.0904C73.0904 67.948 72.8666 67.7241 72.5904 67.7241V68.2241ZM59.6594 77.9225V78.4225C59.9356 78.4225 60.1594 78.1987 60.1594 77.9225H59.6594ZM49.9612 77.9225V77.4225C49.685 77.4225 49.4612 77.6464 49.4612 77.9225H49.9612ZM49.9612 90.8535H49.4612C49.4612 91.1297 49.685 91.3535 49.9612 91.3535V90.8535ZM59.6594 90.8535H60.1594C60.1594 90.5774 59.9356 90.3535 59.6594 90.3535V90.8535ZM59.6594 100.552H59.1594C59.1594 100.828 59.3833 101.052 59.6594 101.052V100.552ZM72.5904 100.552V101.052C72.8666 101.052 73.0904 100.828 73.0904 100.552H72.5904ZM72.5904 90.8535V90.3535C72.3143 90.3535 72.0904 90.5774 72.0904 90.8535H72.5904ZM82.2888 90.8535V91.3535C82.5649 91.3535 82.7888 91.1297 82.7888 90.8535H82.2888ZM82.2888 77.9225H82.7888C82.7888 77.6464 82.5649 77.4225 82.2888 77.4225V77.9225ZM72.5904 77.9225H72.0904C72.0904 78.1987 72.3143 78.4225 72.5904 78.4225V77.9225ZM59.6594 68.7241H72.5904V67.7241H59.6594V68.7241ZM60.1594 77.9225V68.2241H59.1594V77.9225H60.1594ZM49.9612 78.4225H59.6594V77.4225H49.9612V78.4225ZM50.4612 90.8535V77.9225H49.4612V90.8535H50.4612ZM59.6594 90.3535H49.9612V91.3535H59.6594V90.3535ZM60.1594 100.552V90.8535H59.1594V100.552H60.1594ZM72.5904 100.052H59.6594V101.052H72.5904V100.052ZM72.0904 90.8535V100.552H73.0904V90.8535H72.0904ZM82.2888 90.3535H72.5904V91.3535H82.2888V90.3535ZM81.7888 77.9225V90.8535H82.7888V77.9225H81.7888ZM72.5904 78.4225H82.2888V77.4225H72.5904V78.4225ZM72.0904 68.2241V77.9225H73.0904V68.2241H72.0904Z" fill="black"/>
<circle cx="66.1252" cy="58.526" r="1.11638" stroke="black"/>
<path d="M8 40.875L19.25 52.1249" stroke="black" stroke-linecap="round" stroke-linejoin="round"/>
<path d="M8 40.8101V35.6377C8 30.46 12.1973 26.2627 17.375 26.2627H92.375C94.768 26.2627 97.0625 27.3227 98.9375 28.9426C100.812 30.5625 109.917 39.9375 109.917 39.9375M19.25 46.8875V52.0599H113V46.8875C113 41.7098 108.803 37.5125 103.625 37.5125H28.625C23.4473 37.5125 19.25 41.7098 19.25 46.8875Z" stroke="black" stroke-linecap="round" stroke-linejoin="round"/>
<path d="M60.1121 9C36.8282 9 33.3489 22.5416 34.4194 30.0129L40.843 30.0129C40.0401 24.8404 42.6495 15.4655 60.1125 15.4655C77.5754 15.4655 80.1848 24.8403 79.3819 30.0128L85.8047 30.0128C86.8752 22.5415 83.396 9 60.1121 9Z" fill="white" stroke="black" stroke-linecap="round" stroke-linejoin="round"/>
<path fill-rule="evenodd" clip-rule="evenodd" d="M30.5 29.625V33.375H43.625C44.6605 33.375 45.5 32.5355 45.5 31.5C45.5 30.4645 44.6605 29.625 43.625 29.625H30.5Z" fill="#9E9E9E"/>
<path d="M30.5 33.375H30C30 33.6511 30.2239 33.875 30.5 33.875V33.375ZM30.5 29.625V29.125C30.2239 29.125 30 29.3489 30 29.625H30.5ZM31 33.375V29.625H30V33.375H31ZM43.625 32.875H30.5V33.875H43.625V32.875ZM45 31.5C45 32.2594 44.3844 32.875 43.625 32.875V33.875C44.9367 33.875 46 32.8117 46 31.5H45ZM43.625 30.125C44.3844 30.125 45 30.7406 45 31.5H46C46 30.1883 44.9367 29.125 43.625 29.125V30.125ZM30.5 30.125H43.625V29.125H30.5V30.125Z" fill="black"/>
<path fill-rule="evenodd" clip-rule="evenodd" d="M75.5 29.625V33.375H88.625C89.6605 33.375 90.5 32.5355 90.5 31.5C90.5 30.4645 89.6605 29.625 88.625 29.625H75.5Z" fill="#9E9E9E"/>
<path d="M75.5 33.375H75C75 33.6511 75.2239 33.875 75.5 33.875V33.375ZM75.5 29.625V29.125C75.2239 29.125 75 29.3489 75 29.625H75.5ZM76 33.375V29.625H75V33.375H76ZM88.625 32.875H75.5V33.875H88.625V32.875ZM90 31.5C90 32.2594 89.3844 32.875 88.625 32.875V33.875C89.9367 33.875 91 32.8117 91 31.5H90ZM88.625 30.125C89.3844 30.125 90 30.7406 90 31.5H91C91 30.1883 89.9367 29.125 88.625 29.125V30.125ZM75.5 30.125H88.625V29.125H75.5V30.125Z" fill="black"/>
<circle cx="30.5" cy="31.5" r="1.875" fill="white" stroke="black"/>
<circle cx="75.5" cy="31.5" r="1.875" fill="white" stroke="black"/>
</svg>
