<svg width="120" height="120" viewBox="0 0 120 120" fill="none" xmlns="http://www.w3.org/2000/svg">
<path d="M89.0624 116.25C104.675 116.25 111.57 110.591 112.499 107.812V56.9525C112.499 53.2478 109 47 105.065 45.8385V37.4999C105.065 30.9375 96 31.7678 96 30.9375C96 27.1714 95.6242 23.5 95.6242 23.5C95.6242 21.625 96.5617 15 95.6242 14.0624C94.6867 7.49993 93.7492 4.68743 91.8742 2.81243C90.9367 1.87513 87 1 84.3742 2.8123C81.5617 7.5 81.5617 11.2501 80.6242 14.0624L79.6867 25.3125C79.6867 25.3125 80.6242 30.9375 78.7492 30.9375C74.7717 30.9375 71.2492 34.6875 71.2492 34.6875V37.4999V45.8385C66.0452 48.8023 64.6869 52.4999 63.7494 56.9524C63.4396 73.6234 63.0059 106.331 63.7493 107.812C64.6786 109.665 69.5473 116.25 89.0624 116.25Z" fill="white"/>
<path d="M12.1875 78.75L15.9375 75C16.25 72.8125 18.75 67.7498 27 66.9998C29.8125 66.7441 32 63.9998 35 62.9998C38.75 60.1873 46.9329 56.1982 55.3125 65.625C62.8125 74.0623 61.5 91.4998 52.5 97.9998C44.8521 103.523 40.4375 100.437 37 99.4998H30C26.25 99.8123 19.6875 98.4374 15.9375 93.7499C14.3886 91.8138 13.2625 90.0277 12.6489 89.7067C12.4932 89.8112 12.3389 89.9091 12.1875 89.9999C12.2708 89.6668 12.426 89.5901 12.6489 89.7067C15.7085 87.6536 19.3242 83.0322 12.1875 78.75Z" fill="white"/>
<path d="M39.375 82.5C39.375 72 31.875 68.125 28.125 67.5L39.375 61.875C45.625 61.875 57.1875 67.5 57.1875 78.75C57.1875 93.75 47.5 98.125 43.125 99.375H29.0625C32.5 98.125 39.375 93 39.375 82.5Z" fill="#E0E0E0"/>
<path d="M19.6875 93.75L12.1875 90L13.125 77.8125C14.6875 76.5625 18.2538 74.6249 18.75 74.0625C19.6875 73 28.5 71.5 30 83.4375C31 91.3958 22.8125 94.0625 19.6875 93.75Z" fill="#E6E6E6"/>
<path d="M93.75 41.25L86.5 37.5C89.5 37.5 94.6875 36.5625 96.5625 35.625L102.188 38.4375C103.125 42.1875 103.125 44.0625 103.125 47.8125V47.8125C107.625 48.5625 108.75 57.5 108.75 61.875C110.313 76.5625 109.688 102.188 108.75 108.75C105 111 100.938 111.562 99.375 111.562V73.125V64.6875C99.375 55.6875 95.625 51.5625 93.75 50.625V41.25Z" fill="#E0E0E0"/>
<path d="M75.0003 73.125C97.5003 76.125 109.375 70.625 112.5 67.5V100.313C98.25 110.063 81.5627 107.5 75.0003 105L75.0002 104.06C75.0001 97.3726 74.9998 78.4719 75.0003 73.125Z" fill="#9E9E9E"/>
<path d="M112.5 57.1875C112.5 61.8474 101.587 65.625 88.125 65.625C74.6631 65.625 63.75 61.8474 63.75 57.1875" stroke="black" stroke-linecap="round" stroke-linejoin="round"/>
<path d="M105 45C105 48.2261 97.4448 51.0579 88.125 51.0579C78.8052 51.0579 71.25 48.2261 71.25 45" stroke="black" stroke-linecap="round" stroke-linejoin="round"/>
<ellipse cx="88.125" cy="35.8413" rx="16.875" ry="5.84135" stroke="black" stroke-linecap="round" stroke-linejoin="round"/>
<path d="M112.5 65.625C112.5 70.2849 101.587 74.0625 88.125 74.0625C83.2926 74.0625 78.7886 73.5757 75 72.7361V105.549C78.7886 106.388 83.2926 106.875 88.125 106.875C101.587 106.875 112.5 103.097 112.5 98.4375" stroke="black" stroke-linecap="round" stroke-linejoin="round"/>
<path d="M71.25 45L71.25 35.625" stroke="black" stroke-linecap="round" stroke-linejoin="round"/>
<path d="M105 45L105 35.625" stroke="black" stroke-linecap="round" stroke-linejoin="round"/>
<path d="M71.25 45.9375C66.5625 46.875 63.7502 53.4375 63.75 57.1875V106.875C63.75 111.535 74.6631 116.25 88.125 116.25C101.587 116.25 112.5 111.535 112.5 106.875V58.125C112.5 54.375 109.688 46.875 105 45.9375" stroke="black" stroke-linecap="round" stroke-linejoin="round"/>
<rect x="80" y="17" width="16" height="17" fill="#C4C4C4" stroke="black" stroke-linecap="round" stroke-linejoin="round"/>
<path fill-rule="evenodd" clip-rule="evenodd" d="M96.1042 15C94.4522 16.0171 91.4964 16.6947 88.125 16.6947C84.7536 16.6947 81.7978 16.0171 80.1458 15C79.2608 15.5449 78.75 16.1872 78.75 16.875C78.75 18.8465 82.9473 20.4447 88.125 20.4447C93.3027 20.4447 97.5 18.8465 97.5 16.875C97.5 16.1872 96.9892 15.5449 96.1042 15Z" fill="#C4C4C4"/>
<path d="M96.1042 15L96.3663 14.5742C96.2055 14.4753 96.0028 14.4753 95.842 14.5742L96.1042 15ZM80.1458 15L80.408 14.5742C80.2472 14.4753 80.0445 14.4753 79.8837 14.5742L80.1458 15ZM95.842 14.5742C94.3016 15.5227 91.4517 16.1947 88.125 16.1947V17.1947C91.5411 17.1947 94.6028 16.5115 96.3663 15.4258L95.842 14.5742ZM88.125 16.1947C84.7983 16.1947 81.9484 15.5227 80.408 14.5742L79.8837 15.4258C81.6472 16.5115 84.7089 17.1947 88.125 17.1947V16.1947ZM79.25 16.875C79.25 16.4533 79.5696 15.9419 80.408 15.4258L79.8837 14.5742C78.952 15.1479 78.25 15.9212 78.25 16.875H79.25ZM88.125 19.9447C85.581 19.9447 83.3003 19.5512 81.6738 18.9319C80.8588 18.6216 80.2338 18.2642 79.8213 17.8929C79.4086 17.5214 79.25 17.1766 79.25 16.875H78.25C78.25 17.5592 78.616 18.1534 79.1522 18.6361C79.6885 19.1189 80.4364 19.5308 81.318 19.8664C83.0845 20.5391 85.4913 20.9447 88.125 20.9447V19.9447ZM97 16.875C97 17.1766 96.8414 17.5214 96.4287 17.8929C96.0162 18.2642 95.3912 18.6216 94.5762 18.9319C92.9497 19.5512 90.669 19.9447 88.125 19.9447V20.9447C90.7587 20.9447 93.1655 20.5391 94.932 19.8664C95.8136 19.5308 96.5615 19.1189 97.0978 18.6361C97.634 18.1534 98 17.5592 98 16.875H97ZM95.842 15.4258C96.6804 15.9419 97 16.4533 97 16.875H98C98 15.9212 97.298 15.1479 96.3663 14.5742L95.842 15.4258Z" fill="black"/>
<path fill-rule="evenodd" clip-rule="evenodd" d="M96.1042 24.375C94.4522 25.3921 91.4964 26.0697 88.125 26.0697C84.7536 26.0697 81.7978 25.3921 80.1458 24.375C79.2608 24.9199 78.75 25.5622 78.75 26.25C78.75 28.2215 82.9473 29.8197 88.125 29.8197C93.3027 29.8197 97.5 28.2215 97.5 26.25C97.5 25.5622 96.9892 24.9199 96.1042 24.375Z" fill="#C4C4C4"/>
<path d="M96.1042 24.375L96.3663 23.9492C96.2055 23.8503 96.0028 23.8503 95.842 23.9492L96.1042 24.375ZM80.1458 24.375L80.408 23.9492C80.2472 23.8503 80.0445 23.8503 79.8837 23.9492L80.1458 24.375ZM95.842 23.9492C94.3016 24.8977 91.4517 25.5697 88.125 25.5697V26.5697C91.5411 26.5697 94.6028 25.8865 96.3663 24.8008L95.842 23.9492ZM88.125 25.5697C84.7983 25.5697 81.9484 24.8977 80.408 23.9492L79.8837 24.8008C81.6472 25.8865 84.7089 26.5697 88.125 26.5697V25.5697ZM79.25 26.25C79.25 25.8283 79.5696 25.3169 80.408 24.8008L79.8837 23.9492C78.952 24.5229 78.25 25.2962 78.25 26.25H79.25ZM88.125 29.3197C85.581 29.3197 83.3003 28.9262 81.6738 28.3069C80.8588 27.9966 80.2338 27.6392 79.8213 27.2679C79.4086 26.8964 79.25 26.5516 79.25 26.25H78.25C78.25 26.9342 78.616 27.5284 79.1522 28.0111C79.6885 28.4939 80.4364 28.9058 81.318 29.2414C83.0845 29.9141 85.4913 30.3197 88.125 30.3197V29.3197ZM97 26.25C97 26.5516 96.8414 26.8964 96.4287 27.2679C96.0162 27.6392 95.3912 27.9966 94.5762 28.3069C92.9497 28.9262 90.669 29.3197 88.125 29.3197V30.3197C90.7587 30.3197 93.1655 29.9141 94.932 29.2414C95.8136 28.9058 96.5615 28.4939 97.0978 28.0111C97.634 27.5284 98 26.9342 98 26.25H97ZM95.842 24.8008C96.6804 25.3169 97 25.8283 97 26.25H98C98 25.2962 97.298 24.5229 96.3663 23.9492L95.842 24.8008Z" fill="black"/>
<path fill-rule="evenodd" clip-rule="evenodd" d="M96.104 31.875C94.452 32.892 91.4963 33.5696 88.125 33.5696C84.7537 33.5696 81.798 32.892 80.146 31.875C79.2609 32.4199 78.75 33.0623 78.75 33.7501C78.75 35.7216 82.9473 37.3198 88.125 37.3198C93.3027 37.3198 97.5 35.7216 97.5 33.7501C97.5 33.0623 96.9891 32.4199 96.104 31.875Z" fill="#C4C4C4"/>
<path d="M96.104 31.875L96.3661 31.4492C96.2054 31.3503 96.0026 31.3503 95.8418 31.4492L96.104 31.875ZM80.146 31.875L80.4082 31.4492C80.2474 31.3503 80.0446 31.3503 79.8839 31.4492L80.146 31.875ZM95.8418 31.4492C94.3014 32.3976 91.4516 33.0696 88.125 33.0696V34.0696C91.541 34.0696 94.6026 33.3864 96.3661 32.3008L95.8418 31.4492ZM88.125 33.0696C84.7984 33.0696 81.9486 32.3976 80.4082 31.4492L79.8839 32.3008C81.6474 33.3864 84.709 34.0696 88.125 34.0696V33.0696ZM79.25 33.7501C79.25 33.3284 79.5697 32.817 80.4082 32.3008L79.8839 31.4492C78.9521 32.0229 78.25 32.7962 78.25 33.7501H79.25ZM88.125 36.8198C85.581 36.8198 83.3003 36.4263 81.6738 35.807C80.8588 35.4967 80.2338 35.1394 79.8213 34.768C79.4086 34.3965 79.25 34.0517 79.25 33.7501H78.25C78.25 34.4343 78.616 35.0285 79.1522 35.5112C79.6885 35.994 80.4364 36.4059 81.318 36.7416C83.0845 37.4142 85.4913 37.8198 88.125 37.8198V36.8198ZM97 33.7501C97 34.0517 96.8414 34.3965 96.4287 34.768C96.0162 35.1394 95.3912 35.4967 94.5762 35.807C92.9497 36.4263 90.669 36.8198 88.125 36.8198V37.8198C90.7587 37.8198 93.1655 37.4142 94.932 36.7416C95.8136 36.4059 96.5615 35.994 97.0978 35.5112C97.634 35.0285 98 34.4343 98 33.7501H97ZM95.8418 32.3008C96.6803 32.817 97 33.3284 97 33.7501H98C98 32.7962 97.2979 32.0229 96.3661 31.4492L95.8418 32.3008Z" fill="black"/>
<path d="M91.4583 2.94591C91.4583 3.53736 89.9659 4.01683 88.125 4.01683C86.2841 4.01683 84.7917 3.53736 84.7917 2.94591M91.4583 2.94591C91.4583 2.35446 89.9659 1.875 88.125 1.875C86.2841 1.875 84.7917 2.35446 84.7917 2.94591M91.4583 2.94591C92.8472 3.25841 95.625 9 95.625 15M84.7917 2.94591C83.4028 3.25841 80.625 9 80.625 15" stroke="black" stroke-linecap="round" stroke-linejoin="round"/>
<path d="M14.666 75.9375C16.8754 70.9165 21.234 67.5 26.2498 67.5C33.4986 67.5 39.3748 74.6355 39.3748 83.4375C39.3748 92.2395 33.4986 99.375 26.2498 99.375C21.6523 99.375 17.6069 96.5046 15.2627 92.1591" stroke="black" stroke-linecap="round" stroke-linejoin="round"/>
<ellipse cx="12.1324" cy="84.375" rx="4.63235" ry="5.625" fill="#C4C4C4" stroke="black" stroke-linecap="round" stroke-linejoin="round"/>
<path d="M32.8125 64.3385C35.6899 61.6194 39.3069 60 43.2353 60C52.616 60 60.2206 69.2341 60.2206 80.625C60.2206 92.0159 52.616 101.25 43.2353 101.25C40.7061 101.25 38.3061 100.579 36.1494 99.375" stroke="black" stroke-linecap="round" stroke-linejoin="round"/>
<path d="M11.25 78.75L18.1719 73.9914C19.2096 73.4343 20.3565 73.125 21.5625 73.125C26.2224 73.125 30 77.7421 30 83.4375C30 87.9224 27.5552 91.5303 23.8634 93.0254C22.8669 93.429 21.919 93.6782 20.625 93.75C17.0247 93.9498 12.1875 90 12.1875 90" stroke="black" stroke-linecap="round" stroke-linejoin="round"/>
<path d="M26.25 67.4995L38.4375 61.8745C51.5625 61.8745 57.1324 70.2692 57.1324 80.6245C57.1324 90.9799 50.2191 99.3745 41.6912 99.3745H26.25" stroke="black" stroke-linecap="round" stroke-linejoin="round"/>
<path d="M42.1875 82.5L54.375 81.5625" stroke="black" stroke-linecap="round" stroke-linejoin="round"/>
<path d="M42.1875 88.125H52.5" stroke="black" stroke-linecap="round" stroke-linejoin="round"/>
<path d="M41.25 77.8125L53.4375 75.9375" stroke="black" stroke-linecap="round" stroke-linejoin="round"/>
<path d="M40.3125 73.125L49.6875 70.3125" stroke="black" stroke-linecap="round" stroke-linejoin="round"/>
<path d="M40.3125 93.75H48.75" stroke="black" stroke-linecap="round" stroke-linejoin="round"/>
<path d="M35.625 68.4375C38.4375 67.5 41.25 66.5625 44.0625 65.625" stroke="black" stroke-linecap="round" stroke-linejoin="round"/>
</svg>
