<svg width="120" height="120" viewBox="0 0 120 120" fill="none" xmlns="http://www.w3.org/2000/svg">
<path d="M95.2896 94.4105C117.363 73.3517 112.505 53.1476 112.505 53.1476L105.933 28.0671L12.604 80.7373L24.4344 100.802C42.4014 117.942 73.216 115.469 95.2896 94.4105Z" fill="#E6E6E6"/>
<ellipse rx="53.8055" ry="43.7952" transform="matrix(0.723545 -0.690277 0.723545 0.690277 58.3275 50.8281)" fill="white"/>
<path d="M24.9995 27.5002L89.9364 74.7519" stroke="#E6E6E6" stroke-width="2" stroke-linecap="round" stroke-linejoin="round"/>
<path d="M94.1663 17.5002C78.0649 2.26891 49.1663 3.33346 28.333 24.0759L92.4997 70.8334C106.066 52.8301 108.242 30.8153 94.1663 17.5002Z" fill="#E0E0E0"/>
<path d="M89.1658 75.8334C66.6654 93.3334 42.4992 96.6667 23.1797 83.3334C8.68848 69.6895 8.13961 49.7062 23.1796 31.6667" stroke="#E0E0E0" stroke-width="2" stroke-linecap="round"/>
<path d="M96.6465 13.525C112.022 28.194 111.466 53.2065 96.6465 73.0404C95.8625 74.0896 95.0304 77.7924 94.1668 78.8104C93.4007 79.7135 92.6116 77.9353 91.7832 78.8104C91.0052 79.6322 90.1998 80.4409 89.3671 81.2353C67.7582 101.851 35.9822 104.96 18.3935 88.1799C0.804837 71.4 4.06391 41.085 25.6729 20.4697C47.2818 -0.145722 79.0578 -3.25494 96.6465 13.525Z" stroke="black"/>
<path d="M28.3335 22.9099C47.9285 4.04277 76.7429 1.19722 92.6924 16.5542C106.635 29.9792 106.871 51.8482 93.4321 70.0001" stroke="black" stroke-linecap="round"/>
<path d="M88.3337 76.3657C68.7513 94.803 38.2502 99.3535 22.3111 84.3464C7.81982 70.7024 8.14035 48.0395 23.1803 30" stroke="black" stroke-linecap="round"/>
<line x1="23.7696" y1="25.1681" x2="91.5553" y2="74.3017" stroke="black" stroke-linecap="round" stroke-linejoin="round"/>
<path d="M12.5 80.8335L24.4346 100.802C42.4016 117.942 73.2161 115.469 95.2898 94.4098C117.363 73.3511 112.506 53.1475 112.506 53.1475L106.667 30.8335" stroke="black" stroke-linecap="round" stroke-linejoin="round"/>
</svg>
