<svg width="120" height="120" viewBox="0 0 120 120" fill="none" xmlns="http://www.w3.org/2000/svg">
<path d="M20.625 22.5V0.9375H99.375V22.5C93.125 46.875 80.4375 96.1875 79.6875 98.4375C78.9375 100.688 76.25 101.875 75 102.188V112.5C74.375 114.062 70.3125 117.188 59.0625 117.188C47.8125 117.188 45 114.062 45 112.5V102.188C42.75 101.438 40.9375 99.375 40.3125 98.4375L20.625 22.5Z" fill="white"/>
<path d="M89.0625 31.875C85.3125 36.5625 77.625 52.875 76.875 80.625L89.0625 31.875Z" fill="#E0E0E0"/>
<path d="M31.875 31.875C35.625 36.5625 43.3125 52.875 44.0625 80.625L31.875 31.875Z" fill="#E0E0E0"/>
<path d="M97.5 27.1875H21.5625L20.625 22.5H99.375L97.5 27.1875Z" fill="#E0E0E0"/>
<path d="M50.625 115.001V103.125C58.125 104.063 63.75 104.063 69.2261 103.125L69.375 115.313C69.375 115.313 63.2475 117.3 60 117.188C55.9017 117.045 51.1887 116.321 50.625 115.001Z" fill="#E0E0E0"/>
<path d="M59.0625 15.9375C35.0625 15.9375 24.0625 7.1875 21.5625 2.8125V22.5H98.4375V1.875C95.3125 6.5625 83.0625 15.9375 59.0625 15.9375Z" fill="#E0E0E0"/>
<path d="M61.875 100.312C51.375 100.312 46.25 97.1875 45 95.625H76.875C76.25 97.1875 72.375 100.312 61.875 100.312Z" fill="#E0E0E0"/>
<path d="M74.7656 112.339C74.7656 115.06 68.1548 117.265 60 117.265C51.8452 117.265 45.2344 115.06 45.2344 112.339" stroke="black" stroke-linecap="round" stroke-linejoin="round"/>
<path d="M20.625 22.6892L40.3125 98.5472" stroke="black" stroke-linecap="round"/>
<path d="M79.6875 98.5469C79.6875 101.267 70.8731 103.473 60 103.473C49.1269 103.473 40.3125 101.267 40.3125 98.5469" stroke="black" stroke-linecap="round" stroke-linejoin="round"/>
<rect x="20.625" y="1.01538" width="78.75" height="21.6737" stroke="black" stroke-linecap="round" stroke-linejoin="round"/>
<path d="M99.375 22.6892L79.6875 98.5472" stroke="black" stroke-linecap="round"/>
<path d="M74.7656 112.339V102.488" stroke="black" stroke-linecap="round"/>
<path d="M45.2344 112.339V102.488" stroke="black" stroke-linecap="round"/>
<path d="M25.7812 17.3517V7.5" stroke="black" stroke-linecap="round"/>
<path d="M33.75 17.3517V7.5" stroke="black" stroke-linecap="round"/>
<path d="M41.25 17.3517V7.5" stroke="black" stroke-linecap="round"/>
<path d="M48.75 17.3517V7.5" stroke="black" stroke-linecap="round"/>
<path d="M56.25 17.3517V7.5" stroke="black" stroke-linecap="round"/>
<path d="M63.75 17.3517V7.5" stroke="black" stroke-linecap="round"/>
<path d="M71.25 17.3517V7.5" stroke="black" stroke-linecap="round"/>
<path d="M78.75 17.3517V7.5" stroke="black" stroke-linecap="round"/>
<path d="M86.25 17.3517V7.5" stroke="black" stroke-linecap="round"/>
<path d="M93.75 17.3517V7.5" stroke="black" stroke-linecap="round"/>
</svg>
