<svg width="120" height="120" viewBox="0 0 120 120" fill="none" xmlns="http://www.w3.org/2000/svg">
<path d="M59.0625 114.375V95.625C61 90 70.5 88.3751 75.5 89.0001L86.5 90.5L96.5625 93.75V110.625C89.8125 118.875 81.875 117.812 78.75 116.25L59.0625 114.375Z" fill="#9E9E9E"/>
<path d="M40.3125 113.437L59.0629 114.375C59.3755 108.437 59.0629 96.3748 59.0629 95.6248C59.0629 94.6873 61.5005 90.7072 64.6879 89.9998C61.8754 89.9998 54.375 93.7498 50.6254 94.6873C51.3754 90.9373 40.8125 43.8125 35.5 21C33.9374 21.9375 30 24.25 27 26.5C24 28.75 25 29.5 24.375 31.8748C26.5 41.5 39.375 91.8748 40.3125 95.6248C38.0625 97.1248 37.5 102.5 37.5 105L40.3125 106.875V113.437Z" fill="#E0E0E0"/>
<path d="M51 95C51 90.5 40.9375 43.4374 35.625 20.6249C40.3125 19.3749 50.625 16.6874 54.375 15.9374C58.125 15.1874 59.6875 18.7499 60 20.6249C63.9062 44.0623 74.0625 87.1873 74.0625 89.0624C71.25 88.1249 58.5 90.5 51 95Z" fill="#F5F5F5"/>
<path d="M22.4994 10.3124L26.2494 27.1874L35.6246 20.6248L53.4371 15.9373L51.5621 6.56238C50.6246 1.87491 50.5 1.87491 46.5 1.87491C43.6875 1.87491 39.886 1.22912 36.5626 1.87491C31.2087 2.91526 25.5314 6.56241 24.3749 6.56241C22.5005 6.56241 21.5619 9.37488 22.4994 10.3124Z" fill="white"/>
<path d="M33.75 22.5L26.25 27.1875C25 21.25 22 10 22 8.5C22 7 26.8125 4.625 29 4L33.75 22.5Z" fill="#E0E0E0"/>
<path d="M26.25 27.1874L21.9198 9.00073C21.7093 8.11642 22.1204 7.20344 22.9331 6.79611C25.5608 5.47903 31.4196 2.70025 35.625 1.875C40.0194 1.01266 46.3785 1.45855 49.1927 1.72411C50.0509 1.80508 50.7391 2.44542 50.9082 3.29066L53.4375 15.9374" stroke="black" stroke-linecap="round" stroke-linejoin="round"/>
<path d="M35.625 20.6249L54.375 15.9374C55.9375 15.3124 59.25 15.5624 60 21.5624C60.75 27.5624 69.6875 69.0623 74.0625 89.0623" stroke="black"/>
<path d="M59 114C53.6875 112.125 40.5001 107.25 37.5001 105C37.5001 102.188 38.1251 97.8125 40.3126 95.625M40.3126 95.625C43.1251 96.25 49.1251 97.125 50.6251 95.625C52.1251 94.125 41.2501 45 35.6251 20.625L26.2501 27.1875C25.3126 28.125 23.8126 28.875 25.3126 35.625C26.8126 42.375 35.9376 78.4375 40.3126 95.625Z" stroke="black" stroke-linecap="round" stroke-linejoin="round"/>
<path d="M78.75 98.4374C78.7502 106.875 78.75 110.625 78.75 116.25M78.75 98.4374L59.0625 95.6251M78.75 98.4374C80.8498 95.6376 85.5626 91.4791 90.9375 91.7363M78.75 116.25C88.5 119.25 94.6875 113.75 96.5625 110.625C96.5625 105 96.5625 102.188 96.5625 93.7499C94.6621 92.4196 92.7617 91.8236 90.9375 91.7363M78.75 116.25L59.0625 114.375V95.6251M59.0625 95.6251C59.6875 93.1251 63.375 88.3126 73.125 89.0626C82.875 89.8126 89.0625 91.1576 90.9375 91.7363" stroke="black" stroke-linecap="round" stroke-linejoin="round"/>
<path d="M59.0625 114.375L40.3125 113.437V106.5M59.0625 95.6249H50.625C53.4375 93.7499 60.9375 88.1246 73.125 89.0624" stroke="black" stroke-linecap="round" stroke-linejoin="round"/>
</svg>
