<svg width="120" height="120" viewBox="0 0 120 120" fill="none" xmlns="http://www.w3.org/2000/svg">
<path d="M17.4169 49.6078C8.80361 40.7865 8.88781 26.6781 17.6057 17.9602C26.4638 9.10208 40.849 9.17845 49.6126 18.1301L75.0002 44.0627C75.0002 44.0627 65.625 46.875 57.1875 55.3125C47.7657 64.7342 43.1255 75.9375 43.1255 75.9375L17.4169 49.6078Z" fill="#E0E0E0"/>
<ellipse cx="32.2217" cy="20.9717" rx="5.80737" ry="5.28954" transform="rotate(-45 32.2217 20.9717)" fill="white"/>
<path d="M13.1257 33.75L46.8749 67.5C44.9999 71.25 44.9999 70.3125 44.0624 72.1875C43.4274 73.4577 18.5157 46.875 17.8132 45.9375C12.8955 39.375 13.1257 33.75 13.1257 33.75Z" fill="#F5F5F5"/>
<path d="M76.8754 45C83.3992 51.5238 52.9293 84.8044 45 76.875C38.5126 70.3874 70.5229 39.3362 76.8754 45Z" fill="#9E9E9E"/>
<ellipse cx="56.1875" cy="65.5625" rx="4.6875" ry="4.6875" fill="#F5F5F5"/>
<circle cx="72.0625" cy="75.8125" r="4.6875" fill="#E0E0E0"/>
<circle cx="87.0625" cy="81.4375" r="4.6875" fill="#E0E0E0"/>
<circle cx="70.1875" cy="92.6875" r="4.6875" fill="#E0E0E0"/>
<circle cx="103.938" cy="88.9375" r="4.6875" fill="#E0E0E0"/>
<circle cx="88.9375" cy="96.4375" r="4.6875" fill="#E0E0E0"/>
<circle cx="105.812" cy="107.688" r="4.6875" fill="#E0E0E0"/>
<path d="M76.1212 44.3009L49.6047 17.7844C40.8179 8.99764 26.5717 8.99764 17.7849 17.7844V17.7844C8.99811 26.5712 8.99811 40.8174 17.7849 49.6042L44.3014 76.1207" stroke="black" stroke-linecap="round" stroke-linejoin="round"/>
<path d="M76.8755 45C83.3993 51.5238 52.9293 84.8044 45 76.875C38.5126 70.3874 70.5229 39.3362 76.8755 45Z" stroke="black" stroke-linecap="round" stroke-linejoin="round"/>
<circle cx="56.3125" cy="65.6875" r="4.6875" stroke="black" stroke-linecap="round" stroke-linejoin="round"/>
<circle cx="72.1875" cy="75.9375" r="4.6875" stroke="black" stroke-linecap="round" stroke-linejoin="round"/>
<circle cx="87.1875" cy="81.5625" r="4.6875" stroke="black" stroke-linecap="round" stroke-linejoin="round"/>
<circle cx="70.3125" cy="92.8125" r="4.6875" stroke="black" stroke-linecap="round" stroke-linejoin="round"/>
<circle cx="104.062" cy="89.0625" r="4.6875" stroke="black" stroke-linecap="round" stroke-linejoin="round"/>
<circle cx="89.0625" cy="96.5625" r="4.6875" stroke="black" stroke-linecap="round" stroke-linejoin="round"/>
<circle cx="105.938" cy="107.812" r="4.6875" stroke="black" stroke-linecap="round" stroke-linejoin="round"/>
</svg>
