<svg width="120" height="120" viewBox="0 0 120 120" fill="none" xmlns="http://www.w3.org/2000/svg">
<path d="M19.7456 15.5243C18.9965 14.7623 16.9364 15.2068 16 15.5243C18.1849 13.302 22.8212 9.19826 23.4912 8.85746C25.364 7.90485 30.9825 6 62.8202 6C94.6579 6 99.6853 6.23419 102.149 7.90485C104.958 9.80971 99.9642 12.9845 99.34 15.5243V103.148C99.34 113.624 81.5483 114.577 81.5483 114.577C81.5483 114.577 55.329 115.529 44.0921 114.577C31.9189 113.545 27.2368 109.5 27.2368 103.148V25.0487C27.2368 24.0963 20.682 16.4767 19.7456 15.5243Z" fill="white"/>
<path d="M30.9375 97.5951C30.9379 75.4725 30.9375 59.7904 30.9377 56.4299C38.4984 56.4295 83.8636 56.4299 95.625 56.4299V97.5951C95.625 106.836 86.2144 106.992 79.6632 107.676C69.375 108.75 56.1404 108.516 46.0593 107.676C35.138 106.766 30.9374 104.062 30.9375 97.5951Z" fill="#E0E0E0"/>
<path d="M95.625 42.1873V60.9373C95.625 60.9373 88.1545 65.1015 80.625 65.6248C67.8679 66.5114 59.301 59.6163 48.75 58.125C37.3865 56.5187 30.9375 60.9373 30.9375 60.9373V42.1873C30.9375 42.1873 37.3865 37.7687 48.75 39.375C59.301 40.8663 68.4375 39.3747 80.625 37.5001C88.085 36.3526 95.625 42.1873 95.625 42.1873Z" fill="#9E9E9E"/>
<circle cx="43.125" cy="88.125" r="1.875" fill="white"/>
<circle cx="58.125" cy="80.625" r="1.875" fill="white"/>
<circle cx="82.5" cy="90" r="1.875" fill="white"/>
<circle cx="37.5" cy="69.375" r="1.875" fill="white"/>
<circle cx="80.625" cy="76.875" r="3.75" fill="#9E9E9E"/>
<circle cx="63.75" cy="95.625" r="3.75" fill="#9E9E9E"/>
<circle cx="50.625" cy="69.375" r="3.75" fill="#9E9E9E"/>
<path d="M84.375 102.188V13.125H89.0625C89.375 41.875 89.8125 96.1875 89.0625 98.4375C88.3125 100.688 85.625 101.875 84.375 102.188Z" fill="#F5F5F5"/>
<path d="M31.875 13.1249L28.125 23.4374C25.625 21.2499 18.75 15.3749 18.75 13.1249C23.4375 14.0626 28.125 12.4999 31.875 13.1249Z" fill="#E6E6E6"/>
<path d="M19.6875 15C18.9375 14.25 16.875 14.6875 15.9375 15C18.125 12.8126 22.7667 8.77313 23.4375 8.43767C25.3125 7.5 30.9375 5.625 62.8125 5.625C94.6875 5.625 99.7208 5.85552 102.188 7.5C105 9.375 100 12.5001 99.375 15V101.719C99.375 112.031 91.875 112.969 88.125 113.906C84.375 114.844 72.4506 115.312 63.2813 115.312C54.1119 115.312 44.0625 115.312 38.4375 113.906C34.6875 112.969 27.1875 112.5 27.1875 101.719V24.3752C27.1875 23.4377 20.625 15.9375 19.6875 15Z" stroke="black" stroke-linecap="round" stroke-linejoin="round"/>
<path d="M19.6875 13.125C19.6875 13.125 25.8579 9.79473 30 10.3125C45 12.1875 89.0625 11.25 100.312 9.375" stroke="black" stroke-linecap="round" stroke-linejoin="round"/>
<path d="M30.9375 42.1875V98.027C30.9375 104.062 34.3085 107.434 45.5107 108.367C55.8511 109.229 74.0625 108.75 79.9788 108.367C87.2875 107.895 95.625 107.506 95.625 98.027V42.1875M30.9375 42.1875V60.9359C30.9375 60.9359 40.171 56.5885 50.3366 58.1689C59.7754 59.6362 67.4392 66.4202 78.8515 65.5479C85.5873 65.033 95.625 60.9359 95.625 60.9359V42.1875M30.9375 42.1875C30.9375 42.1875 40.171 38.1406 50.3366 39.7209M95.625 42.1875C95.625 42.1875 85.5873 46.585 78.8515 47.0999C67.4392 47.9722 59.7754 41.1883 50.3366 39.7209M95.625 42.1875C93.125 40.5249 86.25 37.5 78.75 37.5C69.375 37.5 71.6107 41.0043 50.3366 39.7209" stroke="black" stroke-linecap="round" stroke-linejoin="round"/>
<circle cx="37.5" cy="69.375" r="3.25" stroke="black"/>
<circle cx="58.125" cy="80.625" r="3.25" stroke="black"/>
<circle cx="43.125" cy="88.125" r="3.25" stroke="black"/>
<circle cx="82.5" cy="90" r="3.25" stroke="black"/>
<path d="M55.75 69.375C55.75 72.2055 53.4555 74.5 50.625 74.5C47.7945 74.5 45.5 72.2055 45.5 69.375C45.5 66.5445 47.7945 64.25 50.625 64.25C53.4555 64.25 55.75 66.5445 55.75 69.375Z" stroke="black"/>
<circle cx="63.75" cy="95.625" r="5.125" stroke="black"/>
<circle cx="80.625" cy="76.875" r="5.125" stroke="black"/>
</svg>
