<svg width="120" height="120" viewBox="0 0 120 120" fill="none" xmlns="http://www.w3.org/2000/svg">
<rect x="59" y="15.9685" width="24" height="64" rx="12" transform="rotate(-45 59 15.9685)" fill="white"/>
<path d="M67.4853 24.4535C62.799 19.7673 62.799 12.1693 67.4853 7.48298C72.1716 2.79669 79.7696 2.79669 84.4558 7.48298L98.9729 22C98.9729 22 92.2969 24.8713 89 28C85.3139 31.498 82.0023 38.9706 82.0023 38.9706L67.4853 24.4535Z" fill="#9E9E9E"/>
<ellipse cx="75.1849" cy="9.18484" rx="3.09726" ry="2.82109" transform="rotate(-45 75.1849 9.18484)" fill="white"/>
<path d="M65.0004 16L104 55C101.5 55 98.9958 53.8146 97.5002 52.5C96.9313 52 67.8751 23 67.5004 22.5C64.8776 19 65.0004 16 65.0004 16Z" fill="#E0E0E0"/>
<rect x="59" y="15.9702" width="24" height="64" rx="12" transform="rotate(-45 59 15.9702)" stroke="black" stroke-linecap="round" stroke-linejoin="round"/>
<path d="M82.0541 38.9211C82.0541 38.9211 85.698 31.4913 89.5002 28.0002C92.6057 25.1487 98.6711 22.3041 98.6711 22.3041" stroke="black" stroke-linecap="round" stroke-linejoin="round"/>
<path d="M48.6167 37.883C44.7115 33.9777 42.3371 30.0204 43.3134 29.0441C44.1687 28.1889 47.3113 29.9048 50.7027 32.9686L53.5311 35.797C56.5949 39.1884 58.3108 42.331 57.4556 43.1863C56.4793 44.1626 52.522 41.7882 48.6167 37.883Z" fill="#F5F5F5"/>
<ellipse rx="5" ry="1.25" transform="matrix(-0.707107 -0.707107 -0.707107 0.707107 57.6323 28.8671)" fill="#F5F5F5"/>
<path d="M5.48341 81.0163C4.70236 80.2352 4.58104 79.0902 4.77631 78.895L9.3725 74.2988C9.72605 75.1237 10.7867 76.8444 12.2009 77.1272L7.60473 81.7234C7.40947 81.9187 6.26446 81.7973 5.48341 81.0163Z" fill="#E0E0E0"/>
<path d="M50.3845 36.115C51.1655 36.896 51.957 37.3709 52.1522 37.1757L57.8091 31.5188L54.9807 28.6904L49.3238 34.3472C49.1285 34.5425 49.6034 35.3339 50.3845 36.115Z" fill="#E0E0E0"/>
<path d="M9.37137 74.2979C9.67303 75.0449 9.86324 75.4971 10.433 76.0666C11.0023 76.6358 11.4542 76.8258 12.2007 77.1273C14.6634 78.1218 17.2212 77.7637 18.9182 76.0666L52.8594 42.1255L44.3741 33.6402L10.433 67.5813C8.73591 69.2784 8.37697 71.8356 9.37137 74.2979Z" fill="#F5F5F5"/>
<path d="M18.5649 76.4202L21.0398 73.9453C20.097 73.4739 17.7871 72.1068 16.09 70.4098C14.393 68.7127 13.0259 66.4028 12.5545 65.46L10.0796 67.9349C10.1975 68.7599 10.9989 70.9755 13.2616 73.2382C15.5244 75.5009 17.74 76.3023 18.5649 76.4202Z" fill="#9E9E9E"/>
<path d="M13.9686 66.167C14.5342 67.2984 15.1471 68.0526 15.3828 68.2883C17.504 66.167 43.3138 40.358 46.1419 37.5292C45.5762 36.9635 45.0813 35.9971 44.7277 35.4079L13.9686 66.167Z" fill="#E0E0E0"/>
<path d="M51.799 40.3578L51.0919 36.8222L48.9705 34.7009L50.7383 32.9331L46.4957 30.1047C45.0815 28.6905 42.6066 28.3369 43.6672 30.8118C45.2895 34.5971 49.5598 38.8257 51.799 40.3578Z" fill="#E0E0E0"/>
<path d="M12.908 65.1065C12.3222 65.6923 13.7469 68.0667 16.09 70.4098C18.4332 72.753 20.8075 74.1776 21.3933 73.5918" stroke="black" stroke-linecap="round" stroke-linejoin="round"/>
<path d="M18.5647 59.4497C17.9789 60.0355 19.4036 62.4099 21.7467 64.753" stroke="black" stroke-linecap="round" stroke-linejoin="round"/>
<path d="M22.4539 55.5606C21.8681 56.1464 23.2927 58.5207 25.6359 60.8639" stroke="black" stroke-linecap="round" stroke-linejoin="round"/>
<path d="M26.3431 51.6714C25.7573 52.2572 27.1819 54.6316 29.525 56.9747" stroke="black" stroke-linecap="round" stroke-linejoin="round"/>
<path d="M30.232 47.7823C29.6462 48.368 31.0708 50.7424 33.4139 53.0856" stroke="black" stroke-linecap="round" stroke-linejoin="round"/>
<path d="M34.1211 43.8933C33.5353 44.4791 34.96 46.8535 37.3031 49.1966" stroke="black" stroke-linecap="round" stroke-linejoin="round"/>
<path d="M38.0103 40.0042C37.4245 40.59 38.8491 42.9643 41.1923 45.3075" stroke="black" stroke-linecap="round" stroke-linejoin="round"/>
<path d="M41.8992 36.115C41.3134 36.7008 42.738 39.0752 45.0812 41.4183" stroke="black" stroke-linecap="round" stroke-linejoin="round"/>
<path d="M53.5311 35.797C56.5949 39.1884 58.3108 42.331 57.4556 43.1863C56.4793 44.1626 52.522 41.7882 48.6167 37.883C44.7115 33.9777 42.3371 30.0204 43.3134 29.0441C44.1687 28.1889 47.3113 29.9048 50.7027 32.9686" stroke="black" stroke-linecap="round" stroke-linejoin="round"/>
<ellipse rx="5" ry="1.25" transform="matrix(-0.707107 -0.707107 -0.707107 0.707107 57.6323 28.8671)" stroke="black" stroke-linecap="round" stroke-linejoin="round"/>
<path d="M12.2009 77.1272L7.60473 81.7234C7.40947 81.9187 6.26446 81.7973 5.48341 81.0163C4.70236 80.2352 4.58104 79.0902 4.77631 78.895L9.3725 74.2988" stroke="black" stroke-linecap="round" stroke-linejoin="round"/>
<path d="M57.8091 31.5188L52.1522 37.1757C51.957 37.3709 51.1655 36.896 50.3845 36.115C49.6034 35.3339 49.1285 34.5425 49.3238 34.3472L54.9807 28.6904" stroke="black" stroke-linecap="round" stroke-linejoin="round"/>
<path d="M10.433 67.5813L10.0794 67.2278L10.433 67.5813ZM18.9182 76.0666L18.5647 75.7131L18.9182 76.0666ZM9.37137 74.2979L8.90775 74.4851L9.37137 74.2979ZM10.433 76.0666L10.0795 76.4202L10.433 76.0666ZM12.2007 77.1273L12.0135 77.5909L12.0135 77.5909L12.2007 77.1273ZM44.0205 33.2867C44.2158 33.0914 44.5324 33.0914 44.7276 33.2867C44.9229 33.4819 44.9229 33.7985 44.7276 33.9938L44.0205 33.2867ZM52.5058 41.7719C52.7011 41.5767 53.0177 41.5767 53.2129 41.7719C53.4082 41.9672 53.4082 42.2838 53.2129 42.479L52.5058 41.7719ZM10.7865 67.9349C10.8104 67.911 10.7951 67.9077 10.7836 67.9775C10.7723 68.0462 10.7704 68.1554 10.793 68.3107C10.8383 68.6211 10.9706 69.0418 11.2022 69.5399C11.6634 70.5316 12.482 71.7517 13.6149 72.8846L12.9078 73.5917C11.6976 72.3815 10.8092 71.0661 10.2955 69.9616C10.0397 69.4116 9.86754 68.894 9.80351 68.455C9.7715 68.2355 9.76371 68.0172 9.79681 67.8155C9.82976 67.6148 9.9091 67.3981 10.0794 67.2278L10.7865 67.9349ZM13.6149 72.8846C14.7479 74.0176 15.968 74.8362 16.9597 75.2974C17.4577 75.529 17.8785 75.6613 18.1889 75.7065C18.3442 75.7292 18.4533 75.7273 18.5221 75.716C18.5919 75.7045 18.5886 75.6892 18.5647 75.7131L19.2718 76.4202C19.1015 76.5905 18.8848 76.6698 18.6841 76.7028C18.4824 76.7359 18.2641 76.7281 18.0446 76.6961C17.6055 76.632 17.088 76.4599 16.538 76.2041C15.4334 75.6904 14.118 74.8019 12.9078 73.5917L13.6149 72.8846ZM9.83499 74.1107C10.1329 74.8483 10.2926 75.2193 10.7865 75.713L10.0795 76.4202C9.43392 75.7749 9.2132 75.2415 8.90775 74.4851L9.83499 74.1107ZM10.7865 75.713C11.2801 76.2064 11.6508 76.3659 12.388 76.6637L12.0135 77.5909C11.2577 77.2857 10.7246 77.0652 10.0795 76.4202L10.7865 75.713ZM44.7276 33.9938L10.7865 67.9349L10.0794 67.2278L44.0205 33.2867L44.7276 33.9938ZM53.2129 42.479L19.2718 76.4202L18.5647 75.7131L52.5058 41.7719L53.2129 42.479ZM12.388 76.6637C14.7022 77.5983 17.0362 77.2416 18.5647 75.7131L19.2718 76.4202C17.4062 78.2857 14.6245 78.6453 12.0135 77.5909L12.388 76.6637ZM8.90775 74.4851C7.85337 71.8743 8.21394 69.0932 10.0794 67.2278L10.7865 67.9349C9.25788 69.4635 8.90058 71.7969 9.83499 74.1107L8.90775 74.4851Z" fill="black"/>
<path d="M47.5 65C47.1 64.6 46 64.8333 45.5 65C46.6667 63.8334 49.1422 61.679 49.5 61.5001C50.5 61 53.5 60 70.5 60C87.5 60 90.1844 60.1229 91.5 61C93 62 90.3333 63.6667 90 65V111C90 118.5 80.5 118 80.5 118C80.5 118 66.5 118.5 60.5 118C54 117.458 51.5 115 51.5 111V70.0001C51.5 69.5001 48 65.5 47.5 65Z" fill="white"/>
<path d="M53.5 109.051C53.5002 97.2521 53.5 88.8883 53.5001 87.096C57.5325 87.0958 81.7273 87.096 88 87.096V109.051C88 113.979 82.981 114.063 79.487 114.427C74 115 66.9416 114.875 61.5649 114.427C55.7403 113.942 53.4999 112.5 53.5 109.051Z" fill="#E0E0E0"/>
<path d="M88 79.5V89.5C88 89.5 84.0157 91.7209 80 92C73.1962 92.4728 68.6272 88.7955 63 88.0001C56.9395 87.1434 53.5 89.5 53.5 89.5V79.5C53.5 79.5 56.9395 77.1434 63 78.0001C68.6272 78.7955 73.5 77.9999 80 77.0001C83.9786 76.3882 88 79.5 88 79.5Z" fill="#9E9E9E"/>
<circle cx="60" cy="104" r="1" fill="white"/>
<circle cx="68" cy="100" r="1" fill="white"/>
<circle cx="81" cy="105" r="1" fill="white"/>
<circle cx="57" cy="94" r="1" fill="white"/>
<circle cx="80" cy="98" r="2" fill="#9E9E9E"/>
<circle cx="71" cy="108" r="2" fill="#9E9E9E"/>
<circle cx="64" cy="94" r="2" fill="#9E9E9E"/>
<path d="M82 111.5V64H84.5C84.6667 79.3333 84.9 108.3 84.5 109.5C84.1 110.7 82.6667 111.333 82 111.5Z" fill="#F5F5F5"/>
<path d="M54 63.9999L52 69.4999C50.6667 68.3332 47 65.1999 47 63.9999C49.5 64.5 52 63.6666 54 63.9999Z" fill="#E6E6E6"/>
<path d="M47.5 65C47.1 64.6 46 64.8333 45.5 65C46.6667 63.8334 49.1422 61.679 49.5 61.5001C50.5 61 53.5 60 70.5 60C87.5 60 90.1844 60.1229 91.5 61C93 62 90.3333 63.6667 90 65V111.25C90 116.75 86 117.25 84 117.75C82 118.25 75.6403 118.5 70.75 118.5C65.8597 118.5 60.5 118.5 57.5 117.75C55.5 117.25 51.5 117 51.5 111.25V70.0001C51.5 69.5001 48 65.5 47.5 65Z" stroke="black" stroke-linecap="round" stroke-linejoin="round"/>
<path d="M47.5 64C47.5 64 50.7909 62.2239 53 62.5C61 63.5 84.5 63 90.5 62" stroke="black" stroke-linecap="round" stroke-linejoin="round"/>
<path d="M53.5 79.5V109.281C53.5 112.5 55.2979 114.298 61.2723 114.796C66.7872 115.255 76.5 115 79.6553 114.796C83.5533 114.544 88 114.336 88 109.281V79.5M53.5 79.5V89.4991C53.5 89.4991 58.4245 87.1805 63.8462 88.0234C68.8802 88.806 72.9676 92.4241 79.0541 91.9589C82.6466 91.6843 88 89.4991 88 89.4991V79.5M53.5 79.5C53.5 79.5 58.4245 77.3416 63.8462 78.1845M88 79.5C88 79.5 82.6466 81.8454 79.0541 82.12C72.9676 82.5852 68.8802 78.9671 63.8462 78.1845M88 79.5C86.6667 78.6133 83 77 79 77C74 77 75.1924 78.869 63.8462 78.1845" stroke="black" stroke-linecap="round" stroke-linejoin="round"/>
<circle cx="57" cy="94" r="1.5" stroke="black"/>
<circle cx="68" cy="100" r="1.5" stroke="black"/>
<circle cx="60" cy="104" r="1.5" stroke="black"/>
<circle cx="81" cy="105" r="1.5" stroke="black"/>
<circle cx="64" cy="94" r="2.5" stroke="black"/>
<circle cx="71" cy="108" r="2.5" stroke="black"/>
<circle cx="80" cy="98" r="2.5" stroke="black"/>
</svg>
