<svg width="120" height="120" viewBox="0 0 120 120" fill="none" xmlns="http://www.w3.org/2000/svg">
<path d="M29.9995 20.625C29.147 20.8333 27.6125 21.5 28.2945 22.5" stroke="white" stroke-width="2"/>
<path d="M61.875 84.375C63.4929 86.6776 73.6769 97.2039 71.2496 106.875" stroke="white" stroke-width="2" stroke-linecap="round" stroke-linejoin="round"/>
<path d="M91.8747 73.125C90.9371 76.875 91.8747 89.625 91.8747 93.75" stroke="white" stroke-width="2" stroke-linecap="round" stroke-linejoin="round"/>
<path d="M41.2495 112.5C42.2912 102.764 53.6106 92.0913 58.1245 88.125C62.812 83.4375 63.5821 80.7812 74.9995 78.75C84.1334 77.125 104.341 68.75 114.375 64.6875" stroke="white" stroke-width="2" stroke-linecap="round" stroke-linejoin="round"/>
<path d="M56.2495 88.1249C52.0828 86.1446 43.3328 84.2166 31.8745 87.1875" stroke="white" stroke-width="2" stroke-linecap="round" stroke-linejoin="round"/>
<path d="M71.2495 78.75C66.8745 75.0001 53.9418 68.3525 46.8745 69.375" stroke="white" stroke-width="2" stroke-linecap="round" stroke-linejoin="round"/>
<path d="M101.25 69.3749C96.8485 65.3892 85.8589 55.163 78.7495 56.2498" stroke="white" stroke-width="2" stroke-linecap="round" stroke-linejoin="round"/>
<path d="M46.8753 60C17.8125 62.5 5 44 5.62508 32.8125C4.68715 30 12.9998 24 19.4999 22.5L18.5 25.5C15.6875 26.75 9.93784 30.5625 12.1878 32.8125C15.0003 35.625 26.2503 39.375 46.8753 38.4375C63.3753 37.6875 73.3747 32.5 76.4997 30L74.0625 26.25L73.4997 22.5C75.9997 22.8125 82.5004 24.375 82.5004 28.125C82.5004 32.8125 81.4997 57.0216 46.8753 60Z" fill="#F5F5F5"/>
<path d="M19.8371 20.4167L18.7496 22.5V25.3125C17.1871 25.9375 13.6871 27.9375 12.1871 30.9375C10.3121 34.6875 28.5371 39.375 45.9371 38.4375C63.3371 37.5 78.375 30.4375 76.5 29.5C75 28.75 73.4371 23.9931 73.1246 21.4583L70.9496 20.4167L67.6871 17.2917L64.4246 16.25L62.2496 14.1667L59.6668 10H56.8121L55.7246 7.91667L51.3746 4.79167L45.9371 3.75H40.4996H35.0621L31.7996 5.83333L28.5371 8.95833L26.3621 10L24.1871 13.125L20.9246 14.1667L19.8371 17.2917V20.4167Z" fill="#E6E6E6"/>
<path d="M60.6018 98.3623C58.5174 93.5107 63.6417 93.1065 65.813 93.5107C68.4187 88.6591 72.1639 89.8719 73.6298 91.0849C85.3553 100.788 73.6296 109.278 71.024 110.491C68.4185 111.704 63.2074 104.427 60.6018 98.3623Z" fill="#E6E6E6"/>
<path d="M97.1374 89.2842C98.9916 78.7919 93.2747 78.7919 90.1845 80.1035C90.1845 78.792 85.5492 73.5457 83.2315 80.1035C81.3774 85.3497 83.2312 93.0313 86.708 95.8418C89.4119 98.0277 95.2833 99.7765 97.1374 89.2842Z" fill="#E6E6E6"/>
<path d="M45.9937 99.7561C47.0422 98.7191 48.7495 97.6077 48.7495 100.009C48.7495 103.257 41.7495 116.25 38.7495 116.25C35.7495 116.25 33.7495 110.836 33.7495 107.588C33.7495 104.34 37.7495 95.6776 42.7495 97.8431C45.1795 98.8955 45.8872 99.4685 45.9937 99.7561Z" fill="#E6E6E6"/>
<path d="M28.8715 89.0879C37.9869 91.2673 47.517 89.0879 50.6245 87.2717C45.4452 83.6393 42.3376 81.8234 35.087 82.7314C31.3091 83.2045 21.6206 87.3544 28.8715 89.0879Z" fill="#E6E6E6"/>
<path d="M43.4721 71.1909C45.0832 72.9582 56.5625 77.818 65.6245 76.7135C65.6245 75.609 64.618 67.8774 56.5625 64.5638C48.5069 61.2503 41.4582 68.9819 43.4721 71.1909Z" fill="#E6E6E6"/>
<path d="M75.2998 57.4395C76.8454 59.0579 86.8921 66.5429 95.5859 65.5314C95.5859 64.5199 96.552 54.4048 88.8238 51.3703C81.0957 48.3358 73.3677 55.4165 75.2998 57.4395Z" fill="#E6E6E6"/>
<path d="M58.125 30C58.5417 28.295 59.875 25.2259 61.875 26.5899" stroke="black" stroke-linecap="round"/>
<path d="M46.875 28.125C47.8125 27.0081 50.25 25.2211 52.5 27.0081" stroke="black" stroke-linecap="round"/>
<path d="M56.25 16.875C57.8342 16.875 60.7649 17.625 59.8144 20.625" stroke="black" stroke-linecap="round"/>
<path d="M45 13.125C43.5938 11.7101 40.5 9.72919 39.375 13.125" stroke="black" stroke-linecap="round"/>
<path d="M5.625 31.875C5.625 50.9902 24.8575 60.4607 43.6637 59.9838C62.8712 59.4966 82.5 50.4261 82.5 28.125" stroke="black" stroke-linecap="round" stroke-linejoin="round"/>
<path d="M13.9353 33.633C8.85713 31.204 14.6407 27.2231 18.1672 25.5363L20.2832 22.5C13.9355 24.5242 2.29787 29.5847 6.52972 33.633C11.8195 38.6935 26.631 42.7419 50.9642 40.7177C67.8919 39.3095 76.3553 34.6451 81.6454 29.5847C85.1352 26.2464 77.0606 22.8374 73.1814 22.5L74.2393 25.5363C74.592 26.5484 75.5089 28.775 76.3553 29.5847C77.4132 30.5967 68.9495 35.6572 50.9642 37.6814C32.9788 39.7056 20.2831 36.6693 13.9353 33.633Z" stroke="black" stroke-linecap="round" stroke-linejoin="round"/>
<path d="M18.75 22.5L19.8375 20.4167V17.2917L20.925 14.1667L24.1875 13.125L26.3625 10L28.5375 8.95833L31.8 5.83333L35.0625 3.75H40.5H45.9375L51.375 4.79167L55.725 7.91667L56.8125 10H59.6672L62.25 14.1667L64.425 16.25L67.6875 17.2917L70.95 20.4167L74 22.5" stroke="black" stroke-linecap="round" stroke-linejoin="round"/>
<path d="M28.125 20.625C27.2725 20.8333 25.7379 21.5 26.42 22.5" stroke="black" stroke-linecap="round" stroke-linejoin="round"/>
<path d="M60 84.375C61.6179 86.6776 73.3479 100.954 70.9206 110.625" stroke="black" stroke-linecap="round" stroke-linejoin="round"/>
<path d="M60.6023 98.3623C58.5179 93.5108 63.6422 93.1065 65.8135 93.5108C68.4192 88.6591 72.1644 89.8719 73.6303 91.0849C85.3558 100.788 73.6301 109.278 71.0245 110.491C68.419 111.704 63.2079 104.427 60.6023 98.3623Z" stroke="black" stroke-linecap="round" stroke-linejoin="round"/>
<path d="M90.1702 73.125C89.3176 77.1875 89.488 92.625 90.17 97.5" stroke="black" stroke-linecap="round" stroke-linejoin="round"/>
<path d="M97.1379 89.2842C98.992 78.7919 93.2751 78.7919 90.1849 80.1035C90.1849 78.792 85.5496 73.5457 83.232 80.1035C81.3778 85.3497 83.2316 93.0313 86.7084 95.8418C89.4124 98.0277 95.2837 99.7765 97.1379 89.2842Z" stroke="black" stroke-linecap="round" stroke-linejoin="round"/>
<path d="M56.25 88.125C51.7361 92.0913 38.5417 106.514 37.5 116.25" stroke="black" stroke-linecap="round" stroke-linejoin="round"/>
<path d="M48.75 100.009C48.75 97.4102 45.75 98.7098 45.75 100.009C45.75 98.5 44.5 97.5 42.5 97.5C37.0512 97.5 33.75 104.34 33.75 107.588C33.75 110.836 35.75 116.25 38.75 116.25C41.75 116.25 48.75 103.257 48.75 100.009Z" stroke="black" stroke-linecap="round" stroke-linejoin="round"/>
<path d="M114.375 63.75C104.342 67.8125 81.9911 76.3438 72.8571 77.9688C61.4397 80 60.4018 85.0781 56.25 88.125" stroke="black" stroke-linecap="round" stroke-linejoin="round"/>
<path d="M55.5 88.4999C50 85 37.7083 85.1542 26.25 88.125" stroke="black" stroke-linecap="round" stroke-linejoin="round"/>
<path d="M28.872 89.0879C37.9873 91.2673 47.5175 89.0879 50.625 87.2717C45.4457 83.6393 42.3381 81.8234 35.0875 82.7314C31.3096 83.2045 21.6211 87.3544 28.872 89.0879Z" stroke="black" stroke-linecap="round" stroke-linejoin="round"/>
<path d="M69.375 78.75C65 75.0001 50.1923 68.4597 43.125 69.4822" stroke="black" stroke-linecap="round" stroke-linejoin="round"/>
<path d="M99.375 69.375C94.974 65.3893 82.1094 55.2442 75 56.331" stroke="black" stroke-linecap="round" stroke-linejoin="round"/>
<path d="M43.4726 71.1909C45.0837 72.9581 56.5629 77.818 65.625 76.7135C65.625 75.609 64.6185 67.8774 56.5629 64.5638C48.5074 61.2503 41.4587 68.9819 43.4726 71.1909Z" stroke="black" stroke-linecap="round" stroke-linejoin="round"/>
<path d="M75.3003 57.4395C76.8459 59.0579 86.8926 66.5429 95.5863 65.5314C95.5863 64.5199 96.5525 54.4048 88.8243 51.3703C81.0961 48.3358 73.3682 55.4165 75.3003 57.4395Z" stroke="black" stroke-linecap="round" stroke-linejoin="round"/>
</svg>
