<svg width="120" height="120" viewBox="0 0 120 120" fill="none" xmlns="http://www.w3.org/2000/svg">
<path d="M28.8435 29.7804C36.1659 22.4581 40.6178 15.0382 38.7872 13.2076C37.1837 11.604 31.2912 14.8213 24.9324 20.5659L19.6291 25.8692C13.8845 32.228 10.6672 38.1205 12.2707 39.7241C14.1013 41.5547 21.5212 37.1027 28.8435 29.7804Z" fill="#F5F5F5"/>
<ellipse cx="11.9392" cy="12.8761" rx="9.375" ry="2.34375" transform="rotate(-45 11.9392 12.8761)" fill="#F5F5F5"/>
<path d="M109.719 110.656C111.183 109.191 111.411 107.044 111.045 106.678L102.427 98.0602C101.764 99.607 99.7752 102.833 97.1235 103.364L105.741 111.981C106.108 112.348 108.254 112.12 109.719 110.656Z" fill="#E0E0E0"/>
<path d="M25.5288 26.4658C24.0644 27.9302 22.5804 28.8206 22.2143 28.4545L11 17L16.3033 11.6967L27.5176 23.1512C27.8837 23.5173 26.9933 25.0013 25.5288 26.4658Z" fill="#E0E0E0"/>
<path d="M102.429 98.0585C101.863 99.4591 101.506 100.307 100.438 101.375C99.3705 102.442 98.5232 102.798 97.1235 103.364C92.5061 105.228 87.7101 104.557 84.5282 101.375L20.5 37C20.5 37 30.5 29.5 36.5 20.5C47.0001 31.4999 100.438 85.4649 100.438 85.4649C103.62 88.6469 104.293 93.4416 102.429 98.0585Z" fill="#F5F5F5"/>
<path d="M85.1907 102.038L80.5503 97.3975C82.3181 96.5136 86.6491 93.9503 89.8311 90.7683C93.013 87.5864 95.5763 83.2553 96.4602 81.4876L101.101 86.1279C100.88 87.6747 99.377 91.829 95.1344 96.0716C90.8917 100.314 86.7375 101.817 85.1907 102.038Z" fill="#9E9E9E"/>
<path d="M93.809 82.8132C92.7484 84.9345 91.5993 86.3487 91.1574 86.7906C87.18 82.813 38.7866 34.4212 33.484 29.1172C34.5446 28.0566 35.4727 26.2446 36.1356 25.1398L93.809 82.8132Z" fill="#E0E0E0"/>
<path d="M22.8769 34.4208L24.2027 27.7917L28.1802 23.8142L24.8656 20.4996L32.8205 15.1963C35.4722 12.5447 40.1126 11.8818 38.1238 16.5222C35.0821 23.6195 27.0753 31.5482 22.8769 34.4208Z" fill="#E0E0E0"/>
<path d="M95.7976 80.8247C96.8959 81.9231 94.2248 86.375 89.8314 90.7684C85.438 95.1618 80.986 97.833 79.8877 96.7346" stroke="black" stroke-linecap="round" stroke-linejoin="round"/>
<path d="M85.1908 70.2181C86.2891 71.3165 83.618 75.7684 79.2246 80.1618" stroke="black" stroke-linecap="round" stroke-linejoin="round"/>
<path d="M77.8988 62.9259C78.9972 64.0243 76.326 68.4762 71.9326 72.8696" stroke="black" stroke-linecap="round" stroke-linejoin="round"/>
<path d="M70.6068 55.6339C71.7052 56.7323 69.034 61.1842 64.6406 65.5776" stroke="black" stroke-linecap="round" stroke-linejoin="round"/>
<path d="M63.3148 48.3419C64.4132 49.4403 61.742 53.8922 57.3486 58.2856" stroke="black" stroke-linecap="round" stroke-linejoin="round"/>
<path d="M56.0228 41.0499C57.1212 42.1483 54.45 46.6002 50.0566 50.9936" stroke="black" stroke-linecap="round" stroke-linejoin="round"/>
<path d="M48.7303 33.7579C49.8287 34.8563 47.1575 39.3082 42.7641 43.7016" stroke="black" stroke-linecap="round" stroke-linejoin="round"/>
<path d="M41.4383 26.4657C42.5367 27.5641 39.8655 32.016 35.4721 36.4094" stroke="black" stroke-linecap="round" stroke-linejoin="round"/>
<path d="M19.6291 25.8692C13.8845 32.228 10.6672 38.1205 12.2707 39.7241C14.1013 41.5547 21.5212 37.1027 28.8435 29.7804C36.1659 22.4581 40.6178 15.0382 38.7872 13.2076C37.1837 11.604 31.2912 14.8213 24.9324 20.5659" stroke="black" stroke-linecap="round" stroke-linejoin="round"/>
<ellipse cx="11.9392" cy="12.8761" rx="9.375" ry="2.34375" transform="rotate(-45 11.9392 12.8761)" stroke="black" stroke-linecap="round" stroke-linejoin="round"/>
<path d="M97.1235 103.364L105.741 111.981C106.108 112.348 108.254 112.12 109.719 110.656C111.183 109.191 111.411 107.044 111.045 106.678L102.427 98.0602" stroke="black" stroke-linecap="round" stroke-linejoin="round"/>
<path d="M10.9424 17.1829L22.175 28.4155C22.5627 28.8032 24.0642 27.9304 25.5287 26.4659C26.9932 25.0014 27.866 23.4999 27.4783 23.1122L16.2457 11.8796" stroke="black" stroke-linecap="round" stroke-linejoin="round"/>
<path d="M100.438 85.4649L100.084 85.8175L100.085 85.8185L100.438 85.4649ZM84.5282 101.375L84.1737 101.727L84.1746 101.728L84.5282 101.375ZM102.429 98.0585L102.892 98.2458L102.429 98.0585ZM100.438 101.375L100.792 101.728L100.438 101.375ZM97.1235 103.364L97.3107 103.827L97.3107 103.827L97.1235 103.364ZM36.7644 20.7375C36.5697 20.5417 36.2531 20.5409 36.0573 20.7356C35.8615 20.9303 35.8607 21.2469 36.0554 21.4427L36.7644 20.7375ZM20.8545 36.6474C20.6598 36.4516 20.3432 36.4508 20.1474 36.6455C19.9516 36.8402 19.9508 37.1568 20.1455 37.3526L20.8545 36.6474ZM100.085 85.8185C100.125 85.8587 100.181 85.9488 100.212 86.1368C100.243 86.3239 100.242 86.5764 100.196 86.8956C100.103 87.5339 99.8373 88.3651 99.3924 89.3217C98.5048 91.2305 96.9393 93.5599 94.7812 95.718L95.4883 96.4251C97.7236 94.1898 99.359 91.7651 100.299 89.7434C100.768 88.7349 101.074 87.8069 101.185 87.0399C101.241 86.6565 101.252 86.2949 101.199 85.9748C101.147 85.6558 101.026 85.3458 100.792 85.1114L100.085 85.8185ZM94.7812 95.718C92.6231 97.8761 90.2937 99.4415 88.385 100.329C87.4284 100.774 86.5971 101.04 85.9588 101.133C85.6396 101.179 85.3872 101.18 85.2 101.149C85.012 101.118 84.9219 101.061 84.8817 101.021L84.1746 101.728C84.409 101.963 84.719 102.084 85.0381 102.136C85.3581 102.188 85.7197 102.178 86.1031 102.122C86.8701 102.01 87.7981 101.705 88.8067 101.236C90.8283 100.296 93.253 98.6604 95.4883 96.4251L94.7812 95.718ZM101.965 97.8713C101.403 99.2625 101.077 100.029 100.085 101.021L100.792 101.728C101.936 100.585 102.323 99.6557 102.892 98.2458L101.965 97.8713ZM100.085 101.021C99.0928 102.013 98.3266 102.338 96.9363 102.9L97.3107 103.827C98.7198 103.258 99.6482 102.871 100.792 101.728L100.085 101.021ZM36.0554 21.4427L100.084 85.8175L100.793 85.1123L36.7644 20.7375L36.0554 21.4427ZM20.1455 37.3526L84.1737 101.727L84.8827 101.022L20.8545 36.6474L20.1455 37.3526ZM96.9363 102.9C92.4672 104.705 87.8952 104.035 84.8817 101.021L84.1746 101.728C87.5251 105.079 92.545 105.752 97.3107 103.827L96.9363 102.9ZM102.892 98.2458C104.817 93.4803 104.142 88.4618 100.792 85.1114L100.085 85.8185C103.098 88.8321 103.769 93.4029 101.965 97.8713L102.892 98.2458Z" fill="black"/>
</svg>
