<svg width="120" height="120" viewBox="0 0 120 120" fill="none" xmlns="http://www.w3.org/2000/svg">
<path d="M60 116.25C72.4264 116.25 81.5625 113.438 82.5 109.688C83.9062 104.062 84.375 99.375 84.375 96.5625V59.0625C82.8125 48.75 78.9375 27.1875 72.1875 27.1875C60.9375 30.9375 51.25 28.75 47.8125 27.1875C41.0625 27.1875 37.1875 48.75 35.625 59.0625V96.5625C35.625 99.375 36.5625 105 37.5 109.688C38.1288 112.831 47.5736 116.25 60 116.25Z" fill="#9E9E9E"/>
<path d="M40.3121 109.688C41.0621 111.188 48.1246 112.813 51.5621 113.438C47.8118 101.438 50.6248 54.6876 52.5001 32.8125C46.8746 30.9377 48.7501 31.8748 46.8746 30.9375C33.7496 60 39.3746 107.813 40.3121 109.688Z" fill="white"/>
<path d="M60.9375 65.625C45.1875 66.375 37.5 62.1875 35.625 60V97.5C38.125 99.6875 46.6875 103.125 60.9375 103.125C75.1875 103.125 82.5 99.375 84.375 97.5V60C83.125 61.5625 76.6875 64.875 60.9375 65.625Z" fill="#F5F5F5"/>
<path d="M73.125 26.2501C62.625 31.5001 51.25 28.4376 46.875 26.2501C47.8125 19.6875 47.8125 13.1249 48.75 7.50013C57.1875 2.81244 66.875 5.00013 71.25 7.50013C72.1875 11.2501 72.1875 18.75 73.125 26.2501Z" fill="#F5F5F5"/>
<ellipse cx="60.2141" cy="7.67298" rx="11.2141" ry="3.01917" stroke="black"/>
<path d="M73.125 26.25C73.125 27.2855 67.2487 29.5 60 29.5C52.7513 29.5 46.875 27.2855 46.875 26.25" stroke="black" stroke-linecap="round" stroke-linejoin="round"/>
<path d="M84.375 59.0625C84.375 62.6869 73.4619 65.625 60 65.625C46.5381 65.625 35.625 62.6869 35.625 59.0625" stroke="black" stroke-linecap="round" stroke-linejoin="round"/>
<path d="M84.375 96.5625C84.375 100.187 73.4619 103.125 60 103.125C46.5381 103.125 35.625 100.187 35.625 96.5625" stroke="black" stroke-linecap="round" stroke-linejoin="round"/>
<path d="M47.8125 27.1875C41.0625 27.1875 37.1875 48.75 35.625 59.0625V96.5625C35.625 99.375 36.5625 105 37.5 109.688C38.1288 112.831 47.5736 116.25 60 116.25C72.4264 116.25 81.5625 113.438 82.5 109.688C83.9062 104.062 84.375 99.375 84.375 96.5625V59.0625C82.8125 48.75 78.9375 27.1875 72.1875 27.1875" stroke="black" stroke-linecap="round" stroke-linejoin="round"/>
<path d="M49 8L46.875 26.25" stroke="black" stroke-linecap="round" stroke-linejoin="round"/>
<path d="M71.5 8L73.125 26.25" stroke="black" stroke-linecap="round" stroke-linejoin="round"/>
<path d="M60 25.3125V13.125" stroke="black" stroke-linecap="round" stroke-linejoin="round"/>
<path d="M53.844 25.2891L54.9062 13.1479" stroke="black" stroke-linecap="round" stroke-linejoin="round"/>
<path d="M66.156 25.2896L65.0938 13.1484" stroke="black" stroke-linecap="round" stroke-linejoin="round"/>
</svg>
