<svg width="120" height="120" viewBox="0 0 120 120" fill="none" xmlns="http://www.w3.org/2000/svg">
<path d="M70.3125 45.9375C71.25 48.75 71.25 51.875 71.25 51.875C71.25 52.9105 66.2132 55.5 60 55.5C53.7868 55.5 48.75 52.9105 48.75 51.875C48.75 51.875 48.7501 48.75 49.6874 45.9375C52.1874 46.25 57.75 47.5 60 47.5C62.25 47.5 67.8125 46.25 70.3125 45.9375Z" fill="#E0E0E0"/>
<path d="M45 54.375V67.9167C45 70.7931 51.7157 74 60 74C68.2843 74 75 70.7931 75 67.9167V54.375C73.125 56.25 66.0381 58.125 60 58.125C53.9619 58.125 46.5625 55.9375 45 54.375Z" fill="#F5F5F5"/>
<path d="M48.75 39.375V44.7917C48.75 45.9423 53.7868 48 60 48C66.2132 48 71.25 45.9423 71.25 44.7917V39.375H48.75Z" fill="#F5F5F5"/>
<path d="M60 59C68.2843 59 75 56.0263 75 53.4375C74.9973 52.5 73.1168 51.5625 71.2418 51.5625C71.2418 52.5 68.9934 55.5 60 55.5C51.0066 55.5 48.7473 52.5 48.7418 51.5625C45.7418 51.5625 44.9973 52.8125 45 53.4375C45 56.0263 51.7157 59 60 59Z" fill="#E6E6E6"/>
<path d="M60.0075 119.062C68.2918 119.062 75.0075 116.964 75.0075 114.375V77.7371C75.0075 71.3998 69.5 73 69.5 73C69.5 73 63.9168 74.0786 60.0075 73.9999C57.2993 73.9454 53.3126 73.9378 50.5 73.0001C47.6874 72.0624 44.7167 75.7566 45.029 77.7371V114.375C45.029 116.964 51.7233 119.062 60.0075 119.062Z" fill="#9E9E9E"/>
<path d="M47.8125 80.625C47.8125 77.8125 47.8125 75.9375 49.6875 75L53.4375 75.9373C53.75 88.7498 53.4375 112.5 53.4375 115.312C49.6877 115.312 48.7501 114.375 47.8126 113.437L47.8125 113.437V80.625Z" fill="white"/>
<path d="M52.5 35.625H67.5L63.8488 2.76457C63.7926 2.25814 63.3645 1.875 62.855 1.875H57.145C56.6355 1.875 56.2074 2.25814 56.1512 2.76457L52.5 35.625Z" fill="white"/>
<path d="M60 110.625C68.2843 110.625 75 108.526 75 105.938V79.6875C75 82.2763 68.2843 84.375 60 84.375C51.7157 84.375 45 82.2763 45 79.6875V105.938C45 108.526 51.7157 110.625 60 110.625Z" fill="#F5F5F5"/>
<path d="M70.3125 45.9375C71.25 48.75 71.25 51.875 71.25 51.875C71.25 52.9105 66.2132 55.3125 60 55.3125C53.7868 55.3125 48.75 52.9105 48.75 51.875C48.75 51.875 48.7501 48.75 49.6874 45.9375" stroke="black" stroke-linecap="round" stroke-linejoin="round"/>
<path d="M45 53.5V67.9167C45 70.7932 51.7157 74.0625 60 74.0625C68.2843 74.0625 75 70.7932 75 67.9167V53.5" stroke="black" stroke-linecap="round" stroke-linejoin="round"/>
<path d="M48.75 39.375V44.7917C48.75 45.9423 53.7868 47.8125 60 47.8125C66.2132 47.8125 71.25 45.9423 71.25 44.7917V39.375" stroke="black" stroke-linecap="round" stroke-linejoin="round"/>
<path d="M71.2418 51.5625C73.1168 51.5625 74.9973 52.5 75 53.4375C75 56.0263 68.2843 59.0625 60 59.0625C51.7157 59.0625 45 56.0263 45 53.4375C44.9973 52.8125 45.7418 51.5625 48.7418 51.5625" stroke="black" stroke-linecap="round" stroke-linejoin="round"/>
<path d="M75.5002 105.937C75.5002 105.661 75.2764 105.437 75.0002 105.437C74.7241 105.437 74.5002 105.661 74.5002 105.937H75.5002ZM45.5293 105.937C45.5293 105.661 45.3054 105.437 45.0293 105.437C44.7532 105.437 44.5293 105.661 44.5293 105.937H45.5293ZM75.5002 79.6874C75.5002 79.4112 75.2764 79.1874 75.0002 79.1874C74.7241 79.1874 74.5002 79.4112 74.5002 79.6874H75.5002ZM45.5293 79.6874C45.5293 79.4112 45.3054 79.1874 45.0293 79.1874C44.7532 79.1874 44.5293 79.4112 44.5293 79.6874H45.5293ZM45.0293 77.7371H45.5293V77.737L45.0293 77.7371ZM69.3751 73.1251L69.4665 73.6166L69.4944 73.6114L69.5216 73.6031L69.3751 73.1251ZM60.0001 74.0626L60.0102 73.5627L60.0001 74.0626ZM74.5002 105.937C74.5002 106.351 74.2307 106.838 73.5243 107.36C72.8277 107.875 71.7878 108.359 70.4577 108.775C67.8036 109.604 64.1062 110.125 60.0002 110.125V111.125C64.1786 111.125 67.9812 110.596 70.756 109.729C72.1404 109.297 73.2971 108.771 74.1186 108.164C74.9303 107.564 75.5002 106.818 75.5002 105.937H74.5002ZM60.0002 110.125C55.9106 110.125 52.2234 109.43 49.5718 108.512C48.2435 108.052 47.1951 107.543 46.4895 107.051C46.1363 106.804 45.8856 106.574 45.7277 106.37C45.568 106.165 45.5293 106.021 45.5293 105.937H44.5293C44.5293 106.322 44.6996 106.677 44.9378 106.984C45.178 107.293 45.5144 107.59 45.9176 107.871C46.7246 108.434 47.8656 108.979 49.2446 109.457C52.0073 110.413 55.8056 111.125 60.0002 111.125V110.125ZM74.5002 79.6874C74.5002 80.1015 74.2307 80.5879 73.5243 81.1098C72.8277 81.6245 71.7878 82.1091 70.4577 82.5247C67.8036 83.3541 64.1062 83.8749 60.0002 83.8749V84.8749C64.1786 84.8749 67.9812 84.3463 70.756 83.4792C72.1404 83.0466 73.2971 82.521 74.1186 81.9141C74.9303 81.3144 75.5002 80.5677 75.5002 79.6874H74.5002ZM60.0002 83.8749C55.8943 83.8749 52.2043 83.3541 49.5577 82.5248C48.2314 82.1092 47.1952 81.6248 46.5013 81.1103C45.7981 80.5889 45.5293 80.1024 45.5293 79.6874H44.5293C44.5293 80.5668 45.0964 81.3135 45.9057 81.9136C46.7245 82.5207 47.8778 83.0464 49.2587 83.4791C52.0264 84.3463 55.8219 84.8749 60.0002 84.8749V83.8749ZM74.5078 114.375C74.5078 114.789 74.2383 115.276 73.5319 115.798C72.8353 116.312 71.7954 116.797 70.4653 117.212C67.8112 118.042 64.1138 118.562 60.0078 118.562V119.562C64.1861 119.562 67.9888 119.034 70.7636 118.167C72.148 117.734 73.3047 117.209 74.1262 116.602C74.9378 116.002 75.5078 115.256 75.5078 114.375H74.5078ZM60.0078 118.562C55.9019 118.562 52.21 118.042 49.5614 117.212C48.2341 116.797 47.1969 116.312 46.5023 115.798C45.7983 115.276 45.5293 114.79 45.5293 114.375H44.5293C44.5293 115.255 45.0971 116.002 45.9071 116.602C46.7266 117.209 47.8807 117.734 49.2626 118.167C52.0321 119.034 55.8295 119.562 60.0078 119.562V118.562ZM45.5293 114.375V77.7371H44.5293V114.375H45.5293ZM45.5293 77.737C45.5293 77.4004 45.665 76.9124 45.9624 76.3635C46.255 75.8231 46.6846 75.2604 47.2237 74.7766C48.3012 73.8096 49.7699 73.1921 51.4415 73.6099L51.6841 72.6398C49.6056 72.1202 47.8075 72.909 46.5557 74.0324C45.9301 74.5939 45.4294 75.2476 45.083 75.8872C44.7413 76.5183 44.5292 77.1739 44.5293 77.7372L45.5293 77.737ZM69.3751 73.1251C69.5216 73.6031 69.5214 73.6032 69.5212 73.6033C69.5211 73.6033 69.5209 73.6033 69.5209 73.6033C69.5207 73.6034 69.5206 73.6034 69.5207 73.6034C69.5207 73.6034 69.521 73.6033 69.5217 73.6031C69.5231 73.6027 69.5258 73.6019 69.5297 73.6007C69.5376 73.5985 69.5506 73.5948 69.5682 73.5901C69.6035 73.5806 69.6574 73.5668 69.7274 73.551C69.8675 73.5193 70.0702 73.48 70.3142 73.451C70.8069 73.3925 71.4439 73.3792 72.0674 73.5389C72.6831 73.6967 73.2767 74.0201 73.7227 74.6361C74.172 75.2567 74.5078 76.2247 74.5078 77.7371H75.5078C75.5078 76.0809 75.1396 74.888 74.5327 74.0497C73.9226 73.2069 73.108 72.7733 72.3156 72.5702C71.5309 72.3692 70.7598 72.3911 70.1963 72.458C69.9122 72.4917 69.6749 72.5377 69.507 72.5756C69.4229 72.5946 69.3558 72.6117 69.3086 72.6244C69.285 72.6307 69.2663 72.636 69.2529 72.6398C69.2461 72.6418 69.2407 72.6434 69.2367 72.6446C69.2347 72.6452 69.233 72.6457 69.2317 72.6461C69.231 72.6463 69.2304 72.6464 69.2299 72.6466C69.2297 72.6467 69.2294 72.6468 69.2293 72.6468C69.229 72.6469 69.2287 72.647 69.3751 73.1251ZM74.5078 77.7371V114.375H75.5078V77.7371H74.5078ZM51.4415 73.6099C55.2526 74.5627 57.2834 74.508 59.9901 74.5624L60.0102 73.5627C57.3005 73.5081 55.3732 73.5621 51.6841 72.6398L51.4415 73.6099ZM59.9901 74.5624C61.9832 74.6026 64.357 74.3641 66.2189 74.119C67.1527 73.9961 67.9634 73.8707 68.5409 73.776C68.8298 73.7287 69.0605 73.6889 69.2193 73.661C69.2987 73.647 69.3601 73.636 69.4019 73.6284C69.4228 73.6247 69.4388 73.6217 69.4496 73.6197C69.455 73.6188 69.4592 73.618 69.462 73.6175C69.4634 73.6172 69.4645 73.617 69.4653 73.6169C69.4656 73.6168 69.4659 73.6167 69.4661 73.6167C69.4663 73.6167 69.4664 73.6167 69.4664 73.6167C69.4665 73.6166 69.4665 73.6166 69.3751 73.1251C69.2837 72.6335 69.2838 72.6335 69.2838 72.6335C69.2837 72.6335 69.2837 72.6335 69.2836 72.6335C69.2835 72.6335 69.2833 72.6336 69.283 72.6336C69.2825 72.6337 69.2816 72.6339 69.2803 72.6341C69.2779 72.6346 69.2741 72.6353 69.2691 72.6362C69.259 72.638 69.2438 72.6408 69.2237 72.6444C69.1835 72.6517 69.1237 72.6625 69.046 72.6761C68.8907 72.7035 68.6638 72.7425 68.3791 72.7892C67.8096 72.8826 67.0096 73.0063 66.0883 73.1276C64.24 73.3709 61.9263 73.6012 60.0102 73.5627L59.9901 74.5624Z" fill="black"/>
<path d="M71.81 39.375V39.875C71.8709 39.875 71.9312 39.8639 71.9881 39.8422L71.81 39.375ZM71.81 30L71.9881 29.5328C71.9312 29.5111 71.8709 29.5 71.81 29.5V30ZM48.19 30V29.5C48.1291 29.5 48.0688 29.5111 48.0119 29.5328L48.19 30ZM48.19 39.375L48.0119 39.8422C48.0688 39.8639 48.1291 39.875 48.19 39.875V39.375ZM76.375 34.6875C76.375 35.4159 75.9923 36.1655 75.1789 36.9027C74.3654 37.6399 73.1609 38.3251 71.632 38.9078L71.9881 39.8422C73.5848 39.2337 74.9128 38.4933 75.8504 37.6437C76.7881 36.7939 77.375 35.7954 77.375 34.6875H76.375ZM71.632 30.4672C73.1609 31.0499 74.3654 31.7351 75.1789 32.4723C75.9923 33.2095 76.375 33.9591 76.375 34.6875H77.375C77.375 33.5796 76.7881 32.5811 75.8504 31.7313C74.9128 30.8817 73.5848 30.1413 71.9881 29.5328L71.632 30.4672ZM71.81 29.5H48.19V30.5H71.81V29.5ZM43.625 34.6875C43.625 33.9591 44.0077 33.2095 44.8211 32.4723C45.6346 31.7351 46.8391 31.0499 48.368 30.4672L48.0119 29.5328C46.4152 30.1413 45.0872 30.8817 44.1496 31.7313C43.2119 32.5811 42.625 33.5796 42.625 34.6875H43.625ZM48.368 38.9078C46.8391 38.3251 45.6346 37.6399 44.8211 36.9027C44.0077 36.1655 43.625 35.4159 43.625 34.6875H42.625C42.625 35.7954 43.2119 36.7939 44.1496 37.6437C45.0872 38.4933 46.4152 39.2337 48.0119 39.8422L48.368 38.9078ZM48.19 39.875H71.81V38.875H48.19V39.875Z" fill="black"/>
<path fill-rule="evenodd" clip-rule="evenodd" d="M71.81 39.375C74.9357 38.1839 76.875 36.5238 76.875 34.6875C76.875 32.8512 74.9357 31.1911 71.81 30H48.19C45.0643 31.1911 43.125 32.8512 43.125 34.6875C43.125 36.5238 45.0643 38.1839 48.19 39.375H71.81Z" fill="#E0E0E0"/>
<path d="M71.81 39.375V39.875C71.8709 39.875 71.9312 39.8639 71.9881 39.8422L71.81 39.375ZM71.81 30L71.9881 29.5328C71.9312 29.5111 71.8709 29.5 71.81 29.5V30ZM48.19 30V29.5C48.1291 29.5 48.0688 29.5111 48.0119 29.5328L48.19 30ZM48.19 39.375L48.0119 39.8422C48.0688 39.8639 48.1291 39.875 48.19 39.875V39.375ZM76.375 34.6875C76.375 35.4159 75.9923 36.1655 75.1789 36.9027C74.3654 37.6399 73.1609 38.3251 71.632 38.9078L71.9881 39.8422C73.5848 39.2337 74.9128 38.4933 75.8504 37.6437C76.7881 36.7939 77.375 35.7954 77.375 34.6875H76.375ZM71.632 30.4672C73.1609 31.0499 74.3654 31.7351 75.1789 32.4723C75.9923 33.2095 76.375 33.9591 76.375 34.6875H77.375C77.375 33.5796 76.7881 32.5811 75.8504 31.7313C74.9128 30.8817 73.5848 30.1413 71.9881 29.5328L71.632 30.4672ZM71.81 29.5H48.19V30.5H71.81V29.5ZM43.625 34.6875C43.625 33.9591 44.0077 33.2095 44.8211 32.4723C45.6346 31.7351 46.8391 31.0499 48.368 30.4672L48.0119 29.5328C46.4152 30.1413 45.0872 30.8817 44.1496 31.7313C43.2119 32.5811 42.625 33.5796 42.625 34.6875H43.625ZM48.368 38.9078C46.8391 38.3251 45.6346 37.6399 44.8211 36.9027C44.0077 36.1655 43.625 35.4159 43.625 34.6875H42.625C42.625 35.7954 43.2119 36.7939 44.1496 37.6437C45.0872 38.4933 46.4152 39.2337 48.0119 39.8422L48.368 38.9078ZM48.19 39.875H71.81V38.875H48.19V39.875Z" fill="black"/>
<path d="M56.0906 3.57499L52.5 31.8164C52.5 33.8551 55.8579 35.5078 60 35.5078C64.1421 35.5078 67.5 33.8551 67.5 31.8164L63.914 3.56939C63.821 2.6083 63.0133 1.875 62.0477 1.875H57.9574C56.9897 1.875 56.181 2.61148 56.0906 3.57499Z" fill="#F5F5F5" stroke="black" stroke-linecap="round" stroke-linejoin="round"/>
<path d="M54.375 61.875V69.375" stroke="black" stroke-linecap="round" stroke-linejoin="round"/>
<path d="M48.75 60V67.5" stroke="black" stroke-linecap="round" stroke-linejoin="round"/>
<path d="M60 61.875V69.375" stroke="black" stroke-linecap="round" stroke-linejoin="round"/>
<path d="M65.625 61.875V69.375" stroke="black" stroke-linecap="round" stroke-linejoin="round"/>
<path d="M71.25 60V67.5" stroke="black" stroke-linecap="round" stroke-linejoin="round"/>
<ellipse cx="60" cy="2.8125" rx="3.75" ry="1.64062" fill="#E0E0E0" stroke="black" stroke-linecap="round" stroke-linejoin="round"/>
</svg>
