<svg width="120" height="120" viewBox="0 0 120 120" fill="none" xmlns="http://www.w3.org/2000/svg">
<path d="M84.1668 51.6665L110.869 67.0832V97.9165L84.1668 113.333L57.4644 97.9165V67.0832L84.1668 51.6665Z" fill="#F5F5F5" stroke="#E6E6E6" stroke-width="2" stroke-linecap="round" stroke-linejoin="round"/>
<path d="M29.9994 115L55.8332 100.833" stroke="#E6E6E6" stroke-width="2" stroke-linecap="round" stroke-linejoin="round"/>
<path d="M108.333 69.1665L85.0002 55.8332" stroke="#E6E6E6" stroke-width="2" stroke-linecap="round" stroke-linejoin="round"/>
<path d="M80 20.8333L56.6667 7.49992" stroke="#E6E6E6" stroke-width="2" stroke-linecap="round" stroke-linejoin="round"/>
<path d="M61.5762 97.6035L61.7577 70.7299" stroke="#E6E6E6" stroke-width="2" stroke-linecap="round" stroke-linejoin="round"/>
<path d="M33.2432 49.27L33.4247 22.3964" stroke="#E6E6E6" stroke-width="2" stroke-linecap="round" stroke-linejoin="round"/>
<path d="M110 99.1665L86.6667 112.5" stroke="#E6E6E6" stroke-width="2" stroke-linecap="round" stroke-linejoin="round"/>
<path d="M55.8333 3.33325L82.5358 18.7499V49.5833L55.8333 64.9999L29.1309 49.5833V18.7499L55.8333 3.33325Z" fill="#F5F5F5" stroke="#E6E6E6" stroke-width="2" stroke-linecap="round" stroke-linejoin="round"/>
<path d="M31.6611 112.794L31.6611 84.1665" stroke="#E6E6E6" stroke-width="2" stroke-linecap="round" stroke-linejoin="round"/>
<path d="M30.083 115L6.74968 101.667" stroke="#E6E6E6" stroke-width="2" stroke-linecap="round" stroke-linejoin="round"/>
<path d="M84.1665 50L112.312 66.25V98.75L84.1665 115L56.0207 98.75V66.25L84.1665 50Z" stroke="black" stroke-linecap="round" stroke-linejoin="round"/>
<path d="M29.9994 113.334L55.8332 99.1668" stroke="black" stroke-linecap="round" stroke-linejoin="round"/>
<path d="M30.0005 112.795L30.3184 83.3332" stroke="black" stroke-linecap="round" stroke-linejoin="round"/>
<path d="M108.333 67.5L85.0002 54.1667" stroke="black" stroke-linecap="round" stroke-linejoin="round"/>
<path d="M30.0889 113.333L6.75553 100" stroke="black" stroke-linecap="round" stroke-linejoin="round"/>
<path d="M80 19.1667L56.6667 5.83342" stroke="black" stroke-linecap="round" stroke-linejoin="round"/>
<path d="M59.9097 95.937L60.0912 69.0634" stroke="black" stroke-linecap="round" stroke-linejoin="round"/>
<path d="M31.5762 47.6035L31.7577 20.7299" stroke="black" stroke-linecap="round" stroke-linejoin="round"/>
<path d="M108.333 97.5L85.0002 110.833" stroke="black" stroke-linecap="round" stroke-linejoin="round"/>
<path d="M55.8335 1.66675L83.9793 17.9167V50.4168L55.8335 66.6668L27.6877 50.4168V17.9167L55.8335 1.66675Z" stroke="black" stroke-linecap="round" stroke-linejoin="round"/>
</svg>
