<svg width="120" height="120" viewBox="0 0 120 120" fill="none" xmlns="http://www.w3.org/2000/svg">
<path d="M109.506 87.063L74.3157 116.591L3.80997 32.5655L6.01988 16.0253L21.4692 3.06181L39.0001 3.03746L109.506 87.063Z" fill="#9E9E9E"/>
<path d="M81.1423 76.5959L68.2153 87.4429L39.5458 57.6514C34.8019 51.0256 29.648 41.4803 33.0985 32.4659C42.575 30.6332 51.9609 37.4434 56.7818 43.1887L81.1423 76.5959Z" fill="#E0E0E0" fill-opacity="0.5"/>
<path d="M115.636 55.8056L101.076 60.257L88.3465 27.2999C86.8564 20.4974 86.0901 11.2404 92.1992 5.18525C100.65 6.78898 105.886 15.2377 107.76 21.3648L115.636 55.8056Z" fill="white"/>
<path d="M71.2497 80.625L68.4372 83.4375C54.3085 68.927 46.7241 62.1131 42.1874 56.25C35.586 47.7185 33.75 40.3125 34.6872 34.6875L71.2497 80.625Z" fill="#E0E0E0"/>
<path d="M106.875 55.3125L102.188 57.1875C95.6252 38.4375 93.0716 34.2873 90.9374 27.1878C89.0628 17.8125 89.7929 12.4977 92.6836 7.58219L106.875 55.3125Z" fill="#E0E0E0"/>
<path d="M74.0625 111.562L76.875 108.75L7.5 25.3125L6.5625 31.875L74.0625 111.562Z" fill="#E0E0E0"/>
<path d="M109.506 87.063L74.3157 116.591L3.80997 32.5655L6.01988 16.0253L21.4692 3.06181L39.0001 3.03746L109.506 87.063Z" stroke="black" stroke-linecap="round" stroke-linejoin="round"/>
<path d="M81.1423 76.5959L68.2153 87.4429L39.5458 57.6514C34.8019 51.0256 29.648 41.4803 33.0985 32.4659C42.575 30.6332 51.9609 37.4434 56.7818 43.1887L81.1423 76.5959Z" stroke="black" stroke-linecap="round" stroke-linejoin="round"/>
<path d="M115.636 55.8056L101.076 60.257L88.3465 27.2999C86.8564 20.4974 86.0901 11.2404 92.1992 5.18525C100.65 6.78898 105.886 15.2377 107.76 21.3648L115.636 55.8056Z" stroke="black" stroke-linecap="round" stroke-linejoin="round"/>
<path d="M66.9443 101.972L95.671 77.8674" stroke="black" stroke-linecap="round" stroke-linejoin="round"/>
<path d="M63.3281 97.6626L92.0548 73.5581" stroke="black" stroke-linecap="round" stroke-linejoin="round"/>
<path d="M59.7124 93.3538L64.7396 89.1355" stroke="black" stroke-linecap="round" stroke-linejoin="round"/>
<path d="M56.0972 89.0447L61.1243 84.8264" stroke="black" stroke-linecap="round" stroke-linejoin="round"/>
<path d="M52.4814 84.7358L56.7904 81.1202" stroke="black" stroke-linecap="round" stroke-linejoin="round"/>
<path d="M48.8652 80.4268L53.1742 76.8111" stroke="black" stroke-linecap="round" stroke-linejoin="round"/>
<path d="M45.25 76.1177L49.559 72.502" stroke="black" stroke-linecap="round" stroke-linejoin="round"/>
<path d="M41.6343 71.8086L45.2251 68.7955" stroke="black" stroke-linecap="round" stroke-linejoin="round"/>
<path d="M38.0186 67.4998L41.6094 64.4867" stroke="black" stroke-linecap="round" stroke-linejoin="round"/>
<path d="M34.4028 63.1907L37.9937 60.1776" stroke="black" stroke-linecap="round" stroke-linejoin="round"/>
<path d="M30.7871 58.8818L34.3779 55.8688" stroke="black" stroke-linecap="round" stroke-linejoin="round"/>
<path d="M27.1719 54.5728L31.4809 50.9571" stroke="black" stroke-linecap="round" stroke-linejoin="round"/>
<path d="M23.5557 50.2637L29.301 45.4428" stroke="black" stroke-linecap="round" stroke-linejoin="round"/>
<path d="M21.3765 44.7495L28.5581 38.7234" stroke="black" stroke-linecap="round" stroke-linejoin="round"/>
<path d="M20.6333 38.03L27.815 32.0039" stroke="black" stroke-linecap="round" stroke-linejoin="round"/>
<path d="M88.439 69.2493L83.4118 73.4676" stroke="black" stroke-linecap="round" stroke-linejoin="round"/>
<path d="M84.8237 64.9402L79.7966 69.1585" stroke="black" stroke-linecap="round" stroke-linejoin="round"/>
<path d="M81.208 60.6313L76.899 64.247" stroke="black" stroke-linecap="round" stroke-linejoin="round"/>
<path d="M77.5918 56.3223L73.2828 59.9379" stroke="black" stroke-linecap="round" stroke-linejoin="round"/>
<path d="M73.9766 52.0132L69.6676 55.6289" stroke="black" stroke-linecap="round" stroke-linejoin="round"/>
<path d="M70.3608 47.7041L66.77 50.7172" stroke="black" stroke-linecap="round" stroke-linejoin="round"/>
<path d="M66.7451 43.3953L63.1543 46.4083" stroke="black" stroke-linecap="round" stroke-linejoin="round"/>
<path d="M63.1294 39.0862L59.5386 42.0993" stroke="black" stroke-linecap="round" stroke-linejoin="round"/>
<path d="M59.5137 34.7771L55.9228 37.7902" stroke="black" stroke-linecap="round" stroke-linejoin="round"/>
<path d="M55.8984 30.4683L51.5894 34.0839" stroke="black" stroke-linecap="round" stroke-linejoin="round"/>
<path d="M52.2822 26.1592L46.5369 30.9801" stroke="black" stroke-linecap="round" stroke-linejoin="round"/>
<path d="M47.2305 23.0554L40.0488 29.0816" stroke="black" stroke-linecap="round" stroke-linejoin="round"/>
<path d="M40.7422 21.157L33.5605 27.1831" stroke="black" stroke-linecap="round" stroke-linejoin="round"/>
</svg>
