<svg width="80" height="81" viewBox="0 0 80 81" fill="none" xmlns="http://www.w3.org/2000/svg">
    <path d="M12.1603 71.6504C12.1603 69.4308 12.0244 63.6839 19.2751 60.6469C22.425 59.3275 23.7402 58.0856 28.5 57.002C33 60.002 36.5 68.002 40.5 70.002C44.5 65.816 48.5 60.6469 52.5 57.002C59.7 59.2959 63.8402 60.6469 67.0402 65.816C68.9222 69.6299 67.9682 77.768 68.0002 78.502H12.1603V71.6504Z" fill="#999999"/>
    <path d="M56.7775 26.6194C47.8361 21.6878 43.1961 16.4078 43.1961 16.4078C43.1961 16.4078 37.2553 21.1135 32.9561 23.2878C30.0028 24.7814 27.3375 26.2995 25.0975 26.4595C24.1375 25.3395 22.0575 26.2995 22.0575 26.2995C22.0575 26.2995 20.3777 14.7242 25.596 10.1678C30.8143 5.61131 38.8906 5.64631 42.716 5.52779C55.1229 5.14338 59.9961 25.6878 59.9961 25.6878L58.8576 25.3394C57.8723 25.3394 56.7775 26.6194 56.7775 26.6194Z" fill="#999999"/>
    <path d="M50.8406 1.12768C48.1584 1.74785 46.2023 3.50051 45.0361 5.12768L53.4361 44.8877V53.0477L55.6761 47.9899L57.3739 56.1855L60.0672 50.1188L62.565 56.2521C63.7918 42.9808 69.0174 20.5912 61.5961 9.3677C58.7666 5.08847 55.8388 -0.0280457 50.8406 1.12768Z" fill="#999999"/>
    <path d="M33 48.502C37.8 49.942 40.74 50.142 46.5 49.502C46.5 51.8867 47 56.502 51.5 57.002C51.5 57.002 43.5 67.002 40.5 70.002C37.5 67.002 32 60.502 29.5 56.502C32.9998 55.002 33 54.002 33 48.502Z" fill="#FAFAFA"/>
    <path d="M56.3594 27.6796C56.3594 26.5309 57.2906 25.5996 58.4394 25.5996C59.5881 25.5996 60.5194 26.5309 60.5194 27.6796V31.3596C60.5194 33.6571 58.6569 35.5196 56.3594 35.5196V27.6796Z" fill="#FAFAFA"/>
    <path d="M25.3203 27.6796C25.3203 26.5309 24.3891 25.5996 23.2403 25.5996C22.0916 25.5996 21.1603 26.5309 21.1603 27.6796V31.3596C21.1603 33.6571 23.0228 35.5196 25.3203 35.5196V27.6796Z" fill="#FAFAFA"/>
    <path d="M42.9203 16.6416C47.8803 19.8416 50.4403 24.6416 56.3603 26.4016C56.3603 26.8381 56.3603 30.6043 56.3603 35.0384C56.3603 43.6099 49.4118 50.5616 40.8403 50.5616C32.2689 50.5616 25.3203 43.6125 25.3203 35.041C25.3203 31.6606 25.3203 28.478 25.3203 26.4016C28.5203 26.4016 34.1203 23.5216 42.9203 16.6416Z" fill="#FAFAFA"/>
    <path d="M33 49.002C33 50.002 33.2641 53.1398 33 54.0019C33 54.0019 32.1224 55.7324 30 56.5019C27.8776 57.2715 22.2648 59.4282 19.115 60.7476C11.8643 63.7846 12.0002 69.5315 12.0002 71.7512C12.0002 73.9708 12.0002 78.0766 12.0002 78.0766" stroke="black" stroke-linecap="round" stroke-linejoin="round"/>
    <path d="M59 71.002H48.5V73.002H59V71.002Z" stroke="black" stroke-linecap="round" stroke-linejoin="round"/>
    <path d="M47 50.002C46.7999 53.0472 47.1777 53.0277 47.5005 54.002C47.5005 54.002 48.3781 55.7324 50.5005 56.502C52.6229 57.2715 58.3758 59.4282 61.5257 60.7476C68.7764 63.7846 68.6405 69.5315 68.6404 71.7512C68.6404 73.9709 68.6404 78.0767 68.6404 78.0767" stroke="black" stroke-linecap="round" stroke-linejoin="round"/>
    <path d="M29 57.002L40.5 70.002L52 57.002" stroke="black"/>
    <path d="M56.501 26.6934C56.501 28.7698 56.501 31.9524 56.501 35.3328C56.501 43.9042 49.5524 50.8534 40.981 50.8534V50.8534C32.4095 50.8534 25.461 43.9016 25.461 35.3302C25.461 30.8961 25.461 27.1299 25.461 26.6934" stroke="black" stroke-linecap="round" stroke-linejoin="round"/>
    <path d="M56.4375 27.9736C56.4375 26.8248 57.3687 25.8936 58.5175 25.8936V25.8936C59.6663 25.8936 60.5975 26.8248 60.5975 27.9736V31.6536C60.5975 33.9511 58.735 35.8136 56.4375 35.8136V35.8136V27.9736Z" stroke="black" stroke-linecap="round" stroke-linejoin="round"/>
    <path d="M25.3975 27.9736C25.3975 26.8248 24.4662 25.8936 23.3175 25.8936V25.8936C22.1687 25.8936 21.2375 26.8248 21.2375 27.9736V31.6536C21.2375 33.9511 23.1 35.8136 25.3975 35.8136V35.8136V27.9736Z" stroke="black" stroke-linecap="round" stroke-linejoin="round"/>
    <path d="M36.6548 38.7246C36.6548 38.7246 37.7562 40.1521 40.9381 40.1521C44.1199 40.1521 45.2196 38.7246 45.2196 38.7246" stroke="black" stroke-linecap="round" stroke-linejoin="round"/>
    <path d="M35.584 29.4463V32.1228M46.29 29.4463V32.1228" stroke="black" stroke-linecap="round" stroke-linejoin="round"/>
    <path d="M44.9199 5.36205C46.0861 3.73488 48.0422 1.98223 50.7244 1.36205C55.7226 0.206329 58.6504 5.32284 61.4799 9.60207C68.9012 20.8255 63.6757 43.2151 62.4488 56.4865L59.951 50.3532L57.2577 56.4198L55.5599 48.2243L53.3199 53.2821C53.3199 53.2821 53.3199 47.4231 53.3199 45.1221" stroke="black" stroke-linecap="round" stroke-linejoin="round"/>
    <path d="M56.6613 26.8538C47.7199 21.9222 43.0799 16.6422 43.0799 16.6422C43.0799 16.6422 37.1391 21.3479 32.8399 23.5222C29.8866 25.0158 27.2213 26.5338 24.9813 26.6938C24.0213 25.5738 21.9413 26.5338 21.9413 26.5338C21.9413 26.5338 20.2615 14.9586 25.4798 10.4022C30.698 5.84569 38.7744 5.88069 42.5998 5.76216C55.0067 5.37775 59.8799 25.9221 59.8799 25.9221L58.7414 25.5738C57.7561 25.5738 56.6613 26.8538 56.6613 26.8538Z" stroke="black" stroke-linecap="round" stroke-linejoin="round"/>
</svg>
