<svg width="80" height="81" viewBox="0 0 80 81" fill="none" xmlns="http://www.w3.org/2000/svg">
    <path d="M11.84 73.34C11.84 71.0024 11.7041 64.9502 18.9548 61.7518C22.1047 60.3624 28.6815 57.6706 30.8039 56.8601C33.0907 55.9869 38.0798 58.0965 49.5157 56.8601C51.6382 57.6706 58.215 60.3624 61.3649 61.7518C68.6156 64.9502 68.4797 71.0024 68.4797 73.34L68.4796 80.0016H11.9998L11.84 73.34Z" fill="white"/>
    <path d="M39.8401 62.2416C38.9441 62.2416 35.3068 61.1749 33.6001 60.6416L37.4401 79.8416H42.7201L46.8801 60.6416C45.1201 61.1749 40.7361 62.2416 39.8401 62.2416Z" fill="#F4F4F4"/>
    <path d="M32.3198 55.1992L33.1198 48.1592C37.9198 49.5992 40.7998 49.2792 46.5598 48.6392C46.5598 53.8872 47.9432 53.4144 47.8398 56.0015C47.7585 58.0351 47.0398 60.0015 47.0398 60.0015C47.0398 60.0015 43.1491 62.0994 40.4798 62.0815C37.8705 62.0639 32.9598 60.0015 32.9598 60.0015L32.3198 55.1992Z" fill="#F4F4F4"/>
    <path d="M55.3594 27.6796C55.3594 26.5309 56.2906 25.5996 57.4394 25.5996C58.5881 25.5996 59.5194 26.5309 59.5194 27.6796V31.3596C59.5194 33.6571 57.6569 35.5196 55.3594 35.5196V27.6796Z" fill="#F4F4F4"/>
    <path d="M24.3198 27.6796C24.3198 26.5309 23.3886 25.5996 22.2398 25.5996C21.0911 25.5996 20.1598 26.5309 20.1598 27.6796V31.3596C20.1598 33.6571 22.0223 35.5196 24.3198 35.5196V27.6796Z" fill="#F4F4F4"/>
    <path d="M37 12.502C42 10.002 45 10.502 50.5 13.5019C55.3598 17.002 54.7335 21.1511 55.3598 26.4019C55.3598 26.8384 55.3598 30.6046 55.3598 35.0387C55.3598 43.6102 48.4113 50.5619 39.8398 50.5619C31.2684 50.5619 24.3198 43.6128 24.3198 35.0413C24.3198 31.6609 24.3198 28.4784 24.3198 26.4019C24.8824 24.0664 25.5 19.502 27 14.502C29.3928 12.7074 34.4076 10.5618 36.5 10.502C37.5 11.002 36.8949 12.1865 37 12.502Z" fill="#F4F4F4"/>
    <path d="M24.5002 27.0019L22.5001 26.0019C23.0001 25.0019 21.0001 13.0019 25.0001 9.00189C29.0001 5.00189 36.5001 5.50189 39.0001 5.00189C41.5001 4.50189 49.0001 5.00189 54.5001 9.50189C58.9001 13.1019 58.6667 21.3352 58.0001 25.0019L55.5001 26.5019C55.0001 24.1686 54.5002 19.5019 54.0001 17.0019C54.0001 14.5019 46.0001 11.5019 43.5001 10.5019C41.5002 10.5019 39.0001 12.0019 37.0001 12.5019V11.0019C34.5001 10.0019 30.5002 12.5019 27.0002 14.5019C26.0002 19.5019 25.0001 25.5019 24.5002 27.0019Z" fill="#999999"/>
    <path d="M38 35.002C37 35.002 33 37.002 32.5 38.002C36.5 36.502 42.5 36.502 47 38.002C46.5 37.002 43.2071 35.002 42.5 35.002L38 35.002Z" fill="#FAFAFA"/>
    <path d="M42 41.502C40.8 41.902 38.6667 41.6686 38 41.502C38 42.502 39.5 43.002 40 43.002C40.5 43.002 42 42.502 42 41.502Z" fill="#FAFAFA"/>
    <path d="M31.5 39.002C30.3496 38.6185 26.3563 36.1686 24.5 35.002C24 43.002 31.5 48.002 32 48.502C32.5 49.002 38 50.502 40 50.502C43.5 50.502 45 49.502 48 48.002C55.6158 44.1941 55 36.002 55 35.502C55 35.002 49 39.002 47 39.502C46.0298 39.7445 46 44.502 45 46.502C44 48.502 41 48.502 40 48.502C38.9993 48.502 36 48.502 34.5 46.502C33 44.502 33 39.502 31.5 39.002Z" fill="#FAFAFA"/>
    <path d="M55.5017 26.6934C55.5017 28.7698 55.5017 31.9524 55.5017 35.3328C55.5017 43.9042 48.5532 50.8534 39.9817 50.8534V50.8534C31.4102 50.8534 24.4617 43.9016 24.4617 35.3302C24.4617 30.8961 24.4617 27.1299 24.4617 26.6934" stroke="black" stroke-linecap="round" stroke-linejoin="round"/>
    <path d="M46.7975 49.5732C47.3281 55.1114 46.9867 55.8901 49.2734 56.7193C51.3959 57.4888 57.9727 60.0448 61.1226 61.3642C68.3733 64.4012 68.2374 70.1481 68.2374 72.3678C68.2373 74.5874 68.2374 79.5215 68.2374 79.5215" stroke="black" stroke-linecap="round" stroke-linejoin="round"/>
    <path d="M32.96 49.6016C32.4295 55.1397 32.7709 55.9184 30.4841 56.7476C28.3617 57.5172 21.7848 60.0731 18.635 61.3925C11.3843 64.4295 11.5202 70.1764 11.5202 72.3961C11.5202 74.6158 11.5202 79.5215 11.5202 79.5215" stroke="black" stroke-linecap="round" stroke-linejoin="round"/>
    <path d="M55.4377 27.9736C55.4377 26.8248 56.369 25.8936 57.5177 25.8936V25.8936C58.6665 25.8936 59.5977 26.8248 59.5977 27.9736V31.6536C59.5977 33.9511 57.7353 35.8136 55.4377 35.8136V35.8136V27.9736Z" stroke="black" stroke-linecap="round" stroke-linejoin="round"/>
    <path d="M24.3977 27.9736C24.3977 26.8248 23.4665 25.8936 22.3177 25.8936V25.8936C21.169 25.8936 20.2377 26.8248 20.2377 27.9736V31.6536C20.2377 33.9511 22.1002 35.8136 24.3977 35.8136V35.8136V27.9736Z" stroke="black" stroke-linecap="round" stroke-linejoin="round"/>
    <path d="M36.9601 79.6819L32.0368 56.002L25.6001 61.1219L29.6001 66.5619L26.4001 67.5219L36.9601 79.6819Z" stroke="black" stroke-linecap="round" stroke-linejoin="round"/>
    <path d="M43.1998 79.6819L48.1231 56.002L54.5598 61.1219L50.5598 66.5619L53.7598 67.5219L43.1998 79.6819Z" stroke="black" stroke-linecap="round" stroke-linejoin="round"/>
    <path d="M55.6615 26.8536C54.5002 19.502 55.0004 16.7052 51.5004 14.0019C49.816 12.7009 46.1178 10.5119 42.9998 10.502C41.2053 10.4963 38.4374 12.5197 36.9998 12.502L37.4998 10.502C34.1755 10.5744 29.0294 12.9099 27.5004 14.0019C24.8074 15.9255 26.2215 26.5336 23.9815 26.6936C23.0215 25.5736 22.5004 25.9219 22.5004 25.9219C22.5004 25.9219 22.5004 13.002 23.9815 10.502C25.4626 8.00195 28.2159 6.61645 31.0004 6.00195C34.5115 5.22714 40.3274 5.00197 42.0004 5.00195C45.0004 5.00193 49.5006 6.00195 52.0002 7.50195C54.4998 9.00195 56.6682 12.4735 57.7409 16.502C58.6525 19.9253 57.7416 25.5736 57.7416 25.5736C56.7563 25.5736 56.5002 25.5736 55.6615 26.8536Z" stroke="black" stroke-linecap="round" stroke-linejoin="round"/>
    <path d="M33.28 60.6416C33.28 60.6416 37.6839 62.4668 40.32 62.4016C42.7141 62.3424 46.72 60.6416 46.72 60.6416" stroke="black" stroke-linecap="round" stroke-linejoin="round"/>
    <circle cx="56.96" cy="72.6423" r="2.24" stroke="black" stroke-linecap="round" stroke-linejoin="round"/>
    <path d="M27.52 57.6142C25.92 57.2942 21.888 63.1502 21.76 65.4542" stroke="black" stroke-linecap="round" stroke-linejoin="round"/>
    <path d="M56.9601 70.4023C56.9601 66.669 57.0881 58.9143 54.4001 58.4023" stroke="black" stroke-linecap="round" stroke-linejoin="round"/>
    <path d="M19.0399 77.7614H17.9199C17.9199 77.7614 18.2399 72.9616 18.5599 68.4442C18.6748 66.8229 19.9746 65.6016 21.5999 65.6016C23.2253 65.6016 24.5062 66.8244 24.6399 68.4443C24.9599 72.3216 25.2799 76.9302 25.2799 77.7616L24.1601 77.7614" stroke="black" stroke-linecap="round" stroke-linejoin="round"/>
    <path d="M35.6553 38.7246C35.6553 38.7246 36.7567 40.1521 39.9385 40.1521C43.1204 40.1521 44.2201 38.7246 44.2201 38.7246" stroke="black" stroke-linecap="round" stroke-linejoin="round"/>
    <path d="M34.5845 29.4463V32.1228M45.2905 29.4463V32.1228" stroke="black" stroke-linecap="round" stroke-linejoin="round"/>
</svg>
