<svg width="80" height="81" viewBox="0 0 80 81" fill="none" xmlns="http://www.w3.org/2000/svg">
    <path d="M12.1603 71.6504C12.1603 69.4308 12.0244 63.6839 19.2751 60.6469C22.425 59.3275 23.7402 58.0856 28.5 57.002C33.5 65.002 48 62.502 52.5 57.002C59.7 59.2959 63.8402 60.6469 67.0402 65.816C68.9222 69.6299 67.9682 77.768 68.0002 78.502H12.1603V71.6504Z" fill="#999999"/>
    <path d="M21 30.002C21 34.4201 22.8333 35.1686 24 35.002C24 38.002 26 42.502 27 44.002C27.6657 45.0004 31.6667 47.8353 34 49.002L32.5 54.002C30.5 54.502 30.5 56.002 28.5 57.002C30 60.502 31.5 61.502 40 62.002C46.8 62.402 50.8334 58.6686 52 57.002C50.6667 56.1686 47.9 54.302 47.5 53.502C47.1 52.702 47.3334 49.8353 47.5 48.502C48.6667 47.6686 50.9 46.202 52.5 45.002C54.1 43.802 55.6667 37.6686 56 35.002C55.3334 35.1686 54.7 35.302 57.5 34.502C60.3 33.702 60.3334 30.1686 60 28.502C60.3334 27.502 60.4 25.402 58 25.002C55.6 24.602 55.5 27.8353 55.5 29.502C54.5 27.3353 50.9 22.602 46.5 21.002C41 19.002 41 13.502 40.5 13.502C40 13.502 40.5 20.502 40.5 21.002C40.5 21.502 35.5 12.002 35 12.002C34.6 12.002 35.5 18.002 36 21.002C34 20.002 32.5 18.502 31.5 17.002C30.2301 17.502 25.5 27.502 24 32.502V28.002C24 27.002 23.7 25.002 22.5 25.002C21.0001 25.002 21 26.002 21 30.002Z" fill="#F2F2F2"/>
    <path d="M30.5001 56.5024C30.1001 58.5024 34.5 59.5024 37 60.0024C37.5 64.0024 35.5149 75.6237 36 75.5024C38.0001 75.0024 39.5001 74.5024 41.5001 73.5024V60.0024C43.0001 60.0024 45.6001 59.7024 48.0001 58.5024C51.0001 57.0024 51.0001 54.7524 49.5001 54.0024C48.5001 53.5024 45.5001 55.5024 44.0001 56.0024H42.5001C41.6668 55.8358 39.2001 56.0024 38.0001 56.0024C36.8001 56.0024 36.6668 56.8358 36.5001 57.5024C35.8334 56.6691 34.3001 54.9025 33.5001 54.5025C32.5001 54.0025 31.0001 54.0024 30.5001 56.5024Z" fill="white"/>
    <path d="M56 31.002C53.5 26.502 50.0002 24.0467 48.0002 22.502C46.3157 21.2009 42.0002 19.6895 40.5002 14.002C39.5002 17.1895 40.5002 17.002 40.5002 21.002L35.0002 12.502C34.5002 16.502 35.0002 18.502 36.0002 21.502C31.5002 19.002 32.2833 16.4425 31.5002 17.002C28.8071 18.9255 24.4638 35.002 23.9819 33.002C23.5 31.002 25.5 25.502 22.5009 25.4219C19.5017 25.3419 22.5009 12.502 23.9819 10.002C25.463 7.50195 28.7156 5.61645 31.5002 5.00195C35.0112 4.22714 39.3271 4.00197 41.0002 4.00195C44.0002 4.00193 49.501 5.50195 52.0006 7.00195C54.5002 8.50195 56.6686 11.9735 57.7413 16.002C58.6529 19.4253 58.0004 25.502 58.0004 25.502C57.0151 25.502 55.3125 25.002 56 31.002Z" fill="#E6E6E6"/>
    <path d="M21.5 39.502C22.7 39.502 22.3333 36.502 22 35.002L23.9819 35.502L24.5 38.502C23.9819 41.002 20 39.502 21.5 39.502Z" fill="#E6E6E6"/>
    <path d="M59 39.502C57 38.502 57.3333 37.3353 57.5 35.502H56L55.5 38.502C56.3125 40.002 58.0002 40.2517 59 39.502Z" fill="#E6E6E6"/>
    <path d="M24.0001 27.502C23.6667 32.1686 24.0001 42.302 28.0001 45.502C33.0001 49.502 35 50.002 36.5 50.002C37 50.002 38.5 51.002 40 51.002C41.2602 51.002 42.3412 50.002 43.4023 50.002C45 50.002 46.9023 49.502 51.9023 45.502C55.9023 42.302 56.2356 32.1686 55.9023 27.502" stroke="black" stroke-linecap="round" stroke-linejoin="round"/>
    <path d="M22 35.002C22.3333 36.502 22.7 39.502 21.5 39.502C20 39.502 23.9819 41.002 24.5 38.502M57.5 35.502C57.3333 37.3353 57 38.502 59 39.502C58.0002 40.2517 56.3125 40.002 55.5 38.502M48.0002 22.502C50.0002 24.0467 53.5 26.502 56 31.002C55.3125 25.002 57.0151 25.502 58.0004 25.502C58.0004 25.502 58.6529 19.4253 57.7413 16.002C56.6686 11.9735 54.5002 8.50195 52.0006 7.00195C49.501 5.50195 44.0002 4.00193 41.0002 4.00195C39.3271 4.00197 35.0112 4.22714 31.5002 5.00195C28.7156 5.61645 25.463 7.50195 23.9819 10.002C22.5009 12.502 19.5017 25.3419 22.5009 25.4219C25.5 25.502 23.5 31.002 23.9819 33.002C24.4638 35.002 28.8071 18.9255 31.5002 17.002C32.2833 16.4425 31.5002 19.002 36.0002 21.502C35.0002 18.502 34.5002 16.502 35.0002 12.502L40.5002 21.002C40.5002 17.002 39.5002 17.1895 40.5002 14.002C42.0002 19.6895 46.3157 21.2009 48.0002 22.502Z" stroke="black" stroke-linecap="round" stroke-linejoin="round"/>
    <path d="M33.5 49.502C33.5 50.502 33.2641 53.1398 33 54.002M12.0002 78.0767C12.0002 78.0767 12.0002 73.9709 12.0002 71.7512C12.0002 69.5315 11.8643 63.7846 19.115 60.7476C22.2648 59.4282 27.8776 57.2715 30 56.502" stroke="black" stroke-linecap="round" stroke-linejoin="round"/>
    <path d="M47.2001 48.957C47 52.0023 47.1772 53.0281 47.5 54.0023M68.6399 78.077C68.6399 78.077 68.6399 73.9712 68.64 71.7515C68.64 69.5318 68.7759 63.785 61.5252 60.7479C58.3753 59.4286 52.6224 57.2719 50.5 56.5023" stroke="black" stroke-linecap="round" stroke-linejoin="round"/>
    <path d="M56 27.502C56 26.3974 56.8954 25.502 58 25.502V25.502C59.1046 25.502 60 26.3974 60 27.502V31.502C60 33.7111 58.2091 35.502 56 35.502V35.502V27.502Z" stroke="black" stroke-linecap="round" stroke-linejoin="round"/>
    <path d="M24 27.002C24 26.1735 23.3284 25.502 22.5 25.502V25.502C21.6716 25.502 21 26.1735 21 27.002V32.502C21 34.1588 22.3431 35.502 24 35.502V35.502V27.002Z" stroke="black" stroke-linecap="round" stroke-linejoin="round"/>
    <path d="M28.3198 57.5967C28.3198 57.5967 30 62.0711 36.5 62.0711M41.5 62.0711C48.5 62.502 52.3198 57.5967 52.3198 57.5967" stroke="black" stroke-linecap="round" stroke-linejoin="round"/>
    <path d="M37.1353 39.3594C37.1353 39.3594 37.2367 40.7868 40.4185 40.7868C43.6004 40.7868 43.7 39.3594 43.7 39.3594" stroke="black" stroke-linecap="round" stroke-linejoin="round"/>
    <path d="M35.0645 30.0811V31.637M45.7704 30.0811V31.637" stroke="black" stroke-linecap="round" stroke-linejoin="round"/>
    <path d="M26.3999 30.9052C26.3999 28.4814 28.3647 26.5166 30.7885 26.5166H34.0799C36.9076 26.5166 39.1999 28.8089 39.1999 31.6366V31.6366C39.1999 34.4643 36.9076 36.7566 34.0799 36.7566H32.2513C29.0197 36.7566 26.3999 34.1368 26.3999 30.9052V30.9052Z" stroke="black" stroke-linecap="round" stroke-linejoin="round"/>
    <path d="M41.4399 31.6366C41.4399 28.8089 43.7322 26.5166 46.5599 26.5166H49.8514C52.2751 26.5166 54.2399 28.4814 54.2399 30.9052V30.9052C54.2399 34.1368 51.6202 36.7566 48.3885 36.7566H46.5599C43.7322 36.7566 41.4399 34.4643 41.4399 31.6366V31.6366Z" stroke="black" stroke-linecap="round" stroke-linejoin="round"/>
    <path d="M39.1997 29.3967C39.573 29.0767 40.5437 28.6287 41.4397 29.3967" stroke="black" stroke-linecap="round"/>
    <path d="M36.7096 57.502C36.7908 56.7536 37.0201 56.1619 37.5 56.002C39 55.502 41.5 56.002 42 56.002C42.4 56.002 42.1666 56.6687 42 57.002C41.0001 58.5021 41.5 74.002 41.5 73.502C41.5 73.002 33.5 76.502 35.5 75.502C37.1 74.702 37.1666 65.502 37 61.002C36.7999 60.1017 36.5878 58.6252 36.7096 57.502ZM36.7096 57.502C36.7932 57.002 33.9998 54.002 32.9998 54.002C31.9998 54.002 30.4998 55.0019 30.4998 55.502C30.4998 56.002 29.4195 59.502 36.7096 60.002" stroke="black"/>
    <path d="M47.5 54.002C45.5 56.002 44 56.002 42.5 56.502C42.0005 57.5009 42.0001 59.4977 42 60.0004V60.002C44.5 60.502 49 59.002 50.5 56.002C50.5 53.002 48.5 53.502 47.5 54.002Z" stroke="black"/>
</svg>
