<svg width="80" height="81" viewBox="0 0 80 81" fill="none" xmlns="http://www.w3.org/2000/svg">
    <path d="M11.84 73.3403C11.84 71.0027 11.7041 64.9505 18.9548 61.7521C22.1047 60.3627 30.8776 56.3124 33 55.5019C34.5565 54.9076 36 57.002 40.5 58.002L42.5554 57.0533C43.5983 56.2673 44.7424 55.246 47 55.002C49.1224 55.8124 58.215 60.3627 61.3649 61.7521C68.6156 64.9505 68.4797 71.0027 68.4797 73.3403L68.4796 80.0019H11.9998L11.84 73.3403Z" fill="white"/>
    <path d="M38.5 62.502L39 61.502H42L42.5 62.002L42 64.002L43.5 75.502L40 80.002L37 75.502L39 64.002L38.5 62.502Z" fill="#FAFAFA"/>
    <path d="M55.3594 27.6796C55.3594 26.5309 56.2906 25.5996 57.4394 25.5996V25.5996C58.5881 25.5996 59.5194 26.5309 59.5194 27.6796V31.3596C59.5194 33.6571 57.6569 35.5196 55.3594 35.5196V35.5196V27.6796Z" fill="#F4F4F4"/>
    <path d="M24.3203 27.6796C24.3203 26.5309 23.3891 25.5996 22.2403 25.5996V25.5996C21.0916 25.5996 20.1603 26.5309 20.1603 27.6796V31.3596C20.1603 33.6571 22.0228 35.5196 24.3203 35.5196V35.5196V27.6796Z" fill="#F4F4F4"/>
    <path d="M51 13.502C55.8598 17.002 55.3595 21.002 55.3595 26.4019C55.3595 26.8384 55.3595 30.6046 55.3595 35.0387C55.3595 43.6102 48.411 50.5619 39.8396 50.5619V50.5619C31.2681 50.5619 24.3196 43.6128 24.3196 35.0413C24.3196 31.6609 24.3196 28.4784 24.3195 26.4019C23.9996 21.502 24.5 17.502 26.5001 15.502C28.8928 13.7074 35 10.002 40.5 10.002C43.6875 10.002 45.6838 10.6022 51 13.502Z" fill="#F4F4F4"/>
    <path d="M32.5 55.002L33 49.502C34.6667 50.002 38.4 51.002 40 51.002C41.6 51.002 45.3333 50.002 47 49.502C47.1667 51.002 48.2155 54.6442 47.5 55.002C46.5 55.502 43 57.002 40.5 58.502L32.5 55.002Z" fill="#F4F4F4"/>
    <path d="M37.9996 34.502C36.9996 34.502 32.9996 37.002 32.4996 38.002C36.4996 36.502 42.4996 36.502 46.9996 38.002C46.4996 37.002 43.2062 34.502 42.4991 34.502L37.9996 34.502Z" fill="#F2F2F2"/>
    <path d="M41.9996 41.502C40.7996 41.902 38.6662 41.6686 37.9996 41.502C37.9996 42.502 39.4996 43.002 39.9996 43.002C40.4996 43.002 41.9996 42.502 41.9996 41.502Z" fill="#F2F2F2"/>
    <path d="M31.4996 39.002C30.3492 38.6185 26.3559 32.1686 24.4996 31.002C22.9992 44.002 31.4996 48.002 31.9996 48.502C32.4996 49.002 37.4991 51.002 39.4991 51.002C42.9991 51.002 45 50.002 48 48.502C55.6158 44.6941 55.9991 34.002 54.9996 31.002C52.9991 35.002 48.9996 39.002 46.9996 39.502C46.0294 39.7445 46.5811 40.9208 45 42.502C43 44.502 40.9996 44.002 39.9996 44.002C38.9989 44.002 36 44.502 34.5 42.502C33 40.502 32.65 39.3854 31.4996 39.002Z" fill="#F2F2F2"/>
    <path d="M27.9991 22.002C26.284 23.0307 24.8328 25.6686 24.4996 27.502V20.002C24.4996 19.502 24.9991 17.002 26.4991 16.002C27.8147 15.1249 31.9327 10.002 39.4991 10.002C46.9996 10.002 53.4991 14.502 54.4991 17.002C55.2991 19.002 55.1661 24.8353 54.9996 27.502C54.0001 22.502 52.9991 24.002 51.9991 22.002C49.1313 16.2665 50 12.502 43.5 12.002C39.4991 11.6942 40.9933 11.7801 36.9991 12.002C27.9991 12.502 30.5 20.502 27.9991 22.002Z" fill="#F2F2F2"/>
    <path d="M55.5012 26.6934C55.5012 28.7698 55.5012 31.9524 55.5012 35.3328C55.5012 43.9042 48.5527 50.8534 39.9812 50.8534V50.8534C31.4098 50.8534 24.4612 43.9016 24.4612 35.3302C24.4612 30.8961 24.4612 27.1299 24.4612 26.6934" stroke="black" stroke-linecap="round" stroke-linejoin="round"/>
    <path d="M46.7971 49.5732C47.3276 55.1114 46.9862 55.8901 49.273 56.7193C51.3954 57.4888 57.9722 60.0448 61.1221 61.3642C68.3728 64.4012 68.2369 70.1481 68.2369 72.3678C68.2369 74.5874 68.2369 79.5215 68.2369 79.5215" stroke="black" stroke-linecap="round" stroke-linejoin="round"/>
    <path d="M32.9595 49.6016C32.429 55.1397 32.7704 55.9184 30.4836 56.7476C28.3612 57.5172 21.7844 60.0731 18.6345 61.3925C11.3838 64.4295 11.5197 70.1764 11.5197 72.3961C11.5197 74.6158 11.5197 79.5215 11.5197 79.5215" stroke="black" stroke-linecap="round" stroke-linejoin="round"/>
    <path d="M55.4373 27.9736C55.4373 26.8248 56.3685 25.8936 57.5173 25.8936V25.8936C58.666 25.8936 59.5973 26.8248 59.5973 27.9736V31.6536C59.5973 33.9511 57.7348 35.8136 55.4373 35.8136V35.8136V27.9736Z" stroke="black" stroke-linecap="round" stroke-linejoin="round"/>
    <path d="M24.3972 27.9736C24.3972 26.8248 23.466 25.8936 22.3172 25.8936V25.8936C21.1685 25.8936 20.2372 26.8248 20.2372 27.9736V31.6536C20.2372 33.9511 22.0997 35.8136 24.3972 35.8136V35.8136V27.9736Z" stroke="black" stroke-linecap="round" stroke-linejoin="round"/>
    <path d="M32.0363 79.002V56.002L25.5996 61.1219L29.5996 66.5619L26.3996 67.5219L32.0363 79.002Z" stroke="black" stroke-linecap="round" stroke-linejoin="round"/>
    <path d="M48.1226 80.002V56.002L54.5593 61.1219L50.5593 66.5619L53.7593 67.5219L48.1226 80.002Z" stroke="black" stroke-linecap="round" stroke-linejoin="round"/>
    <path d="M55.5003 27.502C55.5003 25.6503 55.6496 22.3019 55.5002 20.002C55.191 15.2402 48.3587 10.0019 40.5002 10.002C34.8067 10.002 24.5003 14.0019 24.5003 20.002C24.5003 24.4325 24.5002 23.8103 24.5002 27.002" stroke="black" stroke-linecap="round" stroke-linejoin="round"/>
    <path d="M35.6548 38.7246C35.6548 38.7246 36.7562 40.1521 39.9381 40.1521C43.1199 40.1521 44.2196 38.7246 44.2196 38.7246" stroke="black" stroke-linecap="round" stroke-linejoin="round"/>
    <path d="M34.584 29.4463V32.1228M45.29 29.4463V32.1228" stroke="black" stroke-linecap="round" stroke-linejoin="round"/>
    <path d="M40.5 58.502L42.5 62.502L48 58.002V56.002L47 55.002L40.5 58.502ZM40.5 58.502L33 55.002L32 56.002V58.002L38.5 62.502L40.5 58.502Z" stroke="black" stroke-linecap="round" stroke-linejoin="round"/>
    <path d="M42.5 62.502L42 64.002H39L38.5 62.502" stroke="black" stroke-linecap="round" stroke-linejoin="round"/>
    <path d="M39 64.002L37 75.502L40 80.002L43.5 75.502L42 64.002" stroke="black" stroke-linecap="round" stroke-linejoin="round"/>
    <path d="M42 61.502H39" stroke="black"/>
</svg>
