<svg width="120" height="120" viewBox="0 0 120 120" fill="none" xmlns="http://www.w3.org/2000/svg">
<rect width="45.0007" height="120.002" rx="22.5004" transform="matrix(0.707116 -0.707097 0.707116 0.707097 1.875 33.6921)" fill="white"/>
<path d="M17.91 49.7286C9.12313 40.942 9.12315 26.6961 17.91 17.9095V17.9095C26.6968 9.12291 40.9431 9.12291 49.73 17.9095L76.9495 45.1284C76.9495 45.1284 64.4321 50.5119 58.2503 56.3781C51.3389 62.9367 45.1296 76.9475 45.1296 76.9475L17.91 49.7286Z" fill="#EF7D00"/>
<ellipse rx="5.80772" ry="5.28987" transform="matrix(0.70714 -0.707074 0.70714 0.707074 32.2225 20.9717)" fill="white"/>
<path d="M13.1257 33.7512L86.249 106.876C81.5615 106.876 76.8663 104.654 74.0619 102.189C72.9953 101.251 18.5156 46.8762 17.8131 45.9387C12.8955 39.3762 13.1257 33.7512 13.1257 33.7512Z" fill="#FBD8B3"/>
<rect width="45.0011" height="120.003" rx="22.5005" transform="matrix(0.707104 -0.707109 0.707104 0.707109 2 33.8206)" stroke="black" stroke-linecap="round" stroke-linejoin="round"/>
<path d="M45.2264 76.8535C45.2264 76.8535 52.0588 62.9229 59.1881 56.377C65.0112 51.0306 76.3841 45.6969 76.3841 45.6969" stroke="black" stroke-linecap="round" stroke-linejoin="round"/>
</svg>
