<svg width="120" height="120" viewBox="0 0 120 120" fill="none" xmlns="http://www.w3.org/2000/svg">
<rect width="45.0007" height="120.002" rx="22.5004" transform="matrix(0.707116 -0.707097 0.707116 0.707097 1.875 33.6921)" fill="white"/>
<path d="M17.785 49.6005C8.99813 40.8139 8.99815 26.568 17.785 17.7813V17.7813C26.5718 8.99474 40.8181 8.99474 49.605 17.7813L76.8245 45.0002C76.8245 45.0002 64.3071 50.3838 58.1253 56.25C51.2139 62.8085 45.0046 76.8193 45.0046 76.8193L17.785 49.6005Z" fill="#AA4695"/>
<ellipse rx="5.80772" ry="5.28987" transform="matrix(0.70714 -0.707074 0.70714 0.707074 32.2225 20.9717)" fill="white"/>
<path d="M13.1257 33.7512L86.249 106.876C81.5615 106.876 76.8663 104.654 74.0619 102.189C72.9953 101.251 18.5156 46.8762 17.8131 45.9387C12.8955 39.3762 13.1257 33.7512 13.1257 33.7512Z" fill="#ECD6E7"/>
<rect width="45.0011" height="120.003" rx="22.5005" transform="matrix(0.707104 -0.707109 0.707104 0.707109 1.875 33.6941)" stroke="black" stroke-linecap="round" stroke-linejoin="round"/>
<path d="M45.1014 76.7271C45.1014 76.7271 51.9338 62.7964 59.0631 56.2506C64.8862 50.9041 76.2591 45.5705 76.2591 45.5705" stroke="black" stroke-linecap="round" stroke-linejoin="round"/>
</svg>
