<svg width="120" height="48" viewBox="0 0 120 48" fill="none" xmlns="http://www.w3.org/2000/svg">
<path d="M90.7771 22.0689C89.3267 21.6136 87.9761 21.1779 87.9761 20.2477C87.9761 20.1168 88.0035 19.9957 88.0544 19.8823C87.107 21.6664 90.1155 22.8838 90.1155 22.8838C90.1155 22.8838 93.4294 24.1696 92.2921 25.8814C91.9887 26.6552 90.8535 27.0616 89.5714 27.0792C88.025 27.1202 87.2558 26.96 86.05 26.2878L85.9619 27.6342C87.2871 27.9507 88.5887 28.0895 89.8434 28.0895C92.0788 28.109 94.6332 27.2179 94.6332 25.1388C94.6332 23.2961 92.619 22.661 90.7771 22.0689Z" fill="#009640"/>
<path d="M90.1155 22.8818C90.1155 22.8818 87.107 21.6664 88.0544 19.8804C88.3441 19.2179 89.4128 18.8486 90.4815 18.9014C92.619 18.9795 93.5527 19.554 94.3141 20.0289C94.3141 19.6322 94.3631 19.2961 94.2652 18.7607C92.989 18.108 92.1042 17.9106 90.2369 17.9106C87.8802 17.9106 85.7407 18.9014 85.7407 20.5623C85.7407 22.5223 87.7549 23.1163 89.6222 23.6713C91.0472 24.0875 92.3743 24.4822 92.3743 25.4534C92.3743 25.6058 92.3469 25.7465 92.2941 25.8794C93.4294 24.1657 90.1155 22.8818 90.1155 22.8818Z" fill="#BFD43C"/>
<path d="M80.0568 18.0962C76.8584 18.0962 75.0596 20.1108 75.0596 23.3429V27.9721H77.3576V22.7254C77.3576 20.0522 78.4968 19.253 80.1547 19.2745C81.8126 19.294 82.6915 20.0718 82.6915 22.7254V27.9721H84.9914V23.3429C84.9914 20.1108 83.6114 18.0962 80.0568 18.0962Z" fill="#5E2A7E"/>
<path d="M100.607 18.0532C102.361 18.0532 103.725 18.5515 104.634 19.5286C105.458 18.6101 106.757 18.0532 108.66 18.0532C112.044 18.0532 113.916 19.7201 113.916 23.2784V27.9682H111.482V22.6707C111.482 19.9975 110.416 19.2081 108.66 19.2276C106.926 19.2276 105.837 20.0562 105.837 22.6707V27.9682H103.418C103.418 27.9682 103.418 22.9287 103.418 22.6707C103.418 19.9975 102.361 19.21 100.605 19.2276C98.8514 19.2491 97.7826 20.0151 97.7826 22.6707V27.9682H95.3516V23.2784C95.3516 19.7201 97.2444 18.0532 100.607 18.0532Z" fill="#5E2A7E"/>
<path d="M70.0504 18.2428H65.1177L64.9279 20.0562L64.9318 20.0582C64.9318 20.0582 68.9777 20.0582 70.3909 20.0582C71.493 20.0582 71.4949 20.9121 71.4949 21.1212V21.2658L71.493 21.2619H66.6386C64.9004 21.3029 63.6125 21.8657 63.1701 23.6869C63.1153 23.9233 63.084 24.3122 63.084 24.5701C63.084 24.8261 63.1153 25.1876 63.1701 25.428C63.5009 27.0518 64.7869 27.9741 66.6386 27.9741C66.6386 27.9741 70.481 27.9741 70.7648 27.9741C71.6339 27.9741 72.1937 27.8061 72.9023 27.2941C73.4973 26.8642 73.7694 26.2057 73.7694 25.5218C73.7694 24.9707 73.7694 20.7343 73.7694 20.7343C73.7694 18.9873 72.5911 18.2311 70.0504 18.2428ZM71.4949 24.8965C71.4949 25.1055 71.493 26.1471 70.3909 26.1471C68.9777 26.1471 66.1982 26.1471 66.1982 26.1471C65.3526 26.1471 64.5638 25.5296 64.5638 24.5584C64.5638 23.597 65.3526 23.0694 66.1786 23.0694L71.4949 23.0733V24.8965Z" fill="#5E2A7E"/>
<path d="M4.792 23.2902C4.792 25.9362 6.574 28.1862 9.436 28.1862C10.732 28.1862 11.704 27.7182 12.46 26.9082V27.8262H14.35V14.3262H12.46V19.6722C11.704 18.8622 10.732 18.3942 9.436 18.3942C6.574 18.3942 4.792 20.6442 4.792 23.2902ZM6.754 23.2902C6.754 21.5082 7.924 20.1402 9.67 20.1402C10.804 20.1402 11.794 20.6622 12.46 21.6522V24.9282C11.848 25.8822 10.84 26.4402 9.67 26.4402C7.924 26.4402 6.754 25.0722 6.754 23.2902ZM20.0941 28.0962C21.2101 28.0962 22.3441 27.5922 22.9921 26.8002V27.8262H24.8461V21.8322C24.8461 19.8342 23.4961 18.3942 21.0481 18.3942C19.4281 18.3942 18.1321 19.0782 17.3221 20.1582L18.7081 21.2202C19.2301 20.4822 20.0041 20.0322 20.9941 20.0322C22.1641 20.0322 22.9921 20.7162 22.9921 21.8322V22.3002L20.0581 22.7862C18.1321 23.1102 17.0701 24.1002 17.0701 25.4682C17.0701 27.0702 18.2941 28.0962 20.0941 28.0962ZM18.9421 25.3962C18.9421 24.7122 19.4101 24.2262 20.5441 24.0282L22.9921 23.6142V25.1802C22.4521 26.0442 21.5701 26.5842 20.4361 26.5842C19.5001 26.5842 18.9421 26.0982 18.9421 25.3962ZM28.5422 24.6762C28.5422 26.8902 29.6582 28.0062 31.7822 28.0062C32.4842 28.0062 32.9882 27.9162 33.4202 27.7362V26.0982C33.0962 26.2242 32.6822 26.2962 32.0702 26.2962C31.0622 26.2962 30.4142 25.9002 30.4142 24.6762V20.4282H33.4202V18.7542H30.4142V16.4862H28.5422V18.7542H26.8322V20.4282H28.5422V24.6762ZM38.3831 28.0962C39.4991 28.0962 40.6331 27.5922 41.2811 26.8002V27.8262H43.1351V21.8322C43.1351 19.8342 41.7851 18.3942 39.3371 18.3942C37.7171 18.3942 36.4211 19.0782 35.6111 20.1582L36.9971 21.2202C37.5191 20.4822 38.2931 20.0322 39.2831 20.0322C40.4531 20.0322 41.2811 20.7162 41.2811 21.8322V22.3002L38.3471 22.7862C36.4211 23.1102 35.3591 24.1002 35.3591 25.4682C35.3591 27.0702 36.5831 28.0962 38.3831 28.0962ZM37.2311 25.3962C37.2311 24.7122 37.6991 24.2262 38.8331 24.0282L41.2811 23.6142V25.1802C40.7411 26.0442 39.8591 26.5842 38.7251 26.5842C37.7891 26.5842 37.2311 26.0982 37.2311 25.3962Z" fill="#009640"/>
<rect x="46.2188" y="19.7568" width="5.25" height="14" rx="2.625" transform="rotate(-45 46.2188 19.7568)" fill="white"/>
<path d="M48.0749 21.613C47.0498 20.5879 47.0498 18.9258 48.0749 17.9007V17.9007C49.1 16.8756 50.7621 16.8756 51.7872 17.9007L54.9628 21.0763C54.9628 21.0763 53.5025 21.7044 52.7812 22.3888C51.9749 23.154 51.2505 24.7886 51.2505 24.7886L48.0749 21.613Z" fill="#009640"/>
<ellipse cx="49.9154" cy="18.7415" rx="0.677526" ry="0.617114" transform="rotate(-45 49.9154 18.7415)" fill="white"/>
<rect x="46.2188" y="19.7573" width="5.25" height="14" rx="2.625" transform="rotate(-45 46.2188 19.7573)" stroke="black" stroke-linecap="round" stroke-linejoin="round"/>
<path d="M51.2619 24.7776C51.2619 24.7776 52.059 23.1523 52.8908 22.3886C53.5701 21.7649 54.8969 21.1426 54.8969 21.1426" stroke="black" stroke-linecap="round" stroke-linejoin="round"/>
<path d="M31.742 36.1178L33.086 43.1738H34.99L38.812 36.1178H37.202L34.262 41.5498L33.254 36.1178H31.742ZM42.3751 43.4538C43.6911 43.4538 44.8251 42.9218 45.5671 42.0538L44.6011 41.1298C44.1251 41.7458 43.3551 42.1518 42.4731 42.1518C41.1851 42.1518 40.4711 41.3818 40.4711 40.0798C40.4711 39.9958 40.4711 39.8978 40.4851 39.8138H45.6091C45.7491 39.4638 45.8471 38.9318 45.8471 38.5258C45.8471 36.9718 44.6011 35.8378 42.8931 35.8378C40.4431 35.8378 38.9871 37.7698 38.9871 40.0798C38.9871 41.9978 40.2051 43.4538 42.3751 43.4538ZM42.8651 37.0418C44.0131 37.0418 44.5311 37.8958 44.4191 38.7358H40.6671C41.0031 37.7418 41.7311 37.0418 42.8651 37.0418ZM47.0704 43.1738H48.5124L49.3104 38.6378C49.8004 37.9938 50.4584 37.3918 51.3684 37.3918C51.6344 37.3918 51.8304 37.4338 52.0124 37.4898L52.2784 36.0758C52.0964 36.0058 51.8724 35.9778 51.6344 35.9778C50.7104 35.9778 50.1364 36.3838 49.6044 36.9858L49.7584 36.1178H48.3164L47.0704 43.1738ZM54.7635 37.9378C54.7635 37.4618 55.1975 37.0138 55.8275 37.0138C56.4435 37.0138 56.8635 37.3918 57.1435 37.9238L58.2075 37.1258C57.8155 36.3978 56.9335 35.8378 55.8695 35.8378C54.3295 35.8378 53.3635 36.8458 53.3635 38.0078C53.3635 40.1498 56.0935 39.9818 56.0935 41.2558C56.0935 41.8298 55.6735 42.2778 55.0295 42.2778C54.3715 42.2778 53.8255 41.9278 53.3915 41.2558L52.3415 42.0538C52.8875 42.9358 53.8255 43.4538 54.9595 43.4538C56.5695 43.4538 57.5075 42.3338 57.5075 41.1858C57.5075 39.0578 54.7635 39.2118 54.7635 37.9378ZM61.5178 34.5498C62.0358 34.5498 62.4838 34.1018 62.4838 33.5698C62.4838 33.0378 62.0358 32.5898 61.5178 32.5898C60.9718 32.5898 60.5238 33.0378 60.5238 33.5698C60.5238 34.1018 60.9718 34.5498 61.5178 34.5498ZM59.0958 43.1738H60.5378L61.7838 36.1178H60.3418L59.0958 43.1738ZM67.2372 35.8378C64.6892 35.8378 63.0512 37.8398 63.0512 40.0798C63.0512 41.9978 64.3252 43.4538 66.4812 43.4538C69.0152 43.4538 70.6532 41.4518 70.6532 39.2118C70.6532 37.2938 69.3792 35.8378 67.2372 35.8378ZM66.5232 42.0958C65.3472 42.0958 64.5772 41.2278 64.5772 40.0798C64.5772 38.5678 65.5992 37.1958 67.1812 37.1958C68.3432 37.1958 69.1272 38.0638 69.1272 39.2118C69.1272 40.7238 68.1052 42.0958 66.5232 42.0958ZM71.9142 43.1738H73.3562L74.1962 38.3998L74.2102 38.4138C74.6442 37.7558 75.3302 37.1958 76.1982 37.1958C77.1782 37.1958 77.6682 37.8678 77.4722 38.9878L76.7302 43.1738H78.1722L78.9282 38.9318C79.2782 36.8878 78.2702 35.8378 76.6742 35.8378C75.7782 35.8378 75.0782 36.2158 74.4902 36.7618L74.6022 36.1178H73.1602L71.9142 43.1738ZM92.5061 39.1558C92.5061 37.2098 91.3581 35.8378 89.3561 35.8378C88.5581 35.8378 87.8301 36.0898 87.2001 36.5938L87.9001 32.6738H86.4441L84.5821 43.1738H86.0381L86.1781 42.4178C86.7381 43.0758 87.5921 43.4538 88.5721 43.4538C91.0081 43.4538 92.5061 41.4238 92.5061 39.1558ZM88.9921 37.1958C90.2381 37.1958 90.9661 38.0778 90.9661 39.2398C90.9661 40.8218 89.9581 42.0958 88.4741 42.0958C87.5221 42.0958 86.8361 41.6058 86.4721 40.7518L86.9061 38.2598C87.4381 37.5458 88.1801 37.1958 88.9921 37.1958ZM97.2579 43.4538C98.5739 43.4538 99.7079 42.9218 100.45 42.0538L99.4839 41.1298C99.0079 41.7458 98.2379 42.1518 97.3559 42.1518C96.0679 42.1518 95.3539 41.3818 95.3539 40.0798C95.3539 39.9958 95.3539 39.8978 95.3679 39.8138H100.492C100.632 39.4638 100.73 38.9318 100.73 38.5258C100.73 36.9718 99.4839 35.8378 97.7759 35.8378C95.3259 35.8378 93.8699 37.7698 93.8699 40.0798C93.8699 41.9978 95.0879 43.4538 97.2579 43.4538ZM97.7479 37.0418C98.8959 37.0418 99.4139 37.8958 99.3019 38.7358H95.5499C95.8859 37.7418 96.6139 37.0418 97.7479 37.0418ZM102.808 40.4998C102.472 42.4458 103.256 43.3138 104.866 43.3138C105.37 43.3138 105.72 43.2298 106.07 43.0898L106.294 41.8158C106.028 41.8998 105.664 41.9838 105.258 41.9838C104.488 41.9838 104.068 41.6758 104.25 40.6118L104.81 37.4198H107.064L107.288 36.1178H105.048L105.356 34.3538H103.9L103.592 36.1178H102.304L102.066 37.4198H103.354L102.808 40.4998ZM109.976 43.3838C110.844 43.3838 111.572 43.0618 112.076 42.5018L111.964 43.1738H113.406L114.176 38.8478C114.498 37.0698 113.63 35.8378 111.628 35.8378C110.34 35.8378 109.29 36.4258 108.66 37.1818L109.696 38.0498C110.2 37.4898 110.83 37.1118 111.544 37.1118C112.44 37.1118 112.93 37.6578 112.776 38.5538L112.72 38.8478L110.284 39.2538C108.576 39.5478 107.792 40.4158 107.792 41.5358C107.792 42.7258 108.702 43.3838 109.976 43.3838ZM109.276 41.3678C109.276 40.8218 109.668 40.3878 110.578 40.2338L112.538 39.8978L112.314 41.1858C111.838 41.8298 111.152 42.2078 110.34 42.2078C109.64 42.2078 109.276 41.8718 109.276 41.3678Z" fill="#EF7D00"/>
</svg>
