<svg width="120" height="25" viewBox="0 0 120 25" fill="none" xmlns="http://www.w3.org/2000/svg">
<path d="M90.7771 12.2426C89.3267 11.7873 87.9761 11.3516 87.9761 10.4214C87.9761 10.2905 88.0035 10.1694 88.0544 10.056C87.107 11.8401 90.1155 13.0575 90.1155 13.0575C90.1155 13.0575 93.4294 14.3433 92.2921 16.0551C91.9887 16.8289 90.8535 17.2353 89.5714 17.2529C88.025 17.2939 87.2558 17.1337 86.05 16.4615L85.9619 17.8079C87.2871 18.1244 88.5887 18.2632 89.8434 18.2632C92.0788 18.2827 94.6332 17.3916 94.6332 15.3125C94.6332 13.4698 92.619 12.8347 90.7771 12.2426Z" fill="#009640"/>
<path d="M90.1155 13.0555C90.1155 13.0555 87.107 11.8401 88.0544 10.0541C88.3441 9.39163 89.4128 9.02231 90.4815 9.07507C92.619 9.15323 93.5527 9.72773 94.3141 10.2026C94.3141 9.8059 94.3631 9.46979 94.2652 8.93438C92.989 8.28171 92.1042 8.08435 90.2369 8.08435C87.8802 8.08435 85.7407 9.07507 85.7407 10.736C85.7407 12.696 87.7549 13.29 89.6222 13.845C91.0472 14.2612 92.3743 14.6559 92.3743 15.6271C92.3743 15.7795 92.3469 15.9202 92.2941 16.0531C93.4294 14.3394 90.1155 13.0555 90.1155 13.0555Z" fill="#BFD43C"/>
<path d="M80.0568 8.27002C76.8584 8.27002 75.0596 10.2847 75.0596 13.5167V18.1459H77.3576V12.8992C77.3576 10.2261 78.4968 9.42683 80.1547 9.44833C81.8126 9.46787 82.6915 10.2456 82.6915 12.8992V18.1459H84.9914V13.5167C84.9914 10.2847 83.6114 8.27002 80.0568 8.27002Z" fill="#5E2A7E"/>
<path d="M100.607 8.22705C102.361 8.22705 103.725 8.72534 104.634 9.70238C105.458 8.78396 106.757 8.22705 108.66 8.22705C112.044 8.22705 113.916 9.89388 113.916 13.4523V18.1421H111.482V12.8445C111.482 10.1714 110.416 9.38191 108.66 9.40145C106.926 9.40145 105.837 10.23 105.837 12.8445V18.1421H103.418C103.418 18.1421 103.418 13.1025 103.418 12.8445C103.418 10.1714 102.361 9.38387 100.605 9.40145C98.8514 9.42295 97.7826 10.1889 97.7826 12.8445V18.1421H95.3516V13.4523C95.3516 9.89388 97.2444 8.22705 100.607 8.22705Z" fill="#5E2A7E"/>
<path d="M70.0504 8.41652H65.1177L64.9279 10.2299L64.9318 10.2319C64.9318 10.2319 68.9777 10.2319 70.3909 10.2319C71.493 10.2319 71.4949 11.0858 71.4949 11.2949V11.4395L71.493 11.4356H66.6386C64.9004 11.4766 63.6125 12.0394 63.1701 13.8606C63.1153 14.097 63.084 14.4859 63.084 14.7438C63.084 14.9998 63.1153 15.3613 63.1701 15.6017C63.5009 17.2255 64.7869 18.1478 66.6386 18.1478C66.6386 18.1478 70.481 18.1478 70.7648 18.1478C71.6339 18.1478 72.1937 17.9798 72.9023 17.4678C73.4973 17.0379 73.7694 16.3794 73.7694 15.6955C73.7694 15.1444 73.7694 10.908 73.7694 10.908C73.7694 9.16102 72.5911 8.40479 70.0504 8.41652ZM71.4949 15.0702C71.4949 15.2792 71.493 16.3208 70.3909 16.3208C68.9777 16.3208 66.1982 16.3208 66.1982 16.3208C65.3526 16.3208 64.5638 15.7033 64.5638 14.7321C64.5638 13.7707 65.3526 13.2431 66.1786 13.2431L71.4949 13.247V15.0702Z" fill="#5E2A7E"/>
<path d="M4.792 13.464C4.792 16.11 6.574 18.36 9.436 18.36C10.732 18.36 11.704 17.892 12.46 17.082V18H14.35V4.5H12.46V9.846C11.704 9.036 10.732 8.568 9.436 8.568C6.574 8.568 4.792 10.818 4.792 13.464ZM6.754 13.464C6.754 11.682 7.924 10.314 9.67 10.314C10.804 10.314 11.794 10.836 12.46 11.826V15.102C11.848 16.056 10.84 16.614 9.67 16.614C7.924 16.614 6.754 15.246 6.754 13.464ZM20.0941 18.27C21.2101 18.27 22.3441 17.766 22.9921 16.974V18H24.8461V12.006C24.8461 10.008 23.4961 8.568 21.0481 8.568C19.4281 8.568 18.1321 9.252 17.3221 10.332L18.7081 11.394C19.2301 10.656 20.0041 10.206 20.9941 10.206C22.1641 10.206 22.9921 10.89 22.9921 12.006V12.474L20.0581 12.96C18.1321 13.284 17.0701 14.274 17.0701 15.642C17.0701 17.244 18.2941 18.27 20.0941 18.27ZM18.9421 15.57C18.9421 14.886 19.4101 14.4 20.5441 14.202L22.9921 13.788V15.354C22.4521 16.218 21.5701 16.758 20.4361 16.758C19.5001 16.758 18.9421 16.272 18.9421 15.57ZM28.5422 14.85C28.5422 17.064 29.6582 18.18 31.7822 18.18C32.4842 18.18 32.9882 18.09 33.4202 17.91V16.272C33.0962 16.398 32.6822 16.47 32.0702 16.47C31.0622 16.47 30.4142 16.074 30.4142 14.85V10.602H33.4202V8.928H30.4142V6.66H28.5422V8.928H26.8322V10.602H28.5422V14.85ZM38.3831 18.27C39.4991 18.27 40.6331 17.766 41.2811 16.974V18H43.1351V12.006C43.1351 10.008 41.7851 8.568 39.3371 8.568C37.7171 8.568 36.4211 9.252 35.6111 10.332L36.9971 11.394C37.5191 10.656 38.2931 10.206 39.2831 10.206C40.4531 10.206 41.2811 10.89 41.2811 12.006V12.474L38.3471 12.96C36.4211 13.284 35.3591 14.274 35.3591 15.642C35.3591 17.244 36.5831 18.27 38.3831 18.27ZM37.2311 15.57C37.2311 14.886 37.6991 14.4 38.8331 14.202L41.2811 13.788V15.354C40.7411 16.218 39.8591 16.758 38.7251 16.758C37.7891 16.758 37.2311 16.272 37.2311 15.57Z" fill="#009640"/>
<rect x="46.2188" y="9.93054" width="5.25" height="14" rx="2.625" transform="rotate(-45 46.2188 9.93054)" fill="white"/>
<path d="M48.0749 11.7866C47.0498 10.7615 47.0498 9.09939 48.0749 8.07426C49.1 7.04914 50.7621 7.04914 51.7872 8.07426L54.9628 11.2499C54.9628 11.2499 53.5025 11.878 52.7812 12.5624C51.9749 13.3275 51.2505 14.9622 51.2505 14.9622L48.0749 11.7866Z" fill="#009640"/>
<ellipse cx="49.9154" cy="8.91517" rx="0.677526" ry="0.617114" transform="rotate(-45 49.9154 8.91517)" fill="white"/>
<rect x="46.2188" y="9.93103" width="5.25" height="14" rx="2.625" transform="rotate(-45 46.2188 9.93103)" stroke="black" stroke-linecap="round" stroke-linejoin="round"/>
<path d="M51.2619 14.9514C51.2619 14.9514 52.059 13.3261 52.8908 12.5624C53.5701 11.9387 54.8969 11.3164 54.8969 11.3164" stroke="black" stroke-linecap="round" stroke-linejoin="round"/>
</svg>