<svg width="120" height="120" viewBox="0 0 120 120" fill="none" xmlns="http://www.w3.org/2000/svg">
<path d="M112 45.5L96 107L22 38.5V37L59.5002 40.7427V37L69.5002 38V41.7368L112 45.5Z" fill="#F5F5F5" stroke="black" stroke-linejoin="round"/>
<path d="M102.5 20.5L97 79L20 44.5V13.5L73.5 17.7427V14L83.5 15V18.7369L102.5 20.5Z" fill="#F5F5F5" stroke="black" stroke-linejoin="round"/>
<path d="M108 47.5L97.0002 104.5L18 40.5V39L55.5002 42.7427V39L65.5002 40V43.7368L108 47.5Z" fill="#F5F5F5" stroke="black" stroke-linejoin="round"/>
<path d="M104 49L96 106.5L15.5 41.5V40L40.5 42.7427V39L50.5 40V43.7368L104 49Z" fill="#E5E5E5" stroke="black" stroke-linejoin="round"/>
<path d="M99.5 50L96 106.5L14 44.5V41.5L26.5 42.7427V39L36.5 40V43.7368L99.5 50Z" fill="#F5F5F5" stroke="black" stroke-linejoin="round"/>
<path d="M10.335 44.3747L93.335 53.7006C94.8527 53.8711 96 55.1546 96 56.6818V107L106 69.5C106 69.5 107.785 69.9141 108 70C110 70.8 109.833 73 109.5 74L96 107L7 97V47.356C7 45.5664 8.55665 44.1749 10.335 44.3747Z" fill="#9E9E9E"/>
<path d="M96 107L7 97V47.356C7 45.5664 8.55665 44.1749 10.335 44.3747L93.335 53.7006C94.8527 53.8711 96 55.1546 96 56.6818V107ZM96 107L109.5 74C109.833 73 110 70.8 108 70C107.785 69.9141 106 69.5 106 69.5L96 107Z" stroke="black" stroke-linejoin="round"/>
</svg>
