<svg width="150" height="150" viewBox="0 0 150 150" fill="none" xmlns="http://www.w3.org/2000/svg">
<rect width="150" height="150"/>
<path d="M18.8508 126.895C18.8508 126.895 40.2327 123.636 50.1363 121.975C63.172 119.787 64.9126 121.421 75.1647 123.615C85.5702 121.433 87.1575 120.881 100.715 121.975C110.917 122.797 131.149 126.834 131.149 126.834V125.194L76.2762 106.478L18.8508 125.255V126.895Z" fill="#999999"/>
<path d="M18 125.194L18.0002 34.2411H20.5522L129.927 34.1641H132V125.194C132 125.194 110.674 122.32 100.909 119.472C95.6767 117.946 92.1 117.391 87.9545 117.391C82.7953 117.391 80.0591 121.057 75 122.073C70.0421 121.057 67.3646 117.391 62.3045 117.391C58.4182 117.391 54.2255 117.946 49.0909 119.472C39.5339 122.313 18 125.194 18 125.194Z" fill="#FAFAFA"/>
<path d="M20.5522 122.565L20.5525 31.6123H23.6789H126.843H129.448V122.642C129.448 122.642 110.61 119.691 100.791 116.843C95.53 115.317 91.9336 114.763 87.7654 114.763C82.5778 114.763 79.4291 119.078 74.7398 122.122C69.5295 119.078 67.0623 114.763 61.9745 114.763C58.0667 114.763 54.372 115.317 49.2092 116.843C39.5997 119.684 20.5522 122.565 20.5522 122.565Z" fill="#F2F2F2"/>
<path d="M23.9553 119.712V29.785C23.9553 29.785 38.8853 29.213 47.8707 26.6662C53.5059 25.0689 55.6079 24.2337 61.3882 23.2874C66.6217 22.4306 69.9312 24.828 74.9056 26.6662C79.5847 24.5869 82.3968 22.4605 87.1232 23.2874C92.4466 24.2187 94.2228 24.9312 99.3409 26.6662C109.532 30.1208 126.896 29.785 126.896 29.785V74.7484V119.712C126.896 119.712 110.698 116.84 100.901 113.994C95.6509 112.469 92.0623 111.915 87.9031 111.915C82.7267 111.915 79.0648 115.553 74.9056 121.791C71.7862 115.553 67.2449 111.915 62.168 111.915C58.2688 111.915 54.5821 112.469 49.4305 113.994C39.8417 116.833 23.9553 119.712 23.9553 119.712Z" fill="white"/>
<path d="M75 121.366C74.6597 118.984 68.3358 114.134 66.0671 112.433V23.5298C67.3433 24.3805 73.2985 25.6566 75 26.5074C79.4239 23.4447 82.5149 23.2462 83.5074 23.5298V112.433C76.7015 115.41 75.4253 124.343 75 121.366Z" fill="#F4F4F4"/>
<path d="M74.9999 120.94L70.3208 114.985V24.8057L74.9999 26.9325L79.679 24.8057V114.985L74.9999 120.94Z" fill="#F2F2F2"/>
<path d="M103.925 114.56V28.209C113.113 30.2508 123.067 30.1941 126.895 29.9105V120.09L103.925 114.56Z" fill="#F4F4F4"/>
<path d="M74.9056 26.6662C74.9056 61.7848 74.9056 86.6724 74.9056 121.791M74.9056 26.6662C79.5847 24.5869 82.3968 22.4605 87.1232 23.2874C92.4466 24.2187 94.2228 24.9312 99.3409 26.6662C109.532 30.1208 126.896 29.785 126.896 29.785V74.7484V119.712C126.896 119.712 110.698 116.84 100.901 113.994C95.6509 112.469 92.0623 111.915 87.9031 111.915C82.7267 111.915 79.0648 115.553 74.9056 121.791M74.9056 26.6662C69.9312 24.828 66.6217 22.4306 61.3882 23.2874C55.6079 24.2337 53.5059 25.0689 47.8707 26.6662C38.8853 29.213 23.9553 29.785 23.9553 29.785V119.712C23.9553 119.712 39.8417 116.833 49.4304 113.994C54.5821 112.469 58.2688 111.915 62.168 111.915C67.2449 111.915 71.7862 115.553 74.9056 121.791" stroke="black" stroke-linecap="round" stroke-linejoin="round"/>
<path d="M129.927 34.1641H132V125.194C132 125.194 110.674 122.32 100.909 119.472C95.6767 117.946 92.1 117.391 87.9545 117.391C82.7953 117.391 80.0591 121.057 75 122.073C70.0421 121.057 67.3646 117.391 62.3045 117.391C58.4182 117.391 54.2255 117.946 49.0909 119.472C39.5339 122.313 18 125.194 18 125.194L18.0002 34.2411H20.5522" stroke="black" stroke-linecap="round" stroke-linejoin="round"/>
<path d="M131.149 125.194V126.834C131.149 126.834 110.917 122.798 100.715 121.975C87.1575 120.881 85.5702 121.433 75.1647 123.615C64.9126 121.421 63.172 119.788 50.1363 121.975C40.2327 123.636 18.8508 126.896 18.8508 126.896V125.255" stroke="black" stroke-linecap="round" stroke-linejoin="round"/>
<path d="M126.843 31.6123H129.448V122.642C129.448 122.642 110.61 119.691 100.791 116.843C95.53 115.317 91.9337 114.763 87.7654 114.763C82.5778 114.763 79.4291 119.078 74.7398 122.122C69.5295 119.078 67.0623 114.763 61.9745 114.763C58.0667 114.763 54.372 115.317 49.2092 116.843C39.5997 119.684 20.5522 122.565 20.5522 122.565L20.5525 31.6123H23.6789" stroke="black" stroke-linecap="round" stroke-linejoin="round"/>
</svg>
