<svg width="150" height="150" viewBox="0 0 150 150" fill="none" xmlns="http://www.w3.org/2000/svg">
<rect width="150" height="150"/>
<path d="M126.75 112.833C126.39 117.708 120 119.208 120 119.208L109.125 119.958L109.5 123.333L106.5 126L105.375 119.958L51.75 83.9583C51.75 83.9583 52.875 79.8333 56.625 79.0833C60.3498 78.3384 119.941 79.0733 120.742 79.0832C120.767 79.0835 120.763 79.0833 120.787 79.0834C124.063 79.1035 126.716 81.748 126.75 85.02C126.75 85.062 126.75 85.1017 126.751 85.1437C126.771 86.4366 127.1 108.104 126.75 112.833Z" fill="#FAFAFA"/>
<path d="M50.25 90.083C50.25 85.6647 53.8317 82.083 58.25 82.083H115.75C120.168 82.083 123.75 85.6647 123.75 90.083V111.583C123.75 116.001 120.168 119.583 115.75 119.583H105.75L106.5 126.333L100.125 119.583H58.25C53.8317 119.583 50.25 116.001 50.25 111.583V90.083Z" fill="white"/>
<circle cx="74.25" cy="101.25" r="3" fill="#F2F2F2"/>
<circle cx="89.25" cy="101.25" r="3" fill="#F2F2F2"/>
<circle cx="104.25" cy="101.25" r="3" fill="#F2F2F2"/>
<path d="M104.25 60.3333C103.89 65.2083 97.5 66.7083 97.5 66.7083L29.25 31.4583C29.25 31.4583 30.375 27.3333 34.125 26.5833C37.8498 25.8384 97.4412 26.5733 98.2419 26.5832C98.2667 26.5835 98.2626 26.5833 98.2875 26.5834C101.563 26.6035 104.216 29.248 104.25 32.52C104.25 32.562 104.25 32.6017 104.251 32.6437C104.271 33.9366 104.6 55.6043 104.25 60.3333Z" fill="#999999"/>
<path d="M27.75 37.583C27.75 33.1647 31.3317 29.583 35.75 29.583H93.25C97.6683 29.583 101.25 33.1647 101.25 37.583V59.083C101.25 63.5013 97.6683 67.083 93.25 67.083H53.25L46.5 73.833L47.625 67.083H35.75C31.3317 67.083 27.75 63.5013 27.75 59.083V37.583Z" fill="#FAFAFA"/>
<circle cx="50.25" cy="48.75" r="3" fill="#999999"/>
<circle cx="65.25" cy="48.75" r="3" fill="#999999"/>
<circle cx="80.25" cy="48.75" r="3" fill="#999999"/>
<path d="M50.25 90.083C50.25 85.6647 53.8317 82.083 58.25 82.083H115.75C120.168 82.083 123.75 85.6647 123.75 90.083V111.583C123.75 116.001 120.168 119.583 115.75 119.583H105.75L106.5 126.333L100.125 119.583H58.25C53.8317 119.583 50.25 116.001 50.25 111.583V90.083Z" stroke="black" stroke-linecap="round" stroke-linejoin="round"/>
<path d="M106.5 126.333L109.5 123.333" stroke="black" stroke-linecap="round" stroke-linejoin="round"/>
<path d="M117.75 82.083L120.75 79.083" stroke="black" stroke-linecap="round" stroke-linejoin="round"/>
<path d="M120 119.208C120 119.208 126.39 117.708 126.75 112.833C127.1 108.104 126.771 86.4366 126.751 85.1437C126.75 85.1017 126.75 85.062 126.75 85.02C126.716 81.748 124.063 79.1035 120.787 79.0834C120.763 79.0833 120.767 79.0835 120.742 79.0832C119.941 79.0733 60.3498 78.3384 56.625 79.0833C52.875 79.8333 51.75 83.9583 51.75 83.9583M109.125 119.958L109.5 123.333" stroke="black" stroke-linecap="round" stroke-linejoin="round"/>
<path d="M123.75 88.833L126.75 85.833" stroke="black" stroke-linecap="round" stroke-linejoin="round"/>
<circle cx="74.25" cy="101.25" r="3" stroke="black"/>
<circle cx="50.25" cy="48.75" r="3" stroke="black"/>
<circle cx="89.25" cy="101.25" r="3" stroke="black"/>
<circle cx="65.25" cy="48.75" r="3" stroke="black"/>
<circle cx="104.25" cy="101.25" r="3" stroke="black"/>
<circle cx="80.25" cy="48.75" r="3" stroke="black"/>
<path d="M27.75 37.583C27.75 33.1647 31.3317 29.583 35.75 29.583H93.25C97.6683 29.583 101.25 33.1647 101.25 37.583V59.083C101.25 63.5013 97.6683 67.083 93.25 67.083H53.25L46.5 73.833L47.625 67.083H35.75C31.3317 67.083 27.75 63.5013 27.75 59.083V37.583Z" stroke="black" stroke-linecap="round" stroke-linejoin="round"/>
<path d="M95.25 29.583L98.25 26.583" stroke="black" stroke-linecap="round" stroke-linejoin="round"/>
<path d="M97.5 66.7083C97.5 66.7083 103.89 65.2083 104.25 60.3333C104.6 55.6043 104.271 33.9366 104.251 32.6437C104.25 32.6017 104.25 32.562 104.25 32.52C104.216 29.248 101.563 26.6035 98.2875 26.5834C98.2626 26.5833 98.2667 26.5835 98.2419 26.5832C97.4412 26.5733 37.8498 25.8384 34.125 26.5833C30.375 27.3333 29.25 31.4583 29.25 31.4583" stroke="black" stroke-linecap="round" stroke-linejoin="round"/>
<path d="M101.25 36.333L104.25 33.333" stroke="black" stroke-linecap="round" stroke-linejoin="round"/>
</svg>
