<svg width="120" height="120" viewBox="0 0 120 120" fill="none" xmlns="http://www.w3.org/2000/svg">
<path d="M84.3138 86.2503C80.7556 81.5062 78.9766 75.6545 78.9766 54.8201C78.9766 33.9858 81.3487 31.6922 84.9068 25.1689" stroke="black" stroke-linecap="round" stroke-linejoin="round"/>
<path d="M42.75 68.625H38.625C39.125 73.75 40.05 84.525 39.75 86.625C39.45 88.725 42.875 97.5 44.625 101.625C46 100.875 48.975 99.075 49.875 97.875C51 96.375 49.5 93.75 47.25 93.375C45 93 45.75 91.5 45 90.75C44.4 90.15 43.5 83.75 43.125 80.625C43.75 80.5 44.925 79.725 44.625 77.625C44.325 75.525 43.25 74.5 42.75 74.25V68.625Z" fill="white"/>
<path d="M19.6743 49.0469C20.1487 49.0469 31.3371 49.0469 36.872 49.0469" stroke="#999999" stroke-linecap="round" stroke-linejoin="round"/>
<path d="M19.6743 54.3838C20.1487 54.3838 31.3371 54.3838 36.872 54.3838" stroke="#999999" stroke-linecap="round" stroke-linejoin="round"/>
<path d="M19.6743 59.1279C20.1487 59.1279 31.3371 59.1279 36.872 59.1279" stroke="#999999" stroke-linecap="round" stroke-linejoin="round"/>
<path d="M19.6743 63.8721C20.1487 63.8721 31.3371 63.8721 36.872 63.8721" stroke="#999999" stroke-linecap="round" stroke-linejoin="round"/>
<path d="M17.25 73.4936L18.9808 68.625H39V70.875L20.7115 76.5L17.25 73.4936Z" fill="#999999"/>
<path d="M43.9884 95.7384C40.6675 94.3151 39.3952 78.189 38.9999 70.875L20.9999 76.5C21.1976 83.2209 21.335 98.9407 20.8605 104.634C20.3861 110.327 25.0117 112.936 27.3838 113.529L44.5815 102.855C46.3602 101.076 47.5463 97.2632 43.9884 95.7384Z" fill="#E6E6E6"/>
<ellipse cx="29.7556" cy="81.5061" rx="2.96512" ry="2.96511" fill="white"/>
<path d="M40.875 80.625L40.5 74.25C40.875 74.625 42 76.125 42 77.625C42 78.825 41.25 80.125 40.875 80.625Z" fill="#E6E6E6"/>
<ellipse cx="99.1395" cy="56.0058" rx="11.8605" ry="46.2558" fill="#E6E6E6" stroke="black" stroke-linecap="round" stroke-linejoin="round"/>
<path d="M105 57C105 81.4386 101.67 99.75 95.25 99.75C91.6979 88.875 81.75 81.4386 81.75 57C81.75 32.5614 88.4167 21.375 94.875 12.75C101.295 12.75 105 32.5614 105 57Z" fill="#999999"/>
<path d="M10.9767 67.273C9.88502 67.273 9 62.3537 9 56.8951C9 51.4365 9.88502 45.3311 10.9767 45.3311H17.3023L18.375 43.5521H42.2095C51.0288 43.5521 64.9597 39.071 72.3168 34.6567C84.1773 27.5404 89.9707 19.2381 94.9885 12.7148C94.9885 12.7148 86.9965 23.7904 87 56.8951C87.0032 86.8743 93.5519 97.3286 94.7885 99.0354C94.8553 99.1228 94.922 99.2097 94.9885 99.2962C94.9885 99.2962 94.9174 99.2134 94.7885 99.0354C89.8159 92.5373 84.02 83.7832 72.3168 76.7614C64.9597 72.3471 51.0288 68.459 42.2095 68.459H18.375L17.3023 67.273H10.9767Z" fill="white"/>
<path d="M10.4998 65.2495C8.99981 63.4495 9.375 60.7495 9 57.3745C18.75 57.7495 73.5 52.8745 87.3748 55.4995C86.2498 60.7495 88.4998 73.8745 88.4998 79.8745C83.6248 75.7495 67.8748 69.7495 59.6248 67.8745C52.4219 66.2375 16.8748 65.2495 10.4998 65.2495Z" fill="#F4F4F4"/>
<path d="M87.375 47.25C84.375 51 10.5 55.875 9.375 55.875V49.5C17.75 49.5 37.8 49.05 51 47.25C64.2 45.45 81.75 37.5 88.875 33.75C88.125 37.5 87.375 43.5 87.375 47.25Z" fill="#F4F4F4"/>
<path d="M39.8371 56.0062C39.8371 62.5566 40.8992 68.4597 42.2092 68.4597H18.4883C17.1782 68.4597 16.1162 62.5566 16.1162 56.0062C16.1162 49.4559 17.1782 43.5527 18.4883 43.5527H42.2092C40.8992 43.5527 39.8371 49.4559 39.8371 56.0062Z" fill="#E6E6E6"/>
<path d="M19.8481 68.625C16.1249 59.625 18 46.125 19.8481 43.5L26.9732 43.5C25.125 52.5 25.125 60 26.9732 68.625H19.8481Z" fill="#FAFAFA"/>
<path d="M101.055 57.192C101.055 63.0873 99.8299 67.8664 98.3183 67.8664C96.8067 67.8664 95.5813 63.0873 95.5813 57.192C95.5813 51.2967 96.8067 46.5176 98.3183 46.5176C99.8299 46.5176 101.055 51.2967 101.055 57.192Z" fill="#FAFAFA"/>
<path d="M98.3183 67.8664C99.8299 67.8664 101.055 63.0873 101.055 57.192C101.055 51.2967 99.8299 46.5176 98.3183 46.5176M98.3183 67.8664C96.8067 67.8664 95.5813 63.0873 95.5813 57.192C95.5813 51.2967 96.8067 46.5176 98.3183 46.5176M98.3183 67.8664H87.8719C87.8719 67.8664 87.375 65.2501 87.375 57.3751C87.375 49.5001 87.8719 46.5176 87.8719 46.5176H98.3183" stroke="black" stroke-linecap="round" stroke-linejoin="round"/>
<path d="M98.3184 67.8664C99.83 67.8664 101.055 63.0873 101.055 57.192C101.055 51.2967 99.83 46.5176 98.3184 46.5176M98.3184 67.8664C96.8068 67.8664 95.5814 63.0873 95.5814 57.192C95.5814 51.2967 96.8068 46.5176 98.3184 46.5176M98.3184 67.8664H87.8721M98.3184 46.5176H87.8721" stroke="black" stroke-linecap="round" stroke-linejoin="round"/>
<path d="M84.3138 86.2503C80.7556 81.5062 78.9766 75.6545 78.9766 54.8201C78.9766 33.9858 81.3487 31.6922 84.9068 25.1689" stroke="black" stroke-linecap="round" stroke-linejoin="round"/>
<path d="M39.8371 56.0062C39.8371 62.5566 40.8992 68.4597 42.2092 68.4597H18.4883C17.1782 68.4597 16.1162 62.5566 16.1162 56.0062C16.1162 49.4559 17.1782 43.5527 18.4883 43.5527H42.2092C40.8992 43.5527 39.8371 49.4559 39.8371 56.0062Z" stroke="black" stroke-linecap="round" stroke-linejoin="round"/>
<path d="M17.3023 45.3311H10.9767C9.88502 45.3311 9 51.4365 9 56.8951C9 62.3537 9.88502 67.273 10.9767 67.273H17.3023M42.2095 68.459C51.0288 68.459 64.9597 72.3471 72.3168 76.7614C84.1773 83.8776 89.9707 92.773 94.9885 99.2962M42.2095 43.5521C51.0288 43.5521 64.9597 39.071 72.3168 34.6567C84.1773 27.5404 89.9707 19.2381 94.9885 12.7148" stroke="black" stroke-linecap="round" stroke-linejoin="round"/>
<path d="M19.6743 48.2969C20.1487 48.2969 31.3371 48.2969 36.872 48.2969" stroke="black" stroke-linecap="round" stroke-linejoin="round"/>
<path d="M19.6743 53.6338C20.1487 53.6338 31.3371 53.6338 36.872 53.6338" stroke="black" stroke-linecap="round" stroke-linejoin="round"/>
<path d="M19.6743 58.3779C20.1487 58.3779 31.3371 58.3779 36.872 58.3779" stroke="black" stroke-linecap="round" stroke-linejoin="round"/>
<path d="M19.6743 63.1221C20.1487 63.1221 31.3371 63.1221 36.872 63.1221" stroke="black" stroke-linecap="round" stroke-linejoin="round"/>
<path d="M17.25 73.4936L18.9808 68.625H39V70.875L20.7115 76.5L17.25 73.4936Z" stroke="black" stroke-linecap="round" stroke-linejoin="round"/>
<path d="M44.5815 102.855C46.3602 101.076 47.5463 97.2632 43.9884 95.7384C40.6675 94.3151 39.3952 78.189 38.9999 70.875L20.9999 76.5C21.1976 83.2209 21.335 98.9407 20.8605 104.634C20.3861 110.327 25.0117 112.936 27.3838 113.529L44.5815 102.855ZM44.5815 102.855L49.3254 98.7035" stroke="black" stroke-linecap="round" stroke-linejoin="round"/>
<ellipse cx="29.7556" cy="81.5061" rx="2.96512" ry="2.96511" stroke="black" stroke-linecap="round" stroke-linejoin="round"/>
<path d="M39 70.875H42.802V68.625" stroke="black" stroke-linecap="round" stroke-linejoin="round"/>
<path d="M43.125 81C43.875 87.375 44.25 91.875 46.3606 92.7733C49.4928 94.1063 51.1048 95.7384 49.3258 98.7035" stroke="black" stroke-linecap="round" stroke-linejoin="round"/>
<path d="M40.5 74.25L40.875 80.625M40.5 74.25C40.875 74.625 42 76.125 42 77.625C42 78.825 41.25 80.125 40.875 80.625M40.5 74.25H42.75C43.125 74.625 44.25 76.125 44.25 77.625C44.25 78.825 43.5 80.125 43.125 80.625H40.875" stroke="black" stroke-linecap="round" stroke-linejoin="round"/>
<path d="M42.75 74.25V70.875" stroke="black"/>
<ellipse cx="99.1395" cy="56.0058" rx="11.8605" ry="46.2558" stroke="black" stroke-linecap="round" stroke-linejoin="round"/>
</svg>
