<svg width="913" height="406" viewBox="0 0 913 406" fill="none" xmlns="http://www.w3.org/2000/svg">
<circle cx="213.5" cy="354.5" r="22.5" fill="white" stroke="black"/>
<rect x="239.536" y="72.3229" width="203.949" height="5.99999" rx="3" transform="rotate(140.337 239.536 72.3229)" fill="#F4F4F4" stroke="black"/>
<circle cx="82" cy="233" r="53" fill="#BFD43C" stroke="black"/>
<circle cx="251.5" cy="71.5" r="30.5" fill="#CFDF6D" stroke="black"/>
<circle cx="304.5" cy="272.5" r="16.5" fill="white" stroke="black"/>
<rect x="300.274" y="276.235" width="41.9671" height="5.99999" rx="3" transform="rotate(-173.093 300.274 276.235)" fill="#F4F4F4" stroke="black"/>
<rect x="214.561" y="340.5" width="60.4521" height="5.99999" rx="3" transform="rotate(-82.5298 214.561 340.5)" fill="#F4F4F4" stroke="black"/>
<circle cx="229" cy="261" r="41" fill="black" stroke="black"/>
<rect x="118.389" y="243.564" width="82" height="6" rx="3" transform="rotate(7.90727 118.389 243.564)" fill="#F4F4F4" stroke="black"/>
<rect x="257.336" y="88.4665" width="146" height="5.99999" rx="3" transform="rotate(98.6008 257.336 88.4665)" fill="#F4F4F4" stroke="black"/>
<circle cx="360.574" cy="170.842" r="16.5" transform="rotate(-122.007 360.574 170.842)" fill="white" stroke="black"/>
<rect x="369.927" y="174.053" width="41.9671" height="5.99999" rx="3" transform="rotate(32.3441 369.927 174.053)" fill="#F4F4F4" stroke="black"/>
<circle cx="461.2" cy="235.2" r="72.714" transform="rotate(-122.007 461.2 235.2)" fill="#EA336B" stroke="black"/>
<circle cx="539.005" cy="128.005" r="22.5" transform="rotate(-122.007 539.005 128.005)" fill="white" stroke="black"/>
<rect x="534.571" y="141.066" width="60.4521" height="5.99999" rx="3" transform="rotate(122.907 534.571 141.066)" fill="#F4F4F4" stroke="black"/>
<circle cx="830.269" cy="332.5" r="22.5" fill="white" stroke="black"/>
<rect x="686.394" y="96.4611" width="203.949" height="5.99999" rx="3" transform="rotate(107.781 686.394 96.4611)" fill="#F4F4F4" stroke="black"/>
<circle cx="632.769" cy="306" r="36" fill="#CFDF6D" stroke="black"/>
<circle cx="702.5" cy="85.5" r="61.5" fill="#BFD43C" stroke="black"/>
<circle cx="864.809" cy="209.5" r="16.5" fill="white" stroke="black"/>
<rect x="864.865" y="213.489" width="41.9671" height="5.99999" rx="3" transform="rotate(154.351 864.865 213.489)" fill="#F4F4F4" stroke="black"/>
<rect x="825.064" y="319.959" width="60.4521" height="5.99999" rx="3" transform="rotate(-115.086 825.064 319.959)" fill="#F4F4F4" stroke="black"/>
<circle cx="787.769" cy="240" r="47" fill="black" stroke="black"/>
<rect x="658.295" y="298.642" width="103.055" height="6" rx="3" transform="rotate(-24.6486 658.295 298.642)" fill="#F4F4F4" stroke="black"/>
<rect x="732.28" y="108.501" width="105.687" height="5.99999" rx="3" transform="rotate(66.045 732.28 108.501)" fill="#F4F4F4" stroke="black"/>
</svg>
